<svg width="116" height="63" viewBox="0 0 116 63" fill="none" xmlns="http://www.w3.org/2000/svg">
<path d="M13.2 62.48C12.6667 62.48 12.2667 62.2933 12 61.92C11.7333 61.4933 11.6 60.9867 11.6 60.4V53.28V46.16L11.44 33.36C11.28 27.6533 11.2 23.3867 11.2 20.56L11.28 18.24V13.04C11.28 7.28 11.2267 4.4 11.12 4.4H2.08C1.65333 4.4 1.25333 4.29333 0.88 4.08C0.56 3.86666 0.4 3.57333 0.4 3.2C0.4 2.77333 0.48 2.48 0.64 2.32C0.8 2.16 1.22667 2.02666 1.92 1.92C2.66667 1.76 3.73333 1.68 5.12 1.68H13.12L21.92 1.6C22.56 1.6 22.9867 1.70666 23.2 1.92C23.4667 2.13333 23.6 2.48 23.6 2.96C23.6 3.76 23.0933 4.16 22.08 4.16H18.48H14.96L14.24 4.24L14.32 8.88V15.12V47.6V54.24L14.4 60.16V60.32C14.4 60.7467 14.3733 61.12 14.32 61.44C14.2667 61.7067 14.16 61.92 14 62.08C13.84 62.3467 13.5733 62.48 13.2 62.48ZM36.9869 61.68C35.7069 61.6267 34.0802 61.6 32.1069 61.6C31.7335 61.6 31.3869 61.4667 31.0669 61.2C30.8002 60.9333 30.6669 60.64 30.6669 60.32C30.6669 59.6267 31.1202 59.28 32.0269 59.28H35.1469C35.1469 53.1467 34.9602 45.4133 34.5869 36.08C34.3735 28.6133 34.1602 22.7467 33.9469 18.48L34.0269 14.4V9.12C34.0269 6.45333 33.9735 4.74666 33.8669 4H31.0669C30.5335 4 30.2669 3.62666 30.2669 2.88C30.2669 2.4 30.4802 2.02666 30.9069 1.76C31.2802 1.6 32.2669 1.52 33.8669 1.52H36.1069C36.9069 1.57333 37.9202 1.6 39.1469 1.6C39.5735 1.6 39.9202 1.70666 40.1869 1.92C40.4535 2.08 40.5869 2.34666 40.5869 2.72C40.5869 3.04 40.5069 3.33333 40.3469 3.6C40.1869 3.86666 39.9469 4 39.6269 4C39.2535 4 38.9335 3.97333 38.6669 3.92H37.7069H36.9069C36.3735 3.92 36.0535 3.97333 35.9469 4.08L35.7869 4.4C35.7869 8.56 36.1335 16.96 36.8269 29.6C37.4669 41.28 37.7869 49.68 37.7869 54.8V57.04C37.7335 57.7333 37.7069 58.4533 37.7069 59.2H40.5869C41.8135 59.2 42.4269 59.5733 42.4269 60.32C42.4269 60.64 42.2935 60.96 42.0269 61.28C41.8135 61.5467 41.5735 61.68 41.3069 61.68H36.9869ZM54.1494 62.48C53.5094 62.48 53.1894 61.5467 53.1894 59.68C53.1894 57.0133 53.1627 54.64 53.1094 52.56L52.9494 45.36V38.88C52.896 36.96 52.8694 34.8 52.8694 32.4C52.8694 25.2533 52.736 18.64 52.4694 12.56L52.3894 9.68C52.2294 6.53333 52.1494 3.97333 52.1494 2L52.3894 1.68C52.4427 1.57333 52.5494 1.44 52.7094 1.27999C52.7627 1.12 52.896 1.01333 53.1094 0.959999C53.216 0.906663 53.4027 0.879995 53.6694 0.879995C55.536 0.879995 57.216 1.30666 58.7094 2.16C60.256 3.01333 61.5094 4.18666 62.4694 5.68C64.336 8.61333 65.2694 11.9467 65.2694 15.68C65.2694 18.08 64.8694 20.5333 64.0694 23.04C63.3227 25.5467 62.176 27.8133 60.6294 29.84C59.0294 32.0267 57.2427 33.3067 55.2694 33.68L55.4294 42.56L55.5894 46.88C55.8027 52 55.9094 56.3733 55.9094 60C55.9094 60.8533 55.776 61.4933 55.5094 61.92C55.296 62.2933 54.8427 62.48 54.1494 62.48ZM55.2694 30.72C55.7494 30.6667 56.2294 30.4533 56.7094 30.08C56.816 30.0267 57.0027 29.8133 57.2694 29.44C57.2694 29.44 57.456 29.2533 57.8294 28.88C61.296 25.4133 63.0294 21.0667 63.0294 15.84C63.0294 12.8533 62.4427 10.08 61.2694 7.52C60.6294 6.18666 59.696 5.14666 58.4694 4.4C57.2427 3.6 55.8027 3.2 54.1494 3.2C54.1494 6.24 54.3094 10.8 54.6294 16.88C54.9494 22.96 55.1094 27.52 55.1094 30.56L55.2694 30.72ZM80.6588 61.68C79.3788 61.6267 77.7521 61.6 75.7788 61.6C75.4054 61.6 75.0588 61.4667 74.7388 61.2C74.4721 60.9333 74.3388 60.64 74.3388 60.32C74.3388 59.6267 74.7921 59.28 75.6988 59.28H78.8188C78.8188 53.1467 78.6321 45.4133 78.2588 36.08C78.0454 28.6133 77.8321 22.7467 77.6188 18.48L77.6988 14.4V9.12C77.6988 6.45333 77.6454 4.74666 77.5388 4H74.7388C74.2054 4 73.9388 3.62666 73.9388 2.88C73.9388 2.4 74.1521 2.02666 74.5788 1.76C74.9521 1.6 75.9388 1.52 77.5388 1.52H79.7787C80.5787 1.57333 81.5921 1.6 82.8188 1.6C83.2454 1.6 83.5921 1.70666 83.8588 1.92C84.1254 2.08 84.2588 2.34666 84.2588 2.72C84.2588 3.04 84.1788 3.33333 84.0188 3.6C83.8588 3.86666 83.6188 4 83.2988 4C82.9254 4 82.6054 3.97333 82.3388 3.92H81.3788H80.5788C80.0454 3.92 79.7254 3.97333 79.6188 4.08L79.4588 4.4C79.4588 8.56 79.8054 16.96 80.4988 29.6C81.1388 41.28 81.4588 49.68 81.4588 54.8V57.04C81.4054 57.7333 81.3788 58.4533 81.3788 59.2H84.2588C85.4854 59.2 86.0988 59.5733 86.0988 60.32C86.0988 60.64 85.9654 60.96 85.6988 61.28C85.4854 61.5467 85.2454 61.68 84.9788 61.68H80.6588ZM100.061 62.16C99.4213 62.16 98.7813 62 98.1413 61.68C97.5013 61.36 97.1813 60.9867 97.1813 60.56C97.1813 60.24 97.3946 59.7067 97.8213 58.96C98.2479 58.2667 98.4346 57.7333 98.3813 57.36L98.1413 50.32L97.5813 28.48L97.4213 18.8C97.3679 12.88 97.2346 9.17333 97.0213 7.68C96.9146 7.09333 96.7013 6.42666 96.3813 5.68C96.0079 4.66666 95.8213 3.94666 95.8213 3.52C95.8213 2.24 97.8479 1.6 101.901 1.6H102.301C105.021 1.6 107.368 2.53333 109.341 4.4C110.888 5.84 112.275 8.10666 113.501 11.2C114.355 13.6533 114.995 16.4 115.421 19.44C115.635 21.04 115.821 23.4933 115.981 26.8V29.28C115.981 32.5867 115.528 36.1867 114.621 40.08C113.768 43.92 112.541 47.52 110.941 50.88C109.981 53.0133 108.728 54.9333 107.181 56.64C105.688 58.3467 104.248 59.7067 102.861 60.72C101.475 61.68 100.541 62.16 100.061 62.16ZM101.261 58.08C103.235 57.0667 104.995 55.6 106.541 53.68C108.088 51.7067 109.315 49.5467 110.221 47.2C111.021 45.2267 111.688 42.9867 112.221 40.48C112.755 37.92 113.128 35.5467 113.341 33.36C113.501 31.44 113.581 29.6 113.581 27.84C113.581 12.2667 109.288 4.48 100.701 4.48C99.5813 4.48 99.0213 4.77333 99.0213 5.36C99.0213 7.22666 99.1279 9.44 99.3413 12C99.5546 14.6133 99.6613 16.8267 99.6613 18.64C99.6613 21.5733 99.8746 26.6667 100.301 33.92C100.675 40.2133 100.861 45.28 100.861 49.12V58.08H101.261Z" fill="white"/>
</svg>
