<svg width="290" height="66" viewBox="0 0 290 66" fill="none" xmlns="http://www.w3.org/2000/svg">
<g clip-path="url(#clip0)">
<path d="M41.6975 31.9628C42.021 36.6667 42.315 41.4582 44.0206 45.753C45.3438 50.0186 48.255 54.255 46.3436 58.842C43.5207 65.8832 29.994 63.2537 26.2006 57.9071C24.995 52.9695 30.4939 58.9881 32.5523 58.9004C35.8457 60.3905 43.5207 61.7637 43.7559 56.3294C44.344 51.8008 40.9624 47.7982 40.1684 43.3573C39.1686 37.4555 34.993 45.4024 30.8173 39.9974C27.818 33.7451 40.8741 19.9549 41.6975 31.9628ZM33.6697 36.6959C33.5815 38.7411 36.6985 36.9589 37.316 36.1116C42.315 28.0771 35.0518 29.7424 33.6697 36.6959Z" fill="white"/>
<path d="M224.219 49.5511C229.512 48.6162 232.188 42.4807 233.012 37.8061C232.423 35.6149 234.305 32.7809 236.246 35.1766C236.129 37.1926 236.04 39.5591 235.129 41.2244C233.159 46.834 223.896 58.2869 219.367 48.9376C219.338 46.1912 212.839 53.7583 209.781 52.8818C189.844 55.073 214.398 26.9668 213.016 38.2736C212.339 39.7344 209.016 39.1793 208.34 41.5458C205.282 45.081 203.635 51.421 210.663 49.8725C213.545 49.405 215.868 44.8473 218.867 46.5126C219.22 46.8632 219.691 46.425 219.397 46.0744C219.808 43.4741 220.808 40.2895 222.396 37.8645C223.014 36.17 226.983 36.579 225.807 38.5073C223.749 40.5817 219.603 48.6746 224.219 49.5511Z" fill="white"/>
<path d="M168.73 22.9934C173.112 22.9934 177.493 22.2922 181.934 22.6136C183.727 22.7889 183.11 20.0425 184.962 20.0133C186.462 19.7796 186.109 21.7955 187.109 22.0585C190.138 22.8181 193.226 19.6335 195.725 21.7079C196.372 24.9509 192.343 23.7822 190.579 24.688C182.551 23.2271 186.021 31.8752 185.198 37.2218C184.962 43.9708 185.198 51.2457 183.933 57.4104C179.993 59.8062 181.61 53.6707 181.316 51.5671C183.11 42.919 182.051 34.0372 182.463 25.2431C177.023 25.0678 170.818 26.0319 165.202 25.8858C164.614 24.0452 167.054 22.672 168.73 22.9934Z" fill="white"/>
<path d="M154.851 39.6175C155.145 42.919 153.792 46.5418 154.822 49.6972C155.704 50.3692 155.38 51.7716 154.263 51.9177C148.176 53.583 130.444 56.5339 141.765 46.1036C144.618 43.7078 148.617 45.4024 151.528 44.7596C151.969 33.8911 152.087 35.1474 142.559 36.1116C139.237 30.9987 157.527 29.8884 154.851 39.6175ZM147.999 50.4276C155.469 49.4051 147.882 46.6587 144.383 47.7981C138.707 51.3626 144.765 51.3918 147.999 50.4276Z" fill="white"/>
<path d="M101.185 40.2311C96.5686 39.9097 94.2162 40.1142 94.569 44.4675C94.5102 47.0093 94.128 50.7198 92.9811 53.3493C88.0704 53.6707 92.8047 46.0159 91.6579 43.1235C93.7163 36.6667 74.926 44.5551 77.3961 38.0983C82.1892 36.579 85.6003 38.0983 90.7463 37.6016C93.8927 35.4688 89.8641 28.749 92.8047 26.587C96.157 25.5352 95.0101 28.9827 95.0983 31.4369C95.3336 40.8154 102.068 35.8778 107.508 37.6016C109.36 40.9615 103.156 40.1726 101.185 40.2311Z" fill="white"/>
<path d="M259.095 32.8686C268.446 30.7358 264.74 41.429 266.74 46.3958C267.387 48.0027 265.182 48.9961 263.947 48.4702C263.182 51.4502 259.418 52.4436 257.036 53.9921C250.243 56.7092 247.097 48.8208 251.537 44.4967C254.654 42.1886 258.506 41.1953 262.123 42.4516C264.888 43.1528 263.358 36.7251 262.153 35.761C259.33 34.3878 256.477 37.1634 253.831 37.9815C247.979 37.105 256.448 32.1966 259.095 32.8686ZM258.33 44.8181C255.507 44.4675 252.949 46.0744 252.125 48.8208C253.331 55.336 259.8 48.6455 263.064 48.0904C265.035 46.3082 260.271 44.1461 258.33 44.8181Z" fill="white"/>
<path d="M121.27 48.1195C122.24 42.7437 118.535 36.6082 120.976 31.8459C126.592 26.3533 143.589 33.2483 134.296 39.6467C132.532 41.2536 129.944 43.0651 127.68 44.6135C122.563 45.5485 127.357 40.6693 129.268 39.7928C130.856 38.9163 132.356 38.0691 133.297 36.7543C133.943 32.2842 126.504 31.992 123.622 34.008C122.828 37.7477 124.504 43.4449 124.445 47.6813C124.592 50.077 124.916 56.4754 121.093 54.7516C120.24 52.8818 121.828 50.4276 121.27 48.1195Z" fill="white"/>
<path d="M54.6067 46.9217C41.1682 46.4835 45.9908 28.0479 57.4296 28.7198C69.7212 29.0704 63.8107 46.2205 54.6067 46.9217ZM49.8723 39.267C50.6075 49.8433 64.5458 39.8221 60.6054 32.8978C56.1063 29.4795 49.5783 33.8911 49.8723 39.267Z" fill="white"/>
<path d="M6.05765 45.4316C-3.08755 46.425 -1.02914 36.1116 6.43993 35.5564C9.90981 34.2709 13.8796 35.5564 10.3215 30.5604C9.29229 29.1288 7.41032 31.7291 6.38112 32.3134C-0.646866 32.2258 12.4681 20.2762 14.8794 33.1023C16.1732 37.3679 15.3499 38.6242 10.939 37.6308C8.26309 37.8061 -2.08775 40.9031 5.41073 42.656C11.3507 43.8831 14.3795 37.5724 19.4373 35.8486C22.7307 37.1926 8.93942 46.9801 6.05765 45.4316Z" fill="white"/>
<path d="M248.832 11.3068C251.067 11.599 250.067 14.1408 249.214 15.3387C248.479 18.4064 247.45 21.3865 246.568 24.3958C245.391 32.7517 243.921 41.2829 243.068 49.4051C242.863 54.5764 243.362 60.1568 242.627 64.4516C241.539 67.607 238.599 65.2112 239.746 62.757C241.186 57.4396 240.422 51.3042 241.539 45.753C242.951 39.1793 243.892 13.4981 248.832 11.3068Z" fill="white"/>
<path d="M26.3771 4.29484C26.4653 7.80082 29.9352 50.3108 22.8484 42.3639C24.2305 30.8526 25.7596 19.166 23.4659 7.65474C21.6133 1.92831 26.6417 -4.41166 26.3771 4.29484Z" fill="white"/>
<path d="M170.407 31.7583C172.112 31.3785 177.582 31.3201 175.023 34.0372C172.053 36.1993 165.937 33.3068 163.643 36.6083C163.438 41.3998 163.026 46.6003 161.32 51.3334C155.851 55.9788 160.879 40.7278 160.879 38.7411C157.174 32.2842 165.908 32.3427 170.407 31.7583Z" fill="white"/>
<path d="M286.942 36.0824C269.387 33.3068 276.915 34.8553 274.239 48.1196C270.622 53.6999 272.915 39.1793 272.21 37.8354C271.357 32.8393 273.651 30.6481 278.885 31.9921C281.796 31.6707 296.175 34.4755 286.942 36.0824Z" fill="white"/>
<path d="M192.461 51.9469C193.784 48.7039 189.579 36.4329 195.078 37.923C196.637 42.3931 195.284 47.7397 195.696 52.5897C195.343 55.4237 191.52 54.7517 192.461 51.9469Z" fill="white"/>
<path d="M103.126 29.5379C102.832 28.34 104.244 26.2072 105.508 27.0253C109.743 28.4569 102.803 33.5405 103.126 29.5379Z" fill="white"/>
<path d="M195.107 27.259C194.755 30.4728 190.932 29.83 191.285 26.587C191.902 24.7171 195.049 25.4768 195.107 27.259Z" fill="white"/>
<path d="M108.037 52.3559C107.831 54.5179 104.949 54.3134 103.567 53.3493C102.273 51.3333 108.125 49.405 108.037 52.3559Z" fill="white"/>
<path d="M79.8956 30.6189C79.6603 27.8141 84.1888 29.0996 82.9832 31.1448C82.4833 33.0146 79.6015 32.4595 79.8956 30.6189Z" fill="white"/>
<path d="M82.1599 51.2457C82.2187 53.4954 79.2781 53.9336 78.69 51.8593C78.6312 49.6388 81.5424 49.3759 82.1599 51.2457Z" fill="white"/>
</g>
<defs>
<clipPath id="clip0">
<rect width="290" height="66" fill="white"/>
</clipPath>
</defs>
</svg>
