<svg width="241" height="48" viewBox="0 0 241 48" fill="none" xmlns="http://www.w3.org/2000/svg">
<path d="M0.171875 37V34.0469L3.99219 33.3906V6.50781L0.171875 5.85156V2.875H12.4297V5.85156L8.60938 6.50781V21.1797L22.0156 6.29688L22.1094 6.17969L19.5547 5.85156V2.875H30.5V5.85156L27.2891 6.4375L16.8594 17.7812L28.5781 33.4609L31.7188 34.0469V37H20.3281V34.0469L23.1406 33.7188L23.1172 33.6953L13.9531 20.9688L8.60938 26.7812V33.3906L12.4297 34.0469V37H0.171875ZM44.7969 37.4922C42.4531 37.4922 40.4297 36.9453 38.7266 35.8516C37.0391 34.7422 35.7344 33.2188 34.8125 31.2812C33.8906 29.3281 33.4297 27.1016 33.4297 24.6016V24.0859C33.4297 21.5859 33.8906 19.3672 34.8125 17.4297C35.7344 15.4766 37.0391 13.9453 38.7266 12.8359C40.4297 11.7266 42.4375 11.1719 44.75 11.1719C47.0938 11.1719 49.1094 11.7266 50.7969 12.8359C52.5 13.9453 53.8125 15.4688 54.7344 17.4062C55.6562 19.3438 56.1172 21.5703 56.1172 24.0859V24.6016C56.1172 27.1172 55.6562 29.3516 54.7344 31.3047C53.8125 33.2422 52.5078 34.7578 50.8203 35.8516C49.1328 36.9453 47.125 37.4922 44.7969 37.4922ZM44.7969 33.8828C46.9844 33.8828 48.6484 33.0078 49.7891 31.2578C50.9297 29.5078 51.5 27.2891 51.5 24.6016V24.0859C51.5 22.3047 51.2422 20.7188 50.7266 19.3281C50.2266 17.9219 49.4766 16.8203 48.4766 16.0234C47.4766 15.2109 46.2344 14.8047 44.75 14.8047C43.2812 14.8047 42.0469 15.2109 41.0469 16.0234C40.0469 16.8203 39.2969 17.9219 38.7969 19.3281C38.2969 20.7188 38.0469 22.3047 38.0469 24.0859V24.6016C38.0469 27.2891 38.6094 29.5078 39.7344 31.2578C40.875 33.0078 42.5625 33.8828 44.7969 33.8828ZM59.5156 37V34.0469L63.3359 33.3906V15.2734L59.5156 14.6172V11.6406H67.9531V33.3906L71.7734 34.0469V37H59.5156ZM63.1016 5.38281V0.4375H67.9531V5.38281H63.1016ZM84.9219 37.4922C82.8594 37.4922 81.0859 36.9844 79.6016 35.9688C78.1328 34.9375 77.0078 33.5078 76.2266 31.6797C75.4453 29.8516 75.0547 27.7188 75.0547 25.2812V24.7891C75.0547 22.0703 75.4453 19.6875 76.2266 17.6406C77.0078 15.5938 78.1406 14.0078 79.625 12.8828C81.1094 11.7422 82.8906 11.1719 84.9688 11.1719C86.4688 11.1719 87.7891 11.4531 88.9297 12.0156C90.0859 12.5625 91.0703 13.3594 91.8828 14.4062V4.07031L88.0625 3.41406V0.4375H96.5V33.3906L100.32 34.0469V37H92.4922L92.1172 33.9766C90.4297 36.3203 88.0312 37.4922 84.9219 37.4922ZM86.0938 33.7422C87.4688 33.7422 88.625 33.4297 89.5625 32.8047C90.5 32.1797 91.2734 31.2969 91.8828 30.1562V18.3906C91.2891 17.3281 90.5156 16.4844 89.5625 15.8594C88.6094 15.2344 87.4688 14.9219 86.1406 14.9219C83.9375 14.9219 82.3047 15.8359 81.2422 17.6641C80.1953 19.4922 79.6719 21.8672 79.6719 24.7891V25.2812C79.6719 27.8281 80.1953 29.875 81.2422 31.4219C82.2891 32.9688 83.9062 33.7422 86.0938 33.7422ZM114.664 37.4922C111.914 37.4922 109.766 36.6094 108.219 34.8438C106.672 33.0781 105.898 30.3281 105.898 26.5938V15.2734L102.992 14.6172V11.6406H110.516V26.6406C110.516 29.3438 110.914 31.2031 111.711 32.2188C112.508 33.2344 113.75 33.7422 115.438 33.7422C117.078 33.7422 118.43 33.4141 119.492 32.7578C120.57 32.0859 121.383 31.1406 121.93 29.9219V15.2734L118.531 14.6172V11.6406H126.547V33.3906L129.453 34.0469V37H122.398L122.094 33.25C121.297 34.6094 120.266 35.6562 119 36.3906C117.75 37.125 116.305 37.4922 114.664 37.4922ZM132.711 37V34.0469L136.531 33.3906V15.2734L132.711 14.6172V11.6406H140.68L140.984 14.9453C141.797 13.7422 142.844 12.8125 144.125 12.1562C145.406 11.5 146.891 11.1719 148.578 11.1719C150.266 11.1719 151.711 11.5625 152.914 12.3438C154.133 13.125 155.047 14.2969 155.656 15.8594C156.453 14.4219 157.508 13.2812 158.82 12.4375C160.133 11.5938 161.664 11.1719 163.414 11.1719C166.008 11.1719 168.055 12.0625 169.555 13.8438C171.055 15.6094 171.805 18.2734 171.805 21.8359V33.3906L175.625 34.0469V37H163.344V34.0469L167.164 33.3906V21.7891C167.164 19.2891 166.734 17.5234 165.875 16.4922C165.016 15.4453 163.742 14.9219 162.055 14.9219C160.445 14.9219 159.148 15.4922 158.164 16.6328C157.195 17.7578 156.633 19.1797 156.477 20.8984V33.3906L160.297 34.0469V37H148.039V34.0469L151.859 33.3906V21.7891C151.859 19.4141 151.414 17.6797 150.523 16.5859C149.648 15.4766 148.375 14.9219 146.703 14.9219C145.297 14.9219 144.141 15.2109 143.234 15.7891C142.328 16.3672 141.633 17.1797 141.148 18.2266V33.3906L144.969 34.0469V37H132.711ZM187.273 37.4922C184.633 37.4922 182.625 36.8516 181.25 35.5703C179.875 34.2734 179.188 32.4531 179.188 30.1094C179.188 27.7031 180.172 25.7734 182.141 24.3203C184.109 22.8516 186.844 22.1172 190.344 22.1172H194.867V19.6328C194.867 18.1016 194.398 16.9141 193.461 16.0703C192.539 15.2266 191.234 14.8047 189.547 14.8047C188.484 14.8047 187.562 14.9375 186.781 15.2031C186 15.4531 185.289 15.8047 184.648 16.2578L184.156 19.7969H180.594V13.9844C182.891 12.1094 185.898 11.1719 189.617 11.1719C192.695 11.1719 195.109 11.9062 196.859 13.375C198.609 14.8438 199.484 16.9453 199.484 19.6797V31.8906C199.484 32.2188 199.484 32.5391 199.484 32.8516C199.5 33.1641 199.523 33.4766 199.555 33.7891L202.016 34.0469V37H195.383C195.117 35.7188 194.953 34.5547 194.891 33.5078C194 34.6484 192.883 35.6016 191.539 36.3672C190.211 37.1172 188.789 37.4922 187.273 37.4922ZM187.953 33.625C189.484 33.625 190.883 33.2578 192.148 32.5234C193.414 31.7891 194.32 30.9062 194.867 29.875V25.2812H190.18C188.055 25.2812 186.461 25.7891 185.398 26.8047C184.336 27.8203 183.805 28.9531 183.805 30.2031C183.805 32.4844 185.188 33.625 187.953 33.625ZM205.18 47.2422C204.68 47.2422 204.227 47.2031 203.82 47.125C203.414 47.0625 202.992 46.9609 202.555 46.8203L202.859 43.3047C203.078 43.3828 203.445 43.4531 203.961 43.5156C204.492 43.5781 204.898 43.6094 205.18 43.6094C206.102 43.6094 206.828 43.2031 207.359 42.3906C207.906 41.5938 208.18 40.4922 208.18 39.0859V15.2734L204.359 14.6172V11.6406H212.797V39.0859C212.797 41.6953 212.125 43.7031 210.781 45.1094C209.438 46.5312 207.57 47.2422 205.18 47.2422ZM207.945 5.38281V0.4375H212.797V5.38281H207.945ZM226.133 37.4922C223.492 37.4922 221.484 36.8516 220.109 35.5703C218.734 34.2734 218.047 32.4531 218.047 30.1094C218.047 27.7031 219.031 25.7734 221 24.3203C222.969 22.8516 225.703 22.1172 229.203 22.1172H233.727V19.6328C233.727 18.1016 233.258 16.9141 232.32 16.0703C231.398 15.2266 230.094 14.8047 228.406 14.8047C227.344 14.8047 226.422 14.9375 225.641 15.2031C224.859 15.4531 224.148 15.8047 223.508 16.2578L223.016 19.7969H219.453V13.9844C221.75 12.1094 224.758 11.1719 228.477 11.1719C231.555 11.1719 233.969 11.9062 235.719 13.375C237.469 14.8438 238.344 16.9453 238.344 19.6797V31.8906C238.344 32.2188 238.344 32.5391 238.344 32.8516C238.359 33.1641 238.383 33.4766 238.414 33.7891L240.875 34.0469V37H234.242C233.977 35.7188 233.812 34.5547 233.75 33.5078C232.859 34.6484 231.742 35.6016 230.398 36.3672C229.07 37.1172 227.648 37.4922 226.133 37.4922ZM226.812 33.625C228.344 33.625 229.742 33.2578 231.008 32.5234C232.273 31.7891 233.18 30.9062 233.727 29.875V25.2812H229.039C226.914 25.2812 225.32 25.7891 224.258 26.8047C223.195 27.8203 222.664 28.9531 222.664 30.2031C222.664 32.4844 224.047 33.625 226.812 33.625Z" fill="white"/>
</svg>
