<svg width="301" height="67" viewBox="0 0 301 67" fill="none" xmlns="http://www.w3.org/2000/svg">
<path d="M0 24.0427C0 16.8554 5.7725 12.2585 12.3026 12.2585C16.3795 12.2585 19.6626 14.1921 21.7551 17.1108L17.065 20.4673C16.0548 19.0444 14.1787 18.1688 12.3748 18.1688C8.83915 18.1688 6.42191 20.7591 6.42191 24.0427C6.42191 27.3991 8.83915 29.953 12.3748 29.953C14.2148 29.953 16.0548 29.0774 17.065 27.6545L21.7551 31.011C19.6265 33.9662 16.3795 35.8633 12.3026 35.8633C5.7725 35.8998 0 31.2299 0 24.0427Z" fill="white"/>
<path d="M23.4147 24.0791C23.4147 16.8919 29.079 12.222 35.4648 12.222C41.8507 12.222 47.5149 16.8919 47.5149 24.0791C47.5149 31.2299 41.8507 35.8633 35.4648 35.8633C29.079 35.8633 23.4147 31.2299 23.4147 24.0791ZM41.1652 24.0791C41.1652 20.5402 38.6036 18.1688 35.5009 18.1688C32.3982 18.1688 29.8006 20.5402 29.8006 24.0791C29.8006 27.5815 32.3621 29.953 35.4648 29.953C38.5676 29.953 41.1652 27.5815 41.1652 24.0791Z" fill="white"/>
<path d="M74.79 0.729675V35.462H68.5124V32.6527C66.9249 34.8782 63.8222 35.8998 61.2967 35.8998C55.5242 35.8998 50.2929 31.3758 50.2929 24.1156C50.2929 16.8554 55.5242 12.3314 61.2967 12.3314C63.8944 12.3314 66.9249 13.3165 68.5124 15.5785V0.729675H74.79ZM68.2959 24.0791C68.2959 20.5767 65.4097 18.2417 62.4873 18.2417C59.3124 18.2417 56.6787 20.7226 56.6787 24.0791C56.6787 27.3991 59.3124 29.9529 62.4873 29.9529C65.554 29.9529 68.2959 27.545 68.2959 24.0791Z" fill="white"/>
<path d="M102.318 26.1587H85.433C86.1185 28.7855 88.2111 30.2448 91.2416 30.2448C93.5145 30.2448 95.7514 29.3327 97.0863 27.7275L100.766 31.4488C98.6376 34.331 94.7051 35.8633 90.7726 35.8633C83.9178 35.8633 78.8668 31.1204 78.8668 24.1156C78.8668 16.7824 84.3507 12.222 90.7726 12.222C97.1584 12.222 102.39 16.7824 102.39 23.7143C102.426 24.371 102.39 25.1371 102.318 26.1587ZM96.1483 22.036C95.9679 19.3727 93.731 17.7675 90.9169 17.7675C88.3554 17.7675 86.1185 18.9714 85.433 22.036H96.1483V22.036Z" fill="white"/>
<path d="M104.987 28.1653H110.904C110.904 29.4787 112.023 30.9015 114.223 30.9015C116.063 30.9015 117.434 30.1354 117.434 28.822C117.434 27.8369 116.677 27.3626 114.981 26.9248L111.987 26.1952C106.214 24.6264 105.456 21.3794 105.456 19.0079C105.456 15.5055 109.064 12.2585 114.26 12.2585C118.336 12.2585 123.135 14.3016 123.099 19.6281H117.11C117.11 18.1323 115.847 17.2932 114.368 17.2932C112.925 17.2932 111.77 18.0229 111.77 19.1903C111.77 20.2484 112.744 20.7956 113.971 21.124L117.651 22.109C123.027 23.5684 123.712 26.9613 123.712 28.822C123.712 33.5648 118.914 35.8998 114.296 35.8998C109.605 35.8998 105.06 33.1635 104.987 28.1653Z" fill="white"/>
<path d="M140.993 17.7309H136.231V35.4619H129.954V17.7309H125.877V12.8057H129.954V4.52393H136.231V12.8422H140.993V17.7309Z" fill="white"/>
<path d="M166.068 26.1587H149.183C149.869 28.7855 151.961 30.2448 154.992 30.2448C157.265 30.2448 159.502 29.3327 160.836 27.7275L164.516 31.4488C162.388 34.331 158.455 35.8633 154.523 35.8633C147.668 35.8633 142.617 31.1204 142.617 24.1156C142.617 16.7824 148.101 12.222 154.523 12.222C160.909 12.222 166.14 16.7824 166.14 23.7143C166.176 24.371 166.104 25.1371 166.068 26.1587ZM159.862 22.036C159.682 19.3727 157.445 17.7675 154.631 17.7675C152.069 17.7675 149.833 18.9714 149.147 22.036H159.862V22.036Z" fill="white"/>
<path d="M186.488 12.9517L185.045 19.0079C183.71 18.2782 182.592 18.1688 181.834 18.1688C178.623 18.1688 176.422 21.1969 176.422 27.6545V35.4255H170.145V12.8057H176.386V17.6215C177.649 13.8273 180.174 12.222 182.952 12.222C184.143 12.222 185.478 12.4409 186.488 12.9517Z" fill="white"/>
<path d="M187.679 28.1653H193.595C193.595 29.4787 194.714 30.9015 196.915 30.9015C198.755 30.9015 200.126 30.1354 200.126 28.822C200.126 27.8369 199.368 27.3626 197.672 26.9248L194.678 26.1952C188.905 24.6264 188.148 21.3794 188.148 19.0079C188.148 15.5055 191.755 12.2585 196.951 12.2585C201.027 12.2585 205.826 14.3016 205.79 19.6281H199.801C199.801 18.1323 198.538 17.2932 197.059 17.2932C195.616 17.2932 194.461 18.0229 194.461 19.1903C194.461 20.2484 195.435 20.7956 196.662 21.124L200.342 22.109C205.718 23.5684 206.403 26.9613 206.403 28.822C206.403 33.5648 201.605 35.8998 196.987 35.8998C192.297 35.8998 187.715 33.1635 187.679 28.1653Z" fill="white"/>
<path d="M209.47 33.6377C209.47 32.2878 210.588 31.3028 211.887 31.3028C213.294 31.3028 214.376 32.2878 214.376 33.6377C214.376 34.9511 213.258 35.9362 211.887 35.9362C210.588 35.9362 209.47 34.9511 209.47 33.6377Z" fill="white"/>
<path d="M217.912 24.0791C217.912 16.8918 223.396 12.2949 229.782 12.2949C232.993 12.2949 235.843 13.4989 237.863 15.396L235.951 17.5485C234.4 16.1257 232.307 15.2501 229.89 15.2501C224.983 15.2501 221.015 18.7525 221.015 24.0791C221.015 29.3692 224.983 32.9081 229.89 32.9081C232.307 32.9081 234.4 32.069 235.951 30.6826L237.863 32.7622C235.843 34.6958 233.029 35.8633 229.782 35.8633C223.396 35.8997 217.912 31.2663 217.912 24.0791Z" fill="white"/>
<path d="M241.976 0H245.043V35.4619H241.976V0Z" fill="white"/>
<path d="M271.163 12.7692V35.462H268.097V31.4488C266.762 34.6593 263.118 35.8998 260.304 35.8998C254.892 35.8998 251.176 32.2149 251.212 25.9398V12.7692H254.279V25.8303C254.279 30.2083 256.985 32.8716 260.629 32.8716C264.164 32.8716 268.025 30.8286 268.061 25.356V12.7692H271.163Z" fill="white"/>
<path d="M301 24.0791C301 30.9745 295.913 35.9362 289.635 35.9362C285.883 35.9362 282.348 34.0756 280.688 30.9745V35.4255H277.621V0H280.688V17.1837C282.384 14.0826 285.811 12.2949 289.635 12.2949C295.913 12.2949 301 17.1837 301 24.0791ZM297.969 24.0426C297.969 19.0444 294.145 15.2501 289.383 15.2501C284.909 15.2501 280.688 18.6795 280.688 24.1886C280.688 29.4422 284.729 32.9811 289.383 32.9811C294.145 32.9811 297.969 29.0773 297.969 24.0426Z" fill="white"/>
<mask id="mask0" mask-type="alpha" maskUnits="userSpaceOnUse" x="169" y="46" width="132" height="21">
<path fill-rule="evenodd" clip-rule="evenodd" d="M179.888 66.9147C185.396 66.9147 189.862 62.399 189.862 56.8287C189.862 51.2583 185.396 46.7427 179.888 46.7427C174.379 46.7427 169.914 51.2583 169.914 56.8287C169.914 62.399 174.379 66.9147 179.888 66.9147ZM216.934 66.9147C222.442 66.9147 226.908 62.399 226.908 56.8287C226.908 51.2583 222.442 46.7427 216.934 46.7427C211.425 46.7427 206.96 51.2583 206.96 56.8287C206.96 62.399 211.425 66.9147 216.934 66.9147ZM252.555 56.8287C252.555 62.399 248.089 66.9147 242.581 66.9147C237.072 66.9147 232.607 62.399 232.607 56.8287C232.607 51.2583 237.072 46.7427 242.581 46.7427C248.089 46.7427 252.555 51.2583 252.555 56.8287ZM268.228 66.9147C273.737 66.9147 278.202 62.399 278.202 56.8287C278.202 51.2583 273.737 46.7427 268.228 46.7427C262.72 46.7427 258.254 51.2583 258.254 56.8287C258.254 62.399 262.72 66.9147 268.228 66.9147ZM195.561 46.7427H201.26V66.9147H195.561V46.7427ZM289.601 46.7427H283.902V66.9147H289.601V46.7427ZM295.3 46.7427H301V66.9147H295.3V46.7427Z" fill="#008549"/>
</mask>
<g mask="url(#mask0)">
<path d="M301 46.7427H169.914V66.9147H301V46.7427Z" fill="url(#paint0_linear)"/>
</g>
<defs>
<linearGradient id="paint0_linear" x1="169.914" y1="56.8223" x2="300.987" y2="56.8223" gradientUnits="userSpaceOnUse">
<stop stop-color="white"/>
<stop offset="1" stop-color="white" stop-opacity="0"/>
</linearGradient>
</defs>
</svg>
