<svg width="248" height="224" viewBox="0 0 248 224" fill="none" xmlns="http://www.w3.org/2000/svg">
<path d="M133.523 210.43C133.689 210.53 133.855 210.597 134.021 210.663C134.121 210.696 134.187 210.73 134.287 210.763C140.13 213.457 147.931 216.75 156.397 218.679C162.572 220.075 169.212 221.439 176.184 221.871C180.234 222.137 184.118 222.67 188.8 223.368C191.588 223.8 194.443 224 197.498 224C200.519 224 203.706 223.8 207.192 223.368C209.848 223.035 212.437 219.909 212.338 217.115C212.205 213.922 207.889 209.898 204.403 208.701C201.415 207.67 198.261 207.104 195.24 206.572C192.252 206.04 189.165 205.475 186.243 204.477C184.251 203.812 182.16 203.246 180.168 202.747C178.707 202.382 177.213 201.982 175.752 201.55C170.075 199.821 163.967 198.058 157.692 196.694C155.667 196.262 153.774 195.597 151.749 194.932C149.658 194.233 147.467 193.501 145.176 193.036L145.275 192.969C145.607 192.703 145.873 192.47 146.139 192.238C150.654 188.346 152.114 184.555 150.919 179.932C150.886 179.799 150.82 179.632 150.787 179.466C150.554 178.834 150.455 178.435 150.82 178.036C151.517 177.238 152.247 176.439 152.911 175.641C154.604 173.712 156.331 171.683 158.223 169.921C159.85 168.391 161.676 166.994 163.402 165.664C164.365 164.932 165.361 164.167 166.291 163.402C166.822 162.97 167.286 162.77 167.784 162.77C168.083 162.77 168.382 162.837 168.714 162.97C170.772 163.801 172.632 164.2 174.424 164.2C174.491 164.2 174.557 164.2 174.657 164.2C177.213 164.167 179.105 163.103 180.301 161.074C181.861 158.347 181.197 155.653 180.367 153.125C180.135 152.36 180.301 151.296 180.832 150.464C181.23 149.799 181.795 149.4 182.359 149.333C185.148 148.967 187.77 148.036 190.194 147.105C190.426 147.005 190.626 146.972 190.792 146.972C191.024 146.972 191.157 147.038 191.323 147.238C192.252 148.469 193.58 148.967 194.875 149.466C195.141 149.566 195.406 149.666 195.672 149.799C197 150.364 198.361 150.63 199.689 150.63C201.98 150.63 204.204 149.832 206.262 148.236C206.827 147.803 207.325 147.571 207.756 147.571C208.188 147.571 208.586 147.77 209.084 148.069C209.649 148.402 210.246 148.868 210.977 149.566C217.351 155.686 222.762 161.872 227.576 168.424C230.83 172.881 235.278 175.142 240.756 175.142H240.889C243.246 175.109 245.437 174.111 246.732 172.415C247.795 171.052 248.127 169.389 247.728 167.759C246.799 164.134 245.371 160.941 243.479 158.313C239.163 152.327 235.245 147.704 231.062 143.812C229.369 142.249 227.709 140.586 226.115 138.99C223.128 136.03 220.073 132.97 216.687 130.309C213.5 127.781 210.014 125.32 205.565 125.32C205.167 125.32 204.768 125.354 204.37 125.387C201.78 125.653 199.291 126.285 196.9 126.917C196.734 126.95 196.601 127.016 196.469 127.083C196.269 127.183 196.037 127.283 195.871 127.283C195.771 127.283 195.639 127.249 195.473 127.05C195.174 126.651 194.842 126.252 194.51 125.852C193.813 124.988 193.082 124.09 192.485 123.158C186.907 114.644 182.226 106.496 178.209 98.2141C177.811 97.3826 177.379 96.5179 176.947 95.6864C175.586 92.9924 174.159 90.1987 173.262 87.2719C171.204 80.7198 169.677 73.935 168.216 67.3497L167.685 64.955C167.618 64.6889 167.552 64.4229 167.486 64.1568C167.253 63.159 166.988 62.128 167.021 61.1635C167.286 55.5427 168.714 49.9884 171.27 44.7335L171.304 44.667C172.167 42.871 172.997 41.1748 175.088 41.1748C175.254 41.1748 175.42 41.1748 175.619 41.208C177.113 41.3743 178.807 41.6736 180.267 42.7047C181.33 43.4364 182.392 44.0683 183.488 44.5007C185.214 45.2324 186.974 45.5982 188.7 45.5982C191.655 45.5982 194.676 44.6337 198.195 42.5051C199.523 41.7069 200.784 40.8089 201.98 39.9442C203.507 38.8466 205.1 37.6826 206.827 36.7846C208.221 36.0529 209.516 35.2214 210.91 34.3234C211.375 34.0241 211.873 33.7247 212.371 33.3921C212.437 37.6826 212.271 41.8732 212.072 45.9641C212.039 46.6625 212.006 47.3277 211.973 48.0261C211.939 48.9906 211.873 49.8221 211.707 50.6203C210.246 58.3697 209.549 66.1856 208.885 74.8662C208.453 80.5203 208.42 86.5402 208.852 93.7906C209.117 98.2141 210.346 101.34 212.769 103.635C214.197 104.999 215.691 105.664 217.218 105.664C217.65 105.664 218.081 105.598 218.513 105.498C222.53 104.5 225.285 101.806 226.514 97.7152C227.178 95.5201 227.477 93.1255 227.443 90.5645C227.377 86.9393 226.713 83.4138 226.049 79.9881C225.684 78.1256 225.451 76.1966 225.186 74.3341C224.821 71.5071 224.422 68.547 223.659 65.7532C220.638 54.6114 218.911 43.4696 217.484 33.0928C217.45 32.7935 217.384 32.4609 217.318 32.1615C217.118 30.9975 216.919 29.8334 217.318 28.6361C217.517 28.1039 217.849 27.6716 218.214 27.2059C218.446 26.9066 218.712 26.6073 218.911 26.2414C219.907 24.5785 220.571 22.7825 221.268 20.8867C221.434 20.4876 221.567 20.0552 221.733 19.6229C222.464 21.5519 222.762 23.2481 222.962 24.645C223.194 26.1749 223.327 27.7381 223.493 29.268C223.692 31.3633 223.924 33.5584 224.323 35.687C225.584 42.2058 226.514 48.1924 227.244 53.9795C227.443 55.6092 227.643 57.2389 227.875 58.8686C228.373 62.6934 228.871 66.6845 229.269 70.5758C229.967 77.7265 229.834 85.11 228.904 93.192C228.771 94.3561 228.572 95.5201 228.373 96.6509C228.008 98.8128 227.643 101.008 227.676 103.269C227.742 105.797 229.933 108.125 232.324 108.125C232.456 108.125 232.589 108.125 232.722 108.092C235.843 107.759 238.1 105.963 239.428 102.737C240.989 98.846 241.221 94.7219 241.453 90.7641C241.52 89.6665 241.586 88.569 241.653 87.4714C242.084 82.0834 241.785 76.5624 241.487 71.2742C241.453 70.5758 241.42 69.9106 241.387 69.2122C241.022 61.9617 239.495 54.4784 236.606 45.6647C235.81 43.2701 234.78 40.1105 233.685 36.9176C233.32 35.8533 232.954 34.7225 232.589 33.6582C231.593 30.6981 230.597 27.6383 229.303 24.778C228.805 23.7137 228.24 22.6827 227.676 21.6849C226.945 20.3878 226.182 19.0242 225.651 17.6273C225.319 16.7293 224.787 15.8978 224.289 15.0996C223.393 13.6695 222.563 12.3059 222.63 10.5431C222.63 10.2771 222.497 10.0775 222.331 9.91121C222.264 9.84469 222.198 9.74491 222.165 9.6784C221.036 7.08419 218.944 5.35471 216.886 3.85806C214.994 2.49443 212.072 0.631923 208.686 0.166295C207.922 0.0665182 207.126 0 206.329 0C203.341 0 200.22 0.764959 196.767 2.29488C188.6 5.95338 182.226 12.1396 177.844 20.6206C175.586 24.9776 172.698 28.1039 169.013 30.166C163.801 33.0928 157.891 34.9886 153.144 36.5185C146.006 38.8134 139.167 41.973 132.195 46.1969C126.518 49.6226 119.911 53.78 113.902 58.7688C105.702 65.5869 98.8298 72.139 92.8539 78.7575C87.0773 85.1765 81.1014 92.2607 76.5531 100.309L76.188 100.941C73.0672 106.496 69.8137 112.249 68.1205 118.602C67.9878 119.101 67.855 119.633 67.7222 120.132C66.7594 123.724 65.7302 127.449 65.199 131.207C64.6346 135.331 63.8711 139.056 62.9083 142.648C62.2775 145.043 62.4103 147.404 63.3399 149.799C63.6719 150.597 64.1034 151.329 64.5682 151.994C64.9666 152.593 65.3318 153.191 65.6306 153.823C67.5894 158.313 70.6105 162.105 73.5652 165.763C74.3288 166.728 75.1256 167.692 75.8892 168.69C78.2131 171.717 81.0682 174.311 83.857 176.839C84.6537 177.57 85.4505 178.302 86.2473 179.034C87.0109 179.765 87.7745 180.464 88.538 181.196C90.53 183.091 92.5551 185.054 94.8459 186.916C94.8459 186.916 96.871 188.246 97.1034 188.479C98.531 189.843 100.158 190.94 101.751 192.005C102.648 192.603 103.577 193.235 104.474 193.901C109.62 197.825 115.463 201.384 123.43 205.408C124.559 205.974 125.655 206.539 126.817 207.138L128.045 207.77C127.746 207.869 132.029 209.599 133.523 210.43ZM227.543 166.063C222.696 159.178 216.986 153.291 211.508 147.936C210.545 146.972 209.184 145.841 207.391 145.542C206.926 145.475 206.86 145.242 206.727 144.777L206.528 144.112C205.964 142.216 205.399 140.254 204.436 138.358C204.47 138.358 204.536 138.358 204.569 138.358C205.134 138.358 205.632 138.624 206.13 138.923L206.262 138.99C208.254 140.121 210.545 141.517 212.371 143.38C214.961 145.974 217.982 147.67 221.6 148.602C222.729 148.868 223.692 149.433 224.489 149.932C226.547 151.196 226.613 151.329 226.082 153.424L226.016 153.757L226.348 153.823C226.414 153.823 226.481 153.857 226.547 153.857C227.012 153.857 227.277 153.491 227.51 153.258C227.576 153.158 227.709 152.992 227.775 152.992C227.775 152.992 227.809 152.992 227.842 153.025C229.037 154.056 229.834 154.987 230.299 155.919C230.73 156.783 231.095 157.316 231.925 157.881C232.855 158.513 233.552 159.644 234.183 160.741L234.249 160.874C234.448 161.24 234.714 161.539 234.98 161.839C235.411 162.404 235.843 162.903 236.042 163.668C236.142 164.1 236.54 164.433 237.005 164.832C237.403 165.198 237.868 165.564 238.067 166.029C238.632 167.16 239.395 168.191 240.424 169.189C241.055 169.821 241.553 170.586 242.051 171.417C242.283 171.783 242.516 172.149 242.748 172.515C243.113 173.047 243.08 173.147 243.08 173.18C243.08 173.18 243.014 173.313 242.35 173.38C241.752 173.446 241.121 173.479 240.524 173.479C235.245 173.38 230.996 170.985 227.543 166.063ZM204.669 147.438C204.204 148.136 203.142 148.568 200.984 148.901C200.486 148.967 199.988 149.034 199.49 149.034C197.232 149.034 195.008 148.236 192.717 146.573C191.688 145.808 191.389 144.544 191.09 143.313L191.057 143.147C190.825 142.216 190.758 141.218 190.725 140.42C190.692 140.121 190.692 139.888 190.659 139.655C190.725 136.595 193.315 134.566 195.705 134.566C196.236 134.566 196.734 134.666 197.199 134.866C201.083 136.429 203.474 139.056 204.37 142.682L204.602 143.646C205.1 145.642 205.134 146.739 204.669 147.438ZM187.272 146.739C186.442 147.038 185.579 147.271 184.583 147.504C184.384 147.571 184.152 147.604 183.952 147.67C184.517 146.905 185.181 146.273 185.812 145.675C186.575 144.943 187.339 144.211 187.936 143.28L188.202 142.881L187.737 142.781C187.604 142.748 187.472 142.748 187.339 142.748C186.642 142.748 186.243 143.18 185.911 143.513C185.845 143.58 185.778 143.679 185.679 143.746C185.048 144.311 184.45 144.91 183.853 145.475C183.388 145.908 182.923 146.373 182.459 146.806C181.23 147.936 179.637 148.568 177.943 148.568C176.549 148.568 175.221 148.136 174.059 147.371C172.997 146.639 171.802 146.007 170.673 145.442C170.44 145.342 170.241 145.209 170.009 145.109C169.644 144.91 169.345 144.71 168.98 144.344C171.138 144.311 173.13 143.846 175.055 143.38C176.184 143.114 177.279 142.848 178.375 142.682C178.408 142.682 178.441 142.682 178.475 142.682C178.707 142.682 178.807 142.815 179.006 143.147C179.205 143.48 179.504 143.945 180.135 143.945C180.201 143.945 180.267 143.945 180.367 143.912L180.765 143.846L180.633 143.446C180.433 142.914 180.4 142.548 180.533 142.349C180.699 142.05 181.33 141.983 181.961 141.883L182.16 141.85C183.156 141.717 184.152 141.451 185.081 141.185C186.144 140.886 187.272 140.586 188.401 140.486C188.534 140.486 188.634 140.453 188.733 140.453C188.966 140.453 189.032 140.453 189.065 140.819C189.098 141.152 189.198 141.484 189.298 141.817C189.331 141.917 189.364 142.05 189.397 142.149C190.194 145.076 189.862 145.775 187.272 146.739ZM195.373 208.169C196.502 208.501 197.664 208.734 198.826 208.967C202.146 209.665 205.565 210.364 208.188 212.958C209.217 213.989 209.981 214.987 210.545 216.018C210.744 216.417 210.811 216.716 210.678 216.949C210.545 217.182 210.18 217.282 209.914 217.315C208.022 217.514 206.096 217.681 204.204 217.847L202.677 217.98C202.644 217.98 202.61 217.98 202.61 217.98C202.179 217.98 201.946 217.614 201.515 216.716L200.984 215.652L200.884 216.849C200.784 218.047 200.419 218.047 200.286 218.047C200.154 218.047 199.988 218.013 199.822 217.947C199.556 217.847 199.224 217.814 198.826 217.814C198.627 217.814 198.427 217.814 198.228 217.847C198.029 217.847 197.863 217.88 197.664 217.88C197.066 217.88 196.568 217.747 196.17 217.149L195.971 216.816L195.672 217.082C195.34 217.348 195.008 217.481 194.543 217.481C194.244 217.481 193.945 217.448 193.647 217.381C193.381 217.348 193.082 217.282 192.817 217.282C189.829 217.149 186.808 216.65 183.886 216.184C182.326 215.918 180.699 215.652 179.105 215.452C175.221 214.954 171.337 214.255 167.585 213.557C166.589 213.357 165.56 213.191 164.564 212.991C163.933 212.891 163.568 212.792 163.469 212.659C163.369 212.526 163.369 212.093 163.402 211.461L163.435 210.563L162.805 211.228C162.141 211.927 161.51 212.26 160.746 212.26C159.983 212.26 159.186 211.927 158.422 211.594C157.891 211.362 157.36 211.129 156.796 211.029C153.243 210.197 149.691 209.067 146.371 207.936C145.375 207.603 144.346 207.271 143.317 206.971C140.96 206.24 138.536 205.475 136.278 204.444C135.98 204.311 135.714 204.178 135.648 204.045C135.581 203.878 135.747 203.512 135.88 203.28C137.374 200.087 139.864 197.858 142.487 195.497C142.786 195.231 143.051 194.965 143.35 194.732C143.549 194.532 143.748 194.466 144.014 194.466C144.213 194.466 144.379 194.499 144.545 194.566C146.205 195.065 147.931 195.563 149.558 196.062C152.911 197.093 156.397 198.124 159.883 198.989C164.299 200.087 168.282 201.151 172.134 202.249C174.424 202.914 176.715 203.612 178.973 204.277C182.06 205.209 185.28 206.173 188.468 207.038C189.596 207.337 190.825 207.503 191.953 207.637C193.049 207.703 194.244 207.836 195.373 208.169ZM202.245 222.337C201.747 222.337 201.216 222.337 200.652 222.304H200.618H200.585C199.556 222.37 198.494 222.437 197.398 222.437C193.049 222.437 188.567 221.805 184.251 221.206L184.085 221.173C181.894 220.874 179.637 220.674 177.445 220.508C175.188 220.308 172.864 220.109 170.606 219.809C164.498 218.945 157.991 217.847 151.782 215.852C144.943 213.656 138.304 210.863 132.593 208.401C131.83 208.069 131.365 207.836 131.265 207.703C131.299 207.67 131.332 207.603 131.431 207.537C131.929 207.138 132.461 206.739 132.959 206.373C133.324 206.107 133.689 205.841 134.054 205.574C134.154 205.508 134.253 205.441 134.386 205.441C134.519 205.441 134.685 205.508 134.818 205.541C135.614 205.841 136.444 206.173 137.241 206.472C138.901 207.104 140.561 207.736 142.221 208.401C142.288 208.435 142.354 208.435 142.387 208.468C142.487 208.501 142.686 208.568 142.686 208.601C142.686 208.601 142.686 208.634 142.653 208.701C142.62 208.767 142.586 208.834 142.553 208.9C142.454 209.067 142.321 209.333 142.387 209.599C142.454 209.798 142.62 209.931 142.852 210.031C142.951 210.064 143.084 210.098 143.184 210.098C143.516 210.098 143.848 209.865 144.08 209.499C144.246 209.233 144.412 209.2 144.545 209.2C144.711 209.2 144.943 209.266 145.143 209.333C145.209 209.366 145.275 209.366 145.342 209.399C147.832 210.197 150.388 210.929 152.845 211.594C155.733 212.393 158.721 213.257 161.643 214.222C162.971 214.687 164.398 214.854 165.793 215.053C166.689 215.186 167.618 215.286 168.482 215.486C169.61 215.718 170.772 215.918 171.868 216.084C173.96 216.417 176.117 216.75 178.176 217.548C178.574 217.714 179.039 217.781 179.67 217.781C180.002 217.781 180.334 217.747 180.699 217.747C181.031 217.714 181.396 217.714 181.761 217.714C182.193 217.714 182.558 217.747 182.89 217.814C186.509 218.545 190.294 218.812 193.613 219.044H193.779C194.543 219.078 194.941 219.144 195.041 219.876C195.141 220.508 195.572 220.541 195.705 220.541C195.937 220.541 196.203 220.408 196.435 220.175C196.867 219.743 197.531 219.51 198.328 219.51C199.357 219.51 200.286 219.909 200.652 220.541C200.884 220.94 201.116 221.106 201.415 221.106C201.747 221.106 202.013 220.807 202.112 220.308C202.212 219.676 202.444 219.643 203.175 219.61C203.241 219.61 203.308 219.61 203.407 219.61C205.432 219.477 207.557 219.344 209.682 219.111C209.781 219.111 209.881 219.111 209.947 219.111C210.113 219.111 210.18 219.144 210.213 219.144C210.213 219.177 210.18 219.31 210.014 219.61C209.25 220.774 208.254 221.539 206.993 221.838C205.532 222.171 203.972 222.337 202.245 222.337ZM211.84 6.81811H211.873C214.795 6.81811 216.687 8.91344 217.749 10.6429C218.081 11.1751 218.546 11.6074 219.011 12.1063C219.442 12.5387 219.907 13.0043 220.239 13.5032L220.339 13.6362C220.538 13.9356 220.704 14.2016 220.704 14.501C220.405 19.1905 219.11 22.8157 216.687 25.7758C216.388 24.2791 216.089 22.7825 215.824 21.3191C214.961 16.4633 214.031 11.4079 211.84 6.81811ZM219.542 9.71166C218.612 8.18174 217.185 7.21722 215.824 6.28597C215.293 5.92012 214.761 5.55427 214.263 5.18842C214.131 5.08864 213.931 5.02212 213.699 5.02212C213.467 5.02212 213.234 5.05538 213.002 5.1219C212.769 5.15516 212.57 5.22168 212.338 5.22168C210.578 5.18842 209.815 4.05761 208.852 2.62747C208.719 2.42791 208.586 2.1951 208.42 1.99555C213.234 3.05984 217.782 6.38575 219.741 9.14625C220.339 10.011 220.704 10.7759 220.804 11.4744C220.272 10.8425 219.874 10.2771 219.542 9.71166ZM206.827 3.15961C209.383 5.78708 211.176 8.7804 212.105 12.0398C212.769 14.3014 213.201 16.6628 213.633 18.9577C213.832 19.9555 214.031 21.0197 214.23 22.0175C214.828 24.9776 215.16 28.0374 215.458 30.9975C215.724 33.5917 215.99 36.2857 216.488 38.9131C216.786 40.5096 217.052 42.106 217.351 43.6692C218.114 48.0261 218.911 52.5161 219.907 56.9396C220.206 58.3365 220.571 59.7333 220.903 61.097C221.766 64.5559 222.63 68.1146 222.995 71.6401C223.26 74.201 223.758 76.762 224.223 79.2232C224.987 83.1477 225.75 87.2053 225.617 91.2962C225.518 93.8572 225.252 96.6177 223.991 99.1786C223.028 101.174 221.468 102.671 219.343 103.635C218.679 103.935 218.015 104.101 217.351 104.101C215.558 104.101 213.832 103.037 212.537 101.074C210.91 98.6797 210.147 95.7529 210.113 91.9281C210.113 90.8306 210.08 89.6998 210.047 88.6022C209.947 83.8462 209.881 78.9238 210.246 74.068C210.611 69.312 211.242 64.4894 211.84 59.8331C212.371 55.6092 212.935 51.219 213.334 46.8953C214.064 38.6138 213.965 31.3966 213.068 24.8113C212.969 24.1794 212.902 23.5474 212.803 22.9155C212.471 20.7537 212.172 18.4921 212.006 16.297C211.674 11.0753 208.885 6.91789 205.831 2.82702C205.665 2.59421 205.466 2.39465 205.266 2.16184C205.2 2.09532 205.134 2.0288 205.1 1.96229C205.233 1.92903 205.333 1.89577 205.466 1.89577C205.831 1.89577 206.096 2.1951 206.428 2.66073C206.528 2.79376 206.661 2.99332 206.827 3.15961ZM180.334 130.775C179.338 131.008 178.375 131.207 177.412 131.44C173.229 132.404 169.278 133.302 165.195 133.569C163.601 133.668 162.008 133.868 160.414 134.167C160.248 134.2 160.115 134.2 160.016 134.2C159.551 134.2 159.252 134.001 158.788 133.336C156.298 129.677 156.331 125.42 156.397 121.296V119.932C156.43 116.839 156.464 113.613 156.862 110.52C157.061 108.89 157.592 107.294 158.09 105.731C158.323 104.966 158.588 104.201 158.788 103.403C159.352 101.34 159.916 99.2451 160.481 97.1831L161.145 94.7884C166.556 108.79 172.831 120.564 180.334 130.775ZM142.188 149.2C142.487 149.001 142.752 148.834 143.018 148.635C144.279 147.803 145.475 147.038 146.637 146.274C146.67 146.24 146.736 146.24 146.803 146.24C146.902 146.24 147.035 146.307 147.135 146.407C148.064 147.404 148.994 148.402 149.99 149.5L150.621 150.165C150.023 150.165 149.425 150.198 148.828 150.198C146.736 150.198 144.512 150.065 142.188 149.2ZM102.913 182.393C99.693 181.528 97.3358 179.333 95.0119 177.171C94.2483 176.473 93.4847 175.741 92.6879 175.076C92.1236 174.61 91.526 174.145 90.9284 173.679C89.7664 172.781 88.5712 171.883 87.5421 170.752C85.4505 168.424 83.3258 166.196 81.1014 163.834C80.3378 163.036 79.6075 162.238 78.8439 161.406C80.5702 161.406 82.197 161.839 83.7574 162.238C84.1226 162.338 84.4877 162.437 84.8861 162.504C85.1517 162.57 85.4173 162.637 85.6829 162.737C86.3801 162.936 87.0773 163.136 87.8409 163.136C88.0069 163.136 88.2061 163.136 88.372 163.103C88.4716 163.103 88.5712 163.069 88.6708 163.069C89.0692 163.069 89.368 163.202 89.6004 163.468C92.9867 167.36 97.0702 171.816 102.316 174.976L103.411 175.641C107.86 178.335 112.475 181.129 117.687 183.49C116.226 183.89 114.832 184.322 113.504 184.754C111.379 185.419 109.387 186.051 107.329 186.45C107.229 186.484 107.096 186.484 106.997 186.484C106.532 186.484 106.134 186.284 105.868 185.952C105.569 185.552 105.138 185.253 104.706 184.954C103.942 184.422 103.278 183.956 103.378 182.892C103.411 182.626 103.079 182.426 102.913 182.393ZM122.966 197.626C123.098 197.293 123.231 196.861 123.132 196.395L122.966 195.73L122.534 196.295C122.003 196.994 121.571 197.093 121.272 197.093C120.808 197.093 120.31 196.827 119.712 196.528C117.388 195.264 115.33 193.535 113.371 191.838C113.039 191.572 112.74 191.306 112.408 191.007C111.91 190.575 111.313 190.209 110.781 189.876C110.284 189.577 109.786 189.244 109.354 188.912C109.188 188.779 109.055 188.679 108.889 188.579C108.557 188.38 108.258 188.147 108.059 187.881L109.918 187.348C112.74 186.55 115.662 185.719 118.517 184.921C118.948 184.788 119.413 184.754 119.845 184.754C121.438 184.754 122.899 185.486 124.426 186.251C127.248 187.748 130.269 188.945 133.158 190.142C135.183 190.974 137.274 191.805 139.266 192.736L139.432 192.803C140.528 193.302 141.458 193.734 141.491 194C141.524 194.266 140.628 194.965 139.798 195.63C137.64 197.326 135.98 199.388 134.618 201.949C134.552 202.049 134.519 202.182 134.453 202.315C134.22 202.847 134.054 203.147 133.722 203.147C133.689 203.147 133.623 203.147 133.556 203.113C132.627 202.914 131.996 202.747 131.83 201.949C131.763 201.683 131.664 201.084 131.199 201.084C130.9 201.084 130.668 201.384 130.469 201.65C130.435 201.65 130.402 201.617 130.369 201.583C130.303 201.55 130.269 201.517 130.203 201.484C129.506 201.184 128.809 200.852 128.111 200.552C126.518 199.854 124.891 199.122 123.231 198.457C122.733 198.291 122.8 198.158 122.966 197.626ZM70.7101 149.799C70.6437 149.367 70.5773 148.901 70.7433 148.768C70.8429 148.668 71.0753 148.635 71.2745 148.635C71.4405 148.635 71.6065 148.635 71.8057 148.668L71.9717 148.036C70.9425 147.637 71.0089 147.138 71.1085 146.34C71.1085 146.207 71.1417 146.074 71.1417 145.941C71.3741 143.081 72.1045 140.287 72.7684 137.925C73.1004 136.695 73.4656 135.464 73.7644 134.234C74.3288 132.105 74.9264 129.91 75.5904 127.781L75.7232 127.382C76.2875 125.586 76.8519 123.724 77.8811 122.227C78.5119 121.329 78.8107 120.365 79.1427 119.4C79.4415 118.535 79.7071 117.704 80.205 116.939C80.869 115.908 81.4666 114.844 82.031 113.779C82.4626 112.981 82.9274 112.116 83.4254 111.351C83.7906 110.753 84.189 110.187 84.6205 109.589C85.2845 108.657 85.9817 107.66 86.4465 106.662C86.9113 105.664 87.4425 104.666 87.9405 103.702C88.538 102.538 89.1688 101.34 89.7 100.11C90.3308 98.6797 91.1276 97.3161 91.9244 95.9857C92.3892 95.2208 92.8539 94.4226 93.2855 93.6243C93.6839 92.8594 94.0159 92.5601 94.4143 92.5601C94.6467 92.5601 94.9123 92.6598 95.2111 92.8594C95.3107 92.9259 95.4435 92.9592 95.5763 92.9592C95.8751 92.9592 96.1075 92.7264 96.3399 92.4935L96.6386 92.161L96.2403 91.9614C95.6427 91.6621 95.2775 91.3627 95.2111 91.0301C95.1115 90.5313 95.6427 89.8993 96.1407 89.3007L96.2071 89.2009C97.1034 88.1033 97.9002 86.9393 98.697 85.8085C99.859 84.1455 101.021 82.4493 102.482 80.9859C103.544 79.9216 104.474 78.7575 105.37 77.5935C106.266 76.4294 107.229 75.1988 108.292 74.1678C109.155 73.303 109.553 72.9705 110.018 72.9705C110.35 72.9705 110.748 73.1368 111.313 73.4028L112.408 73.935L111.744 72.9372C110.848 71.6068 111.545 70.9749 112.475 70.1102L112.541 70.0437C113.803 68.9128 114.898 67.6157 115.961 66.3519C117.089 65.0215 118.285 63.6246 119.612 62.4606C120.177 61.9617 120.608 61.5958 121.106 61.5958C121.239 61.5958 121.372 61.6291 121.505 61.6624L121.936 61.8287L121.97 61.363C122.069 59.567 123.264 58.7356 124.526 57.8376C124.991 57.505 125.489 57.1724 125.887 56.7733C126.12 56.5737 126.352 56.3409 126.551 56.1081C127.414 55.2101 128.277 54.3121 129.473 54.3121C129.904 54.3121 130.369 54.4451 130.867 54.678L131.697 55.1103L131.299 54.2456C131.033 53.6469 130.867 53.2811 130.9 53.1148C130.967 52.9152 131.365 52.6491 131.929 52.2833L132.295 52.0505C134.884 50.3543 137.606 48.5915 140.395 47.1281C140.727 46.9618 141.059 46.7955 141.325 46.7955C141.424 46.7955 141.723 46.7955 142.022 47.494L142.653 47.361C142.686 45.831 143.615 45.4652 144.711 45.0328C145.043 44.8998 145.375 44.7667 145.707 44.6004C145.74 44.5672 145.807 44.5672 145.807 44.5339C145.807 44.6004 145.807 44.7002 145.807 44.7667C145.807 44.8665 145.807 44.9996 145.84 45.0661C146.072 46.4297 145.773 47.7268 145.441 49.0904C145.309 49.6558 145.176 50.2545 145.076 50.8199C144.744 52.9485 144.313 55.1436 143.914 57.2389C143.317 60.4318 142.686 63.6912 142.288 66.9506C142.088 68.7133 141.922 70.5425 141.79 72.272C141.624 74.4339 141.458 76.629 141.159 78.7908C140.628 82.6821 140.462 86.6067 140.329 90.4315C140.296 91.5623 140.229 92.7264 140.196 93.8572C140.13 95.6864 139.897 97.5157 139.698 99.3117C139.432 101.64 139.167 104.034 139.167 106.396C139.167 108.391 139.134 110.42 139.1 112.382C139.001 118.768 138.934 125.42 139.798 131.906C140.262 135.265 141.889 138.125 143.449 140.919C143.615 141.185 143.981 141.85 143.981 141.85C144.844 143.347 145.309 144.178 145.143 144.744C145.01 145.309 144.147 145.841 142.62 146.806L142.52 146.872C138.304 149.566 133.423 151.795 127.182 153.857C120.21 156.151 110.947 158.978 101.386 160.508C100.556 160.641 99.7262 160.808 98.8962 160.941C96.4395 161.373 93.8831 161.839 91.3932 161.839C89.9656 161.839 88.704 161.706 87.4757 161.406C85.9153 161.041 84.3218 160.774 82.7614 160.508C79.7071 159.976 76.5199 159.444 73.6316 158.114C70.7433 156.783 70.1125 155.52 70.6769 152.559C70.9093 151.628 70.8097 150.63 70.7101 149.799ZM193.381 127.582C193.481 127.748 193.514 127.815 193.547 127.848C193.514 127.881 193.447 127.914 193.281 127.948C190.227 128.613 186.907 129.378 182.824 130.342C182.658 130.376 182.558 130.409 182.459 130.409C182.226 130.409 182.06 130.309 181.728 129.777C180.931 128.513 180.002 127.316 179.139 126.152C178.209 124.888 177.246 123.591 176.383 122.26C171.304 114.212 167.386 106.396 164.431 98.3804C163.801 96.6842 162.971 95.0212 162.174 93.4248L161.875 92.7929C161.643 92.3605 161.643 91.9947 161.775 91.4625C163.402 85.4094 164.265 79.0901 165.095 73.0037V72.9039C165.328 71.2077 165.593 69.445 165.859 67.782C165.925 67.3829 165.992 66.9506 166.058 66.5514C166.689 68.1479 167.021 69.8108 167.353 71.4405C167.486 72.1057 167.618 72.8042 167.784 73.4693C169.146 79.3895 170.44 84.212 171.835 88.702C172.598 91.1299 173.76 93.3915 174.922 95.5866C175.254 96.2518 175.619 96.917 175.951 97.5822C179.537 104.766 182.658 110.487 185.745 115.642C186.21 116.44 186.708 117.238 187.173 118.037C188.866 120.897 190.592 123.89 192.75 126.518C192.883 126.684 193.016 126.883 193.115 127.116C193.182 127.249 193.281 127.416 193.381 127.582ZM164.863 63.0925C164.631 65.0881 164.398 67.1169 164.099 69.1457C163.867 70.6091 163.635 72.0725 163.435 73.5691C162.738 78.2254 162.008 83.048 161.045 87.7375C159.783 93.8904 158.09 100.01 156.464 105.963L156.43 106.097C156.43 106.13 156.364 106.163 156.331 106.196H156.264C156.264 105.531 156.264 104.899 156.298 104.234C156.331 102.571 156.364 100.875 156.264 99.2119C155.766 91.2297 155.335 83.4138 155.567 75.731C155.733 70.8086 155.966 65.7865 156.198 60.9307C156.298 58.7688 156.43 56.5737 156.53 54.4119C156.729 50.3875 156.497 46.1636 155.8 41.1415C155.7 40.31 155.899 39.9109 156.53 39.6781C156.895 39.5451 157.227 39.3122 157.559 39.1127C157.991 38.8134 158.422 38.514 158.854 38.514C159.119 38.514 159.418 38.6138 159.717 38.8466C159.817 38.9131 159.949 38.9797 160.115 38.9797C160.281 38.9797 160.547 38.9131 160.68 38.7468C160.779 38.6471 160.813 38.4808 160.746 38.3477C160.647 37.9819 160.647 37.7158 160.746 37.5828C160.879 37.4165 161.211 37.35 161.576 37.3167C161.842 37.2834 162.141 37.2502 162.373 37.1504C163.867 36.4852 165.295 35.8866 166.789 35.4209C171.868 33.8578 175.221 30.0662 178.475 26.3745L178.674 26.1416C178.773 26.0419 178.873 25.9088 178.939 25.8091C179.305 25.3434 179.537 25.0774 179.969 25.0774C180.035 25.0774 180.101 25.0774 180.168 25.1106H180.234H180.267C180.5 25.1106 180.765 24.9443 180.865 24.8113C180.965 24.6782 180.965 24.5785 180.965 24.512C180.799 23.3146 181.496 22.716 182.326 22.0508C182.791 21.6849 183.255 21.2858 183.554 20.7869C183.62 20.6872 183.654 20.6206 183.72 20.5209C183.952 20.1883 184.218 19.7892 184.218 19.257C185.413 18.9244 186.077 18.0597 186.741 17.195C187.04 16.7958 187.306 16.43 187.638 16.1307C188.069 15.7316 188.501 15.2992 188.899 14.8668C190.327 13.4367 191.655 12.1063 193.381 11.1085C194.012 10.7427 194.51 10.2105 195.008 9.71166C195.605 9.07973 196.17 8.48107 196.967 8.18174C197.465 7.98218 197.996 7.74937 198.494 7.54981C199.423 7.15071 200.386 6.71834 201.415 6.41901L201.747 6.31923C202.677 6.0199 203.54 5.75382 204.436 5.75382C204.569 5.75382 204.702 5.75382 204.868 5.78708C205.698 5.8536 206.296 6.28597 206.827 7.15071C208.52 10.011 210.313 13.4699 210.645 17.6273C210.91 20.7204 211.275 23.8135 211.641 26.8401C211.773 27.9376 211.906 29.0352 212.039 30.1327C212.139 30.8644 211.939 31.2968 211.242 31.8955C209.549 33.4254 207.524 34.5562 205.598 35.687C204.071 36.585 202.478 37.483 201.05 38.5805C198.461 40.5428 195.307 42.6714 191.621 43.6359C190.592 43.902 189.563 44.035 188.567 44.035C186.476 44.035 184.45 43.4364 182.492 42.2723L182.425 42.2058C180.301 40.9087 178.076 39.5783 175.387 39.5783C175.188 39.5783 175.022 39.5783 174.823 39.6116C173.196 39.7114 171.901 40.4431 170.972 41.7402C168.847 44.7002 167.818 48.2922 166.921 51.4186C165.759 55.2101 165.295 59.2012 164.863 63.0925ZM202.378 2.16184C203.009 2.16184 203.374 2.59421 203.772 3.0931C203.938 3.29265 204.104 3.4922 204.304 3.69176C204.171 3.75828 204.005 3.79154 203.772 3.79154C203.64 3.79154 203.474 3.79154 203.341 3.75828C203.175 3.75828 203.009 3.72502 202.843 3.72502C202.71 3.72502 202.577 3.72502 202.478 3.75828C200.087 4.2239 198.129 5.48775 196.269 6.7516C195.572 7.21722 194.875 7.68285 194.145 8.11522C192.451 9.11299 191.057 10.4766 189.696 11.7737C188.8 12.6385 187.87 13.5697 186.874 14.3347C185.812 15.1661 185.148 16.1639 184.517 17.1284C184.185 17.6273 183.886 18.0929 183.521 18.5586C182.691 18.8579 182.226 19.5231 181.761 20.1218C181.529 20.4211 181.33 20.7204 181.064 20.9865C180.865 21.1528 180.732 21.3523 180.566 21.5519C180.135 22.0508 179.769 22.4831 179.105 22.6162C178.408 22.7492 178.309 23.3479 178.242 23.7137C178.209 23.9465 178.176 24.1794 178.043 24.3124C177.412 24.9776 176.781 25.676 176.184 26.3412C174.79 27.8711 173.362 29.4676 171.768 30.8312C170.806 31.6627 169.909 32.3611 168.747 32.3611C168.614 32.3611 168.515 32.3611 168.382 32.3278C168.349 32.3278 168.316 32.3278 168.249 32.3278C169.345 31.7624 170.407 31.1638 171.436 30.4653C174.358 28.4698 176.549 26.0419 177.943 23.3146C181.463 16.3635 184.982 11.807 189.364 8.48107C192.518 6.08641 196.834 3.19287 202.013 2.1951C202.146 2.1951 202.278 2.16184 202.378 2.16184ZM162.605 35.1881C161.842 35.4209 161.078 35.6205 160.348 35.9198C159.02 36.452 157.758 37.1504 156.53 37.8156C155.634 38.3145 154.704 38.8134 153.741 39.2457C152.347 39.8777 150.919 40.5761 149.558 41.2413C147.433 42.2723 145.209 43.3699 142.985 44.3011C141.258 45.0328 139.598 45.9308 138.005 46.8288L137.44 47.1281C136.278 47.7601 135.15 48.4918 134.021 49.2235C133.291 49.6891 132.527 50.188 131.797 50.6203C131.597 50.7201 131.431 50.8532 131.265 50.9862C130.933 51.2523 130.601 51.5183 130.203 51.5183C130.103 51.5183 129.971 51.4851 129.838 51.4518C129.771 51.4186 129.738 51.4186 129.672 51.4186C129.439 51.4186 129.141 51.5516 129.041 51.7512C127.912 53.6469 126.186 54.8442 124.393 56.1414C123.198 57.0061 121.97 57.8708 120.94 58.9684C120.708 59.2344 120.476 59.5005 120.243 59.7333C119.911 60.1324 119.579 60.4983 119.247 60.8309C117.687 62.2278 116.326 63.8242 114.998 65.3541C113.637 66.9173 112.209 68.547 110.615 69.9771C110.549 70.0437 110.483 70.1434 110.416 70.2099C110.383 70.2432 110.383 70.2765 110.35 70.3097C109.952 70.0437 109.653 69.9439 109.42 69.9439C109.221 69.9439 109.088 70.0104 108.989 70.1767C108.79 70.4428 108.889 70.8751 109.122 71.4405C109.188 71.6401 109.122 71.7399 108.823 72.0059L108.756 72.0392C106.897 73.6689 105.138 75.5647 103.577 77.6932C103.179 78.2254 102.847 78.558 102.515 78.558C102.249 78.558 101.951 78.3584 101.585 77.9593L100.888 77.1611L101.021 78.2254C101.253 80.0546 101.253 80.0546 100.058 81.6511L99.9586 81.7841C98.7966 83.3473 97.6014 84.9437 96.4726 86.5069C95.8087 87.4049 95.1447 88.3362 94.4807 89.2342C92.2232 92.294 90.4304 95.6864 88.7372 98.9791C87.9073 100.542 87.0441 102.205 86.1477 103.768C86.0481 103.935 85.9485 104.134 85.8821 104.334C85.5833 105.032 85.3177 105.465 84.8529 105.465C84.6205 105.465 84.3549 105.365 84.0562 105.199C83.9566 105.165 83.857 105.132 83.7574 105.132C83.5582 105.132 83.3922 105.199 83.2594 105.332C83.1266 105.465 83.0934 105.631 83.0934 105.83C83.0934 105.83 83.1598 106.562 83.5914 106.662C84.1226 106.795 84.2222 106.961 84.2554 107.028C84.3218 107.194 84.0894 107.56 83.9234 107.826C83.857 107.959 83.7574 108.059 83.691 108.159C82.9274 109.522 82.0974 110.919 81.3006 112.249C80.537 113.513 79.7735 114.844 79.0431 116.141C78.5783 116.972 78.1799 117.837 77.8147 118.702C77.7151 118.901 77.6487 119.101 77.5491 119.3C77.2503 119.999 76.8519 120.099 76.5531 120.099C76.4535 120.099 76.3539 120.099 76.2543 120.065L75.9224 119.999L75.8892 120.365C75.8228 120.797 76.022 121.096 76.1547 121.362C76.3207 121.662 76.4203 121.828 76.2543 122.127C74.8268 125.087 73.9304 128.28 73.0672 131.373C72.8016 132.271 72.5692 133.169 72.3036 134.067C72.0381 134.965 71.8389 135.431 71.4405 135.431C71.2081 135.431 70.9425 135.298 70.5773 135.032L70.2121 134.799L70.0461 135.198C70.0129 135.265 69.9797 135.365 69.9465 135.431C69.8801 135.631 69.7805 135.897 70.0461 136.03C71.3409 136.695 71.2413 137.56 70.9093 139.123L70.8761 139.256C70.7433 139.954 70.5773 140.653 70.4113 141.318C69.9797 143.014 69.5481 144.777 69.5149 146.606C69.5149 146.939 69.4485 146.939 69.0169 146.972C68.6849 147.005 68.2865 147.038 67.9878 147.338L67.6226 147.704L68.0873 147.87C69.2161 148.302 69.2493 149.101 69.1829 150.364C69.1497 151.628 69.1497 152.892 69.1497 154.189C69.1497 154.522 69.1497 154.854 69.1497 155.154C65.033 151.728 63.3399 147.305 64.4354 142.981C65.2654 139.721 65.8298 136.362 66.361 133.103C66.8922 129.877 67.4234 126.551 68.2533 123.325C69.8137 117.139 71.9717 111.518 74.86 106.163C78.7443 98.9458 83.359 92.1277 89.0028 85.3096C94.7131 78.3917 101.253 71.7066 109.022 64.822C113.902 60.4983 118.085 57.0061 122.667 53.9463C129.838 49.1569 136.876 44.6004 144.445 41.2745C147.965 39.7114 151.683 38.4808 155.268 37.2502C156.63 36.7846 158.024 36.3189 159.418 35.82L160.315 35.5207C162.705 34.6892 165.162 33.8245 167.486 32.7269C166.158 34.1238 164.431 34.656 162.605 35.1881ZM70.2453 158.28C71.4073 158.912 72.6356 159.577 73.9304 160.043C76.7523 161.074 78.5119 163.169 80.4042 165.364C81.3338 166.429 82.2634 167.559 83.359 168.524C83.1598 169.788 83.9898 170.154 84.6205 170.42C84.8861 170.553 85.1517 170.652 85.3509 170.819C85.8489 171.284 86.3801 171.783 86.8781 172.249C87.8741 173.213 88.9364 174.178 90.032 175.043C90.2976 175.242 90.2644 175.342 90.0652 175.708C89.9324 175.974 89.6336 176.473 90.1648 176.905C90.3308 177.038 90.4636 177.071 90.6628 177.071C90.9284 177.071 91.1608 176.938 91.36 176.805C91.4928 176.706 91.6588 176.606 91.7584 176.606C91.7916 176.606 91.858 176.606 91.9908 176.739C93.3187 178.069 94.8791 179.2 96.3399 180.264C97.6678 181.229 99.029 182.193 100.224 183.324C100.257 183.357 100.324 183.424 100.39 183.457C100.623 183.657 100.623 183.657 100.49 183.823C100.257 184.156 100.324 184.422 100.39 184.521C100.457 184.688 100.656 184.887 101.121 184.954C102.78 185.153 102.913 185.187 104.042 186.617C102.814 186.783 101.585 186.916 100.423 186.916C97.6014 186.916 95.5431 186.118 93.7503 184.355C91.6588 182.26 89.4676 180.231 87.3097 178.269C84.0562 175.275 80.703 172.182 77.7151 168.823C74.528 165.231 71.8389 161.639 69.6145 157.947C69.8469 158.08 70.0461 158.18 70.2453 158.28ZM98.7634 188.113C99.3942 188.113 100.025 188.113 100.656 188.113C101.353 188.113 102.05 188.113 102.747 188.113C103.843 188.113 104.772 188.113 105.602 188.147C106.764 188.18 107.561 189.078 108.258 189.876C108.358 189.976 108.458 190.109 108.557 190.209C109.487 191.24 110.582 191.971 111.678 192.67C112.375 193.102 113.072 193.568 113.703 194.1C117.587 197.326 122.169 199.954 128.51 202.548C128.609 202.581 128.742 202.614 128.875 202.681C129.141 202.781 129.639 202.947 129.672 203.08C129.672 203.113 129.705 203.313 129.174 203.778C129.041 203.878 128.975 204.045 128.975 204.244C128.975 204.477 129.107 204.71 129.34 204.876C129.473 204.976 129.605 205.009 129.738 205.009C129.937 205.009 130.07 204.909 130.203 204.843C130.236 204.843 130.269 204.809 130.269 204.809C130.967 204.444 131.332 204.244 131.631 204.244C131.863 204.244 132.129 204.41 132.627 204.743C132.062 205.342 131.365 205.774 130.601 206.206C130.303 206.373 130.037 206.539 129.771 206.739C129.672 206.805 129.572 206.838 129.506 206.838C129.34 206.838 129.174 206.739 128.975 206.639C128.875 206.605 128.809 206.539 128.709 206.506C123.762 204.344 118.716 201.683 113.238 198.39C109.686 196.229 106.266 193.767 102.98 191.373C101.585 190.375 100.158 189.344 98.7634 188.346V188.113ZM142.885 192.504C142.719 192.504 142.553 192.47 142.387 192.371L136.577 189.843C132.195 187.947 127.813 186.051 123.43 184.156C125.157 183.79 126.817 183.69 128.244 183.623C132.427 183.457 136.511 182.16 141.026 179.566C142.254 178.867 143.715 178.069 145.342 177.87C145.441 177.87 145.541 177.836 145.641 177.803C145.807 177.77 145.939 177.737 146.072 177.737C146.205 177.737 146.238 177.77 146.271 177.803C146.305 177.836 146.404 178.003 146.371 178.502C146.338 179 146.504 179.333 146.637 179.499C146.836 179.732 147.135 179.865 147.5 179.865C147.865 179.865 148.263 179.732 148.662 179.499C148.961 179.333 149.093 179.3 149.16 179.3C149.293 179.3 149.392 179.632 149.558 180.065C151.085 184.521 147.599 190.109 143.516 192.304C143.283 192.437 143.084 192.504 142.885 192.504ZM149.724 176.739C149.658 176.805 149.558 176.872 149.492 176.972C149.425 177.038 149.326 177.138 149.326 177.171C149.326 177.171 149.259 177.138 149.16 177.005C149.027 176.839 148.994 176.772 149.293 176.439C149.957 175.675 150.72 175.043 151.716 174.477C151.052 175.408 150.455 176.14 149.724 176.739ZM142.155 177.504C140.694 177.903 139.366 178.635 138.104 179.366C137.474 179.699 136.81 180.065 136.179 180.364C134.187 181.329 131.996 181.894 129.307 182.16C128.709 182.227 128.145 182.26 127.547 182.326C125.555 182.493 123.53 182.659 121.538 183.091C121.372 183.125 121.239 183.125 121.106 183.125C120.774 183.125 120.442 183.058 119.978 182.858C115.894 181.129 112.209 179.233 108.723 177.071C107.794 176.506 106.831 175.907 105.901 175.375C103.345 173.845 100.689 172.282 98.3982 170.353C96.4727 168.723 94.7131 166.828 92.9867 164.965C92.6215 164.566 92.2564 164.2 91.8912 163.801C91.692 163.568 91.692 163.502 91.692 163.502C91.692 163.502 91.7916 163.369 92.3892 163.269C93.0531 163.169 93.7503 163.069 94.4143 162.97C95.9415 162.737 97.535 162.504 99.0622 162.404C102.747 162.171 106.333 161.273 109.786 160.409C111.113 160.076 112.475 159.743 113.803 159.444C118.816 158.347 123.729 156.65 128.51 154.987C130.303 154.355 132.162 153.724 133.988 153.125C135.946 152.493 137.739 151.628 139.266 150.597C139.632 150.364 139.93 150.231 140.262 150.231C140.495 150.231 140.727 150.298 140.96 150.398C142.454 151.129 144.113 151.528 145.906 151.528C146.072 151.528 146.238 151.528 146.371 151.528C146.404 151.528 146.471 151.528 146.504 151.528C147.068 151.528 147.633 151.628 148.197 151.761C148.795 151.894 149.425 151.994 150.023 151.994C150.687 151.994 151.284 151.861 151.816 151.562C151.849 151.562 151.849 151.562 151.849 151.562C151.915 151.562 152.081 151.795 152.148 151.894C152.181 151.961 152.247 152.027 152.28 152.061C154.339 154.688 156.962 156.418 159.518 157.914C160.514 158.513 161.41 159.211 162.373 159.943C163.303 160.641 164.232 161.373 165.295 162.038C160.647 165.996 156.065 169.389 150.621 173.413C148.263 175.242 145.541 176.539 142.155 177.504ZM148.629 145.509C143.084 139.09 140.594 132.837 140.794 125.753C140.893 122.527 140.76 119.234 140.661 116.074C140.594 113.646 140.495 111.119 140.495 108.657C140.495 106.196 140.794 103.702 141.059 101.274C141.325 98.9458 141.624 96.5512 141.624 94.1565C141.624 93.2252 141.69 92.2607 141.723 91.3627C141.79 90.3317 141.823 89.2674 141.823 88.2031C141.823 85.11 142.221 81.9837 142.586 78.9571C142.885 76.6622 143.184 74.2676 143.283 71.9062C143.516 67.8486 144.014 63.9572 144.777 60.3653C145.109 58.7688 145.408 57.1391 145.707 55.5427C146.271 52.4496 146.869 49.2235 147.765 46.1636C147.931 45.565 148.097 44.8665 147.865 44.1681C147.799 44.0018 147.799 43.8355 147.832 43.769C147.865 43.7357 147.965 43.6359 148.263 43.6027C148.297 43.6027 148.33 43.6027 148.363 43.6027C148.396 43.6027 148.429 43.6027 148.463 43.6027C148.463 43.6692 148.429 43.8687 148.429 43.9353C148.429 44.0018 148.396 44.1016 148.396 44.1681L148.363 44.5007C148.031 47.3942 147.699 50.3875 147.301 53.3476C147.201 54.046 147.002 54.7445 146.836 55.4429C146.57 56.5072 146.305 57.5382 146.305 58.4695C146.338 59.9661 146.105 61.4628 145.906 62.9262C145.74 64.1235 145.541 65.3874 145.508 66.618V66.7843C145.508 67.2831 145.475 67.4494 145.143 67.5492C144.91 67.6157 144.611 67.8818 144.545 68.1811C144.512 68.414 144.611 68.6135 144.777 68.7466C145.375 69.2122 145.309 69.7111 145.176 70.5093C145.143 70.7421 145.109 70.9749 145.076 71.241C145.076 71.6401 145.043 72.0725 145.043 72.4716C144.977 74.7332 144.91 77.0613 144.479 79.2564C144.246 80.5203 144.313 81.7176 144.412 82.8817C144.479 83.7464 144.545 84.5779 144.479 85.4094C144.379 86.7065 144.412 88.0368 144.412 89.3339C144.412 90.1321 144.445 90.9636 144.412 91.7618C144.412 91.8949 144.412 92.0612 144.445 92.1942C144.479 92.4603 144.512 92.7264 144.412 92.8261C144.313 92.9259 144.113 92.9924 143.815 92.9924C143.449 92.9924 143.184 93.2252 143.151 93.5578C143.084 93.9237 143.317 94.3893 143.815 94.5556C144.445 94.7552 144.479 95.121 144.479 95.8527V95.9525C144.479 98.4802 144.479 101.041 144.445 103.536C144.412 109.389 144.379 115.442 144.645 121.362C144.977 128.314 146.172 133.768 148.396 138.591C149.658 141.318 151.351 143.646 153.741 145.974C155.136 147.338 156.497 148.735 157.858 150.065C158.622 150.83 159.385 151.628 160.182 152.393C161.078 153.291 162.074 154.289 163.369 154.921L163.435 154.954C163.568 155.021 163.801 155.12 163.867 155.22C164.232 156.351 165.129 156.65 165.925 156.95C166.224 157.049 166.49 157.149 166.722 157.282C167.087 157.482 167.452 157.648 167.818 157.848C168.614 158.247 169.444 158.679 170.241 159.145C171.802 160.076 173.561 160.774 175.719 161.307C176.25 161.44 176.682 161.606 177.047 161.972C176.35 162.471 175.553 162.67 174.624 162.67C173.926 162.67 173.229 162.57 172.399 162.371C168.515 161.573 165.261 159.61 161.809 157.548L161.244 157.216C156.032 154.089 152.081 149.533 148.629 145.509ZM176.416 159.677L176.217 159.644C175.022 159.378 174.258 159.178 174.557 157.648L173.96 157.382C173.528 157.947 173.096 158.214 172.598 158.214C172.1 158.214 171.536 157.914 171.138 157.681C170.673 157.382 170.175 157.182 169.677 156.983C168.548 156.517 167.519 156.085 166.988 154.854C166.755 154.322 166.224 154.322 166.025 154.322C165.959 154.322 165.892 154.322 165.826 154.322C165.759 154.322 165.693 154.322 165.627 154.322C165.461 154.322 165.295 154.322 165.129 154.222C162.771 152.925 160.912 151.03 159.053 149.034C157.858 147.77 156.63 146.473 155.434 145.276C154.638 144.478 153.874 143.679 153.077 142.848L152.911 142.682C152.247 142.016 151.948 141.617 152.38 140.819C152.513 140.586 152.646 140.054 152.446 139.721C152.347 139.555 152.148 139.455 151.948 139.455C151.716 139.455 151.45 139.588 151.118 139.821C151.052 139.888 150.986 139.888 150.986 139.888C150.953 139.854 150.886 139.721 150.853 139.655C150.82 139.588 150.82 139.555 150.787 139.522C149.691 137.493 148.861 135.498 148.197 133.502C148.031 133.036 148.164 132.637 148.595 132.238L148.861 131.972L148.595 131.739C147.267 130.575 147.135 129.178 146.969 127.682C146.902 127.183 146.869 126.684 146.769 126.185C146.305 123.957 146.105 122.26 147.931 120.83L148.429 120.431L147.799 120.232C147.666 120.198 147.5 120.165 147.367 120.165C146.969 120.165 146.736 120.365 146.537 120.498C146.404 120.597 146.305 120.664 146.238 120.664C145.973 119.167 145.939 117.604 145.939 115.941C145.939 115.409 145.939 114.844 145.906 114.312C145.873 112.682 145.873 111.052 145.873 109.456C145.873 107.992 145.906 106.496 145.873 105.032C145.84 104.068 146.006 103.536 147.002 103.236L147.931 102.97L147.035 102.604C146.006 102.172 145.807 101.573 145.84 100.542C145.873 98.3804 145.873 96.1853 145.873 94.0567C145.873 91.1964 145.873 88.2696 145.906 85.3761C145.906 85.0435 145.906 84.7109 145.873 84.4116C145.807 83.2808 145.773 82.2497 146.537 81.3185C146.935 80.8196 146.603 80.3872 146.371 80.1212C146.172 79.8551 146.039 79.6888 146.072 79.456C146.205 78.3252 146.271 77.1611 146.305 76.0303C146.338 74.8662 146.404 73.6689 146.537 72.5048C146.736 70.9416 146.869 69.3452 147.002 67.782C147.168 65.5537 147.367 63.2588 147.799 61.0304C147.865 60.7644 147.865 60.5316 147.898 60.2655C147.965 59.5338 148.031 58.8686 148.728 58.4695C149.06 58.2699 149.16 57.8708 148.994 57.4717C148.031 55.2101 148.728 52.3166 150.687 50.0882L151.351 49.3565L150.388 49.556C150.189 49.5893 149.99 49.6226 149.857 49.6226C149.757 49.6226 149.625 49.6226 149.558 49.556C149.425 49.423 149.525 48.8576 149.558 48.6581C149.824 47.0616 149.824 45.4319 149.857 43.8022C149.857 43.0705 149.89 42.8377 150.488 42.6382C151.251 42.4053 152.048 42.0062 152.911 41.4076C153.31 41.1415 153.608 41.0085 153.808 41.0085C153.874 41.0085 154.14 41.0085 154.239 42.106C155.003 48.9574 155.102 54.9773 154.472 60.5648C154.206 63.0592 154.173 65.5869 154.106 68.0814C154.106 69.0459 154.073 70.0437 154.04 71.0414C154.007 72.0059 153.974 73.0037 153.94 73.9682C153.841 76.6955 153.741 79.5225 153.808 82.3163C153.907 87.5047 154.106 92.2275 154.472 96.7507C154.737 100.043 154.737 103.403 154.737 106.629C154.737 108.059 154.737 109.522 154.77 110.986C154.837 115.309 154.77 119.733 154.737 123.99V124.189C154.671 130.076 156.962 135.265 161.775 140.121C165.693 144.045 170.075 147.338 175.188 150.098C178.375 151.828 180.035 155.586 179.271 159.211C179.072 160.143 178.84 160.508 178.475 160.508C178.275 160.508 178.01 160.409 177.678 160.209C177.346 159.91 176.848 159.777 176.416 159.677ZM206.594 137.493C207.092 137.393 207.624 137.36 208.121 137.36C213.101 137.36 218.911 141.351 222.796 147.371C219.608 146.473 216.587 145.409 214.131 142.948C211.973 140.752 209.483 138.956 206.594 137.493ZM245.039 171.75C244.84 172.049 244.674 172.149 244.574 172.149C244.475 172.149 244.375 172.016 244.242 171.783C243.844 170.918 243.246 170.22 242.682 169.522C241.918 168.59 241.155 167.726 240.856 166.528C240.756 166.162 240.424 165.896 239.993 165.597C239.594 165.298 239.13 164.932 238.964 164.499C238.466 163.069 237.47 162.038 236.507 161.041C235.843 160.342 235.146 159.61 234.648 158.812C233.32 156.584 231.593 154.488 229.369 152.36C229.17 152.16 229.07 151.994 229.07 151.861C229.07 151.728 229.203 151.562 229.502 151.362C229.668 151.229 229.9 151.063 229.933 150.763C229.967 150.597 229.9 150.398 229.767 150.231C229.601 150.032 229.269 149.999 229.17 149.999C229.103 149.999 229.07 149.999 229.004 149.999C228.738 150.032 228.539 150.231 228.373 150.398C228.273 150.497 228.141 150.63 228.074 150.63C228.074 150.63 228.008 150.63 227.908 150.531C227.643 150.265 227.344 150.032 227.045 149.832C226.447 149.367 225.883 148.934 225.485 148.269C222.497 143.147 218.413 137.693 210.711 136.196C209.516 135.963 208.453 135.863 207.424 135.863C206.196 135.863 205.067 136.03 203.938 136.329C203.739 136.396 203.54 136.429 203.341 136.429C202.876 136.429 202.411 136.263 201.946 135.863C201.15 135.231 200.286 134.633 199.324 134.067C198.228 133.435 197 133.103 195.771 133.103C192.817 133.103 190.294 134.932 189.331 137.792C189.165 138.225 188.932 138.358 188.501 138.524C186.442 139.422 184.251 140.121 181.828 140.619L181.695 140.653C181.429 140.719 181.131 140.752 180.898 140.752C180.633 140.752 180.168 140.752 180.168 139.622L179.504 139.555C179.172 141.185 178.209 141.551 176.682 141.65C175.852 141.684 174.989 141.85 173.86 142.116C173.428 142.216 173.063 142.316 172.764 142.316C172.399 142.316 171.968 142.249 171.802 141.251L171.735 140.852L171.337 141.019C170.806 141.251 170.706 141.75 170.673 142.116C170.606 142.548 170.573 142.648 170.208 142.648H170.175C169.942 142.648 169.677 142.648 169.444 142.648C168.15 142.648 166.955 142.615 166.025 141.717C164.797 140.52 163.635 139.256 162.506 138.025C162.008 137.493 161.543 136.961 161.045 136.462C160.979 136.396 160.912 136.329 160.846 136.263C160.547 135.963 160.481 135.897 160.547 135.73C160.58 135.664 160.58 135.664 160.713 135.664C160.779 135.664 160.846 135.664 160.912 135.664C161.012 135.664 161.078 135.697 161.178 135.697C161.244 135.697 161.311 135.697 161.344 135.697C162.771 135.464 164.265 135.298 165.693 135.132C168.083 134.832 170.573 134.566 172.997 134.001C175.288 133.502 177.645 133.003 179.902 132.504C184.683 131.506 189.63 130.442 194.477 129.178C195.273 128.979 196.07 128.746 196.867 128.513C199.29 127.815 201.78 127.116 204.37 126.95C204.602 126.95 204.835 126.917 205.067 126.917C207.889 126.917 210.545 127.881 213.201 129.81C217.284 132.837 221.102 136.196 224.588 139.788C225.983 141.218 227.443 142.648 228.838 144.012C231.261 146.34 233.751 148.768 235.942 151.362L236.208 151.661C239.926 156.118 243.777 160.708 245.603 166.462C246.201 168.69 246.068 170.253 245.039 171.75ZM222.563 16.0641C222.696 16.0641 222.829 16.3635 222.895 16.5963C222.928 16.6961 222.962 16.7958 222.995 16.8624C223.725 18.4255 224.555 20.022 225.352 21.5186C226.879 24.4454 228.473 27.5053 229.568 30.6981C230.265 32.7935 230.996 34.922 231.693 36.9841C233.751 42.9707 235.876 49.1902 237.503 55.4097C238.997 61.097 239.462 67.0836 239.76 72.2388C239.827 73.5359 239.893 74.833 239.959 76.0968C239.993 76.6955 239.993 77.2609 240.026 77.8263C239.993 79.3229 239.926 80.8529 239.926 82.3495C239.794 87.804 239.694 93.4581 238.731 98.9458C238.266 101.607 237.204 103.768 235.544 105.332C234.747 106.097 233.784 106.496 232.755 106.496C232.224 106.496 231.66 106.396 231.129 106.196C229.767 105.697 229.103 104.5 229.137 102.638C229.17 100.376 229.535 98.1476 229.9 95.9525C230.133 94.4891 230.398 92.9924 230.531 91.4625C231.195 84.6444 231.162 77.2941 230.332 68.414C230.066 65.3874 229.635 62.3275 229.269 59.3342C228.937 56.74 228.572 54.0793 228.307 51.4518C227.875 47.0616 227.045 42.6382 226.281 38.381C225.983 36.7846 225.684 35.1216 225.418 33.4919C225.119 31.7624 224.987 29.9997 224.821 28.2702C224.721 27.0729 224.621 25.8423 224.455 24.6117C224.123 22.084 223.46 19.5896 222.397 17.2282C222.364 17.1617 222.331 17.0619 222.298 16.9954C221.999 16.3635 221.999 16.2637 222.331 16.0974C222.464 16.0641 222.53 16.0641 222.563 16.0641Z" fill="#111111"/>
<path d="M188.036 41.341C188.268 42.106 188.733 42.2723 189.065 42.2723C189.198 42.2723 189.331 42.239 189.497 42.2058C189.862 42.106 190.161 41.8732 190.26 41.5738C190.36 41.3743 190.393 41.0084 190.161 40.5761C189.895 40.0439 189.53 39.412 189.132 38.8466C189.065 38.7468 189.032 38.6803 188.999 38.647H189.032C189.895 38.4475 190.692 38.0816 191.489 37.7158C192.617 37.1836 193.647 36.6848 194.875 36.6848C195.008 36.6848 195.174 36.6848 195.307 36.718C195.373 36.718 195.439 36.718 195.506 36.718C196.037 36.718 196.502 36.4852 196.9 36.2524L197 36.1859C197.398 35.9531 198.228 35.4874 197.83 34.7225C197.763 34.5894 197.73 34.4231 197.73 34.2236C197.664 33.758 197.597 33.0928 196.734 32.9597L196.568 32.9265C196.369 32.8932 196.137 32.86 195.904 32.86C195.406 32.86 195.008 33.0595 194.742 33.4586C193.68 35.1548 191.987 35.7868 190.194 36.4519C189.729 36.6182 189.264 36.7845 188.833 36.9841C188.667 37.0506 188.534 37.0839 188.434 37.0839C188.335 37.0839 188.202 37.0506 187.936 36.6182C187.737 36.2856 187.538 35.9198 187.339 35.5872C186.509 34.2236 185.745 32.9265 185.812 31.2303L185.181 31.064C184.45 32.5939 184.55 34.0905 185.413 35.5872C186.31 37.1504 187.405 39.1459 188.036 41.341Z" fill="#111111"/>
<path d="M199.822 25.8423C199.921 25.8423 199.988 25.809 200.087 25.7758C200.884 25.3767 201.183 24.645 201.448 23.9798C201.515 23.8135 201.581 23.6804 201.648 23.5141L201.714 23.4144L201.681 23.3146C201.648 23.2481 201.648 23.1816 201.648 23.0818C201.581 22.7492 201.482 22.217 201.017 22.217C200.884 22.217 200.718 22.2836 200.585 22.3833C199.755 23.0818 199.224 23.9798 199.091 24.911C199.058 25.1438 199.191 25.3767 199.324 25.5097C199.456 25.7425 199.656 25.8423 199.822 25.8423Z" fill="#111111"/>
<path d="M205.532 29.0351C206.063 29.0351 206.528 28.7358 206.959 28.0706C207.092 27.8711 207.358 27.3722 207.192 26.9731C207.125 26.7735 206.959 26.6405 206.727 26.574C206.561 26.5407 206.428 26.5074 206.295 26.5074C205.432 26.5074 204.934 27.1394 204.503 27.7048C204.436 27.8046 204.337 27.9043 204.27 28.0041L204.071 28.3034L204.303 28.503C204.735 28.8688 205.133 29.0351 205.532 29.0351Z" fill="#111111"/>
<path d="M35.22 157.016C35.8176 157.116 37.212 157.448 37.544 158.812C37.6768 159.411 37.3116 160.043 36.548 160.409C35.386 160.974 34.1245 161.34 32.7301 161.672C29.3106 162.537 26.6546 162.903 24.0983 162.903H23.8327C23.1023 162.969 22.3387 163.036 21.6416 163.103C20.048 163.269 18.4212 163.435 16.7945 163.435C12.5118 163.435 8.69388 163.236 5.20796 161.074C4.51078 160.641 4.17879 160.142 4.17879 159.544C4.17879 158.912 4.70997 158.679 5.50675 158.38C5.73915 158.313 5.97154 158.247 6.17074 158.147C6.53593 158.047 6.86792 157.914 7.23311 157.781C7.33271 157.748 7.6647 157.681 7.7311 157.681C7.7643 157.681 7.7975 156.65 7.7975 155.919C7.5651 156.018 7.23311 156.218 6.63553 156.284C3.97959 156.584 2.58523 157.914 2.25323 160.442C1.95444 162.57 2.68482 164.3 4.07919 164.699L4.24519 164.732C5.17476 165.032 6.17074 165.298 7.13351 165.53C10.221 166.196 13.4746 166.495 16.7945 166.495C20.0812 166.495 23.4343 166.196 27.0862 165.564C27.8166 165.431 28.547 165.331 29.2442 165.198C31.5349 164.832 33.8921 164.466 36.1828 163.801C37.4776 163.435 38.8387 162.969 39.6687 161.938C40.1335 161.373 39.8347 160.708 39.6023 160.109C39.4695 159.81 39.3367 159.477 39.3367 159.211C39.3367 159.178 39.3367 159.145 39.3367 159.111C39.3367 159.012 39.3367 158.945 39.3367 158.845C39.1043 157.182 38.042 155.985 36.4484 155.553C35.4856 155.287 34.9212 155.154 34.6888 154.555C34.888 155.386 34.8216 156.118 35.0208 156.916C35.0208 156.983 35.1868 157.016 35.22 157.016ZM16.9605 164.998C15.0017 164.998 13.0098 164.932 10.9846 164.765C8.95947 164.599 6.96752 164.001 5.00877 163.402L4.64358 163.302C4.47758 163.236 4.24519 163.136 4.14559 162.969C4.07919 162.836 4.07919 162.67 4.14559 162.471C4.17879 162.338 4.24518 162.304 4.21199 162.304C4.27838 162.304 4.47758 162.437 4.57718 162.504C4.61038 162.537 4.67677 162.57 4.70997 162.604C8.02989 164.666 11.8146 164.932 14.7029 164.932C15.1013 164.932 15.4665 164.932 15.8649 164.932L16.9273 164.899C19.9816 164.832 23.1355 164.765 26.2562 164.433C23.2683 164.765 20.1476 164.998 16.9605 164.998ZM34.2904 162.836C34.8548 162.67 35.4192 162.504 35.9836 162.304C35.4192 162.504 34.8548 162.67 34.2904 162.836Z" fill="#111111"/>
<path d="M150.853 179.965C150.82 179.832 150.82 179.466 150.786 179.3C150.753 179.233 150.587 178.435 150.554 178.368C150.421 178.069 149.226 176.539 149.093 176.672C148.961 176.772 147.998 177.437 148.297 177.969C148.662 178.601 149.492 179.898 149.525 180.065C151.052 184.521 147.566 190.109 143.483 192.304C143.25 192.437 141.624 193.9 141.59 193.967C141.491 194.2 140.727 194.931 139.897 195.597C137.739 197.293 136.079 199.355 134.718 201.916C134.652 202.016 134.618 202.149 134.552 202.282C134.32 202.814 132.925 204.244 132.56 204.643C131.996 205.242 131.299 205.674 130.535 206.107C130.236 206.273 130.07 206.373 129.771 206.572C129.672 206.639 129.473 206.672 129.406 206.738C128.941 207.005 127.68 207.836 127.68 207.836C124.194 209.998 120.675 211.295 116.957 211.827C115.429 212.06 113.736 212.16 111.678 212.16C110.449 212.16 109.221 212.126 107.993 212.093C106.798 212.06 105.536 212.027 104.308 212.027C103.909 212.027 103.511 212.027 103.112 212.027C102.282 212.06 101.452 212.093 100.656 212.126C99.6597 212.193 98.5974 212.226 97.5682 212.226C96.041 212.226 94.7795 212.093 93.6175 211.827C92.1567 211.495 90.6296 211.361 89.1688 211.262C88.6044 211.228 88.0732 211.195 87.5088 211.129C87.3428 211.129 87.1436 211.095 86.9445 211.095C86.3801 211.095 85.5501 211.228 85.0521 212.259L84.7865 212.792L85.3841 212.758C86.1145 212.692 86.8117 212.692 87.542 212.692C88.8368 212.692 90.1648 212.758 91.8247 212.958C92.5219 213.024 93.2523 213.191 93.9495 213.324C95.0118 213.523 96.1074 213.756 97.2362 213.756C97.9666 213.756 98.6638 213.656 99.2945 213.457C99.9253 213.257 100.656 213.157 101.652 213.091C101.984 213.058 102.349 213.058 102.747 213.058C103.909 213.058 105.104 213.157 106.233 213.257C107.329 213.357 108.458 213.457 109.553 213.457C109.951 213.457 110.383 213.457 110.781 213.457C115.894 213.457 121.272 213.058 125.953 210.297C127.215 209.566 128.178 209.432 129.539 209.2C129.639 209.166 131.166 207.67 131.099 207.636C131.133 207.603 131.166 207.537 131.265 207.47C131.763 207.071 132.295 206.672 132.793 206.306C133.158 206.04 134.054 205.475 134.22 205.375C134.386 205.275 135.382 204.111 135.448 203.978C135.515 203.845 135.681 203.612 135.78 203.346C137.274 200.153 139.632 197.759 142.254 195.43C142.553 195.164 143.582 194.532 143.781 194.366C143.981 194.233 145.109 193.002 145.109 193.002C145.441 192.736 145.707 192.504 145.973 192.271C150.62 188.413 152.081 184.621 150.853 179.965Z" fill="#76C7E0"/>
<path d="M142.155 177.504C140.694 177.903 139.366 178.635 138.104 179.366C137.473 179.699 136.81 180.065 136.179 180.364C134.187 181.329 131.996 181.894 129.306 182.16C128.709 182.227 128.145 182.26 127.547 182.326C125.555 182.493 123.53 182.659 121.538 183.091C121.372 183.125 121.239 183.125 121.106 183.125C120.774 183.125 117.72 183.524 117.72 183.557C116.259 183.956 114.865 184.388 113.537 184.821C111.412 185.486 109.42 186.118 107.362 186.517C107.329 186.517 107.295 186.517 107.229 186.517C107.262 186.55 107.295 186.55 107.329 186.583C107.295 186.55 107.262 186.55 107.229 186.517C107.163 186.517 107.096 186.55 107.03 186.55C106.631 186.55 104.075 186.617 104.108 186.65C102.88 186.816 101.652 186.949 100.49 186.949C100.191 186.949 99.9252 186.949 99.6596 186.916H99.6928H99.6596C98.9292 186.883 94.5802 186.983 94.6133 187.016C92.4222 187.481 90.5963 188.147 88.9363 189.078C85.0852 191.273 80.8357 193.402 76.0218 194.1C73.3327 194.499 70.8759 194.832 68.4192 194.832C65.5973 194.832 63.1405 194.366 60.883 193.468C58.0278 192.304 56.1687 190.209 55.4051 187.282C55.1727 186.384 54.9071 185.486 54.6747 184.555C54.3427 183.357 54.0107 182.127 53.6788 180.896C52.6828 177.038 50.5912 173.679 46.9061 170.02C43.7522 166.894 42.4906 163.369 43.1878 159.544C43.6526 156.983 43.0882 154.555 41.5943 152.626C40.1003 150.697 37.8095 149.533 35.22 149.367C34.722 149.333 34.4232 149.2 34.2572 149.001C34.058 148.768 34.0248 148.402 34.0912 147.704C34.8548 141.052 34.8548 134.433 34.722 128.28C34.722 127.748 34.7552 127.416 34.9212 127.183C33.8588 127.515 32.9957 127.183 31.8669 127.781C31.5349 127.881 31.2029 127.981 30.8709 128.081C30.1073 128.314 29.2774 128.546 28.547 129.045L27.9162 129.478L28.6466 129.644C28.9786 129.71 29.3106 129.744 29.6425 129.744C30.4061 129.744 31.0701 129.544 31.7341 129.378C31.9665 129.311 32.1989 129.245 32.4313 129.178C32.6305 129.145 32.7633 129.112 32.8629 129.112C32.9957 129.112 33.0953 129.112 33.0953 129.677C33.1617 135.863 33.1617 141.418 32.4645 147.005C32.3981 147.471 32.3981 147.97 32.3981 148.535C32.3981 148.768 32.4313 149.234 32.2985 149.367C32.2985 149.367 32.2321 149.433 32.0993 149.433C31.9997 149.433 31.8337 149.4 31.6677 149.367C31.5349 149.333 31.4021 149.3 31.2693 149.3C30.8045 149.3 30.4725 149.599 30.3729 150.098C30.3065 150.398 30.1405 150.464 29.6094 150.531H29.5098C29.0782 150.564 28.6134 150.63 28.1818 150.664C25.7582 150.93 23.2683 151.196 20.8116 151.196C19.9152 151.196 19.052 151.163 18.222 151.096C17.3921 151.03 16.5289 150.996 15.6989 150.996C14.2381 150.963 12.711 150.963 11.2502 150.564C9.65664 150.165 8.92626 149.666 9.09226 148.069C9.22505 146.872 9.19185 145.708 9.15865 144.444C9.15865 144.045 9.12545 143.646 9.12545 143.214C9.92224 143.513 10.9514 143.679 12.047 143.679C14.1053 143.679 16.0641 143.147 16.9605 142.316L17.2925 142.016L16.8941 141.783C16.5621 141.584 16.2301 141.584 15.8981 141.551C16.4293 141.451 16.5289 141.085 16.5621 140.852C16.5953 140.553 16.4625 140.387 16.3629 140.254C16.1305 140.021 15.8317 139.954 15.5661 139.954C14.4041 139.888 13.209 139.721 11.881 139.389C11.7482 139.356 11.6154 139.356 11.5158 139.356C11.1506 139.356 10.9846 139.555 10.9182 139.688C10.7854 139.954 10.8186 140.287 11.0842 140.686C11.4826 141.285 12.0138 141.783 12.711 142.183C12.4454 142.216 12.1798 142.249 11.9142 142.249C11.2834 142.249 10.719 142.116 10.1546 141.817C9.39105 141.418 9.05906 140.852 9.09226 139.987V139.821C9.12546 138.458 9.19185 137.027 8.85986 135.597C8.69387 134.932 8.79346 134.766 8.82666 134.766C8.85986 134.733 8.92626 134.733 8.99266 134.733C9.15865 134.733 9.45745 134.799 9.78944 134.932C11.7482 135.73 13.8065 136.129 15.9313 136.129C17.4253 136.129 18.9856 135.93 20.5792 135.531L21.5751 135.298L20.6124 134.899C20.0812 134.699 19.5168 134.6 18.8196 134.6C18.388 134.6 17.9564 134.633 17.558 134.666C17.3921 134.666 17.1929 134.699 17.0269 134.699C16.7281 134.733 16.4625 134.733 16.1637 134.733C13.9725 134.733 11.7482 134.167 8.92626 132.937C8.66067 132.837 8.22908 132.072 7.96348 130.875C7.66469 129.611 7.76429 128.181 7.93028 127.815C7.3659 127.482 6.63552 127.05 6.07113 127.283C6.07113 127.316 6.13753 127.748 6.13753 127.815C5.87193 129.411 6.27033 130.875 6.63552 132.305C6.83471 133.103 7.06711 133.934 7.1667 134.733C7.53189 138.092 7.53189 141.517 7.53189 144.843C7.53189 148.169 7.53189 151.595 7.89709 154.987C7.93028 155.353 7.83069 157.083 7.83069 157.881C9.85584 160.941 13.1758 161.44 15.8649 161.506C16.8941 161.539 17.89 161.539 18.886 161.539C22.5047 161.539 25.9906 161.34 29.2442 160.907C31.1697 160.675 32.9293 159.91 34.5228 158.712C34.722 158.546 34.9544 158.347 35.1868 158.147C35.4856 157.881 35.3528 157.482 35.2532 157.182C35.22 157.116 35.22 157.049 35.1868 156.983C35.22 156.983 35.054 155.22 34.8548 154.422C34.7884 154.289 34.7552 154.156 34.7552 153.99C34.7552 153.99 34.7552 153.99 34.7552 153.956C34.7552 153.956 34.7552 153.956 34.7552 153.99C34.722 153.89 34.722 153.79 34.722 153.657C34.6556 152.925 34.4564 152.194 34.2572 151.495C34.1576 151.196 34.1908 151.096 34.224 151.063C34.2572 150.996 34.4564 150.93 34.7884 150.896C34.9876 150.863 35.1868 150.863 35.386 150.863C38.4735 150.863 41.7271 154.389 41.7603 156.916C41.7934 158.047 41.7935 159.211 41.6939 160.375C41.1959 165.264 43.7854 168.757 46.1093 171.218C46.5077 171.65 46.9393 172.083 47.3377 172.482C48.3669 173.513 49.4293 174.61 50.2592 175.808C51.3216 177.404 51.8528 179.233 52.384 181.029C52.6828 182.027 52.9816 183.091 53.38 184.089C53.4464 184.222 53.5128 184.388 53.5792 184.521C53.8116 185.02 54.0108 185.552 54.044 186.151C54.1435 188.28 55.0399 190.209 56.8327 192.238C58.9574 194.599 61.879 195.763 66.0289 195.996C66.892 196.029 67.7552 196.062 68.6184 196.062C74.9262 196.062 80.7029 194.765 85.8156 192.204C86.5459 191.838 87.2431 191.439 87.9403 191.073C90.2311 189.843 92.555 188.546 95.2773 188.28C95.3769 188.28 95.4433 188.246 95.5429 188.246C95.7753 188.213 95.9745 188.213 96.1737 188.213C96.5721 188.213 98.9956 188.113 98.9956 188.113C99.6264 188.113 100.257 188.113 100.888 188.113C101.585 188.113 102.282 188.113 102.98 188.113C104.075 188.113 105.005 188.113 105.835 188.147C106.333 188.147 108.059 188.014 108.358 187.881L110.217 187.348C113.039 186.55 115.96 185.719 118.816 184.921C119.247 184.787 119.712 184.754 120.144 184.754C120.774 184.754 123.497 184.255 123.596 184.189C125.323 183.823 126.983 183.723 128.41 183.657C132.593 183.49 136.677 182.193 141.192 179.599C142.42 178.901 143.881 178.102 145.508 177.903C145.607 177.903 145.707 177.87 145.806 177.836C145.873 177.836 146.371 177.836 146.437 177.836C146.636 176.938 147.334 176.207 147.732 175.408C146.238 176.007 143.715 177.071 142.155 177.504ZM23.3347 159.211C22.9031 159.245 22.4715 159.244 22.0399 159.278C20.4464 159.344 18.8196 159.411 17.1597 159.91C16.6949 160.043 16.1969 160.142 15.6989 160.142C14.2381 160.142 12.8438 159.511 11.4494 158.912C10.9514 158.679 10.4534 158.48 9.92224 158.28C9.78944 158.213 9.72304 158.147 9.68984 157.947C9.59024 156.018 9.49065 154.089 9.35785 152.16C9.35785 151.894 9.39105 151.828 9.39105 151.828C9.39105 151.828 9.42425 151.794 9.49065 151.794C9.55704 151.794 9.62344 151.794 9.72304 151.828C13.0098 152.393 16.4957 152.692 20.0812 152.692C22.9031 152.692 25.7914 152.526 28.879 152.16C27.1194 152.493 25.2935 152.593 23.4011 152.659C21.5419 152.726 19.6496 152.826 17.7904 153.191L17.8236 153.857C18.0892 153.89 18.3216 153.923 18.5872 153.956C19.052 154.023 19.55 154.123 20.048 154.123C20.1476 154.123 20.2472 154.123 20.3468 154.123C21.5751 154.023 22.8367 153.99 24.0319 153.956C26.4554 153.89 28.9786 153.79 31.4021 153.324C31.5349 153.291 31.6677 153.258 31.8005 153.225C31.9997 153.158 32.1989 153.092 32.3649 153.092C32.4645 153.092 32.6637 153.092 32.7301 153.557C32.7633 153.757 32.8297 153.956 32.8629 154.156C33.0953 154.954 33.1617 155.42 32.4977 155.919C29.7089 157.914 26.5882 159.012 23.3347 159.211ZM33.0621 157.582C31.7673 158.546 30.4725 159.145 29.1446 159.378C30.5057 158.845 31.9001 158.28 33.1285 157.382C33.1949 157.315 33.2613 157.315 33.2945 157.282C33.2945 157.282 33.2945 157.282 33.2945 157.315C33.2945 157.382 33.3277 157.382 33.0621 157.582Z" fill="#76C7E0"/>
<path d="M20.1477 133.269L20.0481 133.901C20.4465 134.034 21.1105 134.101 21.9736 134.101C25.0612 134.101 30.373 133.269 31.9002 132.305L32.9294 131.673L31.7342 131.706C29.6759 131.739 27.7835 132.138 25.9243 132.504C24.0652 132.903 22.3388 133.236 20.5461 133.236C20.3801 133.269 20.2805 133.269 20.1477 133.269Z" fill="#76C7E0"/>
<path d="M22.2392 132.737L23.0692 132.438L22.2724 132.138C21.4092 131.806 20.5128 131.806 19.6496 131.772C18.9857 131.772 18.3217 131.739 17.7241 131.606L17.4253 132.171C18.1889 132.87 19.0853 133.203 20.0812 133.203C20.6788 133.203 21.4092 133.036 22.2392 132.737Z" fill="#76C7E0"/>
<path d="M16.4293 122.46C16.5289 122.46 16.6285 122.46 16.7281 122.46C16.9273 122.46 17.1597 122.427 17.3257 122.427L18.5872 122.26C20.214 122.061 21.874 121.861 23.5339 121.662C23.6335 121.662 23.7663 121.628 23.8991 121.628C24.3307 121.628 24.8287 121.595 25.1275 121.229C25.3267 120.996 25.3599 120.664 25.2935 120.265C25.0943 119.334 24.3639 118.735 23.3679 118.735C23.2683 118.735 23.2019 118.735 23.1023 118.735C22.1727 118.835 21.21 118.868 20.3136 118.934C19.9484 118.968 19.55 118.968 19.218 119.001C18.9192 119.001 18.6204 118.968 18.3216 118.968C18.0228 118.934 17.6909 118.934 17.3921 118.934C16.9273 118.934 16.5289 118.968 16.1637 119.067C15.9645 119.134 15.6989 119.134 15.4001 119.134C14.8357 119.134 14.2049 119.167 13.8066 119.566C13.6074 119.799 13.5078 120.098 13.541 120.498C13.6074 121.595 14.6033 122.227 16.4293 122.46Z" fill="#111111"/>
<path d="M14.4039 154.821C15.3667 155.553 16.2631 155.919 17.1927 155.919C17.8235 155.919 18.4542 155.752 19.085 155.386L19.9814 154.888L13.4744 154.089L14.4039 154.821Z" fill="#76C7E0"/>
<path d="M8.06309 127.948C8.16269 127.948 8.26229 127.981 8.39508 127.981C8.49468 128.014 8.62748 128.014 8.72707 128.014C12.3126 128.247 16.3961 128.513 20.4464 128.513C22.6375 128.513 24.6627 128.446 26.5882 128.28C28.0822 128.147 29.5762 127.948 31.1365 127.748C31.3025 127.715 31.4685 127.715 31.6345 127.682C31.6013 127.682 31.6013 127.682 31.6345 127.682C31.7341 127.682 31.8005 127.648 31.9001 127.648C31.8337 127.682 33.7261 127.449 34.8216 127.116C34.9876 126.883 35.2864 126.75 35.7512 126.684C36.9796 126.517 37.9091 126.085 38.3407 124.555C38.6727 123.391 38.4735 122.061 37.7432 120.83C36.8136 119.234 35.1868 118.036 33.3941 117.637C31.7009 117.238 29.4766 116.773 27.2522 116.373C24.7291 115.941 22.1395 115.708 19.5832 115.708C18.4544 115.708 17.2925 115.742 16.1637 115.841C13.7069 116.008 11.3166 116.573 8.99267 117.105C7.4987 117.438 5.97154 117.804 4.44438 118.036C2.02084 118.435 0.659675 119.633 0.294484 121.695C0.128488 122.526 0.626476 122.959 0.991667 123.258C1.25726 123.491 1.42326 123.657 1.45646 123.923C1.62245 125.852 2.81762 126.95 5.10836 127.282L5.27436 127.316C5.50675 127.349 7.93029 127.948 8.06309 127.948ZM36.5812 124.322C36.6144 124.389 36.6476 124.455 36.6144 124.522C36.5812 124.588 36.548 124.655 36.4816 124.688C35.9836 124.921 35.4524 125.187 34.8548 125.32C30.8045 126.285 27.6506 126.75 24.6627 126.817C27.6174 126.617 30.7381 126.118 34.058 125.32C34.5892 125.187 35.054 124.988 35.5188 124.755C35.7512 124.655 35.9836 124.522 36.216 124.455C36.2492 124.422 36.3156 124.422 36.3488 124.389C36.4484 124.356 36.5148 124.322 36.5812 124.322ZM2.12044 121.263C2.12044 120.73 2.45243 120.597 3.08321 120.331L3.21601 120.298C7.00072 118.835 11.2502 117.87 16.1305 117.371C17.3921 117.238 18.6536 117.172 19.9152 117.172C24.5631 117.172 29.2774 118.003 34.3236 119.733C34.5228 119.799 34.6888 119.866 34.8548 119.965C35.6848 120.564 36.5148 121.196 36.5812 122.127C36.6144 122.892 35.9172 123.158 34.9876 123.458L34.8216 123.491C30.9041 124.721 26.7542 125.353 22.1727 125.42C20.546 125.22 18.8528 125.187 17.0933 125.121C14.3377 125.021 11.4826 124.921 8.69388 124.322C7.03392 123.957 5.07517 123.458 3.28241 122.56C2.45243 122.161 2.12044 121.861 2.12044 121.263ZM4.21199 125.287C3.94639 125.254 3.6476 125.087 3.5148 124.855C3.44841 124.721 3.41521 124.588 3.4816 124.489C3.4816 124.455 3.5148 124.455 3.5148 124.455C3.6144 124.455 3.8136 124.555 3.94639 124.655C4.07919 124.721 4.21199 124.821 4.34478 124.855C7.26631 125.919 10.3206 126.152 13.2754 126.351C14.3709 126.418 15.4997 126.517 16.6285 126.651C16.6949 126.651 16.7281 126.65 16.7945 126.684C16.1305 126.684 15.4997 126.684 14.8357 126.684C13.4414 126.684 12.0138 126.684 10.6194 126.684C9.42426 126.684 8.32868 126.351 7.16671 125.985C6.20394 125.686 5.24116 125.387 4.21199 125.287Z" fill="#111111"/>
</svg>
