<svg width="1296" height="711" viewBox="0 0 1296 711" fill="none" xmlns="http://www.w3.org/2000/svg">
<g opacity="0.06">
<path fill-rule="evenodd" clip-rule="evenodd" d="M47.6576 3.1929C53.8845 7.05536 59.2718 11.2624 62.0319 16.6609C65.1317 22.7236 64.3285 28.9437 61.3032 35.0814L61.2906 35.107L61.2777 35.1325C55.5685 46.4614 45.6156 51.8601 34.7313 55.203C25.0149 58.2328 14.3318 56.8955 6.15261 48.9713L6.14777 48.9667C1.16506 44.1293 -0.210894 38.3851 0.0251983 33.1332C0.240187 28.3507 1.81241 23.7235 2.91854 20.4681C2.94539 20.3891 2.97195 20.3109 2.99822 20.2336C4.83138 14.7896 9.43909 10.2937 13.5382 7.25339C17.7108 4.15846 22.7125 1.57645 26.8072 0.694785C31.0183 -0.239405 35.2966 -0.115087 38.7497 0.386543C41.9754 0.855144 45.4158 1.79165 47.6576 3.1929ZM36.8567 13.214C34.4918 12.8705 31.885 12.8502 29.6443 13.3498L29.6154 13.3562L29.5863 13.3624C27.9518 13.7114 24.656 15.1936 21.3619 17.6369C17.9867 20.1403 15.9556 22.6628 15.3907 24.3442L15.3874 24.3539L15.3841 24.3636C14.1699 27.9401 13.2033 30.9431 13.0789 33.7108C12.9702 36.1283 13.5174 37.982 15.284 39.6982C19.4408 43.7237 24.8651 44.6931 30.8233 42.8321L30.8389 42.8273L30.8544 42.8225C40.1332 39.9746 46.1407 36.16 49.5776 29.3603C51.4019 25.6481 51.0705 23.8787 50.3789 22.526C49.348 20.5097 46.6829 17.8766 40.7196 14.1787L40.7031 14.1685L40.6866 14.1581C40.695 14.1634 40.6792 14.1572 40.6393 14.1416C40.3798 14.0401 39.1015 13.5401 36.8567 13.214Z" fill="#EFF0EB"/>
<path fill-rule="evenodd" clip-rule="evenodd" d="M223.658 3.1929C229.884 7.05536 235.272 11.2624 238.032 16.6609C241.132 22.7236 240.329 28.9437 237.303 35.0814L237.291 35.107L237.278 35.1325C231.568 46.4614 221.616 51.8601 210.731 55.203C201.015 58.2328 190.332 56.8955 182.153 48.9713L182.148 48.9667C177.165 44.1293 175.789 38.3851 176.025 33.1332C176.24 28.3507 177.812 23.7235 178.919 20.4681C178.945 20.3891 178.972 20.3109 178.998 20.2336C180.831 14.7896 185.439 10.2937 189.538 7.25339C193.711 4.15846 198.712 1.57645 202.807 0.694785C207.018 -0.239405 211.297 -0.115087 214.75 0.386543C217.975 0.855144 221.416 1.79165 223.658 3.1929ZM212.857 13.214C210.492 12.8705 207.885 12.8502 205.644 13.3498L205.615 13.3562L205.586 13.3624C203.952 13.7114 200.656 15.1936 197.362 17.6369C193.987 20.1403 191.956 22.6628 191.391 24.3442L191.387 24.3539L191.384 24.3636C190.17 27.9401 189.203 30.9431 189.079 33.7108C188.97 36.1283 189.517 37.982 191.284 39.6982C195.441 43.7237 200.865 44.6931 206.823 42.8321L206.839 42.8273L206.854 42.8225C216.133 39.9746 222.141 36.16 225.578 29.3603C227.402 25.6481 227.071 23.8787 226.379 22.526C225.348 20.5097 222.683 17.8766 216.72 14.1787L216.703 14.1685L216.687 14.1581C216.695 14.1634 216.679 14.1572 216.639 14.1416C216.38 14.0401 215.102 13.5401 212.857 13.214Z" fill="#EFF0EB"/>
<path fill-rule="evenodd" clip-rule="evenodd" d="M399.658 3.1929C405.884 7.05536 411.272 11.2624 414.032 16.6609C417.132 22.7236 416.329 28.9437 413.303 35.0814L413.291 35.107L413.278 35.1325C407.568 46.4614 397.616 51.8601 386.731 55.203C377.015 58.2328 366.332 56.8955 358.153 48.9713L358.148 48.9667C353.165 44.1293 351.789 38.3851 352.025 33.1332C352.24 28.3507 353.812 23.7235 354.919 20.4681C354.945 20.3891 354.972 20.3109 354.998 20.2336C356.831 14.7896 361.439 10.2937 365.538 7.25339C369.711 4.15846 374.712 1.57645 378.807 0.694785C383.018 -0.239405 387.297 -0.115087 390.75 0.386543C393.975 0.855144 397.416 1.79165 399.658 3.1929ZM388.857 13.214C386.492 12.8705 383.885 12.8502 381.644 13.3498L381.615 13.3562L381.586 13.3624C379.952 13.7114 376.656 15.1936 373.362 17.6369C369.987 20.1403 367.956 22.6628 367.391 24.3442L367.387 24.3539L367.384 24.3636C366.17 27.9401 365.203 30.9431 365.079 33.7108C364.97 36.1283 365.517 37.982 367.284 39.6982C371.441 43.7237 376.865 44.6931 382.823 42.8321L382.839 42.8273L382.854 42.8225C392.133 39.9746 398.141 36.16 401.578 29.3603C403.402 25.6481 403.071 23.8787 402.379 22.526C401.348 20.5097 398.683 17.8766 392.72 14.1787L392.703 14.1685L392.687 14.1581C392.695 14.1634 392.679 14.1572 392.639 14.1416C392.38 14.0401 391.102 13.5401 388.857 13.214Z" fill="#EFF0EB"/>
<path fill-rule="evenodd" clip-rule="evenodd" d="M575.658 3.1929C581.884 7.05536 587.272 11.2624 590.032 16.6609C593.132 22.7236 592.329 28.9437 589.303 35.0814L589.291 35.107L589.278 35.1325C583.568 46.4614 573.616 51.8601 562.731 55.203C553.015 58.2328 542.332 56.8955 534.153 48.9713L534.148 48.9667C529.165 44.1293 527.789 38.3851 528.025 33.1332C528.24 28.3507 529.812 23.7235 530.919 20.4681C530.945 20.3891 530.972 20.3109 530.998 20.2336C532.831 14.7896 537.439 10.2937 541.538 7.25339C545.711 4.15846 550.712 1.57645 554.807 0.694785C559.018 -0.239405 563.297 -0.115087 566.75 0.386543C569.975 0.855144 573.416 1.79165 575.658 3.1929ZM564.857 13.214C562.492 12.8705 559.885 12.8502 557.644 13.3498L557.615 13.3562L557.586 13.3624C555.952 13.7114 552.656 15.1936 549.362 17.6369C545.987 20.1403 543.956 22.6628 543.391 24.3442L543.387 24.3539L543.384 24.3636C542.17 27.9401 541.203 30.9431 541.079 33.7108C540.97 36.1283 541.517 37.982 543.284 39.6982C547.441 43.7237 552.865 44.6931 558.823 42.8321L558.839 42.8273L558.854 42.8225C568.133 39.9746 574.141 36.16 577.578 29.3603C579.402 25.6481 579.071 23.8787 578.379 22.526C577.348 20.5097 574.683 17.8766 568.72 14.1787L568.703 14.1685L568.687 14.1581C568.695 14.1634 568.679 14.1572 568.639 14.1416C568.38 14.0401 567.102 13.5401 564.857 13.214Z" fill="#EFF0EB"/>
<path fill-rule="evenodd" clip-rule="evenodd" d="M751.658 3.1929C757.884 7.05536 763.272 11.2624 766.032 16.6609C769.132 22.7236 768.329 28.9437 765.303 35.0814L765.291 35.107L765.278 35.1325C759.568 46.4614 749.616 51.8601 738.731 55.203C729.015 58.2328 718.332 56.8955 710.153 48.9713L710.148 48.9667C705.165 44.1293 703.789 38.3851 704.025 33.1332C704.24 28.3507 705.812 23.7235 706.919 20.4681C706.945 20.3891 706.972 20.3109 706.998 20.2336C708.831 14.7896 713.439 10.2937 717.538 7.25339C721.711 4.15846 726.712 1.57645 730.807 0.694785C735.018 -0.239405 739.297 -0.115087 742.75 0.386543C745.975 0.855144 749.416 1.79165 751.658 3.1929ZM740.857 13.214C738.492 12.8705 735.885 12.8502 733.644 13.3498L733.615 13.3562L733.586 13.3624C731.952 13.7114 728.656 15.1936 725.362 17.6369C721.987 20.1403 719.956 22.6628 719.391 24.3442L719.387 24.3539L719.384 24.3636C718.17 27.9401 717.203 30.9431 717.079 33.7108C716.97 36.1283 717.517 37.982 719.284 39.6982C723.441 43.7237 728.865 44.6931 734.823 42.8321L734.839 42.8273L734.854 42.8225C744.133 39.9746 750.141 36.16 753.578 29.3603C755.402 25.6481 755.071 23.8787 754.379 22.526C753.348 20.5097 750.683 17.8766 744.72 14.1787L744.703 14.1685L744.687 14.1581C744.695 14.1634 744.679 14.1572 744.639 14.1416C744.38 14.0401 743.102 13.5401 740.857 13.214Z" fill="#EFF0EB"/>
<path fill-rule="evenodd" clip-rule="evenodd" d="M927.658 3.1929C933.884 7.05536 939.272 11.2624 942.032 16.6609C945.132 22.7236 944.329 28.9437 941.303 35.0814L941.291 35.107L941.278 35.1325C935.568 46.4614 925.616 51.8601 914.731 55.203C905.015 58.2328 894.332 56.8955 886.153 48.9713L886.148 48.9667C881.165 44.1293 879.789 38.3851 880.025 33.1332C880.24 28.3507 881.812 23.7235 882.919 20.4681C882.945 20.3891 882.972 20.3109 882.998 20.2336C884.831 14.7896 889.439 10.2937 893.538 7.25339C897.711 4.15846 902.712 1.57645 906.807 0.694785C911.018 -0.239405 915.297 -0.115087 918.75 0.386543C921.975 0.855144 925.416 1.79165 927.658 3.1929ZM916.857 13.214C914.492 12.8705 911.885 12.8502 909.644 13.3498L909.615 13.3562L909.586 13.3624C907.952 13.7114 904.656 15.1936 901.362 17.6369C897.987 20.1403 895.956 22.6628 895.391 24.3442L895.387 24.3539L895.384 24.3636C894.17 27.9401 893.203 30.9431 893.079 33.7108C892.97 36.1283 893.517 37.982 895.284 39.6982C899.441 43.7237 904.865 44.6931 910.823 42.8321L910.839 42.8273L910.854 42.8225C920.133 39.9746 926.141 36.16 929.578 29.3603C931.402 25.6481 931.071 23.8787 930.379 22.526C929.348 20.5097 926.683 17.8766 920.72 14.1787L920.703 14.1685L920.687 14.1581C920.695 14.1634 920.679 14.1572 920.639 14.1416C920.38 14.0401 919.102 13.5401 916.857 13.214Z" fill="#EFF0EB"/>
<path fill-rule="evenodd" clip-rule="evenodd" d="M1103.66 3.1929C1109.88 7.05536 1115.27 11.2624 1118.03 16.6609C1121.13 22.7236 1120.33 28.9437 1117.3 35.0814L1117.29 35.107L1117.28 35.1325C1111.57 46.4614 1101.62 51.8601 1090.73 55.203C1081.01 58.2328 1070.33 56.8955 1062.15 48.9713L1062.15 48.9667C1057.17 44.1293 1055.79 38.3851 1056.03 33.1332C1056.24 28.3507 1057.81 23.7235 1058.92 20.4681C1058.95 20.3891 1058.97 20.3109 1059 20.2336C1060.83 14.7896 1065.44 10.2937 1069.54 7.25339C1073.71 4.15846 1078.71 1.57645 1082.81 0.694785C1087.02 -0.239405 1091.3 -0.115087 1094.75 0.386543C1097.98 0.855144 1101.42 1.79165 1103.66 3.1929ZM1092.86 13.214C1090.49 12.8705 1087.88 12.8502 1085.64 13.3498L1085.62 13.3562L1085.59 13.3624C1083.95 13.7114 1080.66 15.1936 1077.36 17.6369C1073.99 20.1403 1071.96 22.6628 1071.39 24.3442L1071.39 24.3539L1071.38 24.3636C1070.17 27.9401 1069.2 30.9431 1069.08 33.7108C1068.97 36.1283 1069.52 37.982 1071.28 39.6982C1075.44 43.7237 1080.87 44.6931 1086.82 42.8321L1086.84 42.8273L1086.85 42.8225C1096.13 39.9746 1102.14 36.16 1105.58 29.3603C1107.4 25.6481 1107.07 23.8787 1106.38 22.526C1105.35 20.5097 1102.68 17.8766 1096.72 14.1787L1096.7 14.1685L1096.69 14.1581C1096.7 14.1634 1096.68 14.1572 1096.64 14.1416C1096.38 14.0401 1095.1 13.5401 1092.86 13.214Z" fill="#EFF0EB"/>
<path fill-rule="evenodd" clip-rule="evenodd" d="M1279.66 3.1929C1285.88 7.05536 1291.27 11.2624 1294.03 16.6609C1297.13 22.7236 1296.33 28.9437 1293.3 35.0814L1293.29 35.107L1293.28 35.1325C1287.57 46.4614 1277.62 51.8601 1266.73 55.203C1257.01 58.2328 1246.33 56.8955 1238.15 48.9713L1238.15 48.9667C1233.17 44.1293 1231.79 38.3851 1232.03 33.1332C1232.24 28.3507 1233.81 23.7235 1234.92 20.4681C1234.95 20.3891 1234.97 20.3109 1235 20.2336C1236.83 14.7896 1241.44 10.2937 1245.54 7.25339C1249.71 4.15846 1254.71 1.57645 1258.81 0.694785C1263.02 -0.239405 1267.3 -0.115087 1270.75 0.386543C1273.98 0.855144 1277.42 1.79165 1279.66 3.1929ZM1268.86 13.214C1266.49 12.8705 1263.88 12.8502 1261.64 13.3498L1261.62 13.3562L1261.59 13.3624C1259.95 13.7114 1256.66 15.1936 1253.36 17.6369C1249.99 20.1403 1247.96 22.6628 1247.39 24.3442L1247.39 24.3539L1247.38 24.3636C1246.17 27.9401 1245.2 30.9431 1245.08 33.7108C1244.97 36.1283 1245.52 37.982 1247.28 39.6982C1251.44 43.7237 1256.87 44.6931 1262.82 42.8321L1262.84 42.8273L1262.85 42.8225C1272.13 39.9746 1278.14 36.16 1281.58 29.3603C1283.4 25.6481 1283.07 23.8787 1282.38 22.526C1281.35 20.5097 1278.68 17.8766 1272.72 14.1787L1272.7 14.1685L1272.69 14.1581C1272.7 14.1634 1272.68 14.1572 1272.64 14.1416C1272.38 14.0401 1271.1 13.5401 1268.86 13.214Z" fill="#EFF0EB"/>
<path fill-rule="evenodd" clip-rule="evenodd" d="M135.658 75.8902C141.884 79.7527 147.272 83.9597 150.032 89.3582C153.132 95.4209 152.329 101.641 149.303 107.779L149.291 107.804L149.278 107.83C143.568 119.159 133.616 124.557 122.731 127.9C113.015 130.93 102.332 129.593 94.1526 121.669L94.1478 121.664C89.1651 116.827 87.7891 111.082 88.0252 105.83C88.2402 101.048 89.8124 96.4208 90.9185 93.1654C90.9454 93.0864 90.972 93.0082 90.9982 92.9309C92.8314 87.4869 97.4391 82.991 101.538 79.9507C105.711 76.8558 110.712 74.2737 114.807 73.3921C119.018 72.4579 123.297 72.5822 126.75 73.0838C129.975 73.5524 133.416 74.4889 135.658 75.8902ZM124.857 85.9113C122.492 85.5678 119.885 85.5475 117.644 86.0471L117.615 86.0535L117.586 86.0597C115.952 86.4087 112.656 87.8909 109.362 90.3342C105.987 92.8376 103.956 95.3601 103.391 97.0415L103.387 97.0512L103.384 97.0609C102.17 100.637 101.203 103.64 101.079 106.408C100.97 108.826 101.517 110.679 103.284 112.395C107.441 116.421 112.865 117.39 118.823 115.529L118.839 115.525L118.854 115.52C128.133 112.672 134.141 108.857 137.578 102.058C139.402 98.3454 139.071 96.576 138.379 95.2233C137.348 93.207 134.683 90.5739 128.72 86.876L128.703 86.8658L128.687 86.8554C128.695 86.8607 128.679 86.8545 128.639 86.8389C128.38 86.7374 127.102 86.2374 124.857 85.9113Z" fill="#EFF0EB"/>
<path fill-rule="evenodd" clip-rule="evenodd" d="M311.658 75.8902C317.884 79.7527 323.272 83.9597 326.032 89.3582C329.132 95.4209 328.329 101.641 325.303 107.779L325.291 107.804L325.278 107.83C319.568 119.159 309.616 124.557 298.731 127.9C289.015 130.93 278.332 129.593 270.153 121.669L270.148 121.664C265.165 116.827 263.789 111.082 264.025 105.83C264.24 101.048 265.812 96.4208 266.919 93.1654C266.945 93.0864 266.972 93.0082 266.998 92.9309C268.831 87.4869 273.439 82.991 277.538 79.9507C281.711 76.8558 286.712 74.2737 290.807 73.3921C295.018 72.4579 299.297 72.5822 302.75 73.0838C305.975 73.5524 309.416 74.4889 311.658 75.8902ZM300.857 85.9113C298.492 85.5678 295.885 85.5475 293.644 86.0471L293.615 86.0535L293.586 86.0597C291.952 86.4087 288.656 87.8909 285.362 90.3342C281.987 92.8376 279.956 95.3601 279.391 97.0415L279.387 97.0512L279.384 97.0609C278.17 100.637 277.203 103.64 277.079 106.408C276.97 108.826 277.517 110.679 279.284 112.395C283.441 116.421 288.865 117.39 294.823 115.529L294.839 115.525L294.854 115.52C304.133 112.672 310.141 108.857 313.578 102.058C315.402 98.3454 315.071 96.576 314.379 95.2233C313.348 93.207 310.683 90.5739 304.72 86.876L304.703 86.8658L304.687 86.8554C304.695 86.8607 304.679 86.8545 304.639 86.8389C304.38 86.7374 303.102 86.2374 300.857 85.9113Z" fill="#EFF0EB"/>
<path fill-rule="evenodd" clip-rule="evenodd" d="M487.658 75.8902C493.884 79.7527 499.272 83.9597 502.032 89.3582C505.132 95.4209 504.329 101.641 501.303 107.779L501.291 107.804L501.278 107.83C495.568 119.159 485.616 124.557 474.731 127.9C465.015 130.93 454.332 129.593 446.153 121.669L446.148 121.664C441.165 116.827 439.789 111.082 440.025 105.83C440.24 101.048 441.812 96.4208 442.919 93.1654C442.945 93.0864 442.972 93.0082 442.998 92.9309C444.831 87.4869 449.439 82.991 453.538 79.9507C457.711 76.8558 462.712 74.2737 466.807 73.3921C471.018 72.4579 475.297 72.5822 478.75 73.0838C481.975 73.5524 485.416 74.4889 487.658 75.8902ZM476.857 85.9113C474.492 85.5678 471.885 85.5475 469.644 86.0471L469.615 86.0535L469.586 86.0597C467.952 86.4087 464.656 87.8909 461.362 90.3342C457.987 92.8376 455.956 95.3601 455.391 97.0415L455.387 97.0512L455.384 97.0609C454.17 100.637 453.203 103.64 453.079 106.408C452.97 108.826 453.517 110.679 455.284 112.395C459.441 116.421 464.865 117.39 470.823 115.529L470.839 115.525L470.854 115.52C480.133 112.672 486.141 108.857 489.578 102.058C491.402 98.3454 491.071 96.576 490.379 95.2233C489.348 93.207 486.683 90.5739 480.72 86.876L480.703 86.8658L480.687 86.8554C480.695 86.8607 480.679 86.8545 480.639 86.8389C480.38 86.7374 479.102 86.2374 476.857 85.9113Z" fill="#EFF0EB"/>
<path fill-rule="evenodd" clip-rule="evenodd" d="M663.658 75.8902C669.884 79.7527 675.272 83.9597 678.032 89.3582C681.132 95.4209 680.329 101.641 677.303 107.779L677.291 107.804L677.278 107.83C671.568 119.159 661.616 124.557 650.731 127.9C641.015 130.93 630.332 129.593 622.153 121.669L622.148 121.664C617.165 116.827 615.789 111.082 616.025 105.83C616.24 101.048 617.812 96.4208 618.919 93.1654C618.945 93.0864 618.972 93.0082 618.998 92.9309C620.831 87.4869 625.439 82.991 629.538 79.9507C633.711 76.8558 638.712 74.2737 642.807 73.3921C647.018 72.4579 651.297 72.5822 654.75 73.0838C657.975 73.5524 661.416 74.4889 663.658 75.8902ZM652.857 85.9113C650.492 85.5678 647.885 85.5475 645.644 86.0471L645.615 86.0535L645.586 86.0597C643.952 86.4087 640.656 87.8909 637.362 90.3342C633.987 92.8376 631.956 95.3601 631.391 97.0415L631.387 97.0512L631.384 97.0609C630.17 100.637 629.203 103.64 629.079 106.408C628.97 108.826 629.517 110.679 631.284 112.395C635.441 116.421 640.865 117.39 646.823 115.529L646.839 115.525L646.854 115.52C656.133 112.672 662.141 108.857 665.578 102.058C667.402 98.3454 667.071 96.576 666.379 95.2233C665.348 93.207 662.683 90.5739 656.72 86.876L656.703 86.8658L656.687 86.8554C656.695 86.8607 656.679 86.8545 656.639 86.8389C656.38 86.7374 655.102 86.2374 652.857 85.9113Z" fill="#EFF0EB"/>
<path fill-rule="evenodd" clip-rule="evenodd" d="M839.658 75.8902C845.884 79.7527 851.272 83.9597 854.032 89.3582C857.132 95.4209 856.329 101.641 853.303 107.779L853.291 107.804L853.278 107.83C847.568 119.159 837.616 124.557 826.731 127.9C817.015 130.93 806.332 129.593 798.153 121.669L798.148 121.664C793.165 116.827 791.789 111.082 792.025 105.83C792.24 101.048 793.812 96.4208 794.919 93.1654C794.945 93.0864 794.972 93.0082 794.998 92.9309C796.831 87.4869 801.439 82.991 805.538 79.9507C809.711 76.8558 814.712 74.2737 818.807 73.3921C823.018 72.4579 827.297 72.5822 830.75 73.0838C833.975 73.5524 837.416 74.4889 839.658 75.8902ZM828.857 85.9113C826.492 85.5678 823.885 85.5475 821.644 86.0471L821.615 86.0535L821.586 86.0597C819.952 86.4087 816.656 87.8909 813.362 90.3342C809.987 92.8376 807.956 95.3601 807.391 97.0415L807.387 97.0512L807.384 97.0609C806.17 100.637 805.203 103.64 805.079 106.408C804.97 108.826 805.517 110.679 807.284 112.395C811.441 116.421 816.865 117.39 822.823 115.529L822.839 115.525L822.854 115.52C832.133 112.672 838.141 108.857 841.578 102.058C843.402 98.3454 843.071 96.576 842.379 95.2233C841.348 93.207 838.683 90.5739 832.72 86.876L832.703 86.8658L832.687 86.8554C832.695 86.8607 832.679 86.8545 832.639 86.8389C832.38 86.7374 831.102 86.2374 828.857 85.9113Z" fill="#EFF0EB"/>
<path fill-rule="evenodd" clip-rule="evenodd" d="M1015.66 75.8902C1021.88 79.7527 1027.27 83.9597 1030.03 89.3582C1033.13 95.4209 1032.33 101.641 1029.3 107.779L1029.29 107.804L1029.28 107.83C1023.57 119.159 1013.62 124.557 1002.73 127.9C993.015 130.93 982.332 129.593 974.153 121.669L974.148 121.664C969.165 116.827 967.789 111.082 968.025 105.83C968.24 101.048 969.812 96.4208 970.919 93.1654C970.945 93.0864 970.972 93.0082 970.998 92.9309C972.831 87.4869 977.439 82.991 981.538 79.9507C985.711 76.8558 990.712 74.2737 994.807 73.3921C999.018 72.4579 1003.3 72.5822 1006.75 73.0838C1009.98 73.5524 1013.42 74.4889 1015.66 75.8902ZM1004.86 85.9113C1002.49 85.5678 999.885 85.5475 997.644 86.0471L997.615 86.0535L997.586 86.0597C995.952 86.4087 992.656 87.8909 989.362 90.3342C985.987 92.8376 983.956 95.3601 983.391 97.0415L983.387 97.0512L983.384 97.0609C982.17 100.637 981.203 103.64 981.079 106.408C980.97 108.826 981.517 110.679 983.284 112.395C987.441 116.421 992.865 117.39 998.823 115.529L998.839 115.525L998.854 115.52C1008.13 112.672 1014.14 108.857 1017.58 102.058C1019.4 98.3454 1019.07 96.576 1018.38 95.2233C1017.35 93.207 1014.68 90.5739 1008.72 86.876L1008.7 86.8658L1008.69 86.8554C1008.7 86.8607 1008.68 86.8545 1008.64 86.8389C1008.38 86.7374 1007.1 86.2374 1004.86 85.9113Z" fill="#EFF0EB"/>
<path fill-rule="evenodd" clip-rule="evenodd" d="M1191.66 75.8902C1197.88 79.7527 1203.27 83.9597 1206.03 89.3582C1209.13 95.4209 1208.33 101.641 1205.3 107.779L1205.29 107.804L1205.28 107.83C1199.57 119.159 1189.62 124.557 1178.73 127.9C1169.01 130.93 1158.33 129.593 1150.15 121.669L1150.15 121.664C1145.17 116.827 1143.79 111.082 1144.03 105.83C1144.24 101.048 1145.81 96.4208 1146.92 93.1654C1146.95 93.0864 1146.97 93.0082 1147 92.9309C1148.83 87.4869 1153.44 82.991 1157.54 79.9507C1161.71 76.8558 1166.71 74.2737 1170.81 73.3921C1175.02 72.4579 1179.3 72.5822 1182.75 73.0838C1185.98 73.5524 1189.42 74.4889 1191.66 75.8902ZM1180.86 85.9113C1178.49 85.5678 1175.88 85.5475 1173.64 86.0471L1173.62 86.0535L1173.59 86.0597C1171.95 86.4087 1168.66 87.8909 1165.36 90.3342C1161.99 92.8376 1159.96 95.3601 1159.39 97.0415L1159.39 97.0512L1159.38 97.0609C1158.17 100.637 1157.2 103.64 1157.08 106.408C1156.97 108.826 1157.52 110.679 1159.28 112.395C1163.44 116.421 1168.87 117.39 1174.82 115.529L1174.84 115.525L1174.85 115.52C1184.13 112.672 1190.14 108.857 1193.58 102.058C1195.4 98.3454 1195.07 96.576 1194.38 95.2233C1193.35 93.207 1190.68 90.5739 1184.72 86.876L1184.7 86.8658L1184.69 86.8554C1184.7 86.8607 1184.68 86.8545 1184.64 86.8389C1184.38 86.7374 1183.1 86.2374 1180.86 85.9113Z" fill="#EFF0EB"/>
<path fill-rule="evenodd" clip-rule="evenodd" d="M47.6576 148.587C53.8845 152.45 59.2718 156.657 62.0319 162.056C65.1317 168.118 64.3285 174.338 61.3032 180.476L61.2906 180.502L61.2777 180.527C55.5685 191.856 45.6156 197.255 34.7313 200.598C25.0149 203.627 14.3318 202.29 6.15261 194.366L6.14777 194.361C1.16506 189.524 -0.210894 183.78 0.0251983 178.528C0.240187 173.745 1.81241 169.118 2.91854 165.863C2.94539 165.784 2.97195 165.706 2.99822 165.628C4.83138 160.184 9.43909 155.688 13.5382 152.648C17.7108 149.553 22.7125 146.971 26.8072 146.089C31.0183 145.155 35.2966 145.28 38.7497 145.781C41.9754 146.25 45.4158 147.186 47.6576 148.587ZM36.8567 158.609C34.4918 158.265 31.885 158.245 29.6443 158.744L29.6154 158.751L29.5863 158.757C27.9518 159.106 24.656 160.588 21.3619 163.031C17.9867 165.535 15.9556 168.057 15.3907 169.739L15.3874 169.748L15.3841 169.758C14.1699 173.335 13.2033 176.338 13.0789 179.105C12.9702 181.523 13.5174 183.377 15.284 185.093C19.4408 189.118 24.8651 190.088 30.8233 188.227L30.8389 188.222L30.8544 188.217C40.1332 185.369 46.1407 181.555 49.5776 174.755C51.4019 171.043 51.0705 169.273 50.3789 167.921C49.348 165.904 46.6829 163.271 40.7196 159.573L40.7031 159.563L40.6866 159.553C40.695 159.558 40.6792 159.552 40.6393 159.536C40.3798 159.435 39.1015 158.935 36.8567 158.609Z" fill="#EFF0EB"/>
<path fill-rule="evenodd" clip-rule="evenodd" d="M223.658 148.587C229.884 152.45 235.272 156.657 238.032 162.056C241.132 168.118 240.329 174.338 237.303 180.476L237.291 180.502L237.278 180.527C231.568 191.856 221.616 197.255 210.731 200.598C201.015 203.627 190.332 202.29 182.153 194.366L182.148 194.361C177.165 189.524 175.789 183.78 176.025 178.528C176.24 173.745 177.812 169.118 178.919 165.863C178.945 165.784 178.972 165.706 178.998 165.628C180.831 160.184 185.439 155.688 189.538 152.648C193.711 149.553 198.712 146.971 202.807 146.089C207.018 145.155 211.297 145.28 214.75 145.781C217.975 146.25 221.416 147.186 223.658 148.587ZM212.857 158.609C210.492 158.265 207.885 158.245 205.644 158.744L205.615 158.751L205.586 158.757C203.952 159.106 200.656 160.588 197.362 163.031C193.987 165.535 191.956 168.057 191.391 169.739L191.387 169.748L191.384 169.758C190.17 173.335 189.203 176.338 189.079 179.105C188.97 181.523 189.517 183.377 191.284 185.093C195.441 189.118 200.865 190.088 206.823 188.227L206.839 188.222L206.854 188.217C216.133 185.369 222.141 181.555 225.578 174.755C227.402 171.043 227.071 169.273 226.379 167.921C225.348 165.904 222.683 163.271 216.72 159.573L216.703 159.563L216.687 159.553C216.695 159.558 216.679 159.552 216.639 159.536C216.38 159.435 215.102 158.935 212.857 158.609Z" fill="#EFF0EB"/>
<path fill-rule="evenodd" clip-rule="evenodd" d="M399.658 148.587C405.884 152.45 411.272 156.657 414.032 162.056C417.132 168.118 416.329 174.338 413.303 180.476L413.291 180.502L413.278 180.527C407.568 191.856 397.616 197.255 386.731 200.598C377.015 203.627 366.332 202.29 358.153 194.366L358.148 194.361C353.165 189.524 351.789 183.78 352.025 178.528C352.24 173.745 353.812 169.118 354.919 165.863C354.945 165.784 354.972 165.706 354.998 165.628C356.831 160.184 361.439 155.688 365.538 152.648C369.711 149.553 374.712 146.971 378.807 146.089C383.018 145.155 387.297 145.28 390.75 145.781C393.975 146.25 397.416 147.186 399.658 148.587ZM388.857 158.609C386.492 158.265 383.885 158.245 381.644 158.744L381.615 158.751L381.586 158.757C379.952 159.106 376.656 160.588 373.362 163.031C369.987 165.535 367.956 168.057 367.391 169.739L367.387 169.748L367.384 169.758C366.17 173.335 365.203 176.338 365.079 179.105C364.97 181.523 365.517 183.377 367.284 185.093C371.441 189.118 376.865 190.088 382.823 188.227L382.839 188.222L382.854 188.217C392.133 185.369 398.141 181.555 401.578 174.755C403.402 171.043 403.071 169.273 402.379 167.921C401.348 165.904 398.683 163.271 392.72 159.573L392.703 159.563L392.687 159.553C392.695 159.558 392.679 159.552 392.639 159.536C392.38 159.435 391.102 158.935 388.857 158.609Z" fill="#EFF0EB"/>
<path fill-rule="evenodd" clip-rule="evenodd" d="M575.658 148.587C581.884 152.45 587.272 156.657 590.032 162.056C593.132 168.118 592.329 174.338 589.303 180.476L589.291 180.502L589.278 180.527C583.568 191.856 573.616 197.255 562.731 200.598C553.015 203.627 542.332 202.29 534.153 194.366L534.148 194.361C529.165 189.524 527.789 183.78 528.025 178.528C528.24 173.745 529.812 169.118 530.919 165.863C530.945 165.784 530.972 165.706 530.998 165.628C532.831 160.184 537.439 155.688 541.538 152.648C545.711 149.553 550.712 146.971 554.807 146.089C559.018 145.155 563.297 145.28 566.75 145.781C569.975 146.25 573.416 147.186 575.658 148.587ZM564.857 158.609C562.492 158.265 559.885 158.245 557.644 158.744L557.615 158.751L557.586 158.757C555.952 159.106 552.656 160.588 549.362 163.031C545.987 165.535 543.956 168.057 543.391 169.739L543.387 169.748L543.384 169.758C542.17 173.335 541.203 176.338 541.079 179.105C540.97 181.523 541.517 183.377 543.284 185.093C547.441 189.118 552.865 190.088 558.823 188.227L558.839 188.222L558.854 188.217C568.133 185.369 574.141 181.555 577.578 174.755C579.402 171.043 579.071 169.273 578.379 167.921C577.348 165.904 574.683 163.271 568.72 159.573L568.703 159.563L568.687 159.553C568.695 159.558 568.679 159.552 568.639 159.536C568.38 159.435 567.102 158.935 564.857 158.609Z" fill="#EFF0EB"/>
<path fill-rule="evenodd" clip-rule="evenodd" d="M751.658 148.587C757.884 152.45 763.272 156.657 766.032 162.056C769.132 168.118 768.329 174.338 765.303 180.476L765.291 180.502L765.278 180.527C759.568 191.856 749.616 197.255 738.731 200.598C729.015 203.627 718.332 202.29 710.153 194.366L710.148 194.361C705.165 189.524 703.789 183.78 704.025 178.528C704.24 173.745 705.812 169.118 706.919 165.863C706.945 165.784 706.972 165.706 706.998 165.628C708.831 160.184 713.439 155.688 717.538 152.648C721.711 149.553 726.712 146.971 730.807 146.089C735.018 145.155 739.297 145.28 742.75 145.781C745.975 146.25 749.416 147.186 751.658 148.587ZM740.857 158.609C738.492 158.265 735.885 158.245 733.644 158.744L733.615 158.751L733.586 158.757C731.952 159.106 728.656 160.588 725.362 163.031C721.987 165.535 719.956 168.057 719.391 169.739L719.387 169.748L719.384 169.758C718.17 173.335 717.203 176.338 717.079 179.105C716.97 181.523 717.517 183.377 719.284 185.093C723.441 189.118 728.865 190.088 734.823 188.227L734.839 188.222L734.854 188.217C744.133 185.369 750.141 181.555 753.578 174.755C755.402 171.043 755.071 169.273 754.379 167.921C753.348 165.904 750.683 163.271 744.72 159.573L744.703 159.563L744.687 159.553C744.695 159.558 744.679 159.552 744.639 159.536C744.38 159.435 743.102 158.935 740.857 158.609Z" fill="#EFF0EB"/>
<path fill-rule="evenodd" clip-rule="evenodd" d="M927.658 148.587C933.884 152.45 939.272 156.657 942.032 162.056C945.132 168.118 944.329 174.338 941.303 180.476L941.291 180.502L941.278 180.527C935.568 191.856 925.616 197.255 914.731 200.598C905.015 203.627 894.332 202.29 886.153 194.366L886.148 194.361C881.165 189.524 879.789 183.78 880.025 178.528C880.24 173.745 881.812 169.118 882.919 165.863C882.945 165.784 882.972 165.706 882.998 165.628C884.831 160.184 889.439 155.688 893.538 152.648C897.711 149.553 902.712 146.971 906.807 146.089C911.018 145.155 915.297 145.28 918.75 145.781C921.975 146.25 925.416 147.186 927.658 148.587ZM916.857 158.609C914.492 158.265 911.885 158.245 909.644 158.744L909.615 158.751L909.586 158.757C907.952 159.106 904.656 160.588 901.362 163.031C897.987 165.535 895.956 168.057 895.391 169.739L895.387 169.748L895.384 169.758C894.17 173.335 893.203 176.338 893.079 179.105C892.97 181.523 893.517 183.377 895.284 185.093C899.441 189.118 904.865 190.088 910.823 188.227L910.839 188.222L910.854 188.217C920.133 185.369 926.141 181.555 929.578 174.755C931.402 171.043 931.071 169.273 930.379 167.921C929.348 165.904 926.683 163.271 920.72 159.573L920.703 159.563L920.687 159.553C920.695 159.558 920.679 159.552 920.639 159.536C920.38 159.435 919.102 158.935 916.857 158.609Z" fill="#EFF0EB"/>
<path fill-rule="evenodd" clip-rule="evenodd" d="M1103.66 148.587C1109.88 152.45 1115.27 156.657 1118.03 162.056C1121.13 168.118 1120.33 174.338 1117.3 180.476L1117.29 180.502L1117.28 180.527C1111.57 191.856 1101.62 197.255 1090.73 200.598C1081.01 203.627 1070.33 202.29 1062.15 194.366L1062.15 194.361C1057.17 189.524 1055.79 183.78 1056.03 178.528C1056.24 173.745 1057.81 169.118 1058.92 165.863C1058.95 165.784 1058.97 165.706 1059 165.628C1060.83 160.184 1065.44 155.688 1069.54 152.648C1073.71 149.553 1078.71 146.971 1082.81 146.089C1087.02 145.155 1091.3 145.28 1094.75 145.781C1097.98 146.25 1101.42 147.186 1103.66 148.587ZM1092.86 158.609C1090.49 158.265 1087.88 158.245 1085.64 158.744L1085.62 158.751L1085.59 158.757C1083.95 159.106 1080.66 160.588 1077.36 163.031C1073.99 165.535 1071.96 168.057 1071.39 169.739L1071.39 169.748L1071.38 169.758C1070.17 173.335 1069.2 176.338 1069.08 179.105C1068.97 181.523 1069.52 183.377 1071.28 185.093C1075.44 189.118 1080.87 190.088 1086.82 188.227L1086.84 188.222L1086.85 188.217C1096.13 185.369 1102.14 181.555 1105.58 174.755C1107.4 171.043 1107.07 169.273 1106.38 167.921C1105.35 165.904 1102.68 163.271 1096.72 159.573L1096.7 159.563L1096.69 159.553C1096.7 159.558 1096.68 159.552 1096.64 159.536C1096.38 159.435 1095.1 158.935 1092.86 158.609Z" fill="#EFF0EB"/>
<path fill-rule="evenodd" clip-rule="evenodd" d="M1279.66 148.587C1285.88 152.45 1291.27 156.657 1294.03 162.056C1297.13 168.118 1296.33 174.338 1293.3 180.476L1293.29 180.502L1293.28 180.527C1287.57 191.856 1277.62 197.255 1266.73 200.598C1257.01 203.627 1246.33 202.29 1238.15 194.366L1238.15 194.361C1233.17 189.524 1231.79 183.78 1232.03 178.528C1232.24 173.745 1233.81 169.118 1234.92 165.863C1234.95 165.784 1234.97 165.706 1235 165.628C1236.83 160.184 1241.44 155.688 1245.54 152.648C1249.71 149.553 1254.71 146.971 1258.81 146.089C1263.02 145.155 1267.3 145.28 1270.75 145.781C1273.98 146.25 1277.42 147.186 1279.66 148.587ZM1268.86 158.609C1266.49 158.265 1263.88 158.245 1261.64 158.744L1261.62 158.751L1261.59 158.757C1259.95 159.106 1256.66 160.588 1253.36 163.031C1249.99 165.535 1247.96 168.057 1247.39 169.739L1247.39 169.748L1247.38 169.758C1246.17 173.335 1245.2 176.338 1245.08 179.105C1244.97 181.523 1245.52 183.377 1247.28 185.093C1251.44 189.118 1256.87 190.088 1262.82 188.227L1262.84 188.222L1262.85 188.217C1272.13 185.369 1278.14 181.555 1281.58 174.755C1283.4 171.043 1283.07 169.273 1282.38 167.921C1281.35 165.904 1278.68 163.271 1272.72 159.573L1272.7 159.563L1272.69 159.553C1272.7 159.558 1272.68 159.552 1272.64 159.536C1272.38 159.435 1271.1 158.935 1268.86 158.609Z" fill="#EFF0EB"/>
<path fill-rule="evenodd" clip-rule="evenodd" d="M135.658 221.285C141.884 225.147 147.272 229.354 150.032 234.753C153.132 240.815 152.329 247.036 149.303 253.173L149.291 253.199L149.278 253.224C143.568 264.553 133.616 269.952 122.731 273.295C113.015 276.325 102.332 274.987 94.1526 267.063L94.1478 267.059C89.1651 262.221 87.7891 256.477 88.0252 251.225C88.2402 246.443 89.8124 241.815 90.9185 238.56C90.9454 238.481 90.972 238.403 90.9982 238.325C92.8314 232.881 97.4391 228.386 101.538 225.345C105.711 222.25 110.712 219.668 114.807 218.787C119.018 217.852 123.297 217.977 126.75 218.478C129.975 218.947 133.416 219.884 135.658 221.285ZM124.857 231.306C122.492 230.962 119.885 230.942 117.644 231.442L117.615 231.448L117.586 231.454C115.952 231.803 112.656 233.286 109.362 235.729C105.987 238.232 103.956 240.755 103.391 242.436L103.387 242.446L103.384 242.455C102.17 246.032 101.203 249.035 101.079 251.803C100.97 254.22 101.517 256.074 103.284 257.79C107.441 261.816 112.865 262.785 118.823 260.924L118.839 260.919L118.854 260.914C128.133 258.066 134.141 254.252 137.578 247.452C139.402 243.74 139.071 241.971 138.379 240.618C137.348 238.602 134.683 235.968 128.72 232.271L128.703 232.26L128.687 232.25C128.695 232.255 128.679 232.249 128.639 232.234C128.38 232.132 127.102 231.632 124.857 231.306Z" fill="#EFF0EB"/>
<path fill-rule="evenodd" clip-rule="evenodd" d="M311.658 221.285C317.884 225.147 323.272 229.354 326.032 234.753C329.132 240.815 328.329 247.036 325.303 253.173L325.291 253.199L325.278 253.224C319.568 264.553 309.616 269.952 298.731 273.295C289.015 276.325 278.332 274.987 270.153 267.063L270.148 267.059C265.165 262.221 263.789 256.477 264.025 251.225C264.24 246.443 265.812 241.815 266.919 238.56C266.945 238.481 266.972 238.403 266.998 238.325C268.831 232.881 273.439 228.386 277.538 225.345C281.711 222.25 286.712 219.668 290.807 218.787C295.018 217.852 299.297 217.977 302.75 218.478C305.975 218.947 309.416 219.884 311.658 221.285ZM300.857 231.306C298.492 230.962 295.885 230.942 293.644 231.442L293.615 231.448L293.586 231.454C291.952 231.803 288.656 233.286 285.362 235.729C281.987 238.232 279.956 240.755 279.391 242.436L279.387 242.446L279.384 242.455C278.17 246.032 277.203 249.035 277.079 251.803C276.97 254.22 277.517 256.074 279.284 257.79C283.441 261.816 288.865 262.785 294.823 260.924L294.839 260.919L294.854 260.914C304.133 258.066 310.141 254.252 313.578 247.452C315.402 243.74 315.071 241.971 314.379 240.618C313.348 238.602 310.683 235.968 304.72 232.271L304.703 232.26L304.687 232.25C304.695 232.255 304.679 232.249 304.639 232.234C304.38 232.132 303.102 231.632 300.857 231.306Z" fill="#EFF0EB"/>
<path fill-rule="evenodd" clip-rule="evenodd" d="M487.658 221.285C493.884 225.147 499.272 229.354 502.032 234.753C505.132 240.815 504.329 247.036 501.303 253.173L501.291 253.199L501.278 253.224C495.568 264.553 485.616 269.952 474.731 273.295C465.015 276.325 454.332 274.987 446.153 267.063L446.148 267.059C441.165 262.221 439.789 256.477 440.025 251.225C440.24 246.443 441.812 241.815 442.919 238.56C442.945 238.481 442.972 238.403 442.998 238.325C444.831 232.881 449.439 228.386 453.538 225.345C457.711 222.25 462.712 219.668 466.807 218.787C471.018 217.852 475.297 217.977 478.75 218.478C481.975 218.947 485.416 219.884 487.658 221.285ZM476.857 231.306C474.492 230.962 471.885 230.942 469.644 231.442L469.615 231.448L469.586 231.454C467.952 231.803 464.656 233.286 461.362 235.729C457.987 238.232 455.956 240.755 455.391 242.436L455.387 242.446L455.384 242.455C454.17 246.032 453.203 249.035 453.079 251.803C452.97 254.22 453.517 256.074 455.284 257.79C459.441 261.816 464.865 262.785 470.823 260.924L470.839 260.919L470.854 260.914C480.133 258.066 486.141 254.252 489.578 247.452C491.402 243.74 491.071 241.971 490.379 240.618C489.348 238.602 486.683 235.968 480.72 232.271L480.703 232.26L480.687 232.25C480.695 232.255 480.679 232.249 480.639 232.234C480.38 232.132 479.102 231.632 476.857 231.306Z" fill="#EFF0EB"/>
<path fill-rule="evenodd" clip-rule="evenodd" d="M663.658 221.285C669.884 225.147 675.272 229.354 678.032 234.753C681.132 240.815 680.329 247.036 677.303 253.173L677.291 253.199L677.278 253.224C671.568 264.553 661.616 269.952 650.731 273.295C641.015 276.325 630.332 274.987 622.153 267.063L622.148 267.059C617.165 262.221 615.789 256.477 616.025 251.225C616.24 246.443 617.812 241.815 618.919 238.56C618.945 238.481 618.972 238.403 618.998 238.325C620.831 232.881 625.439 228.386 629.538 225.345C633.711 222.25 638.712 219.668 642.807 218.787C647.018 217.852 651.297 217.977 654.75 218.478C657.975 218.947 661.416 219.884 663.658 221.285ZM652.857 231.306C650.492 230.962 647.885 230.942 645.644 231.442L645.615 231.448L645.586 231.454C643.952 231.803 640.656 233.286 637.362 235.729C633.987 238.232 631.956 240.755 631.391 242.436L631.387 242.446L631.384 242.455C630.17 246.032 629.203 249.035 629.079 251.803C628.97 254.22 629.517 256.074 631.284 257.79C635.441 261.816 640.865 262.785 646.823 260.924L646.839 260.919L646.854 260.914C656.133 258.066 662.141 254.252 665.578 247.452C667.402 243.74 667.071 241.971 666.379 240.618C665.348 238.602 662.683 235.968 656.72 232.271L656.703 232.26L656.687 232.25C656.695 232.255 656.679 232.249 656.639 232.234C656.38 232.132 655.102 231.632 652.857 231.306Z" fill="#EFF0EB"/>
<path fill-rule="evenodd" clip-rule="evenodd" d="M839.658 221.285C845.884 225.147 851.272 229.354 854.032 234.753C857.132 240.815 856.329 247.036 853.303 253.173L853.291 253.199L853.278 253.224C847.568 264.553 837.616 269.952 826.731 273.295C817.015 276.325 806.332 274.987 798.153 267.063L798.148 267.059C793.165 262.221 791.789 256.477 792.025 251.225C792.24 246.443 793.812 241.815 794.919 238.56C794.945 238.481 794.972 238.403 794.998 238.325C796.831 232.881 801.439 228.386 805.538 225.345C809.711 222.25 814.712 219.668 818.807 218.787C823.018 217.852 827.297 217.977 830.75 218.478C833.975 218.947 837.416 219.884 839.658 221.285ZM828.857 231.306C826.492 230.962 823.885 230.942 821.644 231.442L821.615 231.448L821.586 231.454C819.952 231.803 816.656 233.286 813.362 235.729C809.987 238.232 807.956 240.755 807.391 242.436L807.387 242.446L807.384 242.455C806.17 246.032 805.203 249.035 805.079 251.803C804.97 254.22 805.517 256.074 807.284 257.79C811.441 261.816 816.865 262.785 822.823 260.924L822.839 260.919L822.854 260.914C832.133 258.066 838.141 254.252 841.578 247.452C843.402 243.74 843.071 241.971 842.379 240.618C841.348 238.602 838.683 235.968 832.72 232.271L832.703 232.26L832.687 232.25C832.695 232.255 832.679 232.249 832.639 232.234C832.38 232.132 831.102 231.632 828.857 231.306Z" fill="#EFF0EB"/>
<path fill-rule="evenodd" clip-rule="evenodd" d="M1015.66 221.285C1021.88 225.147 1027.27 229.354 1030.03 234.753C1033.13 240.815 1032.33 247.036 1029.3 253.173L1029.29 253.199L1029.28 253.224C1023.57 264.553 1013.62 269.952 1002.73 273.295C993.015 276.325 982.332 274.987 974.153 267.063L974.148 267.059C969.165 262.221 967.789 256.477 968.025 251.225C968.24 246.443 969.812 241.815 970.919 238.56C970.945 238.481 970.972 238.403 970.998 238.325C972.831 232.881 977.439 228.386 981.538 225.345C985.711 222.25 990.712 219.668 994.807 218.787C999.018 217.852 1003.3 217.977 1006.75 218.478C1009.98 218.947 1013.42 219.884 1015.66 221.285ZM1004.86 231.306C1002.49 230.962 999.885 230.942 997.644 231.442L997.615 231.448L997.586 231.454C995.952 231.803 992.656 233.286 989.362 235.729C985.987 238.232 983.956 240.755 983.391 242.436L983.387 242.446L983.384 242.455C982.17 246.032 981.203 249.035 981.079 251.803C980.97 254.22 981.517 256.074 983.284 257.79C987.441 261.816 992.865 262.785 998.823 260.924L998.839 260.919L998.854 260.914C1008.13 258.066 1014.14 254.252 1017.58 247.452C1019.4 243.74 1019.07 241.971 1018.38 240.618C1017.35 238.602 1014.68 235.968 1008.72 232.271L1008.7 232.26L1008.69 232.25C1008.7 232.255 1008.68 232.249 1008.64 232.234C1008.38 232.132 1007.1 231.632 1004.86 231.306Z" fill="#EFF0EB"/>
<path fill-rule="evenodd" clip-rule="evenodd" d="M1191.66 221.285C1197.88 225.147 1203.27 229.354 1206.03 234.753C1209.13 240.815 1208.33 247.036 1205.3 253.173L1205.29 253.199L1205.28 253.224C1199.57 264.553 1189.62 269.952 1178.73 273.295C1169.01 276.325 1158.33 274.987 1150.15 267.063L1150.15 267.059C1145.17 262.221 1143.79 256.477 1144.03 251.225C1144.24 246.443 1145.81 241.815 1146.92 238.56C1146.95 238.481 1146.97 238.403 1147 238.325C1148.83 232.881 1153.44 228.386 1157.54 225.345C1161.71 222.25 1166.71 219.668 1170.81 218.787C1175.02 217.852 1179.3 217.977 1182.75 218.478C1185.98 218.947 1189.42 219.884 1191.66 221.285ZM1180.86 231.306C1178.49 230.962 1175.88 230.942 1173.64 231.442L1173.62 231.448L1173.59 231.454C1171.95 231.803 1168.66 233.286 1165.36 235.729C1161.99 238.232 1159.96 240.755 1159.39 242.436L1159.39 242.446L1159.38 242.455C1158.17 246.032 1157.2 249.035 1157.08 251.803C1156.97 254.22 1157.52 256.074 1159.28 257.79C1163.44 261.816 1168.87 262.785 1174.82 260.924L1174.84 260.919L1174.85 260.914C1184.13 258.066 1190.14 254.252 1193.58 247.452C1195.4 243.74 1195.07 241.971 1194.38 240.618C1193.35 238.602 1190.68 235.968 1184.72 232.271L1184.7 232.26L1184.69 232.25C1184.7 232.255 1184.68 232.249 1184.64 232.234C1184.38 232.132 1183.1 231.632 1180.86 231.306Z" fill="#EFF0EB"/>
<path fill-rule="evenodd" clip-rule="evenodd" d="M47.6576 293.982C53.8845 297.845 59.2718 302.052 62.0319 307.45C65.1317 313.513 64.3285 319.733 61.3032 325.871L61.2906 325.896L61.2777 325.922C55.5685 337.251 45.6156 342.649 34.7313 345.992C25.0149 349.022 14.3318 347.685 6.15261 339.761L6.14777 339.756C1.16506 334.919 -0.210894 329.174 0.0251983 323.922C0.240187 319.14 1.81241 314.513 2.91854 311.257C2.94539 311.178 2.97195 311.1 2.99822 311.023C4.83138 305.579 9.43909 301.083 13.5382 298.043C17.7108 294.948 22.7125 292.366 26.8072 291.484C31.0183 290.55 35.2966 290.674 38.7497 291.176C41.9754 291.644 45.4158 292.581 47.6576 293.982ZM36.8567 304.003C34.4918 303.66 31.885 303.639 29.6443 304.139L29.6154 304.145L29.5863 304.152C27.9518 304.501 24.656 305.983 21.3619 308.426C17.9867 310.93 15.9556 313.452 15.3907 315.133L15.3874 315.143L15.3841 315.153C14.1699 318.729 13.2033 321.732 13.0789 324.5C12.9702 326.917 13.5174 328.771 15.284 330.487C19.4408 334.513 24.8651 335.482 30.8233 333.621L30.8389 333.616L30.8544 333.612C40.1332 330.764 46.1407 326.949 49.5776 320.149C51.4019 316.437 51.0705 314.668 50.3789 313.315C49.348 311.299 46.6829 308.666 40.7196 304.968L40.7031 304.958L40.6866 304.947C40.695 304.953 40.6792 304.946 40.6393 304.931C40.3798 304.829 39.1015 304.329 36.8567 304.003Z" fill="#EFF0EB"/>
<path fill-rule="evenodd" clip-rule="evenodd" d="M223.658 293.982C229.884 297.845 235.272 302.052 238.032 307.45C241.132 313.513 240.329 319.733 237.303 325.871L237.291 325.896L237.278 325.922C231.568 337.251 221.616 342.649 210.731 345.992C201.015 349.022 190.332 347.685 182.153 339.761L182.148 339.756C177.165 334.919 175.789 329.174 176.025 323.922C176.24 319.14 177.812 314.513 178.919 311.257C178.945 311.178 178.972 311.1 178.998 311.023C180.831 305.579 185.439 301.083 189.538 298.043C193.711 294.948 198.712 292.366 202.807 291.484C207.018 290.55 211.297 290.674 214.75 291.176C217.975 291.644 221.416 292.581 223.658 293.982ZM212.857 304.003C210.492 303.66 207.885 303.639 205.644 304.139L205.615 304.145L205.586 304.152C203.952 304.501 200.656 305.983 197.362 308.426C193.987 310.93 191.956 313.452 191.391 315.133L191.387 315.143L191.384 315.153C190.17 318.729 189.203 321.732 189.079 324.5C188.97 326.917 189.517 328.771 191.284 330.487C195.441 334.513 200.865 335.482 206.823 333.621L206.839 333.616L206.854 333.612C216.133 330.764 222.141 326.949 225.578 320.149C227.402 316.437 227.071 314.668 226.379 313.315C225.348 311.299 222.683 308.666 216.72 304.968L216.703 304.958L216.687 304.947C216.695 304.953 216.679 304.946 216.639 304.931C216.38 304.829 215.102 304.329 212.857 304.003Z" fill="#EFF0EB"/>
<path fill-rule="evenodd" clip-rule="evenodd" d="M399.658 293.982C405.884 297.845 411.272 302.052 414.032 307.45C417.132 313.513 416.329 319.733 413.303 325.871L413.291 325.896L413.278 325.922C407.568 337.251 397.616 342.649 386.731 345.992C377.015 349.022 366.332 347.685 358.153 339.761L358.148 339.756C353.165 334.919 351.789 329.174 352.025 323.922C352.24 319.14 353.812 314.513 354.919 311.257C354.945 311.178 354.972 311.1 354.998 311.023C356.831 305.579 361.439 301.083 365.538 298.043C369.711 294.948 374.712 292.366 378.807 291.484C383.018 290.55 387.297 290.674 390.75 291.176C393.975 291.644 397.416 292.581 399.658 293.982ZM388.857 304.003C386.492 303.66 383.885 303.639 381.644 304.139L381.615 304.145L381.586 304.152C379.952 304.501 376.656 305.983 373.362 308.426C369.987 310.93 367.956 313.452 367.391 315.133L367.387 315.143L367.384 315.153C366.17 318.729 365.203 321.732 365.079 324.5C364.97 326.917 365.517 328.771 367.284 330.487C371.441 334.513 376.865 335.482 382.823 333.621L382.839 333.616L382.854 333.612C392.133 330.764 398.141 326.949 401.578 320.149C403.402 316.437 403.071 314.668 402.379 313.315C401.348 311.299 398.683 308.666 392.72 304.968L392.703 304.958L392.687 304.947C392.695 304.953 392.679 304.946 392.639 304.931C392.38 304.829 391.102 304.329 388.857 304.003Z" fill="#EFF0EB"/>
<path fill-rule="evenodd" clip-rule="evenodd" d="M575.658 293.982C581.884 297.845 587.272 302.052 590.032 307.45C593.132 313.513 592.329 319.733 589.303 325.871L589.291 325.896L589.278 325.922C583.568 337.251 573.616 342.649 562.731 345.992C553.015 349.022 542.332 347.685 534.153 339.761L534.148 339.756C529.165 334.919 527.789 329.174 528.025 323.922C528.24 319.14 529.812 314.513 530.919 311.257C530.945 311.178 530.972 311.1 530.998 311.023C532.831 305.579 537.439 301.083 541.538 298.043C545.711 294.948 550.712 292.366 554.807 291.484C559.018 290.55 563.297 290.674 566.75 291.176C569.975 291.644 573.416 292.581 575.658 293.982ZM564.857 304.003C562.492 303.66 559.885 303.639 557.644 304.139L557.615 304.145L557.586 304.152C555.952 304.501 552.656 305.983 549.362 308.426C545.987 310.93 543.956 313.452 543.391 315.133L543.387 315.143L543.384 315.153C542.17 318.729 541.203 321.732 541.079 324.5C540.97 326.917 541.517 328.771 543.284 330.487C547.441 334.513 552.865 335.482 558.823 333.621L558.839 333.616L558.854 333.612C568.133 330.764 574.141 326.949 577.578 320.149C579.402 316.437 579.071 314.668 578.379 313.315C577.348 311.299 574.683 308.666 568.72 304.968L568.703 304.958L568.687 304.947C568.695 304.953 568.679 304.946 568.639 304.931C568.38 304.829 567.102 304.329 564.857 304.003Z" fill="#EFF0EB"/>
<path fill-rule="evenodd" clip-rule="evenodd" d="M751.658 293.982C757.884 297.845 763.272 302.052 766.032 307.45C769.132 313.513 768.329 319.733 765.303 325.871L765.291 325.896L765.278 325.922C759.568 337.251 749.616 342.649 738.731 345.992C729.015 349.022 718.332 347.685 710.153 339.761L710.148 339.756C705.165 334.919 703.789 329.174 704.025 323.922C704.24 319.14 705.812 314.513 706.919 311.257C706.945 311.178 706.972 311.1 706.998 311.023C708.831 305.579 713.439 301.083 717.538 298.043C721.711 294.948 726.712 292.366 730.807 291.484C735.018 290.55 739.297 290.674 742.75 291.176C745.975 291.644 749.416 292.581 751.658 293.982ZM740.857 304.003C738.492 303.66 735.885 303.639 733.644 304.139L733.615 304.145L733.586 304.152C731.952 304.501 728.656 305.983 725.362 308.426C721.987 310.93 719.956 313.452 719.391 315.133L719.387 315.143L719.384 315.153C718.17 318.729 717.203 321.732 717.079 324.5C716.97 326.917 717.517 328.771 719.284 330.487C723.441 334.513 728.865 335.482 734.823 333.621L734.839 333.616L734.854 333.612C744.133 330.764 750.141 326.949 753.578 320.149C755.402 316.437 755.071 314.668 754.379 313.315C753.348 311.299 750.683 308.666 744.72 304.968L744.703 304.958L744.687 304.947C744.695 304.953 744.679 304.946 744.639 304.931C744.38 304.829 743.102 304.329 740.857 304.003Z" fill="#EFF0EB"/>
<path fill-rule="evenodd" clip-rule="evenodd" d="M927.658 293.982C933.884 297.845 939.272 302.052 942.032 307.45C945.132 313.513 944.329 319.733 941.303 325.871L941.291 325.896L941.278 325.922C935.568 337.251 925.616 342.649 914.731 345.992C905.015 349.022 894.332 347.685 886.153 339.761L886.148 339.756C881.165 334.919 879.789 329.174 880.025 323.922C880.24 319.14 881.812 314.513 882.919 311.257C882.945 311.178 882.972 311.1 882.998 311.023C884.831 305.579 889.439 301.083 893.538 298.043C897.711 294.948 902.712 292.366 906.807 291.484C911.018 290.55 915.297 290.674 918.75 291.176C921.975 291.644 925.416 292.581 927.658 293.982ZM916.857 304.003C914.492 303.66 911.885 303.639 909.644 304.139L909.615 304.145L909.586 304.152C907.952 304.501 904.656 305.983 901.362 308.426C897.987 310.93 895.956 313.452 895.391 315.133L895.387 315.143L895.384 315.153C894.17 318.729 893.203 321.732 893.079 324.5C892.97 326.917 893.517 328.771 895.284 330.487C899.441 334.513 904.865 335.482 910.823 333.621L910.839 333.616L910.854 333.612C920.133 330.764 926.141 326.949 929.578 320.149C931.402 316.437 931.071 314.668 930.379 313.315C929.348 311.299 926.683 308.666 920.72 304.968L920.703 304.958L920.687 304.947C920.695 304.953 920.679 304.946 920.639 304.931C920.38 304.829 919.102 304.329 916.857 304.003Z" fill="#EFF0EB"/>
<path fill-rule="evenodd" clip-rule="evenodd" d="M1103.66 293.982C1109.88 297.845 1115.27 302.052 1118.03 307.45C1121.13 313.513 1120.33 319.733 1117.3 325.871L1117.29 325.896L1117.28 325.922C1111.57 337.251 1101.62 342.649 1090.73 345.992C1081.01 349.022 1070.33 347.685 1062.15 339.761L1062.15 339.756C1057.17 334.919 1055.79 329.174 1056.03 323.922C1056.24 319.14 1057.81 314.513 1058.92 311.257C1058.95 311.178 1058.97 311.1 1059 311.023C1060.83 305.579 1065.44 301.083 1069.54 298.043C1073.71 294.948 1078.71 292.366 1082.81 291.484C1087.02 290.55 1091.3 290.674 1094.75 291.176C1097.98 291.644 1101.42 292.581 1103.66 293.982ZM1092.86 304.003C1090.49 303.66 1087.88 303.639 1085.64 304.139L1085.62 304.145L1085.59 304.152C1083.95 304.501 1080.66 305.983 1077.36 308.426C1073.99 310.93 1071.96 313.452 1071.39 315.133L1071.39 315.143L1071.38 315.153C1070.17 318.729 1069.2 321.732 1069.08 324.5C1068.97 326.917 1069.52 328.771 1071.28 330.487C1075.44 334.513 1080.87 335.482 1086.82 333.621L1086.84 333.616L1086.85 333.612C1096.13 330.764 1102.14 326.949 1105.58 320.149C1107.4 316.437 1107.07 314.668 1106.38 313.315C1105.35 311.299 1102.68 308.666 1096.72 304.968L1096.7 304.958L1096.69 304.947C1096.7 304.953 1096.68 304.946 1096.64 304.931C1096.38 304.829 1095.1 304.329 1092.86 304.003Z" fill="#EFF0EB"/>
<path fill-rule="evenodd" clip-rule="evenodd" d="M1279.66 293.982C1285.88 297.845 1291.27 302.052 1294.03 307.45C1297.13 313.513 1296.33 319.733 1293.3 325.871L1293.29 325.896L1293.28 325.922C1287.57 337.251 1277.62 342.649 1266.73 345.992C1257.01 349.022 1246.33 347.685 1238.15 339.761L1238.15 339.756C1233.17 334.919 1231.79 329.174 1232.03 323.922C1232.24 319.14 1233.81 314.513 1234.92 311.257C1234.95 311.178 1234.97 311.1 1235 311.023C1236.83 305.579 1241.44 301.083 1245.54 298.043C1249.71 294.948 1254.71 292.366 1258.81 291.484C1263.02 290.55 1267.3 290.674 1270.75 291.176C1273.98 291.644 1277.42 292.581 1279.66 293.982ZM1268.86 304.003C1266.49 303.66 1263.88 303.639 1261.64 304.139L1261.62 304.145L1261.59 304.152C1259.95 304.501 1256.66 305.983 1253.36 308.426C1249.99 310.93 1247.96 313.452 1247.39 315.133L1247.39 315.143L1247.38 315.153C1246.17 318.729 1245.2 321.732 1245.08 324.5C1244.97 326.917 1245.52 328.771 1247.28 330.487C1251.44 334.513 1256.87 335.482 1262.82 333.621L1262.84 333.616L1262.85 333.612C1272.13 330.764 1278.14 326.949 1281.58 320.149C1283.4 316.437 1283.07 314.668 1282.38 313.315C1281.35 311.299 1278.68 308.666 1272.72 304.968L1272.7 304.958L1272.69 304.947C1272.7 304.953 1272.68 304.946 1272.64 304.931C1272.38 304.829 1271.1 304.329 1268.86 304.003Z" fill="#EFF0EB"/>
<path fill-rule="evenodd" clip-rule="evenodd" d="M135.658 366.679C141.884 370.542 147.272 374.749 150.032 380.147C153.132 386.21 152.329 392.43 149.303 398.568L149.291 398.593L149.278 398.619C143.568 409.948 133.616 415.347 122.731 418.689C113.015 421.719 102.332 420.382 94.1526 412.458L94.1478 412.453C89.1651 407.616 87.7891 401.872 88.0252 396.62C88.2402 391.837 89.8124 387.21 90.9185 383.955C90.9454 383.876 90.972 383.797 90.9982 383.72C92.8314 378.276 97.4391 373.78 101.538 370.74C105.711 367.645 110.712 365.063 114.807 364.181C119.018 363.247 123.297 363.371 126.75 363.873C129.975 364.342 133.416 365.278 135.658 366.679ZM124.857 376.7C122.492 376.357 119.885 376.337 117.644 376.836L117.615 376.843L117.586 376.849C115.952 377.198 112.656 378.68 109.362 381.123C105.987 383.627 103.956 386.149 103.391 387.831L103.387 387.84L103.384 387.85C102.17 391.427 101.203 394.43 101.079 397.197C100.97 399.615 101.517 401.468 103.284 403.185C107.441 407.21 112.865 408.18 118.823 406.319L118.839 406.314L118.854 406.309C128.133 403.461 134.141 399.646 137.578 392.847C139.402 389.135 139.071 387.365 138.379 386.012C137.348 383.996 134.683 381.363 128.72 377.665L128.703 377.655L128.687 377.645C128.695 377.65 128.679 377.644 128.639 377.628C128.38 377.527 127.102 377.027 124.857 376.7Z" fill="#EFF0EB"/>
<path fill-rule="evenodd" clip-rule="evenodd" d="M311.658 366.679C317.884 370.542 323.272 374.749 326.032 380.147C329.132 386.21 328.329 392.43 325.303 398.568L325.291 398.593L325.278 398.619C319.568 409.948 309.616 415.347 298.731 418.689C289.015 421.719 278.332 420.382 270.153 412.458L270.148 412.453C265.165 407.616 263.789 401.872 264.025 396.62C264.24 391.837 265.812 387.21 266.919 383.955C266.945 383.876 266.972 383.797 266.998 383.72C268.831 378.276 273.439 373.78 277.538 370.74C281.711 367.645 286.712 365.063 290.807 364.181C295.018 363.247 299.297 363.371 302.75 363.873C305.975 364.342 309.416 365.278 311.658 366.679ZM300.857 376.7C298.492 376.357 295.885 376.337 293.644 376.836L293.615 376.843L293.586 376.849C291.952 377.198 288.656 378.68 285.362 381.123C281.987 383.627 279.956 386.149 279.391 387.831L279.387 387.84L279.384 387.85C278.17 391.427 277.203 394.43 277.079 397.197C276.97 399.615 277.517 401.468 279.284 403.185C283.441 407.21 288.865 408.18 294.823 406.319L294.839 406.314L294.854 406.309C304.133 403.461 310.141 399.646 313.578 392.847C315.402 389.135 315.071 387.365 314.379 386.012C313.348 383.996 310.683 381.363 304.72 377.665L304.703 377.655L304.687 377.645C304.695 377.65 304.679 377.644 304.639 377.628C304.38 377.527 303.102 377.027 300.857 376.7Z" fill="#EFF0EB"/>
<path fill-rule="evenodd" clip-rule="evenodd" d="M487.658 366.679C493.884 370.542 499.272 374.749 502.032 380.147C505.132 386.21 504.329 392.43 501.303 398.568L501.291 398.593L501.278 398.619C495.568 409.948 485.616 415.347 474.731 418.689C465.015 421.719 454.332 420.382 446.153 412.458L446.148 412.453C441.165 407.616 439.789 401.872 440.025 396.62C440.24 391.837 441.812 387.21 442.919 383.955C442.945 383.876 442.972 383.797 442.998 383.72C444.831 378.276 449.439 373.78 453.538 370.74C457.711 367.645 462.712 365.063 466.807 364.181C471.018 363.247 475.297 363.371 478.75 363.873C481.975 364.342 485.416 365.278 487.658 366.679ZM476.857 376.7C474.492 376.357 471.885 376.337 469.644 376.836L469.615 376.843L469.586 376.849C467.952 377.198 464.656 378.68 461.362 381.123C457.987 383.627 455.956 386.149 455.391 387.831L455.387 387.84L455.384 387.85C454.17 391.427 453.203 394.43 453.079 397.197C452.97 399.615 453.517 401.468 455.284 403.185C459.441 407.21 464.865 408.18 470.823 406.319L470.839 406.314L470.854 406.309C480.133 403.461 486.141 399.646 489.578 392.847C491.402 389.135 491.071 387.365 490.379 386.012C489.348 383.996 486.683 381.363 480.72 377.665L480.703 377.655L480.687 377.645C480.695 377.65 480.679 377.644 480.639 377.628C480.38 377.527 479.102 377.027 476.857 376.7Z" fill="#EFF0EB"/>
<path fill-rule="evenodd" clip-rule="evenodd" d="M663.658 366.679C669.884 370.542 675.272 374.749 678.032 380.147C681.132 386.21 680.329 392.43 677.303 398.568L677.291 398.593L677.278 398.619C671.568 409.948 661.616 415.347 650.731 418.689C641.015 421.719 630.332 420.382 622.153 412.458L622.148 412.453C617.165 407.616 615.789 401.872 616.025 396.62C616.24 391.837 617.812 387.21 618.919 383.955C618.945 383.876 618.972 383.797 618.998 383.72C620.831 378.276 625.439 373.78 629.538 370.74C633.711 367.645 638.712 365.063 642.807 364.181C647.018 363.247 651.297 363.371 654.75 363.873C657.975 364.342 661.416 365.278 663.658 366.679ZM652.857 376.7C650.492 376.357 647.885 376.337 645.644 376.836L645.615 376.843L645.586 376.849C643.952 377.198 640.656 378.68 637.362 381.123C633.987 383.627 631.956 386.149 631.391 387.831L631.387 387.84L631.384 387.85C630.17 391.427 629.203 394.43 629.079 397.197C628.97 399.615 629.517 401.468 631.284 403.185C635.441 407.21 640.865 408.18 646.823 406.319L646.839 406.314L646.854 406.309C656.133 403.461 662.141 399.646 665.578 392.847C667.402 389.135 667.071 387.365 666.379 386.012C665.348 383.996 662.683 381.363 656.72 377.665L656.703 377.655L656.687 377.645C656.695 377.65 656.679 377.644 656.639 377.628C656.38 377.527 655.102 377.027 652.857 376.7Z" fill="#EFF0EB"/>
<path fill-rule="evenodd" clip-rule="evenodd" d="M839.658 366.679C845.884 370.542 851.272 374.749 854.032 380.147C857.132 386.21 856.329 392.43 853.303 398.568L853.291 398.593L853.278 398.619C847.568 409.948 837.616 415.347 826.731 418.689C817.015 421.719 806.332 420.382 798.153 412.458L798.148 412.453C793.165 407.616 791.789 401.872 792.025 396.62C792.24 391.837 793.812 387.21 794.919 383.955C794.945 383.876 794.972 383.797 794.998 383.72C796.831 378.276 801.439 373.78 805.538 370.74C809.711 367.645 814.712 365.063 818.807 364.181C823.018 363.247 827.297 363.371 830.75 363.873C833.975 364.342 837.416 365.278 839.658 366.679ZM828.857 376.7C826.492 376.357 823.885 376.337 821.644 376.836L821.615 376.843L821.586 376.849C819.952 377.198 816.656 378.68 813.362 381.123C809.987 383.627 807.956 386.149 807.391 387.831L807.387 387.84L807.384 387.85C806.17 391.427 805.203 394.43 805.079 397.197C804.97 399.615 805.517 401.468 807.284 403.185C811.441 407.21 816.865 408.18 822.823 406.319L822.839 406.314L822.854 406.309C832.133 403.461 838.141 399.646 841.578 392.847C843.402 389.135 843.071 387.365 842.379 386.012C841.348 383.996 838.683 381.363 832.72 377.665L832.703 377.655L832.687 377.645C832.695 377.65 832.679 377.644 832.639 377.628C832.38 377.527 831.102 377.027 828.857 376.7Z" fill="#EFF0EB"/>
<path fill-rule="evenodd" clip-rule="evenodd" d="M1015.66 366.679C1021.88 370.542 1027.27 374.749 1030.03 380.147C1033.13 386.21 1032.33 392.43 1029.3 398.568L1029.29 398.593L1029.28 398.619C1023.57 409.948 1013.62 415.347 1002.73 418.689C993.015 421.719 982.332 420.382 974.153 412.458L974.148 412.453C969.165 407.616 967.789 401.872 968.025 396.62C968.24 391.837 969.812 387.21 970.919 383.955C970.945 383.876 970.972 383.797 970.998 383.72C972.831 378.276 977.439 373.78 981.538 370.74C985.711 367.645 990.712 365.063 994.807 364.181C999.018 363.247 1003.3 363.371 1006.75 363.873C1009.98 364.342 1013.42 365.278 1015.66 366.679ZM1004.86 376.7C1002.49 376.357 999.885 376.337 997.644 376.836L997.615 376.843L997.586 376.849C995.952 377.198 992.656 378.68 989.362 381.123C985.987 383.627 983.956 386.149 983.391 387.831L983.387 387.84L983.384 387.85C982.17 391.427 981.203 394.43 981.079 397.197C980.97 399.615 981.517 401.468 983.284 403.185C987.441 407.21 992.865 408.18 998.823 406.319L998.839 406.314L998.854 406.309C1008.13 403.461 1014.14 399.646 1017.58 392.847C1019.4 389.135 1019.07 387.365 1018.38 386.012C1017.35 383.996 1014.68 381.363 1008.72 377.665L1008.7 377.655L1008.69 377.645C1008.7 377.65 1008.68 377.644 1008.64 377.628C1008.38 377.527 1007.1 377.027 1004.86 376.7Z" fill="#EFF0EB"/>
<path fill-rule="evenodd" clip-rule="evenodd" d="M1191.66 366.679C1197.88 370.542 1203.27 374.749 1206.03 380.147C1209.13 386.21 1208.33 392.43 1205.3 398.568L1205.29 398.593L1205.28 398.619C1199.57 409.948 1189.62 415.347 1178.73 418.689C1169.01 421.719 1158.33 420.382 1150.15 412.458L1150.15 412.453C1145.17 407.616 1143.79 401.872 1144.03 396.62C1144.24 391.837 1145.81 387.21 1146.92 383.955C1146.95 383.876 1146.97 383.797 1147 383.72C1148.83 378.276 1153.44 373.78 1157.54 370.74C1161.71 367.645 1166.71 365.063 1170.81 364.181C1175.02 363.247 1179.3 363.371 1182.75 363.873C1185.98 364.342 1189.42 365.278 1191.66 366.679ZM1180.86 376.7C1178.49 376.357 1175.88 376.337 1173.64 376.836L1173.62 376.843L1173.59 376.849C1171.95 377.198 1168.66 378.68 1165.36 381.123C1161.99 383.627 1159.96 386.149 1159.39 387.831L1159.39 387.84L1159.38 387.85C1158.17 391.427 1157.2 394.43 1157.08 397.197C1156.97 399.615 1157.52 401.468 1159.28 403.185C1163.44 407.21 1168.87 408.18 1174.82 406.319L1174.84 406.314L1174.85 406.309C1184.13 403.461 1190.14 399.646 1193.58 392.847C1195.4 389.135 1195.07 387.365 1194.38 386.012C1193.35 383.996 1190.68 381.363 1184.72 377.665L1184.7 377.655L1184.69 377.645C1184.7 377.65 1184.68 377.644 1184.64 377.628C1184.38 377.527 1183.1 377.027 1180.86 376.7Z" fill="#EFF0EB"/>
<path fill-rule="evenodd" clip-rule="evenodd" d="M47.6576 439.377C53.8845 443.239 59.2718 447.446 62.0319 452.845C65.1317 458.907 64.3285 465.128 61.3032 471.265L61.2906 471.291L61.2777 471.316C55.5685 482.645 45.6156 488.044 34.7313 491.387C25.0149 494.417 14.3318 493.079 6.15261 485.155L6.14777 485.15C1.16506 480.313 -0.210894 474.569 0.0251983 469.317C0.240187 464.534 1.81241 459.907 2.91854 456.652C2.94539 456.573 2.97195 456.495 2.99822 456.417C4.83138 450.973 9.43909 446.477 13.5382 443.437C17.7108 440.342 22.7125 437.76 26.8072 436.879C31.0183 435.944 35.2966 436.069 38.7497 436.57C41.9754 437.039 45.4158 437.975 47.6576 439.377ZM36.8567 449.398C34.4918 449.054 31.885 449.034 29.6443 449.534L29.6154 449.54L29.5863 449.546C27.9518 449.895 24.656 451.377 21.3619 453.821C17.9867 456.324 15.9556 458.847 15.3907 460.528L15.3874 460.538L15.3841 460.547C14.1699 464.124 13.2033 467.127 13.0789 469.895C12.9702 472.312 13.5174 474.166 15.284 475.882C19.4408 479.907 24.8651 480.877 30.8233 479.016L30.8389 479.011L30.8544 479.006C40.1332 476.158 46.1407 472.344 49.5776 465.544C51.4019 461.832 51.0705 460.062 50.3789 458.71C49.348 456.693 46.6829 454.06 40.7196 450.362L40.7031 450.352L40.6866 450.342C40.695 450.347 40.6792 450.341 40.6393 450.325C40.3798 450.224 39.1015 449.724 36.8567 449.398Z" fill="#EFF0EB"/>
<path fill-rule="evenodd" clip-rule="evenodd" d="M223.658 439.377C229.884 443.239 235.272 447.446 238.032 452.845C241.132 458.907 240.329 465.128 237.303 471.265L237.291 471.291L237.278 471.316C231.568 482.645 221.616 488.044 210.731 491.387C201.015 494.417 190.332 493.079 182.153 485.155L182.148 485.15C177.165 480.313 175.789 474.569 176.025 469.317C176.24 464.534 177.812 459.907 178.919 456.652C178.945 456.573 178.972 456.495 178.998 456.417C180.831 450.973 185.439 446.477 189.538 443.437C193.711 440.342 198.712 437.76 202.807 436.879C207.018 435.944 211.297 436.069 214.75 436.57C217.975 437.039 221.416 437.975 223.658 439.377ZM212.857 449.398C210.492 449.054 207.885 449.034 205.644 449.534L205.615 449.54L205.586 449.546C203.952 449.895 200.656 451.377 197.362 453.821C193.987 456.324 191.956 458.847 191.391 460.528L191.387 460.538L191.384 460.547C190.17 464.124 189.203 467.127 189.079 469.895C188.97 472.312 189.517 474.166 191.284 475.882C195.441 479.907 200.865 480.877 206.823 479.016L206.839 479.011L206.854 479.006C216.133 476.158 222.141 472.344 225.578 465.544C227.402 461.832 227.071 460.062 226.379 458.71C225.348 456.693 222.683 454.06 216.72 450.362L216.703 450.352L216.687 450.342C216.695 450.347 216.679 450.341 216.639 450.325C216.38 450.224 215.102 449.724 212.857 449.398Z" fill="#EFF0EB"/>
<path fill-rule="evenodd" clip-rule="evenodd" d="M399.658 439.377C405.884 443.239 411.272 447.446 414.032 452.845C417.132 458.907 416.329 465.128 413.303 471.265L413.291 471.291L413.278 471.316C407.568 482.645 397.616 488.044 386.731 491.387C377.015 494.417 366.332 493.079 358.153 485.155L358.148 485.15C353.165 480.313 351.789 474.569 352.025 469.317C352.24 464.534 353.812 459.907 354.919 456.652C354.945 456.573 354.972 456.495 354.998 456.417C356.831 450.973 361.439 446.477 365.538 443.437C369.711 440.342 374.712 437.76 378.807 436.879C383.018 435.944 387.297 436.069 390.75 436.57C393.975 437.039 397.416 437.975 399.658 439.377ZM388.857 449.398C386.492 449.054 383.885 449.034 381.644 449.534L381.615 449.54L381.586 449.546C379.952 449.895 376.656 451.377 373.362 453.821C369.987 456.324 367.956 458.847 367.391 460.528L367.387 460.538L367.384 460.547C366.17 464.124 365.203 467.127 365.079 469.895C364.97 472.312 365.517 474.166 367.284 475.882C371.441 479.907 376.865 480.877 382.823 479.016L382.839 479.011L382.854 479.006C392.133 476.158 398.141 472.344 401.578 465.544C403.402 461.832 403.071 460.062 402.379 458.71C401.348 456.693 398.683 454.06 392.72 450.362L392.703 450.352L392.687 450.342C392.695 450.347 392.679 450.341 392.639 450.325C392.38 450.224 391.102 449.724 388.857 449.398Z" fill="#EFF0EB"/>
<path fill-rule="evenodd" clip-rule="evenodd" d="M575.658 439.377C581.884 443.239 587.272 447.446 590.032 452.845C593.132 458.907 592.329 465.128 589.303 471.265L589.291 471.291L589.278 471.316C583.568 482.645 573.616 488.044 562.731 491.387C553.015 494.417 542.332 493.079 534.153 485.155L534.148 485.15C529.165 480.313 527.789 474.569 528.025 469.317C528.24 464.534 529.812 459.907 530.919 456.652C530.945 456.573 530.972 456.495 530.998 456.417C532.831 450.973 537.439 446.477 541.538 443.437C545.711 440.342 550.712 437.76 554.807 436.879C559.018 435.944 563.297 436.069 566.75 436.57C569.975 437.039 573.416 437.975 575.658 439.377ZM564.857 449.398C562.492 449.054 559.885 449.034 557.644 449.534L557.615 449.54L557.586 449.546C555.952 449.895 552.656 451.377 549.362 453.821C545.987 456.324 543.956 458.847 543.391 460.528L543.387 460.538L543.384 460.547C542.17 464.124 541.203 467.127 541.079 469.895C540.97 472.312 541.517 474.166 543.284 475.882C547.441 479.907 552.865 480.877 558.823 479.016L558.839 479.011L558.854 479.006C568.133 476.158 574.141 472.344 577.578 465.544C579.402 461.832 579.071 460.062 578.379 458.71C577.348 456.693 574.683 454.06 568.72 450.362L568.703 450.352L568.687 450.342C568.695 450.347 568.679 450.341 568.639 450.325C568.38 450.224 567.102 449.724 564.857 449.398Z" fill="#EFF0EB"/>
<path fill-rule="evenodd" clip-rule="evenodd" d="M751.658 439.377C757.884 443.239 763.272 447.446 766.032 452.845C769.132 458.907 768.329 465.128 765.303 471.265L765.291 471.291L765.278 471.316C759.568 482.645 749.616 488.044 738.731 491.387C729.015 494.417 718.332 493.079 710.153 485.155L710.148 485.15C705.165 480.313 703.789 474.569 704.025 469.317C704.24 464.534 705.812 459.907 706.919 456.652C706.945 456.573 706.972 456.495 706.998 456.417C708.831 450.973 713.439 446.477 717.538 443.437C721.711 440.342 726.712 437.76 730.807 436.879C735.018 435.944 739.297 436.069 742.75 436.57C745.975 437.039 749.416 437.975 751.658 439.377ZM740.857 449.398C738.492 449.054 735.885 449.034 733.644 449.534L733.615 449.54L733.586 449.546C731.952 449.895 728.656 451.377 725.362 453.821C721.987 456.324 719.956 458.847 719.391 460.528L719.387 460.538L719.384 460.547C718.17 464.124 717.203 467.127 717.079 469.895C716.97 472.312 717.517 474.166 719.284 475.882C723.441 479.907 728.865 480.877 734.823 479.016L734.839 479.011L734.854 479.006C744.133 476.158 750.141 472.344 753.578 465.544C755.402 461.832 755.071 460.062 754.379 458.71C753.348 456.693 750.683 454.06 744.72 450.362L744.703 450.352L744.687 450.342C744.695 450.347 744.679 450.341 744.639 450.325C744.38 450.224 743.102 449.724 740.857 449.398Z" fill="#EFF0EB"/>
<path fill-rule="evenodd" clip-rule="evenodd" d="M927.658 439.377C933.884 443.239 939.272 447.446 942.032 452.845C945.132 458.907 944.329 465.128 941.303 471.265L941.291 471.291L941.278 471.316C935.568 482.645 925.616 488.044 914.731 491.387C905.015 494.417 894.332 493.079 886.153 485.155L886.148 485.15C881.165 480.313 879.789 474.569 880.025 469.317C880.24 464.534 881.812 459.907 882.919 456.652C882.945 456.573 882.972 456.495 882.998 456.417C884.831 450.973 889.439 446.477 893.538 443.437C897.711 440.342 902.712 437.76 906.807 436.879C911.018 435.944 915.297 436.069 918.75 436.57C921.975 437.039 925.416 437.975 927.658 439.377ZM916.857 449.398C914.492 449.054 911.885 449.034 909.644 449.534L909.615 449.54L909.586 449.546C907.952 449.895 904.656 451.377 901.362 453.821C897.987 456.324 895.956 458.847 895.391 460.528L895.387 460.538L895.384 460.547C894.17 464.124 893.203 467.127 893.079 469.895C892.97 472.312 893.517 474.166 895.284 475.882C899.441 479.907 904.865 480.877 910.823 479.016L910.839 479.011L910.854 479.006C920.133 476.158 926.141 472.344 929.578 465.544C931.402 461.832 931.071 460.062 930.379 458.71C929.348 456.693 926.683 454.06 920.72 450.362L920.703 450.352L920.687 450.342C920.695 450.347 920.679 450.341 920.639 450.325C920.38 450.224 919.102 449.724 916.857 449.398Z" fill="#EFF0EB"/>
<path fill-rule="evenodd" clip-rule="evenodd" d="M1103.66 439.377C1109.88 443.239 1115.27 447.446 1118.03 452.845C1121.13 458.907 1120.33 465.128 1117.3 471.265L1117.29 471.291L1117.28 471.316C1111.57 482.645 1101.62 488.044 1090.73 491.387C1081.01 494.417 1070.33 493.079 1062.15 485.155L1062.15 485.15C1057.17 480.313 1055.79 474.569 1056.03 469.317C1056.24 464.534 1057.81 459.907 1058.92 456.652C1058.95 456.573 1058.97 456.495 1059 456.417C1060.83 450.973 1065.44 446.477 1069.54 443.437C1073.71 440.342 1078.71 437.76 1082.81 436.879C1087.02 435.944 1091.3 436.069 1094.75 436.57C1097.98 437.039 1101.42 437.975 1103.66 439.377ZM1092.86 449.398C1090.49 449.054 1087.88 449.034 1085.64 449.534L1085.62 449.54L1085.59 449.546C1083.95 449.895 1080.66 451.377 1077.36 453.821C1073.99 456.324 1071.96 458.847 1071.39 460.528L1071.39 460.538L1071.38 460.547C1070.17 464.124 1069.2 467.127 1069.08 469.895C1068.97 472.312 1069.52 474.166 1071.28 475.882C1075.44 479.907 1080.87 480.877 1086.82 479.016L1086.84 479.011L1086.85 479.006C1096.13 476.158 1102.14 472.344 1105.58 465.544C1107.4 461.832 1107.07 460.062 1106.38 458.71C1105.35 456.693 1102.68 454.06 1096.72 450.362L1096.7 450.352L1096.69 450.342C1096.7 450.347 1096.68 450.341 1096.64 450.325C1096.38 450.224 1095.1 449.724 1092.86 449.398Z" fill="#EFF0EB"/>
<path fill-rule="evenodd" clip-rule="evenodd" d="M1279.66 439.377C1285.88 443.239 1291.27 447.446 1294.03 452.845C1297.13 458.907 1296.33 465.128 1293.3 471.265L1293.29 471.291L1293.28 471.316C1287.57 482.645 1277.62 488.044 1266.73 491.387C1257.01 494.417 1246.33 493.079 1238.15 485.155L1238.15 485.15C1233.17 480.313 1231.79 474.569 1232.03 469.317C1232.24 464.534 1233.81 459.907 1234.92 456.652C1234.95 456.573 1234.97 456.495 1235 456.417C1236.83 450.973 1241.44 446.477 1245.54 443.437C1249.71 440.342 1254.71 437.76 1258.81 436.879C1263.02 435.944 1267.3 436.069 1270.75 436.57C1273.98 437.039 1277.42 437.975 1279.66 439.377ZM1268.86 449.398C1266.49 449.054 1263.88 449.034 1261.64 449.534L1261.62 449.54L1261.59 449.546C1259.95 449.895 1256.66 451.377 1253.36 453.821C1249.99 456.324 1247.96 458.847 1247.39 460.528L1247.39 460.538L1247.38 460.547C1246.17 464.124 1245.2 467.127 1245.08 469.895C1244.97 472.312 1245.52 474.166 1247.28 475.882C1251.44 479.907 1256.87 480.877 1262.82 479.016L1262.84 479.011L1262.85 479.006C1272.13 476.158 1278.14 472.344 1281.58 465.544C1283.4 461.832 1283.07 460.062 1282.38 458.71C1281.35 456.693 1278.68 454.06 1272.72 450.362L1272.7 450.352L1272.69 450.342C1272.7 450.347 1272.68 450.341 1272.64 450.325C1272.38 450.224 1271.1 449.724 1268.86 449.398Z" fill="#EFF0EB"/>
<path fill-rule="evenodd" clip-rule="evenodd" d="M135.658 512.074C141.884 515.936 147.272 520.144 150.032 525.542C153.132 531.605 152.329 537.825 149.303 543.962L149.291 543.988L149.278 544.014C143.568 555.343 133.616 560.741 122.731 564.084C113.015 567.114 102.332 565.777 94.1526 557.852L94.1478 557.848C89.1651 553.01 87.7891 547.266 88.0252 542.014C88.2402 537.232 89.8124 532.605 90.9185 529.349C90.9454 529.27 90.972 529.192 90.9982 529.115C92.8314 523.671 97.4391 519.175 101.538 516.134C105.711 513.04 110.712 510.458 114.807 509.576C119.018 508.642 123.297 508.766 126.75 509.268C129.975 509.736 133.416 510.673 135.658 512.074ZM124.857 522.095C122.492 521.752 119.885 521.731 117.644 522.231L117.615 522.237L117.586 522.243C115.952 522.592 112.656 524.075 109.362 526.518C105.987 529.021 103.956 531.544 103.391 533.225L103.387 533.235L103.384 533.245C102.17 536.821 101.203 539.824 101.079 542.592C100.97 545.009 101.517 546.863 103.284 548.579C107.441 552.605 112.865 553.574 118.823 551.713L118.839 551.708L118.854 551.704C128.133 548.856 134.141 545.041 137.578 538.241C139.402 534.529 139.071 532.76 138.379 531.407C137.348 529.391 134.683 526.758 128.72 523.06L128.703 523.05L128.687 523.039C128.695 523.045 128.679 523.038 128.639 523.023C128.38 522.921 127.102 522.421 124.857 522.095Z" fill="#EFF0EB"/>
<path fill-rule="evenodd" clip-rule="evenodd" d="M311.658 512.074C317.884 515.936 323.272 520.144 326.032 525.542C329.132 531.605 328.329 537.825 325.303 543.962L325.291 543.988L325.278 544.014C319.568 555.343 309.616 560.741 298.731 564.084C289.015 567.114 278.332 565.777 270.153 557.852L270.148 557.848C265.165 553.01 263.789 547.266 264.025 542.014C264.24 537.232 265.812 532.605 266.919 529.349C266.945 529.27 266.972 529.192 266.998 529.115C268.831 523.671 273.439 519.175 277.538 516.134C281.711 513.04 286.712 510.458 290.807 509.576C295.018 508.642 299.297 508.766 302.75 509.268C305.975 509.736 309.416 510.673 311.658 512.074ZM300.857 522.095C298.492 521.752 295.885 521.731 293.644 522.231L293.615 522.237L293.586 522.243C291.952 522.592 288.656 524.075 285.362 526.518C281.987 529.021 279.956 531.544 279.391 533.225L279.387 533.235L279.384 533.245C278.17 536.821 277.203 539.824 277.079 542.592C276.97 545.009 277.517 546.863 279.284 548.579C283.441 552.605 288.865 553.574 294.823 551.713L294.839 551.708L294.854 551.704C304.133 548.856 310.141 545.041 313.578 538.241C315.402 534.529 315.071 532.76 314.379 531.407C313.348 529.391 310.683 526.758 304.72 523.06L304.703 523.05L304.687 523.039C304.695 523.045 304.679 523.038 304.639 523.023C304.38 522.921 303.102 522.421 300.857 522.095Z" fill="#EFF0EB"/>
<path fill-rule="evenodd" clip-rule="evenodd" d="M487.658 512.074C493.884 515.936 499.272 520.144 502.032 525.542C505.132 531.605 504.329 537.825 501.303 543.962L501.291 543.988L501.278 544.014C495.568 555.343 485.616 560.741 474.731 564.084C465.015 567.114 454.332 565.777 446.153 557.852L446.148 557.848C441.165 553.01 439.789 547.266 440.025 542.014C440.24 537.232 441.812 532.605 442.919 529.349C442.945 529.27 442.972 529.192 442.998 529.115C444.831 523.671 449.439 519.175 453.538 516.134C457.711 513.04 462.712 510.458 466.807 509.576C471.018 508.642 475.297 508.766 478.75 509.268C481.975 509.736 485.416 510.673 487.658 512.074ZM476.857 522.095C474.492 521.752 471.885 521.731 469.644 522.231L469.615 522.237L469.586 522.243C467.952 522.592 464.656 524.075 461.362 526.518C457.987 529.021 455.956 531.544 455.391 533.225L455.387 533.235L455.384 533.245C454.17 536.821 453.203 539.824 453.079 542.592C452.97 545.009 453.517 546.863 455.284 548.579C459.441 552.605 464.865 553.574 470.823 551.713L470.839 551.708L470.854 551.704C480.133 548.856 486.141 545.041 489.578 538.241C491.402 534.529 491.071 532.76 490.379 531.407C489.348 529.391 486.683 526.758 480.72 523.06L480.703 523.05L480.687 523.039C480.695 523.045 480.679 523.038 480.639 523.023C480.38 522.921 479.102 522.421 476.857 522.095Z" fill="#EFF0EB"/>
<path fill-rule="evenodd" clip-rule="evenodd" d="M663.658 512.074C669.884 515.936 675.272 520.144 678.032 525.542C681.132 531.605 680.329 537.825 677.303 543.962L677.291 543.988L677.278 544.014C671.568 555.343 661.616 560.741 650.731 564.084C641.015 567.114 630.332 565.777 622.153 557.852L622.148 557.848C617.165 553.01 615.789 547.266 616.025 542.014C616.24 537.232 617.812 532.605 618.919 529.349C618.945 529.27 618.972 529.192 618.998 529.115C620.831 523.671 625.439 519.175 629.538 516.134C633.711 513.04 638.712 510.458 642.807 509.576C647.018 508.642 651.297 508.766 654.75 509.268C657.975 509.736 661.416 510.673 663.658 512.074ZM652.857 522.095C650.492 521.752 647.885 521.731 645.644 522.231L645.615 522.237L645.586 522.243C643.952 522.592 640.656 524.075 637.362 526.518C633.987 529.021 631.956 531.544 631.391 533.225L631.387 533.235L631.384 533.245C630.17 536.821 629.203 539.824 629.079 542.592C628.97 545.009 629.517 546.863 631.284 548.579C635.441 552.605 640.865 553.574 646.823 551.713L646.839 551.708L646.854 551.704C656.133 548.856 662.141 545.041 665.578 538.241C667.402 534.529 667.071 532.76 666.379 531.407C665.348 529.391 662.683 526.758 656.72 523.06L656.703 523.05L656.687 523.039C656.695 523.045 656.679 523.038 656.639 523.023C656.38 522.921 655.102 522.421 652.857 522.095Z" fill="#EFF0EB"/>
<path fill-rule="evenodd" clip-rule="evenodd" d="M839.658 512.074C845.884 515.936 851.272 520.144 854.032 525.542C857.132 531.605 856.329 537.825 853.303 543.962L853.291 543.988L853.278 544.014C847.568 555.343 837.616 560.741 826.731 564.084C817.015 567.114 806.332 565.777 798.153 557.852L798.148 557.848C793.165 553.01 791.789 547.266 792.025 542.014C792.24 537.232 793.812 532.605 794.919 529.349C794.945 529.27 794.972 529.192 794.998 529.115C796.831 523.671 801.439 519.175 805.538 516.134C809.711 513.04 814.712 510.458 818.807 509.576C823.018 508.642 827.297 508.766 830.75 509.268C833.975 509.736 837.416 510.673 839.658 512.074ZM828.857 522.095C826.492 521.752 823.885 521.731 821.644 522.231L821.615 522.237L821.586 522.243C819.952 522.592 816.656 524.075 813.362 526.518C809.987 529.021 807.956 531.544 807.391 533.225L807.387 533.235L807.384 533.245C806.17 536.821 805.203 539.824 805.079 542.592C804.97 545.009 805.517 546.863 807.284 548.579C811.441 552.605 816.865 553.574 822.823 551.713L822.839 551.708L822.854 551.704C832.133 548.856 838.141 545.041 841.578 538.241C843.402 534.529 843.071 532.76 842.379 531.407C841.348 529.391 838.683 526.758 832.72 523.06L832.703 523.05L832.687 523.039C832.695 523.045 832.679 523.038 832.639 523.023C832.38 522.921 831.102 522.421 828.857 522.095Z" fill="#EFF0EB"/>
<path fill-rule="evenodd" clip-rule="evenodd" d="M1015.66 512.074C1021.88 515.936 1027.27 520.144 1030.03 525.542C1033.13 531.605 1032.33 537.825 1029.3 543.962L1029.29 543.988L1029.28 544.014C1023.57 555.343 1013.62 560.741 1002.73 564.084C993.015 567.114 982.332 565.777 974.153 557.852L974.148 557.848C969.165 553.01 967.789 547.266 968.025 542.014C968.24 537.232 969.812 532.605 970.919 529.349C970.945 529.27 970.972 529.192 970.998 529.115C972.831 523.671 977.439 519.175 981.538 516.134C985.711 513.04 990.712 510.458 994.807 509.576C999.018 508.642 1003.3 508.766 1006.75 509.268C1009.98 509.736 1013.42 510.673 1015.66 512.074ZM1004.86 522.095C1002.49 521.752 999.885 521.731 997.644 522.231L997.615 522.237L997.586 522.243C995.952 522.592 992.656 524.075 989.362 526.518C985.987 529.021 983.956 531.544 983.391 533.225L983.387 533.235L983.384 533.245C982.17 536.821 981.203 539.824 981.079 542.592C980.97 545.009 981.517 546.863 983.284 548.579C987.441 552.605 992.865 553.574 998.823 551.713L998.839 551.708L998.854 551.704C1008.13 548.856 1014.14 545.041 1017.58 538.241C1019.4 534.529 1019.07 532.76 1018.38 531.407C1017.35 529.391 1014.68 526.758 1008.72 523.06L1008.7 523.05L1008.69 523.039C1008.7 523.045 1008.68 523.038 1008.64 523.023C1008.38 522.921 1007.1 522.421 1004.86 522.095Z" fill="#EFF0EB"/>
<path fill-rule="evenodd" clip-rule="evenodd" d="M1191.66 512.074C1197.88 515.936 1203.27 520.144 1206.03 525.542C1209.13 531.605 1208.33 537.825 1205.3 543.962L1205.29 543.988L1205.28 544.014C1199.57 555.343 1189.62 560.741 1178.73 564.084C1169.01 567.114 1158.33 565.777 1150.15 557.852L1150.15 557.848C1145.17 553.01 1143.79 547.266 1144.03 542.014C1144.24 537.232 1145.81 532.605 1146.92 529.349C1146.95 529.27 1146.97 529.192 1147 529.115C1148.83 523.671 1153.44 519.175 1157.54 516.134C1161.71 513.04 1166.71 510.458 1170.81 509.576C1175.02 508.642 1179.3 508.766 1182.75 509.268C1185.98 509.736 1189.42 510.673 1191.66 512.074ZM1180.86 522.095C1178.49 521.752 1175.88 521.731 1173.64 522.231L1173.62 522.237L1173.59 522.243C1171.95 522.592 1168.66 524.075 1165.36 526.518C1161.99 529.021 1159.96 531.544 1159.39 533.225L1159.39 533.235L1159.38 533.245C1158.17 536.821 1157.2 539.824 1157.08 542.592C1156.97 545.009 1157.52 546.863 1159.28 548.579C1163.44 552.605 1168.87 553.574 1174.82 551.713L1174.84 551.708L1174.85 551.704C1184.13 548.856 1190.14 545.041 1193.58 538.241C1195.4 534.529 1195.07 532.76 1194.38 531.407C1193.35 529.391 1190.68 526.758 1184.72 523.06L1184.7 523.05L1184.69 523.039C1184.7 523.045 1184.68 523.038 1184.64 523.023C1184.38 522.921 1183.1 522.421 1180.86 522.095Z" fill="#EFF0EB"/>
<path fill-rule="evenodd" clip-rule="evenodd" d="M47.6576 584.771C53.8845 588.634 59.2718 592.841 62.0319 598.239C65.1317 604.302 64.3285 610.522 61.3032 616.66L61.2906 616.685L61.2777 616.711C55.5685 628.04 45.6156 633.438 34.7313 636.781C25.0149 639.811 14.3318 638.474 6.15261 630.55L6.14777 630.545C1.16506 625.708 -0.210894 619.964 0.0251983 614.712C0.240187 609.929 1.81241 605.302 2.91854 602.046C2.94539 601.967 2.97195 601.889 2.99822 601.812C4.83138 596.368 9.43909 591.872 13.5382 588.832C17.7108 585.737 22.7125 583.155 26.8072 582.273C31.0183 581.339 35.2966 581.463 38.7497 581.965C41.9754 582.434 45.4158 583.37 47.6576 584.771ZM36.8567 594.792C34.4918 594.449 31.885 594.429 29.6443 594.928L29.6154 594.935L29.5863 594.941C27.9518 595.29 24.656 596.772 21.3619 599.215C17.9867 601.719 15.9556 604.241 15.3907 605.923L15.3874 605.932L15.3841 605.942C14.1699 609.518 13.2033 612.521 13.0789 615.289C12.9702 617.707 13.5174 619.56 15.284 621.277C19.4408 625.302 24.8651 626.272 30.8233 624.41L30.8389 624.406L30.8544 624.401C40.1332 621.553 46.1407 617.738 49.5776 610.939C51.4019 607.227 51.0705 605.457 50.3789 604.104C49.348 602.088 46.6829 599.455 40.7196 595.757L40.7031 595.747L40.6866 595.736C40.695 595.742 40.6792 595.736 40.6393 595.72C40.3798 595.618 39.1015 595.118 36.8567 594.792Z" fill="#EFF0EB"/>
<path fill-rule="evenodd" clip-rule="evenodd" d="M223.658 584.771C229.884 588.634 235.272 592.841 238.032 598.239C241.132 604.302 240.329 610.522 237.303 616.66L237.291 616.685L237.278 616.711C231.568 628.04 221.616 633.438 210.731 636.781C201.015 639.811 190.332 638.474 182.153 630.55L182.148 630.545C177.165 625.708 175.789 619.964 176.025 614.712C176.24 609.929 177.812 605.302 178.919 602.046C178.945 601.967 178.972 601.889 178.998 601.812C180.831 596.368 185.439 591.872 189.538 588.832C193.711 585.737 198.712 583.155 202.807 582.273C207.018 581.339 211.297 581.463 214.75 581.965C217.975 582.434 221.416 583.37 223.658 584.771ZM212.857 594.792C210.492 594.449 207.885 594.429 205.644 594.928L205.615 594.935L205.586 594.941C203.952 595.29 200.656 596.772 197.362 599.215C193.987 601.719 191.956 604.241 191.391 605.923L191.387 605.932L191.384 605.942C190.17 609.518 189.203 612.521 189.079 615.289C188.97 617.707 189.517 619.56 191.284 621.277C195.441 625.302 200.865 626.272 206.823 624.41L206.839 624.406L206.854 624.401C216.133 621.553 222.141 617.738 225.578 610.939C227.402 607.227 227.071 605.457 226.379 604.104C225.348 602.088 222.683 599.455 216.72 595.757L216.703 595.747L216.687 595.736C216.695 595.742 216.679 595.736 216.639 595.72C216.38 595.618 215.102 595.118 212.857 594.792Z" fill="#EFF0EB"/>
<path fill-rule="evenodd" clip-rule="evenodd" d="M399.658 584.771C405.884 588.634 411.272 592.841 414.032 598.239C417.132 604.302 416.329 610.522 413.303 616.66L413.291 616.685L413.278 616.711C407.568 628.04 397.616 633.438 386.731 636.781C377.015 639.811 366.332 638.474 358.153 630.55L358.148 630.545C353.165 625.708 351.789 619.964 352.025 614.712C352.24 609.929 353.812 605.302 354.919 602.046C354.945 601.967 354.972 601.889 354.998 601.812C356.831 596.368 361.439 591.872 365.538 588.832C369.711 585.737 374.712 583.155 378.807 582.273C383.018 581.339 387.297 581.463 390.75 581.965C393.975 582.434 397.416 583.37 399.658 584.771ZM388.857 594.792C386.492 594.449 383.885 594.429 381.644 594.928L381.615 594.935L381.586 594.941C379.952 595.29 376.656 596.772 373.362 599.215C369.987 601.719 367.956 604.241 367.391 605.923L367.387 605.932L367.384 605.942C366.17 609.518 365.203 612.521 365.079 615.289C364.97 617.707 365.517 619.56 367.284 621.277C371.441 625.302 376.865 626.272 382.823 624.41L382.839 624.406L382.854 624.401C392.133 621.553 398.141 617.738 401.578 610.939C403.402 607.227 403.071 605.457 402.379 604.104C401.348 602.088 398.683 599.455 392.72 595.757L392.703 595.747L392.687 595.736C392.695 595.742 392.679 595.736 392.639 595.72C392.38 595.618 391.102 595.118 388.857 594.792Z" fill="#EFF0EB"/>
<path fill-rule="evenodd" clip-rule="evenodd" d="M575.658 584.771C581.884 588.634 587.272 592.841 590.032 598.239C593.132 604.302 592.329 610.522 589.303 616.66L589.291 616.685L589.278 616.711C583.568 628.04 573.616 633.438 562.731 636.781C553.015 639.811 542.332 638.474 534.153 630.55L534.148 630.545C529.165 625.708 527.789 619.964 528.025 614.712C528.24 609.929 529.812 605.302 530.919 602.046C530.945 601.967 530.972 601.889 530.998 601.812C532.831 596.368 537.439 591.872 541.538 588.832C545.711 585.737 550.712 583.155 554.807 582.273C559.018 581.339 563.297 581.463 566.75 581.965C569.975 582.434 573.416 583.37 575.658 584.771ZM564.857 594.792C562.492 594.449 559.885 594.429 557.644 594.928L557.615 594.935L557.586 594.941C555.952 595.29 552.656 596.772 549.362 599.215C545.987 601.719 543.956 604.241 543.391 605.923L543.387 605.932L543.384 605.942C542.17 609.518 541.203 612.521 541.079 615.289C540.97 617.707 541.517 619.56 543.284 621.277C547.441 625.302 552.865 626.272 558.823 624.41L558.839 624.406L558.854 624.401C568.133 621.553 574.141 617.738 577.578 610.939C579.402 607.227 579.071 605.457 578.379 604.104C577.348 602.088 574.683 599.455 568.72 595.757L568.703 595.747L568.687 595.736C568.695 595.742 568.679 595.736 568.639 595.72C568.38 595.618 567.102 595.118 564.857 594.792Z" fill="#EFF0EB"/>
<path fill-rule="evenodd" clip-rule="evenodd" d="M751.658 584.771C757.884 588.634 763.272 592.841 766.032 598.239C769.132 604.302 768.329 610.522 765.303 616.66L765.291 616.685L765.278 616.711C759.568 628.04 749.616 633.438 738.731 636.781C729.015 639.811 718.332 638.474 710.153 630.55L710.148 630.545C705.165 625.708 703.789 619.964 704.025 614.712C704.24 609.929 705.812 605.302 706.919 602.046C706.945 601.967 706.972 601.889 706.998 601.812C708.831 596.368 713.439 591.872 717.538 588.832C721.711 585.737 726.712 583.155 730.807 582.273C735.018 581.339 739.297 581.463 742.75 581.965C745.975 582.434 749.416 583.37 751.658 584.771ZM740.857 594.792C738.492 594.449 735.885 594.429 733.644 594.928L733.615 594.935L733.586 594.941C731.952 595.29 728.656 596.772 725.362 599.215C721.987 601.719 719.956 604.241 719.391 605.923L719.387 605.932L719.384 605.942C718.17 609.518 717.203 612.521 717.079 615.289C716.97 617.707 717.517 619.56 719.284 621.277C723.441 625.302 728.865 626.272 734.823 624.41L734.839 624.406L734.854 624.401C744.133 621.553 750.141 617.738 753.578 610.939C755.402 607.227 755.071 605.457 754.379 604.104C753.348 602.088 750.683 599.455 744.72 595.757L744.703 595.747L744.687 595.736C744.695 595.742 744.679 595.736 744.639 595.72C744.38 595.618 743.102 595.118 740.857 594.792Z" fill="#EFF0EB"/>
<path fill-rule="evenodd" clip-rule="evenodd" d="M927.658 584.771C933.884 588.634 939.272 592.841 942.032 598.239C945.132 604.302 944.329 610.522 941.303 616.66L941.291 616.685L941.278 616.711C935.568 628.04 925.616 633.438 914.731 636.781C905.015 639.811 894.332 638.474 886.153 630.55L886.148 630.545C881.165 625.708 879.789 619.964 880.025 614.712C880.24 609.929 881.812 605.302 882.919 602.046C882.945 601.967 882.972 601.889 882.998 601.812C884.831 596.368 889.439 591.872 893.538 588.832C897.711 585.737 902.712 583.155 906.807 582.273C911.018 581.339 915.297 581.463 918.75 581.965C921.975 582.434 925.416 583.37 927.658 584.771ZM916.857 594.792C914.492 594.449 911.885 594.429 909.644 594.928L909.615 594.935L909.586 594.941C907.952 595.29 904.656 596.772 901.362 599.215C897.987 601.719 895.956 604.241 895.391 605.923L895.387 605.932L895.384 605.942C894.17 609.518 893.203 612.521 893.079 615.289C892.97 617.707 893.517 619.56 895.284 621.277C899.441 625.302 904.865 626.272 910.823 624.41L910.839 624.406L910.854 624.401C920.133 621.553 926.141 617.738 929.578 610.939C931.402 607.227 931.071 605.457 930.379 604.104C929.348 602.088 926.683 599.455 920.72 595.757L920.703 595.747L920.687 595.736C920.695 595.742 920.679 595.736 920.639 595.72C920.38 595.618 919.102 595.118 916.857 594.792Z" fill="#EFF0EB"/>
<path fill-rule="evenodd" clip-rule="evenodd" d="M1103.66 584.771C1109.88 588.634 1115.27 592.841 1118.03 598.239C1121.13 604.302 1120.33 610.522 1117.3 616.66L1117.29 616.685L1117.28 616.711C1111.57 628.04 1101.62 633.438 1090.73 636.781C1081.01 639.811 1070.33 638.474 1062.15 630.55L1062.15 630.545C1057.17 625.708 1055.79 619.964 1056.03 614.712C1056.24 609.929 1057.81 605.302 1058.92 602.046C1058.95 601.967 1058.97 601.889 1059 601.812C1060.83 596.368 1065.44 591.872 1069.54 588.832C1073.71 585.737 1078.71 583.155 1082.81 582.273C1087.02 581.339 1091.3 581.463 1094.75 581.965C1097.98 582.434 1101.42 583.37 1103.66 584.771ZM1092.86 594.792C1090.49 594.449 1087.88 594.429 1085.64 594.928L1085.62 594.935L1085.59 594.941C1083.95 595.29 1080.66 596.772 1077.36 599.215C1073.99 601.719 1071.96 604.241 1071.39 605.923L1071.39 605.932L1071.38 605.942C1070.17 609.518 1069.2 612.521 1069.08 615.289C1068.97 617.707 1069.52 619.56 1071.28 621.277C1075.44 625.302 1080.87 626.272 1086.82 624.41L1086.84 624.406L1086.85 624.401C1096.13 621.553 1102.14 617.738 1105.58 610.939C1107.4 607.227 1107.07 605.457 1106.38 604.104C1105.35 602.088 1102.68 599.455 1096.72 595.757L1096.7 595.747L1096.69 595.736C1096.7 595.742 1096.68 595.736 1096.64 595.72C1096.38 595.618 1095.1 595.118 1092.86 594.792Z" fill="#EFF0EB"/>
<path fill-rule="evenodd" clip-rule="evenodd" d="M1279.66 584.771C1285.88 588.634 1291.27 592.841 1294.03 598.239C1297.13 604.302 1296.33 610.522 1293.3 616.66L1293.29 616.685L1293.28 616.711C1287.57 628.04 1277.62 633.438 1266.73 636.781C1257.01 639.811 1246.33 638.474 1238.15 630.55L1238.15 630.545C1233.17 625.708 1231.79 619.964 1232.03 614.712C1232.24 609.929 1233.81 605.302 1234.92 602.046C1234.95 601.967 1234.97 601.889 1235 601.812C1236.83 596.368 1241.44 591.872 1245.54 588.832C1249.71 585.737 1254.71 583.155 1258.81 582.273C1263.02 581.339 1267.3 581.463 1270.75 581.965C1273.98 582.434 1277.42 583.37 1279.66 584.771ZM1268.86 594.792C1266.49 594.449 1263.88 594.429 1261.64 594.928L1261.62 594.935L1261.59 594.941C1259.95 595.29 1256.66 596.772 1253.36 599.215C1249.99 601.719 1247.96 604.241 1247.39 605.923L1247.39 605.932L1247.38 605.942C1246.17 609.518 1245.2 612.521 1245.08 615.289C1244.97 617.707 1245.52 619.56 1247.28 621.277C1251.44 625.302 1256.87 626.272 1262.82 624.41L1262.84 624.406L1262.85 624.401C1272.13 621.553 1278.14 617.738 1281.58 610.939C1283.4 607.227 1283.07 605.457 1282.38 604.104C1281.35 602.088 1278.68 599.455 1272.72 595.757L1272.7 595.747L1272.69 595.736C1272.7 595.742 1272.68 595.736 1272.64 595.72C1272.38 595.618 1271.1 595.118 1268.86 594.792Z" fill="#EFF0EB"/>
<path fill-rule="evenodd" clip-rule="evenodd" d="M135.658 657.469C141.884 661.331 147.272 665.538 150.032 670.937C153.132 676.999 152.329 683.219 149.303 689.357L149.291 689.383L149.278 689.408C143.568 700.737 133.616 706.136 122.731 709.479C113.015 712.509 102.332 711.171 94.1526 703.247L94.1478 703.242C89.1651 698.405 87.7891 692.661 88.0252 687.409C88.2402 682.626 89.8124 677.999 90.9185 674.744C90.9454 674.665 90.972 674.587 90.9982 674.509C92.8314 669.065 97.4391 664.569 101.538 661.529C105.711 658.434 110.712 655.852 114.807 654.97C119.018 654.036 123.297 654.161 126.75 654.662C129.975 655.131 133.416 656.067 135.658 657.469ZM124.857 667.49C122.492 667.146 119.885 667.126 117.644 667.625L117.615 667.632L117.586 667.638C115.952 667.987 112.656 669.469 109.362 671.913C105.987 674.416 103.956 676.938 103.391 678.62L103.387 678.63L103.384 678.639C102.17 682.216 101.203 685.219 101.079 687.987C100.97 690.404 101.517 692.258 103.284 693.974C107.441 697.999 112.865 698.969 118.823 697.108L118.839 697.103L118.854 697.098C128.133 694.25 134.141 690.436 137.578 683.636C139.402 679.924 139.071 678.154 138.379 676.802C137.348 674.785 134.683 672.152 128.72 668.454L128.703 668.444L128.687 668.434C128.695 668.439 128.679 668.433 128.639 668.417C128.38 668.316 127.102 667.816 124.857 667.49Z" fill="#EFF0EB"/>
<path fill-rule="evenodd" clip-rule="evenodd" d="M311.658 657.469C317.884 661.331 323.272 665.538 326.032 670.937C329.132 676.999 328.329 683.219 325.303 689.357L325.291 689.383L325.278 689.408C319.568 700.737 309.616 706.136 298.731 709.479C289.015 712.509 278.332 711.171 270.153 703.247L270.148 703.242C265.165 698.405 263.789 692.661 264.025 687.409C264.24 682.626 265.812 677.999 266.919 674.744C266.945 674.665 266.972 674.587 266.998 674.509C268.831 669.065 273.439 664.569 277.538 661.529C281.711 658.434 286.712 655.852 290.807 654.97C295.018 654.036 299.297 654.161 302.75 654.662C305.975 655.131 309.416 656.067 311.658 657.469ZM300.857 667.49C298.492 667.146 295.885 667.126 293.644 667.625L293.615 667.632L293.586 667.638C291.952 667.987 288.656 669.469 285.362 671.913C281.987 674.416 279.956 676.938 279.391 678.62L279.387 678.63L279.384 678.639C278.17 682.216 277.203 685.219 277.079 687.987C276.97 690.404 277.517 692.258 279.284 693.974C283.441 697.999 288.865 698.969 294.823 697.108L294.839 697.103L294.854 697.098C304.133 694.25 310.141 690.436 313.578 683.636C315.402 679.924 315.071 678.154 314.379 676.802C313.348 674.785 310.683 672.152 304.72 668.454L304.703 668.444L304.687 668.434C304.695 668.439 304.679 668.433 304.639 668.417C304.38 668.316 303.102 667.816 300.857 667.49Z" fill="#EFF0EB"/>
<path fill-rule="evenodd" clip-rule="evenodd" d="M487.658 657.469C493.884 661.331 499.272 665.538 502.032 670.937C505.132 676.999 504.329 683.219 501.303 689.357L501.291 689.383L501.278 689.408C495.568 700.737 485.616 706.136 474.731 709.479C465.015 712.509 454.332 711.171 446.153 703.247L446.148 703.242C441.165 698.405 439.789 692.661 440.025 687.409C440.24 682.626 441.812 677.999 442.919 674.744C442.945 674.665 442.972 674.587 442.998 674.509C444.831 669.065 449.439 664.569 453.538 661.529C457.711 658.434 462.712 655.852 466.807 654.97C471.018 654.036 475.297 654.161 478.75 654.662C481.975 655.131 485.416 656.067 487.658 657.469ZM476.857 667.49C474.492 667.146 471.885 667.126 469.644 667.625L469.615 667.632L469.586 667.638C467.952 667.987 464.656 669.469 461.362 671.913C457.987 674.416 455.956 676.938 455.391 678.62L455.387 678.63L455.384 678.639C454.17 682.216 453.203 685.219 453.079 687.987C452.97 690.404 453.517 692.258 455.284 693.974C459.441 697.999 464.865 698.969 470.823 697.108L470.839 697.103L470.854 697.098C480.133 694.25 486.141 690.436 489.578 683.636C491.402 679.924 491.071 678.154 490.379 676.802C489.348 674.785 486.683 672.152 480.72 668.454L480.703 668.444L480.687 668.434C480.695 668.439 480.679 668.433 480.639 668.417C480.38 668.316 479.102 667.816 476.857 667.49Z" fill="#EFF0EB"/>
<path fill-rule="evenodd" clip-rule="evenodd" d="M663.658 657.469C669.884 661.331 675.272 665.538 678.032 670.937C681.132 676.999 680.329 683.219 677.303 689.357L677.291 689.383L677.278 689.408C671.568 700.737 661.616 706.136 650.731 709.479C641.015 712.509 630.332 711.171 622.153 703.247L622.148 703.242C617.165 698.405 615.789 692.661 616.025 687.409C616.24 682.626 617.812 677.999 618.919 674.744C618.945 674.665 618.972 674.587 618.998 674.509C620.831 669.065 625.439 664.569 629.538 661.529C633.711 658.434 638.712 655.852 642.807 654.97C647.018 654.036 651.297 654.161 654.75 654.662C657.975 655.131 661.416 656.067 663.658 657.469ZM652.857 667.49C650.492 667.146 647.885 667.126 645.644 667.625L645.615 667.632L645.586 667.638C643.952 667.987 640.656 669.469 637.362 671.913C633.987 674.416 631.956 676.938 631.391 678.62L631.387 678.63L631.384 678.639C630.17 682.216 629.203 685.219 629.079 687.987C628.97 690.404 629.517 692.258 631.284 693.974C635.441 697.999 640.865 698.969 646.823 697.108L646.839 697.103L646.854 697.098C656.133 694.25 662.141 690.436 665.578 683.636C667.402 679.924 667.071 678.154 666.379 676.802C665.348 674.785 662.683 672.152 656.72 668.454L656.703 668.444L656.687 668.434C656.695 668.439 656.679 668.433 656.639 668.417C656.38 668.316 655.102 667.816 652.857 667.49Z" fill="#EFF0EB"/>
<path fill-rule="evenodd" clip-rule="evenodd" d="M839.658 657.469C845.884 661.331 851.272 665.538 854.032 670.937C857.132 676.999 856.329 683.219 853.303 689.357L853.291 689.383L853.278 689.408C847.568 700.737 837.616 706.136 826.731 709.479C817.015 712.509 806.332 711.171 798.153 703.247L798.148 703.242C793.165 698.405 791.789 692.661 792.025 687.409C792.24 682.626 793.812 677.999 794.919 674.744C794.945 674.665 794.972 674.587 794.998 674.509C796.831 669.065 801.439 664.569 805.538 661.529C809.711 658.434 814.712 655.852 818.807 654.97C823.018 654.036 827.297 654.161 830.75 654.662C833.975 655.131 837.416 656.067 839.658 657.469ZM828.857 667.49C826.492 667.146 823.885 667.126 821.644 667.625L821.615 667.632L821.586 667.638C819.952 667.987 816.656 669.469 813.362 671.913C809.987 674.416 807.956 676.938 807.391 678.62L807.387 678.63L807.384 678.639C806.17 682.216 805.203 685.219 805.079 687.987C804.97 690.404 805.517 692.258 807.284 693.974C811.441 697.999 816.865 698.969 822.823 697.108L822.839 697.103L822.854 697.098C832.133 694.25 838.141 690.436 841.578 683.636C843.402 679.924 843.071 678.154 842.379 676.802C841.348 674.785 838.683 672.152 832.72 668.454L832.703 668.444L832.687 668.434C832.695 668.439 832.679 668.433 832.639 668.417C832.38 668.316 831.102 667.816 828.857 667.49Z" fill="#EFF0EB"/>
<path fill-rule="evenodd" clip-rule="evenodd" d="M1015.66 657.469C1021.88 661.331 1027.27 665.538 1030.03 670.937C1033.13 676.999 1032.33 683.219 1029.3 689.357L1029.29 689.383L1029.28 689.408C1023.57 700.737 1013.62 706.136 1002.73 709.479C993.015 712.509 982.332 711.171 974.153 703.247L974.148 703.242C969.165 698.405 967.789 692.661 968.025 687.409C968.24 682.626 969.812 677.999 970.919 674.744C970.945 674.665 970.972 674.587 970.998 674.509C972.831 669.065 977.439 664.569 981.538 661.529C985.711 658.434 990.712 655.852 994.807 654.97C999.018 654.036 1003.3 654.161 1006.75 654.662C1009.98 655.131 1013.42 656.067 1015.66 657.469ZM1004.86 667.49C1002.49 667.146 999.885 667.126 997.644 667.625L997.615 667.632L997.586 667.638C995.952 667.987 992.656 669.469 989.362 671.913C985.987 674.416 983.956 676.938 983.391 678.62L983.387 678.63L983.384 678.639C982.17 682.216 981.203 685.219 981.079 687.987C980.97 690.404 981.517 692.258 983.284 693.974C987.441 697.999 992.865 698.969 998.823 697.108L998.839 697.103L998.854 697.098C1008.13 694.25 1014.14 690.436 1017.58 683.636C1019.4 679.924 1019.07 678.154 1018.38 676.802C1017.35 674.785 1014.68 672.152 1008.72 668.454L1008.7 668.444L1008.69 668.434C1008.7 668.439 1008.68 668.433 1008.64 668.417C1008.38 668.316 1007.1 667.816 1004.86 667.49Z" fill="#EFF0EB"/>
<path fill-rule="evenodd" clip-rule="evenodd" d="M1191.66 657.469C1197.88 661.331 1203.27 665.538 1206.03 670.937C1209.13 676.999 1208.33 683.219 1205.3 689.357L1205.29 689.383L1205.28 689.408C1199.57 700.737 1189.62 706.136 1178.73 709.479C1169.01 712.509 1158.33 711.171 1150.15 703.247L1150.15 703.242C1145.17 698.405 1143.79 692.661 1144.03 687.409C1144.24 682.626 1145.81 677.999 1146.92 674.744C1146.95 674.665 1146.97 674.587 1147 674.509C1148.83 669.065 1153.44 664.569 1157.54 661.529C1161.71 658.434 1166.71 655.852 1170.81 654.97C1175.02 654.036 1179.3 654.161 1182.75 654.662C1185.98 655.131 1189.42 656.067 1191.66 657.469ZM1180.86 667.49C1178.49 667.146 1175.88 667.126 1173.64 667.625L1173.62 667.632L1173.59 667.638C1171.95 667.987 1168.66 669.469 1165.36 671.913C1161.99 674.416 1159.96 676.938 1159.39 678.62L1159.39 678.63L1159.38 678.639C1158.17 682.216 1157.2 685.219 1157.08 687.987C1156.97 690.404 1157.52 692.258 1159.28 693.974C1163.44 697.999 1168.87 698.969 1174.82 697.108L1174.84 697.103L1174.85 697.098C1184.13 694.25 1190.14 690.436 1193.58 683.636C1195.4 679.924 1195.07 678.154 1194.38 676.802C1193.35 674.785 1190.68 672.152 1184.72 668.454L1184.7 668.444L1184.69 668.434C1184.7 668.439 1184.68 668.433 1184.64 668.417C1184.38 668.316 1183.1 667.816 1180.86 667.49Z" fill="#EFF0EB"/>
</g>
</svg>
