<svg width="200" height="129" viewBox="0 0 200 129" fill="none" xmlns="http://www.w3.org/2000/svg">
<g clip-path="url(#clip0_1821_2957)">
<path d="M33.9332 62.3263C34.3727 60.3151 34.746 58.3951 35.2104 56.5C37.6777 46.4358 40.7464 36.5705 44.972 27.0951C46.2948 24.1301 47.7503 21.2149 49.7491 18.619C50.6406 17.4621 51.6193 16.3798 52.6269 15.3223C52.8716 15.0652 53.1411 14.6589 53.5268 14.9408C53.9207 15.2311 53.589 15.5919 53.4273 15.9112C50.9392 20.7795 48.2189 25.5359 46.1372 30.6074C43.1888 37.7938 40.7961 45.1668 38.7352 52.6518C38.0302 55.2062 37.3833 57.7814 36.8401 60.3773C36.8069 60.539 36.7447 60.6966 36.8401 60.9081C37.205 60.68 37.2879 60.2819 37.458 59.9543C39.7636 55.5338 42.3429 51.2916 45.4571 47.3854C47.825 44.4121 50.6987 42.0443 53.9415 40.0994C54.211 39.9377 54.5345 39.6309 54.8247 39.9833C55.1648 40.398 54.7418 40.6302 54.4889 40.8707C49.7449 45.4198 45.6935 50.5203 42.3056 56.1475C40.6137 58.9632 39.0503 61.8494 37.6985 64.8475C37.5948 65.0756 37.4123 65.2829 37.4828 65.6479C38.4739 64.7936 39.4152 63.9767 40.3649 63.1681C40.5639 62.9981 40.7754 62.8322 40.9993 62.6912C41.1403 62.6 41.3145 62.5709 41.4555 62.7078C41.5965 62.8446 41.5799 63.0271 41.4804 63.1598C41.3062 63.4003 41.1071 63.6242 40.9039 63.844C39.8216 65.0176 38.8554 66.2699 38.0509 67.6632C38.3454 67.883 38.4988 67.6217 38.6854 67.5347C39.5853 67.1075 40.4768 66.6721 41.3725 66.2409C41.5218 66.1704 41.6752 66.104 41.8328 66.0584C41.9987 66.0128 42.1812 66.0294 42.2724 66.1869C42.3885 66.386 42.3056 66.5767 42.1355 66.7136C41.9282 66.8795 41.7084 67.0246 41.4969 67.1905C40.6137 67.883 39.7304 68.5755 38.843 69.2763C39.1167 69.5583 39.2535 69.3344 39.3821 69.2224C40.2156 68.5257 41.2274 68.1898 42.206 67.7835C42.43 67.6922 42.6788 67.6134 42.8446 67.8332C43.052 68.1111 42.8488 68.3225 42.6456 68.5133C42.1687 68.957 41.6089 69.3261 41.1528 70.0476C42.1646 69.7739 43.0147 69.521 43.8813 69.3261C44.2587 69.239 44.8019 68.8367 45.0051 69.4173C45.1669 69.89 44.5448 69.9688 44.2255 70.1596C43.7279 70.4581 43.2096 70.7111 42.7285 71.0968C43.475 71.1341 44.1841 71.188 44.8932 71.2502C45.1254 71.2709 45.3535 71.2999 45.5815 71.3414C45.7847 71.3787 45.9962 71.4783 46.0128 71.6939C46.0335 71.9676 45.8096 72.0878 45.5732 72.15C45.03 72.2952 44.4868 72.4403 43.9394 72.5896C43.815 72.6228 43.6823 72.6518 43.6118 72.9255C44.4702 72.9545 45.2913 73.1204 46.0916 73.3941C46.1538 73.4148 46.2243 73.4148 46.2823 73.4438C46.5892 73.5807 47.12 73.5185 47.0412 74.0368C46.9749 74.4681 46.5229 74.3395 46.2118 74.3686C45.6686 74.4142 45.1088 74.352 44.3665 74.6132C45.4074 74.9906 46.1579 75.4592 46.8919 75.9527C47.0578 76.0646 47.232 76.1641 47.3812 76.2927C47.5098 76.4047 47.572 76.5622 47.4932 76.7405C47.4144 76.923 47.2485 76.9728 47.0827 76.9354C46.7302 76.8608 46.3819 76.7571 45.9672 76.6493C45.9672 76.9686 46.2284 77.035 46.3736 77.1594C47.0868 77.7648 47.6591 78.4946 48.2521 79.212C48.4014 79.3903 48.5797 79.6018 48.4221 79.8341C48.223 80.1285 47.9618 79.975 47.7213 79.8465C47.6674 79.8175 47.601 79.8175 47.4061 79.7718C47.8249 80.7671 48.2147 81.6918 48.6004 82.6207C48.6999 82.8654 48.8077 83.11 48.8782 83.363C48.9321 83.562 48.8948 83.7694 48.6667 83.8564C48.4843 83.9311 48.335 83.8233 48.2355 83.6947C47.9328 83.3049 47.6466 82.9068 47.3398 82.4921C47.0785 82.7244 47.2983 82.8902 47.3564 83.0271C47.8954 84.3084 48.4594 85.5857 49.0109 86.8629C49.1395 87.1614 49.3385 87.4517 48.9902 87.7586C48.758 87.9618 48.928 88.1774 49.0441 88.3806C49.1934 88.6419 49.4132 88.6211 49.6495 88.5423C49.8693 88.4677 50.0891 88.393 50.3089 88.3143C52.6477 87.4683 54.9782 86.6099 57.3211 85.7847C58.6025 85.3327 59.8673 85.3534 61.0491 86.0999C61.6794 86.498 62.1936 87.0246 62.4673 87.7254C63.2137 89.6412 64.1467 91.4741 64.8185 93.4231C65.2415 94.6547 65.5235 95.9112 65.6769 97.1967C65.9796 99.7262 64.9885 101.373 62.6788 102.438C59.4816 103.91 56.1268 104.968 52.8509 106.237C52.1418 106.51 51.4327 106.801 50.7028 107.016C50.0145 107.219 49.7366 107.568 49.6869 108.339C49.5459 110.529 48.4884 112.237 46.6307 113.419C45.5649 114.099 44.4453 114.381 43.2676 113.659C43.1225 113.568 42.9898 113.498 42.8281 113.647C42.3843 114.053 42.2185 113.78 42.0941 113.353C41.9448 112.847 41.9448 112.303 41.6048 111.661C41.5674 112.635 41.5343 113.46 41.5011 114.281C41.4886 114.58 41.4845 114.879 41.4472 115.173C41.4264 115.368 41.3767 115.584 41.1237 115.608C40.8791 115.633 40.7754 115.455 40.7256 115.252C40.6261 114.866 40.5556 114.476 40.4478 114.091C40.3897 113.883 40.4354 113.618 40.1824 113.494C40.0124 113.518 39.9709 113.639 39.9792 113.78C40.0787 115.094 39.6723 116.338 39.4318 117.603C39.407 117.732 39.3696 117.86 39.3282 117.989C39.2701 118.159 39.154 118.275 38.9632 118.254C38.7683 118.233 38.6854 118.072 38.6564 117.91C38.6191 117.682 38.6066 117.45 38.6025 117.217C38.5942 116.558 38.6025 115.899 38.6025 115.219C37.9224 115.26 37.9514 115.662 37.968 116.019C38.0095 116.956 37.827 117.868 37.7068 118.789C37.6819 118.984 37.6321 119.179 37.5907 119.374C37.5492 119.573 37.4828 119.776 37.2382 119.784C36.9977 119.793 36.8857 119.602 36.8484 119.403C36.7489 118.884 36.6659 118.358 36.583 117.835C36.5249 117.483 36.471 117.126 36.4171 116.765C35.4343 117.064 35.426 117.064 35.3804 117.947C35.3307 118.951 35.057 119.909 34.8206 120.871C34.7957 120.966 34.7957 121.115 34.7335 121.149C33.9788 121.584 34.4142 122.16 34.5511 122.687C34.8662 123.877 35.0653 125.084 35.1233 126.311C35.1399 126.714 35.0984 127.112 34.9118 127.472C34.7003 127.887 34.3603 128.136 33.8751 128.107C33.4356 128.078 33.1536 127.821 32.9753 127.423C32.8343 127.108 32.8343 126.78 32.8177 126.448C32.743 125.018 32.5316 123.612 32.0298 122.264C31.9178 121.961 31.8722 121.642 31.4078 121.63C31.0055 121.617 31.0387 121.244 31.0346 120.941C31.0263 120.556 31.1465 120.133 30.7111 119.805C30.255 120.39 30.0642 121.103 29.6993 121.717C29.5417 121.982 29.4754 122.455 29.0441 122.318C28.6087 122.181 28.8326 121.754 28.8699 121.451C28.9363 120.958 29.0607 120.477 29.127 119.983C29.1602 119.726 29.4049 119.378 28.9653 119.233C28.5216 119.088 28.1443 119.303 28.0116 119.797C27.8498 120.41 27.6218 121.003 27.29 121.538C26.4814 122.824 25.7764 124.172 25.0715 125.515C24.7148 126.191 24.3582 126.863 23.9975 127.535C23.8565 127.8 23.7196 128.065 23.4915 128.264C23.1017 128.609 22.5212 128.679 22.1065 128.414C21.667 128.132 21.5218 127.717 21.6048 127.211C21.6628 126.875 21.8453 126.597 22.007 126.307C22.77 124.91 23.645 123.574 24.3333 122.14C24.52 121.75 24.6236 121.422 24.466 120.937C24.2463 120.257 24.2255 119.502 24.1799 118.772C24.1467 118.209 23.8813 117.939 23.2925 117.839C23.1764 118.549 23.0686 119.229 22.9566 119.905C22.9068 120.199 22.8695 120.498 22.8032 120.788C22.7576 120.999 22.6249 121.153 22.3885 121.124C22.206 121.103 22.1024 120.962 22.0692 120.788C21.9406 120.037 21.8162 119.283 21.696 118.532C21.6711 118.37 21.6545 118.204 21.6213 118.038C21.5799 117.835 21.4264 117.757 21.2523 117.823C20.7173 118.03 20.087 118.047 19.8258 118.743C19.5977 119.357 19.5231 119.353 19.013 118.901C18.7435 118.661 18.5278 118.797 18.2915 118.88C16.9811 119.353 15.6748 119.834 14.3686 120.311C13.0624 120.788 11.7561 121.273 10.4457 121.742C9.72418 121.999 8.9902 122.185 8.21889 122.231C6.22843 122.347 4.80193 121.426 4.23797 119.498C3.69474 117.649 3.08101 115.832 2.32215 114.062C2.15213 113.668 1.97796 113.27 1.77892 112.888C0.534879 110.479 1.09884 107.978 3.26347 106.349C3.82329 105.926 4.44116 105.615 5.1005 105.37C7.52638 104.47 9.94396 103.554 12.3698 102.662C12.9421 102.451 13.3692 102.057 13.8544 101.713C15.3016 100.688 15.9278 99.0752 16.9189 97.7275C17.2009 97.3418 17.0806 96.9064 17.1387 96.5083C16.8069 96.3425 16.7571 96.6244 16.6576 96.7488C16.0107 97.5906 15.3804 98.4407 14.746 99.295C14.6257 99.4525 14.5262 99.6309 14.4018 99.7843C14.2193 100.008 14.0534 100.344 13.6927 100.108C13.3982 99.917 13.5475 99.635 13.6678 99.3945C14.7294 97.2216 15.6914 94.9947 17.1594 93.0416C17.3792 92.7472 17.769 92.4859 17.5367 91.8681C16.7779 92.8094 16.0771 93.6761 15.3763 94.551C15.1689 94.8081 14.9823 95.086 14.7667 95.3389C14.6133 95.5214 14.4184 95.6956 14.1737 95.5214C13.9373 95.3555 14.0244 95.1067 14.1073 94.8869C14.153 94.7625 14.2193 94.6464 14.2815 94.5303C15.4468 92.3325 16.5664 90.1098 18.1878 88.1898C18.3951 87.9452 18.6439 87.7005 18.5361 87.2154C17.9348 87.5678 17.5119 88.0613 17.035 88.4801C16.6618 88.8077 16.3093 89.1644 15.9402 89.4961C15.7909 89.6329 15.6002 89.7449 15.4011 89.6039C15.1731 89.438 15.2104 89.2017 15.3224 88.9777C15.3846 88.8616 15.4592 88.7497 15.5338 88.6418C16.7737 86.7551 18.0012 84.8641 19.6184 83.2676C19.7055 83.1805 19.8258 83.1017 19.7885 82.8197C19.2121 83.2635 18.6771 83.6698 18.1505 84.0887C17.7358 84.4204 17.346 84.7812 16.9272 85.1088C16.6825 85.3037 16.4047 85.652 16.0812 85.3037C15.8075 85.0093 16.131 84.7646 16.3093 84.5407C16.4337 84.3872 16.5705 84.2421 16.7074 84.097C18.3454 82.318 19.8507 80.4146 21.8204 78.9425C21.5011 78.6854 21.3145 78.9093 21.132 79.0047C20.3649 79.3986 19.6143 79.8175 18.8554 80.228C18.6191 80.3566 18.3454 80.5349 18.138 80.2736C17.8851 79.9502 18.1754 79.7262 18.3993 79.5355C19.7885 78.3536 21.0864 77.064 22.6207 76.0605C23.2054 75.679 23.7777 75.285 24.3624 74.9035C24.7273 74.663 25.0549 74.4017 25.1337 73.9207C24.7978 73.8088 24.5656 74.041 24.3002 74.1405C22.9939 74.6257 21.6918 75.1191 20.3897 75.6043C20.2363 75.6624 20.0746 75.7246 19.9129 75.7287C19.6019 75.737 19.436 75.426 19.6267 75.1813C19.747 75.0279 19.917 74.9118 20.0746 74.7957C22.007 73.3775 24.0472 72.1542 26.3031 71.3041C26.4524 71.2502 26.6307 71.2419 26.7426 71.0055C26.415 70.8936 26.104 70.9972 25.8096 71.0428C24.2753 71.2958 22.7037 71.3497 21.1984 71.7727C21.074 71.81 20.9371 71.8224 20.8044 71.8224C20.6717 71.8224 20.539 71.7934 20.4727 71.6566C20.3897 71.4866 20.4354 71.3248 20.5763 71.2129C20.7339 71.0926 20.9039 70.9889 21.0781 70.8977C22.6456 70.0808 24.2587 69.4049 26.0377 69.1975C26.3155 69.1643 26.6307 69.1851 26.8629 68.9529C26.7343 68.7123 26.4897 68.6875 26.274 68.6128C24.9015 68.1235 23.5247 67.6383 22.1521 67.1449C21.9365 67.0661 21.725 66.9665 21.526 66.8546C21.4016 66.7841 21.3725 66.6389 21.4016 66.5062C21.4306 66.3694 21.5384 66.2616 21.6794 66.2616C21.978 66.2657 22.2765 66.274 22.5668 66.3238C24.6236 66.6846 26.7012 66.9375 28.7207 67.4932C28.8077 67.5181 28.9073 67.4932 29.0234 67.4932C28.9778 67.1366 28.7082 66.979 28.5133 66.7675C22.6746 60.4851 15.737 55.7329 8.04887 52.0215C7.30245 51.6607 6.52285 51.3787 5.75984 51.0553C5.54836 50.9641 5.34102 50.8645 5.14612 50.7443C5.03001 50.6738 4.9761 50.5452 5.00098 50.4001C5.03001 50.2135 5.1627 50.1057 5.33272 50.0766C5.70179 50.0186 6.05841 50.1388 6.41089 50.2176C11.0636 51.2377 15.368 53.0499 19.2991 55.7619C22.4507 57.939 25.3617 60.3897 28.0903 63.0644C28.3474 63.3174 28.5548 63.6325 28.9321 63.7735C29.0648 63.3961 28.7912 63.139 28.6585 62.8612C23.7652 52.7721 18.0053 43.222 10.989 34.4515C7.58858 30.2052 4.27944 25.8884 0.547319 21.9157C0.281924 21.6338 -0.286187 21.3145 0.161667 20.8625C0.609521 20.4146 0.920531 20.991 1.2191 21.2398C10.8563 29.351 18.3785 39.1872 24.6651 50.0269C27.178 54.3603 29.4961 58.7974 31.64 63.3257C31.752 63.5579 31.8017 63.8316 32.121 64.0306C32.2579 63.7072 32.1874 63.392 32.1542 63.0893C31.9386 60.9122 31.7146 58.7352 31.3248 56.5788C31.2585 56.218 30.9972 55.6955 31.5695 55.5877C32.0464 55.4965 32.0588 56.0397 32.1501 56.3632C32.6477 58.0841 33.1743 59.7926 33.5641 61.5425C33.6222 61.7996 33.6553 62.065 33.9249 62.3512L33.9332 62.3263ZM12.0464 104.872C9.71589 105.731 7.39368 106.519 5.12124 107.439C3.33811 108.161 2.6456 110.043 3.40032 111.827C4.40799 114.207 5.5608 116.529 6.21184 119.046C6.3943 119.759 6.91265 120.07 7.60102 120.116C7.92862 120.137 8.26036 120.095 8.5921 120.058C9.76565 119.925 10.8023 119.361 11.8847 118.963C22.036 115.26 32.1832 111.536 42.3304 107.821C43.7321 107.307 45.1337 106.797 46.527 106.27C47.1656 106.029 47.1698 105.992 47.008 105.316C46.9292 104.993 46.8173 104.682 46.7592 104.354C46.6763 103.894 46.8173 103.492 47.2154 103.226C47.6425 102.944 48.0945 102.965 48.5299 103.222C48.9197 103.45 49.1353 103.819 49.3095 104.226C49.6952 105.117 49.6993 105.13 50.537 104.814C53.9829 103.525 57.4663 102.33 60.9205 101.062C63.3298 100.174 63.9643 99.1913 63.5247 96.5622C63.0686 93.8419 61.7582 91.4326 60.8252 88.8907C60.4851 87.9701 59.5977 87.6383 58.5983 87.8332C58.1754 87.9162 57.7524 88.0074 57.346 88.1442C55.5256 88.7621 53.6927 89.3468 51.893 90.031C40.7339 94.2649 29.5583 98.449 18.362 102.571C17.458 102.903 16.5457 103.21 15.6582 103.574C14.9782 103.856 14.663 104.615 14.8164 105.403C14.9533 106.108 15.3224 106.407 16.1683 106.44C16.7323 106.465 17.2879 106.427 17.8519 106.336C19.5065 106.063 21.0325 105.42 22.5627 104.781C23.081 104.566 23.5869 104.296 24.155 104.238C24.86 104.163 25.3991 104.454 25.6189 105.009C25.8552 105.602 25.6354 106.22 24.9968 106.622C24.6319 106.85 24.238 107.029 23.8399 107.195C23.4501 107.356 23.3754 107.555 23.5413 107.962C23.9394 108.945 24.2836 109.948 24.6485 110.943C24.7397 111.192 24.8268 111.441 24.8019 111.715C24.7853 111.901 24.69 112.034 24.5282 112.096C24.3126 112.175 24.126 112.075 24.0265 111.893C23.9311 111.723 23.8896 111.524 23.8233 111.337C23.5372 110.524 23.2676 109.703 22.9608 108.903C22.5378 107.796 22.5253 107.8 21.443 108.186C21.2232 108.264 21.0076 108.356 20.7837 108.405C20.4022 108.497 20.34 108.737 20.4105 109.077C20.5307 109.666 20.7712 110.213 20.9496 110.782C21.0657 111.155 21.5011 111.69 20.9164 111.897C20.3607 112.092 20.3234 111.404 20.17 111.051C19.9087 110.446 19.718 109.807 19.5189 109.173C19.4277 108.887 19.2743 108.783 19.0089 108.911C18.7683 109.028 18.8347 109.227 18.9259 109.417C19.0711 109.716 19.2079 110.019 19.3489 110.317C19.7263 111.117 19.7138 111.229 19.1042 111.885C18.6978 112.324 18.25 112.718 17.7524 113.058C17.4455 113.266 17.1179 113.419 16.7571 113.494C16.1642 113.614 15.5587 113.377 15.2726 112.921C14.9989 112.486 15.0445 111.963 15.4426 111.445C15.9029 110.844 16.5291 110.483 17.2423 110.263C17.3999 110.213 17.5699 110.201 17.7316 110.168C18.1671 110.077 18.1505 109.832 17.9556 109.513C17.827 109.301 17.6694 109.123 17.404 109.164C16.6079 109.289 15.7619 108.882 14.9948 109.392C14.8082 109.517 14.5511 109.442 14.5179 109.218C14.4515 108.741 14.0576 108.609 13.7507 108.372C12.9255 107.73 12.4611 106.875 12.2993 105.851C12.2537 105.565 12.3325 105.25 12.0588 104.885L12.0464 104.872ZM38.7061 92.5606C37.939 92.0547 37.1552 92.0464 36.3798 92.5191C35.9278 92.7928 35.5173 93.137 35.0694 93.419C34.6298 93.6926 34.2649 93.6387 34.012 93.3028C33.759 92.9711 33.8254 92.6435 34.2193 92.2579C34.2442 92.233 34.2691 92.2122 34.2939 92.1915C36.6162 90.425 37.7399 90.3462 39.9958 91.6732C40.0539 91.7063 40.1161 91.7395 40.1575 91.7851C40.4312 92.0712 40.7256 92.0132 41.0698 91.9012C42.1438 91.5446 43.1349 90.9931 44.1965 90.6282C44.7853 90.425 44.9346 90.0766 44.9056 89.5085C44.8268 87.9867 44.7439 86.4606 44.5407 84.9512C44.1633 82.1521 43.5994 79.3945 42.3553 76.8276C41.2523 74.5593 39.606 72.7721 37.4289 71.5031C36.1932 70.7816 34.8413 70.3669 33.4273 70.8106C31.8681 71.2999 30.5287 72.2247 29.1892 73.1867C29.9771 73.8046 29.9606 73.9415 29.1229 74.2732C28.7165 74.4308 28.3018 74.5593 27.8623 74.7128C28.0903 75.0155 28.3433 74.8994 28.5589 74.9367C28.758 74.974 28.9695 74.9947 28.9819 75.256C28.9902 75.4426 28.8575 75.5463 28.6999 75.6251C28.1194 75.9236 27.4932 76.0936 26.8463 76.2098C26.9209 76.4295 27.0785 76.3964 27.1946 76.4295C27.4227 76.4959 27.6798 76.5539 27.6383 76.8608C27.6093 77.093 27.3895 77.1428 27.1905 77.1801C26.8961 77.2299 26.6016 77.2838 26.3114 77.3418C26.1372 77.3791 25.8925 77.3211 25.8967 77.6736C26.2906 77.8353 26.7219 77.7772 27.1366 77.8187C27.3729 77.8436 27.6383 77.8643 27.6715 78.1505C27.7088 78.4532 27.4517 78.5154 27.2195 78.5693C26.5394 78.7269 25.8635 78.8761 25.1627 78.8927C24.8724 78.901 24.6278 78.9591 24.6609 79.3779C25.2125 79.5023 25.7681 79.3779 26.3238 79.3655C26.5229 79.3613 26.7509 79.3323 26.8256 79.5769C26.9168 79.8755 26.6804 79.9916 26.4648 80.0746C25.8469 80.3234 25.2249 80.5473 24.5531 80.5805C24.3541 80.5888 24.155 80.5929 23.9601 80.6302C23.6159 80.6966 23.4418 80.9786 23.4459 81.2771C23.4501 81.5964 23.7818 81.5177 23.9975 81.5467C24.1965 81.5716 24.3955 81.5716 24.5946 81.584C24.831 81.6006 25.0964 81.6338 25.1129 81.9282C25.1295 82.2226 24.8683 82.2848 24.6402 82.3387C24.1219 82.4548 23.6077 82.5917 23.0852 82.6663C22.7285 82.7161 22.517 82.8861 22.4839 83.2095C22.4424 83.6242 22.8115 83.5206 23.0437 83.5786C23.1059 83.5952 23.1764 83.591 23.2386 83.6035C23.4708 83.6491 23.7279 83.7072 23.7279 83.9974C23.7279 84.2214 23.5206 84.3167 23.3298 84.3872C22.9566 84.5282 22.5917 84.6817 22.1812 84.6858C21.9406 84.6858 21.8204 84.8268 21.7872 85.0507C21.7457 85.3451 21.9697 85.3534 22.1646 85.3908C22.3595 85.4281 22.5585 85.4571 22.7534 85.4944C22.9317 85.5318 23.0727 85.6354 23.0852 85.8137C23.0976 85.992 22.969 86.1164 22.8073 86.1869C22.4466 86.3487 22.0816 86.5104 21.6711 86.527C21.4596 86.5353 21.2481 86.5975 21.2606 86.8504C21.273 87.1117 21.5177 87.0992 21.7126 87.1324C22.2351 87.2153 22.7617 87.2941 23.2801 87.3812C23.4169 87.4061 23.5289 87.5098 23.5537 87.6383C23.5911 87.8332 23.4459 87.9493 23.2842 87.9991C23.0976 88.053 22.8944 88.0862 22.6995 88.0986C22.206 88.1276 21.7209 88.2811 21.215 88.2023C20.9744 88.165 20.8376 88.2852 20.8044 88.5174C20.7795 88.6833 20.7588 88.8616 20.9744 88.9197C21.103 88.957 21.2357 88.957 21.3642 88.9902C21.5674 89.0399 21.754 89.1353 21.754 89.3717C21.754 89.55 21.6089 89.6578 21.4513 89.7283C21.2398 89.8237 21.0325 89.9232 20.8127 90.0061C20.5805 90.0932 20.3856 90.2093 20.4146 90.4955C20.4478 90.8065 20.7339 90.7899 20.9371 90.8521C21.1279 90.9101 21.3311 90.9143 21.526 90.9516C21.7623 90.9972 22.0028 91.0636 21.9946 91.3622C21.9863 91.5985 21.7789 91.6814 21.584 91.7271C21.2315 91.81 20.8749 91.8846 20.5141 91.9551C20.2031 92.0132 20.0539 92.1915 20.0539 92.5025C20.0539 92.8177 20.2861 92.8633 20.5266 92.8965C20.7547 92.9296 20.991 92.9421 21.215 92.9877C21.414 93.0292 21.613 93.1204 21.5965 93.3692C21.584 93.56 21.4181 93.6346 21.2523 93.6678C20.962 93.7258 20.6676 93.8005 20.3732 93.8253C20.0331 93.8544 19.8341 93.9622 19.7926 94.3478C19.7428 94.804 19.9999 94.9242 20.3524 94.9989C20.6427 95.0611 20.9371 95.1109 21.2274 95.1896C21.4223 95.2394 21.6213 95.3348 21.6255 95.5711C21.6296 95.8117 21.4347 95.9153 21.2398 95.9609C20.821 96.0605 20.398 96.1434 19.9751 96.2139C19.747 96.2512 19.6101 96.3507 19.6101 96.5913C19.6101 96.8649 19.7967 96.9064 20.0082 96.9147C20.3732 96.9272 20.7381 96.9271 21.103 96.9562C21.3311 96.9728 21.5965 97.0018 21.6379 97.2921C21.6835 97.5906 21.4223 97.6736 21.2191 97.769C20.763 97.9804 20.2778 98.0841 19.7843 98.1588C19.5521 98.1961 19.4443 98.3495 19.4567 98.5776C19.465 98.7186 19.5355 98.8471 19.6848 98.8595C20.4976 98.9342 21.2813 99.2452 22.1272 98.9259C27.431 96.9313 32.7472 94.9657 38.0592 92.9877C38.2998 92.9006 38.5817 92.8716 38.702 92.5523L38.7061 92.5606ZM25.7972 116.114C26.0294 116.496 26.2948 116.533 26.5394 116.604C27.5139 116.886 28.505 116.886 29.492 116.716C32.6477 116.168 35.368 114.767 37.6238 112.482C37.8436 112.258 38.1422 112.071 38.1878 111.569C34.0244 113.083 29.9232 114.576 25.7972 116.119V116.114ZM44.5158 110.848C44.5034 111.047 44.4868 111.147 44.4992 111.242C44.5739 111.827 44.6775 111.905 45.1503 111.636C46.2367 111.018 46.9375 110.106 47.1573 108.857C47.2154 108.517 47.091 108.368 46.7178 108.451C45.4571 108.725 45.312 108.907 45.3659 110.23C45.37 110.33 45.3825 110.429 45.3783 110.524C45.3783 110.748 45.4364 111.01 45.2083 111.151C44.8849 111.358 44.8102 110.927 44.5158 110.848ZM18.5154 111.072C17.5119 110.997 16.8401 111.258 16.2844 111.835C16.1227 112.005 15.9527 112.208 16.1227 112.444C16.2803 112.66 16.5374 112.635 16.7571 112.544C17.4289 112.262 17.9929 111.843 18.5195 111.072H18.5154ZM33.9788 118.051C33.6761 117.947 33.5309 118.043 33.3817 118.109C32.7555 118.395 32.7016 118.549 33.0292 119.158C33.2863 119.639 33.5683 120.104 33.9415 120.75C34.1239 119.71 34.0286 118.876 33.9788 118.051ZM47.3025 88.8741C47.3066 89.0607 47.3895 89.1892 47.5803 89.2141C47.6135 89.2141 47.6881 89.127 47.6881 89.0773C47.7005 88.8989 47.601 88.7497 47.4434 88.6916C47.3356 88.6501 47.3149 88.787 47.2983 88.8741H47.3025Z" fill="#EFF0EB"/>
<path d="M33.5621 36.6881C33.2743 36.1813 33.1833 35.5874 33.3061 35.0184C33.5563 33.6917 33.6666 32.3427 33.6352 30.9932C33.6942 29.4733 33.5357 27.9528 33.1644 26.4773C33.0204 25.8103 32.718 25.1872 32.2824 24.66C32.0836 24.4329 31.8688 24.1126 31.5237 24.2648C31.1352 24.4351 31.3272 24.7986 31.4049 25.078C31.7331 26.2663 31.853 27.502 31.7591 28.7307C31.6609 30.3656 31.4663 31.9933 31.1764 33.6055C30.9593 34.7118 30.8496 34.8549 29.755 34.9412C28.0229 35.0821 26.8483 36.077 26.1856 37.6467C25.82 38.5167 25.7857 39.3958 26.4621 40.1454C26.7674 40.4947 27.163 40.7545 27.606 40.8966C28.049 41.0387 28.5226 41.0578 28.9758 40.9518C29.6547 40.8275 30.2912 40.5354 30.8267 40.1023C30.9798 39.9773 31.1421 39.7865 31.366 39.8864C31.6448 40.0114 31.574 40.2931 31.5626 40.5202C31.4974 41.1997 31.3735 41.8722 31.1924 42.5306C30.8633 43.9798 30.18 45.2792 29.5402 46.6012C29.2294 47.2441 29.3688 47.7847 29.8053 48.071C30.1983 48.3299 30.7376 48.264 31.2266 47.8642C31.7001 47.467 32.0939 46.9846 32.3875 46.4422C33.5918 44.3047 34.0808 41.9786 34.1859 39.5684C34.2622 38.5686 34.0455 37.5681 33.5621 36.6881ZM28.7198 38.6303C28.6841 38.6327 28.6482 38.6327 28.6124 38.6303C28.3839 38.5826 28.3702 38.4258 28.4388 38.2486C28.6193 37.7784 29.4145 37.1992 29.7733 37.2719C29.8242 37.2792 29.8703 37.3057 29.9022 37.3458C29.9341 37.386 29.9493 37.4367 29.9447 37.4877C29.9332 37.8148 29.1243 38.5598 28.7198 38.6303Z" fill="#FEE003"/>
<path d="M180.41 51.1025C180.122 50.5957 180.031 50.0018 180.154 49.4329C180.404 48.1061 180.514 46.7571 180.483 45.4076C180.542 43.8877 180.383 42.3672 180.012 40.8917C179.868 40.2247 179.566 39.6016 179.13 39.0744C178.931 38.8473 178.716 38.527 178.371 38.6792C177.983 38.8496 178.175 39.213 178.253 39.4924C178.581 40.6807 178.701 41.9164 178.607 43.1451C178.509 44.78 178.314 46.4077 178.024 48.0199C177.807 49.1262 177.697 49.2693 176.603 49.3556C174.871 49.4965 173.696 50.4914 173.033 52.0611C172.668 52.9311 172.633 53.8102 173.31 54.5598C173.615 54.9091 174.011 55.1689 174.454 55.311C174.897 55.4531 175.37 55.4722 175.823 55.3662C176.502 55.2419 177.139 54.9498 177.674 54.5167C177.827 54.3917 177.99 54.2009 178.214 54.3009C178.492 54.4258 178.422 54.7075 178.41 54.9346C178.345 55.6141 178.221 56.2867 178.04 56.945C177.711 58.3943 177.028 59.6936 176.388 61.0157C176.077 61.6585 176.216 62.1992 176.653 62.4854C177.046 62.7443 177.585 62.6785 178.074 62.2787C178.548 61.8814 178.942 61.399 179.235 60.8567C180.439 58.7191 180.928 56.393 181.034 53.9828C181.11 52.983 180.893 51.9825 180.41 51.1025ZM175.567 53.0447C175.532 53.0471 175.496 53.0471 175.46 53.0447C175.232 52.997 175.218 52.8402 175.286 52.6631C175.467 52.1928 176.262 51.6136 176.621 51.6863C176.672 51.6936 176.718 51.7201 176.75 51.7602C176.782 51.8004 176.797 51.8511 176.792 51.9021C176.781 52.2292 175.972 52.9743 175.567 53.0447Z" fill="#FEE003"/>
<path d="M151.844 120.079C150.558 120.792 149.318 121.331 147.983 121.634C147.079 121.841 146.171 121.978 145.229 121.779C143.641 121.443 142.658 120.406 142.509 118.785C142.401 117.64 142.638 116.541 142.965 115.455C143.455 113.829 144.189 112.308 144.972 110.806C145.723 109.368 146.532 107.953 147.178 106.461C147.506 105.702 147.821 104.926 147.879 104.089C147.929 103.351 147.742 103.11 147 103.064C145.312 102.965 143.72 103.438 142.153 103.997C141.73 104.151 141.73 104.549 141.647 104.897C141.19 106.805 140.602 108.667 139.826 110.466C137.55 115.745 134.004 119.917 129.04 122.857C126.718 124.23 124.197 124.993 121.535 125.32C118.01 125.747 114.464 125.83 110.919 125.946C107.971 126.042 105.018 126.116 102.07 126.174C95.5757 126.303 89.2519 125.337 83.127 123.164C81.2112 122.484 79.4447 121.501 77.7901 120.315C74.3027 117.815 72.1878 114.472 71.4206 110.247C70.9686 107.763 70.7489 105.254 70.6162 102.741C70.4254 99.0669 70.2637 95.3928 70.0978 91.7188C69.9941 89.4339 69.9319 87.1448 69.8117 84.8641C69.6665 82.1189 69.4551 79.3737 69.3224 76.6286C69.1897 73.8129 69.1233 70.9972 69.0196 68.1815C68.8455 63.3464 68.6423 58.5154 68.1198 53.7009C67.9125 51.7934 67.8088 49.8693 67.6678 47.9535C67.3941 44.155 67.1204 40.3524 66.8633 36.5539C66.6477 33.3816 66.2579 30.2218 66.2911 27.0329C66.3159 24.8351 66.5316 22.6663 67.0582 20.5348C67.6346 18.2126 68.3976 15.9526 69.397 13.7797C70.9272 10.4581 73.3074 8.07372 76.8488 6.92091C78.3002 6.44818 79.735 5.93398 81.2112 5.55247C84.0974 4.8019 86.996 4.10109 89.8656 3.28003C91.5036 2.81144 93.2079 2.79485 94.8874 2.62483C95.7126 2.5419 96.5419 2.46311 97.3423 2.25577C100.821 1.36006 104.404 1.11125 107.929 0.50582C109.003 0.323361 110.106 0.269452 111.201 0.265306C113.254 0.257012 115.294 -0.186695 117.355 0.140902C123.421 1.10711 128.008 4.18403 130.882 9.6578C134.357 16.2802 136.534 23.363 138.275 30.6074C139.586 36.0646 140.432 41.5923 141.099 47.1573C141.497 50.4789 142.016 53.788 142.24 57.1303C142.476 60.6717 142.617 64.2131 142.696 67.7586C142.795 72.1666 143.065 76.5705 143.164 80.9786C143.247 84.5241 143.293 88.0737 143.106 91.6234C143.023 93.2116 143.023 94.804 142.891 96.3922C142.775 97.7814 142.613 99.1623 142.464 100.543C142.376 101.343 142.401 101.36 143.173 101.161C144.462 100.829 145.76 100.605 147.104 100.663C149.289 100.759 150.488 102.144 150.276 104.333C150.168 105.478 149.787 106.535 149.293 107.547C148.534 109.094 147.722 110.616 146.938 112.15C146.212 113.568 145.549 115.011 145.167 116.571C145.022 117.155 144.96 117.748 144.993 118.345C145.03 119.054 145.25 119.283 145.955 119.365C146.627 119.444 147.286 119.312 147.912 119.108C149.264 118.665 150.595 118.155 151.943 117.69C152.403 117.533 152.636 117.255 152.702 116.761C152.772 116.206 152.909 115.654 153.038 115.107C153.241 114.232 154.365 113.212 155.252 113.295C155.903 113.357 156.152 113.083 156.368 112.606C156.67 111.939 157.156 111.686 157.894 111.814C158.445 111.91 159.018 111.918 159.577 111.959C160.481 112.03 160.722 112.266 160.772 113.195C160.797 113.659 160.784 114.124 160.784 114.588C160.784 114.833 160.813 115.069 161.112 115.115C161.385 115.156 161.431 114.92 161.489 114.742C161.701 114.082 162.169 113.9 162.808 113.983C163.633 114.091 164.462 114.049 165.292 114.029C166.042 114.012 166.312 114.273 166.337 115.024C166.353 115.555 166.308 116.085 166.299 116.616C166.299 116.782 166.316 116.964 166.527 116.998C166.751 117.035 166.772 116.84 166.838 116.695C167.307 115.613 167.386 115.567 168.547 115.725C169.268 115.824 169.994 115.919 170.712 116.048C171.342 116.16 171.703 116.546 171.736 117.205C171.744 117.404 171.781 117.603 171.786 117.798C171.794 118.474 171.856 119.05 172.594 119.436C173.084 119.689 173.299 120.303 173.353 120.883C173.424 121.609 173.49 122.335 173.515 123.064C173.552 124.097 173.158 124.52 172.105 124.528C170.413 124.541 168.721 124.545 167.029 124.491C162.385 124.35 157.74 124.391 153.1 124.379C152.934 124.379 152.768 124.387 152.602 124.387C151.23 124.375 150.886 123.827 151.309 122.496C151.557 121.717 151.682 120.904 151.864 120.104L151.844 120.079ZM140.266 85.6976C140.266 85.6976 140.257 85.6976 140.253 85.6976C140.253 83.2095 140.345 80.7173 140.233 78.2375C140.013 73.4355 139.938 68.6294 139.735 63.8274C139.648 61.7416 139.573 59.6516 139.428 57.5699C139.204 54.2981 138.731 51.047 138.333 47.7917C137.682 42.4631 136.948 37.1469 135.713 31.9137C134.025 24.7646 131.893 17.7772 128.514 11.217C126.366 7.04947 123.069 4.37063 118.495 3.27588C117.322 2.9939 116.14 2.85291 114.941 2.98146C114.112 3.06854 113.291 3.11415 112.461 3.10586C109.202 3.07269 105.963 3.44175 102.77 4.00572C97.3215 4.96363 91.8892 6.02935 86.4984 7.29413C83.6288 7.96591 80.7468 8.58793 77.9311 9.48778C75.0449 10.4084 73.1167 12.3117 71.8561 14.9864C69.4882 20.0206 68.5096 25.3078 69.0362 30.8479C69.5007 35.7287 69.7578 40.6261 70.1476 45.511C70.3798 48.4179 70.5457 51.329 70.8525 54.2276C71.3211 58.6149 71.5367 63.0146 71.7275 67.4144C71.8478 70.1637 71.8892 72.9172 72.0219 75.6624C72.1588 78.4739 72.3744 81.2854 72.532 84.0969C72.6481 86.1164 72.7476 88.1359 72.8181 90.1554C72.9425 93.7963 73.1457 97.4372 73.324 101.078C73.4609 103.927 73.6682 106.763 74.1658 109.579C74.8086 113.241 76.6539 116.098 79.7267 118.179C81.0495 119.075 82.447 119.838 83.944 120.39C88.9035 122.206 94.0539 123.089 99.3078 123.338C102.389 123.483 105.474 123.338 108.555 123.222C112.495 123.077 116.438 122.981 120.369 122.625C124.529 122.247 128.087 120.597 131.164 117.827C134.473 114.85 136.72 111.196 138.093 106.975C139.615 102.289 140.042 97.4413 140.237 92.5688C140.328 90.284 140.253 87.9908 140.253 85.7059L140.266 85.6976ZM153.954 122.061C154.158 122.223 154.361 122.189 154.556 122.194C159.893 122.33 165.229 122.388 170.566 122.397C170.765 122.397 170.965 122.397 171.164 122.388C171.387 122.38 171.537 122.285 171.566 122.044C171.587 121.845 171.62 121.634 171.408 121.513C171.267 121.431 171.11 121.377 170.956 121.319C166.08 119.506 161.207 117.694 156.33 115.886C155.667 115.642 155.646 115.646 155.489 116.338C155.095 118.117 154.622 119.876 154.025 121.601C153.971 121.75 153.975 121.92 153.954 122.061ZM170.33 118.366C170.363 117.893 170.463 117.516 170.015 117.412C169.567 117.313 169.107 117.275 168.646 117.226C168.51 117.209 168.389 117.292 168.36 117.441C168.331 117.582 168.385 117.707 168.518 117.765C169.086 118.005 169.654 118.238 170.33 118.366ZM158.308 113.452C158.08 113.436 157.819 113.373 157.72 113.655C157.599 114.004 157.927 113.995 158.114 114.078C158.321 114.17 158.545 114.236 158.76 114.311C158.947 114.377 159.175 114.468 159.246 114.194C159.312 113.946 159.349 113.647 158.989 113.556C158.769 113.498 158.537 113.481 158.308 113.448V113.452ZM163.152 115.596C163.459 116.06 163.911 116.127 164.317 116.28C164.512 116.355 164.707 116.388 164.744 116.094C164.777 115.866 164.69 115.708 164.45 115.687C164.019 115.65 163.583 115.625 163.152 115.596Z" fill="#EFF0EB"/>
<path d="M198.567 100.887C199.031 101.729 199.462 102.588 199.757 103.504C199.806 103.662 199.873 103.815 199.91 103.977C199.976 104.259 200.117 104.595 199.773 104.773C199.417 104.96 199.234 104.661 199.064 104.412C198.786 104.006 198.513 103.599 198.168 103.226C198.119 103.608 198.33 103.898 198.471 104.201C198.911 105.146 199.139 106.141 199.205 107.178C199.226 107.493 199.354 107.875 198.985 108.078C198.633 108.273 198.517 107.804 198.21 107.73C197.974 108.269 198.318 108.692 198.438 109.144C198.55 109.575 198.873 110.027 198.173 110.288C197.936 110.375 198.048 110.624 198.094 110.815C198.247 111.495 198.401 112.175 198.218 112.876C198.094 113.353 198.061 113.871 197.53 114.124C197.318 114.223 197.327 114.452 197.285 114.638C197.161 115.223 197.07 115.816 196.729 116.326C196.605 116.508 196.688 116.707 196.7 116.906C196.779 118.59 196 119.822 194.416 120.34C193.835 120.531 193.408 120.771 193.217 121.373C193.134 121.642 192.927 121.845 192.612 121.746C192.338 121.659 192.326 121.414 192.355 121.169C192.379 120.937 192.433 120.688 192.114 120.61C191.774 120.522 191.637 120.738 191.546 121.016C191.293 121.783 190.87 122.455 190.401 123.098C190.302 123.23 190.207 123.367 190.103 123.496C189.925 123.72 189.713 123.881 189.423 123.72C189.17 123.574 189.224 123.317 189.286 123.093C189.431 122.55 189.597 122.011 189.755 121.472C189.808 121.285 189.904 121.103 189.846 120.896C188.967 121.091 188.809 121.211 188.627 121.999C188.428 122.845 188.15 123.653 187.718 124.408C187.619 124.582 187.519 124.752 187.403 124.914C187.275 125.092 187.101 125.171 186.885 125.08C186.707 125.005 186.653 124.839 186.669 124.669C186.727 124.109 186.806 123.55 186.877 122.994C186.902 122.799 186.931 122.604 186.955 122.409C185.977 122.359 185.226 123.027 185.38 124.014C185.624 125.602 184.77 126.432 183.543 127.074C182.535 127.601 181.44 127.871 180.329 128.086C179.056 128.335 177.758 128.331 176.472 128.451C175.937 128.501 175.407 128.426 174.897 128.294C174.328 128.144 173.964 127.672 173.947 127.153C173.93 126.627 174.254 126.166 174.814 125.946C175.386 125.723 175.987 125.752 176.584 125.747C177.949 125.747 179.301 125.631 180.636 125.366C181.254 125.246 181.851 125.051 182.431 124.789C182.813 124.619 182.954 124.404 182.672 124.035C182.456 123.749 182.294 123.413 181.979 123.234C181.561 123.396 181.44 124.101 180.938 123.902C180.379 123.682 180.752 123.077 180.648 122.658C180.615 122.529 180.648 122.388 180.611 122.264C180.557 122.098 180.412 121.99 180.234 121.99C180.084 121.99 180.018 122.123 179.981 122.256C179.927 122.447 179.889 122.641 179.831 122.832C179.769 123.044 179.62 123.176 179.396 123.172C179.222 123.172 179.085 123.064 179.01 122.903C178.969 122.811 178.915 122.716 178.911 122.625C178.865 121.223 177.741 121.211 176.721 120.879C176.75 121.447 177.036 121.825 177.177 122.248C177.322 122.687 177.538 123.11 177.629 123.558C177.745 124.118 177.41 124.644 176.916 124.848C176.448 125.038 175.842 124.951 175.585 124.478C174.764 122.965 173.901 121.422 173.719 119.701C173.611 118.685 174.051 117.628 174.457 116.645C174.569 116.38 174.81 116.127 174.37 115.808C174.08 116.28 173.789 116.745 173.503 117.209C173.379 117.412 173.246 117.62 172.968 117.566C172.616 117.495 172.637 117.197 172.641 116.935C172.649 116.67 172.691 116.409 172.711 116.143C172.724 115.978 172.736 115.795 172.508 115.766C171.824 115.691 171.94 115.268 172.081 114.821C172.11 114.729 172.102 114.63 172.118 114.489C171.874 114.344 171.538 114.675 171.326 114.352C171.156 114.095 171.218 113.85 171.256 113.589C171.297 113.307 171.384 113.021 171.239 112.644C170.538 113.087 170.02 113.626 169.556 114.232C169.356 114.493 169.178 114.779 168.892 114.966C168.494 115.231 168.083 115.268 167.689 114.978C167.308 114.696 167.175 114.306 167.3 113.838C167.403 113.44 167.644 113.125 167.893 112.809C168.751 111.731 169.838 110.918 170.994 110.189C171.811 109.67 171.762 109.674 171.558 108.704C171.38 107.846 171.496 106.991 171.869 106.183C172.218 105.424 172.691 104.748 173.167 104.064C173.366 103.782 173.661 103.529 173.611 103.114C173.242 103.04 173.217 103.346 173.105 103.508C172.566 104.304 172.044 105.109 171.521 105.917C171.368 106.154 171.181 106.361 170.874 106.237C170.576 106.116 170.551 105.834 170.601 105.561C170.692 105.042 170.804 104.524 170.916 103.964C170.683 103.765 170.331 104.118 170.119 103.798C169.929 103.516 169.974 103.23 170.02 102.94C170.074 102.579 170.128 102.218 170.227 101.866C170.352 101.426 170.7 100.979 169.925 100.751C169.697 100.684 169.813 100.344 169.887 100.12C170.215 99.1374 170.65 98.2127 171.318 97.4123C171.778 96.8608 172.222 96.301 172.674 95.7453C172.624 95.6997 172.574 95.65 172.525 95.6043C172.015 96.0937 171.517 96.5913 170.994 97.064C170.7 97.3336 170.426 97.9597 169.979 97.6031C169.46 97.1884 170.078 96.7862 170.294 96.4378C170.957 95.368 171.733 94.3769 172.529 93.3899C172.093 93.5517 171.807 93.8959 171.471 94.1861C171.297 94.3396 171.094 94.5137 170.858 94.3437C170.584 94.1488 170.659 93.8751 170.8 93.6305C170.999 93.2904 171.223 92.9628 171.438 92.6311C171.384 92.5855 171.339 92.5108 171.31 92.5191C171.069 92.5772 170.816 92.8177 170.592 92.5274C170.364 92.233 170.547 91.9593 170.717 91.7105C171.256 90.9143 171.82 90.1306 172.512 89.4588C172.703 89.2763 172.923 89.127 173.072 88.8865C172.5 88.8699 172.135 89.2556 171.708 89.4961C171.451 89.6412 171.21 89.8279 170.953 89.9813C170.775 90.0891 170.576 90.1306 170.406 89.9605C170.207 89.7574 170.256 89.5293 170.406 89.3302C170.547 89.1478 170.712 88.9819 170.874 88.816C171.849 87.8249 172.844 86.8587 174.096 86.0874C173.852 85.8262 173.619 85.8967 173.42 85.9382C172.641 86.0957 171.865 86.2699 171.086 86.4358C170.858 86.4855 170.63 86.5312 170.401 86.5477C170.194 86.5602 169.999 86.4938 169.949 86.2533C169.912 86.0833 169.962 85.9133 170.111 85.8138C170.302 85.6852 170.509 85.5732 170.712 85.4696C172.255 84.6983 173.81 83.956 175.527 83.6242C175.676 83.5952 175.855 83.5994 175.966 83.392C175.34 82.9856 174.61 82.9068 173.91 82.7451C173.619 82.6788 173.321 82.6415 173.031 82.5793C172.786 82.5295 172.583 82.4051 172.595 82.1231C172.608 81.8411 172.836 81.7375 173.072 81.7001C174.225 81.5177 175.382 81.4969 176.539 81.6753C176.862 81.725 177.181 81.8121 177.571 81.895C177.517 81.4513 177.219 81.2357 176.991 80.9869C175.361 79.2079 173.478 77.7441 171.343 76.6369C168.374 75.0943 165.405 73.5392 162.203 72.5025C161.842 72.3864 161.337 72.2828 161.478 71.7437C161.598 71.2751 162.054 71.387 162.406 71.4327C166.997 72.0298 171.38 73.2158 175.187 76.0107C175.784 76.4503 176.377 76.9023 177.099 77.4455C177.016 76.9023 176.775 76.6203 176.593 76.3259C173.043 70.5411 168.623 65.4779 163.58 60.9661C158.363 56.301 153.064 51.7271 147.797 47.1158C147.573 46.9209 147.337 46.7343 147.121 46.5311C146.885 46.3155 146.723 46.0377 146.926 45.7433C147.163 45.3991 147.499 45.4903 147.81 45.6562C147.926 45.7184 148.034 45.7972 148.146 45.8718C150.708 47.5927 153.296 49.2722 155.821 51.0387C162.796 55.9071 169.062 61.555 174.395 68.2023C177.099 71.5737 179.45 75.1814 181.291 79.1001C181.614 79.042 181.519 78.8015 181.523 78.6357C181.888 67.4974 184.554 56.8816 188.826 46.6348C189.502 45.0134 190.327 43.4584 191.135 41.8992C192.695 38.8762 194.909 36.3798 197.339 34.0534C197.434 33.9622 197.53 33.871 197.638 33.7922C197.837 33.6429 198.056 33.5724 198.268 33.7632C198.475 33.9456 198.45 34.1778 198.359 34.4018C198.309 34.522 198.226 34.6298 198.16 34.746C193.881 41.8079 190.41 49.2307 188.121 57.1884C186.578 62.5502 185.376 67.9784 184.679 73.5144C184.633 73.871 184.554 74.2359 184.658 74.6091C184.977 74.6215 184.99 74.3396 185.073 74.1571C187.043 69.7532 190.298 66.4524 194.125 63.6491C194.258 63.5537 194.403 63.4667 194.548 63.392C194.76 63.2842 194.946 63.363 195.079 63.5247C195.191 63.6574 195.216 63.8399 195.121 63.9892C194.996 64.1841 194.855 64.3665 194.698 64.5365C192.35 67.0454 190.497 69.9191 188.681 72.8135C187.387 74.8745 186.562 77.1552 185.828 79.4692C185.79 79.5894 185.786 79.718 185.745 79.9999C186.375 79.6516 186.902 79.3489 187.441 79.0752C187.764 78.9093 188.1 78.7642 188.444 78.6522C188.652 78.5817 188.834 78.6978 188.938 78.8927C189.025 79.0545 188.992 79.2245 188.88 79.353C188.726 79.5272 188.548 79.6765 188.386 79.8424C187.623 80.622 186.864 81.4057 186.056 82.2392C186.462 82.4134 186.611 82.1314 186.79 81.9946C187.582 81.3808 188.411 80.8417 189.386 80.5639C189.543 80.5183 189.701 80.4436 189.862 80.4271C190.202 80.3939 190.654 80.1492 190.833 80.5971C191.023 81.0698 190.505 81.1652 190.223 81.3559C189.518 81.8328 188.838 82.3346 188.2 82.9898C188.643 83.2925 188.979 83.0395 189.282 82.9359C190.584 82.4797 191.923 82.3097 193.296 82.3429C193.495 82.347 193.694 82.3553 193.889 82.3802C194.071 82.4009 194.188 82.5129 194.208 82.6995C194.229 82.882 194.15 83.0354 193.984 83.0976C193.736 83.193 193.478 83.2593 193.221 83.3257C192.338 83.5537 191.48 83.8482 190.654 84.2504C190.812 84.5656 191.019 84.4578 191.202 84.4287C192.102 84.296 192.989 84.3955 193.864 84.6029C194.1 84.6609 194.328 84.7646 194.341 85.0342C194.353 85.3659 194.096 85.4779 193.814 85.511C193.358 85.5608 192.91 85.6189 192.367 85.876C192.894 86.0543 193.313 85.9713 193.719 85.9879C194.569 86.0211 195.361 86.2243 196.02 86.7924C196.369 87.091 196.8 87.3647 196.456 87.9452C196.315 88.1816 196.564 88.2894 196.692 88.4179C196.97 88.6999 197.264 88.9736 197.542 89.2556C197.737 89.4505 197.907 89.6869 197.758 89.9605C197.596 90.2674 197.314 90.1637 197.057 90.0725C196.966 90.0393 196.887 89.9605 196.734 90.0684C197.103 90.5204 197.48 90.9641 197.841 91.4202C197.978 91.5985 198.222 91.8764 198.032 92.0298C197.443 92.5025 197.92 92.7845 198.156 93.1204C198.484 93.5848 198.716 94.0991 198.894 94.634C198.956 94.8247 199.064 95.0901 198.936 95.2062C198.367 95.7204 198.824 96.1393 199.006 96.5913C199.106 96.8359 199.23 97.0723 199.317 97.3253C199.566 98.0675 199.466 98.2044 198.629 98.2707C198.886 98.8471 199.147 99.4111 199.388 99.9834C199.479 100.195 199.537 100.423 199.603 100.643C199.665 100.846 199.653 101.062 199.483 101.19C199.313 101.323 199.114 101.273 198.94 101.136C198.819 101.041 198.728 100.871 198.529 100.929C198.6 100.527 198.413 100.311 198.007 100.191C198.139 100.514 198.309 100.742 198.554 100.908L198.567 100.887ZM186.794 119.133C186.607 118.806 186.371 118.743 186.172 118.631C184.65 117.794 183.294 116.741 182.008 115.579C181.689 115.289 181.374 114.995 181.204 114.58C181.009 114.103 181.075 113.655 181.424 113.286C181.76 112.926 182.187 112.772 182.688 112.93C183.012 113.029 183.294 113.203 183.547 113.415C184.007 113.796 184.463 114.182 184.919 114.568C185.761 115.273 186.653 115.903 187.619 116.425C187.81 116.529 188.013 116.757 188.245 116.55C189.012 115.866 190.041 115.733 190.907 115.264C191.086 115.165 191.372 115.169 191.33 114.85C191.152 114.767 190.994 114.829 190.833 114.858C190.472 114.92 190.115 114.991 189.755 115.024C189.564 115.04 189.34 115.036 189.261 114.796C189.174 114.518 189.34 114.36 189.56 114.244C189.705 114.17 189.862 114.111 190.016 114.041C190.737 113.701 191.459 113.369 192.172 113.017C192.487 112.863 192.873 112.739 192.769 112.258C192.558 112.154 192.359 112.192 192.164 112.204C191.733 112.237 191.305 112.291 190.874 112.312C190.667 112.32 190.484 112.225 190.431 111.992C190.381 111.764 190.493 111.607 190.688 111.511C190.866 111.424 191.053 111.35 191.239 111.283C191.828 111.064 192.413 110.827 193.014 110.632C193.412 110.504 193.599 110.288 193.545 109.795C192.894 109.915 192.317 110.039 191.733 110.126C191.422 110.172 191.011 110.321 190.858 109.915C190.696 109.488 191.106 109.372 191.393 109.222C191.538 109.148 191.691 109.073 191.84 109.007C192.45 108.746 193.055 108.484 193.669 108.231C193.893 108.14 194.142 108.024 194.096 107.759C194.038 107.398 193.731 107.576 193.532 107.597C193.138 107.634 192.744 107.713 192.35 107.759C192.139 107.779 191.944 107.696 191.869 107.485C191.791 107.265 191.911 107.099 192.102 106.991C192.247 106.909 192.396 106.842 192.545 106.772C192.997 106.56 193.449 106.353 193.897 106.141C194.105 106.042 194.382 105.951 194.316 105.669C194.229 105.312 193.955 105.532 193.748 105.557C193.159 105.635 192.566 105.718 191.973 105.776C191.733 105.801 191.496 105.731 191.451 105.436C191.413 105.204 191.567 105.071 191.753 104.976C191.932 104.889 192.114 104.806 192.297 104.731C192.848 104.508 193.4 104.275 193.955 104.064C194.217 103.964 194.328 103.803 194.27 103.533C194.192 103.147 193.943 103.33 193.731 103.375C193.279 103.471 192.827 103.599 192.359 103.591C192.089 103.587 191.791 103.604 191.691 103.292C191.587 102.965 191.861 102.82 192.098 102.704C192.661 102.426 193.234 102.165 193.802 101.891C193.955 101.816 194.113 101.721 194.051 101.522C193.976 101.29 193.789 101.373 193.64 101.431C193.109 101.634 192.57 101.783 191.998 101.791C191.67 101.791 191.276 101.866 191.177 101.435C191.09 101.057 191.434 100.95 191.699 100.821C192.176 100.589 192.657 100.361 193.134 100.133C193.313 100.046 193.503 99.9751 193.669 99.8672C193.959 99.6806 193.864 99.4028 193.794 99.1499C193.719 98.8927 193.52 98.9218 193.313 98.9632C192.467 99.1416 191.612 99.2452 190.746 99.266C190.534 99.2701 190.343 99.1955 190.285 98.9715C190.227 98.7435 190.364 98.59 190.547 98.4864C190.721 98.391 190.907 98.3205 191.086 98.2376C191.749 97.9348 192.429 97.6694 193.138 97.4953C193.437 97.4248 193.483 97.2257 193.412 96.9645C193.346 96.7198 193.18 96.6701 192.956 96.7364C192.413 96.9023 191.853 96.9686 191.285 96.952C190.99 96.9438 190.638 96.9645 190.563 96.583C190.501 96.2678 190.771 96.1268 191.007 95.9983C191.505 95.737 191.986 95.4343 192.525 95.256C192.79 95.1689 193.026 95.0445 192.877 94.6838C192.744 94.3686 192.52 94.4598 192.297 94.5428C191.695 94.7625 191.077 94.8413 190.439 94.8206C190.19 94.8123 189.966 94.746 189.891 94.4847C189.808 94.2027 190.016 94.0493 190.223 93.9456C190.787 93.6636 191.351 93.3858 191.957 93.2033C192.239 93.1204 192.404 92.9794 192.28 92.6228C192.156 92.2745 191.994 92.121 191.625 92.262C190.99 92.5025 190.323 92.4984 189.663 92.515C189.427 92.5233 189.166 92.5025 189.116 92.2123C189.07 91.9386 189.282 91.7976 189.502 91.7022C190.016 91.4783 190.538 91.2668 191.053 91.0346C191.459 90.8521 191.505 90.4996 191.185 90.1886C191.019 90.0269 190.829 90.0435 190.63 90.0684C190.269 90.1098 189.908 90.172 189.543 90.1969C189.327 90.2135 189.157 90.0974 189.095 89.8818C189.041 89.6952 189.149 89.5542 189.286 89.4588C189.527 89.2846 189.788 89.1353 190.037 88.9736C190.182 88.8782 190.302 88.7663 190.207 88.5714C190.115 88.3972 189.962 88.3723 189.788 88.4138C189.464 88.4884 189.141 88.5672 188.817 88.6253C188.643 88.6543 188.498 88.5755 188.403 88.4138C188.303 88.2438 188.37 88.0986 188.461 87.9535C188.614 87.6964 189.033 87.6383 189.05 87.1822C188.797 87.232 188.61 87.2859 188.419 87.3107C187.714 87.3937 187.582 87.2402 187.905 86.5809C188.079 86.2243 187.926 86.1082 187.694 85.9506C187.378 85.7391 187.055 85.8552 186.732 85.905C186.396 85.9547 186.039 86.0169 185.989 85.5193C185.956 85.1669 185.691 85.1295 185.429 85.0673C184.584 84.8683 183.725 84.8019 182.863 84.7978C181.353 84.7936 180.022 85.3659 179.085 86.498C177.787 88.0613 176.788 89.8113 176.443 91.8805C176.116 93.8544 176.008 95.8324 176.033 97.827C176.07 100.846 176.161 103.861 176.136 106.879C176.12 108.833 176.195 110.79 176.464 112.731C176.9 115.878 178.546 118.126 181.415 119.461C183.24 120.311 185.015 120.075 186.781 119.121L186.794 119.133ZM198.276 97.769C197.779 96.865 197.061 96.2181 196.12 95.7661C196.626 96.8401 197.683 97.0682 198.276 97.769ZM195.075 90.9765C195.299 91.3953 195.676 91.4575 196.178 91.4617C195.834 91.1092 195.498 90.9682 195.075 90.9765Z" fill="#EFF0EB"/>
<path d="M29.7157 105.81C29.7821 105.449 29.6038 105.241 29.4628 105.026C28.82 104.039 28.1814 103.931 27.2401 104.636C27.0535 104.773 26.8876 104.935 26.7052 105.08C26.5185 105.225 26.3402 105.212 26.1868 105.026C26.0707 104.885 26.0707 104.74 26.1578 104.574C26.7425 103.442 28.538 102.965 29.4959 103.728C30.4165 104.458 30.769 105.557 31.221 106.581C31.333 106.834 31.1754 107.095 30.9971 107.307C30.4414 107.97 29.8111 108.555 29.0481 108.974C28.849 109.081 28.621 109.164 28.397 109.197C27.8082 109.285 27.265 109.181 26.9125 108.638C26.6139 108.173 26.7259 107.526 27.2069 107.004C27.8828 106.262 28.762 105.913 29.7199 105.814L29.7157 105.81ZM30.1097 106.871C29.1849 106.693 28.5505 106.967 27.999 107.489C27.8123 107.667 27.5635 107.891 27.7667 108.161C27.945 108.401 28.2643 108.331 28.5049 108.223C29.1061 107.949 29.6286 107.568 30.1097 106.875V106.871Z" fill="#EFF0EB"/>
<path d="M47.6794 98.3495C47.6836 99.0586 47.9572 99.7055 48.177 100.365C48.2807 100.68 48.4134 100.983 48.4963 101.302C48.5585 101.538 48.5171 101.787 48.2309 101.858C48.0029 101.912 47.8577 101.746 47.7706 101.559C47.3642 100.688 47.0118 99.7968 46.8376 98.843C46.6925 98.0427 46.8708 97.3294 47.3145 96.6701C48.0692 95.5505 49.0147 95.4634 49.9601 96.4171C50.2629 96.724 50.5075 97.0848 50.6983 97.4704C51.2705 98.6315 51.6769 99.859 52.0667 101.091C52.1704 101.414 52.3528 101.866 51.8511 102.011C51.3203 102.16 51.2996 101.65 51.2 101.331C50.8766 100.286 50.5117 99.2577 50.0845 98.25C49.8772 97.7607 49.6118 97.2963 49.2096 96.9355C48.8239 96.5913 48.5212 96.6037 48.1812 96.9811C47.8328 97.3626 47.6753 97.8312 47.6836 98.3495H47.6794Z" fill="#EFF0EB"/>
<path d="M42.21 100.004C42.2224 99.8838 42.2224 99.7843 42.2431 99.6889C42.4214 98.8845 42.5376 97.997 43.4623 97.6943C44.329 97.4082 45.6103 97.968 46.1702 98.7683C46.8751 99.7719 46.7714 101.368 45.9421 102.272C45.2496 103.027 44.0926 103.077 43.2591 102.368C42.5293 101.746 42.2597 100.916 42.21 100.008V100.004ZM45.7389 100.22C45.7389 100.174 45.7389 100.041 45.7099 99.9129C45.5647 99.1333 44.6607 98.4325 43.906 98.5071C43.3379 98.5652 43.002 99.2618 43.1015 100.203C43.1181 100.365 43.1513 100.531 43.1969 100.684C43.4706 101.588 44.0387 102.044 44.7312 101.924C45.3491 101.816 45.7389 101.186 45.7347 100.22H45.7389Z" fill="#EFF0EB"/>
<path d="M39.7799 106.365C39.5891 106.39 39.444 106.303 39.3569 106.158C39.2076 105.901 39.0708 105.635 38.9588 105.362C38.4695 104.13 38.0009 102.89 37.5116 101.659C37.2254 100.937 37.2171 100.941 36.5205 101.219C36.1804 101.352 35.8446 101.493 35.5004 101.601C35.3428 101.65 35.1686 101.601 35.0774 101.426C34.982 101.252 35.0484 101.078 35.1769 100.983C35.4133 100.804 35.6704 100.651 35.9358 100.518C36.338 100.311 36.8232 100.22 36.9144 99.6475C36.9393 99.4858 37.1218 99.3323 37.2918 99.4236C37.8184 99.7097 38.2497 99.3987 38.7058 99.237C38.8302 99.1913 38.9505 99.1291 39.0791 99.1043C39.303 99.0586 39.5642 98.9923 39.672 99.2784C39.7591 99.5065 39.5767 99.6516 39.4108 99.7553C39.1869 99.8963 38.9464 100.012 38.7141 100.141C38.0548 100.51 38.0341 100.518 38.3036 101.219C38.8137 102.55 39.3569 103.869 39.8794 105.192C39.9665 105.407 40.0535 105.623 40.1075 105.847C40.1697 106.112 40.0411 106.291 39.7799 106.365Z" fill="#EFF0EB"/>
<path d="M31.2129 104.694C31.2295 102.994 32.486 101.642 34.0037 101.522C34.1322 101.509 34.2732 101.509 34.3935 101.547C34.5842 101.605 34.775 101.708 34.775 101.945C34.775 102.177 34.6257 102.297 34.4059 102.335C34.211 102.368 34.0078 102.376 33.8171 102.426C32.2123 102.845 31.6068 104.516 32.5647 105.876C32.8633 106.303 33.3278 106.485 33.8668 106.353C34.2857 106.249 34.6838 106.092 35.0238 105.805C35.2021 105.656 35.3846 105.515 35.5753 105.387C35.7246 105.287 35.8822 105.275 36.0315 105.403C36.2139 105.565 36.1973 105.76 36.0854 105.938C35.7702 106.423 35.3141 106.751 34.7999 107C33.9747 107.398 33.1412 107.464 32.345 106.937C31.4824 106.365 31.3414 105.436 31.2129 104.69V104.694Z" fill="#EFF0EB"/>
<path d="M40.5393 99.7428C40.531 99.4276 40.56 99.1871 40.8461 99.1332C41.0825 99.0876 41.2069 99.2866 41.2774 99.4691C41.7626 100.763 42.2394 102.061 42.708 103.359C42.7744 103.537 42.791 103.765 42.5629 103.877C42.3016 104.006 42.115 103.852 41.9865 103.649C41.8828 103.483 41.804 103.301 41.7335 103.114C41.3769 102.156 41.0244 101.202 40.6802 100.24C40.6139 100.058 40.5766 99.863 40.5393 99.7386V99.7428Z" fill="#EFF0EB"/>
<path d="M40.4064 97.3086C40.7423 97.3542 40.8128 97.603 40.7962 97.8726C40.7754 98.1877 40.6303 98.4531 40.2612 98.4075C39.9585 98.3702 39.8217 98.1255 39.8383 97.8477C39.859 97.5201 40.0539 97.3169 40.4064 97.3086Z" fill="#EFF0EB"/>
<path d="M28.4222 91.1424C29.2266 91.188 30.1514 91.3912 30.9393 92.0049C31.271 92.262 31.5406 92.5896 31.2544 93.0167C30.9683 93.4397 30.5744 93.3443 30.2094 93.0997C29.8445 92.855 29.4464 92.7306 29.0235 92.6228C28.136 92.403 27.3979 92.6394 26.7593 93.2656C26.5478 93.4729 26.3446 93.6927 26.1207 93.8834C25.8055 94.153 25.4489 94.1903 25.1338 93.9042C24.8145 93.6139 24.8518 93.2697 25.0716 92.9214C25.6936 91.951 27.0993 91.159 28.418 91.1424H28.4222Z" fill="#EFF0EB"/>
<path d="M73.821 49.0026C73.8583 46.6141 73.9412 44.2338 74.3932 41.8784C74.53 41.161 74.7291 40.4561 75.0401 39.7968C75.5958 38.6191 76.4417 37.7524 77.636 37.1635C80.1365 35.9319 82.8112 35.3348 85.5108 34.7957C88.6333 34.1737 91.8139 33.9373 94.953 33.4439C98.258 32.9255 101.563 32.3864 104.876 31.9178C107.236 31.582 109.612 31.3249 111.98 31.0636C115.509 30.678 118.988 29.9937 122.467 29.3178C123.898 29.04 125.337 28.7995 126.792 28.6916C127.319 28.6543 127.854 28.6419 128.38 28.6792C129.558 28.7621 130.375 29.3717 130.723 30.5079C131.333 32.5025 131.955 34.5013 132.287 36.5623C132.963 40.7588 133.298 44.9803 133.278 49.2349C133.269 50.7567 133.406 52.2786 133.464 53.8046C133.489 54.4764 133.361 55.1233 133.12 55.7495C132.73 56.7654 132.005 57.4455 131.014 57.8809C128.998 58.7642 126.908 59.4111 124.71 59.5894C121.866 59.8216 119.054 60.2902 116.234 60.6842C113.838 61.0201 111.42 61.1528 109.015 61.3974C105.353 61.7665 101.712 62.2765 98.0631 62.7327C94.02 63.2386 89.9852 63.8233 85.9255 64.1675C83.7774 64.3499 81.6169 64.3292 79.4938 63.8316C79.1371 63.7486 78.7847 63.6574 78.4363 63.562C77.1716 63.2096 76.3007 62.4258 75.7865 61.2108C75.2392 59.9212 74.9364 58.561 74.6462 57.2009C74.078 54.5013 73.7753 51.7727 73.8127 49.0068L73.821 49.0026ZM75.8529 48.4055C75.7865 50.1306 75.8156 51.5571 75.9607 52.9753C76.1846 55.1897 76.6408 57.3543 77.3043 59.4857C77.6982 60.7547 78.4529 61.4638 79.7965 61.7084C81.7082 62.0568 83.6198 62.1563 85.5398 61.9904C90.0308 61.6006 94.4844 60.9247 98.9547 60.369C102.931 59.8755 106.908 59.353 110.906 59.0337C112.589 58.8969 114.273 58.7393 115.952 58.5527C118.453 58.2749 120.933 57.8146 123.45 57.6238C125.639 57.458 127.767 57.0267 129.819 56.1766C130.893 55.7329 131.374 55.0487 131.366 53.9124C131.358 52.6186 131.213 51.329 131.175 50.0393C131.072 46.1953 130.951 42.3595 130.342 38.5486C130.027 36.583 129.674 34.6423 128.982 32.7596C128.517 31.4949 127.638 31.0263 126.415 30.9724C124.955 30.906 123.504 30.9724 122.065 31.2875C119.801 31.7851 117.524 32.233 115.231 32.5896C112.349 33.0375 109.446 33.3153 106.547 33.6595C103.155 34.0659 99.8048 34.7211 96.4293 35.2104C93.315 35.6624 90.1884 36.0356 87.0865 36.5623C84.2128 37.0516 81.3764 37.7358 78.7391 39.0628C77.8848 39.494 77.2918 40.0995 76.9518 40.962C76.7818 41.3891 76.6532 41.8411 76.5412 42.289C76.0353 44.3956 75.969 46.5519 75.857 48.4055H75.8529Z" fill="#EFF0EB"/>
<path d="M107.016 5.87181C108.02 5.89254 108.878 5.94645 109.704 6.24087C110.371 6.47724 110.977 6.81313 111.433 7.36466C112.287 8.40136 112.084 9.5749 110.881 10.1803C109.368 10.9433 107.767 11.4617 106.112 11.8639C102.791 12.6767 99.3947 13.0458 96.0399 13.6595C93.6597 14.0949 91.2794 14.522 88.8991 14.9491C88.3103 15.057 87.7131 15.0984 87.116 15.0362C86.0876 14.9284 85.5527 14.3396 85.6107 13.3029C85.7019 11.7354 86.3613 10.5038 87.8541 9.82785C89.0028 9.3095 90.1846 8.89068 91.4204 8.61284C93.133 8.22719 94.8042 7.65493 96.5292 7.33978C99.1666 6.86289 101.837 6.53115 104.491 6.14965C105.374 6.02109 106.249 5.80131 107.016 5.87181Z" fill="#EFF0EB"/>
<path d="M106.391 120.937C104.666 120.862 103.061 120.539 101.626 119.594C99.0178 117.873 98.3709 114.854 100.05 112.216C100.374 111.71 100.735 111.229 101.195 110.848C104.006 108.509 107.166 107.514 110.795 108.447C112.072 108.775 113.196 109.392 114.104 110.363C115.568 111.926 115.916 114.029 115.045 115.982C114.506 117.193 113.656 118.15 112.586 118.922C110.724 120.261 108.618 120.854 106.387 120.937H106.391ZM106.291 119.034C108.249 119.034 109.957 118.499 111.458 117.35C112.151 116.819 112.723 116.177 113.084 115.372C113.764 113.85 113.399 112.399 112.076 111.391C111.404 110.877 110.637 110.578 109.82 110.396C108.734 110.155 107.664 110.259 106.565 110.388C104.487 110.628 102.862 111.59 101.688 113.266C100.44 115.045 100.905 116.998 102.75 118.138C103.857 118.822 105.08 119.067 106.295 119.034H106.291Z" fill="#EFF0EB"/>
<path d="M92.7553 90.9433C92.7553 92.3325 92.7678 93.7258 92.7553 95.115C92.7387 96.7406 92.436 97.0806 90.8602 97.346C89.0273 97.657 87.1613 97.6031 85.3201 97.8187C83.8065 97.997 82.2888 98.1339 80.7752 98.2873C80.5762 98.3081 80.3813 98.3246 80.1822 98.3329C78.8055 98.3993 78.5359 98.1339 78.5733 96.7779C78.6396 94.2525 78.3535 91.752 78.0881 89.2473C78.0135 88.5548 77.8932 87.8706 77.8186 87.178C77.7273 86.3362 78.0259 85.8718 78.8387 85.7723C81.729 85.4157 84.5488 84.6029 87.4723 84.437C88.368 84.3872 89.2596 84.3582 90.1511 84.3707C90.4497 84.3707 90.7317 84.3707 91.0302 84.2919C91.7228 84.1011 92.1043 84.3168 92.295 84.9968C92.4028 85.3783 92.4609 85.7764 92.4816 86.1704C92.5563 87.7586 92.606 89.3468 92.6641 90.935C92.6973 90.935 92.7304 90.935 92.7636 90.935L92.7553 90.9433ZM90.939 91.0636C90.91 91.0636 90.881 91.0636 90.8519 91.0636C90.8519 90.002 90.8602 88.9404 90.8519 87.883C90.8478 87.4186 90.7814 86.9583 90.7731 86.4938C90.7648 86.0377 90.5865 85.8138 90.1055 85.8925C89.977 85.9133 89.8401 85.905 89.7074 85.9091C86.5434 85.9921 83.4623 86.6431 80.373 87.2568C79.5975 87.4103 79.61 87.4144 79.668 88.223C79.8505 90.7692 80.1573 93.3029 80.1449 95.8614C80.1449 96.7032 80.1615 96.7032 80.9826 96.6203C83.1264 96.4047 85.2662 96.1766 87.4101 95.9734C88.368 95.8822 89.3259 95.8614 90.2797 95.7204C90.7773 95.65 90.9515 95.4343 90.9432 94.945C90.9224 93.6512 90.9349 92.3615 90.9349 91.0677L90.939 91.0636Z" fill="#EFF0EB"/>
<path d="M78.0262 76.5663C78.0926 74.9781 78.1548 73.3899 78.3455 71.81C78.4285 71.1257 78.7395 70.7401 79.3864 70.5286C81.0824 69.9729 82.7536 69.3592 84.5035 68.9528C85.8139 68.646 87.0745 68.1193 88.4264 67.9286C90.392 67.6466 90.7113 67.8622 91.0389 69.8237C91.5531 72.8633 91.3126 75.8987 91.0513 78.9342C90.9601 80.0082 90.4044 80.5099 89.3636 80.5182C86.5935 80.5307 83.8981 81.02 81.2151 81.6296C80.7341 81.7374 80.2323 81.8037 79.7389 81.8203C78.4865 81.8618 77.877 81.3061 77.877 80.0455C77.877 78.8885 77.9723 77.7316 78.0262 76.5746V76.5663ZM89.4714 74.833C89.5377 73.3401 89.488 71.8514 89.3138 70.3669C89.235 69.6868 89.1977 69.6536 88.4969 69.7407C85.76 70.0849 83.0853 70.6945 80.4894 71.6317C79.9835 71.8141 79.7886 72.1002 79.7223 72.6352C79.4693 74.6796 79.5232 76.7405 79.4154 78.789C79.3408 80.1989 78.9551 80.4975 80.9414 80.0538C83.4337 79.5023 85.9217 78.959 88.4803 78.8015C89.2558 78.7559 89.2723 78.7144 89.3221 77.9058C89.3843 76.8815 89.4216 75.8531 89.4714 74.8288V74.833Z" fill="#EFF0EB"/>
<path d="M114.704 76.0315C111.474 76.0066 108.289 76.3632 105.129 77.0184C103.392 77.3792 101.642 77.3875 99.896 77.0474C99.5726 76.9852 99.2367 76.9728 98.9091 76.9272C98.2995 76.8484 97.7936 76.9894 97.466 77.5575C97.3997 77.6694 97.3043 77.769 97.2089 77.8602C96.9518 78.109 96.6533 78.2376 96.3049 78.0883C95.911 77.9182 95.8239 77.5741 95.8446 77.1843C95.8944 76.0398 96.8564 74.9823 98.0424 74.833C98.5317 74.7708 99.0542 74.7418 99.527 74.8455C101.99 75.3846 104.399 75.0238 106.817 74.5303C110.259 73.8254 113.73 73.8585 117.213 74.1073C118.872 74.2235 120.489 74.5967 122.135 74.7667C122.268 74.7791 122.401 74.7957 122.525 74.833C122.732 74.8952 122.878 75.0362 122.878 75.256C122.878 75.4799 122.712 75.6126 122.517 75.6831C122.397 75.7287 122.26 75.7329 122.127 75.7578C119.962 76.1683 117.785 76.2471 115.592 76.0812C115.293 76.0605 114.995 76.048 114.7 76.0315H114.704Z" fill="#EFF0EB"/>
<path d="M78.1214 30.6282C74.9159 30.6033 72.884 27.8623 73.7797 24.777C74.5676 22.0609 77.3086 19.9087 80.0911 19.8216C83.3795 19.718 85.5027 22.3346 84.7148 25.5193C84.0098 28.3599 81.049 30.6531 78.1214 30.6282ZM75.3513 26.4316C75.3596 27.8871 76.3134 28.8865 77.8228 29.0109C80.174 29.2058 82.7658 27.0329 82.9731 24.69C83.1224 23.023 82.1645 21.866 80.5058 21.7126C78.0011 21.4803 75.3389 23.9187 75.3513 26.4358V26.4316Z" fill="#EFF0EB"/>
<path d="M115.322 68.5008C111.968 68.3972 108.965 68.7455 106.017 69.6578C104.176 70.2301 102.277 70.5245 100.332 70.3959C99.7014 70.3545 99.0794 70.2591 98.4781 70.0683C97.8768 69.8817 97.3046 69.6454 96.6701 70.0144C96.4006 70.1679 96.0854 70.0517 95.8781 69.7822C95.6707 69.5085 95.7164 69.2307 95.8698 68.9445C96.2513 68.2437 97.0682 67.8788 98.1132 68.0447C99.1292 68.2106 100.145 68.3059 101.178 68.2894C102.683 68.2645 104.147 67.9742 105.573 67.5388C107.974 66.8048 110.417 66.5062 112.926 66.5601C115.874 66.6265 118.826 66.5477 121.75 67.0246C121.849 67.0412 121.949 67.0453 122.049 67.0495C122.36 67.0743 122.695 67.1324 122.691 67.5139C122.691 67.883 122.351 67.941 122.049 68.0074C120.527 68.3516 118.996 68.6004 117.421 68.505C116.629 68.4552 115.832 68.4967 115.318 68.4967L115.322 68.5008Z" fill="#EFF0EB"/>
<path d="M115.853 87.572C113.573 87.7089 111.342 87.3979 109.148 86.8463C107.726 86.4897 106.336 86.498 104.939 86.9707C103.347 87.5057 101.758 87.6301 100.212 86.809C99.7803 86.5809 99.4569 86.7012 99.1832 87.0786C98.9302 87.4269 98.6814 87.7835 98.3911 88.0987C98.1091 88.4014 97.765 88.6087 97.3337 88.3475C96.9605 88.1194 96.89 87.7379 97.1512 87.2113C97.4332 86.6473 97.7567 86.1082 98.1838 85.6355C98.8307 84.9139 99.6559 84.6319 100.514 85.0715C101.945 85.8013 103.322 85.6603 104.74 85.1171C106.212 84.5532 107.721 84.5407 109.239 84.8932C111.968 85.5277 114.717 85.8304 117.524 85.5981C119.449 85.4406 121.364 85.6603 123.272 85.9133C123.434 85.934 123.608 85.9423 123.757 86.0045C124.081 86.1414 124.118 86.527 123.815 86.7053C123.649 86.8007 123.446 86.8505 123.251 86.8837C120.8 87.3149 118.333 87.6052 115.845 87.5803L115.853 87.572Z" fill="#EFF0EB"/>
<path d="M113.365 94.6298C112.063 94.5551 110.807 94.4183 109.613 94.0078C108.269 93.5433 106.955 93.5848 105.615 93.987C104.918 94.1985 104.213 94.3727 103.504 94.5468C102.269 94.8537 101.062 94.8205 99.9838 94.0575C99.5318 93.7382 99.2871 93.8543 99.0632 94.3105C98.9056 94.6339 98.7024 94.9449 98.4785 95.2269C98.2545 95.5089 97.9269 95.6126 97.5869 95.4633C97.222 95.3016 97.1598 94.9615 97.2469 94.6215C97.4459 93.846 97.7403 93.1038 98.2462 92.4776C98.7231 91.8887 99.3161 91.7726 100.029 92.0671C100.15 92.1168 100.282 92.1666 100.382 92.2454C101.431 93.1079 102.576 93.0084 103.761 92.5978C104.354 92.3947 104.964 92.2288 105.561 92.038C107.025 91.5694 108.476 91.5363 109.953 92.0173C111.748 92.602 113.581 92.7057 115.443 92.3117C116.057 92.1832 116.687 92.1251 117.305 92.0256C118.636 91.81 119.942 92.1749 121.265 92.1583C121.535 92.1583 121.804 92.3034 121.817 92.6227C121.833 93.0125 121.514 93.0872 121.22 93.1618C119.453 93.5931 117.674 93.9787 115.883 94.2897C115.032 94.439 114.182 94.5551 113.365 94.6256V94.6298Z" fill="#EFF0EB"/>
<path d="M120.376 22.0692C119.883 22.1024 119.447 21.9904 119.169 21.5425C118.858 21.0408 119.045 20.3814 119.601 20.1078C119.833 19.9916 120.107 19.9253 120.364 19.9046C121.886 19.7967 123.408 19.7014 124.929 19.6226C125.224 19.606 125.531 19.6267 125.817 19.6972C126.198 19.7885 126.455 20.0538 126.497 20.4602C126.542 20.8708 126.335 21.1693 125.979 21.3435C125.742 21.4555 125.481 21.5343 125.224 21.5716C124.635 21.6628 124.042 21.7292 123.449 21.7872C122.425 21.8867 121.405 21.9738 120.38 22.065L120.376 22.0692Z" fill="#EFF0EB"/>
<path d="M123.408 13.4853C123.674 13.4853 123.939 13.4646 124.201 13.4894C124.673 13.535 125.03 13.7673 125.105 14.2607C125.183 14.7584 124.905 15.0818 124.462 15.2477C124.217 15.3389 123.956 15.4094 123.695 15.4426C122.451 15.6167 121.207 15.7743 119.958 15.9319C119.797 15.9526 119.627 15.9734 119.469 15.9526C118.947 15.8863 118.59 15.5421 118.519 15.0818C118.445 14.58 118.735 14.1156 119.274 13.9497C119.523 13.8709 119.792 13.8585 120.058 13.8295C121.173 13.7009 122.289 13.5807 123.404 13.4563C123.404 13.4646 123.404 13.4728 123.404 13.4811L123.408 13.4853Z" fill="#EFF0EB"/>
<path d="M120.333 19.0088C120.424 19.0088 120.291 19.0171 120.163 19.0088C119.528 18.9508 119.109 18.5859 119.064 18.0592C119.022 17.5533 119.391 17.0225 120.009 16.9686C121.49 16.84 122.974 16.6576 124.463 16.7156C125.06 16.7364 125.45 17.1552 125.462 17.6321C125.471 18.0675 125.147 18.4614 124.604 18.59C124.185 18.6854 123.754 18.7268 123.327 18.7683C122.406 18.8512 121.481 18.9217 120.333 19.013V19.0088Z" fill="#EFF0EB"/>
<path d="M185.444 109.774C184.773 109.724 184.134 109.546 183.595 109.131C183.139 108.783 183.039 108.306 183.292 107.912C183.524 107.551 183.918 107.472 184.441 107.68C184.561 107.73 184.677 107.8 184.793 107.862C185.399 108.177 185.913 108.103 186.398 107.584C186.85 107.108 187.265 107.062 187.601 107.356C187.945 107.655 187.966 108.277 187.609 108.708C187.049 109.38 186.315 109.716 185.44 109.77L185.444 109.774Z" fill="#EFF0EB"/>
<path d="M177.404 108.182C177.4 107.684 177.819 107.323 178.325 107.381C178.565 107.41 178.769 107.522 178.943 107.676C179.507 108.169 180.033 108.157 180.626 107.676C181.124 107.273 181.559 107.327 181.846 107.701C182.107 108.041 182.061 108.459 181.713 108.874C180.709 110.068 178.503 109.99 177.608 108.729C177.487 108.563 177.421 108.381 177.404 108.177V108.182Z" fill="#EFF0EB"/>
</g>
<defs>
<clipPath id="clip0_1821_2957">
<rect width="200" height="128.555" fill="white"/>
</clipPath>
</defs>
</svg>
