<svg width="462" height="805" viewBox="0 0 462 805" fill="none" xmlns="http://www.w3.org/2000/svg">
<g clip-path="url(#clip0_1263_2411)">
<path d="M227.79 267.4C229.3 266.96 230.16 265.64 231.3 264.71C232.44 263.78 234.25 262.95 232.17 260.99C231.35 260.21 232.23 258.99 232.91 258.18C234.04 256.83 235.26 255.54 236.48 254.18C235.21 253.47 234.24 254.29 233.22 254.25C232.2 254.21 231.37 254.3 230.93 253.25C230.774 252.824 230.753 252.361 230.869 251.923C230.985 251.484 231.233 251.093 231.58 250.8C233.1 249.338 234.876 248.168 236.82 247.35C237.32 247.1 237.96 247.07 238.21 246.35C237.02 245.06 235.37 245.81 233.97 245.44C232.23 244.97 231.87 243.82 233.07 242.5C234.41 241.01 236.49 240.83 239.2 239.5C237.633 239.29 236.078 238.999 234.54 238.63C232.54 238.01 232.16 236.46 233.67 234.88C234.211 234.366 234.82 233.929 235.48 233.58C236.11 233.2 236.88 233.04 237.34 232.22C236.4 231.3 234.16 231.53 234.45 229.54C234.8 227.12 237.37 227.3 239.11 226.11C238.21 224.98 235.99 224.9 236.41 223.11C236.88 221.11 238.77 221.05 240.41 220.73C240.41 219.73 239.5 219.82 239.03 219.44C237.39 218.09 237.51 217.13 239.39 216.2C241.44 215.2 243.75 215.73 246.14 215.31C244.96 213.74 243.29 213.87 242 213.24C241.3 212.91 240.59 212.56 240.54 211.7C240.54 211.248 240.693 210.809 240.974 210.454C241.256 210.1 241.649 209.852 242.09 209.75C243.19 209.37 244.35 209.16 245.51 208.88C244.98 207.43 243.51 207.61 242.51 206.99C241.84 206.56 241.28 205.99 241.51 205.17C241.614 204.808 241.823 204.485 242.112 204.242C242.401 204 242.755 203.849 243.13 203.81C245.23 203.4 247.29 203.96 249.81 204.14C248.66 202.53 247.08 202.14 245.81 201.3C245.01 200.78 244.31 200.21 244.58 199.16C244.702 198.723 244.964 198.339 245.325 198.064C245.686 197.79 246.127 197.641 246.58 197.64C247.76 197.54 248.96 197.64 250.16 197.64C250.78 196.27 249.63 195.69 249.04 195C243.58 188.6 238.16 182.13 230.6 178C229.49 177.4 228.47 176.67 228.87 175.22C229.27 173.77 230.62 173.68 231.79 173.53C234.186 173.364 236.586 173.776 238.79 174.73C243.66 176.48 247.88 179.34 251.98 182.41C253.16 183.3 254.07 184.58 255.62 185.02C256.62 184.02 255.89 183.07 255.62 182.15C254.006 175.894 251.964 169.757 249.51 163.78C241.02 142.9 232.02 122.25 220.88 102.61C220.21 101.44 219.62 100.22 219.02 99.0102C218.53 98.0102 218.2 96.9602 219.2 96.1302C220.4 95.1302 221.48 95.8401 222.38 96.7101C223.78 98.0701 225.17 99.4501 226.46 100.9C230.423 105.422 234.071 110.21 237.38 115.23C245.413 127.239 252.568 139.811 258.79 152.85C263.399 162.332 266.59 172.44 268.26 182.85C268.44 184.02 268.73 185.17 269 186.49C270.09 185.57 270.1 184.49 270.36 183.49C273.787 171.165 279.032 159.42 285.92 148.64C294.102 135.658 303.672 123.604 314.46 112.69C317.04 109.946 320.062 107.654 323.4 105.91C324.415 105.26 325.595 104.913 326.8 104.91C328.04 105.04 328.8 105.85 328.18 107.1C327.738 107.863 327.162 108.541 326.48 109.1C323.329 112.116 320.492 115.443 318.01 119.03C304.45 138.25 292.86 158.55 284.79 180.69C283.775 183.042 283.027 185.501 282.56 188.02C284.33 188.02 285.03 186.73 285.98 185.91C293.537 179.48 301.641 173.721 310.2 168.7C312.462 167.204 314.986 166.149 317.64 165.59C318.69 165.42 319.85 165.12 320.48 166.24C321.32 167.71 320.04 168.39 319.1 169.1C307.88 177.48 297.86 187.24 287.65 196.77C285.86 198.44 283.86 199.99 282.3 202.58C284.3 202.63 285.16 201.43 286.3 200.9C287.44 200.37 288.41 199.74 289.53 199.32C289.944 199.122 290.414 199.077 290.858 199.195C291.301 199.312 291.689 199.583 291.95 199.96C292.134 200.293 292.211 200.674 292.17 201.052C292.129 201.429 291.972 201.785 291.72 202.07C290.52 203.77 289.28 205.44 287.86 207.38C289.06 207.73 289.86 207.04 290.69 206.67C291.79 206.19 292.9 205.72 294.02 205.32C294.428 205.117 294.896 205.068 295.338 205.179C295.78 205.291 296.167 205.558 296.43 205.93C296.94 206.69 296.49 207.36 296.09 208C295.55 208.85 294.52 209.41 294.47 210.59C295.59 211.02 296.47 210.09 297.52 210.09C299.52 210.09 300.34 211.38 299.14 213.01C297.65 215.01 295.81 216.74 293.83 218.91C295.91 218.61 297.51 218.32 299.13 218.17C299.577 218.073 300.044 218.137 300.449 218.352C300.853 218.566 301.169 218.916 301.34 219.34C301.483 219.771 301.482 220.237 301.335 220.666C301.189 221.096 300.906 221.466 300.53 221.72C298.94 223.08 297.32 224.39 295.39 225.98C297.26 227.34 299.27 226.72 301.01 227.13C302.06 227.37 303.19 227.54 303.4 228.79C303.61 230.04 302.63 230.64 301.61 231.03C299.8 231.73 297.96 232.37 295.9 233.12C296.8 234.79 298.59 234.12 299.74 234.8C300.65 235.33 301.74 235.73 301.85 236.92C301.96 238.11 300.85 238.61 299.93 239.13C298.8 239.76 297.22 239.56 296.35 241.13C297.704 241.649 299.02 242.261 300.29 242.96C302.13 244.13 301.97 245.79 299.95 246.64C298.72 247.056 297.464 247.39 296.19 247.64C297.03 249.4 298.78 249.75 299.9 250.77C301.02 251.79 302.12 252.56 301.52 254.15C300.99 255.54 299.62 255.43 298.43 255.46C296.67 255.46 294.9 255.46 292.76 255.46C293.51 257.65 295.57 257.9 296.76 259.08C297.52 259.85 298.36 260.59 297.93 261.77C297.72 262.259 297.353 262.664 296.888 262.923C296.424 263.181 295.886 263.279 295.36 263.2H291.51C291.77 265.1 293.46 265.5 294.28 266.57C295.1 267.64 296.12 268.32 295.58 269.68C295.04 271.04 293.89 271.29 292.58 271.26H290.15C290.15 272.82 291.39 273.65 291.84 274.82C293.01 277.87 291.84 279.49 288.65 279.28C287.81 279.28 287.02 278.42 285.92 279.28C286.32 280.9 286.81 282.59 287.13 284.28C287.35 285.45 287.43 286.77 286.25 287.54C285.07 288.31 283.98 287.54 283.02 286.78C282.79 286.503 282.496 286.286 282.163 286.148C281.83 286.01 281.469 285.956 281.11 285.99C281.28 289.094 280.942 292.205 280.11 295.2C282.11 294.5 282.97 293.03 284.11 291.91C301.42 275.22 318.91 258.72 338.01 244.04C360.77 226.54 385.67 212.73 412.01 201.53C415.299 200.047 418.725 198.892 422.24 198.08C423.113 197.864 423.998 197.698 424.89 197.58C425.327 197.465 425.791 197.501 426.205 197.682C426.619 197.864 426.959 198.18 427.17 198.58C427.6 199.58 426.88 200.32 426.1 200.78C424.69 201.63 423.2 202.36 421.75 203.14C396.55 216.63 372.07 231.28 349.34 248.67C327.58 265.31 307.66 284.06 288.28 303.38C286.485 304.959 284.935 306.796 283.68 308.83C285.37 309.37 286.54 308.46 287.76 308.03C302.89 302.68 318.54 300.03 334.47 298.82C337.466 298.447 340.507 298.825 343.32 299.92C344.32 300.36 345.24 301.04 345 302.29C344.8 303.29 343.91 303.54 342.94 303.67C326.19 305.9 310.25 311.33 294.18 316.22C290.59 317.31 287.09 318.71 283.56 319.98C283.03 320.17 282.37 320.29 282.56 321.58C284.33 321.58 286.21 321.58 288.08 321.58C289.95 321.58 291.68 321.74 293.48 321.87C294.48 321.94 295.72 322.05 296 323.31C296.34 324.85 295.1 325.44 293.95 325.8C291.55 326.58 289.1 327.21 286.61 327.93C287.12 329.62 288.36 328.93 289.23 329.01C291.17 329.19 293.14 329.14 295.07 329.36C296.07 329.48 297.29 329.89 297.35 331.16C297.41 332.43 296.35 332.97 295.35 333.35C293.58 334.02 291.78 334.61 289.02 335.58C292.11 336.49 294.2 337.02 296.22 337.71C297.36 338.1 298.57 338.71 298.53 340.16C298.53 341.83 297 341.73 295.87 341.95C294.74 342.17 293.79 342.3 292.76 342.51C292.19 342.63 291.55 342.78 291.61 343.58C291.644 343.879 291.773 344.159 291.978 344.379C292.184 344.598 292.454 344.746 292.75 344.8C294.18 345.23 295.65 345.55 297.05 346.05C297.487 346.155 297.87 346.417 298.126 346.785C298.382 347.154 298.494 347.604 298.44 348.05C298.32 348.87 297.67 349.28 296.98 349.62C295.73 350.23 293.35 349.74 293.43 351.56C293.51 353.61 296.01 353.06 297.43 353.67C299.21 354.43 301.23 354.67 302.79 355.94C304.35 357.21 304.22 359.08 302.14 359.61C300.06 360.14 297.72 360.31 295.09 360.7C296.65 362.18 298.5 362.17 299.99 362.9C300.93 363.36 301.92 363.74 302.81 364.28C303.195 364.449 303.512 364.742 303.71 365.112C303.908 365.483 303.975 365.909 303.901 366.322C303.827 366.736 303.616 367.113 303.302 367.392C302.988 367.67 302.589 367.836 302.17 367.86C300.26 368.21 298.34 368.53 296.3 368.86C297.09 370.24 298.54 370.28 299.66 370.86C300.99 371.56 302.39 372.13 303.66 372.86C304.71 373.47 305.71 374.37 305.46 375.72C305.21 377.07 303.81 377.26 302.61 377.42C301.41 377.58 299.91 377.13 298.4 377.82C299.27 379.24 300.99 379.24 302.05 380.17C302.429 380.413 302.732 380.757 302.925 381.164C303.118 381.57 303.192 382.023 303.14 382.47C302.94 383.54 302.04 383.76 301.14 383.98C299.14 384.48 296.97 383.88 295.08 384.98C295.39 386.9 297.13 386.68 298.16 387.4C299.086 387.886 299.972 388.444 300.81 389.07C302.18 390.38 301.7 391.86 299.81 392.3C298.67 392.57 297.47 392.63 295.81 392.85C296.81 394.27 298.2 394.47 299.2 395.14C300.2 395.81 301.32 396.56 301.14 397.93C300.91 399.62 299.38 399.81 298.05 400.03C296.88 400.22 295.68 400.27 294.15 400.41C295.49 402.31 297.67 402.52 299.01 403.87C300.01 404.87 300.95 405.92 300.3 407.4C299.65 408.88 298.3 408.4 297.15 408.4H292.25C293.52 410.4 295.68 410.62 297.09 411.79C298.16 412.68 299.36 413.57 299.09 415.07C298.82 416.57 297.25 416.92 295.91 417.07C294.28 417.27 292.63 417.28 290.63 417.39C291.63 419.25 293.63 419.39 294.89 420.5C295.95 421.42 297.02 422.37 296.54 423.9C296.1 425.28 294.76 425.29 293.54 425.4C292.54 425.49 291.46 425.19 290.27 425.94C292.35 428.94 294.7 431.38 298.46 432.2C299.918 432.574 301.317 433.146 302.62 433.9C304.23 434.76 305.4 434.37 306.62 433.14C309.9 429.807 313.233 426.54 316.62 423.34C353.06 388.2 395.84 363.63 443.62 347.34C447.734 345.908 451.962 344.831 456.26 344.12C457.15 343.98 458.04 343.84 458.94 343.76C460.04 343.66 461.16 343.82 461.62 344.94C462.08 346.06 461.26 346.94 460.34 347.52C459.046 348.305 457.711 349.019 456.34 349.66C434.52 359.83 413.64 371.66 393.09 384.2C366.877 400.166 342.852 419.475 321.62 441.64C319.16 444.19 319.16 444.19 320.77 447.64C321.849 449.65 322.2 451.972 321.765 454.211C321.329 456.45 320.133 458.471 318.38 459.93C316.44 461.841 314.099 463.296 311.527 464.19C308.955 465.084 306.217 465.395 303.51 465.1C300.35 464.76 298.51 465.91 296.59 468.1C289.52 476.1 282.33 483.97 275.21 491.92C274.37 492.86 273.21 493.66 272.99 495.59C274.54 494.77 275.84 494.14 277.08 493.42C299.147 480.845 322.312 470.305 346.29 461.93C351.813 459.928 357.501 458.419 363.29 457.42C364.18 457.28 365.07 457.1 365.96 457.02C367.05 456.93 368.15 457.1 368.64 458.23C369.25 459.64 368.3 460.53 367.24 461.15C365.56 462.15 363.83 463.05 362.08 463.93C335.36 477.35 309.43 492.23 283.36 506.85C280.092 508.622 277.084 510.837 274.42 513.43C276.6 513.43 278.78 513.43 280.97 513.43C281.85 513.43 282.84 513.53 283.18 514.59C283.58 515.86 282.75 516.59 281.8 517.11C280.34 517.87 278.8 518.45 277.3 519.17C275.8 519.89 274.06 519.93 272.89 521.29C273.44 523.41 274.83 523.55 276.69 523.23C279.49 522.75 282.34 522.45 285.17 522.14C286.24 522.02 287.45 522.14 287.91 523.23C288.48 524.61 287.48 525.54 286.41 526.14C284.13 527.42 281.78 528.58 278.83 530.14C281.37 531.36 283.32 530.96 285.17 531.14C287.26 531.35 289.39 531.34 291.44 531.75C293.49 532.16 293.68 533.75 292.2 535.03C290.72 536.31 289.01 536.64 287.32 537.27C286.32 537.65 284.51 537.56 284.65 539.03C284.82 540.81 286.65 540.44 287.94 540.56C289.43 540.7 290.94 540.68 292.44 540.74C293.49 540.74 294.55 540.74 295.59 540.89C296.63 541.04 298.17 541.17 298.47 542.58C298.82 544.27 297.42 544.93 296.17 545.46C294.66 546.1 293.07 546.57 291.52 547.15C290.61 547.49 289.39 547.43 289.13 548.77C289.73 550.02 290.92 549.63 291.9 549.77C293.68 550.02 295.47 550.21 297.26 550.46C297.715 550.471 298.155 550.627 298.515 550.906C298.875 551.185 299.136 551.572 299.26 552.01C299.32 552.464 299.24 552.926 299.031 553.333C298.822 553.74 298.494 554.074 298.09 554.29C296.49 555.29 294.81 556.29 292.64 557.53C296.07 558.19 298.94 558.7 301.78 559.31C302.948 559.577 304.095 559.931 305.21 560.37C305.721 560.52 306.169 560.833 306.487 561.26C306.805 561.688 306.974 562.207 306.97 562.74C306.951 563.274 306.747 563.784 306.393 564.183C306.039 564.583 305.557 564.847 305.03 564.93C302.03 565.79 298.96 566.57 295.96 567.36C299.03 568.09 302.18 568.82 305.31 569.61C306.785 569.927 308.176 570.554 309.39 571.45C310.39 572.22 311.2 573.21 310.75 574.52C310.3 575.83 309.19 575.62 308.09 575.63C304.79 575.63 301.49 575.8 298.19 575.94C297.36 575.94 296.19 575.73 296.19 577.08C296.19 578.22 297.19 578.37 298.1 578.54C300.16 578.94 302.23 579.34 304.26 579.87C305.565 580.223 306.831 580.706 308.04 581.31C309.65 582.1 311.64 582.98 311.17 585.16C310.7 587.34 308.53 586.51 307 586.54C304.6 586.54 302.2 586.47 299.79 586.48C298.65 586.48 297.23 586.18 297.19 588.06C297.19 589.56 297.57 590.75 299.31 590.96C301.05 591.17 302.59 591.32 304.23 591.53C305.12 591.65 306.01 591.81 306.89 592.01C308.16 592.28 309.96 592.16 309.89 594.01C309.8 595.71 308.08 595.82 306.78 596.01C304.4 596.35 302.01 596.57 299.62 596.79C297.62 596.98 297.73 598.34 297.96 599.74C298.1 600.6 298.81 600.9 299.56 601.12C301.14 601.59 302.73 602.03 304.3 602.54C305.3 602.86 306.45 603.24 306.52 604.48C306.59 605.91 305.43 606.58 304.26 606.93C302.816 607.344 301.351 607.678 299.87 607.93C298.76 608.14 297.87 608.46 297.87 609.85C297.814 610.375 297.967 610.901 298.297 611.313C298.627 611.725 299.106 611.99 299.63 612.05C302.13 612.57 304.63 613.14 307.1 613.73C308.27 614.01 309.61 614.27 309.63 615.81C309.65 617.35 308.26 617.74 307.13 617.93C304.618 618.361 302.084 618.659 299.54 618.82C298.05 618.91 297.37 619.48 297.27 620.96C297.17 622.44 297.48 623.32 298.92 623.74C300.36 624.16 302.08 624.67 303.64 625.22C304.087 625.31 304.483 625.567 304.746 625.939C305.01 626.31 305.122 626.769 305.06 627.22C304.95 628.08 304.28 628.48 303.58 628.76C301.859 629.302 300.064 629.568 298.26 629.55C297.807 629.521 297.36 629.667 297.01 629.957C296.661 630.247 296.435 630.659 296.38 631.11C296.18 632.24 296.91 632.79 297.78 633.11C299.18 633.63 300.63 634.03 302.06 634.48C303.49 634.93 305.06 635.18 304.85 636.87C304.64 638.56 302.85 638.51 301.61 638.76C300.287 638.965 298.948 639.052 297.61 639.02C296.33 639.02 295.21 639.08 295.07 640.78C294.93 642.48 296.13 642.78 297.31 642.97C299.81 643.48 302.31 643.97 304.83 644.42C305.89 644.63 306.99 644.87 307.07 646.2C307.15 647.53 306.13 647.99 305.13 648.37C302.268 649.29 299.286 649.782 296.28 649.83C295.01 649.91 293.42 649.38 292.95 651.27C292.42 653.46 294.35 653.66 295.59 654.27C297.77 655.27 300.05 656.04 302.27 656.96C303.27 657.37 304.22 657.96 304.09 659.24C303.96 660.52 302.78 660.72 301.76 660.92C298.951 661.48 296.059 661.48 293.25 660.92C292.07 660.69 290.87 660.4 290.32 662.05C289.65 664.05 291.22 664.29 292.42 664.78C294.78 665.78 297.19 666.6 299.55 667.56C300.98 668.052 302.259 668.907 303.26 670.04C303.542 670.291 303.747 670.617 303.851 670.98C303.956 671.343 303.955 671.728 303.85 672.09C303.45 673.09 302.59 673.24 301.61 673.09L291.77 671.89C290.88 671.79 289.99 671.63 289.09 671.56C288.19 671.49 287.59 671.62 287.28 672.51C286.9 673.61 287.49 674.2 288.41 674.58C291.04 675.67 293.7 676.71 296.32 677.85C298.159 678.526 299.833 679.586 301.23 680.96C301.84 681.63 302.45 682.4 301.97 683.37C301.49 684.34 300.48 684.26 299.61 684.12C295.46 683.44 291.32 682.71 287.18 681.99C286.59 681.88 286.01 681.72 285.41 681.64C285.041 681.538 284.648 681.586 284.314 681.774C283.981 681.961 283.735 682.272 283.63 682.64C283.492 682.992 283.495 683.384 283.638 683.735C283.781 684.085 284.054 684.366 284.4 684.52C286.18 685.63 288.05 686.62 289.73 687.87C291.41 689.12 294.26 690.46 293.15 693.02C292.04 695.58 289.15 693.93 287.09 693.9C285.35 693.9 283.69 692.68 281.83 693.41C281.3 695.63 282.29 697.17 283.83 698.56C284.944 699.566 285.993 700.641 286.97 701.78C287.74 702.71 288.45 703.85 287.64 705.05C286.83 706.25 285.77 705.53 284.77 705.27C284.375 705.246 283.978 705.273 283.59 705.35C284.32 711.75 285.08 718.13 285.75 724.53C286.523 730.645 286.707 736.82 286.3 742.97C286.09 745.821 285.415 748.618 284.3 751.25C283.813 752.505 283.139 753.678 282.3 754.73C279.99 757.39 277.43 756.88 276.3 753.49C273.83 746.31 273.19 738.82 272.8 731.31C272.68 729.21 272.53 727.1 272.61 725C272.761 723.949 272.545 722.878 271.998 721.967C271.452 721.056 270.609 720.362 269.61 720C268.526 719.48 267.483 718.878 266.49 718.2C265.49 717.62 264.61 717.2 263.74 718.35C262.87 719.5 263.74 720.19 264.59 720.87C265.84 721.94 267.13 722.99 268.28 724.16C269.009 724.916 269.622 725.775 270.1 726.71C270.408 727.147 270.555 727.677 270.515 728.21C270.475 728.743 270.25 729.245 269.88 729.63C269.13 730.34 268.21 730.08 267.35 729.73L259.86 726.63C258.77 726.18 257.66 725.43 256.72 726.88C255.93 728.1 256.91 728.81 257.5 729.63C258.74 731.32 260.19 732.91 260.41 735.13C260.61 737.07 259.41 737.98 257.64 737.13C256.56 736.65 255.64 735.83 254.58 735.25C253.3 734.54 252.28 733.25 250.58 733.48C249.81 734.86 250.58 736.11 250.84 737.4C251.38 740.4 251.96 743.33 251.36 746.34C250.9 748.67 249.14 749.19 247.49 747.48C246.162 745.845 245.077 744.026 244.27 742.08C243.84 741.26 243.8 739.75 242.27 740.4C241.11 740.88 240.27 741.71 240.58 743.2C240.86 744.37 241.22 745.52 241.41 746.7C241.86 749.37 242.33 752.03 242.58 754.7C242.72 756.12 243.05 758.05 241.35 758.7C239.47 759.38 238.83 757.47 238.17 756.21C236.99 753.95 235.98 751.6 234.92 749.28C234.57 748.49 234.49 747.55 233.4 746.83C232.4 747.95 232.84 749.32 232.88 750.52C233.27 761.18 233.73 771.83 234.12 782.52C234.2 784.77 234.12 787.03 234.03 789.28C233.967 791.09 233.473 792.859 232.59 794.44C230.37 798.44 226.5 798.56 224.11 794.69C222.875 792.446 222.19 789.941 222.11 787.38C221.529 779.728 221.409 772.047 221.75 764.38C221.84 760.78 221.98 757.17 222.03 753.57C222.03 750.51 222.03 750.51 219.14 750.68C217.79 750.76 216.44 750.89 215.09 750.94C209.9 751.11 209.8 751.1 209.83 756.49C209.83 765.95 210.08 775.42 210.16 784.88C210.239 787.281 210.142 789.684 209.87 792.07C209.32 796.07 206.58 798.69 203.54 798.47C200.5 798.25 198.46 795.71 198.13 791.68C197.867 787.482 197.924 783.27 198.3 779.08C198.907 770.38 199.513 761.687 200.12 753C200.178 752.751 200.147 752.489 200.032 752.261C199.917 752.032 199.725 751.851 199.49 751.75C198.11 753.75 196.76 755.88 195.3 757.89C194.59 758.89 193.62 759.89 192.3 759.33C190.98 758.77 190.95 757.47 191.15 756.22C191.61 753.22 192.08 750.33 192.68 746.52C189.56 749.32 187.09 751.63 184.52 753.82C183.45 754.73 182.27 756.53 180.75 755.44C178.92 754.13 180.39 752.44 181.21 751.08C183.087 748.002 185.239 745.1 187.64 742.41C188.35 741.61 189.13 740.8 187.98 739.74C186.83 738.68 186.13 739.65 185.37 740.33C182.638 742.693 179.684 744.786 176.55 746.58C175.904 746.983 175.236 747.35 174.55 747.68C173.32 748.24 171.94 748.97 170.87 747.68C169.95 746.54 170.78 745.37 171.45 744.39C173.596 741.307 176.002 738.414 178.64 735.74C179.64 734.68 182.27 733.93 181.06 732.12C179.52 729.82 177.97 732.55 176.52 733.12C173.72 734.12 171.07 735.62 168.34 736.88C167.967 737.143 167.51 737.257 167.057 737.202C166.605 737.146 166.189 736.925 165.89 736.58C165.641 736.2 165.529 735.746 165.573 735.293C165.616 734.84 165.813 734.416 166.13 734.09C167.51 732.09 169.47 730.65 171.22 729.01C172.553 727.777 173.887 726.57 175.22 725.39C176.29 724.45 175.82 723.53 175.22 722.6C174.42 721.27 173.52 721.81 172.6 722.46C170.76 723.76 168.93 725.08 167.05 726.32C166.18 726.89 165.14 727.48 164.23 726.4C163.51 725.56 164.06 724.7 164.5 723.92C165.936 721.619 167.612 719.477 169.5 717.53C170.136 716.896 170.715 716.207 171.23 715.47C171.78 714.56 171.23 713.67 170.68 712.99C170.13 712.31 169.32 712.74 168.68 713.09C167.23 713.87 165.81 714.73 164.32 715.43C163.24 715.94 161.97 716.43 161.03 715.24C160.09 714.05 160.79 712.88 161.51 711.95C162.943 710.025 164.51 708.204 166.2 706.5C167.95 704.8 167.98 703.23 166.5 701.2C164.2 701.96 162.34 703.52 160.24 704.6C159.074 705.276 157.853 705.851 156.59 706.32C156.309 706.443 155.995 706.472 155.696 706.402C155.397 706.332 155.129 706.166 154.932 705.931C154.735 705.696 154.619 705.402 154.603 705.096C154.586 704.789 154.669 704.485 154.84 704.23C155.53 702.83 156.54 701.58 157.21 700.05C149.097 703.562 141.386 707.938 134.21 713.1C132.54 714.31 132.79 715.91 132.93 717.56C134.68 739.16 134.4 760.8 134.46 782.43C134.46 785.143 134.423 787.847 134.35 790.54C134.341 791.743 134.241 792.943 134.05 794.13C133.48 797.28 131.38 799.22 128.67 799.25C125.96 799.28 123.73 797.35 123.24 794.19C122.948 791.952 122.821 789.696 122.86 787.44C122.86 774.67 122.86 761.9 122.86 749.13C122.86 747.33 122.79 745.52 122.79 743.72C122.834 743.115 122.639 742.517 122.246 742.055C121.853 741.593 121.294 741.304 120.69 741.25C118.923 740.913 117.182 740.452 115.48 739.87C108.13 737.08 105.32 730.16 108.6 723.01C110.635 718.623 113.645 714.758 117.4 711.71C120.09 709.5 120.67 707.12 120.29 703.86C116.45 671.2 109.61 639.28 97.51 608.6C92.66 596.31 87.7101 584.06 82.8301 571.78C80.95 567.353 78.7508 563.069 76.2501 558.96C73.7501 554.63 74.05 552.56 77.49 548.91C77.8001 548.57 78.1343 548.252 78.49 547.96C90.73 537.64 95.97 523.96 97.73 508.48C98.78 499.17 99.26 489.9 96.97 480.7C96.4552 478.509 95.7869 476.357 94.97 474.26C91.86 466.58 86.28 461.83 77.97 460.37C68.24 458.64 59.09 460.16 50.77 465.56C40 472.56 31.89 481.83 27.65 494.09C23.46 506.17 21.31 518.51 23.88 531.29C24.5077 534.697 25.8729 537.926 27.88 540.75C32.22 546.67 38.5901 548.84 45.3901 546.16C58.7101 540.93 67.6701 531.16 73.0301 518.09C74.6421 513.976 74.6848 509.413 73.15 505.27C71.62 500.8 67.7901 498.77 62.2901 499.38C57.8601 499.86 55.09 502.78 54.52 507.38C54.4311 508.272 54.5431 509.172 54.8476 510.015C55.1522 510.858 55.6417 511.621 56.2801 512.25C59.3901 515.92 58.16 520.25 53.58 521.74C52.1519 522.241 50.622 522.381 49.1266 522.148C47.6312 521.914 46.217 521.313 45.0101 520.4C42.8102 518.778 41.2494 516.435 40.6 513.78C37.14 501.47 46.13 487.61 58.77 485.88C62.9554 485.284 67.2216 485.657 71.24 486.97C80.24 489.97 84.6301 496.67 85.9901 505.67C87.0655 512.094 86.184 518.693 83.4601 524.61C76.8101 538.89 66.6101 549.76 52.18 556.29C37.75 562.82 22.79 558.12 14.79 544.37C9.64005 535.5 8.22006 525.73 8.61006 515.68C8.92908 508.919 9.98533 502.212 11.76 495.68C16.41 477.98 26.76 464.49 41.83 454.38C53.13 446.79 65.64 444.58 78.83 446.55C94.83 448.93 105.83 459.86 109.15 476.96C112.9 496.19 110.68 514.96 103.15 533.02C99.8747 540.641 95.0766 547.511 89.0501 553.21C86.1601 556.01 86.1601 556.11 88.4901 559.48C90.8605 563.14 92.87 567.022 94.4901 571.07C105.61 596.56 115.84 622.37 122.34 649.51C125.92 664.43 127.96 679.61 130.11 694.78C130.37 696.55 130.35 698.38 131.19 700.05C132.57 700.38 133.42 699.36 134.4 698.78C140.682 694.931 147.259 691.587 154.07 688.78C157.17 687.56 159.22 685.21 161.57 683.15C163.27 681.65 162.45 679.87 162.2 678.15C160.3 677.6 159.5 679.3 158.2 679.86C157.2 680.28 156.34 680.86 155.37 681.24C154.897 681.488 154.353 681.567 153.83 681.463C153.306 681.359 152.833 681.079 152.49 680.67C151.78 679.82 152.17 678.93 152.61 678.16C154.42 674.695 156.599 671.436 159.11 668.44C159.759 667.82 160.361 667.151 160.91 666.44C161.204 666.088 161.356 665.639 161.338 665.181C161.319 664.723 161.131 664.288 160.81 663.96C160.15 663.35 159.42 663.96 158.81 664.28C156.43 665.56 154.07 666.89 151.67 668.11C150.72 668.59 149.6 668.89 148.67 668.01C147.55 666.9 148.24 665.74 148.94 664.78C151.8 660.91 154.67 657.04 159.22 654.93C159.77 654.731 160.274 654.421 160.7 654.02C160.912 653.635 160.962 653.182 160.84 652.76C160.68 652.02 160.09 651.87 159.46 652.14C157.26 653.14 155.07 654.09 152.89 655.09C152.07 655.47 151.29 655.92 150.46 656.27C150.068 656.501 149.613 656.604 149.16 656.564C148.706 656.525 148.277 656.345 147.93 656.05C146.93 655.17 147.33 654.15 147.75 653.15C148.384 651.786 149.258 650.546 150.33 649.49C152.938 646.565 156.081 644.166 159.59 642.42C160.22 642.13 161.07 641.93 160.97 640.5C158.51 639.95 156.16 641.17 153.76 641.41C152.34 641.55 150.49 642.71 149.76 640.9C149.03 639.09 150.94 638.03 152.3 637.25C154.9 635.76 157.61 634.45 160.3 633.11C161.02 632.75 161.7 632.35 161.59 631.49C161.48 630.63 160.59 630.49 159.85 630.49C158.649 630.522 157.446 630.479 156.25 630.36C154.75 630.11 154.38 628.88 155.38 627.73C156.61 626.31 158.38 625.73 160.02 625.07C161.1 624.62 162.49 624.53 162.49 622.91C162.49 621.29 161 621.32 159.92 621.03C156.877 620.201 153.769 619.629 150.63 619.32C149.44 619.21 148.06 619.08 147.95 617.51C147.84 615.94 149.02 615.45 150.18 615.04C153.65 613.81 157.26 613.86 160.87 613.94C162.05 613.94 163.38 614.26 163.54 612.44C163.7 610.62 162.54 610.5 161.26 610.36C157.53 609.94 153.8 609.55 150.07 609.09C148.94 608.95 147.45 609.09 147.15 607.56C146.85 606.03 148.05 605.1 149.31 604.56C152.368 603.299 155.603 602.52 158.9 602.25C159.9 602.13 161 602.13 162.05 602.03C163.31 601.91 165.05 602.37 165.11 600.33C165.17 598.29 163.3 598.69 162.11 598.5C160.05 598.15 157.94 598.05 155.85 597.8C154.58 597.65 152.85 597.97 152.7 596.1C152.59 594.38 154.28 593.99 155.51 593.68C157.69 593.12 159.93 592.83 162.15 592.49C163.047 592.403 163.949 592.367 164.85 592.38C165.075 592.405 165.302 592.384 165.519 592.319C165.735 592.254 165.936 592.146 166.11 592.001C166.284 591.856 166.426 591.678 166.529 591.477C166.632 591.276 166.694 591.056 166.71 590.83C166.86 589.68 166.11 589.16 165.17 589.01C162.35 588.57 159.52 588.23 156.7 587.84C155.3 587.64 153.21 588.09 153.16 586.09C153.16 584.27 155.21 584.09 156.59 583.77C159.53 583.03 162.59 583.23 165.59 583.21C166.47 583.21 167.38 583.39 168.11 582.62C168.375 582.357 168.564 582.027 168.655 581.665C168.746 581.303 168.737 580.922 168.628 580.565C168.518 580.208 168.314 579.887 168.036 579.638C167.758 579.389 167.417 579.22 167.05 579.15C164.17 578.31 161.22 577.71 158.3 576.99C157.41 576.77 156.5 576.41 156.53 575.3C156.56 574.19 157.4 573.78 158.29 573.51C160.45 572.854 162.704 572.556 164.96 572.63C166.31 572.63 167.67 572.69 169.02 572.63C169.8 572.63 170.54 572.44 170.74 571.55C171 570.42 170.3 569.89 169.35 569.64C167.02 569.05 164.69 568.49 162.35 567.93C161.35 567.69 160.1 567.67 159.94 566.35C159.75 564.82 161.04 564.35 162.16 563.92C164.186 563.34 166.298 563.12 168.4 563.27C169.6 563.27 170.8 563.27 172 563.36C173.2 563.45 173.6 562.67 173.82 561.75C174.11 560.53 173.21 560.2 172.31 560C169.38 559.32 166.44 558.7 163.51 558C162.486 557.823 161.482 557.548 160.51 557.18C158.94 556.5 158.77 555.18 160.03 553.98C161.088 553.132 162.35 552.577 163.69 552.37C167.227 551.663 170.815 551.238 174.42 551.1C175.319 551.112 176.217 551.069 177.11 550.97C177.559 550.867 177.959 550.611 178.242 550.246C178.524 549.882 178.672 549.431 178.66 548.97C178.699 548.592 178.594 548.213 178.366 547.909C178.138 547.605 177.804 547.399 177.43 547.33C174.59 546.33 171.72 545.47 168.88 544.5C167.585 544.13 166.337 543.614 165.16 542.96C163.74 542.05 163.95 540.57 165.5 539.85C166.897 539.28 168.402 539.021 169.91 539.09C173.17 539.09 176.43 539.09 180.37 539.09C178.9 537 177.1 536.54 175.72 535.58C174.34 534.62 172.91 533.83 171.59 532.84C170.59 532.13 169.59 531.21 170.08 529.84C170.57 528.47 171.92 528.44 173.15 528.6C175.68 528.91 178.21 529.28 180.73 529.6C182.06 529.984 183.471 529.984 184.8 529.6C181.975 526.828 178.965 524.252 175.79 521.89C174.62 520.95 173.44 520.01 172.33 519.01C171.967 518.734 171.703 518.349 171.575 517.912C171.447 517.475 171.463 517.008 171.62 516.58C171.99 515.58 172.97 515.46 173.85 515.42C176.76 515.3 179.47 516.24 182.17 517.17C183.3 517.56 184.41 517.97 186.09 518.57C185.7 516.79 184.42 516.17 183.77 515.18C183.525 514.898 183.359 514.556 183.289 514.189C183.219 513.822 183.247 513.443 183.37 513.09C183.83 512.09 184.77 512.19 185.68 512.18C186.84 512.18 187.87 513.18 189.13 512.6C188.68 511.04 187.38 510.16 186.29 509.19C182.47 505.79 178.68 502.35 174.69 499.19C152.1 481.25 129.3 463.58 105.69 447.01C104.098 445.886 102.575 444.667 101.13 443.36C100.776 443.067 100.545 442.65 100.486 442.193C100.427 441.737 100.542 441.275 100.81 440.9C101.003 440.574 101.288 440.312 101.63 440.148C101.972 439.984 102.355 439.926 102.73 439.98C103.913 440.167 105.08 440.444 106.22 440.81C112.504 442.861 118.595 445.465 124.42 448.59C146.297 459.919 167.163 473.101 186.79 487.99C187.67 488.67 188.37 489.78 190.19 489.66C189.09 487.97 188.19 486.49 187.19 485.05C163.72 450.96 135.83 420.74 105.41 392.85C80.48 370 54.6001 348.23 27.5001 327.97C19.6701 322.12 11.5001 316.81 3.50006 311.21C1.96006 310.13 -1.10996 309.21 0.440043 306.64C1.79004 304.41 4.00005 306.47 5.65005 307.13C13.7302 310.407 21.5012 314.399 28.8701 319.06C79.5001 351.12 126.36 387.74 165.95 433.06C170.95 438.83 175.78 444.81 180.71 450.67C181.57 451.67 182.16 452.96 183.82 453.87C185.12 449.73 187.6 446.28 190.37 442.14C187.79 442.47 186.85 444.14 185.48 444.99C184.62 445.55 183.82 446.48 182.67 445.76C181.35 444.95 181.67 443.76 182.05 442.56C183.11 438.93 185.46 436.09 188.39 432.83C185.67 433.29 184.39 434.96 182.63 435.6C182.366 435.743 182.07 435.818 181.77 435.818C181.47 435.818 181.174 435.743 180.91 435.6C180.615 435.37 180.404 435.051 180.308 434.689C180.213 434.328 180.238 433.946 180.38 433.6C180.83 432.158 181.638 430.854 182.73 429.81C184.12 428.28 185.57 426.81 187.66 424.6C184.72 425.86 182.59 426.79 180.44 427.69C179.32 428.16 178.05 428.69 177.18 427.45C176.31 426.21 177.23 425.14 178.04 424.27C180.964 421.1 184.332 418.372 188.04 416.17C186.113 416.197 184.223 416.713 182.55 417.67C181.48 418.16 180.31 419.07 179.28 417.91C178.09 416.57 179.28 415.38 179.98 414.3C181.4 412.13 183.71 410.87 185.8 409.11C184.3 408.34 183.01 409.11 181.8 408.93C179.8 408.66 179.24 407.37 180.47 405.81C181.83 404.09 183.84 403.34 185.73 402.44C186.99 401.83 188.73 401.87 189.29 400.08C187.7 399 186.29 399.7 184.85 399.93C183.66 400.12 182.25 400.61 181.66 399.21C180.95 397.53 182.54 396.8 183.66 396.21C185.37 395.28 187.21 394.62 188.99 393.83C189.7 393.51 190.35 393.09 190.25 392.19C190.15 391.29 189.3 391.19 188.58 391.09C187.083 391.074 185.587 390.977 184.1 390.8C182.31 390.45 182.02 389.14 183.36 387.9C184.96 386.42 187.06 385.97 189.03 385.25C189.73 384.99 190.47 384.83 191.15 384.54C191.351 384.45 191.517 384.297 191.622 384.104C191.726 383.91 191.765 383.688 191.73 383.47C191.691 383.24 191.566 383.032 191.381 382.89C191.195 382.747 190.963 382.679 190.73 382.7C189.38 382.7 188.04 382.81 186.73 382.83C185.8 382.83 184.8 382.69 184.45 381.73C184.1 380.77 184.87 380.06 185.59 379.51C187.59 378.03 189.91 377.51 192.5 376.57C190.37 375.11 188.17 375.49 186.1 375.3C185.36 375.23 184.57 375.14 184.28 374.3C184.13 373.87 184.132 373.402 184.285 372.972C184.438 372.543 184.732 372.179 185.12 371.94C187.6 369.94 190.63 369.78 193.7 369.55C191.7 368.18 191.7 368.16 190.51 368.04C189.32 367.92 188.11 367.9 186.92 367.74C185.73 367.58 184.68 367.38 184.58 366.09C184.48 364.8 185.58 364.3 186.53 363.88C188.204 363.211 189.972 362.806 191.77 362.68C192.96 362.57 194.18 362.84 195.33 362.3C195.84 360.98 194.79 360.43 194.04 359.76C193.45 359.21 192.93 358.47 193.35 357.76C194.73 355.54 193.67 353.39 193.35 351.22C191.06 336.22 191.62 321.57 197.43 307.36C199.005 303.621 200.906 300.027 203.11 296.62C204.69 294.14 204.64 294.07 201.87 292.82C198.625 291.218 195.085 290.299 191.47 290.12C190.3 290.12 188.92 290.12 188.57 288.57C188.18 286.89 189.42 286.12 190.64 285.49C192.387 284.608 194.304 284.114 196.26 284.04C199.87 283.746 203.502 284.164 206.95 285.27C210.12 286.41 212.04 285.43 213.79 282.92C215.32 280.71 218.35 279.16 218.69 276.64C219.05 273.89 216.45 271.58 214.98 269.18C202.07 247.95 186.98 228.26 171.49 208.91C161.3 196.21 151 183.69 140.79 171.03C138.35 168.03 136.13 164.77 133.87 161.58C133.21 160.65 132.21 159.46 133.59 158.43C134.97 157.4 135.76 158.73 136.59 159.49C137.27 160.08 137.89 160.74 138.51 161.39C158.64 182.27 178.57 203.33 197.17 225.62C207.513 237.932 216.998 250.939 225.56 264.55C226.27 265.56 226.7 266.69 227.79 267.4ZM177.79 585.03C179.88 587.14 180.65 588.72 177.88 590.36C176.23 591.36 176.52 592.69 178.15 593.91C181.2 596.19 181.15 596.65 177.83 598.05C177.15 598.34 176.21 598.37 176.04 599.19C175.79 600.39 176.95 600.53 177.7 600.93C178.62 601.41 179.77 601.74 179.7 603.06C179.59 604.63 178.29 604.8 177.1 605.06C176.8 605.12 176.5 605.15 176.21 605.21C175.849 605.293 175.522 605.487 175.278 605.766C175.034 606.045 174.884 606.394 174.849 606.763C174.815 607.132 174.898 607.503 175.087 607.822C175.275 608.141 175.56 608.392 175.9 608.54C176.466 608.742 177.014 608.989 177.54 609.28C179.35 610.49 179.32 611.92 177.46 613.07C176.92 613.32 176.362 613.527 175.79 613.69C175.13 613.96 174.2 613.97 174.17 614.95C174.17 616.11 175.11 616.32 175.95 616.62C176.37 616.77 176.82 616.87 177.23 617.05C178.23 617.45 179.36 617.83 179.3 619.05C179.24 620.27 178.3 620.77 177.23 621.18C175.93 621.7 173.65 621.07 173.5 622.9C173.32 625.22 175.96 624.45 177.23 625.25C177.635 625.448 178.066 625.589 178.51 625.67C179.51 625.97 180.6 626.33 180.6 627.67C180.6 629.01 179.52 629.78 178.33 630.08C177.01 630.369 175.674 630.582 174.33 630.72C173.33 630.86 172.6 631.16 172.53 632.31C172.473 632.765 172.592 633.225 172.861 633.596C173.13 633.967 173.53 634.222 173.98 634.31C175.277 634.692 176.549 635.153 177.79 635.69C179.25 636.41 179.12 637.6 178.05 638.57C177.435 638.967 176.76 639.261 176.05 639.44C174.79 639.96 172.53 638.98 172.45 641.14C172.39 643 174.67 642.77 175.86 643.53C176.13 643.661 176.411 643.768 176.7 643.85C177.7 644.26 178.77 644.63 178.77 645.92C178.77 647.54 177.37 647.66 176.25 647.99C175.665 648.123 175.069 648.2 174.47 648.22C173.47 648.33 172.2 648.01 172.02 649.52C171.84 651.03 172.91 651.52 174.12 651.99C175.53 652.5 176.93 653.05 178.3 653.66C178.659 653.785 178.964 654.028 179.166 654.35C179.368 654.672 179.454 655.053 179.41 655.43C179.361 655.808 179.192 656.16 178.927 656.434C178.662 656.708 178.316 656.889 177.94 656.95C176.63 657.2 175.27 657.22 173.94 657.34C173.22 657.4 172.37 657.34 172.19 658.34C172.133 658.562 172.124 658.793 172.163 659.018C172.202 659.244 172.289 659.459 172.418 659.648C172.546 659.837 172.714 659.997 172.909 660.116C173.104 660.235 173.323 660.312 173.55 660.34C175.55 660.85 177.64 661.26 179.69 661.74C179.988 661.787 180.266 661.918 180.491 662.118C180.716 662.319 180.879 662.58 180.96 662.87C181.19 663.75 180.62 664.26 179.96 664.69C178.38 665.77 176.53 665.69 174.76 665.89C173.9 666 172.76 665.89 172.57 666.98C172.34 668.45 173.68 668.57 174.64 668.83C176.64 669.38 178.73 669.83 180.76 670.34C181.76 670.61 182.93 670.92 182.89 672.26C182.837 672.717 182.652 673.149 182.36 673.503C182.067 673.858 181.678 674.121 181.24 674.26C180.261 674.638 179.259 674.956 178.24 675.21C176.83 675.61 175.19 675.12 173.18 676.21C175.725 677.314 178.39 678.12 181.12 678.61C181.96 678.81 182.97 679 183.12 680.11C183.31 681.4 182.36 682.03 181.4 682.45C179.852 683.044 178.217 683.381 176.56 683.45C175.75 683.51 174.72 683.25 174.42 684.45C174.6 685.63 175.6 685.75 176.42 685.99C177.71 686.37 179.05 686.59 180.35 686.93C181.35 687.2 182.52 687.47 182.41 688.86C182.3 690.25 181.23 690.52 180.19 690.75C179.159 690.954 178.117 691.097 177.07 691.18C176.39 691.25 175.88 691.6 175.83 692.23C175.802 692.536 175.889 692.842 176.074 693.088C176.259 693.334 176.528 693.502 176.83 693.56C178.83 694.04 180.94 694.44 182.98 694.93C183.98 695.17 185.3 695.19 185.43 696.5C185.58 698.01 184.26 698.43 183.12 698.81C181.49 699.36 179.6 698.92 177.8 699.91C178.68 701.33 179.9 701.38 181.01 701.62C182.33 701.92 183.65 702.18 185.01 702.47C185.8 702.65 186.49 703.1 186.5 703.91C186.51 704.72 185.82 705.17 185.16 705.58C183.61 706.58 181.62 705.77 180.02 706.76C181.48 708.67 181.47 708.76 182.55 708.97C184.88 709.51 187.24 709.97 189.55 710.52C190.29 710.69 191.06 710.99 191.14 711.87C191.25 713.02 190.35 713.43 189.46 713.6C187.46 713.96 185.46 714.22 183.46 714.51C183.63 716.04 184.66 715.99 185.46 716.15C188.41 716.74 191.35 717.31 194.31 717.85C195.46 718.06 197.02 717.85 197.07 719.48C197.12 721.11 195.56 721.53 194.19 721.73C192.82 721.93 191.5 721.97 190.19 722.14C189.41 722.23 188.41 721.93 188.04 723.14C188.673 723.771 189.527 724.129 190.42 724.14C193.82 724.76 197.213 725.393 200.6 726.04C201.6 726.23 202.86 726.3 202.99 727.63C203.15 729.21 201.85 729.63 200.66 729.86C198.66 730.24 196.66 730.46 194.47 730.77C195.18 732.61 196.67 732.52 197.92 732.77C200.71 733.35 203.53 733.77 206.3 734.46C207.41 734.72 208.78 734.67 209.37 736.01C210.06 737.59 208.03 738.01 207.71 739.44C214.22 741.11 220.13 739.66 225.85 737.18C232.42 734.33 237.9 729.88 242.98 724.92C255.09 713.11 264.05 699.16 270.66 683.66C278.66 664.84 283.1 645.11 284.94 624.81C286.8 606.241 285.628 587.493 281.47 569.3C278.346 555.298 271.878 542.26 262.62 531.3C258.45 526.41 253.57 522.4 247.25 520.76C246.35 520.52 245.45 520.3 244.56 520.1C243.42 519.85 242.56 525.04 238.56 524.1C234.56 523.16 237.83 518.63 234.44 518.7C231.366 518.629 228.292 518.816 225.25 519.26C223.56 519.56 226.13 524.39 219.25 524.47C215.91 524.47 216.58 521.02 215.76 521.34C212.39 522.65 210.09 524.46 206.89 526.85C205.32 528.02 203.71 529.12 202.16 530.3C198.868 532.927 196.146 536.197 194.16 539.91C193.58 540.91 192.86 541.91 193.3 543.26C193.94 545.26 192.89 546.41 191.17 547.11C188.94 548.02 188.22 549.48 189.31 551.73C190.24 553.64 190.08 555.22 187.83 556.09C186.39 556.65 186.14 557.62 186.88 558.95C187.217 559.443 187.421 560.015 187.47 560.61C187.39 562.83 184.56 562.4 183.89 564.29C183.31 565.94 185.74 567.83 183.36 569.19C183.223 569.253 183.092 569.33 182.97 569.42C181.27 570.77 180.88 572.16 182.55 573.93C183.89 575.34 183.34 576.79 181.87 577.71C180.65 578.46 179.95 578.89 181.22 580.33C182.11 581.33 181.69 582.62 180.51 583.43C179.79 583.81 179.01 584.26 177.79 585.03ZM221.6 460.69C225.937 462.306 230.612 462.798 235.19 462.12C247.45 460.22 256.83 453.65 264.12 443.88C268.024 438.529 271.082 432.61 273.19 426.33C281.532 402.863 283.678 377.64 279.42 353.1C277.95 344.45 275.1 336.23 269.7 329.1C265.01 322.91 258.83 320.41 251.14 321.5C240.56 323.01 232.31 328.12 226.55 337.18C225.04 339.54 219.02 345.18 218.62 349.87C219.31 352.13 217.91 352.87 216.08 353.13C213.66 353.45 213.22 354.46 214.73 356.37C215.49 357.37 215.58 358.68 214.73 359.2C210.99 359.68 215.35 363.6 212.65 363.82C209.07 364.12 212.08 368.52 213.22 370.66C214.5 373.04 216.06 375.27 217.22 377.66C217.709 378.608 217.895 379.682 217.754 380.739C217.613 381.796 217.151 382.784 216.43 383.57C215.769 384.417 214.839 385.013 213.793 385.258C212.747 385.504 211.649 385.385 210.68 384.92C207.03 383.15 205.68 386.17 203.33 387.34C203.94 388.68 204.98 388.72 205.69 389.23C207.76 390.72 207.69 392.02 205.5 393.17C204.5 393.68 203.12 393.36 202.5 394.62C203.21 395.99 204.72 396.2 205.7 397.09C207.22 398.48 206.98 399.71 205.17 400.48C203.92 401.01 201.67 399.79 201.49 401.98C201.35 403.73 203.57 403.84 204.64 404.79C205.35 405.42 206.05 406.04 205.7 407.05C205.44 407.79 204.7 408.05 203.97 408.35C202.85 408.78 200.79 407.59 200.72 409.61C200.67 411.12 202.72 411.09 203.79 411.86C204.15 412.13 204.62 412.25 204.97 412.52C206.5 413.72 206.28 415.09 204.6 415.99C203.4 416.63 201.95 415.87 200.47 417.04L202.95 418.28C203.783 418.618 204.589 419.019 205.36 419.48C207.17 420.72 207.04 422.36 205 423.15C203.629 423.584 202.229 423.919 200.81 424.15C202.22 425.74 204.11 425.55 205.43 426.53C206.75 427.51 206.65 428.71 205.28 429.32C203.787 429.863 202.261 430.307 200.71 430.65C203.46 431.65 205.43 432.29 207.39 433.02C207.758 433.113 208.086 433.324 208.324 433.619C208.562 433.915 208.698 434.281 208.71 434.66C208.721 435.116 208.556 435.559 208.249 435.897C207.941 436.234 207.515 436.439 207.06 436.47C205.58 436.71 204.06 436.8 202.59 436.98C202.366 436.981 202.149 437.064 201.982 437.213C201.814 437.362 201.707 437.567 201.68 437.79C201.634 438.008 201.652 438.235 201.729 438.444C201.807 438.653 201.943 438.835 202.12 438.97C203.017 439.519 204.025 439.861 205.07 439.97C206.82 440.37 208.59 440.73 210.32 441.24C211.16 441.48 212.07 441.96 212.02 443.06C211.97 444.16 211.11 444.6 210.22 444.8C208.45 445.18 206.66 445.45 204.75 445.8C204.968 446.17 205.274 446.482 205.64 446.706C206.006 446.931 206.421 447.063 206.85 447.09C208.92 447.47 210.99 447.82 213.06 448.16C214.11 448.34 215.37 448.47 215.47 449.73C215.59 451.26 214.21 451.52 213.04 451.86C211.87 452.2 210.32 451.86 209.18 453.37L220.32 455.37C221.62 455.61 223.19 455.54 223.71 457.06C224.23 458.58 222.61 458.99 221.93 459.9C221.796 460.153 221.685 460.417 221.6 460.69ZM255.36 275.6C256.41 276.75 259.15 276.6 258.73 278.68C258.04 282.21 260.55 281.99 262.43 282.2C265.66 282.55 268.19 280.86 270.43 278.7C274.192 274.794 277.047 270.106 278.79 264.97C283.42 252.72 284.02 240.13 281.79 227.33C281.183 223.32 279.969 219.425 278.19 215.78C276.705 212.622 274.074 210.148 270.83 208.86C267.75 207.66 265.33 208.2 262.63 210.44C259.63 212.91 259.79 217.26 256.4 219.23C255.96 219.48 256.15 220.11 256.4 220.47C257.76 222.6 255.87 223.08 254.8 224.27C253.73 225.46 256.6 227.6 254.35 228.96C254.114 229.064 253.902 229.217 253.73 229.409C253.557 229.601 253.427 229.827 253.348 230.073C253.27 230.319 253.245 230.579 253.274 230.835C253.304 231.091 253.388 231.339 253.52 231.56C253.603 231.772 253.643 231.998 253.638 232.226C253.633 232.453 253.582 232.678 253.489 232.885C253.396 233.093 253.262 233.28 253.096 233.435C252.929 233.591 252.734 233.711 252.52 233.79C250.04 234.88 251.52 236.48 251.99 237.86C252.61 239.62 248.85 239.86 250.66 241.93C252.01 243.5 251.1 244.49 249.84 245.64C248.33 247.02 251.84 248.37 250.11 249.94C249.904 250.157 249.672 250.348 249.42 250.51C247.42 251.64 248.23 252.42 249.66 253.32C251.66 254.56 251.2 255.61 249.25 256.42C248.72 256.65 248.18 256.97 248.51 257.73C252.76 260.28 252.76 260.28 249.43 263.21C249.72 263.85 250.37 263.87 250.92 264.06C251.643 264.248 252.348 264.496 253.03 264.8C255.23 265.95 255.23 267.17 253.09 268.66C252.67 268.95 251.81 268.66 251.89 269.58C252.21 270.23 252.81 270.33 253.37 270.52C253.944 270.691 254.502 270.908 255.04 271.17C257.68 272.5 257.72 273.02 255.36 275.56V275.6ZM245.26 504.15C259.76 483.15 276.95 464.4 294.53 445.87C289.84 443.14 288.24 442.75 285.04 443.36C285.68 444.87 286.41 446.36 286.9 447.9C287.108 448.389 287.161 448.931 287.052 449.451C286.943 449.971 286.677 450.446 286.29 450.81C285.29 451.69 284.29 451.29 283.37 450.81C281.83 450.07 280.32 449.29 278.24 448.24C279.29 450.87 280.15 452.75 280.8 454.7C281.23 456 281.39 457.46 280.02 458.37C278.65 459.28 277.75 458.19 276.79 457.54C275.55 456.7 274.37 455.77 273.17 454.88C272.957 454.668 272.675 454.537 272.376 454.512C272.076 454.486 271.776 454.567 271.53 454.74C271.373 454.848 271.241 454.989 271.143 455.153C271.045 455.317 270.984 455.5 270.963 455.69C270.942 455.88 270.962 456.072 271.022 456.253C271.082 456.434 271.18 456.6 271.31 456.74C272.154 457.974 272.871 459.291 273.45 460.67C274.45 463.47 273.18 464.75 270.36 464.1C269.36 463.88 268.56 463.1 267.42 463.36C266.77 464.78 267.93 465.94 267.93 467.26C267.93 469.87 266.6 470.81 264.14 469.85C262.75 469.3 261.85 467.85 260.3 467.64C260.173 467.907 260.101 468.197 260.089 468.493C260.077 468.789 260.125 469.084 260.23 469.36C260.59 471.06 261.61 473.02 259.66 474.26C257.93 475.35 256.66 473.72 255.24 472.91C254.94 472.74 254.71 472.76 254.24 473.36C254.074 474.421 253.854 475.472 253.58 476.51C252.81 479.02 251.26 479.39 249.23 477.68C248.33 476.93 248.11 475.52 246.8 475.17C244.92 480.75 243.79 497.31 245.26 504.11V504.15ZM225 500.69C224.92 503.79 224.94 503.79 228.18 504.06H228.63C235.55 504.23 233.77 505.06 234.28 499.44C234.93 492.44 235.65 485.44 236.82 478.44C237.58 473.96 237.62 473.97 232.82 474.07C231.623 474.144 230.421 474.107 229.23 473.96C226.88 473.56 225.89 474.46 225.91 476.82C226 481.09 225.06 498.78 225 500.69ZM208.79 474.78C207.92 475.87 207.37 476.58 206.79 477.26C206.21 477.94 205.56 478.67 204.53 478.4C204.022 478.247 203.583 477.922 203.289 477.48C202.996 477.038 202.865 476.508 202.92 475.98C202.862 475.083 202.888 474.182 203 473.29C203.37 470.84 203.83 468.4 204.38 465.29C201.22 467.74 200.62 471.74 196.99 472.88C199.17 476.26 201.36 479.48 203.37 482.8C205.38 486.12 207.22 489.58 209.16 492.96C211.1 496.34 211.88 499.96 214.83 503.82C214.44 492.61 215.33 482.46 215.91 472.23C215.012 473.244 214.224 474.35 213.56 475.53C211.61 478.69 210.96 478.59 208.79 474.78ZM228.06 310.33C225.23 306.76 222.23 304.8 219.4 302.63C217.73 301.35 216.67 301.42 215.4 303.28C211.633 308.736 208.901 314.837 207.34 321.28C206.18 326.28 206.17 326.28 211.21 326.45C211.42 326.45 211.65 326.23 211.86 326.12C211.8 325.53 211.27 325.49 210.91 325.26C210.16 324.8 209.21 324.46 209.42 323.31C209.66 321.94 210.83 321.83 211.85 321.8C213.645 321.75 215.441 321.8 217.23 321.95C218.79 322.08 220.34 322.42 222.72 322.79C220.773 320.987 218.634 319.404 216.34 318.07C215.46 317.48 214.48 316.88 214.89 315.59C215.079 315.095 215.417 314.671 215.858 314.377C216.299 314.083 216.82 313.934 217.35 313.95C218.41 313.84 219.47 313.77 220.62 313.68C220.04 312.34 219.05 312.17 218.38 311.6C217.71 311.03 217.33 310.46 217.65 309.67C217.797 309.318 218.051 309.021 218.375 308.82C218.7 308.619 219.079 308.525 219.46 308.55C220.504 308.544 221.546 308.645 222.57 308.85C224.18 309.15 225.7 309.69 228.08 310.33H228.06ZM239.41 276.99C238.897 277.293 238.403 277.627 237.93 277.99C234.66 280.83 234.71 280.82 236.35 284.73C238.61 290.13 240.75 295.58 243.03 300.98C243.38 301.8 243.34 303.21 245.14 303.05C246.09 297.74 248.14 292.67 249.7 286.39C248.1 287.69 247.31 288.39 246.5 288.98C245.69 289.57 244.72 290.18 243.62 289.56C242.52 288.94 242.55 287.75 242.78 286.76C243.22 284.92 243.87 283.13 244.45 281.3C243.26 281.08 242.74 281.99 241.97 282.3C241.2 282.61 240.31 283.21 239.47 282.51C238.63 281.81 238.87 280.92 238.95 280C239.03 279.08 240.11 278.26 239.43 276.99H239.41ZM275.06 292.12C273.68 292.77 272.95 293.97 271.54 293.57C271.367 293.493 271.176 293.462 270.988 293.479C270.799 293.496 270.617 293.562 270.461 293.669C270.304 293.776 270.178 293.922 270.094 294.092C270.01 294.262 269.97 294.451 269.98 294.64C269.66 298.98 268.78 303.3 268.98 308.74L278.9 297.02C276.35 296.44 275.7 294.48 275.08 292.12H275.06ZM254.54 305.01C254.2 306.33 255.12 306.92 256.74 307.15C258.36 307.38 259.25 306.77 259.5 305.1C260.03 301.55 260.5 297.98 261.26 294.47C261.62 292.73 261.08 292.04 259.45 291.63C257.82 291.22 256.93 291.89 256.64 293.48C255.99 297.17 255.32 300.85 254.56 305.01H254.54ZM192.79 450.13C189.35 451.63 187.87 454.67 185.02 456.13C186.59 458.25 187.63 460.13 189.67 461.88C190.17 459.55 190.67 457.71 190.93 455.88C191.19 454.05 192.79 452.57 192.79 450.13ZM195.64 470.34C196.49 466.96 196.76 463.86 198.07 461.05C198.39 460.36 198.56 459.57 197.67 459.17C196.78 458.77 196.38 459.65 195.93 460.17C194.5 461.78 193.54 463.8 191.53 465.01C192.87 466.86 193.79 468.69 195.68 470.34H195.64ZM212.56 334.43C211.056 333.082 209.289 332.061 207.37 331.43C206.81 331.18 206.18 331.1 205.95 331.86C205.72 332.62 205.74 333.42 206.7 333.59C208.47 333.9 210.22 334.1 212.6 334.43H212.56ZM271.49 714.43C271.49 712.85 271.49 712.13 271.49 711.43C271.49 710.73 271.49 709.91 270.63 709.57C270.14 709.38 269.8 709.66 269.52 710.01C268.94 710.73 268.52 711.52 269.19 712.37C269.927 713.113 270.709 713.811 271.53 714.46L271.49 714.43ZM121.43 724.43C120.28 726.22 118.74 726.67 119.43 728.35C119.557 728.62 119.78 728.832 120.056 728.945C120.332 729.058 120.64 729.064 120.92 728.96C122.55 728.16 121.79 726.8 121.47 724.45L121.43 724.43ZM208.79 340.59C208.609 340.178 208.303 339.834 207.915 339.606C207.528 339.378 207.078 339.278 206.63 339.32C205.74 339.32 205.85 340.14 205.88 340.67C205.95 341.84 206.76 342.11 207.77 341.92C208.4 341.78 208.6 341.2 208.79 340.59Z" fill="#10100F"/>
<path d="M366.44 776.48C369.28 773.48 373.07 773.01 376.8 773.01C381.55 773.01 384.07 776.9 382.65 781.43C381.31 785.72 377.97 788.17 373.34 787.21C370.34 786.59 368.62 787.77 366.73 789.57C372.26 788.86 377.73 788.98 383.29 788.74C384.178 788.59 385.082 788.553 385.98 788.63C391.56 789.93 394.98 787.09 397.76 782.78C398.69 781.411 399.774 780.153 400.99 779.03C402.8 777.31 404.71 777.03 406.28 778.23C408.13 779.65 408.19 781.5 407.28 783.48C406.92 784.29 406.47 785.05 405.93 786.1C409.13 787.85 412.53 788.29 415.86 788.9C422.7 790.15 429.61 790 436.53 789.98C438.36 789.98 441.14 789.14 441.58 791.52C442.08 794.18 439.03 794.45 437.2 795.11C427.96 798.43 418.54 797.49 409.2 795.84C404.04 794.94 398.98 794.17 393.77 795.48C390.818 796.135 387.79 796.388 384.77 796.23C378.76 796.157 372.756 796.625 366.83 797.63C360.53 798.63 354.25 797.52 348.22 795.63C347.633 795.36 346.988 795.244 346.344 795.293C345.7 795.342 345.079 795.554 344.54 795.91C343.372 796.744 342.017 797.279 340.594 797.465C339.171 797.652 337.723 797.485 336.38 796.98C335.69 796.71 335.01 796.33 334.25 796.77C330.91 798.77 327.25 797.98 323.67 798.09C307.46 798.6 291.24 797.99 275.02 797.86C272.916 797.9 270.812 797.81 268.72 797.59C264.394 796.957 259.984 797.25 255.78 798.45C251.87 799.59 248.72 797.68 245.56 796.13C245.153 795.915 244.793 795.619 244.503 795.262C244.213 794.904 243.998 794.491 243.872 794.048C243.746 793.605 243.711 793.141 243.769 792.684C243.827 792.228 243.977 791.787 244.21 791.39C246.64 786.23 249.09 781.07 251.8 776.06C252.325 775.033 253.233 774.254 254.328 773.893C255.424 773.531 256.617 773.616 257.65 774.13C259.74 775.08 260.65 777.19 260.17 779.79C259.59 782.69 257.75 785.24 257.5 788.67C264.9 788.29 271.93 790.67 279.18 789.15C281.562 788.791 283.982 788.768 286.37 789.08C297.95 790.01 309.49 789.18 321.03 788.5C324.94 788.26 325.16 787.96 324.34 784.19C323.01 777.99 319.82 772.41 318.34 766.26C318.02 764.93 317.2 764.73 315.96 765C314.493 765.292 313.011 765.499 311.52 765.62C307.52 765.99 305.27 764.98 304.15 761.39C302.033 755.047 302.467 748.129 305.36 742.1C306.57 739.54 308.95 738.1 311.72 737.49C319.36 735.7 328.42 740.49 331.18 747.82C333.18 753.21 332.11 756.62 327.3 759.82C326.358 760.225 325.575 760.928 325.07 761.82C329.71 766.35 332.92 772.07 335.77 778.62C337.83 774.345 340.169 770.209 342.77 766.24C343.97 764.54 343.65 762.91 343.09 761.12C341.09 754.67 339.09 748.22 337.17 741.73C336.42 739.15 335.91 736.48 335.38 733.83C334.7 730.44 334.74 730.43 331.48 730.97C330.89 731.07 330.3 731.18 329.7 731.26C324.36 732.02 322.76 730.97 321.26 725.73C318.81 717.18 323.7 708.89 332.92 705.97C336.77 704.802 340.921 705.155 344.519 706.955C348.117 708.756 350.887 711.868 352.26 715.65C354.08 720.65 352.68 723.65 347.84 725.59C345.92 726.36 343.13 726.26 342.31 728.15C341.49 730.04 343.26 732.07 343.82 734.06C345.64 740.54 347.57 746.99 349.43 753.35C350.91 753.8 351.2 752.71 351.56 752.01C353.34 748.53 355.03 745.01 356.76 741.52C357.54 739.96 357.3 738.95 355.41 738.63C354.52 738.505 353.647 738.277 352.81 737.95C350.07 736.84 349.18 735.07 349.81 732.24C351.71 724.03 362.93 714.94 371.34 714.78C375.34 714.71 377.89 716.36 379.42 720.04C380.143 721.698 380.563 723.473 380.66 725.28C380.784 729.186 380.627 733.096 380.19 736.98C379.73 741.04 378.55 741.98 374.45 742.49C372.654 742.613 370.85 742.461 369.1 742.04C367.95 741.83 366.98 741.74 366.75 743.23C365.3 752.33 359.87 759.43 354.87 766.74C353.8 768.31 353.05 769.83 354.19 772.38C359.5 766.38 364.8 760.72 371.12 756.18C377.365 751.669 384.061 747.819 391.1 744.69C390.59 743.95 390.36 743.56 390.1 743.22C385.42 737.65 385.96 733.32 392 729.45C396.864 726.126 402.501 724.111 408.37 723.6C419 722.91 425.95 732.29 422.02 742.21C419.777 747.843 415.816 752.626 410.7 755.88C406.82 758.42 402.41 757.52 399.6 753.82C399.42 753.58 399.26 753.32 399.08 753.07C396.08 749.07 396.08 749.01 392.54 752.23C384.95 759.07 376.49 764.9 369.42 772.32C368.24 773.55 366.42 774.42 366.59 776.6C362.87 777.34 361.67 780.77 358.9 783.45C361.21 783.443 363.469 782.773 365.41 781.52C366.82 780.58 365.41 778.66 366.17 777.33C366.286 777.056 366.377 776.771 366.44 776.48V776.48ZM406.12 747.87C409.408 745.756 412.149 742.895 414.12 739.52C416.47 735.15 414.2 731.21 409.3 731.17C404.4 731.13 400.37 732.97 396.22 736.02C399.974 739.567 403.297 743.545 406.12 747.87V747.87ZM336.96 711.39C335.278 711.564 333.654 712.101 332.2 712.964C330.746 713.827 329.497 714.996 328.54 716.39C327.539 717.911 327.147 719.753 327.44 721.55C327.62 723.09 328.33 723.69 329.86 723.2C334.29 721.79 338.73 720.41 343.15 718.99C343.365 718.946 343.569 718.858 343.748 718.732C343.927 718.605 344.078 718.442 344.191 718.254C344.304 718.066 344.376 717.857 344.403 717.639C344.431 717.421 344.413 717.2 344.35 716.99C343.979 715.333 343.033 713.862 341.68 712.837C340.327 711.812 338.655 711.299 336.96 711.39V711.39ZM357.96 730.87L368.36 734.03C368.79 734.16 369.22 734.31 369.64 734.47C371.06 735.04 372 734.62 372.26 733.09C372.71 730.43 373.5 727.82 373.45 725.09C373.38 721.46 372.6 720.87 369.01 721.99C364.38 723.42 360.94 726.36 357.95 730.87H357.96ZM311.53 760.39C314.89 758.39 317.53 756.64 320.27 755.12C324.14 752.97 324.27 752.28 321.34 749.12C320.22 747.896 318.82 746.963 317.26 746.4C314.05 745.25 312.26 746.02 311.49 749.24C310.719 752.918 310.729 756.716 311.52 760.39H311.53ZM342.79 788.1C343.462 787.448 343.97 786.645 344.273 785.759C344.575 784.872 344.663 783.927 344.53 783C343.897 783.68 343.416 784.485 343.116 785.364C342.816 786.243 342.705 787.175 342.79 788.1V788.1Z" fill="#10100F"/>
<path d="M85.56 799.84C83.36 803.92 79.64 804.77 75.56 804.69C59.97 804.4 44.35 805.47 28.82 803.23C25.12 802.7 21.34 802.68 17.6 802.49C15.7885 802.528 14.0032 802.053 12.45 801.12C11.7996 800.731 11.2728 800.166 10.9311 799.49C10.5895 798.813 10.4469 798.054 10.52 797.3C10.68 795.75 11.86 795.02 13.17 794.55C14.8643 793.927 16.6389 793.55 18.44 793.43C24.4271 792.914 30.4452 792.864 36.44 793.28C40.3272 793.618 44.2329 793.692 48.13 793.5C55.21 793.18 62.21 794.28 69.26 794.3C70.31 794.3 71.36 794.36 72.41 794.3C75.68 794.24 75.72 794.24 76.41 790.88C76.95 788.39 77.32 785.88 77.89 783.38C78.1652 781.596 78.7579 779.875 79.64 778.3C80.1058 777.432 80.8123 776.718 81.6745 776.243C82.5367 775.767 83.5178 775.551 84.5 775.62C85.5657 775.672 86.5848 776.073 87.3999 776.762C88.2149 777.45 88.7808 778.388 89.01 779.43C89.3673 781.191 89.6244 782.97 89.78 784.76C89.99 786.25 90.18 787.76 90.49 789.21C90.8 790.66 91.56 791.47 93.36 790.98C100.71 788.98 107.58 791.63 114.51 793.42C115.951 793.861 117.287 794.589 118.44 795.56C121.17 797.71 120.92 800.33 117.86 801.98C115.156 803.345 112.091 803.824 109.1 803.35C107.453 803.232 105.834 802.861 104.3 802.25C102.561 801.366 100.664 800.837 98.7193 800.693C96.7743 800.549 94.82 800.792 92.97 801.41C90.48 802.29 88 801.3 85.56 799.84Z" fill="#10100F"/>
<path d="M170.25 799.59C168.47 799.69 166.53 799.86 164.58 799.88C163.09 799.88 161.29 800.24 160.15 799.56C155.45 796.77 151.63 799.15 147.66 801.16C147.148 801.471 146.601 801.72 146.03 801.9C143.65 802.52 141.72 801.1 141.28 798.44C141.124 796.638 141.342 794.824 141.92 793.11C143.34 787.42 144.49 781.7 145.38 775.91C145.99 771.91 147.89 769.91 150.52 770.28C153.15 770.65 154.66 772.99 154.26 776.92C153.91 780.35 153.37 783.76 152.82 787.17C152.55 788.86 152.91 789.83 154.82 789.55C154.965 789.515 155.115 789.515 155.26 789.55C162.85 792.55 170.62 790.13 178.26 790.31C180.36 790.208 182.464 790.38 184.52 790.82C185.99 791.24 187.36 791.9 187.67 793.64C187.781 794.388 187.678 795.153 187.371 795.845C187.065 796.537 186.569 797.129 185.94 797.55C183.39 799.75 180.31 800.29 177.09 800.15C174.91 800.07 172.67 799.8 170.25 799.59Z" fill="#10100F"/>
<path d="M214.99 676.28C213.106 676.264 211.304 675.506 209.976 674.169C208.649 672.832 207.903 671.024 207.9 669.14C207.951 667.259 208.726 665.469 210.064 664.145C211.401 662.821 213.198 662.063 215.08 662.03C216.96 662.072 218.748 662.852 220.057 664.201C221.367 665.55 222.094 667.36 222.08 669.24C222.085 670.17 221.905 671.092 221.55 671.952C221.195 672.812 220.672 673.593 220.012 674.248C219.352 674.904 218.568 675.421 217.706 675.77C216.843 676.119 215.92 676.292 214.99 676.28V676.28Z" fill="#10100F"/>
<path d="M250.46 670.2C250.444 671.602 250.014 672.967 249.223 674.125C248.433 675.282 247.317 676.18 246.017 676.704C244.718 677.229 243.292 677.357 241.919 677.072C240.547 676.788 239.289 676.103 238.305 675.105C237.321 674.107 236.654 672.84 236.389 671.464C236.124 670.087 236.272 668.663 236.814 667.371C237.357 666.079 238.27 664.976 239.439 664.202C240.607 663.427 241.978 663.016 243.38 663.02C245.263 663.059 247.056 663.831 248.378 665.172C249.701 666.513 250.447 668.317 250.46 670.2Z" fill="#10100F"/>
<path d="M264.53 368.93C263.61 368.871 262.728 368.542 261.993 367.986C261.258 367.429 260.704 366.668 260.398 365.799C260.092 364.929 260.049 363.989 260.273 363.095C260.498 362.201 260.98 361.392 261.661 360.77C262.341 360.148 263.189 359.74 264.1 359.597C265.011 359.453 265.943 359.581 266.782 359.963C267.621 360.346 268.329 360.967 268.817 361.748C269.306 362.53 269.554 363.438 269.53 364.36C269.507 364.99 269.359 365.609 269.094 366.181C268.829 366.754 268.453 367.267 267.988 367.693C267.522 368.118 266.977 368.447 266.383 368.659C265.79 368.871 265.16 368.963 264.53 368.93V368.93Z" fill="#10100F"/>
<path d="M251.11 363.12C251.097 364.366 250.589 365.557 249.698 366.429C248.807 367.301 247.606 367.783 246.36 367.77C245.113 367.757 243.923 367.249 243.051 366.358C242.179 365.467 241.697 364.266 241.71 363.02C241.723 361.773 242.231 360.583 243.122 359.711C244.013 358.839 245.213 358.357 246.46 358.37C247.707 358.383 248.897 358.891 249.769 359.782C250.641 360.673 251.123 361.873 251.11 363.12V363.12Z" fill="#10100F"/>
<path d="M275.71 241.83C276.536 241.878 277.313 242.234 277.887 242.829C278.462 243.424 278.791 244.213 278.81 245.04C278.888 245.864 278.638 246.686 278.114 247.326C277.589 247.967 276.833 248.374 276.01 248.46C275.562 248.477 275.116 248.401 274.699 248.238C274.282 248.075 273.903 247.827 273.586 247.511C273.269 247.195 273.021 246.817 272.856 246.4C272.692 245.984 272.615 245.538 272.63 245.09C272.652 244.263 272.978 243.473 273.546 242.871C274.115 242.269 274.885 241.899 275.71 241.83V241.83Z" fill="#10100F"/>
<path d="M267.9 245.35C267.933 246.18 267.657 246.992 267.124 247.63C266.592 248.267 265.842 248.684 265.02 248.8C264.57 248.811 264.123 248.728 263.707 248.556C263.29 248.385 262.914 248.129 262.602 247.805C262.29 247.48 262.049 247.095 261.893 246.672C261.738 246.25 261.672 245.799 261.7 245.35C261.692 244.515 262.01 243.71 262.588 243.106C263.165 242.503 263.955 242.149 264.79 242.12C265.624 242.156 266.412 242.512 266.991 243.113C267.57 243.714 267.896 244.515 267.9 245.35Z" fill="#10100F"/>
<path d="M291.03 54.9198C289.771 52.689 289.373 50.0744 289.91 47.5698C291.005 41.7293 291.487 35.7905 291.35 29.8498C291.608 23.159 290.915 16.4654 289.29 9.9698C288.66 7.03347 287.336 4.2905 285.43 1.9698C284.56 0.969802 283.62 -0.440188 282.11 0.229812C280.41 0.979812 281.25 2.5798 281.59 3.8098C283.027 9.04097 283.551 14.4806 283.14 19.8898C282.71 27.0868 281.859 34.2525 280.59 41.3498C279.64 46.2198 279.16 46.8498 274.37 47.2298C266.79 47.8498 261.65 52.2298 258.75 59.1398C257.15 62.9698 257 66.8398 259.96 70.1398C261.296 71.6776 263.027 72.821 264.966 73.4466C266.904 74.0723 268.977 74.1564 270.96 73.6898C273.931 73.1426 276.717 71.8565 279.06 69.9498C279.73 69.3998 280.44 68.5598 281.42 68.9998C282.64 69.5498 282.33 70.7898 282.28 71.7898C281.995 74.7808 281.453 77.7417 280.66 80.6398C279.22 87.0198 276.23 92.7398 273.43 98.5598C272.07 101.39 272.68 103.77 274.59 105.03C276.31 106.17 278.67 105.88 280.81 104.12C282.882 102.371 284.605 100.247 285.89 97.8598C291.16 88.4498 293.3 78.2098 293.76 67.5998C294.094 63.1982 293.146 58.7941 291.03 54.9198V54.9198ZM269.84 63.4698C269.684 63.4804 269.526 63.4804 269.37 63.4698C268.37 63.2598 268.31 62.5698 268.61 61.7898C269.4 59.7198 272.88 57.1698 274.45 57.4898C274.673 57.5221 274.875 57.6387 275.014 57.8154C275.154 57.9921 275.22 58.2156 275.2 58.4398C275.15 59.8798 271.61 63.1598 269.84 63.4698V63.4698Z" fill="#F16142"/>
</g>
<defs>
<clipPath id="clip0_1263_2411">
<rect width="461.7" height="804.7" fill="white"/>
</clipPath>
</defs>
</svg>
