<svg width="150" height="105" viewBox="0 0 150 105" fill="none" xmlns="http://www.w3.org/2000/svg">
<g clip-path="url(#clip0_1821_2957)">
<path d="M103.859 80.6588C104.386 80.5465 104.925 80.4441 105.462 80.3152C106.167 80.1467 106.882 80.1368 107.594 80.1732C109.212 80.2524 110.163 81.3493 110.037 82.955C109.974 83.7843 109.712 84.5574 109.391 85.314C108.885 86.5067 108.236 87.63 107.637 88.7765C106.961 90.065 106.312 91.3634 105.958 92.7874C105.849 93.2301 105.793 93.6729 105.799 94.1222C105.806 94.8457 106.018 95.044 106.756 95.0803C107.213 95.1034 107.663 95.0176 108.084 94.8788C109.189 94.5154 110.279 94.1024 111.378 93.7191C111.709 93.6035 111.901 93.4086 111.95 93.0451C112.01 92.6024 112.119 92.163 112.219 91.7269C112.401 90.9207 113.278 90.174 114.102 90.2302C114.516 90.2599 114.682 90.1113 114.817 89.7941C115.099 89.1333 115.589 88.9186 116.291 89.0672C116.675 89.1498 117.082 89.1366 117.476 89.1664C118.161 89.2192 118.353 89.4042 118.399 90.0947C118.423 90.4648 118.409 90.8348 118.413 91.2049C118.413 91.3899 118.396 91.5947 118.625 91.6674C118.893 91.75 118.932 91.5187 118.985 91.3568C119.148 90.8679 119.495 90.7159 119.975 90.7753C120.634 90.8579 121.296 90.8348 121.958 90.8183C122.65 90.7985 122.839 90.9934 122.849 91.717C122.856 92.1134 122.826 92.5099 122.819 92.9064C122.819 93.0451 122.859 93.1806 123.024 93.1905C123.144 93.2004 123.187 93.0881 123.233 92.9923C123.533 92.3601 124.027 92.0903 124.716 92.1828C125.239 92.2555 125.769 92.3084 126.285 92.4174C126.914 92.5495 127.073 92.7511 127.156 93.3722C127.179 93.5539 127.202 93.7422 127.202 93.924C127.202 94.4162 127.265 94.816 127.798 95.0902C128.222 95.3083 128.404 95.8105 128.45 96.3028C128.507 96.8809 128.56 97.4624 128.58 98.0406C128.606 98.8203 128.292 99.1705 127.504 99.1771C126.153 99.1904 124.802 99.1937 123.451 99.1507C119.691 99.0384 115.93 99.0681 112.172 99.0615C112.066 99.0615 111.96 99.0681 111.854 99.0648C110.802 99.0516 110.504 98.5924 110.825 97.6045C111.033 96.9635 111.143 96.2895 111.302 95.6122C110.957 95.6023 110.812 95.8204 110.61 95.9327C109.193 96.7058 107.723 97.2642 106.067 96.9966C104.707 96.7785 103.925 95.8832 103.833 94.5121C103.773 93.6266 103.959 92.7775 104.213 91.9383C104.598 90.6663 105.17 89.4769 105.783 88.304C106.392 87.1312 107.054 85.9847 107.577 84.7722C107.839 84.1676 108.09 83.5497 108.127 82.879C108.156 82.324 108.021 82.1357 107.474 82.096C106.097 81.9969 104.803 82.3868 103.528 82.846C103.227 82.955 103.217 83.2458 103.157 83.5002C102.8 85.02 102.326 86.5034 101.714 87.9406C99.8865 92.2026 97.0162 95.566 92.9905 97.9151C91.1564 98.9855 89.1634 99.5802 87.0645 99.8247C84.0916 100.172 81.1021 100.224 78.1126 100.334C75.9177 100.413 73.7194 100.466 71.5245 100.509C66.4758 100.601 61.5496 99.8644 56.7724 98.2322C54.3887 97.4195 52.26 96.1508 50.4557 94.3766C49.6579 93.5936 48.9693 92.7247 48.4363 91.7401C48.2774 91.446 48.1251 91.2346 47.7278 91.2313C46.6849 91.2247 45.6851 91.0165 44.788 90.4417C44.7515 90.4185 44.6887 90.4417 44.5794 90.4417C44.4702 90.8051 44.5297 91.1982 44.5033 91.5782C44.49 91.783 44.5165 92.0407 44.2185 92.0573C43.9802 92.0705 43.9504 91.8524 43.8908 91.6773C43.7551 91.2842 43.7517 90.848 43.4207 90.2996C43.4207 91.1949 43.4207 91.9119 43.4207 92.6288C43.4207 92.7874 43.4207 92.946 43.4107 93.1046C43.4008 93.2632 43.3942 93.4449 43.1956 93.4746C42.9605 93.511 42.8711 93.3359 42.8215 93.1475C42.7255 92.7907 42.6427 92.4306 42.5467 92.0738C42.5202 91.978 42.4672 91.8855 42.4275 91.7963C42.166 91.8359 42.2222 92.0143 42.2322 92.163C42.3149 93.2103 41.9872 94.2015 41.825 95.2158C41.7985 95.3777 41.7422 95.5429 41.5502 95.5528C41.3019 95.5627 41.2555 95.3645 41.239 95.1761C41.186 94.6508 41.1463 94.1222 41.0966 93.5969C41.0834 93.4449 41.1231 93.2731 40.951 93.174C40.6431 93.2665 40.6629 93.5209 40.6762 93.7588C40.7192 94.4757 40.5967 95.1827 40.5239 95.8898C40.5007 96.0979 40.461 96.3061 40.4213 96.5142C40.3948 96.6497 40.3352 96.7785 40.1829 96.795C39.9909 96.8149 39.9015 96.6662 39.8552 96.5142C39.8088 96.3655 39.7856 96.207 39.7558 96.0517C39.6499 95.5098 39.5473 94.9647 39.4413 94.4229C38.6898 94.5913 38.66 94.6046 38.6468 95.2389C38.6335 96.0385 38.4283 96.805 38.2793 97.5847C38.2594 97.6871 38.2263 97.7895 38.1833 97.8853C38.1403 97.9844 38.0674 98.0604 37.9449 98.0637C37.7794 98.0637 37.6999 97.958 37.69 97.8193C37.6503 97.3204 37.6205 96.8182 37.5907 96.316C37.5775 96.1045 37.5708 95.8931 37.5609 95.6816C37.551 95.5065 37.498 95.3612 37.2828 95.4041C37.1173 95.4338 36.9815 95.5197 37.0047 95.718C37.018 95.8501 37.0577 95.9757 37.0842 96.1078C37.4814 98.034 37.594 99.98 37.5146 101.939C37.498 102.365 37.4318 102.785 37.3027 103.185C37.1007 103.809 36.5942 104.11 36.0248 103.981C35.462 103.852 35.1375 103.35 35.2964 102.692C35.6109 101.384 35.5812 100.056 35.4388 98.7509C35.3494 97.9448 35.2733 97.1188 35.0945 96.2929C34.8263 96.9702 34.5582 97.621 34.2304 98.2388C34.1046 98.48 34.055 98.9095 33.6908 98.8137C33.3001 98.7113 33.5054 98.3347 33.5451 98.0637C33.5981 97.6706 33.6709 97.2807 33.7107 96.8876C33.7305 96.6992 33.8596 96.4514 33.5418 96.3655C33.1942 96.2697 32.8896 96.4052 32.8135 96.7488C32.6844 97.3237 32.4328 97.8457 32.1878 98.371C32.1414 98.4668 32.1216 98.5891 32.0487 98.6518C31.4462 99.1904 31.5852 99.8776 31.6647 100.548C31.7177 100.994 31.8104 101.434 31.8832 101.876C32.0024 102.607 31.6846 103.158 31.0721 103.284C30.4795 103.406 29.8968 102.983 29.781 102.286C29.5194 100.713 29.4863 99.1309 29.7015 97.5483C29.7743 97.0164 29.771 96.501 29.7147 95.9724C29.675 95.5726 29.4962 95.3413 29.0228 95.262C28.8772 95.8402 28.8275 96.4316 28.7447 97.0164C28.7017 97.3104 28.801 97.7928 28.4236 97.8226C27.9469 97.8589 28.0627 97.3402 27.9866 97.0362C27.7747 96.1607 27.6324 95.2753 27.6357 94.37C27.6357 94.0132 27.5761 93.6828 27.1391 93.5077C26.8279 94.0858 26.6988 94.7268 26.4703 95.3314C26.3776 95.5792 26.3081 95.8336 26.2154 96.0814C26.1591 96.2367 26.0598 96.3655 25.8678 96.3457C25.6559 96.3259 25.6328 96.1574 25.6328 95.9955C25.6328 95.8105 25.646 95.6255 25.6659 95.4404C25.7718 94.3898 25.8744 93.3392 25.9903 92.2885C26.03 91.9383 26.0565 91.6046 25.6692 91.3502C25.2885 92.0738 25.0997 92.8436 24.8051 93.5737C24.6793 93.8843 24.7356 94.4922 24.2489 94.37C23.8086 94.261 24.0536 93.7191 24.09 93.3854C24.2191 92.1531 24.3218 90.9108 24.6925 89.7148C24.7389 89.5661 24.7521 89.4075 24.7654 89.249C24.7654 89.2159 24.7058 89.173 24.6627 89.1201C24.4409 89.1663 24.4343 89.3844 24.378 89.5331C24.0205 90.4714 23.6762 91.413 23.3253 92.3546C23.2624 92.5264 23.1928 92.6982 23.1134 92.8634C23.0637 92.9658 22.9578 93.0055 22.8452 92.9989C22.683 92.9857 22.6135 92.8634 22.6168 92.728C22.6201 92.5165 22.6433 92.3051 22.683 92.1002C22.832 91.3205 22.9942 90.5474 23.1498 89.7677C23.1862 89.5926 23.2855 89.4141 23.1101 89.1664C22.1897 89.5859 21.3025 90.0947 20.4185 90.6102C20.1173 90.7886 20.2 91.0661 20.2298 91.3172C20.3921 92.761 20.5013 94.2081 20.594 95.6585C20.7198 97.6375 20.7529 99.6199 20.6569 101.599C20.637 102.019 20.5841 102.445 20.4185 102.838C20.2166 103.307 19.8425 103.535 19.432 103.466C19.0479 103.4 18.8063 103.112 18.7334 102.613C18.7103 102.458 18.7103 102.296 18.7202 102.141C18.8328 99.6793 18.6176 97.2312 18.4686 94.7764C18.462 94.6739 18.4487 94.5682 18.356 94.4955C18.3329 94.4856 18.3031 94.4625 18.2832 94.4691C17.6277 94.7169 17.0351 94.6607 16.5551 94.1024C16.0618 93.5275 15.9889 92.8766 16.2174 92.1696C16.4425 91.4725 16.8265 90.8613 17.3827 90.4053C17.833 90.032 17.9091 89.6355 17.8263 89.0904C16.7868 82.2414 15.2441 75.5014 13.3967 68.8276C12.2777 64.7803 10.6026 60.9676 8.58641 57.297C8.19244 56.58 7.80179 55.8598 7.41114 55.1362C7.07677 54.5184 7.10987 53.97 7.57998 53.3852C8.33811 52.4502 8.82146 51.3698 9.01679 50.1639C9.24853 48.7531 8.92409 47.4811 8.09975 46.3446C7.10656 44.9735 5.67307 44.6464 4.18329 45.469C2.61406 46.3347 1.61756 47.5802 1.75992 49.4899C1.77316 49.6485 1.78641 49.8071 1.82282 49.959C2.09429 51.1385 2.77959 51.5779 3.97472 51.3533C4.50442 51.2542 4.99108 51.0658 5.40491 50.709C5.71279 50.4447 5.76576 50.1474 5.54395 49.7971C5.342 49.48 5.07053 49.2322 4.80238 48.9778C4.33227 48.5285 4.25943 48.2377 4.48787 47.8809C4.74609 47.4778 5.24269 47.2994 5.7459 47.5142C6.84502 47.98 7.56012 48.8192 7.76206 49.9855C7.94746 51.0658 7.37472 51.8753 6.52721 52.4766C5.44463 53.2431 4.21971 53.5306 2.9087 53.329C1.81289 53.1605 1.0051 52.5493 0.534994 51.5449C-0.150303 50.0747 -0.180099 48.5615 0.46216 47.088C1.30306 45.1618 2.79945 43.9063 4.80238 43.2951C6.2458 42.8524 7.59653 43.1629 8.76849 44.0847C10.5463 45.4823 11.268 47.3754 11.2018 49.5923C11.1554 51.1451 10.6125 52.5394 9.69877 53.7816C9.40082 54.188 9.40413 54.4854 9.63918 54.9116C11.2812 57.8719 12.867 60.8553 14.0456 64.0402C15.2143 67.1922 16.0353 70.4432 16.8596 73.6942C17.9885 78.1512 18.942 82.6445 19.677 87.1807C19.7531 87.6433 19.7266 88.1256 19.9915 88.608C20.5443 88.3338 21.084 88.0629 21.6236 87.7952C21.8322 87.6928 21.9315 87.5243 21.9944 87.3096C22.4844 85.6907 22.8816 84.0453 23.5173 82.4727C23.5537 82.3868 23.5206 82.2711 23.5206 82.1654C23.2491 82.1918 23.216 82.4033 23.1332 82.5553C22.534 83.6422 21.9447 84.7358 21.3488 85.8261C21.2296 86.0442 21.1601 86.4109 20.8158 86.2688C20.4881 86.1301 20.6602 85.7997 20.7264 85.5618C21.3124 83.411 22.0242 81.313 23.3286 79.4694C23.5934 79.0961 23.6497 78.7227 23.4974 78.1809C22.8452 78.9507 22.3221 79.6974 21.7991 80.4507C21.6501 80.6687 21.5011 80.8868 21.3389 81.0982C21.2561 81.2073 21.1336 81.2766 20.9913 81.2238C20.8092 81.1544 20.7827 80.9925 20.8224 80.8339C20.8688 80.6555 20.9383 80.4837 21.0178 80.3152C21.8057 78.6137 22.5373 76.8792 23.6828 75.3693C23.8053 75.2074 23.9642 75.0389 23.8318 74.801C23.5967 74.7911 23.5305 74.9926 23.4246 75.1248C22.9478 75.7261 22.4811 76.334 22.0143 76.9419C21.9017 77.0873 21.7991 77.2426 21.6799 77.3847C21.5607 77.53 21.4183 77.6853 21.2131 77.5664C20.9648 77.4243 21.0476 77.2129 21.1403 77.0113C21.1965 76.8924 21.2561 76.7734 21.3124 76.6545C22.1732 74.9266 23.0273 73.1953 24.2655 71.6887C24.4111 71.5103 24.5932 71.3286 24.4442 71.0114C23.8682 71.3551 23.4544 71.8639 22.9677 72.2901C22.8088 72.4288 22.6631 72.5841 22.5108 72.7295C22.3652 72.8649 22.193 72.9574 22.0143 72.8286C21.8222 72.6931 21.8818 72.5048 21.9778 72.333C22.0407 72.2174 22.1169 72.1083 22.1864 71.996C23.067 70.615 23.9212 69.2108 25.0799 68.0313C25.1494 67.9587 25.1958 67.8595 25.3149 67.6778C24.868 67.7637 24.6561 68.0412 24.4045 68.2395C23.9477 68.5996 23.514 68.9895 23.0637 69.3595C22.8982 69.495 22.7029 69.6469 22.5042 69.452C22.3023 69.2538 22.4579 69.0555 22.6002 68.897C23.8583 67.506 24.9971 65.9994 26.4439 64.7869C26.6458 64.6184 26.8411 64.4466 27.0166 64.2153C26.669 64.255 26.3776 64.4367 26.0797 64.5953C25.5665 64.8662 25.0567 65.1536 24.5469 65.4345C24.3582 65.5402 24.1463 65.6591 23.9775 65.4411C23.802 65.2098 24.0006 65.0479 24.1562 64.9092C25.4606 63.7495 26.7286 62.5469 28.2217 61.6152C28.6189 61.3674 29.0725 61.1658 29.334 60.7396C29.387 60.6537 29.4201 60.5513 29.4598 60.472C29.3605 60.3399 29.2579 60.3795 29.1652 60.4225C28.0859 60.9346 26.9338 61.2551 25.8314 61.7011C25.5864 61.8002 25.252 62.0513 25.0633 61.6746C24.9011 61.3509 25.2653 61.2385 25.4606 61.0899C26.9702 59.9566 28.5825 59.0018 30.3537 58.3311C30.4497 58.2948 30.5424 58.2518 30.7013 58.1824C30.4994 58.0073 30.314 58.0833 30.1617 58.1064C28.8838 58.3179 27.5761 58.3575 26.3214 58.7011C26.2717 58.7144 26.2187 58.7276 26.1658 58.7342C25.9605 58.754 25.7089 58.83 25.6361 58.5459C25.5798 58.3311 25.7685 58.2188 25.934 58.1296C27.1755 57.4655 28.4501 56.8939 29.867 56.7023C30.1517 56.6626 30.4497 56.6693 30.7046 56.4941C30.6185 56.286 30.4166 56.2728 30.2511 56.2166C29.1519 55.8301 28.0528 55.4501 26.9537 55.0669C26.904 55.0503 26.8511 55.0338 26.8047 55.0107C26.5796 54.905 26.1989 54.8785 26.3114 54.525C26.4141 54.1946 26.7617 54.3235 27.0067 54.3664C28.6222 54.6539 30.2577 54.829 31.8468 55.2519C32.009 55.2948 32.1878 55.4105 32.3665 55.2717C32.3798 55.0768 32.2176 54.9975 32.1149 54.8918C27.1722 49.7509 21.3521 45.8622 14.8964 42.8854C14.3932 42.6541 13.8668 42.4658 13.3537 42.2577C13.112 42.1586 12.781 42.0892 12.8604 41.7489C12.9432 41.3887 13.2709 41.4912 13.5225 41.544C16.4855 42.1817 19.3492 43.1035 22.0043 44.6001C25.5103 46.5759 28.6289 49.0571 31.5422 51.8092C31.7508 52.0075 31.9196 52.2552 32.2143 52.3643C32.3467 52.0901 32.1315 51.9083 32.0322 51.7134C28.0925 44.1111 23.5868 36.8723 18.1408 30.2414C15.0355 26.4617 11.9864 22.6325 8.55661 19.1271C8.35466 18.919 7.96401 18.6712 8.31494 18.354C8.63938 18.0633 8.88436 18.4465 9.1161 18.6348C16.0419 24.2977 21.7527 31.031 26.6293 38.4945C29.4532 42.816 31.9924 47.2994 34.3364 51.8951C34.4522 52.1198 34.5151 52.3841 34.7634 52.5658C34.9058 52.2685 34.823 52.0141 34.7932 51.763C34.5813 50.0582 34.3496 48.3567 33.9954 46.675C33.9391 46.4107 33.7371 46.0241 34.1212 45.9184C34.5615 45.7994 34.5714 46.2653 34.6575 46.5428C35.0812 47.904 35.4918 49.2718 35.9056 50.6363C35.9586 50.8114 35.9619 51.0031 36.2201 51.2046C36.2863 50.8775 36.3525 50.5967 36.4022 50.3126C37.7628 42.3733 39.981 34.662 42.7221 27.0994C43.0896 26.0818 43.1492 25.1038 43.0664 24.0763C42.8148 20.9674 43.0367 17.9047 43.9702 14.9113C44.3874 13.5733 44.8442 12.2517 45.4335 10.9764C46.6684 8.30685 48.5819 6.40711 51.4324 5.44898C53.7928 4.65275 56.1963 4.03161 58.6131 3.43691C60.2287 3.03714 61.8012 2.44574 63.4664 2.25412C64.7013 2.11205 65.9494 2.08232 67.1743 1.86426C67.277 1.84444 67.3862 1.84774 67.4888 1.82131C69.8427 1.15723 72.2826 1.00194 74.6762 0.575741C76.507 0.251959 78.3609 0.199097 80.2082 0.103284C80.526 0.0867645 80.8439 0.0834606 81.1617 0.0537255C84.6809 -0.256841 87.7995 0.790494 90.5771 2.89838C92.5071 4.36531 93.8943 6.24853 94.9669 8.4357C97.5625 13.712 99.2476 19.2824 100.598 24.975C101.575 29.095 102.187 33.2711 102.694 37.467C102.982 39.8524 103.353 42.2279 103.548 44.6233C103.657 45.9646 103.747 47.3093 103.796 48.654C103.922 52.0339 103.978 55.4138 104.137 58.7903C104.316 62.5931 104.429 66.3926 104.382 70.1987C104.343 73.42 104.257 76.6413 103.813 79.8428C103.78 80.0939 103.677 80.3615 103.866 80.6456L103.859 80.6588ZM50.5915 90.891C50.8927 91.5154 51.3463 92.0308 51.8263 92.5231C53.3062 94.0528 55.0774 95.1431 57.0637 95.8799C61.0166 97.3435 65.1317 98.0637 69.3295 98.2322C73.0341 98.3809 76.7387 98.1463 80.44 98.0076C82.423 97.9349 84.4061 97.8556 86.3792 97.6408C88.4583 97.4162 90.4248 96.8578 92.2158 95.7477C95.5331 93.6894 97.9498 90.8613 99.5157 87.2963C100.628 84.759 101.237 82.0894 101.588 79.3538C101.923 76.7569 102.038 74.1468 102.081 71.5302C102.128 68.4641 102.144 65.3981 102.019 62.3354C101.86 58.4831 101.777 54.6274 101.618 50.7751C101.552 49.1397 101.492 47.5009 101.38 45.8688C101.198 43.262 100.823 40.6718 100.506 38.0782C99.9825 33.8327 99.3998 29.6004 98.4166 25.4276C97.0659 19.7053 95.3576 14.1118 92.6396 8.86521C90.9478 5.60096 88.349 3.49638 84.7702 2.60764C83.787 2.36315 82.7872 2.2409 81.7775 2.35324C81.1418 2.42592 80.5128 2.45566 79.8772 2.44905C77.275 2.41271 74.6894 2.71666 72.1403 3.15939C67.7371 3.92589 63.3506 4.79151 58.9938 5.80911C56.7294 6.33773 54.455 6.82671 52.2335 7.54696C49.9956 8.27051 48.4561 9.72753 47.4861 11.8156C46.334 14.2968 45.4997 16.8772 45.1852 19.6062C45.1356 20.0258 45.0925 20.4586 45.172 20.9376C45.2945 20.8484 45.3508 20.8253 45.3706 20.789C45.4733 20.6039 45.5759 20.4189 45.6686 20.2306C46.7445 17.9641 48.2012 15.962 49.9293 14.1514C50.075 13.9995 50.224 13.8475 50.3829 13.7087C50.4888 13.6162 50.6246 13.5964 50.7504 13.6757C50.8729 13.755 50.9292 13.8805 50.896 14.016C50.8563 14.168 50.7868 14.31 50.7173 14.4521C49.4096 17.1084 48.092 19.7548 46.8008 22.4211C46.3406 23.3726 45.9599 24.3605 45.5295 25.3252C45.3408 25.7514 45.2978 26.1776 45.3475 26.6402C45.4435 27.5322 45.5196 28.4276 45.5825 29.3196C45.7679 31.9793 45.9401 34.6389 46.1188 37.2985C46.1321 37.4802 46.1221 37.6719 46.3042 37.7908C46.5161 37.7809 46.6121 37.6025 46.7379 37.4769C47.3338 36.8723 47.9496 36.2908 48.6283 35.7853C49.0289 35.488 49.2109 35.1279 49.2474 34.6587C49.3003 33.9715 49.4294 33.2975 49.6148 32.6334C50.0287 31.15 50.8861 30.0894 52.3362 29.4386C54.8555 28.3119 57.5272 27.7998 60.2221 27.3868C63.1784 26.9342 66.1547 26.6369 69.1011 26.1248C71.3424 25.7349 73.5903 25.3781 75.8548 25.1435C79.6454 24.7503 83.4195 24.2448 87.1572 23.4651C88.7893 23.1248 90.4314 22.8076 92.1066 22.8076C93.5036 22.8076 94.126 23.29 94.5432 24.6149C95.6489 28.1401 96.1786 31.7645 96.3541 35.4417C96.4368 37.1565 96.4435 38.8745 96.5163 40.5925C96.5494 41.4086 96.6487 42.2246 96.6057 43.0473C96.5395 44.3788 96.0429 45.4757 94.7584 46.0439C93.3282 46.675 91.855 47.1871 90.2857 47.3655C88.551 47.5637 86.8162 47.7553 85.0881 48.0064C83.2805 48.2674 81.4729 48.5053 79.652 48.6573C77.5961 48.8324 75.5403 49.0406 73.4943 49.295C68.6111 49.8996 63.7412 50.6099 58.8415 51.0857C57.259 51.2409 55.6766 51.1683 54.0908 50.97C51.8694 50.6925 50.5882 49.5361 50.0684 47.3424C49.3897 44.4746 48.9428 41.5903 48.9958 38.6399C48.9991 38.3756 49.0851 38.0815 48.8435 37.7842C48.092 38.7126 47.3835 39.598 46.6552 40.4703C46.4035 40.7709 46.4135 41.1013 46.4532 41.4449C46.92 45.3534 47.1418 49.2784 47.3239 53.2068C47.4729 56.4776 47.5689 59.7518 47.7179 63.0226C47.7477 63.6372 47.6748 64.3012 48.1383 64.8332C48.2111 64.9158 48.2211 65.0578 48.1549 65.1338C47.5954 65.7649 47.996 66.3662 48.2078 66.9675C48.3138 67.2648 48.4793 67.5424 48.5886 67.8397C48.6813 68.0908 48.6713 68.3419 48.3105 68.332C48.0026 68.3254 48.0589 68.5038 48.0655 68.6921C48.092 69.4058 48.4528 70.0005 48.7508 70.615C48.8402 70.8 49.0686 71.0379 48.9229 71.1899C48.5356 71.6028 48.8799 71.9035 48.9991 72.2471C49.1745 72.746 49.3566 73.2416 49.5188 73.7438C49.5917 73.9618 49.7241 74.2427 49.5023 74.4045C49.2076 74.6193 49.1083 74.1865 48.8004 74.0841C48.9527 74.4838 49.0355 74.8506 49.2209 75.1512C49.6877 75.9111 49.4162 76.7338 49.489 77.5267C49.499 77.6358 49.4559 77.7811 49.3632 77.7943C48.8037 77.8835 49.0553 78.2172 49.1348 78.5014C49.1778 78.6534 49.3103 78.8417 49.2109 78.954C48.8501 79.3571 49.1646 79.6908 49.2772 80.0443C49.3665 80.3218 49.4824 80.5861 49.5718 80.8637C49.6049 80.9661 49.5718 81.0751 49.4659 81.1346C49.3599 81.1974 49.2606 81.1577 49.1745 81.0949C48.9958 80.9661 48.9527 80.6919 48.6846 80.6027C48.6548 80.7282 48.6217 80.8042 48.625 80.8769C48.6912 82.4594 48.817 84.0387 49.009 85.6114C49.1282 86.5794 49.2871 87.5474 49.5784 88.4824C49.7307 88.9714 49.7738 88.9846 50.2439 88.7534C51.2768 88.2413 51.8065 87.3723 52.0084 86.2688C52.0779 85.879 52.121 85.4825 52.2335 85.1059C52.3362 84.7557 52.6043 84.531 52.985 84.4814C53.3625 84.4319 53.6571 84.5839 53.8657 84.8944C54.018 85.1224 54.0709 85.3801 54.061 85.651C53.9815 87.749 53.1936 89.4373 51.2701 90.4747C51.0417 90.5969 50.7603 90.6399 50.5981 90.8976L50.5915 90.891ZM51.1477 33.803C51.4787 33.803 51.6145 33.6576 51.7767 33.575C51.9919 33.466 52.2269 33.3239 52.4057 33.5982C52.5745 33.8625 52.356 34.0376 52.1839 34.1995C52.0084 34.3614 51.8429 34.5365 51.6509 34.6752C51.002 35.151 50.7636 35.7919 50.7239 36.5816C50.6312 38.4285 50.5087 40.272 50.6974 42.1189C50.8828 43.936 51.2503 45.7168 51.8098 47.458C52.1144 48.4095 52.7036 48.9348 53.7035 49.1265C55.2528 49.4238 56.8055 49.4998 58.3648 49.3643C61.9502 49.0505 65.5058 48.5119 69.0746 48.0692C72.2495 47.6727 75.4244 47.2598 78.6158 47.0054C79.9864 46.8963 81.3537 46.7576 82.721 46.6089C84.6941 46.3941 86.6474 46.0307 88.6271 45.882C90.3751 45.7499 92.0735 45.403 93.7089 44.7257C94.573 44.3689 94.9338 43.8105 94.9338 42.9118C94.9338 41.8546 94.8014 40.804 94.7782 39.75C94.712 36.6609 94.5796 33.5783 94.0962 30.5156C93.8579 28.9991 93.5599 27.5124 93.0236 26.062C92.6661 25.0906 91.994 24.7074 91.0439 24.6578C89.8785 24.595 88.7165 24.638 87.571 24.8891C85.3231 25.3814 83.0653 25.834 80.781 26.1181C78.5231 26.399 76.2554 26.6104 74.0074 26.9441C69.4818 27.6181 64.9628 28.3284 60.4306 28.9628C57.8649 29.3229 55.3422 29.9242 52.9751 31.0674C51.8065 31.6323 51.3893 32.5905 51.151 33.7997L51.1477 33.803ZM29.1652 64.7803C29.5856 64.8662 29.9796 64.8034 30.3702 64.7902C30.5722 64.7836 30.837 64.6911 30.9198 64.9554C31.0059 65.2396 30.7245 65.2924 30.5424 65.3651C30.0756 65.5567 29.5989 65.7153 29.089 65.7384C28.9301 65.745 28.7679 65.7384 28.6156 65.7748C28.3806 65.8309 28.268 66.0391 28.2581 66.2472C28.2448 66.5182 28.4997 66.4653 28.6686 66.4917C28.9036 66.5281 29.142 66.538 29.3771 66.571C29.4863 66.5875 29.5658 66.6668 29.5757 66.7825C29.5856 66.8948 29.536 66.9939 29.4267 67.0369C29.2811 67.093 29.1288 67.1492 28.9765 67.1822C28.6421 67.2549 28.3044 67.321 27.9634 67.3706C27.6787 67.4135 27.5264 67.5886 27.533 67.8496C27.5364 68.0974 27.7813 68.0743 27.9568 68.1073C28.0594 68.1272 28.1687 68.1305 28.2713 68.1536C28.4104 68.18 28.5196 68.2593 28.5395 68.4047C28.5593 68.5567 28.4534 68.6492 28.3276 68.7053C28.0131 68.8507 27.6853 68.9465 27.3344 68.9663C27.159 68.9763 27.0398 69.082 27.0265 69.267C27.0133 69.4784 27.1689 69.5214 27.3311 69.5478C27.5132 69.5776 27.7052 69.5809 27.874 69.6436C28.1223 69.7361 28.1422 69.9872 27.9138 70.126C27.6191 70.3077 27.2881 70.4068 26.9404 70.4498C26.8047 70.4663 26.6624 70.4993 26.6491 70.6579C26.6293 70.8826 26.8279 70.8859 26.9736 70.909C27.3642 70.9751 27.7582 71.0214 28.1521 71.0874C28.311 71.1139 28.4865 71.17 28.4898 71.3617C28.4898 71.5599 28.3144 71.5962 28.1554 71.6293C27.7118 71.7218 27.2682 71.7713 26.8146 71.7614C26.6028 71.7581 26.3743 71.7251 26.3147 72.0125C26.2518 72.3165 26.4571 72.3661 26.6855 72.3892C26.712 72.3892 26.7385 72.3958 26.765 72.3991C26.9371 72.4189 27.0795 72.4883 27.0861 72.6799C27.0894 72.8649 26.9405 72.9475 26.7915 73.0136C26.6226 73.0863 26.4472 73.1524 26.2783 73.2284C26.1128 73.301 26.04 73.4365 26.0631 73.6083C26.083 73.7636 26.2121 73.8099 26.3478 73.833C26.5829 73.8792 26.8146 73.9255 27.0497 73.975C27.1854 74.0015 27.3145 74.0609 27.3377 74.2063C27.3675 74.3979 27.2285 74.5037 27.0729 74.5466C26.7683 74.6292 26.4571 74.6986 26.1426 74.7515C25.9142 74.7911 25.8347 74.9299 25.8182 75.1347C25.7983 75.3858 25.9737 75.4387 26.1691 75.4717C26.4041 75.5114 26.6392 75.551 26.8709 75.5973C26.9901 75.6204 27.053 75.7162 27.0663 75.8186C27.0795 75.9309 27.0067 76.0135 26.9007 76.0598C26.6293 76.182 26.3346 76.1887 26.0466 76.2151C25.742 76.2415 25.6592 76.4331 25.6394 76.6975C25.6195 76.9684 25.7685 77.0774 25.9969 77.1336C26.2287 77.1864 26.4604 77.2393 26.6955 77.2888C26.9007 77.3351 27.149 77.3549 27.1424 77.6358C27.1358 77.867 26.9206 77.9034 26.7385 77.9397C26.4538 77.9959 26.1691 78.0587 25.8811 78.095C25.6659 78.1247 25.5268 78.2073 25.5467 78.4419C25.5632 78.6401 25.7056 78.6897 25.8811 78.6963C26.1989 78.7062 26.5167 78.7128 26.8345 78.7327C26.9934 78.7426 27.1623 78.769 27.1887 78.9738C27.2119 79.1688 27.0696 79.2547 26.9206 79.3207C26.5564 79.4859 26.179 79.6049 25.7817 79.6511C25.6063 79.671 25.4805 79.7469 25.4772 79.9419C25.4705 80.1434 25.6096 80.2161 25.7784 80.2425C26.1194 80.2954 26.4604 80.3284 26.8014 80.3846C26.9073 80.4011 26.9967 80.4771 27.0166 80.5894C27.0431 80.7414 26.957 80.8504 26.8213 80.8868C26.5399 80.9628 26.2552 81.0256 25.9704 81.0817C25.7354 81.128 25.4705 81.1214 25.4772 81.465C25.4838 81.8053 25.7718 81.7888 25.9903 81.8482C26.2717 81.9209 26.5597 81.9705 26.8378 82.0432C26.9438 82.0696 27.0199 82.1588 27.0199 82.2744C27.0199 82.3901 26.9504 82.466 26.8511 82.5189C26.563 82.6643 26.2386 82.6808 25.9307 82.7502C25.7122 82.7997 25.5202 82.8526 25.5301 83.1433C25.5367 83.4011 25.6725 83.5233 25.9042 83.5795C26.0069 83.6059 26.1095 83.6323 26.2088 83.6654C26.4703 83.7546 26.9107 83.6885 26.914 84.0387C26.9173 84.4649 26.4604 84.3724 26.1724 84.4286C25.9638 84.4715 25.7321 84.4649 25.7354 84.7689C25.7354 85.0563 25.9473 85.086 26.1691 85.1158C26.7186 85.1951 27.2649 85.2843 27.8145 85.3768C27.9568 85.3999 28.0694 85.4957 28.0793 85.6345C28.0892 85.7799 27.9667 85.8658 27.831 85.9054C27.3708 86.0409 26.8941 86.0706 26.4207 86.1235C26.2485 86.1433 26.0102 86.0805 26.0002 86.3481C25.9903 86.5992 26.0797 86.814 26.381 86.8602C26.5895 86.8933 26.7948 86.9527 27 87.0023C27.1623 87.0419 27.3112 87.1212 27.2914 87.3129C27.2781 87.4582 27.1457 87.521 27.0133 87.5541C26.9107 87.5805 26.8047 87.5904 26.6988 87.6069C26.3478 87.6631 26.3776 87.8811 26.4637 88.1355C26.5432 88.3701 26.7517 88.4296 26.9504 88.5023C27.2483 88.6113 27.5496 88.7104 27.8442 88.8294C27.9469 88.869 27.9998 88.9747 27.9866 89.0871C27.9734 89.2027 27.8906 89.2655 27.7847 89.3018C27.5628 89.3778 27.3046 89.2952 27.0994 89.4505C27.2516 90.1972 27.2649 90.2104 27.874 90.326C28.1852 90.3855 28.4997 90.445 28.8076 90.5176C28.9367 90.5507 29.0559 90.6366 29.046 90.7919C29.0394 90.9438 28.9169 91.0099 28.7878 91.0529C28.5461 91.1322 28.2448 91.0529 28.0727 91.3139C28.1786 91.7269 28.4832 91.8359 28.854 91.8491C29.2281 91.8656 29.5889 91.9416 29.9366 92.0837C30.0624 92.1366 30.1782 92.2092 30.1716 92.3645C30.165 92.5198 30.0458 92.5826 29.92 92.6354C29.7412 92.7147 29.4764 92.6487 29.4234 92.9295C29.5989 93.2698 29.9266 93.2698 30.2411 93.326C30.5788 93.3854 31.0257 93.316 30.9662 93.914C30.943 94.1321 31.2178 94.1618 31.3833 94.2147C32.1812 94.4625 32.9989 94.5021 33.8199 94.3601C37.0842 93.7885 39.6929 92.1828 41.5502 89.4208C42.9208 87.3822 43.8875 85.1554 44.5231 82.7964C45.9732 77.4309 45.9632 72.039 44.682 66.647C44.3013 65.0479 43.7815 63.4918 42.8976 62.0909C41.8183 60.3762 40.4146 58.9985 38.5243 58.1923C37.3722 57.7034 36.2102 57.6736 35.0912 58.3344C34.5681 58.6417 34.0318 58.9357 33.5186 59.2595C33.2207 59.4478 32.883 59.6064 32.6612 59.9566C32.8764 60.0623 33.1644 60.0557 33.1412 60.3399C33.1214 60.5579 32.9095 60.6075 32.7373 60.6703C32.393 60.7991 32.0454 60.9247 31.6812 61.0568C31.8302 61.2451 31.9693 61.2121 32.0951 61.2253C32.2772 61.2451 32.5023 61.2253 32.5453 61.45C32.5983 61.7308 32.3268 61.7705 32.148 61.863C31.7508 62.0711 31.3038 62.1372 30.8006 62.276C30.9529 62.3486 31.0158 62.3916 31.0886 62.4081C31.2674 62.4544 31.4925 62.4742 31.5025 62.7022C31.5157 62.9962 31.2442 62.9764 31.0489 63.0358C30.7477 63.1284 30.3967 63.0755 30.0259 63.3233C30.496 63.5711 30.8999 63.4753 31.2774 63.538C31.4164 63.5612 31.5455 63.6239 31.572 63.7594C31.6084 63.9477 31.4627 64.0501 31.3038 64.0898C30.7907 64.2219 30.2709 64.3244 29.7412 64.3508C29.5095 64.3607 29.2479 64.3211 29.1751 64.7572L29.1652 64.7803ZM39.7194 55.5591C40.5239 55.1726 41.3251 54.7827 42.1329 54.3995C42.2984 54.3202 42.4705 54.2475 42.6493 54.2012C42.7817 54.1682 42.9108 54.2178 42.9771 54.3598C43.03 54.4722 42.9903 54.5713 42.9208 54.6506C42.8314 54.7464 42.7288 54.829 42.6228 54.9083C41.9408 55.4501 41.2522 55.9853 40.5736 56.5338C40.4775 56.6131 40.2392 56.6395 40.3683 56.8906C40.4411 56.8708 40.5305 56.8708 40.5769 56.8278C41.1926 56.2563 41.9673 55.9721 42.7255 55.6583C42.9572 55.5624 43.2419 55.3576 43.4472 55.6417C43.6756 55.9556 43.3247 56.0911 43.1591 56.2728C43.0863 56.3488 42.9969 56.4115 42.9241 56.4875C42.689 56.732 42.3679 56.9104 42.1924 57.3631C43.0797 57.1219 43.8345 56.8807 44.6059 56.7221C45.215 56.5966 45.2217 56.5833 45.2018 55.9391C45.1621 54.6737 45.1025 53.4083 45.0661 52.1429C44.9932 49.7674 44.8376 47.3985 44.6622 45.0329C44.6324 44.6199 44.6589 44.1706 44.4172 43.7543C43.0201 45.436 39.2957 52.5889 39.1831 53.8213C39.9247 53.1737 40.6398 52.5493 41.3549 51.9282C41.5138 51.7894 41.6793 51.6572 41.8548 51.5383C41.9673 51.4623 42.1064 51.4425 42.2189 51.5515C42.3315 51.6572 42.3315 51.8026 42.252 51.9116C42.1163 52.1066 41.9607 52.285 41.8018 52.4601C40.9708 53.3819 40.2293 54.3697 39.7293 55.5558L39.7194 55.5591ZM114.334 92.1993C114.049 93.2764 113.768 94.3733 113.47 95.4636C113.331 95.9724 113.152 96.468 112.993 96.9735C112.924 97.2014 113.003 97.3303 113.255 97.327C113.361 97.327 113.467 97.327 113.573 97.3336C117.754 97.4426 121.935 97.4856 126.116 97.4922C126.302 97.4922 126.487 97.4922 126.673 97.4922C126.888 97.4922 127.017 97.4096 127.037 97.175C127.053 96.9668 127.01 96.8083 126.802 96.729C126.679 96.6827 126.553 96.6431 126.428 96.5968C122.584 95.1728 118.744 93.7489 114.9 92.3249C114.728 92.2621 114.562 92.1696 114.334 92.2059V92.1993ZM38.3985 50.1044C38.4515 50.1275 38.5077 50.154 38.5607 50.1771C38.6997 49.9029 38.8421 49.6286 38.9778 49.3511C40.3617 46.5527 41.8713 43.8303 43.6955 41.2929C44.1126 40.7114 44.2516 40.1531 44.1954 39.4626C44.0133 37.3084 43.8776 35.151 43.7153 32.9969C43.6723 32.4187 43.5995 31.8405 43.5432 31.2623L43.381 31.2557C41.3449 37.4373 39.6035 43.6982 38.4018 50.1011L38.3985 50.1044ZM47.0193 87.5871C46.4742 87.7479 46.2623 88.1322 46.3837 88.7401C46.4797 89.2324 46.5625 89.2688 47.3736 89.1597C47.2544 88.6344 47.1385 88.1124 47.0193 87.5871V87.5871ZM43.4405 58.2155C43.9471 58.2386 44.4139 58.2749 44.884 58.2981C45.0694 58.308 45.2779 58.3146 45.2912 58.0569C45.3044 57.8025 45.3541 57.5316 45.1687 57.3102C45.1058 57.2375 45.0197 57.2639 44.9535 57.297C44.4238 57.5514 43.8875 57.7959 43.4439 58.2155H43.4405ZM23.7788 85.3107C23.3352 85.9021 23.0869 86.4439 22.8949 87.0849C23.2557 87.0849 23.4974 86.9197 23.7523 86.8206C23.9874 86.7281 24.0404 86.5398 23.9907 86.3085C23.9278 86.0144 23.8649 85.7204 23.7788 85.3107ZM125.994 94.2643C126.04 93.7951 125.872 93.5286 125.487 93.4647C125.252 93.4284 125.021 93.392 124.786 93.3689C124.65 93.3557 124.514 93.3788 124.478 93.5374C124.441 93.6927 124.534 93.7819 124.666 93.8315C125.103 93.99 125.527 94.1916 125.997 94.2643H125.994ZM116.327 90.3458C116.148 90.3293 115.993 90.3855 115.956 90.5639C115.916 90.7753 116.112 90.7985 116.254 90.8513C116.45 90.924 116.648 90.9934 116.847 91.0628C117.009 91.119 117.168 91.1421 117.204 90.9174C117.234 90.7357 117.251 90.5243 117.022 90.4582C116.797 90.3921 116.559 90.3789 116.324 90.3458H116.327ZM120.138 92.0705C120.541 92.4471 120.882 92.4901 121.19 92.5991C121.326 92.6487 121.501 92.7544 121.571 92.5231C121.65 92.2555 121.502 92.1432 121.247 92.1299C120.939 92.1134 120.631 92.0969 120.138 92.0705V92.0705ZM44.2384 59.6394C44.5165 59.6692 44.7913 59.7055 45.0694 59.7254C45.2183 59.7353 45.3144 59.656 45.3144 59.4974C45.3144 59.3124 45.2283 59.1967 45.0296 59.2331C44.7516 59.2859 44.4735 59.3421 44.2384 59.6394V59.6394ZM45.3011 61.0106C45.2812 60.9313 45.2382 60.8784 45.1521 60.8817C45.0727 60.8817 44.9998 60.9114 45.0065 61.0007C45.0131 61.0833 45.0859 61.113 45.1621 61.1229C45.2448 61.1361 45.3011 61.1031 45.3011 61.0106V61.0106Z" fill="#EFF0EB"/>
<path d="M148.586 80.3582C148.957 81.0289 149.301 81.7128 149.536 82.4429C149.576 82.5685 149.629 82.6907 149.659 82.8196C149.712 83.0442 149.824 83.3118 149.549 83.4539C149.265 83.6026 149.119 83.3647 148.983 83.1665C148.762 82.8427 148.543 82.5189 148.268 82.2216C148.229 82.5255 148.397 82.7568 148.51 82.998C148.861 83.7513 149.043 84.5442 149.096 85.3702C149.112 85.6213 149.215 85.9252 148.92 86.0871C148.639 86.2424 148.546 85.8691 148.301 85.8096C148.113 86.2391 148.387 86.5761 148.483 86.9362C148.573 87.2798 148.831 87.6399 148.272 87.8481C148.083 87.9175 148.172 88.1157 148.209 88.2677C148.331 88.8095 148.454 89.3514 148.308 89.9097C148.209 90.2897 148.182 90.7027 147.758 90.9042C147.59 90.9835 147.596 91.1652 147.563 91.3139C147.464 91.7797 147.391 92.2522 147.119 92.6586C147.02 92.8039 147.086 92.9625 147.096 93.1211C147.159 94.4625 146.537 95.4437 145.272 95.8567C144.809 96.0087 144.468 96.2003 144.315 96.6794C144.249 96.8942 144.084 97.056 143.832 96.9767C143.614 96.9074 143.604 96.7124 143.627 96.5175C143.647 96.3325 143.69 96.1343 143.435 96.0715C143.163 96.0021 143.054 96.1739 142.981 96.3953C142.779 97.0065 142.442 97.5417 142.067 98.0538C141.988 98.1595 141.912 98.2686 141.829 98.371C141.687 98.5494 141.518 98.6783 141.286 98.5494C141.084 98.4338 141.127 98.2289 141.177 98.0505C141.293 97.6177 141.425 97.1882 141.551 96.7587C141.594 96.61 141.67 96.4647 141.624 96.2995C140.922 96.4547 140.796 96.5506 140.651 97.1783C140.492 97.8523 140.27 98.4965 139.925 99.0979C139.846 99.2366 139.767 99.3721 139.674 99.5009C139.571 99.643 139.432 99.7058 139.26 99.6331C139.118 99.5736 139.075 99.4415 139.088 99.306C139.134 98.86 139.197 98.4139 139.253 97.9712C139.273 97.8159 139.296 97.6607 139.316 97.5054C138.535 97.4657 137.936 97.9977 138.058 98.784C138.254 100.049 137.572 100.71 136.592 101.222C135.787 101.642 134.913 101.857 134.026 102.028C133.01 102.227 131.973 102.223 130.947 102.319C130.52 102.359 130.096 102.299 129.689 102.194C129.236 102.075 128.944 101.698 128.931 101.285C128.918 100.865 129.176 100.499 129.623 100.324C130.08 100.145 130.56 100.168 131.036 100.165C132.126 100.165 133.205 100.073 134.271 99.8611C134.764 99.7652 135.241 99.61 135.704 99.4018C136.009 99.2663 136.122 99.0946 135.896 98.8005C135.724 98.5725 135.595 98.3049 135.344 98.1628C135.009 98.2917 134.913 98.8534 134.513 98.6948C134.066 98.5197 134.364 98.0373 134.281 97.7036C134.254 97.6012 134.281 97.4889 134.251 97.3897C134.208 97.2576 134.092 97.1717 133.95 97.1717C133.831 97.1717 133.778 97.2774 133.748 97.3831C133.705 97.5351 133.675 97.6904 133.629 97.8424C133.579 98.0109 133.46 98.1166 133.281 98.1133C133.142 98.1133 133.033 98.0274 132.973 97.8985C132.94 97.8259 132.897 97.7499 132.894 97.6772C132.857 96.5605 131.96 96.5505 131.146 96.2862C131.169 96.7389 131.397 97.0395 131.51 97.3765C131.626 97.7267 131.798 98.0637 131.871 98.4205C131.963 98.8666 131.695 99.2862 131.301 99.4481C130.927 99.6 130.444 99.5307 130.239 99.154C129.583 97.9481 128.895 96.719 128.749 95.3479C128.663 94.5385 129.014 93.696 129.338 92.913C129.428 92.7015 129.62 92.5 129.269 92.2456C129.037 92.6222 128.805 92.9923 128.577 93.3623C128.477 93.5242 128.371 93.6894 128.15 93.6464C127.868 93.5903 127.885 93.3524 127.888 93.1442C127.895 92.9328 127.928 92.7246 127.944 92.5132C127.954 92.381 127.964 92.2357 127.782 92.2125C127.236 92.1531 127.329 91.8161 127.441 91.4593C127.464 91.3866 127.458 91.3073 127.471 91.1949C127.276 91.0793 127.007 91.3436 126.839 91.0859C126.703 90.8811 126.753 90.6861 126.782 90.478C126.815 90.2533 126.885 90.0254 126.769 89.7247C126.21 90.0782 125.796 90.5077 125.425 90.9901C125.266 91.1982 125.124 91.4262 124.895 91.5749C124.577 91.7863 124.25 91.8161 123.935 91.5848C123.631 91.3601 123.525 91.0496 123.624 90.6762C123.707 90.3591 123.899 90.108 124.097 89.8569C124.783 88.9979 125.65 88.3503 126.574 87.7688C127.226 87.3558 127.186 87.3591 127.024 86.586C126.882 85.9021 126.974 85.2215 127.272 84.5772C127.55 83.9726 127.928 83.4341 128.309 82.889C128.467 82.6643 128.703 82.4627 128.663 82.1324C128.368 82.0729 128.348 82.3174 128.259 82.4462C127.829 83.0806 127.411 83.7215 126.994 84.3658C126.872 84.5541 126.723 84.7193 126.478 84.6202C126.239 84.5244 126.22 84.2997 126.259 84.0817C126.332 83.6687 126.421 83.2557 126.511 82.8097C126.325 82.6511 126.044 82.9319 125.875 82.6775C125.723 82.4528 125.759 82.2249 125.796 81.9936C125.839 81.7062 125.882 81.4187 125.961 81.1379C126.061 80.7877 126.339 80.4309 125.72 80.2491C125.538 80.1963 125.63 79.9254 125.69 79.7469C125.951 78.9639 126.299 78.2272 126.832 77.5895C127.199 77.1501 127.554 76.7041 127.915 76.2613C127.875 76.225 127.835 76.1853 127.795 76.149C127.388 76.5389 126.991 76.9353 126.574 77.312C126.339 77.5267 126.12 78.0256 125.763 77.7415C125.349 77.4111 125.842 77.0906 126.014 76.8131C126.544 75.9607 127.163 75.1711 127.799 74.3847C127.451 74.5136 127.223 74.7878 126.955 75.0191C126.815 75.1413 126.653 75.2801 126.465 75.1446C126.246 74.9893 126.306 74.7713 126.418 74.5764C126.577 74.3054 126.756 74.0444 126.928 73.7801C126.885 73.7438 126.849 73.6843 126.825 73.6909C126.633 73.7372 126.431 73.9288 126.253 73.6975C126.071 73.4629 126.216 73.2449 126.352 73.0466C126.782 72.4123 127.233 71.7879 127.785 71.2526C127.938 71.1073 128.113 70.9883 128.232 70.7967C127.776 70.7835 127.484 71.0907 127.143 71.2824C126.938 71.398 126.746 71.5467 126.541 71.6689C126.398 71.7548 126.239 71.7879 126.104 71.6524C125.945 71.4905 125.984 71.3088 126.104 71.1502C126.216 71.0048 126.349 70.8727 126.478 70.7405C127.256 69.9509 128.05 69.1811 129.05 68.5666C128.855 68.3584 128.669 68.4146 128.511 68.4476C127.888 68.5732 127.269 68.7119 126.647 68.8441C126.465 68.8837 126.282 68.9201 126.1 68.9333C125.935 68.9432 125.779 68.8903 125.74 68.6987C125.71 68.5633 125.749 68.4278 125.869 68.3485C126.021 68.2461 126.186 68.1569 126.349 68.0743C127.58 67.4598 128.822 66.8684 130.192 66.6041C130.311 66.5809 130.454 66.5842 130.543 66.419C130.043 66.0953 129.461 66.0325 128.901 65.9036C128.669 65.8508 128.431 65.821 128.199 65.7715C128.004 65.7318 127.842 65.6327 127.852 65.408C127.862 65.1834 128.044 65.1008 128.232 65.071C129.153 64.9257 130.076 64.9092 131 65.0512C131.258 65.0909 131.513 65.1603 131.824 65.2263C131.781 64.8728 131.543 64.701 131.361 64.5028C130.06 63.0854 128.557 61.9191 126.852 61.037C124.481 59.8079 122.111 58.569 119.555 57.743C119.267 57.6505 118.863 57.5679 118.976 57.1384C119.072 56.7651 119.436 56.8543 119.718 56.8906C123.382 57.3664 126.882 58.3113 129.921 60.5381C130.398 60.8883 130.871 61.2484 131.447 61.6813C131.381 61.2484 131.189 61.0238 131.043 60.7892C128.209 56.1803 124.68 52.1462 120.654 48.5516C116.49 44.8347 112.259 41.1905 108.054 37.5166C107.875 37.3613 107.687 37.2126 107.515 37.0507C107.326 36.8789 107.197 36.6576 107.359 36.423C107.548 36.1488 107.816 36.2214 108.064 36.3536C108.157 36.4032 108.243 36.4659 108.332 36.5254C110.378 37.8965 112.444 39.2346 114.46 40.6421C120.029 44.5208 125.031 49.0207 129.288 54.3169C131.447 57.0029 133.324 59.8773 134.794 62.9995C135.052 62.9533 134.976 62.7616 134.979 62.6295C135.271 53.7552 137.399 45.2972 140.809 37.1333C141.349 35.8415 142.008 34.6025 142.653 33.3603C143.898 30.9517 145.666 28.9628 147.606 27.1093C147.682 27.0366 147.758 26.9639 147.844 26.9012C148.003 26.7822 148.179 26.7261 148.348 26.878C148.513 27.0234 148.493 27.2084 148.421 27.3868C148.381 27.4827 148.315 27.5686 148.262 27.6611C144.845 33.2876 142.074 39.2016 140.247 45.5417C139.015 49.8137 138.055 54.1385 137.499 58.5492C137.462 58.8333 137.399 59.124 137.482 59.4214C137.737 59.4313 137.747 59.2066 137.813 59.0613C139.386 55.5525 141.985 52.9226 145.04 50.6892C145.146 50.6132 145.262 50.5438 145.378 50.4844C145.547 50.3985 145.696 50.4612 145.802 50.5901C145.891 50.6958 145.911 50.8412 145.835 50.9601C145.736 51.1154 145.623 51.2608 145.497 51.3962C143.623 53.3951 142.144 55.6847 140.694 57.9908C139.661 59.6328 139.002 61.45 138.416 63.2936C138.386 63.3894 138.383 63.4918 138.35 63.7165C138.853 63.4389 139.273 63.1977 139.704 62.9797C139.962 62.8475 140.23 62.7319 140.505 62.6427C140.67 62.5865 140.816 62.679 140.899 62.8343C140.968 62.9632 140.942 63.0986 140.852 63.201C140.73 63.3398 140.588 63.4588 140.459 63.5909C139.849 64.212 139.244 64.8365 138.598 65.5006C138.922 65.6393 139.042 65.4147 139.184 65.3056C139.816 64.8167 140.478 64.3871 141.256 64.1658C141.382 64.1294 141.508 64.07 141.637 64.0568C141.909 64.0303 142.269 63.8354 142.412 64.1922C142.564 64.5689 142.15 64.6448 141.925 64.7968C141.362 65.1768 140.819 65.5765 140.31 66.0986C140.664 66.3397 140.932 66.1382 141.174 66.0556C142.213 65.6922 143.282 65.5567 144.378 65.5832C144.537 65.5865 144.696 65.5931 144.852 65.6129C144.997 65.6294 145.09 65.7186 145.107 65.8673C145.123 66.0127 145.06 66.1349 144.928 66.1845C144.729 66.2605 144.524 66.3133 144.319 66.3662C143.614 66.5479 142.928 66.7825 142.269 67.1029C142.395 67.354 142.561 67.2681 142.706 67.245C143.425 67.1393 144.133 67.2186 144.832 67.3838C145.021 67.43 145.203 67.5126 145.213 67.7274C145.222 67.9917 145.017 68.0809 144.792 68.1073C144.428 68.147 144.07 68.1932 143.637 68.3981C144.057 68.5401 144.392 68.4741 144.716 68.4873C145.395 68.5137 146.027 68.6756 146.553 69.1282C146.831 69.3661 147.176 69.5842 146.901 70.0467C146.788 70.235 146.987 70.3209 147.09 70.4234C147.311 70.648 147.547 70.8661 147.768 71.0907C147.924 71.246 148.06 71.4343 147.94 71.6524C147.811 71.8969 147.586 71.8143 147.381 71.7416C147.308 71.7152 147.245 71.6524 147.123 71.7383C147.417 72.0984 147.719 72.4519 148.007 72.8154C148.116 72.9574 148.311 73.1788 148.159 73.3011C147.689 73.6777 148.07 73.9024 148.258 74.17C148.52 74.54 148.705 74.9497 148.848 75.3759C148.897 75.5279 148.983 75.7393 148.881 75.8318C148.427 76.2415 148.791 76.5752 148.937 76.9353C149.016 77.1303 149.116 77.3186 149.185 77.5201C149.384 78.1115 149.304 78.2205 148.636 78.2734C148.841 78.7327 149.05 79.182 149.242 79.6379C149.314 79.8064 149.361 79.9881 149.414 80.1632C149.463 80.3251 149.453 80.4969 149.318 80.5994C149.182 80.7051 149.023 80.6654 148.884 80.5564C148.788 80.4804 148.715 80.3449 148.556 80.3912C148.613 80.0707 148.464 79.8989 148.139 79.8031C148.245 80.0608 148.381 80.2425 148.576 80.3747L148.586 80.3582ZM143.988 89.4042C143.537 89.3315 143.12 89.4108 142.706 89.4538C142.468 89.4769 142.193 89.5331 142.107 89.2291C142.018 88.9186 142.276 88.826 142.504 88.7401C143.024 88.5419 143.544 88.3437 144.064 88.1487C144.209 88.0926 144.375 88.0761 144.484 87.9439C144.57 87.8382 144.643 87.706 144.59 87.5805C144.527 87.4285 144.372 87.4781 144.246 87.5012C143.802 87.5838 143.365 87.6796 142.922 87.7457C142.713 87.7754 142.475 87.782 142.418 87.4979C142.372 87.2732 142.534 87.1576 142.706 87.0783C143.259 86.8239 143.815 86.5761 144.368 86.3283C144.537 86.2523 144.719 86.1995 144.878 86.1102C144.994 86.0442 145.077 85.9219 145.017 85.7732C144.971 85.6543 144.858 85.6609 144.749 85.6741C144.514 85.7072 144.276 85.7369 144.041 85.7699C143.762 85.8063 143.388 85.9814 143.269 85.6246C143.124 85.1951 143.58 85.1554 143.842 85.02C144.243 84.8151 144.656 84.64 145.06 84.4385C145.186 84.3757 145.256 84.2468 145.193 84.1081C145.143 83.9991 145.03 84.0057 144.921 84.0255C144.557 84.0949 144.196 84.1874 143.829 84.2171C143.511 84.2435 143.057 84.4484 142.938 83.9958C142.829 83.5795 143.312 83.5596 143.577 83.4374C143.984 83.2458 144.401 83.0806 144.825 82.9286C145.087 82.8361 145.266 82.7072 145.153 82.4132C145.047 82.1291 144.842 82.3405 144.683 82.3636C144.421 82.4 144.163 82.4826 143.902 82.4991C143.623 82.5156 143.246 82.6379 143.127 82.2942C142.991 81.9143 143.395 81.8416 143.637 81.7161C144.06 81.498 144.494 81.3064 144.918 81.0883C145.017 81.0388 145.04 80.9165 144.981 80.8141C144.934 80.7315 144.845 80.7414 144.769 80.7645C144.593 80.8207 144.421 80.8901 144.243 80.9397C143.859 81.0487 143.465 81.1082 143.064 81.0751C142.895 81.0619 142.756 80.9859 142.703 80.8141C142.65 80.6324 142.753 80.5068 142.895 80.4209C143.054 80.3251 143.223 80.2458 143.388 80.1665C143.796 79.9749 144.203 79.7866 144.61 79.5983C144.898 79.4661 144.865 79.2315 144.799 78.9904C144.726 78.726 144.531 78.802 144.348 78.8384C144.166 78.8747 143.984 78.9078 143.799 78.9309C143.405 78.9771 143.011 79.0234 142.614 79.0564C142.379 79.0763 142.081 79.139 141.998 78.8483C141.899 78.4981 142.24 78.4353 142.465 78.3131C142.534 78.2767 142.61 78.2503 142.683 78.2205C143.13 78.0554 143.574 77.8902 144.021 77.725C144.249 77.6391 144.6 77.6655 144.491 77.2525C144.388 76.8693 144.123 77.0741 143.911 77.1137C143.494 77.193 143.074 77.2525 142.65 77.2162C142.461 77.1996 142.263 77.1699 142.213 76.9452C142.167 76.7305 142.306 76.6049 142.478 76.5091C142.918 76.2712 143.349 76.0069 143.832 75.8483C144.017 75.7856 144.16 75.6732 144.067 75.4321C143.971 75.1843 143.799 75.2239 143.614 75.2933C143.213 75.442 142.799 75.5213 142.372 75.5213C142.114 75.5213 141.789 75.5906 141.687 75.2735C141.577 74.9266 141.905 74.8407 142.137 74.7349C142.498 74.573 142.869 74.431 143.233 74.2724C143.438 74.1832 143.706 74.1568 143.59 73.7933C143.484 73.4563 143.312 73.3836 143.004 73.5026C142.524 73.6843 142.014 73.6711 141.515 73.6876C141.326 73.6942 141.114 73.6876 141.058 73.4629C141.005 73.2482 141.167 73.1226 141.346 73.0466C141.783 72.855 142.22 72.6667 142.66 72.485C142.932 72.3727 142.928 72.2075 142.806 71.9828C142.706 71.8011 142.581 71.6954 142.365 71.7251C142.104 71.7614 141.839 71.7879 141.577 71.8275C141.352 71.8606 141.137 71.8473 141.048 71.6028C140.968 71.3815 141.15 71.2659 141.303 71.1634C141.478 71.0445 141.664 70.9421 141.842 70.8264C141.942 70.7637 141.981 70.6745 141.938 70.5588C141.895 70.4432 141.796 70.3903 141.69 70.4002C141.508 70.4201 141.326 70.4696 141.144 70.5093C140.919 70.5588 140.667 70.7042 140.502 70.43C140.333 70.1491 140.578 70.0071 140.747 69.8452C140.849 69.7461 141.044 69.6998 140.975 69.4818C140.76 69.4223 140.568 69.5577 140.359 69.5643C139.952 69.5743 139.859 69.4289 140.015 69.0324C140.17 68.6393 140.041 68.3981 139.634 68.3617C139.482 68.3485 139.32 68.3948 139.164 68.4212C138.853 68.4741 138.575 68.4873 138.535 68.0578C138.512 67.8199 138.3 67.8034 138.121 67.7604C137.449 67.5952 136.761 67.5457 136.072 67.5391C134.864 67.5258 133.801 67.9851 133.049 68.8771C132.023 70.093 131.229 71.4674 130.947 73.083C130.676 74.6259 130.556 76.1787 130.606 77.7382C130.712 81.1974 130.616 84.6598 130.775 88.1157C130.815 89.0177 130.921 89.9097 131.152 90.7787C131.805 93.2037 133.39 94.7499 135.784 95.4404C136.979 95.7874 138.108 95.4702 139.197 94.8722C138.969 94.5649 138.674 94.4823 138.429 94.3369C137.168 93.5936 136.006 92.718 134.993 91.6674C134.536 91.1949 134.529 90.6366 134.88 90.2368C135.238 89.8271 135.761 89.771 136.314 90.1377C136.688 90.3855 137.029 90.6828 137.37 90.9769C138.134 91.6344 138.939 92.2357 139.826 92.7147C139.978 92.7973 140.151 92.9856 140.326 92.837C140.988 92.2687 141.852 92.1366 142.597 91.75C142.713 91.6905 142.836 91.6377 142.816 91.4758C142.687 91.4064 142.557 91.4394 142.428 91.4725C142.094 91.5584 141.756 91.6278 141.409 91.6046C141.309 91.598 141.197 91.5716 141.157 91.4493C141.114 91.3139 141.124 91.1784 141.246 91.0958C141.376 91.0066 141.521 90.9405 141.664 90.8745C142.259 90.5903 142.862 90.3128 143.458 90.0254C143.69 89.913 143.961 89.8304 143.978 89.3943L143.988 89.4042ZM146.782 76.3638C147.053 77.1237 147.878 77.3219 148.364 77.8769C148.046 77.1666 147.427 76.7602 146.782 76.3638ZM145.799 72.4619C145.981 72.7922 146.282 72.8484 146.679 72.8451C146.408 72.5709 146.14 72.4519 145.799 72.4619Z" fill="#EFF0EB"/>
<path d="M75.4076 4.64944C76.1756 4.67257 76.7815 4.6957 77.3741 4.8642C77.917 5.01948 78.4169 5.24745 78.8307 5.64061C79.7743 6.53597 79.6021 7.61303 78.407 8.178C77.2317 8.73305 76.0068 9.12952 74.7388 9.43678C71.2627 10.2727 67.6938 10.5898 64.2011 11.3266C63.1417 11.5513 62.0658 11.7132 60.9998 11.8982C60.5562 11.9742 60.1026 12.0039 59.6557 11.9643C58.8214 11.8883 58.3778 11.4389 58.4142 10.6229C58.4672 9.37401 58.9803 8.37954 60.1688 7.8344C61.0825 7.4148 62.0228 7.0778 63.0126 6.85644C64.4064 6.54588 65.7671 6.08003 67.1675 5.82563C69.2465 5.44568 71.3521 5.18798 73.4444 4.88732C74.1495 4.7849 74.8481 4.60319 75.4142 4.65605L75.4076 4.64944Z" fill="#EFF0EB"/>
<path d="M74.9872 96.3325C73.61 96.273 72.3255 96.012 71.1833 95.2587C69.1043 93.8876 68.5911 91.4791 69.9319 89.3778C70.1901 88.9747 70.4782 88.5915 70.8457 88.2875C73.0902 86.4274 75.6162 85.6378 78.5097 86.3779C79.5261 86.6389 80.4266 87.1345 81.1516 87.9076C82.3169 89.1531 82.595 90.8282 81.8965 92.3876C81.4628 93.3524 80.7841 94.1156 79.93 94.7268C78.4435 95.794 76.7584 96.2631 74.9839 96.3292L74.9872 96.3325ZM74.8515 94.816C76.434 94.8325 77.8244 94.403 79.046 93.468C79.5989 93.0451 80.0525 92.533 80.3372 91.8888C80.8735 90.6762 80.5755 89.5232 79.5161 88.7203C78.9798 88.3139 78.3674 88.0794 77.7119 87.934C76.8445 87.7424 75.9903 87.8283 75.113 87.9307C73.4544 88.1256 72.1567 88.8954 71.2264 90.2335C70.2365 91.6542 70.6106 93.207 72.0904 94.1123C72.9512 94.6376 73.898 94.8391 74.8482 94.8193L74.8515 94.816Z" fill="#EFF0EB"/>
<path d="M64.1058 72.485C64.1058 73.6182 64.1223 74.7548 64.1025 75.888C64.0826 77.0312 63.8111 77.3219 62.6988 77.5201C61.209 77.7844 59.6927 77.7382 58.1963 77.9133C56.988 78.0554 55.7763 78.1644 54.5679 78.2866C54.4355 78.2998 54.3031 78.3098 54.1739 78.3197C53.0682 78.4089 52.704 78.1908 52.7702 76.9552C52.8729 75.0026 52.6047 73.0566 52.3995 71.1139C52.3399 70.5357 52.2339 69.9641 52.1776 69.3892C52.1147 68.7681 52.3564 68.3981 52.9656 68.3254C55.2234 68.0545 57.4217 67.4168 59.6994 67.2748C60.4641 67.2252 61.2289 67.1888 61.9969 67.2021C62.232 67.2054 62.4637 67.2153 62.7021 67.1525C63.298 66.9939 63.6026 67.169 63.7515 67.7538C63.9237 68.4212 63.9469 69.1117 63.9568 69.7989C63.9701 70.6943 63.9568 71.5929 63.9568 72.4883C64.0065 72.4883 64.0561 72.4883 64.1058 72.4883V72.485ZM62.659 72.485C62.6359 72.485 62.6127 72.485 62.5895 72.485C62.5895 71.6392 62.5995 70.7934 62.5862 69.9509C62.5796 69.5544 62.5299 69.1613 62.5101 68.7648C62.4968 68.5005 62.371 68.3849 62.1062 68.408C61.9737 68.4179 61.8413 68.4212 61.7089 68.4245C59.1829 68.4873 56.7264 69.0258 54.2534 69.4784C53.6078 69.5974 53.6144 69.7295 53.6608 70.3143C53.8197 72.3396 54.0548 74.3616 54.0415 76.4001C54.0382 77.0113 54.0647 77.0212 54.6772 76.9585C56.2563 76.7999 57.8355 76.6479 59.4146 76.4794C60.3085 76.3836 61.209 76.3836 62.1029 76.2481C62.5399 76.182 62.6756 75.997 62.669 75.5774C62.6491 74.5466 62.6624 73.5191 62.6624 72.4883L62.659 72.485Z" fill="#EFF0EB"/>
<path d="M52.3188 61.0932C52.3983 59.7452 52.4546 58.4798 52.6002 57.221C52.6664 56.6362 52.9412 56.3256 53.4809 56.1505C54.8349 55.7111 56.1724 55.2288 57.5662 54.9017C58.5858 54.6638 59.5625 54.2244 60.6219 54.1087C60.7543 54.0955 60.8834 54.0592 61.0125 54.046C62.2209 53.927 62.4592 54.1385 62.6844 55.3411C63.1578 57.8388 62.9558 60.3366 62.7473 62.8343C62.6744 63.7264 62.2275 64.1228 61.3469 64.1261C59.1652 64.1394 57.0365 64.5193 54.921 65.005C54.4807 65.1041 54.0337 65.1702 53.5868 65.1603C52.7062 65.1437 52.2592 64.7341 52.2328 63.8519C52.2129 63.1416 52.289 62.4279 52.3155 61.7176C52.3255 61.4797 52.3155 61.2418 52.3155 61.0899L52.3188 61.0932ZM61.4859 59.5932C61.519 58.4831 61.5091 57.3763 61.3866 56.2695C61.2972 55.4666 61.3105 55.4534 60.4696 55.5691C58.4203 55.8532 56.4174 56.3058 54.4608 56.993C53.9212 57.1814 53.749 57.4655 53.6861 58.0106C53.504 59.6163 53.557 61.2286 53.4511 62.8376C53.3716 64.0237 53.4113 64.0667 54.6065 63.7858C56.6425 63.3101 58.6851 62.8607 60.7808 62.7748C61.2608 62.755 61.3502 62.5105 61.3667 62.1273C61.3998 61.2815 61.4462 60.439 61.4859 59.5965V59.5932Z" fill="#EFF0EB"/>
<path d="M81.6746 60.5579C79.0691 60.5348 76.5001 60.8189 73.9542 61.3509C72.5936 61.635 71.223 61.6317 69.8524 61.3773C69.5942 61.3277 69.3293 61.3112 69.0645 61.2749C68.5513 61.2088 68.1176 61.3178 67.8495 61.8068C67.8131 61.8762 67.7535 61.9324 67.6972 61.9885C67.4754 62.2132 67.2138 62.3321 66.9093 62.1801C66.6047 62.0282 66.555 61.744 66.5782 61.4368C66.6477 60.5117 67.4125 59.7022 68.3692 59.5965C68.7599 59.5536 69.177 59.5337 69.5544 59.6163C71.4945 60.0425 73.3948 59.7551 75.295 59.3685C78.0693 58.8036 80.8668 58.8267 83.6742 59.0282C84.972 59.1207 86.2366 59.4115 87.5278 59.5436C87.6337 59.5536 87.7396 59.5668 87.8423 59.5899C88.0111 59.6262 88.1369 59.7254 88.1568 59.9005C88.1833 60.1251 88.0177 60.2309 87.839 60.2936C87.743 60.33 87.6304 60.3234 87.5278 60.3432C85.7731 60.6835 84.0086 60.733 82.2308 60.5844C82.0454 60.5678 81.86 60.5678 81.6746 60.5579V60.5579Z" fill="#EFF0EB"/>
<path d="M58.3705 20.1976C58.3871 20.7791 58.2414 21.3936 57.96 21.9685C57.0429 23.8352 55.5499 24.9849 53.4873 25.2294C50.6501 25.5664 48.7499 23.2173 49.5245 20.5511C50.1403 18.4267 52.3816 16.6624 54.5997 16.636C57.182 16.6029 58.3937 18.4069 58.3705 20.2009V20.1976ZM54.6759 18.1458C52.9047 18.1392 51.1898 19.5599 50.8289 21.3308C50.5144 22.8671 51.4712 24.0103 53.0338 23.9673C54.7818 23.9178 56.4636 22.4971 56.8079 20.7757C57.1092 19.2725 56.1987 18.1492 54.6759 18.1458V18.1458Z" fill="#EFF0EB"/>
<path d="M81.9161 54.5482C79.496 54.4887 77.1124 54.7166 74.7916 55.4501C73.6826 55.8003 72.5338 56.0052 71.3651 56.0679C70.3256 56.1208 69.3026 56.0448 68.3128 55.6946C68.0016 55.5856 67.7168 55.5327 67.4023 55.7045C67.0978 55.8697 66.7766 55.8598 66.5714 55.5195C66.3694 55.1825 66.5581 54.9116 66.7766 54.6671C67.2567 54.1352 67.8758 54.0658 68.5279 54.2012C69.3126 54.3631 70.1005 54.3929 70.895 54.3797C72.0968 54.3598 73.2621 54.112 74.401 53.7684C76.2682 53.2068 78.1651 52.9656 80.1151 53.0052C82.5219 53.0548 84.932 52.9953 87.319 53.3819C87.5971 53.4248 87.9844 53.3554 88.0043 53.7519C88.0208 54.1418 87.6335 54.1186 87.3587 54.1847C86.1437 54.4821 84.9155 54.6274 83.6641 54.5548C83.0847 54.5217 82.4987 54.5482 81.9194 54.5482H81.9161Z" fill="#EFF0EB"/>
<path d="M82.482 69.7494C80.7108 69.8551 78.9331 69.604 77.1817 69.1646C76.0462 68.8804 74.9371 68.897 73.8215 69.2703C72.5502 69.6965 71.2822 69.789 70.0474 69.1315C69.6964 68.9465 69.4448 69.0688 69.2329 69.3628C69.0476 69.6205 68.8655 69.8815 68.6536 70.1161C68.3325 70.4729 68.0279 70.539 67.7531 70.354C67.4618 70.159 67.4088 69.8749 67.6273 69.4421C67.8392 69.0159 68.0842 68.6062 68.402 68.2461C68.9582 67.615 69.5839 67.3871 70.3188 67.7571C71.4378 68.3188 72.5105 68.223 73.6162 67.8034C74.818 67.3474 76.0462 67.321 77.2877 67.6084C79.4661 68.1172 81.661 68.3518 83.9023 68.1701C85.4384 68.0446 86.9679 68.2197 88.4908 68.4212C88.6199 68.4377 88.7623 68.4443 88.8781 68.4972C89.1297 68.6128 89.1463 68.9201 88.9013 69.0555C88.7656 69.1282 88.6034 69.1646 88.4511 69.191C86.4945 69.5379 84.5247 69.7593 82.4886 69.7494H82.482Z" fill="#EFF0EB"/>
<path d="M80.6113 75.3759C79.5121 75.3131 78.4859 75.1942 77.5059 74.8572C76.4862 74.5103 75.4831 74.54 74.4668 74.8308C73.8576 75.0059 73.2452 75.1744 72.6294 75.3197C71.6693 75.5444 70.7324 75.5081 69.8915 74.9233C69.5472 74.6821 69.332 74.7151 69.1499 75.105C69.0407 75.3429 68.895 75.5675 68.7394 75.779C68.5507 76.0334 68.2859 76.1688 67.9747 76.04C67.6403 75.9045 67.6204 75.6006 67.7032 75.3032C67.8588 74.7415 68.0773 74.1997 68.4282 73.7306C68.8354 73.1854 69.3419 73.0764 69.971 73.3572C70.0438 73.3903 70.1199 73.4167 70.1795 73.4662C71.0138 74.1535 71.9275 74.0907 72.8777 73.7636C73.3776 73.5918 73.8841 73.4464 74.3906 73.2911C75.5328 72.9376 76.6683 72.9178 77.8204 73.2911C79.2539 73.757 80.7172 73.8495 82.2004 73.5323C82.6639 73.4332 83.1406 73.4002 83.6107 73.3143C84.6999 73.116 85.7692 73.4233 86.8518 73.4068C87.0736 73.4068 87.2822 73.5158 87.3086 73.7636C87.3351 74.018 87.1497 74.1303 86.9213 74.1832C86.2261 74.3451 85.5408 74.5433 84.8389 74.6755C83.4121 74.9464 81.9951 75.2702 80.608 75.3759H80.6113Z" fill="#EFF0EB"/>
<path d="M89.229 15.6118C89.5468 15.6118 89.8647 15.5952 90.1792 15.6151C90.699 15.6514 91.0002 15.8926 91.0466 16.2692C91.0929 16.6459 90.8545 16.9664 90.3447 17.0853C89.8316 17.2009 89.3019 17.2637 88.7788 17.3199C87.9644 17.4091 87.1467 17.4752 86.3289 17.5445C86.1469 17.5611 85.9548 17.5677 85.7761 17.5346C85.3755 17.4619 85.0875 17.1481 85.0775 16.7813C85.0676 16.4014 85.253 16.1239 85.6006 15.9719C85.8191 15.8761 86.0542 15.8364 86.2958 15.8232C87.2725 15.7637 88.2491 15.6977 89.2257 15.6349C89.2257 15.6283 89.2257 15.6217 89.2257 15.6118H89.229Z" fill="#EFF0EB"/>
<path d="M88.5408 10.7055C88.8189 10.7187 89.0871 10.7055 89.342 10.7484C89.683 10.8112 89.9114 11.0293 89.9445 11.3894C89.9743 11.7165 89.8022 11.951 89.5174 12.0832C89.3287 12.1724 89.1202 12.2352 88.9149 12.2649C87.8688 12.4136 86.8226 12.5424 85.7764 12.6812C85.6175 12.701 85.4652 12.7076 85.3063 12.6614C84.9389 12.5557 84.7038 12.3244 84.674 11.9411C84.6442 11.5579 84.8296 11.2804 85.1805 11.1317C85.3229 11.0722 85.4851 11.0392 85.6374 11.0227C86.6074 10.9136 87.5774 10.8112 88.5342 10.7055H88.5408Z" fill="#EFF0EB"/>
<path d="M88.673 13.2957C89.024 13.2957 89.2656 13.266 89.5007 13.3023C89.9278 13.3651 90.2257 13.6724 90.2158 14.0259C90.2059 14.4191 89.9708 14.6801 89.61 14.7627C89.173 14.8618 88.7227 14.908 88.2791 14.9543C87.6766 15.0171 87.0674 15.06 86.4649 15.1129C86.3854 15.1195 86.306 15.1228 86.2265 15.1261C85.5611 15.136 85.1539 14.8585 85.1141 14.3662C85.0744 13.8838 85.4584 13.5039 86.104 13.4543C86.9979 13.3816 87.8951 13.3453 88.6797 13.299L88.673 13.2957Z" fill="#EFF0EB"/>
<path d="M40.4047 80.7811C41.3383 80.8174 42.0766 81.1544 42.7519 81.6335C43.0002 81.8086 43.1757 82.063 42.9704 82.3768C42.7652 82.6841 42.4639 82.6577 42.2057 82.476C40.9973 81.6335 39.8916 81.7821 38.8454 82.7667C38.7527 82.8559 38.6335 82.9286 38.511 82.9715C38.2329 83.0707 37.9913 83.0046 37.8191 82.7502C37.6668 82.5222 37.6701 82.2777 37.8622 82.0993C38.607 81.4055 39.4281 80.8538 40.4047 80.7778V80.7811Z" fill="#EFF0EB"/>
<path d="M33.283 81.0982C33.8855 81.0982 34.445 81.2436 34.9714 81.5079C35.1568 81.6037 35.3323 81.7326 35.4846 81.8714C35.6931 82.063 35.8189 82.2976 35.6269 82.5718C35.4415 82.8361 35.1866 82.8394 34.9284 82.694C34.6536 82.5387 34.3821 82.3768 34.0709 82.2943C33.2665 82.0795 32.5547 82.1852 31.972 82.8328C31.833 82.9881 31.6873 83.15 31.5185 83.2755C31.2569 83.4737 30.9722 83.4803 30.7338 83.2326C30.522 83.0145 30.5054 82.7403 30.6908 82.509C31.3562 81.6764 32.1375 81.0388 33.283 81.0949V81.0982Z" fill="#EFF0EB"/>
<path d="M137.99 87.4285C137.537 87.3822 137.027 87.2468 136.603 86.9032C136.276 86.6389 136.199 86.292 136.368 85.9913C136.54 85.684 136.858 85.5948 137.269 85.7501C137.391 85.7964 137.504 85.8691 137.623 85.9285C138.08 86.1565 138.49 86.1169 138.838 85.7204C138.855 85.7006 138.871 85.6774 138.888 85.6609C139.262 85.3239 139.593 85.281 139.854 85.5387C140.099 85.7766 140.103 86.2193 139.868 86.5596C139.53 87.0452 138.712 87.4417 137.99 87.4318V87.4285Z" fill="#EFF0EB"/>
<path d="M133.553 87.4483C132.878 87.3889 132.315 87.1212 131.874 86.629C131.639 86.3647 131.606 86.0508 131.835 85.7633C132.066 85.4693 132.381 85.4693 132.695 85.618C132.815 85.6741 132.917 85.76 133.02 85.8426C133.407 86.1499 133.791 86.1466 134.172 85.8327C134.232 85.7832 134.291 85.7237 134.357 85.684C134.662 85.499 134.963 85.4825 135.215 85.7666C135.466 86.0508 135.417 86.368 135.198 86.6323C134.775 87.1477 134.205 87.3988 133.556 87.4483H133.553Z" fill="#EFF0EB"/>
<path d="M36.3823 27.4628C36.1041 26.9561 36.016 26.3622 36.1348 25.7932C36.3767 24.4665 36.4834 23.1175 36.453 21.768C36.5101 20.2481 36.3568 18.7276 35.9978 17.2521C35.8585 16.5851 35.5661 15.962 35.1449 15.4348C34.9526 15.2077 34.7449 14.8874 34.4112 15.0396C34.0356 15.2099 34.2212 15.5734 34.2963 15.8528C34.6137 17.0411 34.7296 18.2767 34.6388 19.5055C34.5438 21.1404 34.3557 22.7681 34.0753 24.3803C33.8654 25.4866 33.7594 25.6297 32.7009 25.716C31.026 25.8568 29.8902 26.8518 29.2493 28.4215C28.8958 29.2915 28.8627 30.1706 29.5167 30.9202C29.812 31.2695 30.1944 31.5292 30.6228 31.6714C31.0512 31.8135 31.5092 31.8326 31.9474 31.7266C32.6039 31.6023 33.2194 31.3101 33.7373 30.877C33.8853 30.7521 34.0422 30.5613 34.2588 30.6612C34.5283 30.7862 34.4598 31.0678 34.4488 31.295C34.3858 31.9744 34.266 32.647 34.0908 33.3054C33.7726 34.7546 33.1119 36.054 32.4932 37.376C32.1927 38.0189 32.3275 38.5595 32.7495 38.8457C33.1296 39.1047 33.6511 39.0388 34.124 38.639C34.5818 38.2418 34.9626 37.7594 35.2465 37.217C36.411 35.0795 36.8839 32.7534 36.9855 30.3432C37.0593 29.3433 36.8498 28.3429 36.3823 27.4628V27.4628ZM31.6999 29.405C31.6653 29.4074 31.6306 29.4074 31.5961 29.405C31.3751 29.3573 31.3618 29.2006 31.4281 29.0234C31.6027 28.5532 32.3717 27.9739 32.7186 28.0466C32.7678 28.054 32.8124 28.0805 32.8433 28.1206C32.8741 28.1607 32.8888 28.2115 32.8843 28.2624C32.8733 28.5895 32.091 29.3346 31.6999 29.405V29.405Z" fill="#FEE003"/>
</g>
<defs>
<clipPath id="clip0_1821_2957">
<rect width="150" height="104.167" fill="white"/>
</clipPath>
</defs>
</svg>
