<svg width="641" height="372" viewBox="0 0 641 372" fill="none" xmlns="http://www.w3.org/2000/svg">
<g id="Logo Sama">
<g id="SamaSama">
<g id="Sama">
<path id="s" d="M51.4751 324.276C37.6818 324.276 29.3858 328.374 18.591 329.274C11.8942 329.874 6.49685 330.074 2.49878 323.877C-1.59923 317.38 0.999509 310.583 3.99806 305.485C7.49637 299.388 15.1926 292.892 24.2883 291.792C31.8846 290.893 36.6823 289.993 44.3785 289.393C48.6765 289.393 50.9754 289.993 52.6745 290.693C55.0734 291.692 55.9729 293.791 55.6731 296.29C55.3732 298.989 53.5741 300.188 50.9754 300.388C46.3776 300.688 41.6798 300.688 37.0821 301.088C29.3858 301.787 19.3906 303.386 15.6924 306.985C10.5949 311.882 10.1951 320.578 18.8909 318.679C22.2892 317.879 26.0874 317.28 29.2858 316.18C40.2805 312.182 54.6736 310.583 62.4698 313.482C70.366 316.38 75.7634 320.478 77.5625 330.074C82.2602 359.959 60.7706 371.254 40.6803 371.254C21.4896 371.254 16.0922 369.555 6.09704 364.157C3.6982 362.858 0.499751 359.559 0.199896 357.46C-0.0999592 355.361 -0.199911 351.063 2.79864 348.565C4.89762 346.766 9.99516 349.164 11.7943 350.864C24.9879 360.559 34.4833 361.658 48.1767 358.56C58.5717 356.261 65.1685 351.663 66.5678 337.67C67.8672 323.477 53.774 324.376 51.4751 324.276Z" fill="#EFF0EB"/>
<path id="a" d="M116.144 322.677C129.437 322.777 130.437 321.078 126.139 309.983C122.341 300.088 110.147 291.892 98.0526 300.588C97.4529 300.988 96.7532 301.387 96.0535 301.787C93.2549 303.586 90.5562 306.885 87.0579 303.087C84.4591 300.288 85.1588 294.491 89.2568 291.992C95.154 288.394 101.451 285.195 108.547 284.895C119.742 284.496 131.736 292.892 135.235 303.586C137.134 309.384 139.033 315.381 138.733 321.578C138.533 325.976 139.533 329.874 141.032 333.972C144.53 343.967 141.432 351.463 132.636 356.961C125.139 361.658 117.743 366.056 108.348 366.556C96.5533 367.256 86.0584 362.458 83.7595 354.062C81.4606 345.766 88.5571 331.273 97.153 326.875C103.55 323.577 110.047 321.778 116.144 322.677ZM116.444 334.571C112.046 333.772 108.248 335.071 104.649 336.071C99.3519 337.57 94.1544 346.466 95.6537 350.364C97.2529 354.262 103.65 356.361 109.747 354.862C115.044 353.662 119.842 351.163 124.24 348.165C126.839 346.366 131.536 345.566 130.437 341.068C129.337 337.07 125.739 335.271 121.541 334.971C119.742 334.871 117.843 334.671 116.444 334.571Z" fill="#EFF0EB"/>
<path id="m" d="M231.788 310.383C231.388 322.677 226.79 342.268 224.891 348.365C222.592 355.461 223.492 360.459 221.193 362.858C219.194 365.057 216.795 366.056 213.897 365.057C210.898 364.057 209.898 361.558 210.098 358.66C210.198 355.561 211.098 352.663 212.097 349.764C216.295 337.07 219.394 324.076 219.794 310.583C219.994 305.485 219.094 300.588 218.194 295.69C217.695 292.592 216.495 289.693 212.897 288.893C209.299 288.094 207.3 289.993 205.201 292.692C202.502 296.19 200.503 299.688 200.703 304.186C200.803 307.584 200.803 314.581 200.303 320.578C199.204 332.572 198.204 341.168 196.005 354.362C195.406 357.86 193.706 361.358 189.208 360.659C185.011 359.959 183.811 356.461 184.211 352.763C185.21 342.068 188.309 331.573 187.509 320.778C187.309 317.38 187.609 313.781 186.81 310.483C184.411 300.288 174.216 295.09 164.52 298.989C160.922 300.488 161.022 303.386 161.322 306.685C162.721 318.079 164.42 325.376 166.719 336.77C168.019 342.767 167.619 353.162 166.819 359.359C166.22 363.757 163.721 366.556 159.123 366.056C154.525 365.556 153.826 361.858 154.325 358.26C156.724 343.367 152.126 329.274 149.328 315.081C148.528 310.883 147.828 306.785 148.028 302.487C148.528 291.792 152.626 286.994 163.521 286.495C171.517 286.095 179.813 285.295 187.209 289.693C191.607 292.292 193.207 290.293 194.806 286.495C198.204 278.499 204.101 274.4 212.997 275.6C222.692 276.899 226.89 278.399 229.789 290.093C232.887 301.487 231.788 305.286 231.788 310.383Z" fill="#EFF0EB"/>
<path id="a_2" d="M271.769 322.677C285.062 322.777 286.062 321.078 281.764 309.983C277.966 300.088 265.772 291.892 253.677 300.588C253.078 300.988 252.378 301.387 251.678 301.787C248.88 303.586 246.181 306.885 242.683 303.087C240.084 300.288 240.784 294.491 244.882 291.992C250.779 288.394 257.076 285.195 264.172 284.895C275.367 284.496 287.361 292.892 290.859 303.586C292.759 309.384 294.658 315.381 294.358 321.578C294.158 325.976 295.157 329.874 296.657 333.972C300.155 343.967 297.056 351.463 288.261 356.961C280.764 361.658 273.368 366.056 263.972 366.556C252.178 367.256 241.683 362.458 239.384 354.062C237.085 345.766 244.182 331.273 252.778 326.875C259.075 323.577 265.672 321.778 271.769 322.677ZM271.969 334.571C267.571 333.772 263.773 335.071 260.174 336.071C254.877 337.57 249.679 346.466 251.179 350.364C252.778 354.262 259.175 356.361 265.272 354.862C270.569 353.662 275.367 351.163 279.765 348.165C282.364 346.366 287.061 345.566 285.962 341.068C284.862 337.07 281.264 335.271 277.066 334.971C275.267 334.871 273.368 334.671 271.969 334.571Z" fill="#EFF0EB"/>
</g>
<g id="Sama_2">
<path id="s_2" d="M393.51 324.276C379.717 324.276 371.421 328.374 360.626 329.274C353.929 329.874 348.532 330.074 344.534 323.877C340.436 317.38 343.034 310.583 346.033 305.485C349.531 299.388 357.227 292.892 366.323 291.792C373.919 290.893 378.717 289.993 386.413 289.393C390.711 289.393 393.01 289.993 394.709 290.693C397.108 291.692 398.008 293.791 397.708 296.29C397.408 298.989 395.609 300.188 393.01 300.388C388.412 300.688 383.715 300.688 379.117 301.088C371.421 301.787 361.425 303.386 357.727 306.985C352.63 311.882 352.23 320.578 360.926 318.679C364.324 317.879 368.122 317.28 371.321 316.18C382.315 312.182 396.708 310.583 404.505 313.482C412.401 316.38 417.798 320.478 419.597 330.074C424.295 359.959 402.805 371.254 382.715 371.254C363.524 371.254 358.127 369.555 348.132 364.157C345.733 362.858 342.535 359.559 342.235 357.46C341.935 355.261 341.835 351.063 344.833 348.565C346.932 346.766 352.03 349.164 353.829 350.864C367.023 360.559 376.518 361.658 390.211 358.56C400.606 356.261 407.203 351.663 408.603 337.67C409.902 323.477 395.809 324.376 393.51 324.276Z" fill="#EFF0EB"/>
<path id="a_3" d="M458.179 322.677C471.472 322.777 472.472 321.078 468.174 309.983C464.376 300.088 452.181 291.892 440.087 300.588C439.488 300.988 438.788 301.387 438.088 301.787C435.29 303.586 432.591 306.885 429.093 303.087C426.494 300.288 427.194 294.491 431.292 291.992C437.189 288.394 443.486 285.195 450.582 284.895C461.777 284.496 473.771 292.892 477.269 303.586C479.168 309.384 481.068 315.381 480.768 321.578C480.568 325.976 481.567 329.874 483.067 333.972C486.565 343.967 483.466 351.463 474.671 356.961C467.174 361.658 459.778 366.056 450.382 366.556C438.588 367.256 428.093 362.458 425.794 354.062C423.495 345.766 430.592 331.273 439.188 326.875C445.485 323.577 452.082 321.778 458.179 322.677ZM458.379 334.571C453.981 333.772 450.182 335.071 446.584 336.071C441.287 337.57 436.089 346.466 437.589 350.364C439.188 354.262 445.585 356.361 451.682 354.862C456.979 353.662 461.777 351.163 466.175 348.165C468.773 346.366 473.471 345.566 472.372 341.068C471.272 337.07 467.674 335.271 463.476 334.971C461.677 334.871 459.778 334.671 458.379 334.571Z" fill="#EFF0EB"/>
<path id="m_2" d="M573.823 310.383C573.423 322.677 568.825 342.268 566.926 348.365C564.627 355.461 565.527 360.459 563.228 362.858C561.229 365.057 558.83 366.056 555.931 365.057C552.933 364.057 551.933 361.558 552.133 358.66C552.233 355.561 553.133 352.663 554.132 349.764C558.33 337.07 561.429 324.076 561.828 310.583C562.028 305.485 561.129 300.588 560.229 295.69C559.73 292.592 558.53 289.693 554.932 288.893C551.334 288.094 549.335 289.993 547.236 292.692C544.537 296.19 542.538 299.688 542.738 304.186C542.838 307.584 542.838 314.581 542.338 320.578C541.238 332.572 540.239 341.168 538.04 354.362C537.44 357.86 535.741 361.358 531.243 360.659C527.045 359.959 525.846 356.461 526.246 352.763C527.245 342.068 530.344 331.573 529.544 320.778C529.344 317.38 529.644 313.781 528.844 310.483C526.446 300.288 516.251 295.09 506.555 298.989C502.957 300.488 503.057 303.386 503.357 306.685C504.756 318.079 506.455 325.376 508.754 336.77C510.054 342.767 509.654 353.162 508.854 359.359C508.254 363.757 505.756 366.556 501.158 366.056C496.56 365.556 495.86 361.858 496.36 358.26C498.759 343.367 494.161 329.274 491.363 315.081C490.563 310.883 489.863 306.785 490.063 302.487C490.563 291.792 494.661 286.994 505.556 286.495C513.552 286.095 521.848 285.295 529.244 289.693C533.642 292.292 535.241 290.293 536.841 286.495C540.239 278.499 546.136 274.4 555.032 275.6C564.727 276.899 568.925 278.399 571.824 290.093C574.922 301.487 573.823 305.286 573.823 310.383Z" fill="#EFF0EB"/>
<path id="a_4" d="M613.703 322.677C626.997 322.777 627.997 321.078 623.699 309.983C619.9 300.088 607.706 291.892 595.612 300.588C595.012 300.988 594.313 301.387 593.613 301.787C590.815 303.586 588.116 306.885 584.617 303.087C582.019 300.288 582.718 294.491 586.816 291.992C592.714 288.394 599.011 285.195 606.107 284.895C617.302 284.496 629.296 292.892 632.794 303.586C634.693 309.384 636.592 315.381 636.292 321.578C636.093 325.976 637.092 329.874 638.591 333.972C642.09 343.967 638.991 351.463 630.195 356.961C622.699 361.658 615.303 366.056 605.907 366.556C594.113 367.256 583.618 362.458 581.319 354.062C579.02 345.766 586.117 331.273 594.713 326.875C601.01 323.577 607.606 321.778 613.703 322.677ZM614.003 334.571C609.605 333.772 605.807 335.071 602.209 336.071C596.912 337.57 591.714 346.466 593.213 350.364C594.813 354.262 601.209 356.361 607.306 354.862C612.604 353.662 617.402 351.163 621.799 348.165C624.398 346.366 629.096 345.566 627.996 341.068C626.897 337.07 623.299 335.271 619.101 334.971C617.302 334.871 615.403 334.671 614.003 334.571Z" fill="#EFF0EB"/>
</g>
</g>
<path id="orbita" d="M200.1 44.3C95.5 -20.2 10.5 40.4 10.5 115.1C10.5 168.7 32.8 204.4 113.1 204.4C199.6 204.4 309.9 103.2 309.9 103.2C309.9 103.2 424.4 9 514.4 9C604.4 9 628.5 67.6 628.5 106.7C628.5 143.7 599.6 221.2 485.3 187.7" stroke="#EFF0EB" stroke-width="18" stroke-miterlimit="10" stroke-linecap="round"/>
<path id="atom" d="M394 119.9C386.1 121.6 371.1 131.2 367.8 141.1C364.6 150.6 360.6 162.6 369.9 171.7C378.4 180 389.5 181.6 400.3 178.2C414.2 173.9 425.2 167.5 431.5 154.9C438.2 141.2 432.8 132.7 416 122.2C413 120.3 402.9 117.9 394 119.9Z" stroke="#F16142" stroke-width="18" stroke-miterlimit="10"/>
</g>

</svg>
