<?xml version="1.0" encoding="utf-8"?>
<!-- Generator: Adobe Illustrator 16.0.0, SVG Export Plug-In . SVG Version: 6.00 Build 0)  -->
<!DOCTYPE svg PUBLIC "-//W3C//DTD SVG 1.1//EN" "http://www.w3.org/Graphics/SVG/1.1/DTD/svg11.dtd">
<svg version="1.1" xmlns="http://www.w3.org/2000/svg" xmlns:xlink="http://www.w3.org/1999/xlink" x="0px" y="0px" width="75px"
	 height="75px" viewBox="0 0 75 75" enable-background="new 0 0 75 75" xml:space="preserve">
<g id="LOGO">
</g>
<g id="Layer_4">
</g>
<g id="Layer_5">
</g>
<g id="Layer_8">
</g>
<g id="Layer_3" display="none">
</g>
<g id="Layer_6">
</g>
<g id="Layer_7">
</g>
<g id="Layer_9">
</g>
<g id="PORTADA_FB">
</g>
<g id="SOMEWHERE">
</g>
<g id="Share_a">
</g>
<g id="headers">
	<g>
		<path fill="#FFFFFF" d="M37.273,11.612c-14.171,0-25.661,11.489-25.661,25.661s11.49,25.661,25.661,25.661
			c14.173,0,25.66-11.489,25.66-25.661S51.446,11.612,37.273,11.612z M37.273,61.429c-13.341,0-24.156-10.815-24.156-24.156
			s10.815-24.156,24.156-24.156S61.43,23.932,61.43,37.273S50.614,61.429,37.273,61.429z"/>
		<path fill="#FFFFFF" d="M37.273,74.546C16.722,74.546,0,57.825,0,37.273S16.722,0,37.273,0c20.553,0,37.272,16.721,37.272,37.273
			S57.826,74.546,37.273,74.546z M37.273,1.92C17.779,1.92,1.92,17.779,1.92,37.273s15.859,35.354,35.354,35.354
			c19.493,0,35.354-15.86,35.354-35.354S56.767,1.92,37.273,1.92z"/>
		<circle fill="#FFFFFF" cx="62.676" cy="62.891" r="7.129"/>
		<path fill="#FFFFFF" d="M37.273,14.562c-12.542,0-22.711,10.168-22.711,22.711s10.169,22.711,22.711,22.711
			c12.544,0,22.711-10.168,22.711-22.711S49.817,14.562,37.273,14.562z M43.103,26.87c0,0.34-1.1,0.581-2.027,0.581
			c-0.875,0-1.973-0.241-1.973-0.581v-2.137c0-0.531-0.879-0.967-2-0.967s-2,0.437-2,0.967v10.332c0,0.581,1.241,1.018,2.362,1.018
			c2.928,0,5.638,1.162,5.638,2.617v13.048c0,1.455-3.074,2.617-6.002,2.617s-5.998-1.162-5.998-2.617v-3.202
			c0-0.341,1.096-0.533,2.025-0.533c0.875,0,1.975,0.191,1.975,0.533v2.135c0,0.533,0.879,1.019,2,1.019s2-0.486,2-1.019V40.013
			c0-0.534-1.244-1.02-2.364-1.02c-2.928,0-5.636-1.164-5.636-2.617v-12.66c0-1.501,3.07-2.666,5.998-2.666s6.002,1.165,6.002,2.666
			V26.87z"/>
	</g>
</g>
<g id="games">
</g>
</svg>
