<?xml version="1.0" encoding="utf-8"?>
<!-- Generator: Adobe Illustrator 16.0.0, SVG Export Plug-In . SVG Version: 6.00 Build 0)  -->
<!DOCTYPE svg PUBLIC "-//W3C//DTD SVG 1.1//EN" "http://www.w3.org/Graphics/SVG/1.1/DTD/svg11.dtd">
<svg version="1.1" xmlns="http://www.w3.org/2000/svg" xmlns:xlink="http://www.w3.org/1999/xlink" x="0px" y="0px" width="375px"
	 height="75.5px" viewBox="0 0 375 75.5" enable-background="new 0 0 375 75.5" xml:space="preserve">
<g id="LOGO">
</g>
<g id="Layer_4">
</g>
<g id="Layer_5">
</g>
<g id="Layer_8">
</g>
<g id="Layer_3" display="none">
</g>
<g id="Layer_6">
</g>
<g id="Layer_7">
</g>
<g id="Layer_9">
</g>
<g id="PORTADA_FB">
</g>
<g id="SOMEWHERE">
</g>
<g id="Share_a">
</g>
<g id="headers">
	<g>
		<path fill="#FFFFFF" d="M37.836,11.899c-14.171,0-25.661,11.489-25.661,25.661s11.49,25.661,25.661,25.661
			c14.173,0,25.66-11.489,25.66-25.661S52.009,11.899,37.836,11.899z M37.836,61.716c-13.341,0-24.156-10.815-24.156-24.156
			s10.815-24.156,24.156-24.156S61.992,24.22,61.992,37.561S51.177,61.716,37.836,61.716z"/>
		<path fill="#FFFFFF" d="M37.836,74.833c-20.552,0-37.273-16.721-37.273-37.273S17.284,0.288,37.836,0.288
			c20.553,0,37.272,16.721,37.272,37.273S58.389,74.833,37.836,74.833z M37.836,2.208c-19.494,0-35.354,15.859-35.354,35.353
			s15.859,35.354,35.354,35.354c19.493,0,35.354-15.86,35.354-35.354S57.329,2.208,37.836,2.208z"/>
		<circle fill="#FFFFFF" cx="63.239" cy="63.178" r="7.129"/>
		<path fill="#FFFFFF" d="M37.836,14.849c-12.542,0-22.711,10.168-22.711,22.711s10.169,22.711,22.711,22.711
			c12.544,0,22.711-10.168,22.711-22.711S50.38,14.849,37.836,14.849z M44,27.158c0,0.34-1.1,0.581-2.027,0.581
			c-0.875,0-1.973-0.241-1.973-0.581v-2.137c0-0.531-0.879-0.967-2-0.967s-2,0.437-2,0.967v10.332c0,0.581,1.241,1.018,2.362,1.018
			c2.928,0,5.638,1.162,5.638,2.617v13.048c0,1.455-3.074,2.617-6.002,2.617S32,53.491,32,52.036v-3.202
			c0-0.341,1.096-0.533,2.025-0.533c0.875,0,1.975,0.191,1.975,0.533v2.135c0,0.533,0.879,1.019,2,1.019s2-0.486,2-1.019V40.3
			c0-0.534-1.244-1.02-2.364-1.02c-2.928,0-5.636-1.164-5.636-2.617v-12.66c0-1.501,3.07-2.666,5.998-2.666S44,22.501,44,24.003
			V27.158z"/>
	</g>
	<g>
		<path fill="#FFFFFF" d="M97.092,54.905c0,1.738-2.857,3.128-6.355,3.128s-6.355-1.39-6.355-3.128v-3.822
			c0-0.406,0.875-0.638,1.982-0.638c1.051,0,1.924,0.231,1.924,0.638v2.548c0,0.638,1.109,1.217,2.449,1.217
			c1.342,0,2.449-0.579,2.449-1.217V40.889c0-0.638-1.107-1.217-2.449-1.217c-3.498,0-6.355-1.39-6.355-3.128V21.427
			c0-1.796,2.857-3.187,6.355-3.187s6.355,1.391,6.355,3.187v3.765c0,0.405-0.875,0.695-1.982,0.695
			c-1.049,0-1.924-0.29-1.924-0.695v-2.549c0-0.637-1.107-1.158-2.449-1.158c-1.34,0-2.449,0.521-2.449,1.158V34.98
			c0,0.694,1.109,1.216,2.449,1.216c3.498,0,6.355,1.391,6.355,3.128V54.905z"/>
		<path fill="#FFFFFF" d="M114.584,57.049c0,0.405-0.816,0.695-1.924,0.695c-1.109,0-1.926-0.29-1.926-0.695V39.382h-4.896v17.667
			c0,0.405-0.875,0.695-1.982,0.695c-1.049,0-1.924-0.29-1.924-0.695V21.427c0-1.796,2.857-3.187,6.355-3.187
			s6.297,1.391,6.297,3.187V57.049z M110.734,35.907V22.643c0-0.637-1.107-1.158-2.447-1.158c-1.4,0-2.449,0.521-2.449,1.158v13.265
			H110.734z"/>
		<path fill="#FFFFFF" d="M140.295,57.049c0,0.405-0.816,0.695-1.924,0.695s-1.924-0.29-1.924-0.695V22.643
			c0-0.637-0.699-1.158-2.1-1.158c-1.34,0-2.039,0.521-2.039,1.158v34.406c0,0.405-0.875,0.695-1.926,0.695
			c-1.107,0-1.982-0.29-1.982-0.695V22.643c0-0.637-0.699-1.158-2.039-1.158c-1.342,0-2.041,0.521-2.041,1.158v34.406
			c0,0.405-0.875,0.695-1.982,0.695c-1.049,0-1.924-0.29-1.924-0.695V21.427c0-1.796,2.449-3.187,5.947-3.187
			c1.398,0,3.148,0.58,4.021,1.159c0.816-0.579,2.566-1.159,3.965-1.159c3.498,0,5.947,1.391,5.947,3.187V57.049z"/>
		<path fill="#FFFFFF" d="M158.779,57.049c0,0.405-0.816,0.695-1.924,0.695s-1.924-0.29-1.924-0.695V39.382h-4.898v17.667
			c0,0.405-0.873,0.695-1.982,0.695c-1.049,0-1.924-0.29-1.924-0.695V21.427c0-1.796,2.857-3.187,6.355-3.187
			s6.297,1.391,6.297,3.187V57.049z M154.932,35.907V22.643c0-0.637-1.107-1.158-2.449-1.158c-1.398,0-2.449,0.521-2.449,1.158
			v13.265H154.932z"/>
		<path fill="#FFFFFF" d="M186.064,54.905c0,1.738-2.855,3.128-6.354,3.128s-6.355-1.39-6.355-3.128v-3.822
			c0-0.406,0.875-0.638,1.982-0.638c1.049,0,1.924,0.231,1.924,0.638v2.548c0,0.638,1.107,1.217,2.449,1.217
			c1.34,0,2.447-0.579,2.447-1.217V40.889c0-0.638-1.107-1.217-2.447-1.217c-3.498,0-6.355-1.39-6.355-3.128V21.427
			c0-1.796,2.857-3.187,6.355-3.187s6.354,1.391,6.354,3.187v3.765c0,0.405-0.873,0.695-1.98,0.695c-1.051,0-1.926-0.29-1.926-0.695
			v-2.549c0-0.637-1.107-1.158-2.447-1.158c-1.342,0-2.449,0.521-2.449,1.158V34.98c0,0.694,1.107,1.216,2.449,1.216
			c3.498,0,6.354,1.391,6.354,3.128V54.905z"/>
		<path fill="#FFFFFF" d="M203.559,57.049c0,0.405-0.816,0.695-1.924,0.695c-1.109,0-1.926-0.29-1.926-0.695V39.382h-4.896v17.667
			c0,0.405-0.875,0.695-1.982,0.695c-1.049,0-1.924-0.29-1.924-0.695V21.427c0-1.796,2.857-3.187,6.355-3.187
			s6.297,1.391,6.297,3.187V57.049z M199.709,35.907V22.643c0-0.637-1.107-1.158-2.447-1.158c-1.4,0-2.449,0.521-2.449,1.158v13.265
			H199.709z"/>
		<path fill="#FFFFFF" d="M229.27,57.049c0,0.405-0.816,0.695-1.924,0.695s-1.924-0.29-1.924-0.695V22.643
			c0-0.637-0.699-1.158-2.1-1.158c-1.34,0-2.039,0.521-2.039,1.158v34.406c0,0.405-0.875,0.695-1.926,0.695
			c-1.107,0-1.982-0.29-1.982-0.695V22.643c0-0.637-0.699-1.158-2.039-1.158c-1.342,0-2.041,0.521-2.041,1.158v34.406
			c0,0.405-0.875,0.695-1.982,0.695c-1.049,0-1.924-0.29-1.924-0.695V21.427c0-1.796,2.449-3.187,5.947-3.187
			c1.398,0,3.148,0.58,4.021,1.159c0.816-0.579,2.566-1.159,3.965-1.159c3.498,0,5.947,1.391,5.947,3.187V57.049z"/>
		<path fill="#FFFFFF" d="M247.754,57.049c0,0.405-0.816,0.695-1.924,0.695c-1.109,0-1.926-0.29-1.926-0.695V39.382h-4.896v17.667
			c0,0.405-0.875,0.695-1.982,0.695c-1.049,0-1.924-0.29-1.924-0.695V21.427c0-1.796,2.857-3.187,6.355-3.187
			s6.297,1.391,6.297,3.187V57.049z M243.904,35.907V22.643c0-0.637-1.107-1.158-2.447-1.158c-1.4,0-2.449,0.521-2.449,1.158v13.265
			H243.904z"/>
		<path fill="#FFFFFF" d="M275.039,54.905c0,1.738-2.857,3.128-6.355,3.128s-6.355-1.39-6.355-3.128v-3.822
			c0-0.406,0.875-0.638,1.982-0.638c1.051,0,1.924,0.231,1.924,0.638v2.548c0,0.638,1.109,1.217,2.449,1.217
			c1.342,0,2.449-0.579,2.449-1.217v-7.935c0-0.638-1.107-1.159-2.449-1.159c-3.498,0-6.355-1.39-6.355-3.186V31.1
			c0-1.796,2.857-3.186,6.355-3.186s6.355,1.39,6.355,3.186v3.765c0,0.405-0.875,0.638-1.982,0.638
			c-1.049,0-1.924-0.232-1.924-0.638v-2.549c0-0.637-1.107-1.216-2.449-1.216c-1.34,0-2.449,0.579-2.449,1.216v7.473
			c0,0.694,1.109,1.274,2.449,1.274c3.498,0,6.355,1.39,6.355,3.127V54.905z"/>
		<path fill="#FFFFFF" d="M290.607,31.968h-4.373v25.081c0,0.405-0.875,0.695-1.982,0.695c-1.049,0-1.924-0.29-1.924-0.695V31.968
			h-3.906c-0.35,0-0.641-0.753-0.641-1.737s0.291-1.737,0.641-1.737h3.906v-9.268c0-0.405,0.875-0.638,1.924-0.638
			c1.107,0,1.982,0.232,1.982,0.638v9.268h4.373c0.408,0,0.641,0.753,0.641,1.737S291.016,31.968,290.607,31.968z"/>
		<path fill="#FFFFFF" d="M307.398,54.848c0,1.796-2.799,3.186-6.297,3.186s-6.355-1.39-6.355-3.186V28.898
			c0-0.405,0.875-0.695,1.924-0.695c1.109,0,1.982,0.29,1.982,0.695v24.675c0,0.695,1.051,1.274,2.449,1.274
			c1.342,0,2.449-0.579,2.449-1.274V28.898c0-0.405,0.816-0.695,1.924-0.695s1.924,0.29,1.924,0.695V54.848z"/>
		<path fill="#FFFFFF" d="M325.881,54.848c0,1.796-2.799,3.186-6.297,3.186s-6.355-1.39-6.355-3.186V31.1
			c0-1.448,1.924-3.186,5.773-3.186c1.107,0,2.098,0.289,3.031,0.694v-9.383c0-0.405,0.816-0.638,1.924-0.638
			s1.924,0.232,1.924,0.638V54.848z M322.033,32.315c0-0.637-1.107-1.216-2.449-1.216c-1.398,0-2.449,0.579-2.449,1.216v21.315
			c0,0.638,1.051,1.217,2.449,1.217c1.342,0,2.449-0.579,2.449-1.217V32.315z"/>
		<path fill="#FFFFFF" d="M335.617,21.774c0,0.405-0.873,0.637-1.982,0.637c-1.049,0-1.924-0.231-1.924-0.637v-2.549
			c0-0.405,0.875-0.638,1.924-0.638c1.109,0,1.982,0.232,1.982,0.638V21.774z M335.617,57.049c0,0.405-0.873,0.695-1.982,0.695
			c-1.049,0-1.924-0.29-1.924-0.695v-28.15c0-0.405,0.875-0.695,1.924-0.695c1.109,0,1.982,0.29,1.982,0.695V57.049z"/>
		<path fill="#FFFFFF" d="M354.102,54.848c0,1.796-2.799,3.186-6.297,3.186s-6.355-1.39-6.355-3.186V31.1
			c0-1.796,2.857-3.186,6.355-3.186s6.297,1.39,6.297,3.186V54.848z M350.252,32.315c0-0.637-1.107-1.216-2.447-1.216
			c-1.4,0-2.449,0.579-2.449,1.216v21.315c0,0.638,1.049,1.217,2.449,1.217c1.34,0,2.447-0.579,2.447-1.217V32.315z"/>
		<path fill="#FFFFFF" d="M371.65,54.905c0,1.738-2.857,3.128-6.355,3.128s-6.355-1.39-6.355-3.128v-3.822
			c0-0.406,0.875-0.638,1.982-0.638c1.051,0,1.924,0.231,1.924,0.638v2.548c0,0.638,1.109,1.217,2.449,1.217
			c1.342,0,2.449-0.579,2.449-1.217v-7.935c0-0.638-1.107-1.159-2.449-1.159c-3.498,0-6.355-1.39-6.355-3.186V31.1
			c0-1.796,2.857-3.186,6.355-3.186s6.355,1.39,6.355,3.186v3.765c0,0.405-0.875,0.638-1.982,0.638
			c-1.049,0-1.924-0.232-1.924-0.638v-2.549c0-0.637-1.107-1.216-2.449-1.216c-1.34,0-2.449,0.579-2.449,1.216v7.473
			c0,0.694,1.109,1.274,2.449,1.274c3.498,0,6.355,1.39,6.355,3.127V54.905z"/>
	</g>
</g>
<g id="games">
</g>
</svg>
