<?xml version="1.0" encoding="utf-8"?>
<!-- Generator: Adobe Illustrator 16.0.0, SVG Export Plug-In . SVG Version: 6.00 Build 0)  -->
<!DOCTYPE svg PUBLIC "-//W3C//DTD SVG 1.1//EN" "http://www.w3.org/Graphics/SVG/1.1/DTD/svg11.dtd">
<svg version="1.1" xmlns="http://www.w3.org/2000/svg" xmlns:xlink="http://www.w3.org/1999/xlink" x="0px" y="0px" width="275px"
	 height="275px" viewBox="0 0 275 275" enable-background="new 0 0 275 275" xml:space="preserve">
<g id="LOGO">
</g>
<g id="Layer_4">
</g>
<g id="Layer_5">
</g>
<g id="Layer_8">
</g>
<g id="Layer_3" display="none">
</g>
<g id="Layer_6">
</g>
<g id="Layer_7">
</g>
<g id="Layer_9">
</g>
<g id="PORTADA_FB">
</g>
<g id="SOMEWHERE">
</g>
<g id="Share_a">
</g>
<g id="headers">
</g>
<g id="games">
	<g>
		<path fill="#F26B21" d="M137.155,44.151c-51.36,0-92.996,41.635-92.996,92.996c0,51.36,41.636,92.997,92.996,92.997
			c51.362,0,92.995-41.636,92.995-92.997C230.15,85.786,188.518,44.151,137.155,44.151z M137.155,224.69
			c-48.347,0-87.543-39.196-87.543-87.544s39.196-87.544,87.543-87.544c48.349,0,87.546,39.196,87.546,87.544
			S185.504,224.69,137.155,224.69z"/>
		<path fill="#F26B21" d="M219.465,137.146c0,45.458-36.851,82.308-82.31,82.308c-45.454,0-82.308-36.851-82.308-82.308
			s36.854-82.308,82.308-82.308C182.614,54.838,219.465,91.689,219.465,137.146z"/>
		<g>
			<path fill="#FFFFFF" d="M104.825,130.166c0,2.391-3.934,4.305-8.749,4.305c-4.816,0-8.751-1.914-8.751-4.305V124.9
				c0-0.557,1.203-0.877,2.729-0.877c1.444,0,2.648,0.32,2.648,0.877v3.51c0,0.876,1.525,1.674,3.373,1.674
				c1.843,0,3.369-0.798,3.369-1.674v-17.546c0-0.877-1.526-1.674-3.369-1.674c-4.816,0-8.751-1.914-8.751-4.305V84.071
				c0-2.473,3.935-4.387,8.751-4.387c4.815,0,8.749,1.914,8.749,4.387v5.183c0,0.558-1.204,0.957-2.729,0.957
				c-1.445,0-2.651-0.399-2.651-0.957v-3.509c0-0.877-1.526-1.594-3.369-1.594c-1.848,0-3.373,0.717-3.373,1.594v16.985
				c0,0.959,1.525,1.677,3.373,1.677c4.815,0,8.749,1.911,8.749,4.304V130.166z"/>
			<path fill="#FFFFFF" d="M128.908,133.116c0,0.558-1.126,0.957-2.648,0.957c-1.528,0-2.649-0.399-2.649-0.957v-24.323h-6.746
				v24.323c0,0.558-1.203,0.957-2.729,0.957c-1.443,0-2.649-0.399-2.649-0.957V84.071c0-2.473,3.936-4.387,8.751-4.387
				s8.671,1.914,8.671,4.387V133.116z M123.61,104.005v-18.26c0-0.877-1.53-1.594-3.373-1.594c-1.928,0-3.373,0.717-3.373,1.594
				v18.26H123.61z"/>
			<path fill="#FFFFFF" d="M163.269,133.116c0,0.558-1.126,0.957-2.652,0.957c-1.525,0-2.648-0.399-2.648-0.957v-47.37
				c0-0.877-0.964-1.594-2.891-1.594c-1.848,0-2.812,0.717-2.812,1.594v47.37c0,0.558-1.199,0.957-2.647,0.957
				c-1.523,0-2.729-0.399-2.729-0.957v-47.37c0-0.877-0.962-1.594-2.812-1.594c-1.847,0-2.808,0.717-2.808,1.594v47.37
				c0,0.558-1.203,0.957-2.729,0.957c-1.444,0-2.648-0.399-2.648-0.957V84.071c0-2.473,3.373-4.387,8.186-4.387
				c1.928,0,4.337,0.799,5.54,1.595c1.125-0.796,3.534-1.595,5.459-1.595c4.818,0,8.191,1.914,8.191,4.387V133.116z"/>
			<path fill="#FFFFFF" d="M187.465,133.116c0,0.558-1.126,0.957-2.651,0.957c-1.521,0-2.646-0.399-2.646-0.957v-24.323h-6.742
				v24.323c0,0.558-1.206,0.957-2.732,0.957c-1.446,0-2.646-0.399-2.646-0.957V84.071c0-2.473,3.933-4.387,8.748-4.387
				c4.817,0,8.67,1.914,8.67,4.387V133.116z M182.167,104.005v-18.26c0-0.877-1.526-1.594-3.372-1.594
				c-1.929,0-3.37,0.717-3.37,1.594v18.26H182.167z"/>
			<path fill="#FFFFFF" d="M170.003,144.13c0-2.39,3.932-4.306,8.747-4.306c4.819,0,8.752,1.917,8.752,4.306v5.263
				c0,0.557-1.203,0.881-2.729,0.881c-1.443,0-2.649-0.324-2.649-0.881v-3.507c0-0.877-1.525-1.674-3.373-1.674
				c-1.842,0-3.369,0.796-3.369,1.674v17.543c0,0.877,1.527,1.674,3.369,1.674c4.819,0,8.752,1.914,8.752,4.304v20.818
				c0,2.471-3.933,4.385-8.752,4.385c-4.815,0-8.747-1.914-8.747-4.385v-5.184c0-0.558,1.203-0.959,2.729-0.959
				c1.445,0,2.648,0.401,2.648,0.959v3.51c0,0.878,1.527,1.593,3.369,1.593c1.848,0,3.373-0.715,3.373-1.593v-16.99
				c0-0.956-1.525-1.673-3.373-1.673c-4.815,0-8.747-1.914-8.747-4.306V144.13z"/>
			<path fill="#FFFFFF" d="M145.844,141.18c0-0.56,1.126-0.959,2.651-0.959c1.523,0,2.646,0.399,2.646,0.959v24.32h6.742v-24.32
				c0-0.56,1.207-0.959,2.729-0.959c1.446,0,2.653,0.399,2.653,0.959v49.044c0,2.471-3.938,4.385-8.752,4.385
				c-4.815,0-8.671-1.914-8.671-4.385V141.18z M151.142,170.287v18.264c0,0.878,1.526,1.593,3.373,1.593
				c1.927,0,3.369-0.715,3.369-1.593v-18.264H151.142z"/>
			<path fill="#FFFFFF" d="M111.329,141.18c0-0.56,1.126-0.959,2.649-0.959c1.527,0,2.649,0.399,2.649,0.959v47.37
				c0,0.878,0.964,1.593,2.891,1.593c1.846,0,2.811-0.715,2.811-1.593v-47.37c0-0.56,1.203-0.959,2.647-0.959
				c1.526,0,2.729,0.399,2.729,0.959v47.37c0,0.878,0.965,1.593,2.811,1.593c1.848,0,2.809-0.715,2.809-1.593v-47.37
				c0-0.56,1.205-0.959,2.729-0.959c1.448,0,2.649,0.399,2.649,0.959v49.044c0,2.471-3.37,4.385-8.187,4.385
				c-1.928,0-4.337-0.8-5.54-1.596c-1.122,0.796-3.531,1.596-5.458,1.596c-4.816,0-8.189-1.914-8.189-4.385V141.18z"/>
			<path fill="#FFFFFF" d="M87.325,141.18c0-0.56,1.121-0.959,2.648-0.959c1.523,0,2.648,0.399,2.648,0.959v24.32h6.743v-24.32
				c0-0.56,1.203-0.959,2.727-0.959c1.446,0,2.651,0.399,2.651,0.959v49.044c0,2.471-3.933,4.385-8.749,4.385
				c-4.817,0-8.669-1.914-8.669-4.385V141.18z M92.622,170.287v18.264c0,0.878,1.525,1.593,3.372,1.593
				c1.922,0,3.371-0.715,3.371-1.593v-18.264H92.622z"/>
		</g>
		<path fill="#F26B21" d="M137.155,272.227c-74.482,0-135.08-60.597-135.08-135.081c0-74.483,60.598-135.081,135.08-135.081
			c74.484,0,135.082,60.598,135.082,135.081C272.237,211.63,211.64,272.227,137.155,272.227z M137.155,9.023
			C66.51,9.023,9.031,66.499,9.031,137.146S66.51,265.271,137.155,265.271c70.648,0,128.123-57.478,128.123-128.125
			S207.804,9.023,137.155,9.023z"/>
		<circle fill="#F26B21" cx="229.218" cy="229.988" r="31.361"/>
		
			<text transform="matrix(1.0065 0 0 1 204.8955 237.8667)" display="none" fill="#FFFFFF" font-family="'Nord-Regular'" font-size="30.071">games</text>
		<g>
			<path fill="#FFFFFF" d="M212.736,241.536c0,0.933-1.453,1.654-3.27,1.654s-3.3-0.722-3.3-1.654v-5.864
				c0-0.722,0.938-1.354,2.271-1.564v-2.526c-1.332-0.181-2.271-0.812-2.271-1.564v-5.834c0-0.933,1.483-1.654,3.3-1.654
				s3.27,0.722,3.27,1.654v5.834c0,0.752-0.938,1.383-2.271,1.564v2.526c1.332,0.21,2.271,0.842,2.271,1.564V241.536z
				 M210.738,224.814c0-0.331-0.575-0.631-1.271-0.631c-0.727,0-1.271,0.301-1.271,0.631v4.542c0,0.361,0.545,0.662,1.271,0.662
				c0.696,0,1.271-0.301,1.271-0.662V224.814z M210.738,236.333c0-0.361-0.575-0.632-1.271-0.632c-0.727,0-1.271,0.271-1.271,0.632
				v4.571c0,0.331,0.545,0.602,1.271,0.602c0.696,0,1.271-0.271,1.271-0.602V236.333z"/>
			<path fill="#FFFFFF" d="M221.907,236.513c0,0.933-1.483,1.654-3.3,1.654s-3.3-0.722-3.3-1.654V231.4
				c0-0.902,1.483-1.624,3.3-1.624h1.271v-4.962c0-0.331-0.575-0.631-1.271-0.631s-1.271,0.301-1.271,0.631v1.323
				c0,0.211-0.454,0.331-0.999,0.331c-0.575,0-1.029-0.12-1.029-0.331v-1.955c0-0.933,1.483-1.654,3.3-1.654s3.3,0.722,3.3,1.654
				V236.513z M219.879,231.581h-1.271c-0.696,0-1.271,0.271-1.271,0.602v3.699c0,0.331,0.575,0.631,1.271,0.631
				s1.271-0.301,1.271-0.631V231.581z"/>
			<path fill="#FFFFFF" d="M235.256,237.656c0,0.21-0.424,0.361-0.999,0.361s-0.999-0.15-0.999-0.361v-12.692
				c0-0.331-0.363-0.602-1.09-0.602c-0.696,0-1.06,0.271-1.06,0.602v12.692c0,0.21-0.454,0.361-0.999,0.361
				c-0.575,0-1.029-0.15-1.029-0.361v-12.692c0-0.331-0.363-0.602-1.06-0.602s-1.06,0.271-1.06,0.602v12.692
				c0,0.21-0.454,0.361-1.029,0.361c-0.545,0-0.999-0.15-0.999-0.361v-13.323c0-0.933,1.271-1.654,3.088-1.654
				c0.727,0,1.635,0.301,2.089,0.602c0.424-0.301,1.332-0.602,2.059-0.602c1.816,0,3.088,0.722,3.088,1.654V237.656z"/>
			<path fill="#FFFFFF" d="M244.85,236.513c0,0.933-1.453,1.654-3.27,1.654s-3.3-0.722-3.3-1.654v-12.331
				c0-0.933,1.483-1.654,3.3-1.654s3.27,0.722,3.27,1.654v5.113c0,0.902-1.453,1.624-3.27,1.624h-1.271v4.962
				c0,0.331,0.545,0.631,1.271,0.631c0.696,0,1.271-0.301,1.271-0.631v-1.323c0-0.21,0.424-0.331,0.999-0.331
				s0.999,0.121,0.999,0.331V236.513z M242.852,224.814c0-0.331-0.575-0.631-1.271-0.631c-0.727,0-1.271,0.301-1.271,0.631v4.301
				h1.271c0.696,0,1.271-0.271,1.271-0.602V224.814z"/>
			<path fill="#FFFFFF" d="M253.778,236.543c0,0.902-1.483,1.624-3.3,1.624s-3.3-0.722-3.3-1.624v-1.985
				c0-0.21,0.454-0.331,1.029-0.331c0.545,0,0.999,0.121,0.999,0.331v1.323c0,0.331,0.575,0.631,1.271,0.631
				s1.271-0.301,1.271-0.631v-4.121c0-0.331-0.575-0.601-1.271-0.601c-1.816,0-3.3-0.722-3.3-1.654v-5.323
				c0-0.933,1.483-1.654,3.3-1.654s3.3,0.722,3.3,1.654v1.955c0,0.211-0.454,0.331-1.029,0.331c-0.545,0-0.999-0.12-0.999-0.331
				v-1.323c0-0.331-0.575-0.631-1.271-0.631s-1.271,0.301-1.271,0.631v3.88c0,0.361,0.575,0.662,1.271,0.662
				c1.816,0,3.3,0.722,3.3,1.624V236.543z"/>
		</g>
	</g>
</g>
</svg>
