<?xml version="1.0" encoding="utf-8"?>
<!-- Generator: Adobe Illustrator 16.0.0, SVG Export Plug-In . SVG Version: 6.00 Build 0)  -->
<!DOCTYPE svg PUBLIC "-//W3C//DTD SVG 1.1//EN" "http://www.w3.org/Graphics/SVG/1.1/DTD/svg11.dtd">
<svg version="1.1" xmlns="http://www.w3.org/2000/svg" xmlns:xlink="http://www.w3.org/1999/xlink" x="0px" y="0px"
	 width="324.343px" height="156.875px" viewBox="0 0 324.343 156.875" enable-background="new 0 0 324.343 156.875"
	 xml:space="preserve">
<g id="Share_a">
	<rect y="0.87" fill="none" width="324.343" height="126.005"/>
	<text transform="matrix(1 0 0 1 86.668 52.7393)" display="none"><tspan x="0" y="0" display="inline" fill="#FA6900" font-family="'Blanch-CondensedLight'" font-size="78">share </tspan><tspan x="126.514" y="0" display="inline" fill="#FA6900" font-family="'Blanch-Condensed'" font-size="78">a</tspan><tspan x="151.004" y="0" display="inline" fill="#FA6900" font-family="'Blanch-CondensedLight'" font-size="78"> </tspan><tspan x="-5.967" y="65" display="inline" fill="#FA6900" font-family="'Blanch-Condensed'" font-size="78">moment</tspan></text>
	
		<text transform="matrix(1.0065 0 0 1 61.9258 150.7988)" display="none" fill="#FA6900" font-family="'Nord-Regular'" font-size="26">games by SAMA SAMA studios.</text>
	<g>
		<path fill="#FFFFFF" d="M2.236,45.875v-1.482c0-0.259,0.129-0.39,0.389-0.39h0.156c0.207,0,0.312,0.13,0.312,0.39v1.482
			c0,1.665,0.598,3.094,1.793,4.29c1.197,1.197,2.625,1.794,4.291,1.794c1.664,0,3.094-0.597,4.289-1.794
			c1.195-1.195,1.795-2.625,1.795-4.29v-5.928c0-0.519-0.014-0.936-0.039-1.248c-0.027-0.312-0.17-0.675-0.43-1.092L3.484,17.795
			c-0.312-0.572-0.561-1.026-0.742-1.365c-0.182-0.337-0.299-0.636-0.352-0.897c-0.051-0.156-0.09-0.351-0.115-0.585
			c-0.027-0.234-0.039-0.61-0.039-1.131V7.811c0-1.923,0.674-3.561,2.027-4.914c1.352-1.352,2.99-2.028,4.914-2.028
			s3.561,0.677,4.914,2.028c1.352,1.353,2.027,2.991,2.027,4.914v1.482c0,0.261-0.131,0.39-0.391,0.39h-0.154
			c-0.209,0-0.312-0.129-0.312-0.39V7.811c0-1.664-0.6-3.093-1.795-4.29c-1.195-1.196-2.625-1.794-4.289-1.794
			c-1.666,0-3.094,0.599-4.291,1.794c-1.195,1.197-1.793,2.626-1.793,4.29v6.006c0,0.521,0.012,0.924,0.039,1.209
			c0.025,0.286,0.168,0.663,0.428,1.131l11.311,19.812c0.312,0.573,0.559,1.027,0.742,1.365c0.182,0.338,0.297,0.612,0.35,0.819
			c0.104,0.208,0.156,0.807,0.156,1.794v5.928c0,1.924-0.676,3.549-2.027,4.875c-1.354,1.326-2.99,1.989-4.914,1.989
			s-3.562-0.663-4.914-1.989C2.91,49.424,2.236,47.8,2.236,45.875z"/>
		<path fill="#FFFFFF" d="M38.816,52.427V27.233H26.648v25.194c0,0.208-0.104,0.312-0.311,0.312h-0.156
			c-0.209,0-0.312-0.104-0.312-0.312V1.259c0-0.26,0.104-0.39,0.312-0.39h0.156c0.207,0,0.311,0.13,0.311,0.39v25.194h12.168V1.259
			c0-0.26,0.104-0.39,0.312-0.39h0.156c0.26,0,0.391,0.13,0.391,0.39v51.168c0,0.208-0.131,0.312-0.391,0.312h-0.156
			C38.92,52.739,38.816,52.636,38.816,52.427z"/>
		<path fill="#FFFFFF" d="M50.281,7.811c0-1.923,0.676-3.561,2.029-4.914c1.352-1.352,2.988-2.028,4.914-2.028
			c0.936,0,1.818,0.183,2.652,0.546c0.83,0.365,1.559,0.858,2.184,1.482c0.623,0.624,1.117,1.365,1.482,2.223
			c0.361,0.858,0.545,1.755,0.545,2.691v44.616c0,0.208-0.105,0.312-0.312,0.312h-0.156c-0.26,0-0.389-0.104-0.389-0.312V27.155
			h-12.09v25.272c0,0.208-0.131,0.312-0.391,0.312h-0.156c-0.209,0-0.312-0.104-0.312-0.312V7.811z M63.23,26.297V7.811
			c0-0.831-0.156-1.625-0.469-2.379c-0.312-0.753-0.74-1.404-1.287-1.95c-0.545-0.546-1.184-0.975-1.91-1.287
			c-0.729-0.312-1.51-0.468-2.34-0.468c-1.666,0-3.096,0.599-4.291,1.794c-1.197,1.197-1.793,2.626-1.793,4.29v18.486H63.23z"/>
		<path fill="#FFFFFF" d="M88.268,20.291c0,1.509-0.43,2.847-1.287,4.017s-1.963,1.989-3.314,2.457
			c1.352,0.521,2.457,1.365,3.314,2.535s1.287,2.509,1.287,4.017v19.11c0,0.208-0.131,0.312-0.391,0.312h-0.156
			c-0.207,0-0.311-0.104-0.311-0.312v-19.11c0-1.664-0.6-3.093-1.795-4.29c-1.197-1.196-2.627-1.794-4.289-1.794h-6.084v25.194
			c0,0.208-0.105,0.312-0.312,0.312h-0.156c-0.262,0-0.391-0.104-0.391-0.312V1.337c0-0.312,0.156-0.468,0.469-0.468h6.475
			c1.922,0,3.561,0.677,4.912,2.028c1.354,1.353,2.029,2.991,2.029,4.914V20.291z M81.326,26.375c1.662,0,3.092-0.598,4.289-1.794
			c1.195-1.195,1.795-2.625,1.795-4.29V7.811c0-1.664-0.6-3.093-1.795-4.29c-1.197-1.196-2.627-1.794-4.289-1.794h-6.084v24.648
			H81.326z"/>
		<path fill="#FFFFFF" d="M107.299,1.727h-7.645v24.648h7.645c0.207,0,0.312,0.104,0.312,0.312v0.234
			c0,0.208-0.105,0.312-0.312,0.312h-7.645v24.726h7.645c0.207,0,0.312,0.104,0.312,0.312v0.156c0,0.208-0.105,0.312-0.312,0.312
			h-8.111c-0.262,0-0.391-0.129-0.391-0.39V1.337c0-0.312,0.129-0.468,0.391-0.468h8.111c0.207,0,0.312,0.13,0.312,0.39v0.156
			C107.611,1.624,107.506,1.727,107.299,1.727z"/>
		<path fill="#FFFFFF" d="M138.576,0.869c1.248,0,2.404,0.234,3.471,0.702c1.064,0.468,2.016,1.119,2.848,1.95
			c0.83,0.832,1.482,1.794,1.949,2.886c0.469,1.092,0.703,2.262,0.703,3.51v41.574c0,0.833-0.418,1.248-1.248,1.248h-2.496
			c-0.834,0-1.248-0.416-1.248-1.248v-22.23h-8.035v22.23c0,0.833-0.416,1.248-1.248,1.248h-2.496c-0.311,0-0.598-0.117-0.857-0.351
			s-0.391-0.533-0.391-0.897V9.917c0-1.248,0.234-2.418,0.703-3.51c0.467-1.092,1.117-2.054,1.949-2.886
			c0.832-0.832,1.795-1.482,2.887-1.95C136.158,1.103,137.328,0.869,138.576,0.869z M142.555,24.269V9.917
			c0-1.144-0.391-2.106-1.17-2.886c-0.781-0.78-1.717-1.17-2.809-1.17c-1.145,0-2.105,0.39-2.887,1.17
			c-0.779,0.78-1.17,1.743-1.17,2.886v14.352H142.555z"/>
		<path fill="#FFFFFF" d="M187.246,0.869c1.248,0,2.418,0.234,3.51,0.702c1.094,0.468,2.055,1.119,2.887,1.95
			c0.832,0.832,1.482,1.794,1.949,2.886c0.469,1.092,0.703,2.262,0.703,3.51v41.574c0,0.364-0.131,0.663-0.391,0.897
			s-0.545,0.351-0.857,0.351h-2.496c-0.832,0-1.248-0.416-1.248-1.248V9.917c0-1.144-0.391-2.106-1.17-2.886s-1.742-1.17-2.887-1.17
			c-1.092,0-2.027,0.39-2.807,1.17c-0.781,0.78-1.17,1.743-1.17,2.886v41.574c0,0.833-0.418,1.248-1.248,1.248h-2.496
			c-0.834,0-1.248-0.416-1.248-1.248V9.917c0-1.144-0.391-2.106-1.17-2.886c-0.781-0.78-1.717-1.17-2.809-1.17
			c-1.145,0-2.105,0.39-2.887,1.17c-0.779,0.78-1.17,1.743-1.17,2.886v41.574c0,0.833-0.416,1.248-1.248,1.248h-2.496
			c-0.311,0-0.598-0.117-0.857-0.351s-0.391-0.533-0.391-0.897V9.917c0-1.248,0.234-2.418,0.703-3.51
			c0.467-1.092,1.117-2.054,1.949-2.886c0.832-0.832,1.795-1.482,2.887-1.95c1.092-0.468,2.262-0.702,3.51-0.702
			s2.43,0.248,3.549,0.741c1.117,0.495,2.092,1.183,2.926,2.067c0.83-0.884,1.805-1.572,2.924-2.067
			C184.814,1.117,185.998,0.869,187.246,0.869z"/>
		<path fill="#FFFFFF" d="M211.814,0.869c1.248,0,2.406,0.234,3.473,0.702c1.064,0.468,2.014,1.119,2.846,1.95
			c0.832,0.832,1.482,1.794,1.951,2.886c0.467,1.092,0.701,2.262,0.701,3.51v33.852c0,1.248-0.234,2.418-0.701,3.51
			c-0.469,1.092-1.119,2.042-1.951,2.847c-0.832,0.807-1.781,1.443-2.846,1.911c-1.066,0.468-2.225,0.702-3.473,0.702
			s-2.418-0.234-3.51-0.702c-1.092-0.468-2.055-1.104-2.885-1.911c-0.832-0.806-1.482-1.755-1.951-2.847
			c-0.467-1.092-0.701-2.262-0.701-3.51V9.917c0-1.248,0.234-2.418,0.701-3.51c0.469-1.092,1.119-2.054,1.951-2.886
			c0.83-0.832,1.793-1.482,2.885-1.95C209.396,1.103,210.566,0.869,211.814,0.869z M215.793,9.917c0-1.144-0.389-2.106-1.17-2.886
			c-0.779-0.78-1.715-1.17-2.809-1.17c-1.143,0-2.105,0.39-2.885,1.17c-0.781,0.78-1.17,1.743-1.17,2.886v33.852
			c0,1.092,0.389,2.028,1.17,2.808c0.779,0.78,1.742,1.17,2.885,1.17c1.094,0,2.029-0.39,2.809-1.17
			c0.781-0.78,1.17-1.716,1.17-2.808V9.917z"/>
		<path fill="#FFFFFF" d="M249.254,0.869c1.248,0,2.418,0.234,3.51,0.702c1.094,0.468,2.055,1.119,2.887,1.95
			c0.832,0.832,1.482,1.794,1.949,2.886c0.469,1.092,0.703,2.262,0.703,3.51v41.574c0,0.364-0.131,0.663-0.391,0.897
			s-0.545,0.351-0.857,0.351h-2.496c-0.832,0-1.248-0.416-1.248-1.248V9.917c0-1.144-0.391-2.106-1.17-2.886s-1.742-1.17-2.887-1.17
			c-1.092,0-2.027,0.39-2.807,1.17c-0.781,0.78-1.17,1.743-1.17,2.886v41.574c0,0.833-0.418,1.248-1.248,1.248h-2.496
			c-0.834,0-1.248-0.416-1.248-1.248V9.917c0-1.144-0.391-2.106-1.17-2.886c-0.781-0.78-1.717-1.17-2.809-1.17
			c-1.145,0-2.105,0.39-2.887,1.17c-0.779,0.78-1.17,1.743-1.17,2.886v41.574c0,0.833-0.416,1.248-1.248,1.248h-2.496
			c-0.311,0-0.598-0.117-0.857-0.351s-0.391-0.533-0.391-0.897V9.917c0-1.248,0.234-2.418,0.703-3.51
			c0.467-1.092,1.117-2.054,1.949-2.886c0.832-0.832,1.795-1.482,2.887-1.95c1.092-0.468,2.262-0.702,3.51-0.702
			s2.43,0.248,3.549,0.741c1.117,0.495,2.092,1.183,2.926,2.067c0.83-0.884,1.805-1.572,2.924-2.067
			C246.822,1.117,248.006,0.869,249.254,0.869z"/>
		<path fill="#FFFFFF" d="M269.768,5.861v18.486h6.785c0.832,0,1.248,0.417,1.248,1.248v2.496c0,0.312-0.117,0.598-0.352,0.858
			c-0.232,0.261-0.533,0.39-0.896,0.39h-6.785v18.408h6.785c0.363,0,0.664,0.13,0.896,0.39c0.234,0.261,0.352,0.546,0.352,0.858
			v2.496c0,0.833-0.416,1.248-1.248,1.248h-9.281c-0.729,0-1.326-0.234-1.795-0.702c-0.467-0.468-0.701-1.065-0.701-1.794V3.365
			c0-0.675,0.234-1.26,0.701-1.755c0.469-0.494,1.066-0.741,1.795-0.741h9.281c0.363,0,0.664,0.13,0.896,0.39
			c0.234,0.261,0.352,0.546,0.352,0.858v2.496c0,0.833-0.416,1.248-1.248,1.248H269.768z"/>
		<path fill="#FFFFFF" d="M293.322,0.869c1.248,0,2.406,0.234,3.473,0.702c1.064,0.468,2.014,1.119,2.846,1.95
			c0.832,0.832,1.482,1.794,1.951,2.886c0.467,1.092,0.701,2.262,0.701,3.51v41.574c0,0.833-0.416,1.248-1.248,1.248h-2.496
			c-0.832,0-1.248-0.416-1.248-1.248V9.917c0-1.144-0.389-2.106-1.17-2.886c-0.779-0.78-1.715-1.17-2.809-1.17
			c-1.143,0-2.105,0.39-2.885,1.17c-0.781,0.78-1.17,1.743-1.17,2.886v41.574c0,0.833-0.418,1.248-1.248,1.248h-2.496
			c-0.832,0-1.248-0.416-1.248-1.248V9.917c0-1.248,0.234-2.418,0.701-3.51c0.469-1.092,1.119-2.054,1.951-2.886
			c0.83-0.832,1.793-1.482,2.885-1.95C290.904,1.103,292.074,0.869,293.322,0.869z"/>
		<path fill="#FFFFFF" d="M319.803,1.259c0.234,0.261,0.352,0.546,0.352,0.858v2.496c0,0.833-0.416,1.248-1.248,1.248h-3.51v45.63
			c0,0.833-0.416,1.248-1.248,1.248h-2.496c-0.832,0-1.248-0.416-1.248-1.248V5.861h-3.51c-0.832,0-1.248-0.416-1.248-1.248V2.117
			c0-0.312,0.117-0.597,0.352-0.858c0.234-0.26,0.531-0.39,0.896-0.39h12.012C319.27,0.869,319.57,1,319.803,1.259z"/>
		<path fill="#FFFFFF" d="M46.773,65.869c1.248,0,2.404,0.234,3.471,0.702c1.064,0.468,2.014,1.119,2.846,1.95
			c0.832,0.832,1.482,1.794,1.951,2.886c0.467,1.092,0.701,2.262,0.701,3.51v10.374c0,1.248-0.234,2.418-0.701,3.51
			c-0.469,1.092-1.119,2.042-1.951,2.847c-0.832,0.807-1.781,1.443-2.846,1.911c-1.066,0.468-2.223,0.702-3.471,0.702h-4.057v22.23
			c0,0.364-0.117,0.663-0.352,0.897s-0.506,0.351-0.818,0.351h-2.496c-0.832,0-1.248-0.416-1.248-1.248v-22.23v-4.992V67.195v-0.078
			c0-0.312,0.117-0.597,0.352-0.858c0.232-0.26,0.531-0.39,0.896-0.39H46.773z M50.75,74.917c0-1.144-0.389-2.106-1.17-2.886
			c-0.779-0.78-1.715-1.17-2.807-1.17h-4.057v18.408h4.057c1.092,0,2.027-0.39,2.807-1.17c0.781-0.78,1.17-1.716,1.17-2.808V74.917z
			"/>
		<path fill="#FFFFFF" d="M73.254,113.137c0.232,0.261,0.35,0.546,0.35,0.858v2.496c0,0.833-0.416,1.248-1.248,1.248h-9.203
			c-0.729,0-1.326-0.234-1.795-0.702c-0.467-0.468-0.701-1.065-0.701-1.794V67.117c0-0.312,0.117-0.597,0.352-0.858
			c0.232-0.26,0.531-0.39,0.896-0.39H64.4c0.312,0,0.598,0.13,0.857,0.39c0.26,0.261,0.391,0.546,0.391,0.858v45.63h6.707
			C72.719,112.747,73.02,112.877,73.254,113.137z"/>
		<path fill="#FFFFFF" d="M88.346,65.869c1.248,0,2.404,0.234,3.471,0.702c1.064,0.468,2.016,1.119,2.848,1.95
			c0.83,0.832,1.482,1.794,1.949,2.886c0.469,1.092,0.703,2.262,0.703,3.51v41.574c0,0.833-0.418,1.248-1.248,1.248h-2.496
			c-0.834,0-1.248-0.416-1.248-1.248v-22.23h-8.035v22.23c0,0.833-0.416,1.248-1.248,1.248h-2.496c-0.311,0-0.598-0.117-0.857-0.351
			s-0.391-0.533-0.391-0.897V74.917c0-1.248,0.234-2.418,0.703-3.51c0.467-1.092,1.117-2.054,1.949-2.886
			c0.832-0.832,1.795-1.482,2.887-1.95C85.928,66.103,87.098,65.869,88.346,65.869z M92.324,89.269V74.917
			c0-1.144-0.391-2.106-1.17-2.886c-0.781-0.78-1.717-1.17-2.809-1.17c-1.145,0-2.105,0.39-2.887,1.17
			c-0.779,0.78-1.17,1.743-1.17,2.886v14.352H92.324z"/>
		<path fill="#FFFFFF" d="M120.676,66.259c0.234,0.261,0.352,0.546,0.352,0.858v18.174c0,2.081-0.611,3.9-1.834,5.46
			c-1.223,1.56-2.768,2.626-4.641,3.198v22.542c0,0.364-0.131,0.663-0.391,0.897s-0.545,0.351-0.857,0.351h-2.496
			c-0.832,0-1.248-0.416-1.248-1.248V93.949c-1.924-0.572-3.498-1.638-4.719-3.198c-1.223-1.56-1.832-3.38-1.832-5.46V67.117
			c0-0.312,0.115-0.597,0.35-0.858c0.234-0.26,0.533-0.39,0.898-0.39h2.494c0.363,0,0.664,0.13,0.898,0.39
			c0.234,0.261,0.35,0.546,0.35,0.858v18.174c0,1.092,0.391,2.028,1.17,2.808c0.781,0.78,1.742,1.17,2.887,1.17
			c1.092,0,2.027-0.39,2.809-1.17c0.779-0.78,1.17-1.716,1.17-2.808V67.117c0-0.312,0.117-0.597,0.352-0.858
			c0.232-0.26,0.531-0.39,0.896-0.39h2.496C120.143,65.869,120.441,66,120.676,66.259z"/>
		<path fill="#FFFFFF" d="M137.951,72.811c0-1.923,0.676-3.561,2.029-4.914c1.352-1.352,2.988-2.028,4.914-2.028
			c0.936,0,1.818,0.183,2.652,0.546c0.83,0.365,1.559,0.858,2.184,1.482c0.623,0.624,1.117,1.365,1.482,2.223
			c0.361,0.858,0.545,1.755,0.545,2.691v44.616c0,0.208-0.105,0.312-0.312,0.312h-0.156c-0.26,0-0.389-0.104-0.389-0.312V92.155
			h-12.09v25.272c0,0.208-0.131,0.312-0.391,0.312h-0.156c-0.209,0-0.312-0.104-0.312-0.312V72.811z M150.9,91.297V72.811
			c0-0.831-0.156-1.625-0.469-2.379c-0.312-0.753-0.74-1.404-1.287-1.95c-0.545-0.546-1.184-0.975-1.91-1.287
			c-0.729-0.312-1.51-0.468-2.34-0.468c-1.666,0-3.096,0.599-4.291,1.794c-1.197,1.197-1.793,2.626-1.793,4.29v18.486H150.9z"/>
		<path fill="#FFFFFF" d="M180.539,65.869c1.922,0,3.561,0.677,4.914,2.028c1.352,1.353,2.027,2.991,2.027,4.914v1.482
			c0,0.261-0.131,0.39-0.391,0.39h-0.154c-0.209,0-0.312-0.129-0.312-0.39v-1.482c0-1.664-0.6-3.093-1.795-4.29
			c-1.197-1.196-2.625-1.794-4.289-1.794c-1.666,0-3.096,0.599-4.291,1.794c-1.195,1.197-1.793,2.626-1.793,4.29v38.064
			c0,1.665,0.598,3.094,1.793,4.29c1.195,1.197,2.625,1.794,4.291,1.794c1.664,0,3.092-0.597,4.289-1.794
			c1.195-1.195,1.795-2.625,1.795-4.29v-18.72h-3.666c-0.209,0-0.312-0.104-0.312-0.312v-0.234c0-0.208,0.104-0.312,0.312-0.312
			h4.133c0.26,0,0.391,0.104,0.391,0.312v19.266c0,1.924-0.676,3.549-2.027,4.875c-1.354,1.326-2.992,1.989-4.914,1.989
			c-1.926,0-3.549-0.663-4.875-1.989c-1.326-1.326-1.99-2.951-1.99-4.875V72.811c0-1.923,0.664-3.561,1.99-4.914
			C176.99,66.546,178.613,65.869,180.539,65.869z"/>
		<path fill="#FFFFFF" d="M198.088,72.811c0-1.923,0.676-3.561,2.027-4.914c1.352-1.352,2.99-2.028,4.914-2.028
			c0.936,0,1.82,0.183,2.652,0.546c0.832,0.365,1.561,0.858,2.184,1.482c0.625,0.624,1.117,1.365,1.482,2.223
			c0.363,0.858,0.547,1.755,0.547,2.691v44.616c0,0.208-0.105,0.312-0.312,0.312h-0.156c-0.262,0-0.391-0.104-0.391-0.312V92.155
			h-12.09v25.272c0,0.208-0.131,0.312-0.389,0.312H198.4c-0.209,0-0.312-0.104-0.312-0.312V72.811z M211.035,91.297V72.811
			c0-0.831-0.156-1.625-0.467-2.379c-0.312-0.753-0.742-1.404-1.287-1.95c-0.547-0.546-1.184-0.975-1.912-1.287
			s-1.508-0.468-2.34-0.468c-1.664,0-3.094,0.599-4.289,1.794c-1.197,1.197-1.795,2.626-1.795,4.29v18.486H211.035z"/>
		<path fill="#FFFFFF" d="M235.994,70.471c0.469-1.352,1.287-2.457,2.457-3.315s2.51-1.287,4.018-1.287
			c1.924,0,3.561,0.677,4.914,2.028c1.352,1.353,2.027,2.991,2.027,4.914v44.616c0,0.208-0.129,0.312-0.389,0.312h-0.156
			c-0.209,0-0.312-0.104-0.312-0.312V72.811c0-1.664-0.598-3.093-1.793-4.29c-1.197-1.196-2.627-1.794-4.291-1.794
			s-3.094,0.599-4.289,1.794c-1.197,1.197-1.795,2.626-1.795,4.29v44.616c0,0.208-0.105,0.312-0.312,0.312h-0.156
			c-0.207,0-0.311-0.104-0.311-0.312V72.811c0-1.664-0.6-3.093-1.795-4.29c-1.197-1.196-2.627-1.794-4.289-1.794
			c-1.666,0-3.096,0.599-4.291,1.794c-1.197,1.197-1.793,2.626-1.793,4.29v44.616c0,0.208-0.105,0.312-0.312,0.312h-0.156
			c-0.26,0-0.391-0.104-0.391-0.312V72.811c0-1.923,0.676-3.561,2.029-4.914c1.352-1.352,2.988-2.028,4.914-2.028
			c1.508,0,2.846,0.429,4.016,1.287S235.527,69.12,235.994,70.471z"/>
		<path fill="#FFFFFF" d="M268.598,66.727h-7.645v24.648h7.645c0.207,0,0.312,0.104,0.312,0.312v0.234
			c0,0.208-0.105,0.312-0.312,0.312h-7.645v24.726h7.645c0.207,0,0.312,0.104,0.312,0.312v0.156c0,0.208-0.105,0.312-0.312,0.312
			h-8.111c-0.262,0-0.391-0.129-0.391-0.39V66.337c0-0.312,0.129-0.468,0.391-0.468h8.111c0.207,0,0.312,0.13,0.312,0.39v0.156
			C268.91,66.624,268.805,66.727,268.598,66.727z"/>
		<path fill="#FFFFFF" d="M284.588,108.613c0,0.833-0.418,1.248-1.248,1.248h-2.496c-0.832,0-1.248-0.416-1.248-1.248V67.039
			c0-0.831,0.416-1.248,1.248-1.248h2.496c0.83,0,1.248,0.417,1.248,1.248V108.613z M283.34,114.853c0.83,0,1.248,0.417,1.248,1.248
			v5.148c0,0.312-0.117,0.598-0.352,0.858c-0.234,0.259-0.533,0.39-0.896,0.39h-2.496c-0.365,0-0.664-0.13-0.896-0.39
			c-0.234-0.261-0.352-0.546-0.352-0.858v-5.148c0-0.831,0.416-1.248,1.248-1.248H283.34z"/>
	</g>
	<g>
		<path fill="#FFFFFF" d="M68.703,153.971c0,0.806-1.256,1.43-2.826,1.43c-1.569,0-2.853-0.624-2.853-1.43v-5.07
			c0-0.624,0.812-1.17,1.963-1.352v-2.184c-1.151-0.156-1.963-0.702-1.963-1.352v-5.044c0-0.806,1.283-1.43,2.853-1.43
			c1.57,0,2.826,0.624,2.826,1.43v5.044c0,0.65-0.811,1.196-1.962,1.352v2.184c1.151,0.182,1.962,0.728,1.962,1.352V153.971z
			 M66.977,139.515c0-0.286-0.497-0.546-1.1-0.546c-0.628,0-1.099,0.26-1.099,0.546v3.926c0,0.312,0.471,0.572,1.099,0.572
			c0.603,0,1.1-0.26,1.1-0.572V139.515z M66.977,149.473c0-0.312-0.497-0.546-1.1-0.546c-0.628,0-1.099,0.234-1.099,0.546v3.952
			c0,0.286,0.471,0.52,1.099,0.52c0.603,0,1.1-0.234,1.1-0.52V149.473z"/>
		<path fill="#FFFFFF" d="M76.633,149.629c0,0.806-1.282,1.43-2.853,1.43s-2.853-0.624-2.853-1.43v-4.42
			c0-0.78,1.282-1.404,2.853-1.404h1.1v-4.29c0-0.286-0.498-0.546-1.1-0.546s-1.099,0.26-1.099,0.546v1.144
			c0,0.182-0.393,0.286-0.864,0.286c-0.497,0-0.89-0.104-0.89-0.286v-1.69c0-0.806,1.282-1.43,2.853-1.43s2.853,0.624,2.853,1.43
			V149.629z M74.88,145.365h-1.1c-0.602,0-1.099,0.234-1.099,0.52v3.198c0,0.286,0.497,0.546,1.099,0.546s1.1-0.26,1.1-0.546
			V145.365z"/>
		<path fill="#FFFFFF" d="M88.174,150.617c0,0.182-0.367,0.312-0.864,0.312s-0.863-0.13-0.863-0.312v-10.972
			c0-0.286-0.314-0.52-0.942-0.52c-0.602,0-0.916,0.234-0.916,0.52v10.972c0,0.182-0.393,0.312-0.863,0.312
			c-0.497,0-0.89-0.13-0.89-0.312v-10.972c0-0.286-0.314-0.52-0.916-0.52s-0.916,0.234-0.916,0.52v10.972
			c0,0.182-0.393,0.312-0.89,0.312c-0.471,0-0.863-0.13-0.863-0.312v-11.518c0-0.806,1.099-1.43,2.669-1.43
			c0.628,0,1.413,0.26,1.806,0.52c0.366-0.26,1.151-0.52,1.779-0.52c1.57,0,2.67,0.624,2.67,1.43V150.617z"/>
		<path fill="#FFFFFF" d="M96.47,149.629c0,0.806-1.256,1.43-2.826,1.43s-2.853-0.624-2.853-1.43v-10.661
			c0-0.806,1.282-1.43,2.853-1.43s2.826,0.624,2.826,1.43v4.42c0,0.78-1.256,1.404-2.826,1.404h-1.1v4.291
			c0,0.286,0.472,0.546,1.1,0.546c0.602,0,1.099-0.26,1.099-0.546v-1.145c0-0.182,0.366-0.286,0.863-0.286
			c0.498,0,0.864,0.104,0.864,0.286V149.629z M94.742,139.515c0-0.286-0.497-0.546-1.099-0.546c-0.628,0-1.1,0.26-1.1,0.546v3.718
			h1.1c0.602,0,1.099-0.234,1.099-0.52V139.515z"/>
		<path fill="#FFFFFF" d="M104.188,149.655c0,0.78-1.282,1.404-2.853,1.404s-2.853-0.624-2.853-1.404v-1.716
			c0-0.182,0.393-0.286,0.89-0.286c0.472,0,0.864,0.104,0.864,0.286v1.145c0,0.286,0.497,0.546,1.099,0.546s1.1-0.26,1.1-0.546
			v-3.562c0-0.286-0.498-0.52-1.1-0.52c-1.57,0-2.853-0.624-2.853-1.43v-4.602c0-0.806,1.282-1.43,2.853-1.43
			s2.853,0.624,2.853,1.43v1.69c0,0.182-0.393,0.286-0.89,0.286c-0.471,0-0.863-0.104-0.863-0.286v-1.144
			c0-0.286-0.498-0.546-1.1-0.546s-1.099,0.26-1.099,0.546v3.354c0,0.312,0.497,0.572,1.099,0.572c1.57,0,2.853,0.624,2.853,1.404
			V149.655z"/>
		<path fill="#FFFFFF" d="M116.41,149.629c0,0.806-1.256,1.43-2.826,1.43s-2.853-0.624-2.853-1.43v-15.991
			c0-0.182,0.393-0.286,0.863-0.286c0.497,0,0.89,0.104,0.89,0.286v4.212c0.393-0.182,0.838-0.312,1.361-0.312
			c1.7,0,2.564,0.78,2.564,1.43V149.629z M114.683,139.515c0-0.286-0.497-0.546-1.099-0.546c-0.628,0-1.1,0.26-1.1,0.546v9.568
			c0,0.286,0.472,0.546,1.1,0.546c0.602,0,1.099-0.26,1.099-0.546V139.515z"/>
		<path fill="#FFFFFF" d="M124.705,153.971c0,0.806-1.256,1.43-2.826,1.43s-2.853-0.624-2.853-1.43v-1.69
			c0-0.182,0.393-0.312,0.863-0.312c0.497,0,0.89,0.13,0.89,0.312v1.144c0,0.286,0.472,0.52,1.1,0.52
			c0.602,0,1.099-0.234,1.099-0.52v-5.668c-0.419,0.182-0.863,0.312-1.36,0.312c-1.728,0-2.591-0.78-2.591-1.404v-8.684
			c0-0.182,0.393-0.312,0.863-0.312c0.497,0,0.89,0.13,0.89,0.312v8.112c0,0.286,0.472,0.52,1.1,0.52
			c0.602,0,1.099-0.234,1.099-0.52v-8.112c0-0.182,0.366-0.312,0.863-0.312c0.498,0,0.864,0.13,0.864,0.312V153.971z"/>
		<path fill="#FFFFFF" d="M136.952,149.655c0,0.78-1.282,1.404-2.853,1.404s-2.853-0.624-2.853-1.404v-1.716
			c0-0.182,0.393-0.286,0.89-0.286c0.472,0,0.864,0.104,0.864,0.286v1.145c0,0.286,0.497,0.546,1.099,0.546s1.1-0.26,1.1-0.546
			v-5.721c0-0.286-0.498-0.546-1.1-0.546c-1.57,0-2.853-0.624-2.853-1.404v-6.787c0-0.806,1.282-1.43,2.853-1.43
			s2.853,0.624,2.853,1.43v1.69c0,0.182-0.393,0.312-0.89,0.312c-0.471,0-0.863-0.13-0.863-0.312v-1.144
			c0-0.286-0.498-0.52-1.1-0.52s-1.099,0.234-1.099,0.52v5.538c0,0.312,0.497,0.546,1.099,0.546c1.57,0,2.853,0.624,2.853,1.404
			V149.655z"/>
		<path fill="#FFFFFF" d="M144.804,150.617c0,0.182-0.366,0.312-0.864,0.312c-0.497,0-0.863-0.13-0.863-0.312v-7.93h-2.198v7.93
			c0,0.182-0.393,0.312-0.89,0.312c-0.471,0-0.863-0.13-0.863-0.312v-15.991c0-0.806,1.282-1.43,2.853-1.43s2.826,0.624,2.826,1.43
			V150.617z M143.076,141.126v-5.954c0-0.286-0.497-0.52-1.099-0.52c-0.628,0-1.1,0.234-1.1,0.52v5.954H143.076z"/>
		<path fill="#FFFFFF" d="M156.344,150.617c0,0.182-0.367,0.312-0.864,0.312s-0.863-0.13-0.863-0.312v-15.444
			c0-0.286-0.314-0.52-0.942-0.52c-0.602,0-0.916,0.234-0.916,0.52v15.444c0,0.182-0.393,0.312-0.863,0.312
			c-0.497,0-0.89-0.13-0.89-0.312v-15.444c0-0.286-0.314-0.52-0.916-0.52s-0.916,0.234-0.916,0.52v15.444
			c0,0.182-0.393,0.312-0.89,0.312c-0.471,0-0.863-0.13-0.863-0.312v-15.991c0-0.806,1.099-1.43,2.669-1.43
			c0.628,0,1.413,0.26,1.806,0.52c0.366-0.26,1.151-0.52,1.779-0.52c1.57,0,2.67,0.624,2.67,1.43V150.617z"/>
		<path fill="#FFFFFF" d="M164.64,150.617c0,0.182-0.366,0.312-0.864,0.312c-0.497,0-0.863-0.13-0.863-0.312v-7.93h-2.198v7.93
			c0,0.182-0.393,0.312-0.89,0.312c-0.471,0-0.863-0.13-0.863-0.312v-15.991c0-0.806,1.282-1.43,2.853-1.43s2.826,0.624,2.826,1.43
			V150.617z M162.912,141.126v-5.954c0-0.286-0.497-0.52-1.099-0.52c-0.628,0-1.1,0.234-1.1,0.52v5.954H162.912z"/>
		<path fill="#FFFFFF" d="M176.886,149.655c0,0.78-1.282,1.404-2.853,1.404s-2.853-0.624-2.853-1.404v-1.716
			c0-0.182,0.393-0.286,0.89-0.286c0.472,0,0.864,0.104,0.864,0.286v1.145c0,0.286,0.497,0.546,1.099,0.546s1.1-0.26,1.1-0.546
			v-5.721c0-0.286-0.498-0.546-1.1-0.546c-1.57,0-2.853-0.624-2.853-1.404v-6.787c0-0.806,1.282-1.43,2.853-1.43
			s2.853,0.624,2.853,1.43v1.69c0,0.182-0.393,0.312-0.89,0.312c-0.471,0-0.863-0.13-0.863-0.312v-1.144
			c0-0.286-0.498-0.52-1.1-0.52s-1.099,0.234-1.099,0.52v5.538c0,0.312,0.497,0.546,1.099,0.546c1.57,0,2.853,0.624,2.853,1.404
			V149.655z"/>
		<path fill="#FFFFFF" d="M184.737,150.617c0,0.182-0.366,0.312-0.864,0.312c-0.497,0-0.863-0.13-0.863-0.312v-7.93h-2.198v7.93
			c0,0.182-0.393,0.312-0.89,0.312c-0.471,0-0.863-0.13-0.863-0.312v-15.991c0-0.806,1.282-1.43,2.853-1.43s2.826,0.624,2.826,1.43
			V150.617z M183.01,141.126v-5.954c0-0.286-0.497-0.52-1.099-0.52c-0.628,0-1.1,0.234-1.1,0.52v5.954H183.01z"/>
		<path fill="#FFFFFF" d="M196.277,150.617c0,0.182-0.367,0.312-0.864,0.312s-0.863-0.13-0.863-0.312v-15.444
			c0-0.286-0.314-0.52-0.942-0.52c-0.602,0-0.916,0.234-0.916,0.52v15.444c0,0.182-0.393,0.312-0.863,0.312
			c-0.497,0-0.89-0.13-0.89-0.312v-15.444c0-0.286-0.314-0.52-0.916-0.52s-0.916,0.234-0.916,0.52v15.444
			c0,0.182-0.393,0.312-0.89,0.312c-0.471,0-0.863-0.13-0.863-0.312v-15.991c0-0.806,1.099-1.43,2.669-1.43
			c0.628,0,1.413,0.26,1.806,0.52c0.366-0.26,1.151-0.52,1.779-0.52c1.57,0,2.67,0.624,2.67,1.43V150.617z"/>
		<path fill="#FFFFFF" d="M204.573,150.617c0,0.182-0.366,0.312-0.864,0.312c-0.497,0-0.863-0.13-0.863-0.312v-7.93h-2.198v7.93
			c0,0.182-0.393,0.312-0.89,0.312c-0.471,0-0.863-0.13-0.863-0.312v-15.991c0-0.806,1.282-1.43,2.853-1.43s2.826,0.624,2.826,1.43
			V150.617z M202.846,141.126v-5.954c0-0.286-0.497-0.52-1.099-0.52c-0.628,0-1.1,0.234-1.1,0.52v5.954H202.846z"/>
		<path fill="#FFFFFF" d="M216.82,149.655c0,0.78-1.282,1.404-2.853,1.404s-2.853-0.624-2.853-1.404v-1.716
			c0-0.182,0.393-0.286,0.89-0.286c0.472,0,0.864,0.104,0.864,0.286v1.145c0,0.286,0.497,0.546,1.099,0.546s1.1-0.26,1.1-0.546
			v-3.562c0-0.286-0.498-0.52-1.1-0.52c-1.57,0-2.853-0.624-2.853-1.43v-4.602c0-0.806,1.282-1.43,2.853-1.43
			s2.853,0.624,2.853,1.43v1.69c0,0.182-0.393,0.286-0.89,0.286c-0.471,0-0.863-0.104-0.863-0.286v-1.144
			c0-0.286-0.498-0.546-1.1-0.546s-1.099,0.26-1.099,0.546v3.354c0,0.312,0.497,0.572,1.099,0.572c1.57,0,2.853,0.624,2.853,1.404
			V149.655z"/>
		<path fill="#FFFFFF" d="M223.807,139.358h-1.962v11.258c0,0.182-0.393,0.312-0.89,0.312c-0.472,0-0.864-0.13-0.864-0.312v-11.258
			h-1.753c-0.157,0-0.288-0.338-0.288-0.78c0-0.442,0.131-0.78,0.288-0.78h1.753v-4.16c0-0.182,0.393-0.286,0.864-0.286
			c0.497,0,0.89,0.104,0.89,0.286v4.16h1.962c0.184,0,0.288,0.338,0.288,0.78C224.095,139.021,223.99,139.358,223.807,139.358z"/>
		<path fill="#FFFFFF" d="M231.344,149.629c0,0.806-1.256,1.43-2.826,1.43s-2.853-0.624-2.853-1.43V137.98
			c0-0.182,0.393-0.312,0.863-0.312c0.497,0,0.89,0.13,0.89,0.312v11.076c0,0.312,0.472,0.572,1.1,0.572
			c0.602,0,1.099-0.26,1.099-0.572V137.98c0-0.182,0.366-0.312,0.863-0.312c0.498,0,0.864,0.13,0.864,0.312V149.629z"/>
		<path fill="#FFFFFF" d="M239.64,149.629c0,0.806-1.256,1.43-2.826,1.43s-2.853-0.624-2.853-1.43v-10.661
			c0-0.65,0.863-1.43,2.591-1.43c0.497,0,0.941,0.13,1.36,0.312v-4.212c0-0.182,0.366-0.286,0.863-0.286
			c0.498,0,0.864,0.104,0.864,0.286V149.629z M237.912,139.515c0-0.286-0.497-0.546-1.099-0.546c-0.628,0-1.1,0.26-1.1,0.546v9.568
			c0,0.286,0.472,0.546,1.1,0.546c0.602,0,1.099-0.26,1.099-0.546V139.515z"/>
		<path fill="#FFFFFF" d="M244.009,134.782c0,0.182-0.393,0.286-0.89,0.286c-0.471,0-0.863-0.104-0.863-0.286v-1.144
			c0-0.182,0.393-0.286,0.863-0.286c0.497,0,0.89,0.104,0.89,0.286V134.782z M244.009,150.617c0,0.182-0.393,0.312-0.89,0.312
			c-0.471,0-0.863-0.13-0.863-0.312V137.98c0-0.182,0.393-0.312,0.863-0.312c0.497,0,0.89,0.13,0.89,0.312V150.617z"/>
		<path fill="#FFFFFF" d="M252.305,149.629c0,0.806-1.256,1.43-2.826,1.43s-2.853-0.624-2.853-1.43v-10.661
			c0-0.806,1.282-1.43,2.853-1.43s2.826,0.624,2.826,1.43V149.629z M250.577,139.515c0-0.286-0.497-0.546-1.099-0.546
			c-0.628,0-1.1,0.26-1.1,0.546v9.568c0,0.286,0.472,0.546,1.1,0.546c0.602,0,1.099-0.26,1.099-0.546V139.515z"/>
		<path fill="#FFFFFF" d="M260.182,149.655c0,0.78-1.282,1.404-2.853,1.404s-2.853-0.624-2.853-1.404v-1.716
			c0-0.182,0.393-0.286,0.89-0.286c0.472,0,0.864,0.104,0.864,0.286v1.145c0,0.286,0.497,0.546,1.099,0.546s1.1-0.26,1.1-0.546
			v-3.562c0-0.286-0.498-0.52-1.1-0.52c-1.57,0-2.853-0.624-2.853-1.43v-4.602c0-0.806,1.282-1.43,2.853-1.43
			s2.853,0.624,2.853,1.43v1.69c0,0.182-0.393,0.286-0.89,0.286c-0.471,0-0.863-0.104-0.863-0.286v-1.144
			c0-0.286-0.498-0.546-1.1-0.546s-1.099,0.26-1.099,0.546v3.354c0,0.312,0.497,0.572,1.099,0.572c1.57,0,2.853,0.624,2.853,1.404
			V149.655z"/>
		<path fill="#FFFFFF" d="M264.107,150.617c0,0.182-0.393,0.312-0.89,0.312c-0.471,0-0.863-0.13-0.863-0.312v-1.144
			c0-0.156,0.393-0.286,0.863-0.286c0.497,0,0.89,0.13,0.89,0.286V150.617z"/>
	</g>
</g>
</svg>
