<svg width="416" height="855" viewBox="0 0 416 855" fill="none" xmlns="http://www.w3.org/2000/svg">
<g opacity="0.06">
<path fill-rule="evenodd" clip-rule="evenodd" d="M47.6576 3.20639C53.8845 7.06885 59.2718 11.2759 62.0319 16.6744C65.1317 22.7371 64.3285 28.9572 61.3032 35.0949L61.2906 35.1205L61.2777 35.146C55.5685 46.4749 45.6156 51.8736 34.7313 55.2165C25.0149 58.2463 14.3318 56.9089 6.15261 48.9848L6.14777 48.9801C1.16506 44.1428 -0.210894 38.3986 0.0251983 33.1467C0.240187 28.3641 1.81241 23.737 2.91854 20.4816C2.94539 20.4026 2.97195 20.3244 2.99822 20.247C4.83138 14.8031 9.43909 10.3072 13.5382 7.26688C17.7108 4.17194 22.7125 1.58993 26.8072 0.708273C31.0183 -0.225916 35.2966 -0.101598 38.7497 0.400032C41.9754 0.868633 45.4158 1.80514 47.6576 3.20639ZM36.8567 13.2275C34.4918 12.884 31.885 12.8637 29.6443 13.3632L29.6154 13.3697L29.5863 13.3759C27.9518 13.7249 24.656 15.2071 21.3619 17.6504C17.9867 20.1538 15.9556 22.6763 15.3907 24.3577L15.3874 24.3674L15.3841 24.3771C14.1699 27.9535 13.2033 30.9566 13.0789 33.7243C12.9702 36.1417 13.5174 37.9955 15.284 39.7116C19.4408 43.7372 24.8651 44.7066 30.8233 42.8456L30.8389 42.8408L30.8544 42.836C40.1332 39.9881 46.1407 36.1735 49.5776 29.3738C51.4019 25.6616 51.0705 23.8922 50.3789 22.5395C49.348 20.5232 46.6829 17.8901 40.7196 14.1922L40.7031 14.182L40.6866 14.1716C40.695 14.1769 40.6792 14.1707 40.6393 14.1551C40.3798 14.0536 39.1015 13.5536 36.8567 13.2275Z" fill="#EFF0EB"/>
<path fill-rule="evenodd" clip-rule="evenodd" d="M223.658 3.20639C229.884 7.06885 235.272 11.2759 238.032 16.6744C241.132 22.7371 240.329 28.9572 237.303 35.0949L237.291 35.1205L237.278 35.146C231.568 46.4749 221.616 51.8736 210.731 55.2165C201.015 58.2463 190.332 56.9089 182.153 48.9848L182.148 48.9801C177.165 44.1428 175.789 38.3986 176.025 33.1467C176.24 28.3641 177.812 23.737 178.919 20.4816C178.945 20.4026 178.972 20.3244 178.998 20.247C180.831 14.8031 185.439 10.3072 189.538 7.26688C193.711 4.17194 198.712 1.58993 202.807 0.708273C207.018 -0.225916 211.297 -0.101598 214.75 0.400032C217.975 0.868633 221.416 1.80514 223.658 3.20639ZM212.857 13.2275C210.492 12.884 207.885 12.8637 205.644 13.3632L205.615 13.3697L205.586 13.3759C203.952 13.7249 200.656 15.2071 197.362 17.6504C193.987 20.1538 191.956 22.6763 191.391 24.3577L191.387 24.3674L191.384 24.3771C190.17 27.9535 189.203 30.9566 189.079 33.7243C188.97 36.1417 189.517 37.9955 191.284 39.7116C195.441 43.7372 200.865 44.7066 206.823 42.8456L206.839 42.8408L206.854 42.836C216.133 39.9881 222.141 36.1735 225.578 29.3738C227.402 25.6616 227.071 23.8922 226.379 22.5395C225.348 20.5232 222.683 17.8901 216.72 14.1922L216.703 14.182L216.687 14.1716C216.695 14.1769 216.679 14.1707 216.639 14.1551C216.38 14.0536 215.102 13.5536 212.857 13.2275Z" fill="#EFF0EB"/>
<path fill-rule="evenodd" clip-rule="evenodd" d="M399.658 3.20639C405.884 7.06885 411.272 11.2759 414.032 16.6744C417.132 22.7371 416.329 28.9572 413.303 35.0949L413.291 35.1205L413.278 35.146C407.568 46.4749 397.616 51.8736 386.731 55.2165C377.015 58.2463 366.332 56.9089 358.153 48.9848L358.148 48.9801C353.165 44.1428 351.789 38.3986 352.025 33.1467C352.24 28.3641 353.812 23.737 354.919 20.4816C354.945 20.4026 354.972 20.3244 354.998 20.247C356.831 14.8031 361.439 10.3072 365.538 7.26688C369.711 4.17194 374.712 1.58993 378.807 0.708273C383.018 -0.225916 387.297 -0.101598 390.75 0.400032C393.975 0.868633 397.416 1.80514 399.658 3.20639ZM388.857 13.2275C386.492 12.884 383.885 12.8637 381.644 13.3632L381.615 13.3697L381.586 13.3759C379.952 13.7249 376.656 15.2071 373.362 17.6504C369.987 20.1538 367.956 22.6763 367.391 24.3577L367.387 24.3674L367.384 24.3771C366.17 27.9535 365.203 30.9566 365.079 33.7243C364.97 36.1417 365.517 37.9955 367.284 39.7116C371.441 43.7372 376.865 44.7066 382.823 42.8456L382.839 42.8408L382.854 42.836C392.133 39.9881 398.141 36.1735 401.578 29.3738C403.402 25.6616 403.071 23.8922 402.379 22.5395C401.348 20.5232 398.683 17.8901 392.72 14.1922L392.703 14.182L392.687 14.1716C392.695 14.1769 392.679 14.1707 392.639 14.1551C392.38 14.0536 391.102 13.5536 388.857 13.2275Z" fill="#EFF0EB"/>
<path fill-rule="evenodd" clip-rule="evenodd" d="M135.658 91.9037C141.884 95.7661 147.272 99.9732 150.032 105.372C153.132 111.434 152.329 117.655 149.303 123.792L149.291 123.818L149.278 123.843C143.568 135.172 133.616 140.571 122.731 143.914C113.015 146.944 102.332 145.606 94.1526 137.682L94.1478 137.677C89.1651 132.84 87.7891 127.096 88.0252 121.844C88.2402 117.061 89.8124 112.434 90.9185 109.179C90.9454 109.1 90.972 109.022 90.9982 108.944C92.8314 103.5 97.4391 99.0045 101.538 95.9642C105.711 92.8692 110.712 90.2872 114.807 89.4056C119.018 88.4714 123.297 88.5957 126.75 89.0973C129.975 89.5659 133.416 90.5024 135.658 91.9037ZM124.857 101.925C122.492 101.581 119.885 101.561 117.644 102.061L117.615 102.067L117.586 102.073C115.952 102.422 112.656 103.904 109.362 106.348C105.987 108.851 103.956 111.374 103.391 113.055L103.387 113.065L103.384 113.074C102.17 116.651 101.203 119.654 101.079 122.422C100.97 124.839 101.517 126.693 103.284 128.409C107.441 132.434 112.865 133.404 118.823 131.543L118.839 131.538L118.854 131.533C128.133 128.685 134.141 124.871 137.578 118.071C139.402 114.359 139.071 112.589 138.379 111.237C137.348 109.22 134.683 106.587 128.72 102.89L128.703 102.879L128.687 102.869C128.695 102.874 128.679 102.868 128.639 102.852C128.38 102.751 127.102 102.251 124.857 101.925Z" fill="#EFF0EB"/>
<path fill-rule="evenodd" clip-rule="evenodd" d="M311.658 91.9037C317.884 95.7661 323.272 99.9732 326.032 105.372C329.132 111.434 328.329 117.655 325.303 123.792L325.291 123.818L325.278 123.843C319.568 135.172 309.616 140.571 298.731 143.914C289.015 146.944 278.332 145.606 270.153 137.682L270.148 137.677C265.165 132.84 263.789 127.096 264.025 121.844C264.24 117.061 265.812 112.434 266.919 109.179C266.945 109.1 266.972 109.022 266.998 108.944C268.831 103.5 273.439 99.0045 277.538 95.9642C281.711 92.8692 286.712 90.2872 290.807 89.4056C295.018 88.4714 299.297 88.5957 302.75 89.0973C305.975 89.5659 309.416 90.5024 311.658 91.9037ZM300.857 101.925C298.492 101.581 295.885 101.561 293.644 102.061L293.615 102.067L293.586 102.073C291.952 102.422 288.656 103.904 285.362 106.348C281.987 108.851 279.956 111.374 279.391 113.055L279.387 113.065L279.384 113.074C278.17 116.651 277.203 119.654 277.079 122.422C276.97 124.839 277.517 126.693 279.284 128.409C283.441 132.434 288.865 133.404 294.823 131.543L294.839 131.538L294.854 131.533C304.133 128.685 310.141 124.871 313.578 118.071C315.402 114.359 315.071 112.589 314.379 111.237C313.348 109.22 310.683 106.587 304.72 102.89L304.703 102.879L304.687 102.869C304.695 102.874 304.679 102.868 304.639 102.852C304.38 102.751 303.102 102.251 300.857 101.925Z" fill="#EFF0EB"/>
<path fill-rule="evenodd" clip-rule="evenodd" d="M47.6576 180.601C53.8845 184.463 59.2718 188.671 62.0319 194.069C65.1317 200.132 64.3285 206.352 61.3032 212.489L61.2906 212.515L61.2777 212.541C55.5685 223.87 45.6156 229.268 34.7313 232.611C25.0149 235.641 14.3318 234.304 6.15261 226.379L6.14777 226.375C1.16506 221.537 -0.210894 215.793 0.0251983 210.541C0.240187 205.759 1.81241 201.132 2.91854 197.876C2.94539 197.797 2.97195 197.719 2.99822 197.642C4.83138 192.198 9.43909 187.702 13.5382 184.661C17.7108 181.567 22.7125 178.985 26.8072 178.103C31.0183 177.169 35.2966 177.293 38.7497 177.795C41.9754 178.263 45.4158 179.2 47.6576 180.601ZM36.8567 190.622C34.4918 190.279 31.885 190.258 29.6443 190.758L29.6154 190.764L29.5863 190.77C27.9518 191.119 24.656 192.602 21.3619 195.045C17.9867 197.548 15.9556 200.071 15.3907 201.752L15.3874 201.762L15.3841 201.772C14.1699 205.348 13.2033 208.351 13.0789 211.119C12.9702 213.536 13.5174 215.39 15.284 217.106C19.4408 221.132 24.8651 222.101 30.8233 220.24L30.8389 220.235L30.8544 220.231C40.1332 217.383 46.1407 213.568 49.5776 206.768C51.4019 203.056 51.0705 201.287 50.3789 199.934C49.348 197.918 46.6829 195.285 40.7196 191.587L40.7031 191.577L40.6866 191.566C40.695 191.572 40.6792 191.565 40.6393 191.55C40.3798 191.448 39.1015 190.948 36.8567 190.622Z" fill="#EFF0EB"/>
<path fill-rule="evenodd" clip-rule="evenodd" d="M223.658 180.601C229.884 184.463 235.272 188.671 238.032 194.069C241.132 200.132 240.329 206.352 237.303 212.489L237.291 212.515L237.278 212.541C231.568 223.87 221.616 229.268 210.731 232.611C201.015 235.641 190.332 234.304 182.153 226.379L182.148 226.375C177.165 221.537 175.789 215.793 176.025 210.541C176.24 205.759 177.812 201.132 178.919 197.876C178.945 197.797 178.972 197.719 178.998 197.642C180.831 192.198 185.439 187.702 189.538 184.661C193.711 181.567 198.712 178.985 202.807 178.103C207.018 177.169 211.297 177.293 214.75 177.795C217.975 178.263 221.416 179.2 223.658 180.601ZM212.857 190.622C210.492 190.279 207.885 190.258 205.644 190.758L205.615 190.764L205.586 190.77C203.952 191.119 200.656 192.602 197.362 195.045C193.987 197.548 191.956 200.071 191.391 201.752L191.387 201.762L191.384 201.772C190.17 205.348 189.203 208.351 189.079 211.119C188.97 213.536 189.517 215.39 191.284 217.106C195.441 221.132 200.865 222.101 206.823 220.24L206.839 220.235L206.854 220.231C216.133 217.383 222.141 213.568 225.578 206.768C227.402 203.056 227.071 201.287 226.379 199.934C225.348 197.918 222.683 195.285 216.72 191.587L216.703 191.577L216.687 191.566C216.695 191.572 216.679 191.565 216.639 191.55C216.38 191.448 215.102 190.948 212.857 190.622Z" fill="#EFF0EB"/>
<path fill-rule="evenodd" clip-rule="evenodd" d="M399.658 180.601C405.884 184.463 411.272 188.671 414.032 194.069C417.132 200.132 416.329 206.352 413.303 212.489L413.291 212.515L413.278 212.541C407.568 223.87 397.616 229.268 386.731 232.611C377.015 235.641 366.332 234.304 358.153 226.379L358.148 226.375C353.165 221.537 351.789 215.793 352.025 210.541C352.24 205.759 353.812 201.132 354.919 197.876C354.945 197.797 354.972 197.719 354.998 197.642C356.831 192.198 361.439 187.702 365.538 184.661C369.711 181.567 374.712 178.985 378.807 178.103C383.018 177.169 387.297 177.293 390.75 177.795C393.975 178.263 397.416 179.2 399.658 180.601ZM388.857 190.622C386.492 190.279 383.885 190.258 381.644 190.758L381.615 190.764L381.586 190.77C379.952 191.119 376.656 192.602 373.362 195.045C369.987 197.548 367.956 200.071 367.391 201.752L367.387 201.762L367.384 201.772C366.17 205.348 365.203 208.351 365.079 211.119C364.97 213.536 365.517 215.39 367.284 217.106C371.441 221.132 376.865 222.101 382.823 220.24L382.839 220.235L382.854 220.231C392.133 217.383 398.141 213.568 401.578 206.768C403.402 203.056 403.071 201.287 402.379 199.934C401.348 197.918 398.683 195.285 392.72 191.587L392.703 191.577L392.687 191.566C392.695 191.572 392.679 191.565 392.639 191.55C392.38 191.448 391.102 190.948 388.857 190.622Z" fill="#EFF0EB"/>
<path fill-rule="evenodd" clip-rule="evenodd" d="M135.658 269.298C141.884 273.161 147.272 277.368 150.032 282.766C153.132 288.829 152.329 295.049 149.303 301.187L149.291 301.212L149.278 301.238C143.568 312.567 133.616 317.965 122.731 321.308C113.015 324.338 102.332 323.001 94.1526 315.077L94.1478 315.072C89.1651 310.235 87.7891 304.49 88.0252 299.239C88.2402 294.456 89.8124 289.829 90.9185 286.573C90.9454 286.494 90.972 286.416 90.9982 286.339C92.8314 280.895 97.4391 276.399 101.538 273.359C105.711 270.264 110.712 267.682 114.807 266.8C119.018 265.866 123.297 265.99 126.75 266.492C129.975 266.96 133.416 267.897 135.658 269.298ZM124.857 279.319C122.492 278.976 119.885 278.956 117.644 279.455L117.615 279.462L117.586 279.468C115.952 279.817 112.656 281.299 109.362 283.742C105.987 286.246 103.956 288.768 103.391 290.45L103.387 290.459L103.384 290.469C102.17 294.045 101.203 297.048 101.079 299.816C100.97 302.234 101.517 304.087 103.284 305.804C107.441 309.829 112.865 310.798 118.823 308.937L118.839 308.933L118.854 308.928C128.133 306.08 134.141 302.265 137.578 295.466C139.402 291.753 139.071 289.984 138.379 288.631C137.348 286.615 134.683 283.982 128.72 280.284L128.703 280.274L128.687 280.263C128.695 280.269 128.679 280.263 128.639 280.247C128.38 280.145 127.102 279.645 124.857 279.319Z" fill="#EFF0EB"/>
<path fill-rule="evenodd" clip-rule="evenodd" d="M311.658 269.298C317.884 273.161 323.272 277.368 326.032 282.766C329.132 288.829 328.329 295.049 325.303 301.187L325.291 301.212L325.278 301.238C319.568 312.567 309.616 317.965 298.731 321.308C289.015 324.338 278.332 323.001 270.153 315.077L270.148 315.072C265.165 310.235 263.789 304.49 264.025 299.239C264.24 294.456 265.812 289.829 266.919 286.573C266.945 286.494 266.972 286.416 266.998 286.339C268.831 280.895 273.439 276.399 277.538 273.359C281.711 270.264 286.712 267.682 290.807 266.8C295.018 265.866 299.297 265.99 302.75 266.492C305.975 266.96 309.416 267.897 311.658 269.298ZM300.857 279.319C298.492 278.976 295.885 278.956 293.644 279.455L293.615 279.462L293.586 279.468C291.952 279.817 288.656 281.299 285.362 283.742C281.987 286.246 279.956 288.768 279.391 290.45L279.387 290.459L279.384 290.469C278.17 294.045 277.203 297.048 277.079 299.816C276.97 302.234 277.517 304.087 279.284 305.804C283.441 309.829 288.865 310.798 294.823 308.937L294.839 308.933L294.854 308.928C304.133 306.08 310.141 302.265 313.578 295.466C315.402 291.753 315.071 289.984 314.379 288.631C313.348 286.615 310.683 283.982 304.72 280.284L304.703 280.274L304.687 280.263C304.695 280.269 304.679 280.263 304.639 280.247C304.38 280.145 303.102 279.645 300.857 279.319Z" fill="#EFF0EB"/>
<path fill-rule="evenodd" clip-rule="evenodd" d="M47.6576 357.996C53.8845 361.858 59.2718 366.065 62.0319 371.464C65.1317 377.526 64.3285 383.746 61.3032 389.884L61.2906 389.91L61.2777 389.935C55.5685 401.264 45.6156 406.663 34.7313 410.006C25.0149 413.035 14.3318 411.698 6.15261 403.774L6.14777 403.769C1.16506 398.932 -0.210894 393.188 0.0251983 387.936C0.240187 383.153 1.81241 378.526 2.91854 375.271C2.94539 375.192 2.97195 375.114 2.99822 375.036C4.83138 369.592 9.43909 365.096 13.5382 362.056C17.7108 358.961 22.7125 356.379 26.8072 355.497C31.0183 354.563 35.2966 354.688 38.7497 355.189C41.9754 355.658 45.4158 356.594 47.6576 357.996ZM36.8567 368.017C34.4918 367.673 31.885 367.653 29.6443 368.152L29.6154 368.159L29.5863 368.165C27.9518 368.514 24.656 369.996 21.3619 372.44C17.9867 374.943 15.9556 377.465 15.3907 379.147L15.3874 379.157L15.3841 379.166C14.1699 382.743 13.2033 385.746 13.0789 388.513C12.9702 390.931 13.5174 392.785 15.284 394.501C19.4408 398.526 24.8651 399.496 30.8233 397.635L30.8389 397.63L30.8544 397.625C40.1332 394.777 46.1407 390.963 49.5776 384.163C51.4019 380.451 51.0705 378.681 50.3789 377.329C49.348 375.312 46.6829 372.679 40.7196 368.981L40.7031 368.971L40.6866 368.961C40.695 368.966 40.6792 368.96 40.6393 368.944C40.3798 368.843 39.1015 368.343 36.8567 368.017Z" fill="#EFF0EB"/>
<path fill-rule="evenodd" clip-rule="evenodd" d="M223.658 357.996C229.884 361.858 235.272 366.065 238.032 371.464C241.132 377.526 240.329 383.746 237.303 389.884L237.291 389.91L237.278 389.935C231.568 401.264 221.616 406.663 210.731 410.006C201.015 413.035 190.332 411.698 182.153 403.774L182.148 403.769C177.165 398.932 175.789 393.188 176.025 387.936C176.24 383.153 177.812 378.526 178.919 375.271C178.945 375.192 178.972 375.114 178.998 375.036C180.831 369.592 185.439 365.096 189.538 362.056C193.711 358.961 198.712 356.379 202.807 355.497C207.018 354.563 211.297 354.688 214.75 355.189C217.975 355.658 221.416 356.594 223.658 357.996ZM212.857 368.017C210.492 367.673 207.885 367.653 205.644 368.152L205.615 368.159L205.586 368.165C203.952 368.514 200.656 369.996 197.362 372.44C193.987 374.943 191.956 377.465 191.391 379.147L191.387 379.157L191.384 379.166C190.17 382.743 189.203 385.746 189.079 388.513C188.97 390.931 189.517 392.785 191.284 394.501C195.441 398.526 200.865 399.496 206.823 397.635L206.839 397.63L206.854 397.625C216.133 394.777 222.141 390.963 225.578 384.163C227.402 380.451 227.071 378.681 226.379 377.329C225.348 375.312 222.683 372.679 216.72 368.981L216.703 368.971L216.687 368.961C216.695 368.966 216.679 368.96 216.639 368.944C216.38 368.843 215.102 368.343 212.857 368.017Z" fill="#EFF0EB"/>
<path fill-rule="evenodd" clip-rule="evenodd" d="M399.658 357.996C405.884 361.858 411.272 366.065 414.032 371.464C417.132 377.526 416.329 383.746 413.303 389.884L413.291 389.91L413.278 389.935C407.568 401.264 397.616 406.663 386.731 410.006C377.015 413.035 366.332 411.698 358.153 403.774L358.148 403.769C353.165 398.932 351.789 393.188 352.025 387.936C352.24 383.153 353.812 378.526 354.919 375.271C354.945 375.192 354.972 375.114 354.998 375.036C356.831 369.592 361.439 365.096 365.538 362.056C369.711 358.961 374.712 356.379 378.807 355.497C383.018 354.563 387.297 354.688 390.75 355.189C393.975 355.658 397.416 356.594 399.658 357.996ZM388.857 368.017C386.492 367.673 383.885 367.653 381.644 368.152L381.615 368.159L381.586 368.165C379.952 368.514 376.656 369.996 373.362 372.44C369.987 374.943 367.956 377.465 367.391 379.147L367.387 379.157L367.384 379.166C366.17 382.743 365.203 385.746 365.079 388.513C364.97 390.931 365.517 392.785 367.284 394.501C371.441 398.526 376.865 399.496 382.823 397.635L382.839 397.63L382.854 397.625C392.133 394.777 398.141 390.963 401.578 384.163C403.402 380.451 403.071 378.681 402.379 377.329C401.348 375.312 398.683 372.679 392.72 368.981L392.703 368.971L392.687 368.961C392.695 368.966 392.679 368.96 392.639 368.944C392.38 368.843 391.102 368.343 388.857 368.017Z" fill="#EFF0EB"/>
<path fill-rule="evenodd" clip-rule="evenodd" d="M135.658 446.693C141.884 450.555 147.272 454.762 150.032 460.161C153.132 466.224 152.329 472.444 149.303 478.581L149.291 478.607L149.278 478.632C143.568 489.961 133.616 495.36 122.731 498.703C113.015 501.733 102.332 500.395 94.1526 492.471L94.1478 492.467C89.1651 487.629 87.7891 481.885 88.0252 476.633C88.2402 471.851 89.8124 467.224 90.9185 463.968C90.9454 463.889 90.972 463.811 90.9982 463.734C92.8314 458.29 97.4391 453.794 101.538 450.753C105.711 447.658 110.712 445.076 114.807 444.195C119.018 443.261 123.297 443.385 126.75 443.887C129.975 444.355 133.416 445.292 135.658 446.693ZM124.857 456.714C122.492 456.37 119.885 456.35 117.644 456.85L117.615 456.856L117.586 456.862C115.952 457.211 112.656 458.694 109.362 461.137C105.987 463.64 103.956 466.163 103.391 467.844L103.387 467.854L103.384 467.864C102.17 471.44 101.203 474.443 101.079 477.211C100.97 479.628 101.517 481.482 103.284 483.198C107.441 487.224 112.865 488.193 118.823 486.332L118.839 486.327L118.854 486.323C128.133 483.475 134.141 479.66 137.578 472.86C139.402 469.148 139.071 467.379 138.379 466.026C137.348 464.01 134.683 461.377 128.72 457.679L128.703 457.668L128.687 457.658C128.695 457.663 128.679 457.657 128.639 457.642C128.38 457.54 127.102 457.04 124.857 456.714Z" fill="#EFF0EB"/>
<path fill-rule="evenodd" clip-rule="evenodd" d="M311.658 446.693C317.884 450.555 323.272 454.762 326.032 460.161C329.132 466.224 328.329 472.444 325.303 478.581L325.291 478.607L325.278 478.632C319.568 489.961 309.616 495.36 298.731 498.703C289.015 501.733 278.332 500.395 270.153 492.471L270.148 492.467C265.165 487.629 263.789 481.885 264.025 476.633C264.24 471.851 265.812 467.224 266.919 463.968C266.945 463.889 266.972 463.811 266.998 463.734C268.831 458.29 273.439 453.794 277.538 450.753C281.711 447.658 286.712 445.076 290.807 444.195C295.018 443.261 299.297 443.385 302.75 443.887C305.975 444.355 309.416 445.292 311.658 446.693ZM300.857 456.714C298.492 456.37 295.885 456.35 293.644 456.85L293.615 456.856L293.586 456.862C291.952 457.211 288.656 458.694 285.362 461.137C281.987 463.64 279.956 466.163 279.391 467.844L279.387 467.854L279.384 467.864C278.17 471.44 277.203 474.443 277.079 477.211C276.97 479.628 277.517 481.482 279.284 483.198C283.441 487.224 288.865 488.193 294.823 486.332L294.839 486.327L294.854 486.323C304.133 483.475 310.141 479.66 313.578 472.86C315.402 469.148 315.071 467.379 314.379 466.026C313.348 464.01 310.683 461.377 304.72 457.679L304.703 457.668L304.687 457.658C304.695 457.663 304.679 457.657 304.639 457.642C304.38 457.54 303.102 457.04 300.857 456.714Z" fill="#EFF0EB"/>
<path fill-rule="evenodd" clip-rule="evenodd" d="M47.6576 535.39C53.8845 539.253 59.2718 543.46 62.0319 548.858C65.1317 554.921 64.3285 561.141 61.3032 567.279L61.2906 567.304L61.2777 567.33C55.5685 578.659 45.6156 584.057 34.7313 587.4C25.0149 590.43 14.3318 589.093 6.15261 581.169L6.14777 581.164C1.16506 576.327 -0.210894 570.582 0.0251983 565.33C0.240187 560.548 1.81241 555.921 2.91854 552.665C2.94539 552.586 2.97195 552.508 2.99822 552.431C4.83138 546.987 9.43909 542.491 13.5382 539.451C17.7108 536.356 22.7125 533.774 26.8072 532.892C31.0183 531.958 35.2966 532.082 38.7497 532.584C41.9754 533.052 45.4158 533.989 47.6576 535.39ZM36.8567 545.411C34.4918 545.068 31.885 545.047 29.6443 545.547L29.6154 545.553L29.5863 545.56C27.9518 545.909 24.656 547.391 21.3619 549.834C17.9867 552.338 15.9556 554.86 15.3907 556.541L15.3874 556.551L15.3841 556.561C14.1699 560.137 13.2033 563.14 13.0789 565.908C12.9702 568.326 13.5174 570.179 15.284 571.895C19.4408 575.921 24.8651 576.89 30.8233 575.029L30.8389 575.025L30.8544 575.02C40.1332 572.172 46.1407 568.357 49.5776 561.558C51.4019 557.845 51.0705 556.076 50.3789 554.723C49.348 552.707 46.6829 550.074 40.7196 546.376L40.7031 546.366L40.6866 546.355C40.695 546.361 40.6792 546.355 40.6393 546.339C40.3798 546.237 39.1015 545.737 36.8567 545.411Z" fill="#EFF0EB"/>
<path fill-rule="evenodd" clip-rule="evenodd" d="M223.658 535.39C229.884 539.253 235.272 543.46 238.032 548.858C241.132 554.921 240.329 561.141 237.303 567.279L237.291 567.304L237.278 567.33C231.568 578.659 221.616 584.057 210.731 587.4C201.015 590.43 190.332 589.093 182.153 581.169L182.148 581.164C177.165 576.327 175.789 570.582 176.025 565.33C176.24 560.548 177.812 555.921 178.919 552.665C178.945 552.586 178.972 552.508 178.998 552.431C180.831 546.987 185.439 542.491 189.538 539.451C193.711 536.356 198.712 533.774 202.807 532.892C207.018 531.958 211.297 532.082 214.75 532.584C217.975 533.052 221.416 533.989 223.658 535.39ZM212.857 545.411C210.492 545.068 207.885 545.047 205.644 545.547L205.615 545.553L205.586 545.56C203.952 545.909 200.656 547.391 197.362 549.834C193.987 552.338 191.956 554.86 191.391 556.541L191.387 556.551L191.384 556.561C190.17 560.137 189.203 563.14 189.079 565.908C188.97 568.326 189.517 570.179 191.284 571.895C195.441 575.921 200.865 576.89 206.823 575.029L206.839 575.025L206.854 575.02C216.133 572.172 222.141 568.357 225.578 561.558C227.402 557.845 227.071 556.076 226.379 554.723C225.348 552.707 222.683 550.074 216.72 546.376L216.703 546.366L216.687 546.355C216.695 546.361 216.679 546.355 216.639 546.339C216.38 546.237 215.102 545.737 212.857 545.411Z" fill="#EFF0EB"/>
<path fill-rule="evenodd" clip-rule="evenodd" d="M399.658 535.39C405.884 539.253 411.272 543.46 414.032 548.858C417.132 554.921 416.329 561.141 413.303 567.279L413.291 567.304L413.278 567.33C407.568 578.659 397.616 584.057 386.731 587.4C377.015 590.43 366.332 589.093 358.153 581.169L358.148 581.164C353.165 576.327 351.789 570.582 352.025 565.33C352.24 560.548 353.812 555.921 354.919 552.665C354.945 552.586 354.972 552.508 354.998 552.431C356.831 546.987 361.439 542.491 365.538 539.451C369.711 536.356 374.712 533.774 378.807 532.892C383.018 531.958 387.297 532.082 390.75 532.584C393.975 533.052 397.416 533.989 399.658 535.39ZM388.857 545.411C386.492 545.068 383.885 545.047 381.644 545.547L381.615 545.553L381.586 545.56C379.952 545.909 376.656 547.391 373.362 549.834C369.987 552.338 367.956 554.86 367.391 556.541L367.387 556.551L367.384 556.561C366.17 560.137 365.203 563.14 365.079 565.908C364.97 568.326 365.517 570.179 367.284 571.895C371.441 575.921 376.865 576.89 382.823 575.029L382.839 575.025L382.854 575.02C392.133 572.172 398.141 568.357 401.578 561.558C403.402 557.845 403.071 556.076 402.379 554.723C401.348 552.707 398.683 550.074 392.72 546.376L392.703 546.366L392.687 546.355C392.695 546.361 392.679 546.355 392.639 546.339C392.38 546.237 391.102 545.737 388.857 545.411Z" fill="#EFF0EB"/>
<path fill-rule="evenodd" clip-rule="evenodd" d="M135.658 624.087C141.884 627.95 147.272 632.157 150.032 637.556C153.132 643.618 152.329 649.838 149.303 655.976L149.291 656.002L149.278 656.027C143.568 667.356 133.616 672.755 122.731 676.098C113.015 679.127 102.332 677.79 94.1526 669.866L94.1478 669.861C89.1651 665.024 87.7891 659.28 88.0252 654.028C88.2402 649.245 89.8124 644.618 90.9185 641.363C90.9454 641.284 90.972 641.206 90.9982 641.128C92.8314 635.684 97.4391 631.188 101.538 628.148C105.711 625.053 110.712 622.471 114.807 621.589C119.018 620.655 123.297 620.78 126.75 621.281C129.975 621.75 133.416 622.686 135.658 624.087ZM124.857 634.109C122.492 633.765 119.885 633.745 117.644 634.244L117.615 634.251L117.586 634.257C115.952 634.606 112.656 636.088 109.362 638.531C105.987 641.035 103.956 643.557 103.391 645.239L103.387 645.248L103.384 645.258C102.17 648.835 101.203 651.838 101.079 654.605C100.97 657.023 101.517 658.877 103.284 660.593C107.441 664.618 112.865 665.588 118.823 663.727L118.839 663.722L118.854 663.717C128.133 660.869 134.141 657.055 137.578 650.255C139.402 646.543 139.071 644.773 138.379 643.421C137.348 641.404 134.683 638.771 128.72 635.073L128.703 635.063L128.687 635.053C128.695 635.058 128.679 635.052 128.639 635.036C128.38 634.935 127.102 634.435 124.857 634.109Z" fill="#EFF0EB"/>
<path fill-rule="evenodd" clip-rule="evenodd" d="M311.658 624.087C317.884 627.95 323.272 632.157 326.032 637.556C329.132 643.618 328.329 649.838 325.303 655.976L325.291 656.002L325.278 656.027C319.568 667.356 309.616 672.755 298.731 676.098C289.015 679.127 278.332 677.79 270.153 669.866L270.148 669.861C265.165 665.024 263.789 659.28 264.025 654.028C264.24 649.245 265.812 644.618 266.919 641.363C266.945 641.284 266.972 641.206 266.998 641.128C268.831 635.684 273.439 631.188 277.538 628.148C281.711 625.053 286.712 622.471 290.807 621.589C295.018 620.655 299.297 620.78 302.75 621.281C305.975 621.75 309.416 622.686 311.658 624.087ZM300.857 634.109C298.492 633.765 295.885 633.745 293.644 634.244L293.615 634.251L293.586 634.257C291.952 634.606 288.656 636.088 285.362 638.531C281.987 641.035 279.956 643.557 279.391 645.239L279.387 645.248L279.384 645.258C278.17 648.835 277.203 651.838 277.079 654.605C276.97 657.023 277.517 658.877 279.284 660.593C283.441 664.618 288.865 665.588 294.823 663.727L294.839 663.722L294.854 663.717C304.133 660.869 310.141 657.055 313.578 650.255C315.402 646.543 315.071 644.773 314.379 643.421C313.348 641.404 310.683 638.771 304.72 635.073L304.703 635.063L304.687 635.053C304.695 635.058 304.679 635.052 304.639 635.036C304.38 634.935 303.102 634.435 300.857 634.109Z" fill="#EFF0EB"/>
<path fill-rule="evenodd" clip-rule="evenodd" d="M47.6576 712.785C53.8845 716.647 59.2718 720.854 62.0319 726.253C65.1317 732.315 64.3285 738.536 61.3032 744.673L61.2906 744.699L61.2777 744.724C55.5685 756.053 45.6156 761.452 34.7313 764.795C25.0149 767.825 14.3318 766.487 6.15261 758.563L6.14777 758.559C1.16506 753.721 -0.210894 747.977 0.0251983 742.725C0.240187 737.943 1.81241 733.315 2.91854 730.06C2.94539 729.981 2.97195 729.903 2.99822 729.825C4.83138 724.381 9.43909 719.886 13.5382 716.845C17.7108 713.75 22.7125 711.168 26.8072 710.287C31.0183 709.353 35.2966 709.477 38.7497 709.978C41.9754 710.447 45.4158 711.384 47.6576 712.785ZM36.8567 722.806C34.4918 722.462 31.885 722.442 29.6443 722.942L29.6154 722.948L29.5863 722.954C27.9518 723.303 24.656 724.786 21.3619 727.229C17.9867 729.732 15.9556 732.255 15.3907 733.936L15.3874 733.946L15.3841 733.955C14.1699 737.532 13.2033 740.535 13.0789 743.303C12.9702 745.72 13.5174 747.574 15.284 749.29C19.4408 753.316 24.8651 754.285 30.8233 752.424L30.8389 752.419L30.8544 752.414C40.1332 749.566 46.1407 745.752 49.5776 738.952C51.4019 735.24 51.0705 733.471 50.3789 732.118C49.348 730.102 46.6829 727.469 40.7196 723.771L40.7031 723.76L40.6866 723.75C40.695 723.755 40.6792 723.749 40.6393 723.734C40.3798 723.632 39.1015 723.132 36.8567 722.806Z" fill="#EFF0EB"/>
<path fill-rule="evenodd" clip-rule="evenodd" d="M223.658 712.785C229.884 716.647 235.272 720.854 238.032 726.253C241.132 732.315 240.329 738.536 237.303 744.673L237.291 744.699L237.278 744.724C231.568 756.053 221.616 761.452 210.731 764.795C201.015 767.825 190.332 766.487 182.153 758.563L182.148 758.559C177.165 753.721 175.789 747.977 176.025 742.725C176.24 737.943 177.812 733.315 178.919 730.06C178.945 729.981 178.972 729.903 178.998 729.825C180.831 724.381 185.439 719.886 189.538 716.845C193.711 713.75 198.712 711.168 202.807 710.287C207.018 709.353 211.297 709.477 214.75 709.978C217.975 710.447 221.416 711.384 223.658 712.785ZM212.857 722.806C210.492 722.462 207.885 722.442 205.644 722.942L205.615 722.948L205.586 722.954C203.952 723.303 200.656 724.786 197.362 727.229C193.987 729.732 191.956 732.255 191.391 733.936L191.387 733.946L191.384 733.955C190.17 737.532 189.203 740.535 189.079 743.303C188.97 745.72 189.517 747.574 191.284 749.29C195.441 753.316 200.865 754.285 206.823 752.424L206.839 752.419L206.854 752.414C216.133 749.566 222.141 745.752 225.578 738.952C227.402 735.24 227.071 733.471 226.379 732.118C225.348 730.102 222.683 727.469 216.72 723.771L216.703 723.76L216.687 723.75C216.695 723.755 216.679 723.749 216.639 723.734C216.38 723.632 215.102 723.132 212.857 722.806Z" fill="#EFF0EB"/>
<path fill-rule="evenodd" clip-rule="evenodd" d="M399.658 712.785C405.884 716.647 411.272 720.854 414.032 726.253C417.132 732.315 416.329 738.536 413.303 744.673L413.291 744.699L413.278 744.724C407.568 756.053 397.616 761.452 386.731 764.795C377.015 767.825 366.332 766.487 358.153 758.563L358.148 758.559C353.165 753.721 351.789 747.977 352.025 742.725C352.24 737.943 353.812 733.315 354.919 730.06C354.945 729.981 354.972 729.903 354.998 729.825C356.831 724.381 361.439 719.886 365.538 716.845C369.711 713.75 374.712 711.168 378.807 710.287C383.018 709.353 387.297 709.477 390.75 709.978C393.975 710.447 397.416 711.384 399.658 712.785ZM388.857 722.806C386.492 722.462 383.885 722.442 381.644 722.942L381.615 722.948L381.586 722.954C379.952 723.303 376.656 724.786 373.362 727.229C369.987 729.732 367.956 732.255 367.391 733.936L367.387 733.946L367.384 733.955C366.17 737.532 365.203 740.535 365.079 743.303C364.97 745.72 365.517 747.574 367.284 749.29C371.441 753.316 376.865 754.285 382.823 752.424L382.839 752.419L382.854 752.414C392.133 749.566 398.141 745.752 401.578 738.952C403.402 735.24 403.071 733.471 402.379 732.118C401.348 730.102 398.683 727.469 392.72 723.771L392.703 723.76L392.687 723.75C392.695 723.755 392.679 723.749 392.639 723.734C392.38 723.632 391.102 723.132 388.857 722.806Z" fill="#EFF0EB"/>
<path fill-rule="evenodd" clip-rule="evenodd" d="M135.658 801.482C141.884 805.345 147.272 809.552 150.032 814.95C153.132 821.013 152.329 827.233 149.303 833.371L149.291 833.396L149.278 833.422C143.568 844.751 133.616 850.149 122.731 853.492C113.015 856.522 102.332 855.185 94.1526 847.261L94.1478 847.256C89.1651 842.419 87.7891 836.674 88.0252 831.422C88.2402 826.64 89.8124 822.013 90.9185 818.757C90.9454 818.678 90.972 818.6 90.9982 818.523C92.8314 813.079 97.4391 808.583 101.538 805.543C105.711 802.448 110.712 799.866 114.807 798.984C119.018 798.05 123.297 798.174 126.75 798.676C129.975 799.144 133.416 800.081 135.658 801.482ZM124.857 811.503C122.492 811.16 119.885 811.139 117.644 811.639L117.615 811.646L117.586 811.652C115.952 812.001 112.656 813.483 109.362 815.926C105.987 818.43 103.956 820.952 103.391 822.633L103.387 822.643L103.384 822.653C102.17 826.229 101.203 829.232 101.079 832C100.97 834.418 101.517 836.271 103.284 837.987C107.441 842.013 112.865 842.982 118.823 841.121L118.839 841.117L118.854 841.112C128.133 838.264 134.141 834.449 137.578 827.65C139.402 823.937 139.071 822.168 138.379 820.815C137.348 818.799 134.683 816.166 128.72 812.468L128.703 812.458L128.687 812.447C128.695 812.453 128.679 812.447 128.639 812.431C128.38 812.329 127.102 811.829 124.857 811.503Z" fill="#EFF0EB"/>
<path fill-rule="evenodd" clip-rule="evenodd" d="M311.658 801.482C317.884 805.345 323.272 809.552 326.032 814.95C329.132 821.013 328.329 827.233 325.303 833.371L325.291 833.396L325.278 833.422C319.568 844.751 309.616 850.149 298.731 853.492C289.015 856.522 278.332 855.185 270.153 847.261L270.148 847.256C265.165 842.419 263.789 836.674 264.025 831.422C264.24 826.64 265.812 822.013 266.919 818.757C266.945 818.678 266.972 818.6 266.998 818.523C268.831 813.079 273.439 808.583 277.538 805.543C281.711 802.448 286.712 799.866 290.807 798.984C295.018 798.05 299.297 798.174 302.75 798.676C305.975 799.144 309.416 800.081 311.658 801.482ZM300.857 811.503C298.492 811.16 295.885 811.139 293.644 811.639L293.615 811.646L293.586 811.652C291.952 812.001 288.656 813.483 285.362 815.926C281.987 818.43 279.956 820.952 279.391 822.633L279.387 822.643L279.384 822.653C278.17 826.229 277.203 829.232 277.079 832C276.97 834.418 277.517 836.271 279.284 837.987C283.441 842.013 288.865 842.982 294.823 841.121L294.839 841.117L294.854 841.112C304.133 838.264 310.141 834.449 313.578 827.65C315.402 823.937 315.071 822.168 314.379 820.815C313.348 818.799 310.683 816.166 304.72 812.468L304.703 812.458L304.687 812.447C304.695 812.453 304.679 812.447 304.639 812.431C304.38 812.329 303.102 811.829 300.857 811.503Z" fill="#EFF0EB"/>
</g>
</svg>
