<svg width="768" height="676" viewBox="0 0 768 676" fill="none" xmlns="http://www.w3.org/2000/svg">
<g id="ilus_sama">
<g id="Sky">
<path id="Star 01" d="M759.553 449.031C756.834 447.849 753.051 447.731 752.224 443.714C751.514 440.169 756.243 436.034 761.208 435.916C764.399 435.798 767 436.743 767.118 440.76C767.118 444.423 763.335 448.795 759.553 449.031Z" fill="#10100F"/>
<path id="Star 02" d="M735.911 99.4203C736.265 102.729 731.892 106.864 727.991 107.1C724.799 107.336 723.381 105.564 723.026 102.61C722.317 97.648 724.681 94.1034 728.818 93.9853C732.601 93.8671 734.729 96.112 735.911 99.4203Z" fill="#10100F"/>
<path id="Star 03" d="M554.932 441.469C554.695 445.25 553.513 448.086 551.503 450.094C549.494 452.221 546.657 453.639 543.583 451.866C541.692 450.685 539.801 449.031 540.51 446.55C541.219 443.714 542.638 440.878 545.948 440.288C548.903 439.933 551.858 439.579 554.932 441.469Z" fill="#10100F"/>
<g id="Moon">
<path id="Vector" d="M667.704 359.472C646.071 360.772 630.231 350.965 614.982 339.859C606.353 333.597 598.433 326.626 595.123 315.638C593.941 311.62 592.64 307.84 593.35 303.822C599.26 271.213 609.072 248.409 647.372 236.122C650.209 235.176 653.164 234.349 656.001 235.295C662.739 237.539 669.595 237.658 676.688 237.067C678.461 236.949 681.061 237.067 681.889 238.248C686.972 244.629 694.656 245.101 701.275 247.701C720.189 255.144 732.955 269.086 735.792 288.699C738.748 308.549 733.546 327.098 716.288 340.804C701.393 352.501 685.908 361.244 667.704 359.472ZM614.746 321.427C616.873 324.854 619.829 327.453 623.139 329.343C625.503 329.225 625.385 327.453 625.976 326.271C627.749 323.199 630.704 322.018 633.186 324.263C636.378 327.098 633.777 329.343 631.059 331.116C630.113 331.824 628.222 332.297 629.167 334.187C651.864 351.083 682.48 355.218 708.722 331.824C723.617 318.591 728.345 295.316 718.888 278.065C716.524 273.812 713.451 269.44 709.55 267.432C690.518 257.862 671.605 247.464 648.79 251.245C634.841 253.608 625.03 261.642 616.755 272.158C615.455 273.694 614.273 275.348 616.755 277.711C620.774 281.492 620.065 284.918 614.155 285.745C611.672 286.1 610.254 287.045 609.072 289.172C603.161 300.514 604.934 312.329 614.746 321.427Z" fill="#10100F"/>
<path id="Vector_2" d="M637.206 272.394C636.26 275.23 635.196 278.302 636.142 281.728C638.979 292.362 633.778 294.134 625.621 295.434C622.193 295.906 619.474 295.552 618.292 299.687C617.583 301.932 615.1 302.405 612.736 301.696C611.081 301.223 610.372 299.805 610.136 298.387C609.663 295.788 611.672 293.898 613.682 293.543C619.474 292.716 621.365 286.572 626.803 284.564C629.64 283.5 630.349 276.529 630.586 271.685C630.704 269.677 632.004 268.259 634.25 268.377C636.142 268.613 637.206 269.913 637.206 272.394Z" fill="#10100F"/>
<path id="Vector_3" d="M626.094 312.684C625.621 311.266 625.385 310.321 624.912 308.903C623.73 305.595 623.257 302.523 627.039 300.514C629.049 299.451 630.94 300.514 631.65 302.05C633.186 305.477 636.378 308.903 632.832 312.92C630.468 315.638 626.5 313.902 626.094 312.684Z" fill="#10100F"/>
<path id="Vector_4" d="M652.809 330.643C655.646 331.116 658.483 332.179 658.72 335.605C658.956 339.504 656.237 341.395 652.573 341.513C649.145 341.513 646.899 339.268 647.017 336.196C647.017 333.124 649.381 331.116 652.809 330.643Z" fill="#10100F"/>
<path id="Vector_5" d="M624.5 314C627.5 318 619 323 616.5 320.5C612 311 619.5 309.5 624.5 314Z" fill="#10100F"/>
<path id="Vector_6" d="M649.736 298.86C648.79 301.223 647.608 303.704 644.416 302.995C641.816 302.405 639.452 300.632 639.924 297.679C640.397 294.607 643.353 294.252 645.953 294.607C648.436 294.843 650.209 295.906 649.736 298.86Z" fill="#10100F"/>
<path id="Vector_7" d="M661.557 258.216C661.202 261.642 658.72 263.178 655.883 264.005C652.809 264.832 652.336 262.469 652.218 260.106C652.1 257.271 653.046 254.671 655.883 254.199C658.483 253.726 660.729 255.026 661.557 258.216Z" fill="#10100F"/>
<path id="Vector_8" d="M678.934 318.71C676.215 317.764 673.26 316.701 672.905 313.393C672.669 311.03 674.205 308.785 676.806 309.257C679.998 309.848 681.653 312.448 681.534 315.756C681.416 316.937 680.825 318.473 678.934 318.71Z" fill="#10100F"/>
<path id="Vector_9" d="M688.272 284.918C685.672 284.091 682.598 283.028 682.48 279.956C682.48 277.711 685.199 276.529 687.208 276.293C690.164 275.939 692.055 277.593 692.055 280.547C692.173 282.91 690.873 284.446 688.272 284.918Z" fill="#10100F"/>
<path id="Vector_10" d="M653.046 280.31C652.928 283.028 652.573 285.391 649.736 285.627C645.835 285.982 644.771 282.792 644.416 279.838C644.18 277.357 645.835 275.702 648.436 275.584C651.864 275.466 652.573 278.066 653.046 280.31Z" fill="#10100F"/>
<path id="Vector_11" d="M641.107 266.723C638.388 266.368 636.024 265.305 636.378 262.115C636.733 259.398 638.388 257.271 641.461 257.625C644.535 257.98 645.48 260.461 645.48 263.178C645.599 265.896 643.589 266.605 641.107 266.723Z" fill="#10100F"/>
<path id="Vector_12" d="M706.595 295.552C709.077 296.497 711.796 297.797 711.441 300.632C711.087 304.059 707.422 304.413 704.703 305.004C703.285 305.24 702.221 303.586 702.221 302.05C702.221 298.978 703.167 296.379 706.595 295.552Z" fill="#10100F"/>
<path id="Vector_13" d="M644.062 313.275C646.19 313.275 647.845 314.338 648.081 316.228C648.436 319.064 646.781 320.955 643.825 321.309C641.343 321.545 639.57 320.482 639.333 317.883C639.215 314.693 641.698 313.984 644.062 313.275Z" fill="#10100F"/>
</g>
</g>
<path id="Fungi" d="M122.756 610.426C126.657 609.953 128.785 607.708 131.385 606.409C134.695 604.755 137.769 604.991 140.606 607.354C143.088 609.481 143.561 612.316 142.97 615.388C142.497 618.578 139.66 621.296 141.079 625.313C145.689 623.305 146.516 619.051 147.817 615.152C150.417 607.354 148.762 599.083 150.417 591.049C151.127 587.859 147.935 585.85 146.753 583.251C141.906 572.263 148.29 555.958 159.165 551.586C168.74 547.806 178.906 553.831 180.443 564.583C181.034 568.955 180.206 573.563 181.152 577.698C182.452 583.842 179.97 586.441 174.532 588.213C161.411 592.231 160.702 593.412 161.411 608.772C163.184 610.78 164.602 608.417 166.139 608.299C171.931 607.827 173.586 609.363 172.404 615.152C170.513 623.777 169.685 632.52 166.139 640.673C164.957 643.272 163.302 645.871 165.903 648.589C168.74 648.589 170.04 646.462 170.631 644.572C172.404 637.955 178.551 637.365 183.28 635.474C187.181 633.82 189.427 636.892 190.018 640.555C191.436 649.18 191.554 657.805 186.944 665.603C181.861 665.012 182.689 659.341 179.024 658.041C162.829 667.966 155.737 667.611 151.008 656.387C148.053 657.096 146.162 659.577 143.916 661.231C141.552 663.003 139.542 664.894 136.114 662.767C131.385 659.813 127.248 662.531 124.766 666.075C120.747 671.865 116.609 670.683 111.408 668.202C101.006 663.24 89.7756 661.467 78.3092 661.231C68.3796 660.995 58.5682 660.522 48.6386 661.822C44.2648 662.413 40.0092 661.94 36.3447 658.514C33.9805 656.269 29.725 653.197 27.5972 655.205C19.2043 663.24 12.3481 652.724 4.66449 654.26C2.4185 654.615 0.999986 652.133 0.763566 649.77C0.527146 646.935 1.23641 644.572 4.19165 643.627C9.5111 641.854 14.8305 641.382 20.5046 642.327C30.7889 643.981 30.7889 643.863 33.8623 634.293C34.5716 632.048 35.5173 630.157 38.1179 630.039C40.4821 629.921 42.4917 630.748 43.5555 632.993C44.0284 633.938 44.7376 635.001 44.8558 636.065C45.2105 641.027 48.5204 642.8 52.4213 641.264C56.204 639.846 57.5043 635.356 56.204 631.93C52.7759 623.068 46.8654 615.388 41.3096 607.708C39.5364 605.227 35.7537 606.409 32.9167 606.173C23.3417 605.7 20.741 602.864 21.0957 593.294C21.3321 588.213 22.2778 583.015 22.396 577.934C22.7506 568.246 28.7793 562.456 36.1083 557.967C48.9932 550.05 66.0154 558.676 67.6704 573.681C68.2614 578.761 68.025 583.96 68.4978 588.922C69.2071 595.775 66.4883 601.092 61.4052 605.227C57.8589 608.063 57.2679 610.662 60.3413 614.443C64.5969 619.524 68.1432 625.077 72.2805 630.275C74.0537 632.402 75.8268 635.001 79.846 635.829C78.7821 630.63 77.9546 625.786 75.1176 621.532C73.108 618.46 71.6895 615.152 71.4531 611.253C71.0984 604.518 75.1176 599.202 81.0281 598.965C87.2932 598.611 93.9129 605.582 93.3219 611.844C93.2037 613.262 92.7308 614.798 92.0216 615.979C87.5296 624.132 91.3123 630.157 97.341 635.12C100.414 637.719 103.488 640.2 105.97 643.508C107.271 645.163 108.807 647.289 111.29 646.226C113.418 645.281 112.827 643.036 112.708 641.382C112.117 628.858 108.926 616.806 105.498 604.873C104.197 600.501 101.124 598.138 96.6318 598.02C78.3092 597.547 66.2518 568.246 79.0185 551.114C84.3379 544.025 94.0312 542.371 102.897 541.78C113.772 540.953 122.756 546.151 131.031 552.532C135.877 556.194 137.178 561.629 135.405 567.419C132.922 575.571 129.021 583.251 121.692 587.859C117.673 590.34 117.082 592.585 117.91 596.602C119.446 600.856 120.037 605.582 122.756 610.426ZM35.1626 594.475C42.7281 592.467 49.1114 590.34 57.2679 590.104C47.6929 585.378 41.7824 586.559 35.1626 594.475ZM98.6413 582.66C101.597 574.153 112.59 582.542 116.018 574.39C104.552 573.917 102.424 574.862 98.6413 582.66Z" fill="#10100F"/>
<path id="grass" d="M455.399 653.906C457.645 652.488 459.891 653.197 461.191 655.087C465.092 660.877 470.648 660.404 475.849 658.277C483.533 655.324 489.325 659.813 495.59 662.176C498.545 663.24 498.427 666.075 495.59 668.084C493.344 669.62 490.744 670.447 488.261 669.62C478.804 666.784 470.648 669.147 462.846 674.582C459.891 676.709 457.408 675.527 455.044 673.401C448.543 667.611 446.415 667.493 439.795 672.574C434.121 676.945 432.466 677.182 430.22 671.51C428.21 666.43 425.728 668.32 422.655 668.675C419.227 669.147 416.035 674.11 412.725 670.92C409.06 667.375 413.434 663.594 414.38 659.931C417.217 649.652 419.936 639.491 422.3 629.094C423.364 624.368 425.255 619.996 427.501 615.861C428.92 613.38 431.166 612.198 434.003 613.38C436.722 614.561 437.904 616.452 436.722 619.524C434.594 625.786 432.821 632.048 430.693 638.31C429.274 642.563 429.984 645.162 434.948 643.863C441.214 642.209 444.405 645.99 447.597 650.243C450.789 654.378 450.789 654.378 455.399 653.906Z" fill="#10100F"/>
<path id="Power" d="M96.0407 110.408C95.6861 121.987 90.2485 128.249 81.0281 128.013C71.8077 127.659 64.7151 121.987 64.9515 114.898C65.3062 104.973 70.9803 96.4665 77.009 96.821C89.8938 97.5299 96.2772 102.138 96.0407 110.408Z" fill="#10100F"/>
<path id="Sama" fill-rule="evenodd" clip-rule="evenodd" d="M294.46 569.547C293.57 572.771 292.425 575.852 289.377 577.913C287.485 579.213 285.358 580.04 283.348 578.267C281.339 576.495 281.811 574.014 283.23 572.36C283.726 571.757 284.198 571.114 284.671 570.47C285.956 568.722 287.251 566.96 289.057 565.924C286.961 562.188 284.601 559.046 278.439 561.984C275.838 563.283 274.538 560.92 274.892 558.203C274.999 557.24 275.227 556.254 275.456 555.265C275.732 554.069 276.01 552.869 276.074 551.705C276.193 546.388 273.71 544.852 268.745 546.86C268.312 547.057 267.878 547.294 267.445 547.53C266.578 548.003 265.711 548.475 264.844 548.633C263.426 548.987 261.889 548.396 260.943 547.097C259.998 545.797 259.998 544.379 261.062 543.08C261.771 542.253 262.51 541.425 263.249 540.598C263.987 539.771 264.726 538.944 265.435 538.117C266.854 536.581 267.209 534.927 266.145 533.155C264.844 530.91 262.953 530.319 260.589 531.028C260.057 531.205 259.555 531.412 259.052 531.619C258.55 531.826 258.047 532.032 257.515 532.21C257.062 532.377 256.594 532.606 256.121 532.838C254.253 533.755 252.311 534.708 250.896 531.973C249.631 529.331 251.608 527.359 253.457 525.514L253.615 525.357C261.062 517.441 261.062 517.323 254.442 508.697C252.551 506.334 252.432 504.09 253.851 501.726C254.56 500.427 255.387 499.246 256.215 498.064L256.215 498.064C257.724 496.023 257.433 493.849 257.145 491.692C257.049 490.977 256.954 490.263 256.924 489.557C256.735 486.064 254.585 485.814 252.341 485.554C251.776 485.488 251.206 485.422 250.659 485.303C246.522 484.476 246.049 481.995 249.004 479.16C250.331 477.907 251.842 476.838 253.336 475.781C254.238 475.143 255.133 474.51 255.979 473.843C257.988 472.307 258.461 470.18 257.988 467.935C257.397 464.981 255.033 465.218 252.787 465.454C250.541 465.69 248.059 465.808 247.349 463.209C246.713 460.984 248.359 459.614 249.9 458.332C250.077 458.184 250.252 458.038 250.423 457.892C251.392 457.04 252.539 456.403 253.71 455.754C256.109 454.423 258.609 453.036 259.88 449.622C257.66 449.178 255.79 447.787 253.952 446.421C251.386 444.513 248.882 442.652 245.576 443.478C237.42 445.486 229.618 448.913 222.289 453.048C220.043 454.348 219.925 456.711 220.752 458.956C221.522 461.054 221.629 463.235 221.735 465.4C221.808 466.893 221.881 468.379 222.171 469.826C225.863 487.222 228.102 504.851 230.344 522.497C232.623 540.444 234.905 558.408 238.72 576.162C242.385 593.294 243.33 611.017 240.966 628.739C240.493 632.365 240.441 636.043 240.388 639.738C240.362 641.583 240.335 643.432 240.257 645.281C240.212 646.123 240.218 646.966 240.224 647.802C240.233 649.194 240.242 650.569 240.02 651.897C239.311 655.678 236.71 657.687 232.928 657.214C229.027 656.741 228.79 653.551 229.027 650.479C229.322 645.93 229.618 641.352 229.913 636.774C230.209 632.195 230.504 627.617 230.8 623.068C231.746 604.991 229.5 587.268 226.663 569.545C223.116 547.451 219.688 525.357 216.497 503.144C215.669 496.882 214.251 492.511 206.685 493.338C204.999 493.536 203.146 492.736 201.407 491.985C201.073 491.841 200.743 491.699 200.42 491.565C191.318 487.548 188.008 481.168 189.781 471.362C190.609 466.517 192.264 461.673 196.283 458.956C207.985 451.512 206.567 441.115 203.612 430.127C201.503 422.195 199.531 414.213 197.559 406.23C193.451 389.598 189.34 372.961 183.989 356.754C174.414 327.926 164.484 299.096 153.845 270.622C144.034 244.51 133.395 218.753 122.283 193.233C118.028 183.426 112.59 174.447 106.443 165.703C104.392 162.741 101.791 162.745 98.958 162.749C98.8528 162.749 98.7472 162.75 98.6414 162.75C94.2085 162.69 89.8052 162.661 85.4018 162.631C80.9985 162.602 76.5952 162.572 72.1623 162.513C62.1145 162.395 52.8941 159.087 43.6738 155.188C31.0253 149.753 26.7697 139.119 25.7059 127.068C24.0509 108.045 27.8336 89.7318 37.7633 73.0725C43.0827 64.093 50.4117 58.5398 61.0506 56.295C74.2901 53.223 87.2932 52.7504 100.178 57.122C103.37 58.1854 106.325 60.3121 105.025 64.4474C103.724 68.5827 100.887 70.355 96.5136 69.0553L95.4497 68.7009C88.8299 67.1649 82.2102 67.1649 75.5904 67.2831C55.9676 67.7557 47.4565 73.5451 41.1914 91.9767C37.7633 102.138 35.6355 112.535 36.1083 123.405C36.5812 133.921 41.0731 141.364 51.121 145.499C56.6769 147.744 62.3509 149.28 68.1432 149.517C71.9935 149.652 75.8437 149.98 79.694 150.307C89.3197 151.127 98.9453 151.947 108.571 149.753C119.092 147.39 127.721 142.427 133.631 133.33C133.986 132.739 134.459 132.148 134.932 131.558L134.932 131.558C138.478 127.068 143.561 125.414 146.044 128.367C149.235 131.912 148.526 135.575 145.216 139.119C143.891 140.519 142.597 141.961 141.302 143.404C136.474 148.787 131.62 154.197 125.002 157.551C119.919 160.15 119.446 163.458 122.165 168.303C128.788 180.561 134.166 193.384 139.552 206.225C141.953 211.95 144.356 217.678 146.871 223.361C156.21 244.51 164.602 266.014 171.813 287.872C174.854 297.073 177.985 306.245 181.115 315.412C186.746 331.908 192.374 348.393 197.465 365.025C203.73 385.347 208.813 406.024 213.187 426.818C216.615 443.241 216.851 443.241 232.1 436.625C234.317 435.665 236.465 434.566 238.609 433.469C243.322 431.058 248.015 428.657 253.378 427.764C254.442 427.645 256.333 426.7 256.333 426.582C254.271 420.399 257.849 418.703 261.446 416.998C263.003 416.26 264.564 415.519 265.672 414.412C267.563 412.522 266.854 410.395 264.49 408.977C258.934 405.669 259.643 402.834 265.435 401.061C270.599 399.573 271.925 395.583 273.269 391.543C273.525 390.774 273.781 390.002 274.065 389.246C275.102 386.331 273.367 384.978 271.588 383.592C270.122 382.45 268.627 381.285 268.627 379.203C268.982 377.077 270.873 376.84 272.764 376.722C275.838 376.486 278.911 375.777 280.212 372.941C281.428 370.163 279.645 369.044 277.816 367.896C277.156 367.481 276.489 367.063 275.956 366.561C273.356 363.962 274.774 361.953 278.202 361.481C278.802 361.395 279.415 361.358 280.029 361.32C281.957 361.203 283.889 361.085 285.413 359.472C290.26 354.51 289.077 348.366 282.576 344.939C282.486 344.895 282.397 344.85 282.307 344.806C280.744 344.031 279.221 343.275 278.439 341.04C281.14 337.955 284.628 338.332 288.068 338.703C288.843 338.787 289.617 338.87 290.378 338.914C290.859 338.94 291.364 339.015 291.872 339.091C293.615 339.349 295.4 339.615 296.406 337.968C298.061 335.369 296.288 333.124 294.633 331.116C294.293 330.639 294.07 330.085 293.852 329.542C293.692 329.142 293.534 328.749 293.333 328.398C293.581 328.101 293.787 327.742 293.969 327.425C294.221 326.985 294.427 326.626 294.633 326.626C301.237 325.966 304.487 325.641 305.281 324.073C306.051 322.553 304.515 319.866 301.49 314.574C301.622 314.442 301.754 314.291 301.889 314.137C302.237 313.742 302.601 313.327 303.026 313.157C304.506 312.681 305.961 313.315 307.372 313.93C309.118 314.69 310.796 315.421 312.365 313.984C314.306 312.342 313.701 310.323 313.081 308.255C312.719 307.048 312.352 305.825 312.483 304.65C312.838 299.687 314.729 298.506 319.339 301.223C322.176 302.877 324.422 304.059 327.377 302.168C330.806 299.924 330.687 296.615 329.742 293.307C328.394 288.537 326.99 283.778 325.585 279.016C322.431 268.328 319.274 257.626 316.739 246.755C314.844 238.696 310.499 228.015 306.445 218.051C300.633 203.765 295.42 190.953 298.889 189.452C304.17 190.463 305.926 194.889 307.508 198.876C307.591 199.083 307.673 199.29 307.755 199.495C316.148 220.644 323.595 242.147 330.215 263.887C331.238 267.318 332.538 270.627 333.833 273.922C335.08 277.095 336.321 280.255 337.307 283.5C337.78 285.273 338.844 287.281 341.09 286.691C342.981 286.218 343.454 284.091 343.454 282.201C343.454 280.532 343.518 278.863 343.582 277.197C343.731 273.32 343.879 269.461 343.218 265.66C341.939 258.168 341.432 250.619 340.924 243.054C340.398 235.23 339.872 227.39 338.489 219.58C334.297 196.025 330.399 172.322 326.505 148.646C325.458 142.278 324.411 135.911 323.358 129.549C318.394 99.8929 312.365 70.4731 304.09 41.526C301.49 32.4283 296 15 296 15C296 15 294.988 11.2792 294.515 9.50693C293.569 5.37162 294.279 1.35447 298.652 0.763707C302.841 0.165612 303.496 3.60434 304.095 6.75169C304.206 7.33483 304.315 7.90796 304.445 8.44356C306.375 16.2803 308.332 24.117 310.289 31.9537C314.203 47.6292 318.118 63.3046 321.822 78.9801C328.087 105.328 333.052 132.03 337.071 158.851C338.171 166.272 339.603 173.641 341.035 181.008C342.681 189.474 344.326 197.936 345.464 206.466C346.283 212.594 347.243 218.712 348.203 224.832C350.427 239.006 352.652 253.191 353.147 267.55C353.225 269.496 353.508 271.391 353.794 273.302C353.942 274.291 354.09 275.285 354.211 276.293C354.261 276.642 354.304 276.994 354.348 277.345C354.713 280.313 355.065 283.171 359.294 283.382C364.259 283.619 368.869 280.192 369.342 275.584C369.46 274.285 369.46 272.985 369.46 271.7C369.46 270.415 369.46 269.145 369.578 267.904C369.697 266.014 370.169 264.005 372.534 263.887C374.78 263.769 375.844 265.66 375.844 267.55C375.844 268.109 375.824 268.668 375.805 269.225C375.698 272.32 375.593 275.362 378.799 278.065C379.694 276.043 380.051 273.79 380.41 271.525C381.141 266.911 381.879 262.251 387.192 259.398C389.412 262.789 388.639 266.437 387.88 270.024C387.183 273.31 386.498 276.545 388.137 279.483C390.738 279.838 391.447 278.538 392.038 277.12C396.932 263.225 401.699 249.33 406.465 235.435C409.642 226.172 412.82 216.91 416.035 207.647C422.639 188.62 427.728 169.035 432.808 149.481C433.91 145.236 435.013 140.992 436.131 136.756C442.869 111.235 450.789 86.0692 461.782 62.0844C465.274 54.4393 469.533 48.8845 474.097 42.9319C476.022 40.421 478.001 37.8393 480 35C481.773 32.4007 488 28 491.216 33.2554C466.629 59.1306 455.753 91.2678 447.124 124.232L447.124 124.234C438.022 158.97 428.92 193.706 417.572 227.851C414.294 237.751 411.242 247.695 408.192 257.629C406.291 263.82 404.392 270.006 402.441 276.175C402.297 276.669 402.124 277.167 401.951 277.664C401.132 280.022 400.314 282.376 402.559 284.328C405.869 287.163 409.415 289.881 413.198 292.007C414.817 292.932 416.096 290.691 417.036 289.045L417.099 288.935C420.491 283.146 423.845 277.331 427.203 271.512C434.26 259.281 441.33 247.029 448.779 234.94C456.108 223.016 463.866 211.398 471.657 199.733C474.673 195.217 477.693 190.694 480.696 186.144C481.287 185.198 481.996 184.372 482.705 183.545L482.705 183.544C484.124 182.008 485.897 181.536 487.67 182.599C489.561 183.781 489.325 185.671 488.261 187.325C487.377 188.602 486.472 189.838 485.572 191.067C484.307 192.795 483.052 194.51 481.878 196.305C478.909 200.648 475.862 204.957 472.812 209.271C465.906 219.04 458.984 228.831 452.916 239.075C445.669 251.262 439.159 263.879 432.634 276.528C430.112 281.415 427.589 286.307 425.019 291.18C427.232 292.17 428.699 291.038 430.042 290.001C431.425 288.934 432.676 287.968 434.476 289.526C436.588 291.307 435.678 292.831 434.689 294.487C433.906 295.797 433.074 297.19 433.648 298.86C438.377 296.615 442.632 297.679 443.696 302.995C444.996 309.848 442.041 315.165 435.067 317.883C435.257 320.488 436.645 322.445 438.016 324.377C439.194 326.036 440.358 327.678 440.741 329.698C441.095 331.47 442.277 332.179 443.932 331.943C445.824 331.706 447.597 330.525 448.07 328.753C448.462 327.283 447.309 326.869 446.095 326.434C445.845 326.345 445.593 326.254 445.351 326.153C441.805 324.735 442.041 322.491 444.523 320.482C444.667 320.359 444.811 320.234 444.957 320.109C447.323 318.067 449.93 315.817 453.271 316.819C455.831 317.642 456.199 320.018 456.562 322.365C456.669 323.053 456.775 323.738 456.935 324.381C457.763 328.044 458.236 331.824 455.99 335.015C453.862 338.087 450.552 338.323 447.006 337.614C445.942 337.378 444.76 337.968 444.642 339.15C444.405 340.804 445.587 341.986 446.888 342.576C449.803 343.76 451.876 342.277 453.972 340.778C454.595 340.331 455.221 339.884 455.872 339.504C457.999 338.323 460.009 337.732 461.782 339.741C462.97 341.126 462.417 342.594 461.858 344.076C461.75 344.363 461.642 344.651 461.546 344.939C460.364 348.366 457.999 350.729 454.571 351.319C450.552 351.91 448.424 353.328 449.488 357.7C450.182 360.645 451.765 360.288 453.538 359.887C454.184 359.742 454.855 359.59 455.517 359.59C460.127 359.472 461.546 362.78 458.945 366.916C458.219 368.004 457.148 368.859 456.076 369.715C454.008 371.366 451.936 373.021 452.325 376.368C452.371 376.714 452.409 377.078 452.446 377.449C452.602 378.976 452.77 380.616 453.626 381.566C454.869 382.809 456.475 381.964 457.967 381.18C458.178 381.069 458.386 380.96 458.59 380.857C459.355 380.433 459.997 379.78 460.644 379.122C461.797 377.95 462.962 376.765 464.856 376.84C468.52 384.875 468.756 387.592 463.201 389.364C455.162 391.845 454.453 396.69 455.99 403.424C456.212 404.311 456.202 405.244 456.193 406.165C456.187 406.717 456.182 407.265 456.226 407.796C456.235 407.907 456.244 408.019 456.253 408.132C456.354 409.466 456.464 410.923 457.881 411.577C459.891 412.522 461.427 411.577 462.491 409.923C462.724 409.587 462.933 409.241 463.14 408.899C463.881 407.675 464.585 406.511 466.156 406.142C471.121 413.349 471.002 416.421 465.092 419.02C463.755 419.653 462.292 419.993 460.803 420.339C459.791 420.574 458.768 420.812 457.763 421.147C457.29 421.265 456.935 422.329 456.817 423.038C456.738 425.261 456.765 427.485 456.792 429.637C456.805 430.686 456.817 431.719 456.817 432.726C458.827 433.435 460.127 433.08 461.191 431.899C463.082 429.89 465.565 428.473 468.047 430.127C469.808 431.327 469.401 433.014 468.991 434.713C468.796 435.523 468.6 436.335 468.638 437.098C468.674 438.347 468.702 439.601 468.729 440.859C468.885 447.924 469.042 455.071 470.648 461.791C473.721 475.26 474.312 488.73 474.194 502.317C474.17 504.355 474.141 506.392 474.111 508.429C473.856 526.239 473.6 544.029 476.677 561.629C477.217 564.783 476.864 567.8 476.509 570.836C476.399 571.781 476.288 572.728 476.204 573.681C476.085 575.689 475.022 577.225 473.012 577.462C470.884 577.698 469.584 576.398 468.638 574.744C466.865 571.436 465.801 568.01 465.919 564.229C465.969 557.333 465.402 550.459 464.835 543.587C464.042 533.975 463.25 524.369 464.146 514.723C464.619 510.352 464.146 505.862 462.846 501.136C461.489 501.432 460.178 501.927 458.863 502.422C456.513 503.308 454.151 504.199 451.498 503.971C449.015 503.735 447.479 505.507 447.479 508.107C447.479 510.352 449.134 511.179 450.789 511.888L451.852 512.242C452.415 512.395 453.043 512.482 453.676 512.57C455.97 512.887 458.319 513.213 457.763 516.732C457.172 520.631 453.98 521.93 450.316 521.576C449.663 521.489 448.993 521.354 448.32 521.218C447.165 520.985 445.998 520.749 444.878 520.749C441.686 520.867 440.741 523.584 440.031 526.066C439.204 529.138 441.45 529.728 443.696 530.083L443.899 530.117C445.26 530.342 446.713 530.583 447.952 531.146C449.37 531.737 450.198 533.037 450.198 534.573C450.079 536.699 448.779 537.881 447.006 538.59C444.878 539.535 442.632 538.944 440.504 538.353C435.582 537.07 433.953 540.143 432.198 543.454C432.014 543.801 431.829 544.15 431.639 544.497C429.668 548.079 431.703 548.811 433.679 549.521C434.31 549.747 434.935 549.972 435.421 550.287C437.549 551.586 437.313 553.241 435.894 554.777C435.378 555.329 434.701 555.767 434.024 556.205C432.531 557.17 431.04 558.134 431.284 560.33C431.875 566.592 428.092 566.946 423.6 566.119C423.197 566.052 422.78 565.955 422.36 565.857C420.569 565.44 418.721 565.009 417.572 566.828C415.798 569.309 417.099 571.672 418.99 573.681C420.054 574.744 420.881 575.926 420.172 577.58C417.572 579.825 414.971 578.761 412.134 577.58C408.233 576.044 406.46 577.462 407.642 581.715C408.351 584.196 409.179 586.559 410.124 588.922C411.306 591.64 411.306 594.003 408.469 595.539C405.987 596.839 404.332 595.066 402.914 593.294C402.397 592.691 402.068 591.963 401.745 591.246C401.625 590.979 401.505 590.715 401.377 590.458C401.258 590.254 401.141 590.046 401.023 589.837C399.846 587.76 398.625 585.603 395.939 585.496C393.136 585.496 392.93 587.377 392.722 589.265C392.649 589.925 392.577 590.586 392.393 591.167C391.447 594.239 389.319 595.066 386.482 593.885C386.112 593.726 385.747 593.537 385.378 593.347C384.103 592.688 382.787 592.009 381.045 592.467C375.134 607 376.553 622.123 378.326 637.246C378.799 641.086 379.301 644.897 379.804 648.707C380.306 652.517 380.808 656.328 381.281 660.168C381.518 662.294 381.518 664.658 381.163 666.784C380.69 669.502 379.153 671.747 376.198 671.747C373.361 671.747 371.706 669.502 370.879 666.902C370.524 665.839 370.288 664.657 370.406 663.594C371.604 652.53 370.196 641.677 368.788 630.833C367.836 623.495 366.884 616.162 366.741 608.772C366.729 608.415 366.724 608.049 366.72 607.68C366.68 604.501 366.636 601.043 361.658 600.619C361.067 600.619 360.358 599.91 359.885 599.438C358.965 598.602 358.356 597.353 357.754 596.118C356.654 593.861 355.578 591.654 352.674 592.112C349.709 592.581 349.422 595.057 349.128 597.604C348.976 598.915 348.823 600.244 348.301 601.328C348.212 601.506 348.125 601.686 348.04 601.866C347.326 603.361 346.628 604.822 344.518 604.4C342.985 604.196 342.601 602.932 342.219 601.677C342.159 601.48 342.1 601.284 342.035 601.092C341.479 599.654 341.232 598.108 340.979 596.53C340.589 594.089 340.187 591.574 338.607 589.277C335.416 594.475 335.061 599.91 335.061 605.464C335.177 619.171 335.408 632.879 335.64 646.7L335.652 647.407C335.652 647.939 335.682 648.5 335.711 649.061C335.741 649.623 335.77 650.184 335.77 650.716C335.652 657.096 333.524 660.168 329.151 660.286C325.013 660.404 323.122 657.45 323.949 650.125C325.636 636.01 324.973 621.989 324.307 607.894C324.226 606.18 324.145 604.464 324.068 602.746C324.059 602.507 324.053 602.266 324.047 602.025C323.969 598.939 323.893 595.938 318.63 598.02C314.847 599.556 313.429 596.484 314.138 592.94C314.256 592.231 314.493 591.522 314.729 590.813C314.965 590.104 315.202 589.395 315.32 588.686C315.456 588.04 315.807 587.375 316.16 586.708C317.033 585.053 317.915 583.382 315.556 581.951C312.247 580.061 308.582 579.47 305.863 583.369C305.39 583.96 305.036 584.551 304.681 585.26C303.972 586.677 302.79 587.623 301.135 587.032C299.48 586.441 299.362 584.787 299.362 583.369C299.362 582.273 299.476 581.161 299.589 580.057C299.78 578.185 299.97 576.335 299.598 574.626C298.987 572.081 296.972 570.413 294.46 569.547ZM429.197 505.142C430.89 505.325 432.667 505.517 433.766 508.107C431.833 509.241 429.54 509.27 427.288 509.298C423.206 509.349 419.255 509.399 417.808 516.023C416.035 523.585 418.754 528.547 423.009 535.518C413.178 531.898 407.515 536.879 401.894 541.823C401.094 542.527 400.295 543.229 399.486 543.907C396.294 546.624 396.885 549.696 400.786 551.468C402.149 552.052 403.673 552.235 405.159 552.414C405.477 552.452 405.793 552.49 406.105 552.532C406.888 552.662 407.67 552.72 408.551 552.786C409.268 552.84 410.051 552.898 410.952 553.004C410.361 556.431 409.652 559.03 405.632 557.612C403.462 556.831 401.355 556.751 399.218 556.67C398.446 556.641 397.669 556.612 396.885 556.549L396.697 556.533C395.257 556.412 392.974 556.22 392.748 556.785C390.37 561.958 385.799 563.408 381.239 564.856C378.091 565.855 374.948 566.853 372.534 569.073C370.642 570.845 370.288 572.617 370.642 574.862C370.752 575.484 371.1 576.06 371.454 576.647C372.243 577.957 373.066 579.321 371.352 581.361C361.406 583.448 351.712 580.601 341.987 577.746C340.153 577.207 338.318 576.668 336.48 576.162C333.455 575.343 330.532 574.29 327.602 573.234C325.035 572.309 322.462 571.381 319.812 570.609C303.026 565.647 292.151 553.595 282.458 539.889C268.391 519.804 265.435 497.473 268.154 473.843C268.475 471.133 268.785 468.421 269.095 465.709C271.069 448.434 273.046 431.144 277.848 414.294C286.95 382.748 297.234 351.792 318.512 325.917C324.659 318.355 331.869 311.502 339.08 304.768C343.454 300.751 348.892 298.624 354.802 297.324C364.968 295.197 375.134 293.661 385.419 294.607C395.939 295.67 405.632 298.269 410.715 309.258C412.285 312.668 414.918 315.369 417.591 318.112C419.549 320.121 421.528 322.152 423.127 324.499C430.575 335.369 435.185 346.948 437.667 359.826C440.741 376.131 442.987 392.436 444.523 408.859C444.954 413.658 444.552 418.36 444.151 423.05C443.781 427.367 443.413 431.673 443.696 436.034C443.814 438.515 443.223 441.115 440.859 442.887C438.968 444.305 437.549 447.377 439.086 448.558C442.884 451.495 441.903 454.649 440.937 457.756C440.309 459.775 439.688 461.774 440.386 463.682C440.623 464.391 440.741 465.69 440.504 465.808C434.798 467.841 433.786 472.565 432.765 477.336C431.945 481.165 431.118 485.024 427.856 487.548C425.996 488.973 425.794 491.406 425.58 493.994C425.385 496.34 425.18 498.815 423.719 500.781C422.655 502.081 425.137 503.617 426.792 504.562C427.507 504.959 428.341 505.049 429.197 505.142ZM199.593 474.906C199.474 471.125 204.321 464.509 207.631 463.918C209.404 463.563 210.468 464.745 210.704 466.045C211.65 470.771 212.477 475.379 213.068 480.105C213.423 482.94 211.65 484.122 209.049 484.004C204.203 483.886 199.711 479.514 199.593 474.906ZM461.191 479.041C454.098 481.523 451.143 486.13 451.852 493.574C462.846 491.093 463.555 490.148 461.191 479.041ZM455.753 465.099C455.872 464.154 456.108 462.973 457.645 463.091C459.418 463.918 460.127 465.454 460.127 467.462C460.009 468.88 458.827 469.235 457.763 469.117C455.044 468.88 455.399 466.872 455.753 465.099ZM439.204 484.122C440.859 484.594 440.977 486.012 440.622 487.548C440.031 488.73 439.204 489.321 438.258 488.375C437.549 487.785 436.84 486.721 436.84 485.776C436.84 484.476 438.14 483.886 439.204 484.122Z" fill="#10100F"/>
<g id="eyes-end">
<path id="Eye 01" d="M297.234 486.13C297.234 477.742 300.189 473.843 306.336 474.079C311.774 474.315 316.62 479.159 316.739 484.831C317.093 493.456 312.719 498.891 305.39 499.245C300.307 499.363 297.234 494.519 297.234 486.13Z" fill="#10100F"/>
<path id="Eye 02" d="M333 494.065C333 486.529 337.268 480.876 342.877 481.002C348.364 481.128 353.12 487.408 352.998 494.317C352.876 500.095 347.389 506.124 342.389 505.998C336.414 505.998 333 501.602 333 494.065Z" fill="#10100F"/>
</g>
</g>
</svg>
