<svg width="250" height="250" viewBox="0 0 250 250" fill="none" xmlns="http://www.w3.org/2000/svg">
<path d="M94.6631 183.702C95.8318 185.736 96.7407 186.385 98.6452 185.866C100.636 185.303 102.844 185.693 104.878 185.13C105.397 185 106.047 185.174 106.609 185.26C107.302 185.39 108.038 185.606 108.081 186.472C108.081 187.208 107.432 187.294 106.869 187.468C105.354 187.9 104.185 188.723 103.709 190.368C105.008 191.06 106.133 190.411 107.259 190.324C108.557 190.238 109.812 190.108 111.111 190.065C111.847 190.021 112.669 190.108 112.712 191.017C112.799 191.969 111.976 191.969 111.241 192.056C109.769 192.185 108.211 191.709 106.35 193.051C113.664 195.691 120.417 197.682 127.688 194.956C130.761 193.787 133.531 192.272 136.172 190.194C141.322 186.126 142.621 181.018 141.149 175.002C140.543 172.621 139.548 170.371 138.812 168.033C136.172 159.81 135.003 151.196 132.925 142.843C131.93 138.774 130.718 134.792 129.376 130.81C128.9 129.382 128.121 127.953 127.125 126.914C125.784 125.486 126.26 124.923 127.169 123.322C130.718 116.7 135.219 110.38 135.479 102.373C135.566 100.165 136.301 98.0013 136.388 95.7939C136.907 85.7089 133.358 77.2254 125.481 70.8628C120.287 66.6643 114.357 67.0106 109.12 71.3389C106.263 73.7195 104.272 76.7926 102.757 80.0821C100.766 84.4537 98.6452 88.7387 97.087 93.2835C95.7885 97.0924 95.6153 100.945 97.2601 104.58C99.5541 109.688 101.588 114.968 105.094 119.426C105.83 120.335 107.302 121.677 105.873 122.716C104.662 123.668 103.623 122.067 102.757 121.201C101.502 119.946 100.896 118.258 100.117 116.656C98.4288 113.194 96.5676 109.774 95.1825 106.182C93.6243 101.983 92.9318 97.655 94.8362 93.1969C97.6497 86.5313 99.9004 79.606 103.969 73.5463C106.35 69.9971 109.466 67.4434 113.491 66.1449C118.252 64.5867 122.667 65.3225 126.649 68.5255C131.713 72.5941 134.873 77.7881 136.994 83.9776C138.855 89.388 139.548 94.5819 138.119 100.079C137.946 100.771 137.86 101.464 137.86 102.156C138.033 108.389 135.522 113.8 132.752 119.08C131.8 120.941 131.454 123.106 129.939 124.664C129.29 125.313 129.852 126.049 130.155 126.568C131.67 129.122 132.536 131.892 133.142 134.749C133.445 136.047 134.267 136.913 135.306 137.822C139.678 141.544 144.569 144.574 149.113 148.037C154.351 152.019 157.164 157.342 158.852 163.402C159.891 167.124 160.713 170.89 161.579 174.656C161.709 175.218 161.882 176.084 161.579 176.344C159.588 178.075 160.54 180.066 160.756 182.1C161.059 184.957 159.458 187.251 158.246 189.632C156.904 192.272 156.948 192.791 159.718 193.57C161.449 194.09 163.267 194.35 165.041 195.042C163.483 196.081 161.752 195.908 160.237 195.388C156.645 194.176 153.745 194.653 150.758 197.336C148.377 199.457 145.694 201.448 142.751 202.92C138.812 204.954 134.527 205.517 130.285 206.252C128.684 206.512 127.472 206.988 126.52 208.417C125.351 210.191 124.096 211.879 122.754 213.481C115.396 222.181 107.821 223.003 97.9094 219.021C95.875 218.199 95.0959 216.251 94.4467 214.346C93.7975 212.485 92.8885 210.754 91.893 209.066C89.0796 204.132 87.4781 198.764 87.305 193.051C87.1751 188.074 86.6557 183.009 88.5169 178.118C88.9065 177.08 88.7766 175.781 88.5602 174.656C87.5647 169.851 88.1274 165.047 88.7333 160.329C89.5124 154.356 91.287 148.513 93.2348 142.713C95.0959 137.129 97.8661 132.022 100.203 126.655C100.809 125.226 101.459 124.62 103.06 124.923C103.839 125.053 104.662 124.707 105.484 124.664C106.22 124.62 106.869 124.75 107.172 125.573C107.475 126.438 107.388 127.217 106.739 127.823C106.436 128.17 105.96 128.429 105.614 127.867C104.229 125.832 102.93 127.564 101.935 128.213C100.982 128.819 99.9004 129.988 101.632 131.243C102.151 131.632 103.406 132.888 104.099 132.844C104.835 132.758 105.614 132.801 105.787 133.667C105.917 134.316 105.311 134.619 104.705 134.792C103.363 135.182 102.065 135.787 100.679 135.961C98.3855 136.307 97.087 137.476 96.6541 139.683C96.4377 140.808 95.5288 141.761 95.8318 143.275C97.4765 143.319 99.1213 142.972 100.679 142.41C101.329 142.15 102.021 141.89 102.67 141.804C103.623 141.674 104.359 142.02 104.056 143.189C103.579 144.834 103.493 146.608 102.065 147.95C101.372 148.643 100.074 149.292 101.156 150.807C101.632 151.499 100.593 151.932 100.074 152.322C96.9571 154.659 96.6974 155.048 95.875 159.031C96.6974 159.55 97.4332 159.117 98.2123 158.901C98.8616 158.684 99.5108 158.381 100.247 158.987C99.8571 160.978 98.2123 161.281 96.6109 161.628C95.2258 161.887 94.2736 162.45 94.2303 164.095C94.1437 166.086 94.2736 166.302 96.3512 165.999C97.39 165.869 98.4288 165.653 99.4675 165.523C100.247 165.436 100.853 165.783 100.896 166.648C100.939 167.384 100.42 167.644 99.7705 167.774C98.3855 167.99 97.0004 168.12 95.6153 168.423C93.6676 168.813 91.893 171.972 92.499 173.877C92.6721 174.439 93.1049 174.569 93.581 174.569C94.9661 174.612 96.3512 174.656 97.7362 174.05C98.6019 173.704 99.5541 173.53 100.463 173.401C101.199 173.271 102.021 173.444 102.151 174.266C102.281 175.175 101.415 175.218 100.723 175.392C98.2123 175.911 95.8318 176.906 93.1915 177.036C91.5035 177.123 91.2437 177.815 91.9796 179.374C92.8019 181.148 94.1004 181.841 96.6541 181.581C98.5153 181.408 100.333 180.975 102.194 180.672C102.887 180.542 103.579 180.456 104.272 180.412C104.791 180.412 105.181 180.715 105.267 181.235C105.354 181.754 105.094 182.1 104.575 182.317C102.281 183.226 99.8138 183.529 97.3899 183.788C96.7407 183.788 95.9616 183.702 94.6631 183.702ZM124.182 206.858C120.763 206.296 117.776 205.906 114.876 205.084C113.664 204.738 112.539 204.045 111.197 204.002C108.341 203.872 107.778 204.261 107.908 207.032C107.951 208.287 107.778 209.542 108.773 210.667C109.812 211.879 108.6 213.005 108.081 214.087C107.864 214.519 107.345 214.779 106.869 214.476C106.003 213.914 105.83 212.918 105.83 212.009C105.787 208.979 105.787 205.906 105.83 202.876C105.873 201.535 106.436 200.626 107.994 200.799C110.635 201.058 113.275 201.058 115.872 202.184C117.949 203.093 120.373 203.439 122.711 203.699C125.048 203.958 127.342 203.742 129.203 201.794C130.328 200.626 131.8 199.76 133.185 198.938C137.946 196.038 142.794 193.224 146.733 189.199C149.286 186.602 149.892 186.559 153.009 188.593C153.398 188.853 153.745 189.199 154.134 189.459C154.697 189.848 155.259 189.805 155.649 189.242C157.813 186.342 159.285 183.269 158.333 179.46C157.9 177.815 156.818 177.123 155.259 177.166C152.013 177.296 149.243 178.897 146.386 180.283C144.569 181.191 144.439 183.139 143.876 184.697C142.924 187.338 141.409 189.675 139.418 191.32C131.021 198.418 121.585 201.318 110.764 197.553C108.903 196.903 107.172 195.648 105.094 195.951C103.666 196.167 102.627 195.561 101.502 194.826C99.4675 193.484 98.3855 193.7 97.2601 195.951C96.178 198.158 95.6586 200.582 95.0527 202.963C94.3601 205.603 94.8795 208.07 95.9616 210.451C96.6974 212.096 98.472 213.264 98.2556 215.385C98.2123 215.688 98.8183 216.164 99.2078 216.337C103.017 218.155 107.129 219.194 111.154 218.155C117.084 216.727 120.806 212.139 124.182 206.858ZM135.349 142.237C137.167 150.937 137.86 159.939 141.669 168.207C142.491 169.981 143.227 171.842 143.703 173.747C144.698 177.772 145.001 177.989 148.767 176.603C149.763 176.257 150.715 175.781 151.624 175.262C153.398 174.136 155.259 173.704 157.294 174.483C157.813 174.699 158.419 174.786 158.895 174.266C158.765 170.414 157.597 166.735 156.515 163.099C155.346 159.074 153.788 155.178 150.412 152.322C146.43 148.946 141.842 146.349 137.903 142.843C137.34 142.323 136.561 141.804 135.349 142.237ZM92.5855 203.872C92.8019 202.66 92.8885 202.011 93.0616 201.405C93.8407 198.635 94.0571 195.561 95.8318 193.224C97.1735 191.45 97.1735 190.238 95.6586 188.766C94.6631 187.771 94.0139 186.515 93.0184 185.52C92.0228 184.524 92.0661 182.706 90.1184 182.057C89.6423 189.459 88.9065 196.557 92.5855 203.872ZM133.964 202.27C141.192 201.881 146.343 197.466 151.624 193.311C152.143 192.921 152.836 192.272 152.1 191.579C151.364 190.844 150.412 190.194 149.286 190.8C148.767 191.06 148.334 191.493 147.945 191.882C146.127 193.873 143.789 195.259 141.755 196.99C139.288 199.024 136.215 199.933 133.964 202.27ZM100.463 145.137C98.9914 145.396 98.2123 145.569 97.4332 145.656C94.1437 146.089 93.884 146.305 93.4945 149.422C93.4079 150.071 93.0616 150.937 93.7975 151.326C94.7064 151.759 95.7019 151.456 96.3079 150.677C97.5631 149.075 98.775 147.387 100.463 145.137ZM94.8362 154.183C93.1482 153.88 92.499 154.616 92.0228 155.654C91.4602 156.823 90.9408 157.992 91.1139 159.334C91.1572 159.593 91.4602 159.939 91.7199 160.069C92.196 160.286 92.6288 159.983 92.8885 159.55C93.7975 157.905 94.3601 156.174 94.8362 154.183ZM90.3781 169.505C92.0661 167.601 91.5467 165.869 92.0661 164.398C92.196 163.965 92.0661 163.489 91.4602 163.445C90.8109 163.402 90.7243 163.965 90.6811 164.354C90.5512 165.783 90.5079 167.254 90.3781 169.505Z" fill="#111111"/>
<path d="M129.506 89.1283C132.493 91.7686 132.363 91.9417 129.766 93.9328C125.87 96.9193 121.282 96.7462 116.824 97.2656C115.612 97.3954 114.703 96.9193 114.833 95.5342C114.963 94.2357 115.612 93.4134 117.127 93.5865C119.811 93.8462 122.451 93.7163 125.048 92.7208C126.823 91.985 128.511 91.2492 129.506 89.1283Z" fill="#111111"/>
<path d="M55.2755 194.869C55.8382 193.614 56.6173 193.441 57.4396 193.441C60.9023 193.354 64.0187 192.099 67.0918 190.584C71.1604 188.55 75.4454 188.723 79.6872 189.935C80.3797 190.108 81.1155 190.368 80.9424 191.276C80.8125 192.012 80.12 192.012 79.5573 192.012C78.0424 192.012 76.5708 192.099 75.0126 191.753C72.6753 191.233 70.4679 191.45 68.2604 192.575C64.2784 194.653 59.9933 195.432 55.2755 194.869Z" fill="#111111"/>
<path d="M194.604 180.932C194.647 181.581 194.171 181.754 193.781 181.927C188.544 183.875 183.134 185.303 177.68 186.342C176.338 186.602 174.91 186.429 173.612 187.165C173.179 187.381 172.659 187.294 172.486 186.775C172.313 186.342 172.486 185.823 172.876 185.52C173.828 184.784 174.953 184.568 176.122 184.438C181.662 183.789 187.073 182.533 192.267 180.499C193.176 180.109 193.998 179.936 194.604 180.932Z" fill="#111111"/>
<path d="M122.215 41.3587C120.224 43.9124 117.627 44.6049 114.51 44.3885C113.515 44.3019 112.779 43.999 112.043 43.4363C110.312 42.0512 110.182 41.2288 111.913 39.8004C114.121 38.0258 116.501 36.511 119.877 37.0737C121.479 37.3334 121.739 36.6408 121.349 35.602C120.873 34.2169 120.353 32.8319 118.925 31.8364C118.406 31.4468 117.93 31.014 117.583 30.5379C117.237 30.0618 117.54 29.5857 117.973 29.2394C118.362 28.9364 118.752 28.9364 119.228 29.1529C121.739 30.1484 124.812 34.996 124.033 37.3333C123.556 38.805 123.859 39.887 124.768 41.0989C127.192 44.475 126.846 47.8078 124.422 51.1839C122.647 53.6511 120.353 55.5988 117.973 57.5899C117.454 58.0227 116.848 58.4988 116.198 58.0227C115.462 57.5033 115.722 56.6376 116.458 56.2914C119.574 54.7765 120.743 52.0496 122.604 49.7556C124.855 47.1153 124.682 44.4318 122.215 41.3587ZM119.877 39.8871C119.791 39.3677 119.401 39.0647 118.752 39.0214C116.761 38.9349 115.16 39.6707 113.818 40.8393C113.428 41.1856 113.515 41.5751 113.904 41.8348C114.9 42.5274 116.068 42.4841 117.194 42.0513C118.319 41.6617 119.401 41.0557 119.877 39.8871Z" fill="#F26A25"/>
</svg>
