<svg width="250" height="250" viewBox="0 0 250 250" fill="none" xmlns="http://www.w3.org/2000/svg">
<path d="M132.84 208.62C132.981 208.705 133.122 208.762 133.263 208.818C133.348 208.846 133.404 208.875 133.489 208.903C138.452 211.191 145.08 213.989 152.272 215.627C157.518 216.814 163.159 217.973 169.082 218.34C172.523 218.566 175.823 219.018 179.8 219.611C182.169 219.979 184.594 220.148 187.189 220.148C189.756 220.148 192.463 219.979 195.425 219.611C197.681 219.329 199.881 216.673 199.796 214.299C199.683 211.587 196.017 208.168 193.055 207.151C190.517 206.275 187.838 205.795 185.271 205.343C182.733 204.891 180.11 204.41 177.628 203.563C175.936 202.998 174.159 202.517 172.466 202.093C171.226 201.783 169.956 201.444 168.715 201.076C163.892 199.607 158.703 198.109 153.372 196.951C151.652 196.584 150.044 196.019 148.324 195.453C146.547 194.86 144.686 194.239 142.74 193.843L142.824 193.786C143.106 193.56 143.332 193.363 143.557 193.165C147.393 189.859 148.634 186.638 147.619 182.711C147.591 182.598 147.534 182.456 147.506 182.315C147.309 181.778 147.224 181.439 147.534 181.1C148.126 180.422 148.747 179.744 149.311 179.066C150.749 177.427 152.216 175.703 153.824 174.206C155.206 172.906 156.757 171.719 158.223 170.589C159.041 169.968 159.888 169.318 160.677 168.668C161.128 168.301 161.523 168.131 161.946 168.131C162.2 168.131 162.454 168.188 162.736 168.301C164.485 169.007 166.064 169.346 167.587 169.346C167.644 169.346 167.7 169.346 167.785 169.346C169.956 169.318 171.564 168.414 172.579 166.69C173.905 164.373 173.341 162.085 172.636 159.937C172.438 159.287 172.579 158.383 173.031 157.677C173.369 157.112 173.848 156.773 174.328 156.716C176.697 156.405 178.925 155.614 180.984 154.823C181.182 154.738 181.351 154.71 181.492 154.71C181.689 154.71 181.802 154.767 181.943 154.936C182.733 155.981 183.861 156.405 184.961 156.829C185.186 156.914 185.412 156.999 185.638 157.112C186.766 157.592 187.922 157.818 189.05 157.818C190.996 157.818 192.886 157.14 194.635 155.784C195.114 155.416 195.537 155.219 195.904 155.219C196.271 155.219 196.609 155.388 197.032 155.642C197.512 155.925 198.019 156.321 198.64 156.914C204.055 162.113 208.652 167.368 212.742 172.934C215.506 176.721 219.285 178.642 223.939 178.642H224.052C226.054 178.614 227.915 177.766 229.015 176.325C229.918 175.166 230.2 173.754 229.862 172.369C229.072 169.289 227.859 166.577 226.251 164.345C222.585 159.259 219.257 155.332 215.703 152.026C214.265 150.698 212.855 149.285 211.501 147.929C208.962 145.414 206.368 142.815 203.491 140.554C200.783 138.407 197.822 136.316 194.043 136.316C193.704 136.316 193.366 136.344 193.027 136.373C190.827 136.599 188.712 137.135 186.681 137.672C186.54 137.701 186.427 137.757 186.315 137.814C186.145 137.898 185.948 137.983 185.807 137.983C185.722 137.983 185.61 137.955 185.468 137.785C185.215 137.446 184.933 137.107 184.651 136.768C184.058 136.034 183.438 135.271 182.93 134.48C178.192 127.246 174.215 120.324 170.802 113.288C170.464 112.582 170.097 111.847 169.731 111.141C168.574 108.852 167.362 106.479 166.6 103.993C164.851 98.4263 163.554 92.6623 162.313 87.0679L161.862 85.0335C161.805 84.8075 161.749 84.5814 161.693 84.3554C161.495 83.5078 161.27 82.6319 161.298 81.8125C161.523 77.0374 162.736 72.3188 164.908 67.8546L164.936 67.7981C165.669 66.2723 166.374 64.8313 168.151 64.8313C168.292 64.8313 168.433 64.8313 168.603 64.8595C169.872 65.0008 171.31 65.2551 172.551 66.131C173.454 66.7526 174.356 67.2895 175.287 67.6568C176.753 68.2784 178.248 68.5892 179.715 68.5892C182.225 68.5892 184.792 67.7698 187.781 65.9615C188.909 65.2834 189.981 64.5205 190.996 63.7859C192.294 62.8534 193.648 61.8645 195.114 61.1016C196.299 60.48 197.399 59.7737 198.583 59.0108C198.978 58.7565 199.401 58.5022 199.824 58.2197C199.881 61.8645 199.74 65.4246 199.57 68.9C199.542 69.4933 199.514 70.0584 199.486 70.6518C199.458 71.4712 199.401 72.1776 199.26 72.8557C198.019 79.4391 197.427 86.0789 196.863 93.4535C196.496 98.2568 196.468 103.371 196.835 109.53C197.06 113.288 198.104 115.944 200.163 117.894C201.376 119.052 202.645 119.617 203.942 119.617C204.309 119.617 204.675 119.561 205.042 119.476C208.455 118.629 210.796 116.34 211.839 112.865C212.403 111 212.657 108.965 212.629 106.79C212.573 103.71 212.008 100.715 211.444 97.8047C211.134 96.2224 210.937 94.5837 210.711 93.0014C210.401 90.5997 210.062 88.085 209.414 85.7116C206.847 76.2463 205.381 66.7809 204.168 57.9654C204.14 57.7111 204.083 57.4285 204.027 57.1742C203.857 56.1853 203.688 55.1964 204.027 54.1792C204.196 53.7271 204.478 53.3598 204.788 52.9642C204.986 52.71 205.211 52.4557 205.38 52.1449C206.227 50.7321 206.791 49.2064 207.383 47.5958C207.524 47.2568 207.637 46.8895 207.778 46.5221C208.398 48.1609 208.652 49.6019 208.821 50.7886C209.019 52.0883 209.132 53.4163 209.273 54.7161C209.442 56.4961 209.639 58.3609 209.978 60.1692C211.049 65.7072 211.839 70.7931 212.46 75.7094C212.629 77.0939 212.798 78.4784 212.996 79.8629C213.419 83.1122 213.842 86.5028 214.18 89.8086C214.772 95.8834 214.66 102.156 213.87 109.022C213.757 110.011 213.588 111 213.419 111.96C213.108 113.797 212.798 115.662 212.826 117.583C212.883 119.73 214.744 121.708 216.775 121.708C216.888 121.708 217.001 121.708 217.113 121.68C219.765 121.398 221.682 119.872 222.811 117.131C224.136 113.825 224.334 110.322 224.531 106.959C224.587 106.027 224.644 105.094 224.7 104.162C225.067 99.5848 224.813 94.8945 224.559 90.4019C224.531 89.8086 224.503 89.2435 224.475 88.6501C224.164 82.4906 222.867 76.1332 220.413 68.6457C219.736 66.6113 218.862 63.9271 217.931 61.2147C217.621 60.3105 217.311 59.3498 217.001 58.4457C216.154 55.931 215.308 53.3316 214.208 50.9016C213.785 49.9975 213.306 49.1216 212.826 48.2739C212.206 47.172 211.557 46.0136 211.106 44.8269C210.824 44.064 210.373 43.3576 209.95 42.6795C209.188 41.4645 208.483 40.3061 208.539 38.8086C208.539 38.5825 208.427 38.413 208.286 38.2717C208.229 38.2152 208.173 38.1304 208.144 38.0739C207.186 35.8701 205.409 34.4008 203.66 33.1293C202.052 31.9709 199.57 30.3886 196.694 29.9931C196.045 29.9083 195.368 29.8518 194.691 29.8518C192.153 29.8518 189.502 30.5016 186.568 31.8014C179.63 34.9094 174.215 40.1648 170.492 47.3698C168.574 51.0712 166.121 53.7271 162.99 55.4789C158.562 57.9654 153.542 59.5759 149.508 60.8756C143.445 62.8252 137.635 65.5094 131.712 69.0978C126.889 72.008 121.276 75.5399 116.171 79.7781C109.205 85.5704 103.367 91.1366 98.2901 96.7593C93.3826 102.212 88.3059 108.231 84.4419 115.068L84.1317 115.605C81.4805 120.324 78.7165 125.212 77.2781 130.609C77.1653 131.032 77.0525 131.485 76.9397 131.908C76.1218 134.96 75.2474 138.124 74.7962 141.317C74.3167 144.821 73.668 147.985 72.8501 151.037C72.3142 153.071 72.427 155.077 73.2168 157.112C73.4988 157.79 73.8654 158.411 74.2603 158.976C74.5987 159.485 74.909 159.994 75.1628 160.53C76.8269 164.345 79.3934 167.566 81.9036 170.674C82.5523 171.493 83.2292 172.313 83.8778 173.16C85.8521 175.732 88.2777 177.935 90.6468 180.083C91.3237 180.704 92.0006 181.326 92.6775 181.948C93.3262 182.569 93.9749 183.163 94.6236 183.784C96.3158 185.395 98.0362 187.062 99.9823 188.644C99.9823 188.644 101.703 189.774 101.9 189.972C103.113 191.13 104.495 192.063 105.849 192.967C106.61 193.476 107.4 194.012 108.161 194.578C112.533 197.912 117.497 200.935 124.266 204.354C125.225 204.834 126.156 205.314 127.143 205.823L128.186 206.36C127.932 206.445 131.571 207.914 132.84 208.62ZM212.714 170.928C208.596 165.08 203.745 160.078 199.091 155.529C198.273 154.71 197.117 153.749 195.594 153.495C195.199 153.439 195.142 153.241 195.03 152.845L194.86 152.28C194.381 150.67 193.901 149.003 193.084 147.392C193.112 147.392 193.168 147.392 193.196 147.392C193.676 147.392 194.099 147.618 194.522 147.872L194.635 147.929C196.327 148.889 198.273 150.076 199.824 151.658C202.024 153.862 204.591 155.303 207.665 156.094C208.624 156.321 209.442 156.801 210.119 157.225C211.867 158.298 211.924 158.411 211.473 160.191L211.416 160.474L211.698 160.53C211.755 160.53 211.811 160.559 211.867 160.559C212.262 160.559 212.488 160.248 212.685 160.05C212.742 159.965 212.855 159.824 212.911 159.824C212.911 159.824 212.939 159.824 212.967 159.852C213.983 160.728 214.66 161.519 215.054 162.311C215.421 163.045 215.731 163.497 216.436 163.978C217.226 164.514 217.818 165.475 218.354 166.408L218.411 166.521C218.58 166.831 218.806 167.086 219.031 167.34C219.398 167.82 219.765 168.244 219.934 168.894C220.018 169.261 220.357 169.544 220.752 169.883C221.09 170.194 221.485 170.504 221.654 170.9C222.134 171.861 222.782 172.737 223.657 173.584C224.193 174.121 224.616 174.771 225.039 175.477C225.236 175.788 225.434 176.099 225.631 176.41C225.941 176.862 225.913 176.947 225.913 176.975C225.913 176.975 225.857 177.088 225.292 177.144C224.785 177.201 224.249 177.229 223.741 177.229C219.257 177.144 215.647 175.11 212.714 170.928ZM193.281 155.106C192.886 155.699 191.984 156.066 190.15 156.349C189.727 156.405 189.304 156.462 188.881 156.462C186.963 156.462 185.074 155.784 183.128 154.371C182.253 153.721 181.999 152.647 181.746 151.602L181.717 151.461C181.52 150.67 181.464 149.822 181.435 149.144C181.407 148.889 181.407 148.692 181.379 148.494C181.435 145.894 183.635 144.171 185.666 144.171C186.117 144.171 186.54 144.256 186.935 144.425C190.235 145.753 192.266 147.985 193.027 151.065L193.225 151.885C193.648 153.58 193.676 154.512 193.281 155.106ZM178.502 154.512C177.797 154.767 177.064 154.964 176.218 155.162C176.048 155.219 175.851 155.247 175.682 155.303C176.161 154.653 176.725 154.117 177.261 153.608C177.91 152.986 178.559 152.365 179.066 151.574L179.292 151.235L178.897 151.15C178.784 151.122 178.671 151.122 178.559 151.122C177.966 151.122 177.628 151.489 177.346 151.771C177.289 151.828 177.233 151.913 177.148 151.969C176.612 152.45 176.105 152.958 175.597 153.439C175.202 153.806 174.807 154.201 174.413 154.569C173.369 155.529 172.015 156.066 170.577 156.066C169.392 156.066 168.264 155.699 167.277 155.049C166.374 154.427 165.359 153.891 164.4 153.41C164.203 153.326 164.033 153.212 163.836 153.128C163.526 152.958 163.272 152.789 162.962 152.478C164.795 152.45 166.487 152.054 168.123 151.658C169.082 151.432 170.013 151.206 170.943 151.065C170.972 151.065 171 151.065 171.028 151.065C171.226 151.065 171.31 151.178 171.479 151.461C171.649 151.743 171.902 152.139 172.438 152.139C172.495 152.139 172.551 152.139 172.636 152.111L172.974 152.054L172.861 151.715C172.692 151.263 172.664 150.952 172.777 150.783C172.918 150.528 173.454 150.472 173.989 150.387L174.159 150.359C175.005 150.246 175.851 150.02 176.641 149.794C177.543 149.539 178.502 149.285 179.461 149.2C179.574 149.2 179.658 149.172 179.743 149.172C179.941 149.172 179.997 149.172 180.025 149.483C180.053 149.765 180.138 150.048 180.223 150.33C180.251 150.415 180.279 150.528 180.307 150.613C180.984 153.099 180.702 153.693 178.502 154.512ZM185.384 206.699C186.343 206.981 187.33 207.179 188.317 207.377C191.137 207.97 194.043 208.564 196.271 210.768C197.145 211.644 197.794 212.491 198.273 213.367C198.442 213.706 198.499 213.96 198.386 214.158C198.273 214.356 197.963 214.441 197.737 214.469C196.13 214.639 194.494 214.78 192.886 214.921L191.589 215.034C191.561 215.034 191.532 215.034 191.532 215.034C191.166 215.034 190.968 214.723 190.602 213.96L190.15 213.056L190.066 214.073C189.981 215.091 189.671 215.091 189.558 215.091C189.445 215.091 189.304 215.062 189.163 215.006C188.938 214.921 188.656 214.893 188.317 214.893C188.148 214.893 187.979 214.893 187.809 214.921C187.64 214.921 187.499 214.949 187.33 214.949C186.822 214.949 186.399 214.836 186.061 214.328L185.892 214.045L185.638 214.271C185.356 214.497 185.074 214.61 184.679 214.61C184.425 214.61 184.171 214.582 183.917 214.526C183.692 214.497 183.438 214.441 183.212 214.441C180.674 214.328 178.107 213.904 175.625 213.508C174.3 213.282 172.918 213.056 171.564 212.887C168.264 212.463 164.964 211.87 161.777 211.276C160.931 211.107 160.057 210.965 159.211 210.796C158.675 210.711 158.365 210.626 158.28 210.513C158.195 210.4 158.195 210.033 158.223 209.496L158.252 208.733L157.716 209.298C157.152 209.892 156.616 210.174 155.967 210.174C155.318 210.174 154.642 209.892 153.993 209.609C153.542 209.411 153.09 209.214 152.611 209.129C149.593 208.422 146.575 207.462 143.755 206.501C142.909 206.219 142.034 205.936 141.16 205.682C139.158 205.06 137.099 204.41 135.181 203.534C134.927 203.421 134.701 203.308 134.645 203.195C134.589 203.054 134.73 202.743 134.842 202.545C136.112 199.833 138.227 197.94 140.455 195.934C140.709 195.708 140.934 195.482 141.188 195.284C141.358 195.114 141.527 195.058 141.752 195.058C141.922 195.058 142.063 195.086 142.204 195.143C143.614 195.567 145.08 195.99 146.462 196.414C149.311 197.29 152.272 198.166 155.234 198.901C158.985 199.833 162.369 200.737 165.641 201.67C167.587 202.235 169.533 202.828 171.451 203.393C174.074 204.184 176.81 205.004 179.517 205.738C180.476 205.993 181.52 206.134 182.479 206.247C183.41 206.303 184.425 206.416 185.384 206.699ZM191.222 218.735C190.799 218.735 190.348 218.735 189.868 218.707H189.84H189.812C188.938 218.764 188.035 218.82 187.104 218.82C183.41 218.82 179.602 218.283 175.936 217.775L175.795 217.747C173.933 217.492 172.015 217.323 170.154 217.181C168.236 217.012 166.262 216.842 164.344 216.588C159.154 215.853 153.626 214.921 148.352 213.226C142.542 211.361 136.901 208.988 132.05 206.897C131.402 206.614 131.007 206.416 130.922 206.303C130.95 206.275 130.978 206.219 131.063 206.162C131.486 205.823 131.937 205.484 132.36 205.173C132.671 204.947 132.981 204.721 133.291 204.495C133.376 204.439 133.46 204.382 133.573 204.382C133.686 204.382 133.827 204.439 133.94 204.467C134.617 204.721 135.322 205.004 135.999 205.258C137.409 205.795 138.819 206.332 140.229 206.897C140.286 206.925 140.342 206.925 140.37 206.953C140.455 206.981 140.624 207.038 140.624 207.066C140.624 207.066 140.624 207.094 140.596 207.151C140.568 207.208 140.54 207.264 140.511 207.321C140.427 207.462 140.314 207.688 140.37 207.914C140.427 208.083 140.568 208.196 140.765 208.281C140.85 208.309 140.963 208.338 141.047 208.338C141.329 208.338 141.611 208.14 141.809 207.829C141.95 207.603 142.091 207.575 142.204 207.575C142.345 207.575 142.542 207.631 142.711 207.688C142.768 207.716 142.824 207.716 142.881 207.744C144.996 208.422 147.168 209.044 149.255 209.609C151.708 210.287 154.247 211.022 156.729 211.841C157.857 212.237 159.07 212.378 160.254 212.548C161.016 212.661 161.805 212.745 162.539 212.915C163.498 213.113 164.485 213.282 165.415 213.424C167.192 213.706 169.026 213.989 170.774 214.667C171.113 214.808 171.508 214.865 172.043 214.865C172.325 214.865 172.607 214.836 172.918 214.836C173.2 214.808 173.51 214.808 173.82 214.808C174.187 214.808 174.497 214.836 174.779 214.893C177.853 215.514 181.069 215.74 183.889 215.938H184.03C184.679 215.967 185.017 216.023 185.102 216.645C185.186 217.181 185.553 217.21 185.666 217.21C185.863 217.21 186.089 217.097 186.286 216.899C186.653 216.532 187.217 216.334 187.894 216.334C188.768 216.334 189.558 216.673 189.868 217.21C190.066 217.549 190.263 217.69 190.517 217.69C190.799 217.69 191.025 217.436 191.109 217.012C191.194 216.475 191.391 216.447 192.012 216.419C192.068 216.419 192.125 216.419 192.209 216.419C193.93 216.306 195.735 216.193 197.54 215.995C197.624 215.995 197.709 215.995 197.765 215.995C197.906 215.995 197.963 216.023 197.991 216.023C197.991 216.051 197.963 216.164 197.822 216.419C197.173 217.408 196.327 218.057 195.255 218.312C194.014 218.594 192.689 218.735 191.222 218.735ZM199.373 35.644H199.401C201.883 35.644 203.491 37.4241 204.393 38.8933C204.675 39.3454 205.07 39.7127 205.465 40.1365C205.832 40.5039 206.227 40.8994 206.509 41.3232L206.593 41.4363C206.762 41.6906 206.904 41.9166 206.904 42.1709C206.65 46.1548 205.55 49.2346 203.491 51.7493C203.237 50.4778 202.983 49.2064 202.758 47.9631C202.024 43.8379 201.235 39.5432 199.373 35.644ZM205.916 38.1022C205.127 36.8025 203.914 35.9831 202.758 35.1919C202.306 34.8811 201.855 34.5703 201.432 34.2595C201.319 34.1748 201.15 34.1183 200.952 34.1183C200.755 34.1183 200.558 34.1465 200.36 34.203C200.163 34.2313 199.994 34.2878 199.796 34.2878C198.301 34.2595 197.653 33.2989 196.835 32.0839C196.722 31.9144 196.609 31.7166 196.468 31.5471C200.558 32.4512 204.422 35.2767 206.086 37.6219C206.593 38.3565 206.904 39.0064 206.988 39.5997C206.537 39.0629 206.198 38.5825 205.916 38.1022ZM195.114 32.536C197.286 34.7681 198.809 37.3111 199.599 40.08C200.163 42.0014 200.529 44.0075 200.896 45.957C201.065 46.8047 201.235 47.7088 201.404 48.5565C201.911 51.0712 202.193 53.6706 202.447 56.1853C202.673 58.3892 202.899 60.6778 203.322 62.91C203.575 64.2662 203.801 65.6224 204.055 66.9504C204.704 70.6518 205.38 74.4662 206.227 78.2241C206.48 79.4108 206.791 80.5975 207.073 81.756C207.806 84.6945 208.539 87.7177 208.85 90.7127C209.075 92.8884 209.498 95.064 209.893 97.1549C210.542 100.489 211.191 103.936 211.078 107.411C210.993 109.587 210.767 111.932 209.696 114.108C208.878 115.803 207.552 117.075 205.747 117.894C205.183 118.148 204.619 118.289 204.055 118.289C202.532 118.289 201.065 117.385 199.965 115.718C198.583 113.684 197.935 111.198 197.906 107.948C197.906 107.016 197.878 106.055 197.85 105.123C197.765 101.082 197.709 96.9006 198.019 92.7753C198.329 88.7349 198.865 84.6379 199.373 80.6823C199.824 77.0939 200.304 73.3643 200.642 69.6911C201.263 62.6557 201.178 56.5244 200.417 50.9299C200.332 50.3931 200.276 49.8562 200.191 49.3194C199.909 47.4828 199.655 45.5615 199.514 43.6967C199.232 39.2606 196.863 35.7288 194.268 32.2534C194.127 32.0557 193.958 31.8861 193.789 31.6883C193.732 31.6318 193.676 31.5753 193.648 31.5188C193.76 31.4906 193.845 31.4623 193.958 31.4623C194.268 31.4623 194.494 31.7166 194.776 32.1122C194.86 32.2252 194.973 32.3947 195.114 32.536ZM172.607 140.95C171.761 141.148 170.943 141.317 170.126 141.515C166.572 142.334 163.216 143.097 159.746 143.323C158.393 143.408 157.039 143.578 155.685 143.832C155.544 143.86 155.431 143.86 155.347 143.86C154.952 143.86 154.698 143.691 154.303 143.125C152.188 140.017 152.216 136.401 152.272 132.897V131.739C152.301 129.111 152.329 126.37 152.667 123.743C152.837 122.358 153.288 121.002 153.711 119.674C153.908 119.024 154.134 118.374 154.303 117.696C154.783 115.944 155.262 114.164 155.742 112.412L156.306 110.378C160.903 122.273 166.233 132.276 172.607 140.95ZM140.201 156.603C140.455 156.434 140.681 156.292 140.906 156.123C141.978 155.416 142.993 154.767 143.98 154.117C144.009 154.088 144.065 154.088 144.121 154.088C144.206 154.088 144.319 154.145 144.404 154.23C145.193 155.077 145.983 155.925 146.829 156.857L147.365 157.422C146.857 157.422 146.35 157.451 145.842 157.451C144.065 157.451 142.175 157.338 140.201 156.603ZM106.836 184.801C104.1 184.067 102.098 182.202 100.123 180.365C99.4746 179.772 98.8259 179.15 98.149 178.585C97.6696 178.19 97.1619 177.794 96.6542 177.399C95.6671 176.636 94.6518 175.873 93.7774 174.912C92.0006 172.934 90.1955 171.041 88.3059 169.035C87.6572 168.357 87.0367 167.679 86.388 166.973C87.8546 166.973 89.2366 167.34 90.5622 167.679C90.8724 167.764 91.1827 167.849 91.5211 167.905C91.7467 167.962 91.9724 168.018 92.198 168.103C92.7903 168.272 93.3826 168.442 94.0313 168.442C94.1723 168.442 94.3415 168.442 94.4825 168.414C94.5671 168.414 94.6518 168.385 94.7364 168.385C95.0748 168.385 95.3287 168.498 95.5261 168.724C98.4029 172.03 101.872 175.816 106.328 178.501L107.259 179.066C111.038 181.354 114.959 183.728 119.387 185.734C118.146 186.073 116.961 186.44 115.833 186.808C114.028 187.373 112.336 187.909 110.587 188.249C110.502 188.277 110.39 188.277 110.305 188.277C109.91 188.277 109.572 188.107 109.346 187.825C109.092 187.486 108.726 187.231 108.359 186.977C107.71 186.525 107.146 186.129 107.231 185.225C107.259 184.999 106.977 184.83 106.836 184.801ZM123.871 197.742C123.984 197.46 124.097 197.092 124.012 196.697L123.871 196.132L123.504 196.612C123.053 197.205 122.686 197.29 122.433 197.29C122.038 197.29 121.615 197.064 121.107 196.81C119.133 195.736 117.384 194.267 115.72 192.826C115.438 192.6 115.184 192.374 114.902 192.119C114.479 191.752 113.971 191.441 113.52 191.159C113.097 190.904 112.674 190.622 112.307 190.339C112.166 190.226 112.054 190.142 111.913 190.057C111.631 189.887 111.377 189.689 111.207 189.463L112.787 189.011C115.184 188.333 117.666 187.627 120.092 186.949C120.458 186.836 120.853 186.808 121.22 186.808C122.574 186.808 123.815 187.429 125.112 188.079C127.509 189.35 130.076 190.368 132.53 191.385C134.25 192.091 136.027 192.798 137.719 193.589L137.86 193.645C138.791 194.069 139.581 194.436 139.609 194.662C139.637 194.888 138.876 195.482 138.17 196.047C136.337 197.488 134.927 199.24 133.771 201.415C133.714 201.5 133.686 201.613 133.63 201.726C133.432 202.178 133.291 202.432 133.009 202.432C132.981 202.432 132.925 202.432 132.868 202.404C132.078 202.235 131.543 202.093 131.402 201.415C131.345 201.189 131.26 200.681 130.866 200.681C130.612 200.681 130.414 200.935 130.245 201.161C130.217 201.161 130.189 201.133 130.161 201.104C130.104 201.076 130.076 201.048 130.02 201.02C129.427 200.765 128.835 200.483 128.243 200.229C126.889 199.635 125.507 199.014 124.097 198.448C123.674 198.307 123.73 198.194 123.871 197.742ZM79.478 157.112C79.4216 156.744 79.3652 156.349 79.5062 156.236C79.5908 156.151 79.7883 156.123 79.9575 156.123C80.0985 156.123 80.2395 156.123 80.4088 156.151L80.5498 155.614C79.6755 155.275 79.7319 154.851 79.8165 154.173C79.8165 154.06 79.8447 153.947 79.8447 153.834C80.0421 151.404 80.6626 149.031 81.2267 147.025C81.5087 145.979 81.819 144.934 82.0728 143.888C82.5523 142.08 83.0599 140.215 83.624 138.407L83.7368 138.068C84.2163 136.542 84.6958 134.96 85.5701 133.688C86.106 132.925 86.3598 132.106 86.6418 131.287C86.8957 130.552 87.1213 129.846 87.5444 129.196C88.1084 128.32 88.6161 127.416 89.0956 126.512C89.4622 125.834 89.8571 125.099 90.2801 124.449C90.5904 123.94 90.9288 123.46 91.2955 122.952C91.8596 122.16 92.4519 121.313 92.8467 120.465C93.2416 119.617 93.6928 118.77 94.1159 117.95C94.6236 116.962 95.1594 115.944 95.6107 114.899C96.1466 113.684 96.8235 112.525 97.5004 111.395C97.8952 110.745 98.2901 110.067 98.6567 109.389C98.9952 108.739 99.2772 108.485 99.6157 108.485C99.8131 108.485 100.039 108.57 100.293 108.739C100.377 108.796 100.49 108.824 100.603 108.824C100.857 108.824 101.054 108.626 101.251 108.429L101.505 108.146L101.167 107.976C100.659 107.722 100.349 107.468 100.293 107.185C100.208 106.762 100.659 106.225 101.082 105.716L101.139 105.631C101.9 104.699 102.577 103.71 103.254 102.749C104.241 101.337 105.228 99.8956 106.469 98.6524C107.372 97.7482 108.161 96.7593 108.923 95.7704C109.684 94.7814 110.502 93.736 111.405 92.8601C112.138 92.1255 112.477 91.8429 112.872 91.8429C113.154 91.8429 113.492 91.9842 113.971 92.2103L114.902 92.6623L114.338 91.8147C113.577 90.6845 114.169 90.1476 114.959 89.413L115.015 89.3565C116.087 88.3958 117.017 87.2939 117.92 86.2202C118.879 85.09 119.894 83.9033 121.022 82.9144C121.502 82.4906 121.869 82.1798 122.292 82.1798C122.404 82.1798 122.517 82.208 122.63 82.2363L122.997 82.3776L123.025 81.982C123.11 80.4562 124.125 79.7499 125.197 78.987C125.591 78.7044 126.015 78.4219 126.353 78.0828C126.55 77.9133 126.748 77.7155 126.917 77.5177C127.65 76.7548 128.384 75.992 129.399 75.992C129.766 75.992 130.161 76.105 130.584 76.3028L131.289 76.6701L130.95 75.9355C130.725 75.4269 130.584 75.1161 130.612 74.9748C130.668 74.8053 131.007 74.5792 131.486 74.2684L131.796 74.0706C133.996 72.6296 136.309 71.1321 138.678 69.8889C138.96 69.7476 139.242 69.6064 139.468 69.6064C139.552 69.6064 139.806 69.6064 140.06 70.1997L140.596 70.0867C140.624 68.787 141.414 68.4762 142.345 68.1089C142.627 67.9958 142.909 67.8828 143.191 67.7415C143.219 67.7133 143.275 67.7133 143.275 67.685C143.275 67.7415 143.275 67.8263 143.275 67.8828C143.275 67.9676 143.275 68.0806 143.304 68.1371C143.501 69.2956 143.247 70.3975 142.965 71.5559C142.852 72.0363 142.74 72.5449 142.655 73.0252C142.373 74.8335 142.006 76.6983 141.668 78.4784C141.16 81.1909 140.624 83.9598 140.286 86.7288C140.117 88.2263 139.976 89.7803 139.863 91.2496C139.722 93.0861 139.581 94.951 139.327 96.7875C138.876 100.093 138.735 103.427 138.622 106.677C138.594 107.637 138.537 108.626 138.509 109.587C138.453 111.141 138.255 112.695 138.086 114.221C137.86 116.199 137.635 118.233 137.635 120.239C137.635 121.934 137.606 123.658 137.578 125.325C137.494 130.75 137.437 136.401 138.17 141.911C138.565 144.764 139.947 147.194 141.273 149.568C141.414 149.794 141.724 150.359 141.724 150.359C142.457 151.63 142.852 152.337 142.711 152.817C142.598 153.297 141.865 153.749 140.568 154.569L140.483 154.625C136.901 156.914 132.755 158.807 127.453 160.559C121.53 162.508 113.661 164.91 105.538 166.21C104.833 166.323 104.128 166.464 103.423 166.577C101.336 166.944 99.1644 167.34 97.0491 167.34C95.8363 167.34 94.7646 167.227 93.721 166.973C92.3954 166.662 91.0417 166.436 89.7161 166.21C87.1213 165.758 84.4137 165.306 81.96 164.175C79.5062 163.045 78.9704 161.971 79.4498 159.457C79.6473 158.666 79.5626 157.818 79.478 157.112ZM183.692 138.237C183.776 138.379 183.804 138.435 183.833 138.463C183.804 138.492 183.748 138.52 183.607 138.548C181.012 139.113 178.192 139.763 174.723 140.583C174.582 140.611 174.497 140.639 174.413 140.639C174.215 140.639 174.074 140.554 173.792 140.102C173.115 139.029 172.325 138.011 171.592 137.022C170.802 135.949 169.985 134.847 169.251 133.717C164.936 126.879 161.608 120.239 159.098 113.43C158.562 111.989 157.857 110.576 157.18 109.22L156.926 108.683C156.729 108.316 156.729 108.005 156.841 107.553C158.223 102.41 158.957 97.0418 159.662 91.8712V91.7864C159.859 90.3454 160.085 88.8479 160.311 87.4352C160.367 87.0961 160.423 86.7288 160.48 86.3897C161.016 87.746 161.298 89.1587 161.58 90.5432C161.693 91.1083 161.805 91.7017 161.946 92.2668C163.103 97.2961 164.203 101.393 165.387 105.207C166.036 107.27 167.023 109.191 168.01 111.056C168.292 111.621 168.603 112.186 168.885 112.752C171.931 118.855 174.582 123.714 177.205 128.094C177.6 128.772 178.023 129.45 178.418 130.128C179.856 132.558 181.323 135.101 183.156 137.333C183.269 137.475 183.381 137.644 183.466 137.842C183.522 137.955 183.607 138.096 183.692 138.237ZM159.464 83.4512C159.267 85.1465 159.07 86.8701 158.816 88.5936C158.618 89.8368 158.421 91.0801 158.252 92.3515C157.659 96.3072 157.039 100.404 156.221 104.388C155.149 109.615 153.711 114.814 152.329 119.872L152.301 119.985C152.301 120.013 152.244 120.041 152.216 120.07H152.16C152.16 119.504 152.16 118.968 152.188 118.402C152.216 116.99 152.244 115.549 152.16 114.136C151.737 107.355 151.37 100.715 151.567 94.1881C151.708 90.0064 151.906 85.7399 152.103 81.6147C152.188 79.7781 152.301 77.9133 152.385 76.0767C152.554 72.6579 152.357 69.0695 151.765 64.803C151.68 64.0967 151.849 63.7576 152.385 63.5598C152.695 63.4468 152.978 63.249 153.26 63.0795C153.626 62.8252 153.993 62.5709 154.36 62.5709C154.585 62.5709 154.839 62.6557 155.093 62.8534C155.177 62.91 155.29 62.9665 155.431 62.9665C155.572 62.9665 155.798 62.91 155.911 62.7687C155.995 62.6839 156.024 62.5426 155.967 62.4296C155.883 62.1188 155.883 61.8928 155.967 61.7798C156.08 61.6385 156.362 61.582 156.672 61.5537C156.898 61.5255 157.152 61.4972 157.349 61.4125C158.618 60.8474 159.831 60.3388 161.1 59.9432C165.415 58.6152 168.264 55.3942 171.028 52.2579L171.197 52.0601C171.282 51.9753 171.367 51.8623 171.423 51.7775C171.733 51.382 171.931 51.1559 172.297 51.1559C172.354 51.1559 172.41 51.1559 172.466 51.1842H172.523H172.551C172.749 51.1842 172.974 51.0429 173.059 50.9299C173.143 50.8169 173.143 50.7321 173.143 50.6756C173.002 49.6584 173.595 49.1498 174.3 48.5847C174.695 48.2739 175.089 47.9349 175.343 47.5111C175.4 47.4263 175.428 47.3698 175.484 47.285C175.682 47.0025 175.907 46.6634 175.907 46.2113C176.923 45.9288 177.487 45.1942 178.051 44.4595C178.305 44.1205 178.53 43.8097 178.812 43.5554C179.179 43.2163 179.546 42.849 179.884 42.4817C181.097 41.2667 182.225 40.1365 183.692 39.2889C184.228 38.9781 184.651 38.526 185.074 38.1022C185.581 37.5654 186.061 37.0568 186.738 36.8025C187.161 36.6329 187.612 36.4352 188.035 36.2656C188.825 35.9266 189.643 35.5593 190.517 35.305L190.799 35.2202C191.589 34.9659 192.322 34.7399 193.084 34.7399C193.196 34.7399 193.309 34.7399 193.45 34.7681C194.155 34.8246 194.663 35.1919 195.114 35.9266C196.553 38.3565 198.076 41.295 198.358 44.8269C198.583 47.4546 198.894 50.0823 199.204 52.6534C199.317 53.5859 199.429 54.5183 199.542 55.4507C199.627 56.0723 199.458 56.4396 198.865 56.9482C197.427 58.2479 195.707 59.2086 194.071 60.1692C192.773 60.9321 191.42 61.695 190.207 62.6274C188.007 64.2944 185.327 66.1028 182.197 66.9222C181.323 67.1482 180.448 67.2612 179.602 67.2612C177.825 67.2612 176.105 66.7526 174.441 65.7637L174.384 65.7072C172.579 64.6053 170.69 63.4751 168.405 63.4751C168.236 63.4751 168.095 63.4751 167.926 63.5033C166.544 63.5881 165.444 64.2097 164.654 65.3116C162.849 67.8263 161.975 70.8778 161.213 73.5338C160.226 76.7548 159.831 80.1454 159.464 83.4512ZM191.335 31.6883C191.871 31.6883 192.181 32.0557 192.519 32.4795C192.661 32.649 192.802 32.8185 192.971 32.9881C192.858 33.0446 192.717 33.0728 192.519 33.0728C192.407 33.0728 192.266 33.0728 192.153 33.0446C192.012 33.0446 191.871 33.0163 191.73 33.0163C191.617 33.0163 191.504 33.0163 191.42 33.0446C189.389 33.4401 187.725 34.5138 186.145 35.5875C185.553 35.9831 184.961 36.3786 184.34 36.746C182.902 37.5936 181.717 38.7521 180.561 39.854C179.8 40.5886 179.01 41.3798 178.164 42.0296C177.261 42.736 176.697 43.5836 176.161 44.403C175.879 44.8269 175.625 45.2224 175.315 45.618C174.61 45.8723 174.215 46.4374 173.82 46.946C173.623 47.2003 173.454 47.4546 173.228 47.6806C173.059 47.8219 172.946 47.9914 172.805 48.1609C172.438 48.5847 172.128 48.9521 171.564 49.0651C170.972 49.1781 170.887 49.6867 170.831 49.9975C170.802 50.1953 170.774 50.3931 170.661 50.5061C170.126 51.0712 169.59 51.6645 169.082 52.2296C167.897 53.5293 166.685 54.8856 165.331 56.044C164.513 56.7504 163.751 57.3438 162.764 57.3438C162.652 57.3438 162.567 57.3438 162.454 57.3155C162.426 57.3155 162.398 57.3155 162.341 57.3155C163.272 56.8352 164.175 56.3266 165.049 55.7332C167.531 54.0379 169.392 51.9753 170.577 49.6584C173.566 43.7532 176.556 39.8823 180.279 37.0568C182.958 35.0224 186.625 32.5642 191.025 31.7166C191.137 31.7166 191.25 31.6883 191.335 31.6883ZM157.547 59.7454C156.898 59.9432 156.249 60.1127 155.629 60.367C154.501 60.8191 153.429 61.4125 152.385 61.9775C151.624 62.4014 150.834 62.8252 150.016 63.1925C148.832 63.7294 147.619 64.3227 146.462 64.8878C144.657 65.7637 142.768 66.6961 140.878 67.4872C139.411 68.1089 138.001 68.8717 136.647 69.6346L136.168 69.8889C135.181 70.4258 134.222 71.0474 133.263 71.669C132.642 72.0645 131.994 72.4884 131.373 72.8557C131.204 72.9404 131.063 73.0535 130.922 73.1665C130.64 73.3925 130.358 73.6186 130.02 73.6186C129.935 73.6186 129.822 73.5903 129.709 73.562C129.653 73.5338 129.625 73.5338 129.568 73.5338C129.371 73.5338 129.117 73.6468 129.032 73.8163C128.073 75.4269 126.607 76.444 125.084 77.546C124.068 78.2806 123.025 79.0152 122.151 79.9476C121.953 80.1737 121.756 80.3997 121.558 80.5975C121.276 80.9366 120.994 81.2474 120.712 81.5299C119.387 82.7166 118.23 84.0728 117.102 85.3726C115.946 86.7005 114.733 88.085 113.379 89.3C113.323 89.3565 113.266 89.4413 113.21 89.4978C113.182 89.526 113.182 89.5543 113.154 89.5825C112.815 89.3565 112.561 89.2717 112.364 89.2717C112.195 89.2717 112.082 89.3283 111.997 89.4695C111.828 89.6956 111.913 90.0629 112.11 90.5432C112.166 90.7127 112.11 90.7975 111.856 91.0235L111.8 91.0518C110.22 92.4363 108.726 94.0468 107.4 95.8551C107.061 96.3072 106.779 96.5898 106.497 96.5898C106.272 96.5898 106.018 96.4202 105.708 96.0812L105.115 95.403L105.228 96.3072C105.426 97.8612 105.426 97.8612 104.41 99.2175L104.326 99.3305C103.339 100.658 102.323 102.015 101.364 103.343C100.8 104.106 100.236 104.897 99.6721 105.66C97.7542 108.259 96.2312 111.141 94.7928 113.938C94.0877 115.266 93.3544 116.679 92.5929 118.007C92.5083 118.148 92.4236 118.318 92.3672 118.487C92.1134 119.081 91.8878 119.448 91.4929 119.448C91.2955 119.448 91.0699 119.363 90.816 119.222C90.7314 119.194 90.6468 119.165 90.5622 119.165C90.393 119.165 90.2519 119.222 90.1391 119.335C90.0263 119.448 89.9981 119.589 89.9981 119.759C89.9981 119.759 90.0545 120.38 90.4212 120.465C90.8724 120.578 90.957 120.719 90.9852 120.776C91.0417 120.917 90.8442 121.228 90.7032 121.454C90.6468 121.567 90.5622 121.652 90.5058 121.737C89.8571 122.895 89.152 124.082 88.4751 125.212C87.8264 126.286 87.1777 127.416 86.5572 128.518C86.1624 129.224 85.8239 129.959 85.5137 130.693C85.4291 130.863 85.3727 131.032 85.288 131.202C85.0342 131.795 84.6958 131.88 84.4419 131.88C84.3573 131.88 84.2727 131.88 84.1881 131.852L83.906 131.795L83.8778 132.106C83.8214 132.473 83.9907 132.728 84.1035 132.954C84.2445 133.208 84.3291 133.349 84.1881 133.604C82.9753 136.118 82.2138 138.831 81.4805 141.458C81.2549 142.221 81.0575 142.984 80.8318 143.747C80.6062 144.51 80.437 144.906 80.0985 144.906C79.9011 144.906 79.6755 144.793 79.3652 144.566L79.055 144.369L78.9139 144.708C78.8857 144.764 78.8575 144.849 78.8293 144.906C78.7729 145.075 78.6883 145.301 78.9139 145.414C80.0139 145.979 79.9293 146.714 79.6472 148.042L79.619 148.155C79.5062 148.748 79.3652 149.342 79.2242 149.907C78.8575 151.348 78.4909 152.845 78.4627 154.399C78.4627 154.682 78.4063 154.682 78.0396 154.71C77.7576 154.738 77.4191 154.767 77.1653 155.021L76.8551 155.332L77.2499 155.473C78.2088 155.84 78.2371 156.518 78.1806 157.592C78.1524 158.666 78.1524 159.739 78.1524 160.841C78.1524 161.124 78.1524 161.406 78.1524 161.661C74.6552 158.75 73.2167 154.993 74.1475 151.319C74.8526 148.55 75.332 145.697 75.7833 142.928C76.2346 140.187 76.6858 137.362 77.3909 134.621C78.7165 129.365 80.5498 124.59 83.0035 120.041C86.3034 113.91 90.2237 108.118 95.0184 102.325C99.8695 96.4485 105.426 90.7693 112.025 84.9205C116.171 81.2474 119.725 78.2806 123.617 75.6812C129.709 71.6125 135.689 67.7415 142.119 64.9161C145.109 63.5881 148.267 62.5426 151.314 61.4972C152.47 61.1016 153.654 60.7061 154.839 60.2823L155.601 60.028C157.631 59.3216 159.718 58.587 161.693 57.6546C160.564 58.8413 159.098 59.2933 157.547 59.7454ZM79.0832 164.317C80.0703 164.853 81.1139 165.419 82.2138 165.814C84.6111 166.69 86.106 168.47 87.7136 170.335C88.5033 171.239 89.293 172.2 90.2237 173.019C90.0545 174.093 90.7596 174.404 91.2955 174.63C91.5211 174.743 91.7467 174.827 91.916 174.969C92.339 175.364 92.7903 175.788 93.2134 176.184C94.0595 177.003 94.962 177.822 95.8927 178.557C96.1184 178.727 96.0902 178.811 95.9209 179.122C95.8081 179.348 95.5543 179.772 96.0055 180.139C96.1466 180.252 96.2594 180.281 96.4286 180.281C96.6542 180.281 96.8517 180.168 97.0209 180.055C97.1337 179.97 97.2747 179.885 97.3593 179.885C97.3875 179.885 97.4439 179.885 97.5568 179.998C98.6849 181.128 100.011 182.089 101.251 182.993C102.38 183.812 103.536 184.632 104.551 185.593C104.58 185.621 104.636 185.677 104.692 185.706C104.89 185.875 104.89 185.875 104.777 186.016C104.58 186.299 104.636 186.525 104.692 186.61C104.749 186.751 104.918 186.921 105.313 186.977C106.723 187.147 106.836 187.175 107.795 188.39C106.751 188.531 105.708 188.644 104.721 188.644C102.323 188.644 100.575 187.966 99.0516 186.468C97.2747 184.688 95.4133 182.965 93.58 181.298C90.816 178.755 87.9674 176.127 85.4291 173.273C82.7215 170.222 80.437 167.17 78.5473 164.034C78.7447 164.147 78.9139 164.232 79.0832 164.317ZM103.31 189.661C103.846 189.661 104.382 189.661 104.918 189.661C105.51 189.661 106.103 189.661 106.695 189.661C107.626 189.661 108.415 189.661 109.12 189.689C110.108 189.718 110.784 190.481 111.377 191.159C111.461 191.244 111.546 191.357 111.631 191.441C112.42 192.317 113.351 192.939 114.282 193.532C114.874 193.899 115.466 194.295 116.002 194.747C119.302 197.488 123.194 199.72 128.581 201.924C128.666 201.952 128.779 201.98 128.891 202.037C129.117 202.122 129.54 202.263 129.568 202.376C129.568 202.404 129.596 202.574 129.145 202.969C129.032 203.054 128.976 203.195 128.976 203.365C128.976 203.563 129.089 203.76 129.286 203.902C129.399 203.986 129.512 204.015 129.625 204.015C129.794 204.015 129.907 203.93 130.02 203.873C130.048 203.873 130.076 203.845 130.076 203.845C130.668 203.534 130.978 203.365 131.232 203.365C131.43 203.365 131.655 203.506 132.078 203.789C131.599 204.297 131.007 204.665 130.358 205.032C130.104 205.173 129.879 205.314 129.653 205.484C129.568 205.54 129.484 205.569 129.427 205.569C129.286 205.569 129.145 205.484 128.976 205.399C128.891 205.371 128.835 205.314 128.75 205.286C124.548 203.45 120.261 201.189 115.607 198.392C112.589 196.555 109.684 194.465 106.892 192.43C105.708 191.583 104.495 190.707 103.31 189.859V189.661ZM140.793 193.391C140.652 193.391 140.511 193.363 140.37 193.278L135.435 191.131C131.712 189.52 127.989 187.909 124.266 186.299C125.733 185.988 127.143 185.903 128.355 185.847C131.909 185.706 135.378 184.604 139.214 182.4C140.258 181.806 141.499 181.128 142.881 180.959C142.965 180.959 143.05 180.93 143.134 180.902C143.275 180.874 143.388 180.846 143.501 180.846C143.614 180.846 143.642 180.874 143.67 180.902C143.698 180.93 143.783 181.072 143.755 181.496C143.727 181.919 143.868 182.202 143.98 182.343C144.15 182.541 144.404 182.654 144.714 182.654C145.024 182.654 145.362 182.541 145.701 182.343C145.955 182.202 146.068 182.174 146.124 182.174C146.237 182.174 146.321 182.456 146.462 182.824C147.76 186.61 144.798 191.357 141.329 193.221C141.132 193.334 140.963 193.391 140.793 193.391ZM146.603 179.998C146.547 180.055 146.462 180.111 146.406 180.196C146.35 180.252 146.265 180.337 146.265 180.365C146.265 180.365 146.209 180.337 146.124 180.224C146.011 180.083 145.983 180.026 146.237 179.744C146.801 179.094 147.45 178.557 148.296 178.077C147.732 178.868 147.224 179.489 146.603 179.998ZM140.173 180.648C138.932 180.987 137.804 181.609 136.732 182.23C136.196 182.513 135.632 182.824 135.096 183.078C133.404 183.897 131.543 184.378 129.258 184.604C128.75 184.66 128.271 184.688 127.763 184.745C126.071 184.886 124.351 185.027 122.658 185.395C122.517 185.423 122.404 185.423 122.292 185.423C122.01 185.423 121.728 185.367 121.333 185.197C117.864 183.728 114.733 182.117 111.772 180.281C110.982 179.8 110.164 179.292 109.374 178.84C107.203 177.54 104.946 176.212 103 174.573C101.364 173.189 99.8695 171.578 98.4029 169.996C98.0926 169.657 97.7824 169.346 97.4722 169.007C97.3029 168.809 97.3029 168.753 97.3029 168.753C97.3029 168.753 97.3875 168.64 97.8952 168.555C98.4593 168.47 99.0516 168.385 99.6157 168.301C100.913 168.103 102.267 167.905 103.564 167.82C106.695 167.622 109.741 166.86 112.674 166.125C113.802 165.842 114.959 165.56 116.087 165.306C120.346 164.373 124.52 162.932 128.581 161.519C130.104 160.983 131.684 160.446 133.235 159.937C134.899 159.4 136.422 158.666 137.719 157.79C138.029 157.592 138.283 157.479 138.565 157.479C138.763 157.479 138.96 157.535 139.158 157.62C140.427 158.242 141.837 158.581 143.36 158.581C143.501 158.581 143.642 158.581 143.755 158.581C143.783 158.581 143.839 158.581 143.868 158.581C144.347 158.581 144.827 158.666 145.306 158.779C145.814 158.892 146.35 158.976 146.857 158.976C147.421 158.976 147.929 158.863 148.38 158.609C148.409 158.609 148.409 158.609 148.409 158.609C148.465 158.609 148.606 158.807 148.662 158.892C148.691 158.948 148.747 159.005 148.775 159.033C150.524 161.265 152.752 162.734 154.924 164.006C155.77 164.514 156.531 165.108 157.349 165.729C158.139 166.323 158.929 166.944 159.831 167.509C155.883 170.872 151.99 173.754 147.365 177.173C145.362 178.727 143.05 179.829 140.173 180.648ZM145.673 153.467C140.963 148.014 138.847 142.702 139.017 136.683C139.101 133.943 138.988 131.145 138.904 128.461C138.847 126.399 138.763 124.251 138.763 122.16C138.763 120.07 139.017 117.95 139.242 115.888C139.468 113.91 139.722 111.876 139.722 109.841C139.722 109.05 139.778 108.231 139.806 107.468C139.863 106.592 139.891 105.688 139.891 104.784C139.891 102.156 140.229 99.5 140.54 96.9288C140.793 94.9792 141.047 92.9449 141.132 90.9388C141.329 87.4917 141.752 84.1859 142.401 81.1343C142.683 79.7781 142.937 78.3936 143.191 77.0374C143.67 74.4097 144.178 71.669 144.939 69.0695C145.08 68.5609 145.221 67.9676 145.024 67.3742C144.968 67.233 144.968 67.0917 144.996 67.0352C145.024 67.0069 145.109 66.9222 145.362 66.8939C145.391 66.8939 145.419 66.8939 145.447 66.8939C145.475 66.8939 145.503 66.8939 145.532 66.8939C145.532 66.9504 145.503 67.1199 145.503 67.1764C145.503 67.233 145.475 67.3177 145.475 67.3742L145.447 67.6568C145.165 70.1149 144.883 72.6579 144.545 75.1726C144.46 75.7659 144.291 76.3593 144.15 76.9526C143.924 77.8568 143.698 78.7327 143.698 79.5238C143.727 80.7953 143.529 82.0668 143.36 83.31C143.219 84.3271 143.05 85.4008 143.022 86.4463V86.5875C143.022 87.0114 142.993 87.1526 142.711 87.2374C142.514 87.2939 142.26 87.5199 142.204 87.7742C142.175 87.972 142.26 88.1416 142.401 88.2546C142.909 88.6501 142.852 89.074 142.74 89.7521C142.711 89.9499 142.683 90.1476 142.655 90.3737C142.655 90.7127 142.627 91.0801 142.627 91.4191C142.57 93.3404 142.514 95.3183 142.147 97.1831C141.95 98.2568 142.006 99.274 142.091 100.263C142.147 100.998 142.204 101.704 142.147 102.41C142.063 103.512 142.091 104.642 142.091 105.744C142.091 106.422 142.119 107.129 142.091 107.807C142.091 107.92 142.091 108.061 142.119 108.174C142.147 108.4 142.175 108.626 142.091 108.711C142.006 108.796 141.837 108.852 141.583 108.852C141.273 108.852 141.047 109.05 141.019 109.333C140.963 109.643 141.16 110.039 141.583 110.18C142.119 110.35 142.147 110.661 142.147 111.282V111.367C142.147 113.514 142.147 115.69 142.119 117.809C142.091 122.782 142.063 127.924 142.288 132.954C142.57 138.859 143.586 143.493 145.475 147.59C146.547 149.907 147.985 151.885 150.016 153.862C151.201 155.021 152.357 156.208 153.513 157.338C154.162 157.988 154.811 158.666 155.488 159.316C156.249 160.078 157.095 160.926 158.195 161.463L158.252 161.491C158.364 161.548 158.562 161.632 158.618 161.717C158.929 162.678 159.69 162.932 160.367 163.186C160.621 163.271 160.846 163.356 161.044 163.469C161.354 163.639 161.664 163.78 161.975 163.949C162.651 164.288 163.357 164.656 164.033 165.051C165.359 165.842 166.854 166.436 168.687 166.888C169.138 167.001 169.505 167.142 169.815 167.453C169.223 167.877 168.546 168.046 167.756 168.046C167.164 168.046 166.572 167.962 165.867 167.792C162.567 167.114 159.803 165.447 156.87 163.695L156.39 163.412C151.962 160.757 148.606 156.886 145.673 153.467ZM169.279 165.503L169.11 165.475C168.095 165.249 167.446 165.08 167.7 163.78L167.192 163.554C166.826 164.034 166.459 164.26 166.036 164.26C165.613 164.26 165.133 164.006 164.795 163.808C164.4 163.554 163.977 163.384 163.554 163.215C162.595 162.819 161.721 162.452 161.27 161.406C161.072 160.954 160.621 160.954 160.452 160.954C160.395 160.954 160.339 160.954 160.282 160.954C160.226 160.954 160.17 160.954 160.113 160.954C159.972 160.954 159.831 160.954 159.69 160.87C157.688 159.768 156.108 158.157 154.529 156.462C153.513 155.388 152.47 154.286 151.455 153.269C150.778 152.591 150.129 151.913 149.452 151.206L149.311 151.065C148.747 150.5 148.493 150.161 148.86 149.483C148.973 149.285 149.085 148.833 148.916 148.55C148.832 148.409 148.662 148.324 148.493 148.324C148.296 148.324 148.07 148.437 147.788 148.635C147.732 148.692 147.675 148.692 147.675 148.692C147.647 148.663 147.591 148.55 147.562 148.494C147.534 148.437 147.534 148.409 147.506 148.381C146.575 146.657 145.87 144.962 145.306 143.267C145.165 142.871 145.278 142.532 145.645 142.193L145.87 141.967L145.645 141.769C144.516 140.78 144.404 139.594 144.263 138.322C144.206 137.898 144.178 137.475 144.093 137.051C143.698 135.158 143.529 133.717 145.08 132.502L145.503 132.163L144.968 131.993C144.855 131.965 144.714 131.937 144.601 131.937C144.263 131.937 144.065 132.106 143.896 132.219C143.783 132.304 143.698 132.36 143.642 132.36C143.416 131.089 143.388 129.761 143.388 128.348C143.388 127.896 143.388 127.416 143.36 126.964C143.332 125.579 143.332 124.195 143.332 122.839C143.332 121.595 143.36 120.324 143.332 119.081C143.304 118.261 143.445 117.809 144.291 117.555L145.08 117.329L144.319 117.018C143.445 116.651 143.275 116.142 143.304 115.266C143.332 113.43 143.332 111.565 143.332 109.757C143.332 107.327 143.332 104.84 143.36 102.382C143.36 102.099 143.36 101.817 143.332 101.563C143.275 100.602 143.247 99.726 143.896 98.9349C144.234 98.5111 143.952 98.1438 143.755 97.9177C143.586 97.6917 143.473 97.5504 143.501 97.3526C143.614 96.392 143.67 95.403 143.698 94.4424C143.727 93.4535 143.783 92.4363 143.896 91.4474C144.065 90.1194 144.178 88.7632 144.291 87.4352C144.432 85.5421 144.601 83.5925 144.968 81.6994C145.024 81.4734 145.024 81.2756 145.052 81.0496C145.109 80.428 145.165 79.8629 145.757 79.5238C146.039 79.3543 146.124 79.0152 145.983 78.6762C145.165 76.7548 145.757 74.2967 147.421 72.4036L147.985 71.782L147.168 71.9515C146.998 71.9798 146.829 72.008 146.716 72.008C146.632 72.008 146.519 72.008 146.462 71.9515C146.35 71.8385 146.434 71.3582 146.462 71.1886C146.688 69.8324 146.688 68.4479 146.716 67.0634C146.716 66.4418 146.744 66.244 147.252 66.0745C147.901 65.8767 148.578 65.5377 149.311 65.0291C149.649 64.803 149.903 64.69 150.073 64.69C150.129 64.69 150.355 64.69 150.439 65.6224C151.088 71.4429 151.172 76.5571 150.637 81.3039C150.411 83.423 150.383 85.5704 150.326 87.6895C150.326 88.5089 150.298 89.3565 150.27 90.2042C150.242 91.0235 150.214 91.8712 150.185 92.6906C150.101 95.0075 150.016 97.4091 150.073 99.7825C150.157 104.19 150.326 108.202 150.637 112.045C150.862 114.842 150.862 117.696 150.862 120.437C150.862 121.652 150.862 122.895 150.89 124.138C150.947 127.811 150.89 131.569 150.862 135.186V135.355C150.806 140.357 152.752 144.764 156.841 148.889C160.17 152.224 163.892 155.021 168.236 157.366C170.943 158.835 172.354 162.028 171.705 165.108C171.536 165.899 171.338 166.21 171.028 166.21C170.859 166.21 170.633 166.125 170.351 165.955C170.069 165.701 169.646 165.588 169.279 165.503ZM194.917 146.657C195.34 146.573 195.791 146.544 196.214 146.544C200.445 146.544 205.381 149.935 208.68 155.049C205.973 154.286 203.406 153.382 201.319 151.291C199.486 149.426 197.371 147.901 194.917 146.657ZM227.577 175.76C227.408 176.014 227.267 176.099 227.182 176.099C227.098 176.099 227.013 175.986 226.9 175.788C226.562 175.053 226.054 174.46 225.575 173.867C224.926 173.076 224.277 172.341 224.023 171.324C223.939 171.013 223.657 170.787 223.29 170.533C222.952 170.278 222.557 169.968 222.416 169.6C221.993 168.385 221.147 167.509 220.329 166.662C219.765 166.068 219.172 165.447 218.749 164.769C217.621 162.876 216.154 161.096 214.265 159.287C214.096 159.118 214.011 158.976 214.011 158.863C214.011 158.75 214.124 158.609 214.378 158.44C214.519 158.327 214.716 158.185 214.744 157.931C214.772 157.79 214.716 157.62 214.603 157.479C214.462 157.309 214.18 157.281 214.096 157.281C214.039 157.281 214.011 157.281 213.954 157.281C213.729 157.309 213.56 157.479 213.419 157.62C213.334 157.705 213.221 157.818 213.165 157.818C213.165 157.818 213.108 157.818 213.024 157.733C212.798 157.507 212.544 157.309 212.29 157.14C211.783 156.744 211.303 156.377 210.965 155.812C208.427 151.461 204.957 146.827 198.414 145.555C197.399 145.358 196.496 145.273 195.622 145.273C194.578 145.273 193.619 145.414 192.661 145.668C192.491 145.725 192.322 145.753 192.153 145.753C191.758 145.753 191.363 145.612 190.968 145.273C190.291 144.736 189.558 144.227 188.74 143.747C187.809 143.21 186.766 142.928 185.722 142.928C183.212 142.928 181.069 144.482 180.251 146.912C180.11 147.279 179.912 147.392 179.546 147.533C177.797 148.296 175.936 148.889 173.877 149.313L173.764 149.342C173.538 149.398 173.284 149.426 173.087 149.426C172.861 149.426 172.466 149.426 172.466 148.466L171.902 148.409C171.62 149.794 170.802 150.104 169.505 150.189C168.8 150.217 168.067 150.359 167.108 150.585C166.741 150.67 166.431 150.754 166.177 150.754C165.867 150.754 165.5 150.698 165.359 149.85L165.303 149.511L164.964 149.652C164.513 149.85 164.428 150.274 164.4 150.585C164.344 150.952 164.316 151.037 164.005 151.037H163.977C163.78 151.037 163.554 151.037 163.357 151.037C162.257 151.037 161.241 151.009 160.452 150.246C159.408 149.229 158.421 148.155 157.462 147.109C157.039 146.657 156.644 146.205 156.221 145.781C156.165 145.725 156.108 145.668 156.052 145.612C155.798 145.358 155.742 145.301 155.798 145.16C155.826 145.103 155.826 145.103 155.939 145.103C155.995 145.103 156.052 145.103 156.108 145.103C156.193 145.103 156.249 145.132 156.334 145.132C156.39 145.132 156.447 145.132 156.475 145.132C157.688 144.934 158.957 144.793 160.17 144.651C162.2 144.397 164.316 144.171 166.374 143.691C168.321 143.267 170.323 142.843 172.241 142.419C176.302 141.571 180.505 140.667 184.622 139.594C185.299 139.424 185.976 139.226 186.653 139.029C188.712 138.435 190.827 137.842 193.027 137.701C193.225 137.701 193.422 137.672 193.619 137.672C196.017 137.672 198.273 138.492 200.529 140.13C203.999 142.702 207.242 145.555 210.203 148.607C211.388 149.822 212.629 151.037 213.813 152.195C215.872 154.173 217.988 156.236 219.849 158.44L220.075 158.694C223.234 162.48 226.505 166.379 228.056 171.267C228.564 173.16 228.451 174.488 227.577 175.76ZM208.483 43.4989C208.596 43.4989 208.709 43.7532 208.765 43.9509C208.793 44.0357 208.821 44.1205 208.85 44.177C209.47 45.505 210.175 46.8612 210.852 48.1327C212.149 50.6191 213.503 53.2185 214.434 55.931C215.026 57.7111 215.647 59.5194 216.239 61.2712C217.988 66.3571 219.793 71.6407 221.175 76.9244C222.444 81.756 222.839 86.8418 223.093 91.2213C223.149 92.3233 223.205 93.4252 223.262 94.4989C223.29 95.0075 223.29 95.4878 223.318 95.9681C223.29 97.2396 223.234 98.5393 223.234 99.8108C223.121 104.445 223.036 109.248 222.218 113.91C221.823 116.17 220.921 118.007 219.511 119.335C218.834 119.985 218.016 120.324 217.142 120.324C216.69 120.324 216.211 120.239 215.76 120.07C214.603 119.646 214.039 118.629 214.067 117.046C214.096 115.125 214.406 113.232 214.716 111.367C214.913 110.124 215.139 108.852 215.252 107.553C215.816 101.76 215.788 95.5161 215.083 87.972C214.857 85.4008 214.49 82.8014 214.18 80.2584C213.898 78.0546 213.588 75.7942 213.362 73.562C212.996 69.8324 212.29 66.0745 211.642 62.4579C211.388 61.1016 211.134 59.6889 210.908 58.3044C210.655 56.8352 210.542 55.3377 210.401 53.8684C210.316 52.8512 210.232 51.8058 210.091 50.7604C209.809 48.613 209.244 46.4939 208.342 44.4878C208.314 44.4313 208.286 44.3465 208.257 44.29C208.003 43.7532 208.003 43.6684 208.286 43.5271C208.398 43.4989 208.455 43.4989 208.483 43.4989Z" fill="#111111"/>
<path d="M179.151 64.9725C179.348 65.6224 179.743 65.7636 180.025 65.7636C180.138 65.7636 180.251 65.7354 180.392 65.7071C180.702 65.6224 180.956 65.4246 181.041 65.1703C181.125 65.0008 181.153 64.69 180.956 64.3226C180.73 63.8706 180.42 63.3337 180.082 62.8534C180.025 62.7686 179.997 62.7121 179.969 62.6839H179.997C180.73 62.5143 181.407 62.2035 182.084 61.8927C183.043 61.4407 183.917 61.0168 184.961 61.0168C185.074 61.0168 185.215 61.0168 185.327 61.0451C185.384 61.0451 185.44 61.0451 185.497 61.0451C185.948 61.0451 186.343 60.8473 186.681 60.6495L186.766 60.593C187.104 60.3952 187.809 59.9997 187.471 59.3498C187.415 59.2368 187.386 59.0955 187.386 58.926C187.33 58.5304 187.274 57.9653 186.54 57.8523L186.399 57.824C186.23 57.7958 186.033 57.7675 185.835 57.7675C185.412 57.7675 185.074 57.9371 184.848 58.2761C183.946 59.7171 182.507 60.2539 180.984 60.819C180.589 60.9603 180.194 61.1016 179.828 61.2711C179.687 61.3276 179.574 61.3559 179.489 61.3559C179.405 61.3559 179.292 61.3276 179.066 60.9603C178.897 60.6778 178.728 60.367 178.559 60.0844C177.853 58.926 177.205 57.824 177.261 56.383L176.725 56.2418C176.105 57.5415 176.189 58.813 176.923 60.0844C177.684 61.4124 178.615 63.1077 179.151 64.9725Z" fill="#111111"/>
<path d="M189.163 51.8058C189.248 51.8058 189.304 51.7775 189.389 51.7493C190.066 51.4102 190.319 50.7886 190.545 50.2235C190.602 50.0822 190.658 49.9692 190.714 49.8279L190.771 49.7432L190.743 49.6584C190.714 49.6019 190.714 49.5454 190.714 49.4606C190.658 49.1781 190.573 48.726 190.178 48.726C190.066 48.726 189.925 48.7825 189.812 48.8673C189.107 49.4606 188.655 50.2235 188.543 51.0146C188.514 51.2124 188.627 51.4102 188.74 51.5232C188.853 51.721 189.022 51.8058 189.163 51.8058Z" fill="#111111"/>
<path d="M194.014 54.5182C194.465 54.5182 194.86 54.2639 195.227 53.6988C195.34 53.5293 195.565 53.1054 195.424 52.7664C195.368 52.5969 195.227 52.4838 195.03 52.4273C194.888 52.3991 194.776 52.3708 194.663 52.3708C193.93 52.3708 193.506 52.9077 193.14 53.388C193.083 53.4728 192.999 53.5575 192.942 53.6423L192.773 53.8966L192.971 54.0661C193.337 54.3769 193.676 54.5182 194.014 54.5182Z" fill="#111111"/>
<path d="M49.3279 163.243C49.8356 163.328 51.0202 163.61 51.3022 164.769C51.415 165.277 51.1048 165.814 50.4561 166.125C49.4689 166.605 48.3972 166.916 47.2126 167.199C44.3076 167.933 42.0513 168.244 39.8796 168.244H39.654C39.0335 168.3 38.3848 168.357 37.7925 168.413C36.4387 168.555 35.0567 168.696 33.6747 168.696C30.0364 168.696 26.793 168.526 23.8315 166.69C23.2393 166.323 22.9572 165.899 22.9572 165.39C22.9572 164.853 23.4085 164.656 24.0854 164.401C24.2828 164.345 24.4802 164.288 24.6495 164.203C24.9597 164.119 25.2417 164.006 25.552 163.893C25.6366 163.864 25.9186 163.808 25.975 163.808C26.0033 163.808 26.0315 162.932 26.0315 162.31C25.834 162.395 25.552 162.565 25.0443 162.621C22.788 162.876 21.6034 164.006 21.3214 166.153C21.0676 167.961 21.688 169.431 22.8726 169.77L23.0136 169.798C23.8033 170.052 24.6495 170.278 25.4674 170.476C28.0903 171.041 30.8543 171.295 33.6747 171.295C36.4669 171.295 39.3155 171.041 42.418 170.504C43.0384 170.391 43.6589 170.307 44.2512 170.194C46.1973 169.883 48.1998 169.572 50.1458 169.007C51.2458 168.696 52.4022 168.3 53.1073 167.425C53.5021 166.944 53.2483 166.379 53.0509 165.871C52.938 165.616 52.8252 165.334 52.8252 165.108C52.8252 165.079 52.8252 165.051 52.8252 165.023C52.8252 164.938 52.8252 164.882 52.8252 164.797C52.6278 163.384 51.7253 162.367 50.3715 162C49.5536 161.774 49.0741 161.661 48.8767 161.152C49.0459 161.858 48.9895 162.48 49.1587 163.158C49.1587 163.215 49.2997 163.243 49.3279 163.243ZM33.8157 170.024C32.1517 170.024 30.4595 169.967 28.739 169.826C27.0186 169.685 25.3264 169.176 23.6623 168.668L23.3521 168.583C23.2111 168.526 23.0136 168.442 22.929 168.3C22.8726 168.187 22.8726 168.046 22.929 167.877C22.9572 167.764 23.0136 167.735 22.9854 167.735C23.0418 167.735 23.2111 167.848 23.2957 167.905C23.3239 167.933 23.3803 167.961 23.4085 167.99C26.2289 169.741 29.4441 169.967 31.8979 169.967C32.2363 169.967 32.5466 169.967 32.885 169.967L33.7875 169.939C36.3823 169.883 39.0617 169.826 41.7129 169.544C39.1745 169.826 36.5233 170.024 33.8157 170.024ZM48.5382 168.187C49.0177 168.046 49.4972 167.905 49.9766 167.735C49.4972 167.905 49.0177 168.046 48.5382 168.187Z" fill="#111111"/>
<path d="M147.562 182.739C147.534 182.626 147.534 182.315 147.506 182.174C147.478 182.117 147.337 181.439 147.309 181.382C147.196 181.128 146.18 179.828 146.068 179.941C145.955 180.026 145.137 180.591 145.391 181.043C145.701 181.58 146.406 182.682 146.434 182.823C147.732 186.61 144.77 191.356 141.301 193.221C141.104 193.334 139.722 194.577 139.693 194.634C139.609 194.832 138.96 195.453 138.255 196.018C136.422 197.459 135.012 199.211 133.855 201.387C133.799 201.472 133.771 201.585 133.714 201.698C133.517 202.15 132.332 203.365 132.022 203.704C131.542 204.212 130.95 204.58 130.302 204.947C130.048 205.088 129.907 205.173 129.653 205.343C129.568 205.399 129.399 205.427 129.343 205.484C128.948 205.71 127.876 206.416 127.876 206.416C124.915 208.253 121.925 209.355 118.766 209.807C117.469 210.005 116.03 210.089 114.282 210.089C113.238 210.089 112.195 210.061 111.151 210.033C110.136 210.005 109.064 209.976 108.02 209.976C107.682 209.976 107.343 209.976 107.005 209.976C106.3 210.005 105.595 210.033 104.918 210.061C104.072 210.118 103.169 210.146 102.295 210.146C100.998 210.146 99.9259 210.033 98.9387 209.807C97.6977 209.524 96.4004 209.411 95.1594 209.327C94.6799 209.298 94.2287 209.27 93.7492 209.214C93.6082 209.214 93.4389 209.185 93.2697 209.185C92.7903 209.185 92.0852 209.298 91.6621 210.174L91.4365 210.626L91.9441 210.598C92.5646 210.541 93.1569 210.541 93.7774 210.541C94.8773 210.541 96.0055 210.598 97.4157 210.768C98.008 210.824 98.6285 210.965 99.2208 211.078C100.123 211.248 101.054 211.446 102.013 211.446C102.633 211.446 103.226 211.361 103.762 211.191C104.297 211.022 104.918 210.937 105.764 210.881C106.046 210.852 106.356 210.852 106.695 210.852C107.682 210.852 108.697 210.937 109.656 211.022C110.587 211.107 111.546 211.191 112.477 211.191C112.815 211.191 113.182 211.191 113.52 211.191C117.864 211.191 122.433 210.852 126.409 208.507C127.481 207.886 128.299 207.773 129.455 207.575C129.54 207.546 130.837 206.275 130.781 206.247C130.809 206.218 130.837 206.162 130.922 206.105C131.345 205.766 131.796 205.427 132.219 205.117C132.53 204.891 133.291 204.41 133.432 204.325C133.573 204.241 134.419 203.252 134.476 203.139C134.532 203.026 134.673 202.828 134.758 202.602C136.027 199.889 138.029 197.855 140.258 195.877C140.511 195.651 141.386 195.114 141.555 194.973C141.724 194.86 142.683 193.815 142.683 193.815C142.965 193.589 143.191 193.391 143.416 193.193C147.365 189.915 148.606 186.694 147.562 182.739Z" fill="#76C7E0"/>
<path d="M140.173 180.648C138.932 180.987 137.804 181.609 136.732 182.23C136.196 182.513 135.632 182.824 135.096 183.078C133.404 183.897 131.543 184.378 129.258 184.604C128.75 184.66 128.271 184.688 127.763 184.745C126.071 184.886 124.351 185.027 122.658 185.395C122.517 185.423 122.404 185.423 122.292 185.423C122.01 185.423 119.415 185.762 119.415 185.79C118.174 186.129 116.989 186.497 115.861 186.864C114.056 187.429 112.364 187.966 110.615 188.305C110.587 188.305 110.559 188.305 110.502 188.305C110.531 188.333 110.559 188.333 110.587 188.361C110.559 188.333 110.531 188.333 110.502 188.305C110.446 188.305 110.39 188.333 110.333 188.333C109.995 188.333 107.823 188.39 107.851 188.418C106.808 188.559 105.764 188.672 104.777 188.672C104.523 188.672 104.298 188.672 104.072 188.644H104.1H104.072C103.451 188.616 99.7567 188.701 99.7849 188.729C97.9235 189.124 96.3722 189.689 94.962 190.481C91.6904 192.345 88.0803 194.154 83.9907 194.747C81.7062 195.086 79.6191 195.369 77.532 195.369C75.1347 195.369 73.0476 194.973 71.1297 194.21C68.7041 193.221 67.1247 191.441 66.476 188.955C66.2786 188.192 66.053 187.429 65.8555 186.638C65.5735 185.621 65.2915 184.575 65.0094 183.53C64.1633 180.252 62.3865 177.399 59.2558 174.291C56.5764 171.635 55.5047 168.64 56.097 165.39C56.4918 163.215 56.0124 161.152 54.7432 159.513C53.474 157.874 51.5279 156.886 49.328 156.744C48.905 156.716 48.6511 156.603 48.5101 156.434C48.3409 156.236 48.3127 155.925 48.3691 155.332C49.0178 149.681 49.0178 144.058 48.905 138.831C48.905 138.379 48.9332 138.096 49.0742 137.898C48.1717 138.181 47.4384 137.898 46.4794 138.407C46.1974 138.492 45.9153 138.576 45.6333 138.661C44.9846 138.859 44.2795 139.057 43.659 139.481L43.1232 139.848L43.7436 139.989C44.0257 140.046 44.3077 140.074 44.5898 140.074C45.2385 140.074 45.8025 139.904 46.3666 139.763C46.564 139.707 46.7615 139.65 46.9589 139.594C47.1281 139.565 47.2409 139.537 47.3255 139.537C47.4384 139.537 47.523 139.537 47.523 140.017C47.5794 145.273 47.5794 149.991 46.9871 154.738C46.9307 155.134 46.9307 155.558 46.9307 156.038C46.9307 156.236 46.9589 156.631 46.8461 156.744C46.8461 156.744 46.7897 156.801 46.6769 156.801C46.5922 156.801 46.4512 156.773 46.3102 156.744C46.1974 156.716 46.0846 156.688 45.9718 156.688C45.5769 156.688 45.2949 156.942 45.2103 157.366C45.1538 157.62 45.0128 157.677 44.5616 157.733H44.4769C44.1103 157.761 43.7154 157.818 43.3488 157.846C41.2899 158.072 39.1746 158.298 37.0875 158.298C36.326 158.298 35.5927 158.27 34.8876 158.214C34.1825 158.157 33.4492 158.129 32.7441 158.129C31.5031 158.101 30.2057 158.101 28.9648 157.761C27.611 157.422 26.9905 156.999 27.1315 155.642C27.2443 154.625 27.2161 153.636 27.1879 152.563C27.1879 152.224 27.1597 151.884 27.1597 151.517C27.8366 151.771 28.7109 151.913 29.6417 151.913C31.3903 151.913 33.0543 151.461 33.8158 150.754L34.0979 150.5L33.7594 150.302C33.4774 150.133 33.1954 150.133 32.9133 150.104C33.3646 150.02 33.4492 149.709 33.4774 149.511C33.5056 149.257 33.3928 149.115 33.3082 149.002C33.1107 148.805 32.8569 148.748 32.6313 148.748C31.6441 148.692 30.6288 148.55 29.5006 148.268C29.3878 148.24 29.275 148.24 29.1904 148.24C28.8802 148.24 28.7391 148.409 28.6827 148.522C28.5699 148.748 28.5981 149.031 28.8237 149.37C29.1622 149.878 29.6135 150.302 30.2057 150.641C29.9801 150.67 29.7545 150.698 29.5288 150.698C28.993 150.698 28.5135 150.585 28.034 150.33C27.3853 149.991 27.1033 149.511 27.1315 148.776V148.635C27.1597 147.477 27.2161 146.262 26.9341 145.047C26.7931 144.482 26.8777 144.34 26.9059 144.34C26.9341 144.312 26.9905 144.312 27.0469 144.312C27.1879 144.312 27.4418 144.369 27.7238 144.482C29.3878 145.16 31.1365 145.499 32.9415 145.499C34.2107 145.499 35.5363 145.329 36.8901 144.99L37.7362 144.793L36.9183 144.453C36.467 144.284 35.9876 144.199 35.3953 144.199C35.0286 144.199 34.662 144.227 34.3235 144.256C34.1825 144.256 34.0133 144.284 33.8723 144.284C33.6184 144.312 33.3928 144.312 33.139 144.312C31.2775 144.312 29.3878 143.832 26.9905 142.786C26.7649 142.702 26.3982 142.052 26.1726 141.035C25.9187 139.961 26.0034 138.746 26.1444 138.435C25.6649 138.153 25.0444 137.785 24.5649 137.983C24.5649 138.011 24.6214 138.379 24.6214 138.435C24.3957 139.791 24.7342 141.035 25.0444 142.25C25.2136 142.928 25.4111 143.634 25.4957 144.312C25.8059 147.166 25.8059 150.076 25.8059 152.902C25.8059 155.727 25.8059 158.637 26.1162 161.519C26.1444 161.83 26.0598 163.299 26.0598 163.978C27.7802 166.577 30.6006 167.001 32.8851 167.057C33.7594 167.086 34.6056 167.086 35.4517 167.086C38.5259 167.086 41.4873 166.916 44.2513 166.549C45.8871 166.351 47.382 165.701 48.7357 164.684C48.905 164.543 49.1024 164.373 49.2998 164.204C49.5537 163.978 49.4408 163.638 49.3562 163.384C49.328 163.328 49.328 163.271 49.2998 163.215C49.328 163.215 49.187 161.717 49.0178 161.039C48.9614 160.926 48.9332 160.813 48.9332 160.672C48.9332 160.672 48.9332 160.672 48.9332 160.643C48.9332 160.643 48.9332 160.643 48.9332 160.672C48.905 160.587 48.905 160.502 48.905 160.389C48.8486 159.768 48.6793 159.146 48.5101 158.553C48.4255 158.298 48.4537 158.214 48.4819 158.185C48.5101 158.129 48.6793 158.072 48.9614 158.044C49.1306 158.016 49.2998 158.016 49.469 158.016C52.092 158.016 54.856 161.011 54.8842 163.158C54.9124 164.119 54.9124 165.108 54.8278 166.097C54.4047 170.25 56.6046 173.217 58.5789 175.308C58.9174 175.675 59.284 176.042 59.6225 176.381C60.4968 177.257 61.3993 178.19 62.1044 179.207C63.0069 180.563 63.4582 182.117 63.9095 183.643C64.1633 184.491 64.4171 185.395 64.7556 186.242C64.812 186.355 64.8684 186.497 64.9248 186.61C65.1222 187.034 65.2915 187.486 65.3197 187.994C65.4043 189.802 66.1658 191.441 67.6888 193.165C69.4939 195.171 71.9758 196.16 75.5013 196.358C76.2346 196.386 76.9679 196.414 77.7012 196.414C83.06 196.414 87.9675 195.312 92.3109 193.137C92.9313 192.826 93.5236 192.487 94.1159 192.176C96.062 191.13 98.0363 190.029 100.349 189.802C100.434 189.802 100.49 189.774 100.575 189.774C100.772 189.746 100.941 189.746 101.111 189.746C101.449 189.746 103.508 189.661 103.508 189.661C104.044 189.661 104.58 189.661 105.115 189.661C105.708 189.661 106.3 189.661 106.892 189.661C107.823 189.661 108.613 189.661 109.318 189.689C109.741 189.689 111.208 189.576 111.461 189.463L113.041 189.011C115.438 188.333 117.92 187.627 120.346 186.949C120.712 186.836 121.107 186.807 121.474 186.807C122.01 186.807 124.322 186.384 124.407 186.327C125.874 186.016 127.284 185.932 128.497 185.875C132.05 185.734 135.519 184.632 139.355 182.428C140.399 181.835 141.64 181.156 143.022 180.987C143.106 180.987 143.191 180.959 143.275 180.93C143.332 180.93 143.755 180.93 143.811 180.93C143.981 180.168 144.573 179.546 144.911 178.868C143.642 179.376 141.499 180.281 140.173 180.648ZM39.231 165.108C38.8644 165.136 38.4977 165.136 38.1311 165.164C36.7773 165.221 35.3953 165.277 33.9851 165.701C33.5902 165.814 33.1672 165.899 32.7441 165.899C31.5031 165.899 30.3186 165.362 29.134 164.853C28.7109 164.656 28.2879 164.486 27.8366 164.317C27.7238 164.26 27.6674 164.204 27.6392 164.034C27.5546 162.395 27.47 160.756 27.3571 159.118C27.3571 158.892 27.3853 158.835 27.3853 158.835C27.3853 158.835 27.4135 158.807 27.47 158.807C27.5264 158.807 27.5828 158.807 27.6674 158.835C30.4596 159.315 33.421 159.57 36.467 159.57C38.8644 159.57 41.3181 159.429 43.9411 159.118C42.4463 159.4 40.895 159.485 39.2874 159.542C37.708 159.598 36.1004 159.683 34.5209 159.994L34.5492 160.559C34.7748 160.587 34.9722 160.615 35.1978 160.643C35.5927 160.7 36.0158 160.785 36.4388 160.785C36.5234 160.785 36.608 160.785 36.6927 160.785C37.7362 160.7 38.8079 160.672 39.8233 160.643C41.8822 160.587 44.0257 160.502 46.0846 160.107C46.1974 160.078 46.3102 160.05 46.423 160.022C46.5922 159.965 46.7615 159.909 46.9025 159.909C46.9871 159.909 47.1563 159.909 47.2127 160.304C47.2409 160.474 47.2973 160.643 47.3255 160.813C47.523 161.491 47.5794 161.887 47.0153 162.311C44.6462 164.006 41.995 164.938 39.231 165.108ZM47.4948 163.723C46.3948 164.543 45.2949 165.051 44.1667 165.249C45.3231 164.797 46.5076 164.317 47.5512 163.554C47.6076 163.497 47.664 163.497 47.6922 163.469C47.6922 163.469 47.6922 163.469 47.6922 163.497C47.6922 163.554 47.7204 163.554 47.4948 163.723Z" fill="#76C7E0"/>
<path d="M36.5234 143.069L36.4388 143.606C36.7772 143.719 37.3413 143.775 38.0746 143.775C40.6976 143.775 45.2102 143.069 46.5076 142.25L47.3819 141.713L46.3666 141.741C44.6179 141.769 43.0103 142.108 41.4309 142.419C39.8515 142.758 38.3849 143.041 36.8618 143.041C36.7208 143.069 36.6362 143.069 36.5234 143.069Z" fill="#76C7E0"/>
<path d="M38.3002 142.617L39.0053 142.362L38.3284 142.108C37.5951 141.826 36.8336 141.826 36.1003 141.797C35.5362 141.797 34.9721 141.769 34.4644 141.656L34.2106 142.136C34.8593 142.73 35.6208 143.012 36.4669 143.012C36.9746 143.012 37.5951 142.871 38.3002 142.617Z" fill="#76C7E0"/>
<path d="M33.3645 133.886C33.4491 133.886 33.5337 133.886 33.6183 133.886C33.7875 133.886 33.985 133.858 34.126 133.858L35.1977 133.716C36.5797 133.547 37.9899 133.377 39.4001 133.208C39.4847 133.208 39.5976 133.18 39.7104 133.18C40.077 133.18 40.5001 133.151 40.7539 132.841C40.9231 132.643 40.9513 132.36 40.8949 132.021C40.7257 131.23 40.1052 130.721 39.2591 130.721C39.1745 130.721 39.1181 130.721 39.0335 130.721C38.2438 130.806 37.4259 130.834 36.6643 130.891C36.3541 130.919 36.0157 130.919 35.7336 130.948C35.4798 130.948 35.2259 130.919 34.9721 130.919C34.7183 130.891 34.4362 130.891 34.1824 130.891C33.7875 130.891 33.4491 130.919 33.1389 131.004C32.9696 131.061 32.744 131.061 32.4902 131.061C32.0107 131.061 31.4748 131.089 31.1364 131.428C30.9671 131.626 30.8825 131.88 30.9107 132.219C30.9671 133.151 31.8133 133.688 33.3645 133.886Z" fill="#111111"/>
<path d="M31.6439 161.378C32.4618 162 33.2233 162.311 34.0131 162.311C34.5489 162.311 35.0848 162.169 35.6207 161.858L36.3822 161.435L30.8542 160.757L31.6439 161.378Z" fill="#76C7E0"/>
<path d="M26.2571 138.548C26.3417 138.548 26.4263 138.576 26.5391 138.576C26.6237 138.605 26.7366 138.605 26.8212 138.605C29.8672 138.802 33.3363 139.028 36.7772 139.028C38.6386 139.028 40.3591 138.972 41.9949 138.831C43.2641 138.718 44.5333 138.548 45.8588 138.379C45.9999 138.35 46.1409 138.35 46.2819 138.322C46.2537 138.322 46.2537 138.322 46.2819 138.322C46.3665 138.322 46.4229 138.294 46.5075 138.294C46.4511 138.322 48.0587 138.124 48.9895 137.842C49.1305 137.644 49.3843 137.531 49.7792 137.474C50.8227 137.333 51.6124 136.966 51.9791 135.666C52.2611 134.677 52.0919 133.547 51.4714 132.502C50.6817 131.145 49.2997 130.128 47.7767 129.789C46.3383 129.45 44.4486 129.054 42.559 128.715C40.4155 128.348 38.2156 128.15 36.0439 128.15C35.0849 128.15 34.0978 128.179 33.1389 128.263C31.0518 128.405 29.0211 128.885 27.0468 129.337C25.7776 129.62 24.4802 129.93 23.1829 130.128C21.124 130.467 19.9676 131.484 19.6574 133.236C19.5163 133.943 19.9394 134.31 20.2496 134.564C20.4753 134.762 20.6163 134.903 20.6445 135.129C20.7855 136.768 21.8009 137.7 23.7469 137.983L23.888 138.011C24.0854 138.04 26.1443 138.548 26.2571 138.548ZM50.4843 135.468C50.5125 135.525 50.5407 135.581 50.5125 135.638C50.4843 135.694 50.4561 135.751 50.3997 135.779C49.9766 135.977 49.5254 136.203 49.0177 136.316C45.5768 137.135 42.8974 137.531 40.3591 137.587C42.8692 137.418 45.5204 136.994 48.3408 136.316C48.7921 136.203 49.1869 136.033 49.5818 135.836C49.7792 135.751 49.9766 135.638 50.174 135.581C50.2022 135.553 50.2587 135.553 50.2869 135.525C50.3715 135.497 50.4279 135.468 50.4843 135.468ZM21.2086 132.869C21.2086 132.417 21.4906 132.304 22.0265 132.078L22.1393 132.049C25.3546 130.806 28.9647 129.987 33.1107 129.563C34.1824 129.45 35.2542 129.394 36.3259 129.394C40.2745 129.394 44.2794 130.1 48.5664 131.569C48.7356 131.626 48.8767 131.682 49.0177 131.767C49.7228 132.276 50.4279 132.812 50.4843 133.603C50.5125 134.253 49.9202 134.479 49.1305 134.734L48.9895 134.762C45.6614 135.807 42.1359 136.344 38.2438 136.401C36.8618 136.231 35.4234 136.203 33.9286 136.146C31.5876 136.062 29.1621 135.977 26.793 135.468C25.3828 135.158 23.7187 134.734 22.1957 133.971C21.4906 133.632 21.2086 133.377 21.2086 132.869ZM22.9854 136.288C22.7598 136.259 22.506 136.118 22.3931 135.92C22.3367 135.807 22.3085 135.694 22.3649 135.61C22.3649 135.581 22.3931 135.581 22.3931 135.581C22.4778 135.581 22.647 135.666 22.7598 135.751C22.8726 135.807 22.9854 135.892 23.0982 135.92C25.5802 136.825 28.175 137.022 30.6851 137.192C31.6158 137.248 32.5748 137.333 33.5337 137.446C33.5901 137.446 33.6183 137.446 33.6747 137.474C33.1107 137.474 32.5748 137.474 32.0107 137.474C30.8261 137.474 29.6134 137.474 28.4288 137.474C27.4135 137.474 26.4827 137.192 25.4956 136.881C24.6777 136.627 23.8598 136.372 22.9854 136.288Z" fill="#111111"/>
</svg>
