<svg width="250" height="250" viewBox="0 0 250 250" fill="none" xmlns="http://www.w3.org/2000/svg">
<path d="M156.763 202.617C157.813 202.365 159.137 202.029 160.334 201.714C163.738 200.874 166.427 199.004 168.507 196.251C169.642 194.739 170.692 193.142 172.079 191.881C173.507 190.6 174.18 188.583 176.134 187.827C176.281 187.764 176.386 187.511 176.47 187.322C177.142 185.831 178.34 184.717 179.348 183.478C181.533 180.767 183.718 178.057 185.483 175.032C186.932 172.532 187.29 169.695 188.361 167.069C190.063 162.951 191.597 158.77 193.151 154.611C193.55 153.56 194.034 152.552 194.622 151.606C196.639 148.308 199.433 145.618 201.954 142.74C204.601 139.715 208.383 138.664 212.144 137.845C215.295 137.152 218.447 137.425 221.661 138.097C225.695 138.937 227.733 141.585 229.204 144.967C230.905 148.938 229.393 155.556 225.884 158.413C224.456 159.59 222.901 160.409 221.22 161.144C219.119 162.09 217.333 161.565 215.421 160.682C214.035 160.031 213.489 159.002 213.468 157.552C213.468 157.195 213.468 156.838 213.383 156.501C213.173 155.619 212.312 154.905 211.598 155.094C210.736 155.304 210.337 155.913 210.4 156.817C210.505 158.308 210.82 159.821 211.787 160.913C213.636 162.993 217.459 164.653 220.779 163.561C226.893 161.544 230.359 157.237 231.578 150.934C231.998 148.707 231.62 146.648 230.989 144.547C229.855 140.702 227.523 137.887 223.657 136.626C219.392 135.219 215.001 135.093 210.631 136.143C206.934 137.047 203.425 138.328 200.631 141.08C199.412 142.278 198.572 143.728 197.458 144.988C194.664 148.119 192.122 151.417 190.84 155.514C190.357 157.048 189.895 158.581 189.222 160.052C188.781 161.018 185.483 162.846 185.483 162.846C185.483 162.846 182.583 164.485 181.155 165.451C176.722 168.372 171.743 169.99 166.763 171.586L148.8 175.053C145.06 176.061 140.207 176.839 135.417 177.196C132.56 177.406 129.723 177.49 126.887 177.847C124.639 178.141 122.328 178.246 119.891 178.456C120.353 175.662 121.992 173.666 122.097 171.145C122.202 168.729 122.223 169.191 122.076 166.502C122.223 167.258 122.538 168.099 122.748 168.876C123.631 172.217 122.958 178.246 122.811 178.267C122.811 178.267 124.597 178.877 124.429 178.288C124.324 177.952 125.248 172.111 124.429 168.834C123.147 163.708 121.803 160.199 121.046 159.317C118.84 156.774 118.462 155.598 119.828 152.489C120.059 151.984 120.206 151.438 120.374 150.913C121.236 148.35 121.824 145.702 122.328 143.034C122.958 139.757 122.37 136.731 120.752 133.958C117.643 128.664 113.315 129.126 110.037 131.689C105.815 134.988 104.449 139.379 105.373 144.547C105.92 147.593 107.096 150.43 108.693 153.098C109.155 153.875 109.617 154.59 109.197 155.619C108.042 158.308 107.117 161.102 105.583 163.624C105.247 164.17 105.016 164.737 104.848 165.346C104.134 168.057 103.356 170.725 102.642 173.435C102.243 174.906 101.949 176.418 101.613 177.91C101.487 178.54 101.171 178.835 100.52 178.814C99.7848 178.793 99.0495 178.772 98.3351 178.772C94.0702 178.856 82.536 179.507 78.271 179.738C76.2541 179.843 66.4006 178.793 63.5013 178.498C58.8582 178.015 54.4252 176.881 50.4123 174.402C49.719 173.981 48.8787 173.666 48.7736 172.658C48.7316 172.217 48.3534 172.09 47.9962 172.217C47.0508 172.553 46.6937 171.838 46.3785 171.25C45.4541 169.59 44.1935 168.183 43.122 166.628C41.5673 164.38 40.0126 162.174 38.668 159.779C36.6721 156.228 34.235 152.972 30.7474 150.724C26.2093 147.803 21.7133 147.866 17.9316 151.522C16.692 152.72 15.5995 154.085 14.6121 155.556C12.5111 158.665 12.259 161.901 13.4986 165.346C13.7717 166.124 14.1078 166.901 14.423 167.678C16.2718 172.196 21.6503 174.423 26.3984 172.973C28.0162 172.469 29.2767 171.187 29.802 169.59C30.4113 167.784 30.9575 165.935 30.8104 163.939C30.6213 161.628 29.0456 159.611 26.8396 158.77C25.453 158.245 24.4025 158.707 23.3731 159.506C22.7848 159.989 22.4276 160.682 22.9108 161.355C23.4991 162.132 24.1714 161.733 24.6336 161.144C25.3269 160.283 26.1043 160.472 26.8816 160.913C28.1002 161.607 28.9406 162.615 28.9826 164.086C29.0036 164.989 28.9826 165.914 28.8565 166.796C28.4153 169.99 26.6085 171.502 23.3941 171.649C20.5158 171.775 18.2677 170.473 16.7761 168.288C14.444 164.926 13.2675 160.367 16.2508 156.354C17.4273 154.779 18.7089 153.329 20.3267 152.173C22.9949 150.22 25.9152 149.967 28.7305 151.669C30.7684 152.909 32.5542 154.421 34.0669 156.333C36.0418 158.812 37.4074 161.67 39.1722 164.254C41.6514 167.889 44.1095 171.544 46.3995 175.305C48.3744 178.519 51.0006 181.272 53.1436 184.381C54.11 185.789 55.4546 187.217 57.1144 187.68C58.9422 188.184 60.0557 189.423 61.3373 190.558C62.1147 191.272 62.787 192.071 63.3963 192.932C65.119 195.411 67.157 197.617 69.1739 199.844C70.2034 200.979 71.4849 201.819 72.9766 202.386C75.2456 203.269 77.6828 203.731 79.9308 204.655C85.4773 206.945 104.596 207.996 107.958 207.933C112.349 207.828 116.719 207.471 121.131 207.576C122.832 207.618 134.787 205.937 139.682 205.349C144.556 204.76 152.477 203.689 156.763 202.617ZM142.392 203.416C142.224 203.416 142.056 203.458 141.909 203.458C139.976 203.668 123.126 205.517 121.173 205.601C116.571 205.832 111.97 205.012 107.369 205.895C106.676 206.021 105.983 205.937 105.289 205.832C102.306 205.412 99.3016 205.096 96.2762 205.096C94.6165 205.096 91.8852 205.117 90.2255 205.096C89.28 205.096 88.1455 205.096 87.7253 204.361C87.116 203.269 86.4227 203.584 85.6244 203.668C85.2672 203.71 84.847 204.172 84.5949 203.563C84.4268 203.164 83.8806 202.806 84.3428 202.26C85.3722 201.021 85.2462 199.529 85.2462 198.058C85.2462 197.197 85.5823 196.756 86.4437 196.714C88.8808 196.588 91.318 196.251 93.7551 196.357C97.0536 196.504 100.31 196.483 103.609 196.314C106.739 196.167 109.89 196.125 113.021 196.041C113.756 196.02 114.302 196.062 114.681 196.924C115.269 198.31 115.773 198.331 116.487 196.945C116.929 196.083 117.433 195.894 118.252 195.915C119.366 195.957 120.521 196.104 121.593 195.936C124.786 195.411 127.98 195.306 131.194 195.117C135.102 194.886 138.989 194.445 142.875 194.045C146.699 193.646 150.502 193.121 154.326 192.764C154.977 192.701 155.544 192.512 156.132 192.281C156.658 192.071 157.246 191.86 157.162 191.146C157.078 190.348 156.385 190.432 155.859 190.474C154.83 190.558 153.779 190.642 152.75 190.852C150.712 191.293 148.632 191.671 146.552 191.86C141.342 192.281 136.152 193.016 130.9 193.31C126.446 193.562 121.992 194.066 117.517 194.108C116.592 194.108 115.836 194.151 115.836 192.911C115.836 192.575 115.542 192.281 115.122 192.26C114.702 192.26 114.092 192.323 114.092 192.764C114.05 194.466 112.769 194.066 111.844 194.108C108.147 194.319 104.449 194.508 100.73 194.571C96.1081 194.655 91.507 194.571 86.8849 194.844C86.1706 194.886 85.8975 194.655 85.7504 193.814C85.3933 191.734 84.742 191.398 82.641 191.377C80.2039 191.377 77.7878 191.923 75.3297 191.692C73.1867 191.482 71.0227 191.104 68.9218 191.944C68.6486 192.05 67.9553 191.86 67.9553 191.797C67.8503 190.243 66.5057 190.726 65.6233 190.453C66.3166 189.465 66.7788 188.415 66.2536 187.448C65.8334 186.692 64.8249 187.343 64.0896 187.217C64.0265 187.196 63.9425 187.196 63.8795 187.196C63.5643 187.175 63.2912 187.049 63.3332 186.713C63.6274 185.053 62.5349 185.516 61.6525 185.537C61.3793 185.537 60.7911 185.705 60.8961 185.179C61.1903 183.667 60.1608 184.003 59.3624 184.024C58.7531 184.024 58.459 183.835 58.5641 183.163C58.6061 182.826 58.48 182.49 58.459 182.133C58.354 180.662 58.1018 180.431 56.7362 180.011C55.1185 179.507 53.6898 178.519 51.946 178.246C51.3998 178.162 51.0006 177.553 50.7275 176.965C51.2527 176.65 51.5469 177.112 51.904 177.259C53.8999 178.099 55.8748 179.024 58.0388 179.297C61.3583 179.738 64.6148 180.494 67.9763 180.725C71.8841 180.999 75.7919 181.251 79.6997 181.356C83.5444 181.461 94.6585 180.305 98.5032 180.242C99.2596 180.242 100.037 180.032 100.688 180.914C100.94 181.272 101.066 181.713 101.066 182.154C101.024 184.045 101.34 185.894 101.382 187.785C101.403 188.289 101.424 188.835 102.096 188.835C102.789 188.835 103.083 188.331 103.125 187.743C103.146 187.406 103.041 187.07 102.978 186.734C102.621 185.011 102.768 183.247 102.81 181.524C102.831 180.557 103.188 180.053 104.365 180.137C108.105 180.389 111.844 180.725 115.605 180.326C116.088 180.284 119.912 179.654 122.034 179.591C125.227 179.507 128.127 179.234 131.11 178.856C132.308 178.708 133.526 178.835 134.787 178.729C137.308 178.519 142.812 177.847 144.997 177.469C154.073 175.851 157.561 174.822 161.742 174.086C165.818 173.372 169.831 172.469 173.675 170.914C174.642 170.515 175.776 170.452 176.638 169.926C180.251 167.699 184.369 166.355 187.731 163.203C186.869 166.229 185.756 168.855 184.852 171.523C183.151 176.587 179.81 180.494 176.596 184.528C174.411 187.259 171.469 189.297 169.621 192.281C168.297 194.382 166.448 195.957 164.662 197.617C164.137 198.1 163.57 198.457 162.898 198.71C159.284 199.991 155.691 201.273 151.91 202.071C149.241 202.638 146.573 203.038 143.863 203.29C143.38 203.311 142.896 203.353 142.392 203.416ZM80.309 202.197C80.8552 201.798 81.4225 201.882 82.0527 202.092C81.4645 202.743 80.8762 202.239 80.309 202.197ZM71.59 193.415C75.3297 193.415 78.9643 193.394 82.599 193.415C83.5864 193.415 84.3428 194.235 83.9436 194.991C83.2923 196.188 83.3974 197.428 83.3553 198.668C83.3343 199.571 82.9562 199.928 82.0738 199.823C79.3005 199.529 76.5062 199.34 73.7119 199.361C72.8506 199.361 72.2413 199.109 72.2623 198.037C72.2413 196.609 71.3589 195.264 71.59 193.415ZM103.798 178.835C103.23 178.708 102.915 178.582 103.083 177.889C103.461 176.271 103.987 174.675 104.092 172.994C104.239 172.994 104.386 173.015 104.533 173.015C104.701 174.57 104.953 176.103 105.037 177.658C105.058 178.33 104.848 179.087 103.798 178.835ZM118.021 177.322C117.412 178.183 116.761 178.603 115.668 178.772C113.651 179.066 111.655 179.15 109.386 179.045C110.437 178.162 110.5 177.259 109.764 176.565C109.26 176.103 108.651 176.103 108.861 175.011C109.029 174.191 107.747 174.57 107.159 174.338C107.222 174.212 107.243 174.086 107.306 173.981C107.642 173.477 108.777 173.729 108.588 172.868C108.357 171.796 107.264 172.658 106.655 172.301C106.739 171.754 107.222 171.733 107.558 171.523C108.735 170.746 108.735 170.746 107.516 169.737C108.063 169.233 108.462 168.624 108.756 167.952C108.441 167.132 107.579 167.762 107.159 167.405C107.012 167.132 107.054 166.943 107.264 166.859C107.789 166.628 108.21 166.25 108.567 165.83C108.861 165.493 109.029 165.073 108.441 164.842C107.474 164.464 107.81 163.813 108.252 163.372C109.113 162.489 109.68 161.271 110.941 160.808C111.529 160.577 111.655 160.199 111.361 159.653C110.521 158.161 110.941 156.88 111.949 155.64C112.937 154.463 112.895 154.463 111.991 153.413C109.05 149.988 107.222 146.081 107.033 141.501C106.865 137.887 109.428 133.664 112.412 132.193C113.819 131.5 115.122 131.584 116.424 132.214C117.958 132.971 119.093 134.105 119.786 135.744C121.131 138.916 121.046 142.068 120.227 145.345C119.471 148.35 118.441 151.186 117.055 153.938C116.529 154.989 116.508 156.165 117.391 157.069C119.87 159.59 120.395 162.825 120.668 166.103C120.983 170.137 120.437 173.939 118.021 177.322Z" fill="#10100F"/>
<path d="M217.754 148.98C217.733 150.388 216.997 151.207 215.611 151.291C214.119 151.396 212.921 150.115 213.005 148.623C213.089 147.194 213.93 146.522 215.337 146.522C216.745 146.543 217.775 147.593 217.754 148.98Z" fill="#10100F"/>
<path d="M178.697 172.826C179.663 172.763 180.293 173.267 180.335 174.191C180.356 174.906 180.041 175.683 179.138 175.725C178.213 175.767 177.625 175.221 177.52 174.276C177.436 173.414 177.772 172.868 178.697 172.826Z" fill="#10100F"/>
<path d="M116.487 142.152C117.286 142.11 117.853 142.572 117.895 143.286C117.937 144.106 117.517 144.715 116.845 144.778C116.172 144.862 115.458 144.19 115.395 143.412C115.332 142.761 115.836 142.173 116.487 142.152Z" fill="#10100F"/>
<path d="M113.714 143.644C113.714 144.253 113.294 144.715 112.475 144.799C111.718 144.862 111.193 144.316 111.193 143.496C111.193 142.635 111.802 142.068 112.664 142.131C113.378 142.173 113.735 142.635 113.714 143.644Z" fill="#10100F"/>
<path d="M115.82 113.597C114.797 113.994 114.235 114.291 113.641 114.456C112.287 114.786 111.264 113.795 111.462 112.475C111.693 110.791 114.202 108.183 115.886 107.82C117.24 107.523 118.131 108.15 118.692 109.306C122.489 106.433 123.05 101.91 124.965 98.1469C125.361 99.9956 124.602 104.486 121.399 108.513C121.135 108.942 117.636 113.333 117.041 115.776C116.546 117.79 115.292 119.408 114.598 121.29C114.4 121.818 113.839 122.115 113.212 121.983C112.486 121.818 112.254 121.29 112.188 120.596C112.122 119.903 112.486 119.408 112.882 118.913C114.037 117.427 114.797 115.71 115.82 113.597ZM113.443 112.409C114.466 112.376 115.292 112.046 116.051 111.584C116.711 111.154 116.645 110.461 116.315 109.966C116.018 109.504 115.391 109.702 115.028 109.999C114.334 110.56 113.575 111.187 113.443 112.409Z" fill="#F26A25"/>
<path d="M62.6674 179.823C63.4598 178.503 61.3799 178.239 62.7665 177.38C63.3938 176.984 63.1296 176.39 63.2947 175.862C62.7665 175.763 62.4693 176.06 62.2052 176.291C61.8421 176.621 61.4129 176.885 60.9507 177.05C60.3565 177.248 59.9933 176.984 59.9603 176.357C59.9603 175.829 60.0593 175.267 60.4885 174.904C60.7856 174.64 61.0828 174.442 61.4789 174.145C61.0167 173.716 60.5215 173.518 59.9603 173.485C59.4321 173.452 59.1679 173.155 59.1019 172.659C59.0359 172.098 59.366 171.735 59.8612 171.57C60.1914 171.471 60.5215 171.438 60.8517 171.372C61.3139 171.273 61.8751 171.306 61.8421 170.58C61.8091 169.952 61.3139 169.985 60.8847 169.919C60.2244 169.82 59.5311 169.721 58.8708 169.622C58.6397 169.589 58.3756 169.589 58.1445 169.49C57.7484 169.358 57.5173 169.028 57.5503 168.599C57.5833 168.203 57.9134 168.07 58.2766 168.004C58.9038 167.905 59.5311 167.806 60.1584 167.707C60.3565 167.674 60.5545 167.641 60.5545 167.377C60.5545 167.146 60.3895 167.047 60.1914 166.981C59.8943 166.915 59.6302 166.849 59.333 166.816C58.5407 166.684 57.8804 166.156 57.7483 165.495C57.5503 164.571 57.022 164.208 56.2297 163.944C55.8996 163.812 55.6685 163.581 55.5034 163.25C54.9422 162.161 55.3383 161.336 56.6259 161.038C56.5268 160.213 56.2957 159.487 55.6354 158.893C55.4374 158.727 55.2723 158.43 55.2063 158.133C54.9422 157.209 55.3053 156.846 56.2297 157.044C56.6259 157.143 56.989 157.539 57.4843 157.341C57.7484 156.912 57.5833 156.416 57.6163 155.954C57.6493 155.657 57.6493 155.36 57.7153 155.096C57.8144 154.733 58.1115 154.535 58.4747 154.535C58.9039 154.568 59.0029 154.931 59.0029 155.261C59.0029 155.888 58.9699 156.516 58.9699 157.143C58.9699 157.374 59.0029 157.638 59.399 157.803C59.6632 157.341 59.9603 156.879 60.2244 156.384C60.4555 155.987 60.7196 155.591 61.2148 155.756C61.7761 155.954 61.677 156.417 61.545 156.846C61.5119 156.945 61.545 157.077 61.545 157.308C61.8751 156.978 62.1392 156.681 62.4364 156.45C62.6675 156.251 62.9976 156.251 63.2287 156.483C63.4267 156.681 63.4267 156.912 63.3607 157.143C63.3277 157.176 63.3277 157.242 63.2947 157.275C63.1957 157.605 62.6014 157.836 62.9976 158.265C63.3937 158.694 63.7569 158.43 64.1531 158.166C64.3511 158.034 64.6153 158.067 64.8464 158.001C64.9784 157.968 65.1435 157.968 65.2755 157.902C65.3746 157.836 65.4736 157.638 65.4406 157.539C65.0775 156.714 66.1669 156.053 65.7378 155.261C65.3416 154.535 64.9454 153.907 65.9688 153.313C66.332 153.115 65.9358 152.587 65.8698 152.224C65.8037 151.861 65.7377 151.497 66.1339 151.332C66.5301 151.134 66.7612 151.431 66.9593 151.729C67.7516 152.818 68.709 153.742 69.6994 154.634C70.0296 154.271 69.8975 154.006 69.7324 153.775C68.9071 152.62 68.6099 151.2 67.8176 150.012C67.6856 149.814 67.5865 149.583 67.5205 149.352C67.2233 148.295 67.5205 147.833 68.709 147.47C68.4779 146.908 68.2468 146.314 67.9827 145.753C67.8506 145.456 67.7186 145.126 67.7186 144.796C67.7516 144.531 67.8836 144.333 68.1477 144.267C68.3458 144.234 68.5109 144.366 68.61 144.564C69.2702 145.588 69.9305 146.611 70.5908 147.602C70.7228 147.8 70.7558 148.064 71.152 148.097C71.218 147.503 71.053 146.975 70.8879 146.446C70.3597 144.73 69.8645 143.013 69.3032 141.296C69.2042 140.966 69.0721 140.636 69.5013 140.438C69.8975 140.273 70.1286 140.504 70.3597 140.801C70.987 141.56 71.2181 142.551 71.8783 143.277C72.3405 143.145 72.2415 142.749 72.2745 142.452C72.4066 141.329 72.4726 140.24 72.5716 139.117C72.6046 138.82 72.5716 138.457 72.9678 138.49C73.2979 138.49 73.43 138.82 73.43 139.117C73.463 139.414 73.463 139.711 73.43 139.976C73.43 140.438 73.397 140.735 74.0573 140.768C74.6185 140.768 74.5194 141.593 74.9156 142.121C75.2788 141.593 75.5759 141.098 75.906 140.669C76.1371 140.372 76.4343 140.24 76.7974 140.372C77.2266 140.537 77.1606 140.9 77.0285 141.23C76.8304 141.626 76.7314 141.989 76.9295 142.485C77.1606 143.079 76.6654 143.475 76.3682 143.904C75.5759 144.928 74.9817 146.05 74.3214 147.569C75.2788 147.14 75.708 146.578 76.2032 146.116C76.4343 145.918 76.5994 145.687 76.7974 145.489C77.0285 145.258 77.3256 145.192 77.5897 145.423C77.8539 145.654 77.8209 145.951 77.6888 146.215C77.5567 146.578 77.1936 146.809 76.9625 147.107C76.3352 147.8 75.4108 148.295 75.5759 149.484C75.6089 149.748 75.1467 149.847 75.1467 150.342C75.5759 150.078 75.9721 149.847 76.3352 149.616C76.6324 149.451 76.8965 149.484 77.1276 149.715C77.3587 149.979 77.2926 150.276 77.0285 150.474C76.3022 151.068 75.807 151.861 75.0477 152.389C74.0573 153.082 73.331 154.073 72.4066 154.898C72.1424 155.162 71.9444 155.492 71.9114 156.02C73.1659 155.261 73.9912 154.172 74.9817 153.28C75.1137 153.148 75.2128 152.983 75.3448 152.818C75.5759 152.554 75.873 152.323 76.2362 152.554C76.6323 152.818 76.5003 153.214 76.3022 153.577C76.0381 154.04 75.774 154.502 75.5429 154.997C74.6515 155.459 74.6515 155.459 75.1467 156.45C74.3544 157.143 74.0242 158.1 73.6281 159.025C73.562 159.19 73.6281 159.289 73.7271 159.388C73.8592 159.52 74.0573 159.454 74.0903 159.355C74.4204 158.397 75.3118 157.605 75.1137 156.483C75.5099 156.053 75.5099 155.525 75.5099 154.964C76.2692 154.931 76.5333 154.304 76.6984 153.709C77.0285 152.587 77.7218 151.795 78.5141 150.969C79.7687 149.616 81.1223 148.361 82.4428 147.107C83.4993 146.116 84.0935 144.862 84.9189 143.706C85.249 143.244 85.0179 142.782 84.9189 142.32C84.5557 140.504 85.4471 139.612 87.2298 139.91C88.0882 140.042 88.7815 140.603 88.9136 141.296C89.0456 142.022 88.3523 143.442 87.593 143.508C86.3385 143.64 85.7442 144.465 85.249 145.39C84.0935 147.47 82.2447 148.922 80.528 150.474C79.7687 151.167 79.3725 151.729 79.7026 152.818C79.9998 153.775 79.8347 154.832 79.6696 155.855C79.5376 156.648 79.6366 157.374 79.6366 158.133C80.1318 158.199 80.0988 157.836 80.1648 157.572C80.561 155.987 80.8581 154.337 81.0562 152.719C81.1222 152.224 81.0232 151.464 81.7825 151.53C82.5749 151.596 82.2778 152.323 82.2447 152.818C82.0467 154.997 81.5845 157.143 80.9572 159.421C81.9476 159.025 82.7069 158.595 83.1031 157.737C83.5323 156.813 84.0935 155.954 84.2916 154.931C84.3246 154.832 84.3246 154.733 84.3576 154.667C84.5887 154.205 84.7538 153.544 85.4471 153.742C86.2064 153.973 85.8432 154.568 85.6782 155.063C85.4801 155.69 85.5131 156.383 85.1169 156.945C85.6452 157.275 85.9753 156.945 86.3384 156.879C86.8667 156.747 87.3619 156.615 87.9231 156.681C88.2863 156.714 88.6164 156.846 88.6494 157.242C88.7155 157.704 88.5174 158.001 88.0882 158.133C87.3289 158.298 86.6356 158.562 86.0083 159.058C86.3384 159.52 86.8337 159.553 87.1638 159.784C87.593 160.081 87.7581 160.444 87.56 160.906C87.3289 161.402 86.8997 161.204 86.5696 161.005C85.8433 160.543 85.0839 160.444 84.0605 160.807C84.9519 161.369 85.7442 161.468 86.5366 161.633C86.9327 161.699 87.2959 161.798 87.4939 162.194C87.758 162.755 87.4609 163.415 86.8997 163.382C85.9423 163.316 85.1169 164.208 84.1265 163.746C83.8624 163.647 83.7303 163.878 83.6973 164.175C83.6313 164.868 83.1361 164.967 82.5418 164.967C80.7261 164.967 79.0424 165.66 77.2596 165.991C77.0615 166.024 76.8965 166.123 76.8965 166.486C78.6792 166.288 80.396 166.057 82.1127 165.561C82.5419 165.429 83.1031 165 83.4002 165.594C83.7304 166.189 83.2021 166.651 82.7069 166.816C81.9476 167.047 81.9146 167.707 81.6505 168.203C81.0232 169.292 80.3959 170.348 79.8677 171.504C80.8251 171.24 81.4854 170.546 82.1787 169.919C82.872 169.292 83.5323 168.698 84.2586 168.103C84.4897 167.905 84.7868 167.74 85.0509 167.971C85.3811 168.236 85.282 168.566 85.0839 168.896C84.6217 169.589 83.9614 170.183 83.6973 171.207C84.8198 170.447 85.8102 169.787 86.8337 169.127C87.1638 168.896 87.56 168.467 87.9891 168.896C88.4183 169.292 88.0882 169.688 87.8241 170.051C87.725 170.216 87.593 170.381 87.659 170.58C88.2533 170.414 88.8145 170.084 89.4748 170.15C89.8049 170.183 90.2011 170.117 90.3001 170.58C90.3662 170.943 90.2011 171.24 89.871 171.438C89.3758 171.702 88.8475 171.966 88.2863 172.23C89.5738 173.089 90.003 173.32 88.4513 174.376C88.9796 174.772 89.4748 175.135 89.97 175.499C90.3992 175.796 91.0265 176.093 90.5312 176.72C90.069 177.314 89.5738 176.852 89.1446 176.555C88.6164 176.192 88.0882 175.862 87.4939 175.499C87.1968 175.895 87.626 176.423 87.1308 176.687C86.6686 176.918 86.2724 176.687 85.8763 176.588C84.8198 176.291 83.7634 175.961 82.74 175.664C82.872 175.796 83.0701 175.961 83.1691 176.159C83.3012 176.423 83.3342 176.72 83.0701 176.951C82.839 177.149 82.6079 177.05 82.3768 176.951C80.9242 176.225 79.3725 175.862 77.8539 175.301C77.3256 175.102 76.8304 174.97 76.4012 175.598C77.2266 176.027 78.151 176.192 78.9433 176.654C79.3725 176.918 79.7687 177.182 80.1318 177.479C80.594 177.81 80.9902 178.239 80.6601 178.833C80.2969 179.526 79.6366 179.229 79.1084 179.031C78.4481 178.767 77.7879 178.437 77.1276 178.107C76.8635 177.975 76.6324 177.81 76.1702 177.942C76.4013 178.371 76.7974 178.767 76.7974 179.229C76.7974 179.625 76.7314 180.022 76.2692 180.154C75.774 180.286 75.774 179.889 75.6419 179.592C75.3118 178.866 73.9912 178.239 73.1989 178.371C72.9018 178.437 72.8358 178.635 72.8688 178.899C72.9018 179.262 73.8262 179.823 74.0903 180.022C74.8166 180.682 72.4396 180.847 70.0956 180.847L65.0114 180.418L62.6674 179.823ZM76.7644 162.293C77.3256 161.171 78.5472 153.907 78.3821 152.884C77.6888 153.544 77.7218 154.502 77.2596 155.195C76.5993 156.185 76.5663 157.242 76.6984 158.397C76.8304 159.685 76.9295 160.972 76.7644 162.293ZM72.9678 173.485C74.9816 172.692 76.9955 171.933 78.6462 170.48C76.5003 171.009 74.5525 171.9 72.9678 173.485ZM63.2287 165.132C64.2521 164.505 63.6248 162.623 65.3746 163.085C65.3416 162.557 65.3416 162.062 65.3086 161.6C65.2755 161.27 65.0114 161.104 64.7473 161.038C64.4832 160.972 64.2521 161.171 64.1861 161.402C63.7899 162.557 63.3277 163.713 63.2287 165.132ZM63.7239 178.47C64.8794 178.932 65.7377 179.13 66.6621 179.031C67.2564 178.965 67.3554 178.536 67.3224 178.107C67.3224 177.611 66.8602 177.711 66.5631 177.711C65.6387 177.644 64.7803 177.909 63.7239 178.47ZM86.6026 175.301C86.1734 174.31 85.3811 174.178 84.7208 173.815C83.6313 173.221 83.6313 173.254 82.7069 173.749C83.7303 174.838 85.1169 174.97 86.6026 175.301ZM70.4917 152.785C70.8219 151.431 70.3927 150.606 69.0392 149.88C69.4683 150.87 69.8645 151.762 70.4917 152.785ZM66.6621 161.93C66.7942 162.59 67.1904 162.953 67.5535 163.316C67.7186 163.448 67.8837 163.515 68.0817 163.415C68.3458 163.283 68.3789 163.019 68.2798 162.788C68.0487 162.062 67.5865 161.633 66.6621 161.93ZM75.1137 163.548C75.2457 162.491 75.2458 161.6 75.1467 160.543C74.1233 161.897 74.1233 161.897 75.1137 163.548ZM69.7984 163.812C70.4917 162.92 71.6472 162.425 72.2085 161.27C70.8549 161.765 70.0956 162.623 69.7984 163.812ZM87.659 141.857C87.8241 141.593 87.7911 141.362 87.527 141.23C87.0978 140.966 86.2724 141.098 86.0744 141.461C85.9423 141.692 85.9753 141.923 86.2064 142.088C86.6356 142.32 87.4609 142.187 87.659 141.857ZM66.6621 176.06C65.4406 175.697 65.4406 175.697 64.8794 176.588C65.4736 176.324 66.1339 176.555 66.6621 176.06ZM65.1435 159.487C65.4736 160.279 66.0349 160.411 66.6621 160.477C66.299 159.982 65.9358 159.52 65.1435 159.487ZM71.7463 169.688C71.2841 170.282 71.2181 170.877 71.5812 171.603C72.2415 170.943 71.8453 170.315 71.7463 169.688ZM62.7334 161.369C62.3043 161.699 62.0402 162.095 62.0072 162.59C62.4363 162.26 62.8325 161.963 62.7334 161.369ZM62.7995 166.882C62.6014 166.915 62.3373 166.981 62.2713 167.212C62.2053 167.443 62.3373 167.707 62.6014 167.773C62.9316 167.839 62.9646 167.542 63.0306 167.344C63.0966 167.146 63.0636 166.981 62.7995 166.882ZM66.8272 166.156C66.4971 165.792 66.1339 165.462 65.4406 165.462C65.9028 165.958 66.2329 166.321 66.8272 166.156ZM61.1818 164.769C61.1488 164.934 61.2148 165.033 61.3469 165.099C61.611 165.231 61.776 165.165 61.9081 164.901C62.0071 164.703 61.9411 164.505 61.743 164.472C61.5449 164.439 61.3139 164.571 61.1818 164.769ZM70.4257 166.222C70.4917 166.057 70.4587 165.825 70.2607 165.759C70.0296 165.693 69.8315 165.892 69.6664 166.09C69.5013 166.321 69.6664 166.486 69.8315 166.519C70.0956 166.618 70.3267 166.519 70.4257 166.222ZM63.1626 160.279C63.6248 160.213 63.7899 160.015 63.8229 159.718C63.8229 159.652 63.7239 159.52 63.6909 159.52C63.2947 159.586 63.1957 159.883 63.1626 160.279ZM65.4406 170.381C65.6717 170.745 65.9688 170.844 66.365 170.613C66.464 170.546 66.4971 170.48 66.398 170.381C66.1009 170.051 65.7708 170.051 65.4406 170.381ZM74.0903 176.885C74.4204 177.281 74.7505 177.314 75.2458 177.413C74.8826 177.05 74.6185 176.918 74.0903 176.885Z" fill="#10100F"/>
<path d="M210.125 89.369C208.555 89.4517 207.012 89.369 205.469 89.1487C202.494 88.7355 199.877 87.5785 197.619 85.5676C197.205 85.2095 196.792 84.8238 196.296 84.5208C193.569 82.9231 191.724 80.4715 190.484 77.6893C188.969 74.2735 187.895 70.6925 189.052 66.8635C189.162 66.5054 189.244 66.1473 189.272 65.7616C189.492 60.5278 192.164 56.3682 195.222 52.4015C198.032 48.7378 201.695 46.0934 205.8 44.0274C207.783 43.0357 210.015 43.0632 212.136 42.65C214.312 42.2093 216.378 42.8429 218.334 43.5315C222.548 44.9915 226.57 46.9198 230.041 49.8672C231.033 50.6936 232.024 51.5476 233.016 52.3464C234.145 53.2555 234.255 54.6879 234.944 55.8449C236.542 58.5169 236.735 61.547 236.955 64.5496C237.203 67.9103 236.404 71.0506 235.082 74.1082C232.933 78.984 229.517 82.7854 225 85.485C220.455 88.1845 215.469 89.4792 210.125 89.369ZM231.005 77.4689C231.253 77.1934 231.556 76.9455 231.749 76.6425C235.715 70.0589 236.68 63.2549 233.319 56.1479C232.575 54.6053 232.437 54.5777 230.812 55.4041C230.482 55.5694 230.124 55.652 229.793 55.8173C229.187 56.0928 228.636 56.0928 228.471 55.349C228.333 54.743 228.361 54.0819 229.159 53.8615C229.765 53.6962 230.371 53.5034 231.115 53.283C230.316 52.4291 229.848 51.465 228.774 51.1068C228.526 51.5476 228.498 51.9057 228.746 52.2363C228.994 52.5944 229.049 52.9249 228.719 53.2279C228.333 53.5585 228.085 53.1453 227.782 53.0902C226.625 52.8698 226.239 51.5476 225.193 51.2721C224.559 51.1068 224.146 50.8589 224.118 50.2254C224.091 49.3439 224.862 49.5918 225.33 49.4265C225.413 49.399 225.441 49.2337 225.523 49.151C224.201 47.7737 224.201 47.7737 222.686 48.4899C222.769 48.7378 222.824 48.9582 222.906 49.2061C223.099 49.7571 223.815 50.2529 223.43 50.8589C222.906 51.6578 222.355 50.6936 221.804 50.6661C220.289 50.5559 220.289 50.4733 220.813 49.0409C220.895 48.8205 221.061 48.6001 220.675 48.2971C219.683 49.3714 218.664 49.2888 217.645 48.2145C217.425 47.9941 216.956 47.9665 216.598 47.9114C215.992 47.8288 215.551 47.5533 215.166 47.1401C214.725 46.6443 214.257 46.3137 213.568 46.3964C213.182 46.4515 212.824 46.3137 212.521 46.0658C210.979 44.7711 209.161 45.0191 207.618 45.6251C204.505 46.8647 201.585 48.5175 199.134 50.914C195.718 54.2472 193.184 58.2139 191.421 62.6489C191.228 63.1172 191.09 63.613 191.062 64.0813C191.062 65.2658 190.842 66.4227 190.649 67.5797C189.713 73.1992 191.751 77.8821 195.553 81.7937C197.205 83.5016 199.189 84.9616 201.31 86.1736C204.23 87.8815 207.398 87.8264 210.676 87.854C210.51 87.2204 210.373 86.8347 210.318 86.394C210.235 85.9808 210.483 85.6778 210.841 85.485C211.309 85.2095 211.475 85.6502 211.75 85.8706C212.163 86.2012 212.163 86.7797 212.494 87.1378C212.604 87.2755 212.742 87.4408 212.934 87.2755C213.072 87.1653 213.21 86.8898 213.1 86.8347C212.246 86.4491 212.411 85.9533 213.1 85.7329C213.761 85.5125 213.899 86.091 213.899 86.6419C213.899 87.0276 214.064 87.3857 214.422 87.551C215.111 87.8264 216.433 87.2479 216.653 86.5317C216.874 85.8706 217.452 85.2921 217.149 84.4657C217.066 84.2454 217.314 83.8873 217.48 83.6393C217.672 83.3639 217.976 83.2812 218.306 83.3914C218.582 83.5016 218.499 83.7771 218.554 84.025C218.747 84.6586 218.223 85.237 218.416 85.8706C218.526 86.2563 218.499 86.8623 219.16 86.6419C219.573 86.4766 220.427 86.4491 219.738 85.5676C219.27 84.9616 219.683 84.4933 220.234 84.2454C220.565 84.0801 220.978 84.1352 221.061 83.5292C219.904 83.5016 219.353 82.7854 219.05 81.5733C220.482 82.2069 220.152 80.196 221.336 80.1685C221.309 80.7745 222.107 81.2703 221.364 81.8213C221.061 82.0416 220.62 82.0967 220.951 82.5926C221.281 83.0884 221.584 82.6477 221.86 82.4824C222.107 82.3171 222.493 82.4273 222.686 82.0692C222.631 81.9315 222.576 81.7386 222.493 81.6009C222.245 81.1877 222.135 80.7745 222.714 80.5266C223.127 80.3613 223.402 80.6643 223.623 80.9673C224.091 81.6009 223.981 82.7579 223.402 83.419C222.906 83.9699 222.438 84.5484 221.942 85.0993C223.567 84.6861 224.89 83.9148 226.047 82.8956C226.322 82.6477 226.487 82.4548 226.295 81.9865C225.854 80.8296 225.936 80.802 227.066 80.5817C227.562 80.4715 228.03 80.4439 228.526 80.5266C228.829 80.5541 229.242 80.3888 229.187 80.0307C229.022 78.7085 229.821 78.3504 230.895 78.1576C231.115 78.13 231.17 77.7719 231.143 77.524C231.06 77.4138 231.005 77.4689 231.005 77.4689ZM219.738 46.1485C218.912 45.6802 218.306 45.1568 217.452 45.7904C217.204 45.9556 216.874 46.0658 217.039 46.479C217.177 46.8371 217.369 47.2503 217.783 47.085C218.416 46.8647 219.188 46.9749 219.738 46.1485ZM216.763 45.5149C216.323 44.7711 215.662 44.5783 215.028 44.7987C214.615 44.9364 214.67 45.5149 214.973 45.9832C215.524 45.8179 216.102 45.6802 216.763 45.5149Z" fill="#10100F"/>
<path d="M231.363 68.9846C231.115 68.7917 230.95 68.6816 230.812 68.5989C230.509 68.4061 230.344 67.9103 229.903 68.1857C229.545 68.4061 229.573 68.7917 229.738 69.1774C229.986 69.6732 229.71 69.8661 229.27 69.9212C228.746 70.0038 228.443 69.7283 228.471 69.1774C228.498 67.4144 228.498 67.4144 226.873 66.9737C226.542 66.891 226.239 66.8084 226.267 66.4227C226.295 66.0646 226.57 65.8718 226.901 65.8718C227.755 65.8718 228.636 65.8443 229.435 66.5054C229.517 65.8718 229.765 65.2933 229.573 65.0179C228.719 63.8058 229.462 62.4836 229.27 61.244C229.214 60.941 229.297 60.6104 229.683 60.5002C229.958 60.4176 230.151 60.5553 230.344 60.7206C230.867 61.1889 231.501 61.6572 231.005 62.4285C230.206 63.7232 230.647 64.6322 231.749 65.4311C231.887 65.5412 231.942 65.7341 232.052 65.9269C231.611 66.6707 230.702 66.3676 230.096 66.8084C230.84 66.8084 231.418 67.1665 232.079 67.3318C233.126 67.6072 233.567 68.2684 233.099 69.1499C232.548 70.1691 231.473 70.8026 230.895 71.8494C230.73 72.1524 230.068 72.18 229.71 71.8219C229.325 71.4362 229.38 70.9404 229.821 70.72C230.564 70.3344 230.757 69.5906 231.363 68.9846Z" fill="#10100F"/>
<path d="M231.06 77.4138C230.179 77.3312 229.132 76.5874 228.691 78.1025C228.581 78.4606 228.223 78.4331 227.947 78.1851C227.672 77.9372 227.451 77.5791 227.121 77.4689C226.763 77.3587 226.322 76.8904 225.964 77.2486C225.578 77.6618 226.019 77.9372 226.35 78.2678C226.818 78.7361 226.845 79.2319 226.074 79.5349C225.688 79.7002 225.413 80.0859 225.055 80.2787C224.724 80.4715 224.311 80.5817 224.008 80.2787C223.595 79.893 224.008 79.6451 224.229 79.3696C224.339 79.2319 224.614 79.0391 224.587 78.984C223.375 76.8078 225.661 76.4773 226.57 75.2652C225.578 75.1275 225.716 73.9705 224.862 73.5573C224.449 73.3645 224.835 72.7585 225.248 72.5656C225.606 72.4004 226.074 72.1249 226.35 72.7309C226.542 73.1717 226.735 73.64 226.901 74.1082C227.176 74.9897 228.195 75.1826 228.608 74.9897C229.435 74.6041 229.683 75.0999 230.179 75.4305C230.95 75.9539 231.28 76.5599 231.088 77.4689C231.005 77.4689 231.06 77.4138 231.06 77.4138Z" fill="#10100F"/>
<path d="M233.457 61.6572C232.493 61.4919 231.17 61.7949 231.473 60.0871C231.501 60.0044 231.391 59.8391 231.28 59.784C229.683 59.0127 230.84 57.7456 230.73 56.6988C230.674 56.1479 231.253 55.8724 231.804 56.0653C232.327 56.2581 232.63 56.8917 232.327 57.2222C231.666 57.9384 231.886 58.4894 232.245 59.178C232.548 59.8391 232.851 60.3074 233.732 60.1972C234.255 60.1421 234.228 60.8584 234.255 61.2165C234.283 61.7398 233.842 61.7398 233.457 61.6572Z" fill="#10100F"/>
<path d="M234.366 63.2549C233.291 63.9986 234.944 64.6322 234.559 65.4586C234.448 65.7065 234.558 66.0922 234.2 66.2024C233.87 66.3126 233.594 66.1473 233.429 65.8718C233.264 65.6239 233.181 65.2933 232.961 65.1005C232.603 64.77 232.107 64.5496 232.217 63.9436C232.327 63.2549 232.933 62.9519 233.374 62.5938C233.76 62.2357 234.338 62.6213 234.366 63.2549Z" fill="#10100F"/>
<path d="M231.28 74.3837C230.785 74.3286 230.399 74.0256 230.647 73.5298C231.06 72.6758 231.583 71.877 232.162 71.1332C232.41 70.8302 232.851 70.9128 232.961 71.4362C233.099 72.18 232.272 74.0256 231.639 74.3286C231.528 74.3837 231.391 74.3837 231.28 74.3837Z" fill="#10100F"/>
<path d="M223.65 53.1728C223.65 52.98 223.65 52.7872 223.65 52.6219C223.678 52.374 223.76 52.1261 224.036 52.071C224.311 52.0159 224.504 52.2087 224.614 52.4291C224.697 52.6495 224.724 52.8974 224.807 53.1453C224.972 53.6962 225.165 53.889 225.661 53.3932C226.047 53.0076 226.377 53.3381 226.515 53.6962C226.735 54.2196 226.322 54.3022 225.936 54.3298C225.744 54.3298 225.551 54.3022 225.386 54.3573C223.76 54.8532 223.595 54.7705 223.65 53.1728Z" fill="#10100F"/>
<path d="M229.159 72.8687C229.132 73.1717 229.022 73.3645 228.774 73.4471C228.388 73.5849 227.865 73.5022 227.782 73.1992C227.617 72.5381 227.396 72.0698 226.735 71.7668C226.46 71.6566 226.57 71.1883 226.79 70.9404C227.011 70.6925 227.396 70.4721 227.589 70.6925C228.168 71.3811 228.664 72.1524 229.159 72.8687Z" fill="#10100F"/>
<path d="M227.782 56.6713C228.498 56.6162 228.994 56.8641 228.967 57.5252C228.939 58.2965 228.278 58.4618 227.644 58.4894C227.011 58.5169 226.598 58.1863 226.57 57.5252C226.57 56.6162 227.259 56.6437 227.782 56.6713Z" fill="#10100F"/>
<path d="M217.893 58.269C217.755 58.9576 217.259 59.2055 216.681 59.178C216.35 59.178 216.13 58.9025 216.185 58.5444C216.268 57.9384 216.515 57.4701 217.232 57.5528C217.645 57.6078 217.893 57.8558 217.893 58.269Z" fill="#10100F"/>
<path d="M225.606 70.9128C225.165 70.8577 224.862 70.6649 224.89 70.2242C224.917 69.7559 225.165 69.3702 225.689 69.3427C226.157 69.3151 226.57 69.5355 226.598 70.0589C226.653 70.7476 225.992 70.72 225.606 70.9128Z" fill="#10100F"/>
<path d="M216.571 85.1544C216.46 85.6502 216.213 86.1461 215.606 86.2287C215.276 86.2563 215.111 85.9257 215.138 85.5951C215.166 85.0167 215.331 84.4933 216.047 84.4933C216.378 84.4933 216.571 84.7137 216.571 85.1544Z" fill="#10100F"/>
<path d="M200.153 69.3702C200.07 69.866 199.795 69.9762 199.437 70.0313C198.913 70.114 198.583 69.9487 198.638 69.3427C198.693 68.7917 199.079 68.6264 199.547 68.6815C200.098 68.7642 200.208 69.0121 200.153 69.3702Z" fill="#10100F"/>
<path d="M202.632 84.4106C202.549 84.8789 202.274 85.1544 201.751 85.1819C201.31 85.1819 201.034 84.934 201.034 84.5208C201.062 84.025 201.365 83.7495 201.888 83.7495C202.357 83.722 202.577 83.9423 202.632 84.4106Z" fill="#10100F"/>
<path d="M208.527 77.1108C208.637 76.6976 208.747 76.2293 209.271 76.2018C209.656 76.2018 209.959 76.5048 210.042 76.8904C210.125 77.4138 209.767 77.6618 209.298 77.7168C208.858 77.7719 208.61 77.524 208.527 77.1108Z" fill="#10100F"/>
<path d="M204.395 53.8615C204.395 54.3298 204.092 54.4675 203.679 54.5226C203.348 54.5501 203.045 54.4124 203.018 54.0268C202.99 53.586 203.1 53.0902 203.679 53.0902C204.064 53.0626 204.285 53.4207 204.395 53.8615Z" fill="#10100F"/>
<path d="M215.028 66.9737C214.615 66.9461 214.284 66.8084 214.312 66.3401C214.312 65.8994 214.477 65.4586 215 65.4311C215.496 65.4035 215.772 65.7065 215.827 66.2024C215.854 66.7533 215.496 66.9186 215.028 66.9737Z" fill="#10100F"/>
<path d="M209.877 50.8314C209.822 50.8314 209.409 50.7487 209.491 50.1427C209.546 49.7571 209.739 49.399 210.18 49.4816C210.648 49.5642 210.868 49.9774 210.924 50.3906C210.951 50.7763 210.593 50.8314 209.877 50.8314Z" fill="#10100F"/>
<path d="M200.456 79.1768C200.483 79.6451 200.098 79.7828 199.767 79.8379C199.326 79.9206 199.051 79.7277 199.051 79.2594C199.051 78.8738 199.244 78.5432 199.685 78.5157C200.125 78.5157 200.318 78.8187 200.456 79.1768Z" fill="#10100F"/>
<path d="M227.562 60.335C227.534 60.638 227.424 60.8308 227.149 60.8583C226.653 60.9134 226.129 60.9134 226.047 60.2523C226.019 59.9493 226.184 59.5912 226.487 59.5361C227.093 59.4535 227.314 59.9493 227.562 60.335Z" fill="#10100F"/>
<path d="M214.945 73.5022C214.89 73.9705 214.56 74.1082 214.174 74.1082C213.816 74.1082 213.651 73.8879 213.623 73.5298C213.623 73.1166 213.761 72.786 214.229 72.8136C214.615 72.8686 214.89 73.089 214.945 73.5022Z" fill="#10100F"/>
<path d="M211.392 54.6053C211.447 55.0185 211.089 55.1837 210.731 55.2388C210.207 55.3215 210.18 54.9083 210.152 54.5502C210.125 54.1645 210.235 53.8064 210.731 53.8064C211.227 53.7789 211.282 54.1645 211.392 54.6053Z" fill="#10100F"/>
<path d="M228.03 55.1286C228.085 55.6245 227.782 55.7622 227.479 55.7622C227.066 55.7898 226.708 55.5969 226.763 55.1286C226.818 54.7705 226.983 54.3298 227.424 54.3573C227.865 54.3849 227.865 54.8807 228.03 55.1286Z" fill="#10100F"/>
<path d="M199.437 56.8916C199.409 57.3048 199.134 57.3599 198.803 57.3875C198.445 57.415 198.197 57.2497 198.197 56.8641C198.197 56.5335 198.362 56.2305 198.693 56.1754C199.161 56.1203 199.326 56.506 199.437 56.8916Z" fill="#10100F"/>
<path d="M222.658 77.6893C222.713 78.1025 222.493 78.3228 222.163 78.3228C221.777 78.3228 221.694 78.0198 221.722 77.6893C221.749 77.3312 221.832 76.918 222.328 77.0006C222.741 77.0557 222.521 77.4964 222.658 77.6893Z" fill="#10100F"/>
<path d="M227.011 63.916C227.011 64.3292 226.845 64.5496 226.487 64.5771C226.129 64.6322 225.881 64.4394 225.854 64.0813C225.799 63.6956 226.047 63.5028 226.377 63.4753C226.708 63.4477 226.956 63.5854 227.011 63.916Z" fill="#10100F"/>
<path d="M205.717 63.5854C205.717 63.9711 205.469 64.1364 205.139 64.1364C204.836 64.1364 204.56 63.916 204.643 63.5579C204.698 63.2273 204.918 62.9519 205.221 62.9519C205.552 62.9243 205.69 63.2549 205.717 63.5854Z" fill="#10100F"/>
<path d="M215 84.1352C214.863 84.4658 214.642 84.4382 214.394 84.3831C214.064 84.328 213.871 84.1076 213.981 83.7495C214.036 83.4741 214.229 83.3363 214.505 83.4741C214.753 83.6394 214.973 83.8597 215 84.1352Z" fill="#10100F"/>
<path d="M194.038 64.1364C194.451 64.1915 194.754 64.3843 194.754 64.7424C194.754 65.0454 194.423 65.073 194.175 65.0454C193.9 65.0179 193.652 64.9077 193.624 64.6047C193.542 64.2191 193.872 64.2466 194.038 64.1364Z" fill="#10100F"/>
<path d="M43.4663 95.7913C42.8174 95.3332 42.1096 94.9553 41.3545 94.5202C42.0034 94.1537 42.6876 93.9934 43.2775 93.5125C42.6404 93.1002 42.1331 93.4667 41.6141 93.5125C41.3663 93.5354 41.095 93.753 40.8826 93.4094C40.6938 93.1002 40.8708 92.9056 41.095 92.7338C41.6494 92.333 41.968 91.7719 42.3101 91.2108C42.4753 90.9474 42.959 90.6726 42.5815 90.3748C42.2039 90.0886 42.0152 90.6039 41.7674 90.81C41.5669 90.9818 41.4017 91.1993 41.2129 91.394C40.7174 91.8864 40.2219 92.3788 39.6439 92.9628C39.231 91.6803 38.5821 90.6611 37.8388 89.4587C37.5321 89.9855 37.5557 90.2718 37.6855 90.5581C38.0276 91.2795 38.3461 92.0238 38.7237 92.7223C38.8888 93.0201 38.9714 93.2835 38.9714 93.5125C38.9242 93.501 38.8888 93.4896 38.8416 93.4781C38.0866 93.3636 37.3551 93.1117 36.4939 93.1689C36.6355 93.6155 36.8832 93.9247 37.3198 94.0507C37.7209 94.1652 38.122 94.3141 38.5349 94.3599C38.4759 94.4171 38.4051 94.4629 38.3343 94.5202C37.7917 94.9439 37.1546 95.3103 36.7771 95.9516C37.1074 96.1119 37.2844 95.9401 37.4849 95.8256C37.8624 95.6195 38.2518 95.4363 38.6411 95.2531C39.0658 95.0584 39.3135 95.2187 39.3843 95.6539C39.4787 96.2493 39.5613 96.8562 39.6675 97.4517C39.7147 97.738 39.7972 98.0357 40.2455 98.093C40.5995 97.0509 40.0804 95.9974 40.3399 94.9439C41.3663 95.3676 42.2039 95.8371 43.0062 96.3867C43.3129 96.6043 43.7966 97.0738 44.1151 96.6158C44.3511 96.2722 43.7494 95.9974 43.4663 95.7913Z" fill="#10100F"/>
</svg>
