<svg width="766" height="675" viewBox="0 0 766 675" fill="none" xmlns="http://www.w3.org/2000/svg">
<g clip-path="url(#clip0)">
<path d="M289.614 567.718C286.895 563.111 285.122 557.321 277.439 560.984C274.838 562.283 273.538 559.92 273.892 557.203C274.129 555.076 274.956 552.831 275.074 550.705C275.193 545.388 272.71 543.852 267.745 545.86C266.445 546.451 265.145 547.396 263.844 547.633C262.426 547.987 260.889 547.396 259.943 546.097C258.998 544.797 258.998 543.379 260.062 542.08C261.48 540.425 263.017 538.771 264.435 537.117C265.854 535.581 266.209 533.927 265.145 532.155C263.844 529.91 261.953 529.319 259.589 530.028C258.525 530.383 257.579 530.855 256.515 531.21C254.269 532.037 251.669 534.4 249.896 530.973C248.595 528.256 250.723 526.247 252.615 524.357C260.062 516.441 260.062 516.322 253.442 507.697C251.551 505.334 251.432 503.089 252.851 500.726C253.56 499.427 254.388 498.245 255.215 497.064C257.225 494.346 256.043 491.392 255.924 488.557C255.688 484.185 252.378 484.894 249.659 484.303C245.522 483.476 245.049 480.995 248.004 478.16C250.132 476.151 252.733 474.615 254.979 472.843C256.988 471.307 257.461 469.18 256.988 466.935C256.397 463.981 254.033 464.218 251.787 464.454C249.541 464.69 247.059 464.808 246.349 462.209C245.64 459.728 247.768 458.31 249.423 456.892C252.378 454.293 256.988 453.702 258.88 448.622C253.56 447.558 250.25 441.06 244.576 442.478C236.42 444.486 228.618 447.913 221.289 452.048C219.043 453.348 218.925 455.711 219.752 457.956C221.052 461.5 220.461 465.281 221.171 468.826C228.618 503.917 230.155 539.953 237.72 575.162C241.385 592.294 242.33 610.017 239.966 627.739C239.257 633.174 239.493 638.727 239.257 644.281C239.139 646.525 239.375 648.77 239.02 650.897C238.311 654.678 235.71 656.687 231.928 656.214C228.027 655.741 227.79 652.551 228.027 649.479C228.618 640.382 229.209 631.166 229.8 622.068C230.746 603.991 228.5 586.268 225.663 568.545C222.116 546.451 218.688 524.357 215.497 502.144C214.669 495.882 213.251 491.511 205.685 492.338C203.676 492.574 201.43 491.393 199.42 490.565C190.318 486.548 187.008 480.168 188.781 470.361C189.609 465.517 191.264 460.673 195.283 457.956C206.985 450.512 205.567 440.115 202.612 429.127C196.11 404.669 190.909 379.739 182.989 355.754C173.414 326.925 163.484 298.096 152.845 269.622C143.034 243.51 132.395 217.753 121.283 192.233C117.028 182.426 111.59 173.447 105.443 164.703C103.315 161.631 100.597 161.75 97.6413 161.75C88.7756 161.631 80.0281 161.631 71.1623 161.513C61.1145 161.395 51.8941 158.087 42.6738 154.188C30.0253 148.753 25.7697 138.119 24.7059 126.068C23.0509 107.045 26.8336 88.7318 36.7633 72.0725C42.0827 63.0929 49.4117 57.5398 60.0506 55.2949C73.2901 52.223 86.2932 51.7504 99.1781 56.122C102.37 57.1854 105.325 59.3121 104.025 63.4474C102.724 67.5827 99.8873 69.355 95.5136 68.0553C95.159 67.9372 94.8043 67.819 94.4497 67.7009C87.8299 66.1649 81.2102 66.1649 74.5904 66.283C54.9676 66.7556 46.4565 72.5451 40.1914 90.9767C36.7633 101.138 34.6355 111.535 35.1083 122.405C35.5812 132.921 40.0731 140.364 50.121 144.499C55.6769 146.744 61.3509 148.28 67.1432 148.517C80.6191 148.989 94.0951 151.825 107.571 148.753C118.092 146.39 126.721 141.427 132.631 132.33C132.986 131.739 133.459 131.148 133.932 130.558C137.478 126.068 142.561 124.414 145.044 127.367C148.235 130.912 147.526 134.575 144.216 138.119C137.951 144.736 132.395 152.297 124.002 156.551C118.919 159.15 118.446 162.458 121.165 167.303C130.74 185.025 137.714 203.93 145.871 222.361C155.21 243.51 163.602 265.014 170.813 286.872C179.324 312.629 188.545 338.15 196.465 364.025C202.73 384.347 207.813 405.024 212.187 425.818C215.615 442.241 215.851 442.241 231.1 435.625C238.193 432.553 244.576 428.063 252.378 426.764C253.442 426.645 255.333 425.7 255.333 425.582C252.378 416.721 261.007 417.075 264.672 413.412C266.563 411.522 265.854 409.395 263.49 407.977C257.934 404.669 258.643 401.834 264.435 400.061C270.582 398.289 271.292 392.972 273.065 388.246C274.956 382.929 267.627 382.811 267.627 378.203C267.982 376.077 269.873 375.84 271.764 375.722C274.838 375.486 277.911 374.777 279.212 371.941C280.867 368.16 276.966 367.451 274.956 365.561C272.356 362.962 273.774 360.953 277.202 360.481C279.685 360.126 282.403 360.599 284.413 358.472C289.26 353.51 288.077 347.366 281.576 343.939C279.921 343.112 278.266 342.403 277.439 340.04C280.748 336.259 285.24 337.677 289.378 337.914C291.506 338.032 294.106 339.095 295.406 336.968C297.061 334.369 295.288 332.124 293.633 330.116C293.042 329.288 292.806 328.225 292.333 327.398C292.924 326.689 293.279 325.626 293.633 325.626C306.636 324.326 306.636 324.326 300.49 313.574C300.962 313.102 301.435 312.393 302.026 312.157C305.336 311.093 308.528 315.583 311.365 312.984C314.438 310.384 311.128 306.84 311.483 303.65C311.838 298.687 313.729 297.506 318.339 300.223C321.176 301.877 323.422 303.059 326.377 301.168C329.806 298.924 329.687 295.615 328.742 292.307C324.368 276.829 319.403 261.469 315.739 245.755C311.128 226.142 300.962 208.538 297.889 188.452C303.445 189.515 305.1 194.359 306.755 198.495C315.148 219.644 322.595 241.147 329.215 262.887C331.224 269.622 334.298 275.884 336.307 282.5C336.78 284.273 337.844 286.281 340.09 285.691C341.981 285.218 342.454 283.091 342.454 281.201C342.454 275.648 343.163 270.095 342.218 264.66C339.617 249.418 340.208 233.94 337.489 218.58C332.17 188.688 327.323 158.559 322.358 128.549C317.394 98.8929 311.365 69.4731 303.09 40.526C300.49 31.4283 299.898 21.6217 293.633 13.8237C292.215 12.0515 293.988 10.2792 293.515 8.50691C292.569 4.3716 293.279 0.35445 297.652 -0.236308C302.617 -0.945217 302.617 4.01715 303.445 7.44355C309.237 30.9557 315.266 54.4679 320.822 77.98C327.087 104.328 332.052 131.03 336.071 157.851C338.435 173.801 342.336 189.515 344.464 205.466C347.182 225.788 351.438 245.992 352.147 266.55C352.265 269.504 352.856 272.339 353.211 275.293C353.684 278.601 353.566 282.146 358.294 282.382C363.259 282.619 367.869 279.192 368.342 274.584C368.578 271.985 368.342 269.386 368.578 266.904C368.697 265.014 369.169 263.005 371.534 262.887C373.78 262.769 374.844 264.66 374.844 266.55C374.844 270.213 374.016 273.875 377.799 277.065C380.518 270.922 378.272 262.651 386.192 258.398C390.447 264.896 383.709 272.339 387.137 278.483C389.738 278.838 390.447 277.538 391.038 276.12C399.195 252.963 406.997 229.805 415.035 206.647C423.073 183.489 428.865 159.505 435.131 135.756C441.869 110.235 449.789 85.0691 460.782 61.0844C465.747 50.2144 475.322 42.7709 482.06 33.2006C483.833 30.6013 486.906 30.4831 490.216 32.2554C465.629 58.1306 454.753 90.2678 446.124 123.232C437.022 157.969 427.92 192.705 416.572 226.851C411.252 242.92 406.524 259.106 401.441 275.175C400.613 278.011 398.84 280.964 401.559 283.328C404.869 286.163 408.415 288.881 412.198 291.007C413.853 291.953 415.153 289.59 416.099 287.935C426.619 269.976 436.785 251.781 447.779 233.94C457.945 217.399 468.939 201.448 479.696 185.144C480.287 184.198 480.996 183.371 481.705 182.544C483.124 181.008 484.897 180.536 486.67 181.599C488.561 182.781 488.325 184.671 487.261 186.325C485.133 189.397 482.887 192.233 480.878 195.305C471.185 209.483 460.664 223.307 451.916 238.075C441.868 254.971 433.239 272.694 424.019 290.18C428.511 292.189 429.929 285.454 433.476 288.526C437.258 291.716 431.348 294.079 432.648 297.86C437.377 295.615 441.632 296.679 442.696 301.995C443.996 308.848 441.041 314.165 434.067 316.883C434.421 321.727 438.913 324.326 439.741 328.698C440.095 330.47 441.277 331.179 442.932 330.943C444.824 330.706 446.597 329.525 447.07 327.753C447.543 325.98 445.769 325.744 444.351 325.153C440.805 323.735 441.041 321.49 443.523 319.482C446.006 317.355 448.725 314.756 452.271 315.819C455.581 316.883 455.226 320.545 455.935 323.381C456.763 327.044 457.236 330.824 454.99 334.015C452.862 337.087 449.552 337.323 446.006 336.614C444.942 336.378 443.76 336.968 443.642 338.15C443.405 339.804 444.587 340.986 445.888 341.576C449.67 343.112 452.035 340.158 454.872 338.504C456.999 337.323 459.009 336.732 460.782 338.741C462.201 340.395 461.137 342.167 460.546 343.939C459.364 347.366 456.999 349.729 453.571 350.319C449.552 350.91 447.424 352.328 448.488 356.7C449.434 360.717 452.035 358.59 454.517 358.59C459.127 358.472 460.546 361.78 457.945 365.916C455.817 369.106 450.734 370.287 451.325 375.368C451.562 377.14 451.562 379.385 452.626 380.566C454.044 381.984 455.935 380.684 457.59 379.857C459.718 378.676 460.9 375.722 463.856 375.84C467.52 383.875 467.756 386.592 462.201 388.364C454.162 390.845 453.453 395.69 454.99 402.424C455.344 403.842 455.108 405.378 455.226 406.796C455.344 408.214 455.344 409.868 456.881 410.577C458.891 411.522 460.427 410.577 461.491 408.923C462.555 407.387 463.146 405.614 465.156 405.142C470.121 412.349 470.002 415.421 464.092 418.02C461.846 419.084 459.245 419.32 456.763 420.147C456.29 420.265 455.936 421.329 455.817 422.038C455.699 425.346 455.817 428.654 455.817 431.726C457.827 432.435 459.127 432.08 460.191 430.899C462.082 428.89 464.565 427.472 467.047 429.127C469.648 430.899 467.52 433.735 467.638 436.098C467.875 444.368 467.756 452.875 469.648 460.791C472.721 474.26 473.312 487.73 473.194 501.317C472.958 521.167 472.248 541.016 475.677 560.629C476.386 564.765 475.558 568.664 475.204 572.681C475.085 574.689 474.022 576.225 472.012 576.462C469.884 576.698 468.584 575.398 467.638 573.744C465.865 570.436 464.801 567.01 464.919 563.229C465.038 546.687 461.61 530.264 463.146 513.723C463.619 509.352 463.146 504.862 461.846 500.136C458.063 500.963 454.635 503.326 450.498 502.971C448.015 502.735 446.479 504.507 446.479 507.107C446.479 509.352 448.134 510.179 449.789 510.887C450.143 511.006 450.498 511.124 450.852 511.242C453.453 511.951 457.472 511.242 456.763 515.732C456.172 519.631 452.98 520.93 449.316 520.576C447.543 520.34 445.651 519.749 443.878 519.749C440.686 519.867 439.741 522.584 439.031 525.066C438.204 528.138 440.45 528.728 442.696 529.083C444.115 529.319 445.651 529.555 446.952 530.146C448.37 530.737 449.198 532.037 449.198 533.573C449.079 535.699 447.779 536.881 446.006 537.59C443.878 538.535 441.632 537.944 439.504 537.353C434.067 535.936 432.648 539.835 430.639 543.497C428.038 548.223 432.412 547.987 434.421 549.287C436.549 550.586 436.313 552.241 434.894 553.777C433.239 555.549 429.929 556.14 430.284 559.33C430.875 565.592 427.092 565.946 422.6 565.119C420.473 564.765 417.99 563.583 416.572 565.828C414.798 568.309 416.099 570.672 417.99 572.681C419.054 573.744 419.881 574.926 419.172 576.58C416.572 578.825 413.971 577.761 411.134 576.58C407.233 575.044 405.46 576.462 406.642 580.715C407.351 583.196 408.179 585.559 409.124 587.922C410.306 590.64 410.306 593.003 407.469 594.539C404.987 595.839 403.332 594.066 401.914 592.294C401.204 591.467 400.85 590.404 400.377 589.458C399.077 587.213 397.894 584.614 394.939 584.496C391.156 584.496 392.102 587.922 391.393 590.167C390.447 593.239 388.319 594.066 385.482 592.885C383.827 592.176 382.291 590.876 380.045 591.467C374.134 606 375.553 621.123 377.326 636.246C378.272 643.926 379.336 651.488 380.281 659.168C380.518 661.294 380.518 663.657 380.163 665.784C379.69 668.502 378.153 670.747 375.198 670.747C372.361 670.747 370.706 668.502 369.879 665.902C369.524 664.839 369.288 663.657 369.406 662.594C371.415 644.044 366.096 626.085 365.741 607.772C365.623 604.345 366.214 600.092 360.658 599.619C360.067 599.619 359.358 598.91 358.885 598.438C356.285 596.075 356.166 590.404 351.674 591.112C347.182 591.821 348.837 597.138 347.301 600.328C346.473 601.982 345.882 603.873 343.518 603.4C341.745 603.164 341.508 601.51 341.035 600.092C339.617 596.429 340.208 592.058 337.607 588.277C334.416 593.475 334.061 598.91 334.061 604.464C334.179 618.405 334.416 632.347 334.652 646.407C334.652 647.471 334.77 648.652 334.77 649.716C334.652 656.096 332.524 659.168 328.151 659.286C324.013 659.404 322.122 656.45 322.949 649.125C324.841 633.293 323.777 617.578 323.068 601.746C322.949 598.438 323.304 594.775 317.63 597.02C313.847 598.556 312.429 595.484 313.138 591.939C313.374 590.522 314.084 589.104 314.32 587.686C314.793 585.441 317.866 582.96 314.556 580.951C311.247 579.061 307.582 578.47 304.863 582.369C304.39 582.96 304.036 583.551 303.681 584.26C302.972 585.677 301.79 586.623 300.135 586.032C298.48 585.441 298.362 583.787 298.362 582.369C298.362 579.415 299.189 576.343 298.598 573.626C297.889 570.672 295.288 568.9 292.215 568.191C290.915 568.664 290.205 568.191 289.614 567.718ZM432.766 507.107C431.111 503.208 427.92 504.744 425.792 503.562C424.137 502.617 421.655 501.081 422.719 499.781C425.792 495.646 423.31 489.266 426.856 486.548C434.185 480.877 429.22 468.471 439.504 464.808C439.741 464.69 439.623 463.391 439.386 462.682C437.613 457.837 444.351 452.402 438.086 447.558C436.549 446.377 437.968 443.305 439.859 441.887C442.223 440.115 442.814 437.515 442.696 435.034C442.105 425.937 444.351 417.075 443.523 407.859C441.987 391.436 439.741 375.131 436.667 358.826C434.185 345.948 429.575 334.369 422.127 323.499C418.345 317.946 412.434 314.165 409.715 308.257C404.632 297.269 394.939 294.67 384.419 293.607C374.134 292.661 363.968 294.197 353.802 296.324C347.892 297.624 342.454 299.751 338.08 303.768C330.869 310.502 323.659 317.355 317.512 324.917C296.234 350.792 285.95 381.748 276.848 413.294C271.292 432.789 269.519 452.875 267.154 472.843C264.435 496.473 267.391 518.804 281.458 538.889C291.151 552.595 302.026 564.647 318.812 569.609C324.486 571.263 329.806 573.626 335.48 575.162C347.064 578.352 358.531 582.842 370.352 580.361C372.834 577.407 369.997 575.871 369.642 573.862C369.288 571.617 369.642 569.845 371.534 568.073C377.444 562.638 387.728 564.528 391.748 555.785C391.984 555.194 394.466 555.431 395.885 555.549C398.84 555.785 401.677 555.549 404.632 556.612C408.652 558.03 409.361 555.431 409.952 552.004C407.942 551.768 406.524 551.768 405.105 551.532C403.332 551.295 401.441 551.177 399.786 550.468C395.885 548.696 395.294 545.624 398.486 542.907C404.987 537.472 410.779 530.383 422.009 534.518C417.754 527.547 415.035 522.585 416.808 515.023C419.054 504.744 427.329 510.297 432.766 507.107ZM206.631 462.918C203.321 463.509 198.474 470.125 198.593 473.906C198.711 478.514 203.203 482.886 208.049 483.004C210.65 483.122 212.423 481.94 212.068 479.105C211.477 474.379 210.65 469.771 209.704 465.045C209.468 463.745 208.404 462.563 206.631 462.918ZM460.191 478.041C453.098 480.523 450.143 485.13 450.852 492.574C461.846 490.093 462.555 489.148 460.191 478.041ZM456.645 462.091C455.108 461.973 454.872 463.154 454.753 464.099C454.399 465.872 454.044 467.88 456.763 468.117C457.827 468.235 459.009 467.88 459.127 466.462C459.127 464.454 458.418 462.918 456.645 462.091ZM439.622 486.548C439.977 485.012 439.859 483.594 438.204 483.122C437.14 482.886 435.84 483.476 435.84 484.776C435.84 485.721 436.549 486.785 437.258 487.375C438.204 488.321 439.031 487.73 439.622 486.548Z" fill="#111111"/>
<path d="M121.756 609.426C125.657 608.953 127.785 606.708 130.385 605.409C133.695 603.755 136.769 603.991 139.606 606.354C142.088 608.481 142.561 611.316 141.97 614.388C141.497 617.578 138.66 620.296 140.079 624.313C144.689 622.304 145.516 618.051 146.817 614.152C149.417 606.354 147.762 598.083 149.417 590.049C150.127 586.859 146.935 584.85 145.753 582.251C140.906 571.263 147.29 554.958 158.165 550.586C167.74 546.806 177.906 552.831 179.443 563.583C180.034 567.955 179.206 572.563 180.152 576.698C181.452 582.842 178.97 585.441 173.532 587.213C160.411 591.231 159.702 592.412 160.411 607.772C162.184 609.78 163.602 607.417 165.139 607.299C170.931 606.827 172.586 608.363 171.404 614.152C169.513 622.777 168.685 631.52 165.139 639.673C163.957 642.272 162.302 644.871 164.903 647.589C167.74 647.589 169.04 645.462 169.631 643.572C171.404 636.955 177.551 636.364 182.28 634.474C186.181 632.82 188.427 635.892 189.018 639.555C190.436 648.18 190.554 656.805 185.944 664.603C180.861 664.012 181.689 658.341 178.024 657.041C161.829 666.966 154.737 666.611 150.008 655.387C147.053 656.096 145.162 658.577 142.916 660.231C140.552 662.003 138.542 663.894 135.114 661.767C130.385 658.813 126.248 661.531 123.766 665.075C119.747 670.865 115.609 669.683 110.408 667.202C100.006 662.24 88.7756 660.467 77.3092 660.231C67.3796 659.995 57.5682 659.522 47.6386 660.822C43.2648 661.413 39.0092 660.94 35.3447 657.514C32.9805 655.269 28.725 652.197 26.5972 654.205C18.2043 662.24 11.3481 651.724 3.66449 653.26C1.4185 653.615 -1.42543e-05 651.133 -0.236434 648.77C-0.472854 645.935 0.236406 643.572 3.19165 642.627C8.5111 640.854 13.8305 640.382 19.5046 641.327C29.7889 642.981 29.7889 642.863 32.8623 633.293C33.5716 631.048 34.5173 629.157 37.1179 629.039C39.4821 628.921 41.4917 629.748 42.5555 631.993C43.0284 632.938 43.7376 634.001 43.8558 635.065C44.2105 640.027 47.5204 641.799 51.4213 640.263C55.204 638.846 56.5043 634.356 55.204 630.929C51.7759 622.068 45.8654 614.388 40.3096 606.708C38.5364 604.227 34.7537 605.409 31.9167 605.172C22.3417 604.7 19.741 601.864 20.0957 592.294C20.3321 587.213 21.2778 582.015 21.396 576.934C21.7506 567.246 27.7793 561.456 35.1083 556.967C47.9932 549.05 65.0154 557.676 66.6704 572.681C67.2614 577.761 67.025 582.96 67.4978 587.922C68.2071 594.775 65.4883 600.092 60.4052 604.227C56.8589 607.063 56.2679 609.662 59.3413 613.443C63.5969 618.524 67.1432 624.077 71.2805 629.275C73.0537 631.402 74.8268 634.001 78.846 634.828C77.7821 629.63 76.9546 624.786 74.1176 620.532C72.108 617.46 70.6895 614.152 70.4531 610.253C70.0984 603.518 74.1176 598.201 80.0281 597.965C86.2932 597.611 92.9129 604.582 92.3219 610.844C92.2037 612.262 91.7308 613.798 91.0216 614.979C86.5296 623.131 90.3123 629.157 96.341 634.12C99.4145 636.719 102.488 639.2 104.97 642.508C106.271 644.162 107.807 646.289 110.29 645.226C112.418 644.281 111.827 642.036 111.708 640.382C111.117 627.858 107.926 615.806 104.498 603.873C103.197 599.501 100.124 597.138 95.6318 597.02C77.3092 596.547 65.2518 567.246 78.0185 550.114C83.3379 543.025 93.0312 541.371 101.897 540.78C112.772 539.953 121.756 545.151 130.031 551.532C134.877 555.194 136.178 560.629 134.405 566.419C131.922 574.571 128.021 582.251 120.692 586.859C116.673 589.34 116.082 591.585 116.91 595.602C118.446 599.856 119.037 604.582 121.756 609.426ZM34.1626 593.475C41.7281 591.467 48.1114 589.34 56.2679 589.104C46.6929 584.378 40.7824 585.559 34.1626 593.475ZM97.6413 581.66C100.597 573.153 111.59 581.542 115.018 573.39C103.552 572.917 101.424 573.862 97.6413 581.66Z" fill="#111111"/>
<path d="M666.704 358.472C645.071 359.772 629.231 349.965 613.982 338.859C605.353 332.597 597.433 325.626 594.123 314.638C592.941 310.621 591.64 306.84 592.35 302.823C598.26 270.213 608.072 247.409 646.372 235.122C649.209 234.176 652.164 233.349 655.001 234.295C661.739 236.539 668.595 236.658 675.688 236.067C677.461 235.949 680.061 236.067 680.889 237.248C685.972 243.629 693.656 244.101 700.275 246.701C719.189 254.144 731.955 268.086 734.792 287.699C737.748 307.549 732.546 326.098 715.288 339.804C700.393 351.501 684.908 360.244 666.704 358.472ZM614.1 320.782L613.746 320.427C615.873 323.854 618.829 326.453 622.139 328.343C624.503 328.225 624.385 326.453 624.976 325.271C626.749 322.199 629.704 321.018 632.186 323.263C635.378 326.098 632.777 328.343 630.059 330.116C629.113 330.824 627.222 331.297 628.167 333.187C650.864 350.083 681.48 354.218 707.722 330.824C722.617 317.591 727.345 294.316 717.888 277.065C715.524 272.812 712.451 268.44 708.55 266.432C689.518 256.862 670.605 246.464 647.79 250.245C633.841 252.608 624.03 260.642 615.755 271.158C614.455 272.694 613.273 274.348 615.755 276.711C619.774 280.492 619.065 283.918 613.155 284.745C610.672 285.1 609.254 286.045 608.072 288.172C602.161 299.514 604.289 311.684 614.1 320.782Z" fill="#111111"/>
<path d="M454.399 652.906C456.645 651.488 458.891 652.197 460.191 654.087C464.092 659.877 469.648 659.404 474.849 657.277C482.533 654.323 488.325 658.813 494.59 661.176C497.545 662.24 497.427 665.075 494.59 667.084C492.344 668.62 489.744 669.447 487.261 668.62C477.804 665.784 469.648 668.147 461.846 673.582C458.891 675.709 456.408 674.527 454.044 672.401C447.543 666.611 445.415 666.493 438.795 671.574C433.121 675.945 431.466 676.182 429.22 670.51C427.21 665.43 424.728 667.32 421.655 667.675C418.227 668.147 415.035 673.11 411.725 669.92C408.06 666.375 412.434 662.594 413.38 658.931C416.217 648.652 418.936 638.491 421.3 628.094C422.364 623.368 424.255 618.996 426.501 614.861C427.92 612.38 430.166 611.198 433.003 612.38C435.722 613.561 436.904 615.452 435.722 618.524C433.594 624.786 431.821 631.048 429.693 637.31C428.274 641.563 428.984 644.162 433.948 642.863C440.214 641.209 443.405 644.99 446.597 649.243C449.789 653.378 449.789 653.378 454.399 652.906Z" fill="#111111"/>
<path d="M95.0407 109.408C94.6861 120.987 89.2485 127.249 80.0281 127.013C70.8077 126.658 63.7151 120.987 63.9515 113.898C64.3062 103.973 69.9803 95.4665 76.009 95.8209C88.8938 96.5298 95.2772 101.138 95.0407 109.408Z" fill="#111111"/>
<path d="M758.553 448.031C755.834 446.849 752.051 446.731 751.224 442.714C750.514 439.169 755.243 435.034 760.208 434.916C763.399 434.798 766 435.743 766.118 439.76C766.118 443.423 762.335 447.795 758.553 448.031Z" fill="#111111"/>
<path d="M734.911 98.4203C735.265 101.729 730.892 105.864 726.991 106.1C723.799 106.336 722.381 104.564 722.026 101.61C721.317 96.648 723.681 93.1034 727.818 92.9853C731.601 92.8671 733.729 95.112 734.911 98.4203Z" fill="#111111"/>
<path d="M553.932 440.469C553.695 444.25 552.513 447.086 550.503 449.094C548.494 451.221 545.657 452.639 542.583 450.866C540.692 449.685 538.801 448.031 539.51 445.55C540.219 442.714 541.638 439.878 544.948 439.288C547.903 438.933 550.858 438.579 553.932 440.469Z" fill="#111111"/>
<path d="M289.614 567.718C290.205 568.191 290.796 568.664 291.506 569.136C290.323 573.39 289.614 577.879 285.595 580.597C283.704 581.897 281.576 582.724 279.566 580.951C277.557 579.179 278.03 576.698 279.448 575.044C282.167 571.736 284.177 567.246 289.614 567.718Z" fill="#111111"/>
<path d="M296.234 485.13C296.234 476.742 299.189 472.843 305.336 473.079C310.774 473.315 315.62 478.159 315.739 483.831C316.093 492.456 311.719 497.891 304.39 498.245C299.307 498.363 296.234 493.519 296.234 485.13Z" fill="#111111"/>
<path d="M331.697 494.228C331.697 487.139 335.834 481.822 341.272 481.94C346.591 482.058 351.202 487.966 351.083 494.464C350.965 499.899 345.646 505.571 340.799 505.452C335.007 505.452 331.697 501.317 331.697 494.228Z" fill="#111111"/>
<path d="M636.206 271.394C635.26 274.23 634.196 277.302 635.142 280.728C637.979 291.362 632.778 293.134 624.621 294.434C621.193 294.906 618.474 294.552 617.292 298.687C616.583 300.932 614.1 301.405 611.736 300.696C610.081 300.223 609.372 298.805 609.136 297.388C608.663 294.788 610.672 292.898 612.682 292.543C618.474 291.716 620.365 285.572 625.803 283.564C628.64 282.5 629.349 275.53 629.586 270.685C629.704 268.677 631.004 267.259 633.25 267.377C635.142 267.613 636.206 268.913 636.206 271.394Z" fill="#111111"/>
<path d="M625.33 312.038C624.857 310.621 624.385 309.321 623.912 307.903C622.73 304.595 622.257 301.523 626.039 299.514C628.049 298.451 629.94 299.514 630.65 301.05C632.186 304.477 635.378 307.903 631.832 311.92C629.468 314.638 627.34 312.629 625.094 311.684L625.33 312.038Z" fill="#111111"/>
<path d="M651.809 329.643C654.646 330.116 657.483 331.179 657.72 334.605C657.956 338.504 655.237 340.395 651.573 340.513C648.145 340.513 645.899 338.268 646.017 335.196C646.017 332.124 648.381 330.116 651.809 329.643Z" fill="#111111"/>
<path d="M625.094 311.802C624.03 318.3 619.893 320.782 613.746 320.427L614.1 320.782C613.627 310.03 615.401 308.612 625.33 312.038C625.33 312.038 625.094 311.802 625.094 311.802Z" fill="#111111"/>
<path d="M648.736 297.86C647.79 300.223 646.608 302.704 643.416 301.995C640.816 301.405 638.452 299.632 638.924 296.679C639.397 293.607 642.353 293.252 644.953 293.607C647.436 293.843 649.209 294.906 648.736 297.86Z" fill="#111111"/>
<path d="M660.557 257.216C660.202 260.642 657.72 262.178 654.883 263.005C651.809 263.832 651.336 261.469 651.218 259.106C651.1 256.271 652.046 253.671 654.883 253.199C657.483 252.726 659.729 254.026 660.557 257.216Z" fill="#111111"/>
<path d="M677.934 317.71C675.215 316.764 672.26 315.701 671.905 312.393C671.669 310.03 673.205 307.785 675.806 308.258C678.998 308.848 680.653 311.448 680.534 314.756C680.416 315.937 679.825 317.473 677.934 317.71Z" fill="#111111"/>
<path d="M687.272 283.918C684.672 283.091 681.598 282.028 681.48 278.956C681.48 276.711 684.199 275.53 686.208 275.293C689.164 274.939 691.055 276.593 691.055 279.547C691.173 281.91 689.873 283.446 687.272 283.918Z" fill="#111111"/>
<path d="M652.046 279.31C651.928 282.028 651.573 284.391 648.736 284.627C644.835 284.982 643.771 281.792 643.416 278.838C643.18 276.357 644.835 274.702 647.436 274.584C650.864 274.466 651.573 277.065 652.046 279.31Z" fill="#111111"/>
<path d="M640.107 265.723C637.388 265.368 635.024 264.305 635.378 261.115C635.733 258.398 637.388 256.271 640.461 256.625C643.535 256.98 644.48 259.461 644.48 262.178C644.599 264.896 642.589 265.605 640.107 265.723Z" fill="#111111"/>
<path d="M705.595 294.552C708.077 295.497 710.796 296.797 710.441 299.632C710.087 303.059 706.422 303.413 703.703 304.004C702.285 304.24 701.221 302.586 701.221 301.05C701.221 297.978 702.167 295.379 705.595 294.552Z" fill="#111111"/>
<path d="M643.062 312.275C645.19 312.275 646.845 313.338 647.081 315.228C647.436 318.064 645.781 319.955 642.825 320.309C640.343 320.545 638.57 319.482 638.333 316.883C638.215 313.692 640.698 312.984 643.062 312.275Z" fill="#111111"/>
</g>
<defs>
<clipPath id="clip0">
<rect width="766" height="675" fill="white"/>
</clipPath>
</defs>
</svg>
