<svg width="250" height="250" viewBox="0 0 250 250" fill="none" xmlns="http://www.w3.org/2000/svg">
<path d="M156.781 180.298C155.934 178.789 155.381 177.538 154.608 176.471C151.772 172.68 151.735 168.19 152.177 163.958C152.656 158.842 153.171 153.69 153.319 148.574C153.392 146.366 153.761 144.269 154.608 142.208C155.271 140.625 156.044 135.546 156.228 134.479C156.67 131.572 156.928 128.775 154.018 126.824C153.024 126.162 152.545 125.131 152.214 123.99C151.146 120.347 150.114 116.703 150.372 112.876C150.446 111.845 150.446 110.557 151.035 109.895C153.024 107.576 153.503 102.019 153.466 98.8542C153.466 97.4189 154.866 97.2349 156.044 98.1181C159.175 100.4 162.821 103.823 166.504 103.16C169.819 102.571 172.361 100.142 174.534 97.9709C175.123 97.3821 175.639 96.7196 176.523 97.1245C177.296 97.4557 177.296 98.2653 177.222 98.9278C177.001 101.062 176.891 101.21 176.78 102.461C176.67 103.712 176.964 107.135 177.443 107.944C179.359 110.962 179.653 114.458 179.948 117.844C180.316 121.782 177.664 124.69 175.639 127.707C175.27 128.259 174.349 128.223 173.723 127.891C173.134 127.597 173.171 126.971 173.171 126.382C173.208 125.352 173.907 124.69 174.534 124.064C177.885 120.825 177.738 116.924 176.707 112.876C176.596 112.434 176.338 112.029 176.191 111.625C174.828 108.128 174.349 105.589 174.46 102.203C171.513 103.086 169.856 105.626 165.952 105.626C163.189 105.626 159.212 104.007 156.155 101.394C156.376 103.896 156.081 108.496 154.35 109.711C153.134 110.557 152.913 111.993 152.913 113.428C152.95 116.814 153.945 119.979 154.829 123.181C155.234 124.653 156.486 125.72 157.702 126.53C159.175 127.523 159.433 128.775 159.322 130.357C158.991 134.7 157.996 138.932 156.891 143.128C156.376 145.005 155.823 146.918 155.897 148.869C156.007 153.028 155.16 157.076 154.645 161.161C154.018 166.313 153.982 171.502 157.149 176.066C159.469 179.378 162.342 181.513 166.688 180.777C167.462 180.63 168.272 180.666 169.083 180.63C170.372 180.593 171.992 180.372 172.582 179.489C173.834 177.575 175.344 176.802 177.48 176.802C177.959 176.802 178.143 176.176 177.996 175.698C177.885 175.404 177.627 175.109 177.222 175.22C175.307 175.808 173.355 175.109 171.44 175.367C170.85 175.44 170.261 175.44 169.819 175.072C169.561 174.851 169.304 174.557 169.23 174.263C169.119 173.747 169.488 173.49 169.966 173.306C171.734 172.643 173.613 173.048 175.418 172.643C176.523 172.386 178.438 172.975 178.033 170.95C177.738 169.368 176.117 170.141 175.086 170.288C173.723 170.509 172.582 170.435 171.698 169.294C171.403 168.926 171.219 168.485 171.366 168.043C171.513 167.528 171.955 167.454 172.434 167.454C173.355 167.454 174.276 167.528 175.197 167.417C177.37 167.197 177.664 166.681 177.406 164.547C177.259 163.295 176.707 162.67 175.454 162.67C174.534 162.67 173.613 162.67 172.692 162.633C171.882 162.596 171.366 162.191 171.44 161.345C171.477 160.609 171.845 159.983 172.655 159.91C173.465 159.799 174.276 159.836 175.049 159.762C176.338 159.652 176.817 158.953 176.707 157.701C176.596 156.561 176.265 155.677 174.902 155.677C173.981 155.677 173.06 155.677 172.14 155.677C171.292 155.677 170.556 155.42 170.04 154.72C169.377 153.837 169.745 152.844 170.85 152.77C172.434 152.623 174.055 153.101 175.712 152.439C175.97 150.562 174.902 148.942 175.123 146.992C173.613 147.139 172.508 147.286 171.366 147.397C170.482 147.47 169.782 147.139 169.414 146.293C169.119 145.593 169.083 144.894 170.003 144.71C170.666 144.563 171.366 144.563 172.066 144.453C174.46 144.048 174.718 143.753 174.497 141.288C174.276 139.006 174.055 138.822 171.734 139.484C171.513 139.558 171.329 139.705 171.108 139.742C170.151 139.926 168.898 140.551 168.493 139.153C168.088 137.754 169.267 137.497 170.335 137.313C170.666 137.239 171.035 137.166 171.292 136.982C171.992 136.503 173.171 136.356 173.097 135.178C173.024 134.111 172.25 133.669 171.256 133.449C170.703 133.338 170.151 133.154 169.635 132.86C169.23 132.639 168.862 132.013 169.193 131.719C170.335 130.688 169.709 129.474 169.709 128.296C169.709 127.671 170.114 127.155 170.703 127.045C171.145 126.971 171.513 127.303 171.771 127.744C174.276 131.608 176.302 135.657 176.854 140.367C177.775 148.427 178.917 156.487 179.911 164.547C180.39 168.411 180.684 172.275 181.053 175.992C181.826 176.434 182.379 176.287 182.931 176.176C187.867 174.888 192.176 176.544 196.375 178.973C197.369 179.562 198.437 180.188 198.953 181.182C200.058 183.279 201.826 183.169 203.704 182.874C207.314 182.286 210.923 181.55 214.57 181.108C218.069 180.703 221.641 180.887 225.14 180.041C225.656 179.893 226.282 180.004 226.834 180.114C229.634 180.703 232.396 181.439 235.269 181.623C235.932 181.66 236.632 181.77 237 182.433C236.853 183.427 236.079 183.39 235.416 183.39C234.716 183.39 234.017 183.353 233.354 183.206C224.072 181.402 214.901 182.617 205.804 184.604C204.404 184.899 202.452 184.163 201.678 185.561C201.126 186.628 201.642 188.248 201.642 189.609C201.642 195.019 201.61 199.961 200.652 205.26C199.179 213.283 200.001 219.844 204.973 226.395C209.724 232.725 222.425 242.677 222.341 243.378C222.257 244.078 219.542 244.408 217.958 243.157C209.781 236.68 202.305 229.614 198.548 219.53C197.811 217.616 197.517 215.592 197.443 213.494C197.332 208.084 198.585 202.821 199.1 197.448C199.395 194.467 198.99 191.42 198.953 188.439C198.916 185.973 198.4 185.193 195.896 185.451C189.266 186.076 182.894 184.641 176.559 183.206C174.239 182.654 171.992 182.617 169.819 183.5C167.904 184.273 165.952 184.383 164.073 183.905C159.985 182.801 155.897 183.095 151.772 183.132C144.663 183.206 137.592 183.684 130.483 183.242C123.338 182.801 116.266 183.684 109.194 184.199C107.463 184.31 105.769 184.347 104.075 183.979C103.485 183.831 102.933 183.5 103.007 182.838C103.08 182.028 103.817 181.586 104.517 181.807C108.163 182.948 111.883 182.286 115.456 181.807C124.737 180.593 134.019 181.55 143.3 181.034C147.536 180.63 151.919 180.225 156.781 180.298ZM196.964 182.801C194.054 180.261 191.181 179.194 188.272 178.311C186.688 177.833 184.073 177.575 183.373 178.642C182.047 180.63 180.279 179.967 178.659 180.593C184.404 182.396 190.15 183.868 196.964 182.801Z" fill="#111111"/>
<path d="M105.863 101.736C105.607 96.4033 103.604 91.4117 102.709 86.1641V86.0361C99.7254 79.2953 95.6765 73.1945 90.7752 67.7762C88.3032 65.0885 88.0901 62.9126 89.9228 60.1395C90.2211 59.7129 90.3916 59.1583 90.7325 58.7743C91.6276 57.7504 92.2669 56.5985 90.9456 55.7026C89.5392 54.7213 88.9851 56.3425 88.1753 57.1104C88.0048 57.2811 87.9196 57.6224 87.7491 57.7931C86.4705 59.1583 87.1524 62.0594 85.1919 62.4007C83.5723 62.6993 81.697 61.4194 79.9496 60.8221L79.1824 60.5662L79.07 60.5318C76.1106 59.6271 75.988 59.5896 76.1564 56.5558C76.54 49.7724 77.0514 43.0316 77.5202 36.2481C77.6055 35.0536 78.7988 33.1764 76.7531 33.0057C75.0483 32.8777 75.4318 34.9256 75.2614 36.1628C75.1335 36.9307 75.1335 37.7413 75.1335 38.5519C75.0909 42.6903 74.6221 46.7859 74.1532 50.8816C73.8549 53.3987 74.7499 56.6411 73.4713 58.2197C72.0222 59.9689 68.4421 58.561 66.0127 59.5422C63.8391 60.3955 63.1146 59.5422 62.8162 57.6224C62.3048 54.5933 61.7933 51.6069 61.2819 48.5778C61.1114 47.5539 60.9409 46.4446 60.2164 45.634C60.0033 45.3354 59.5344 45.1221 59.1935 45.1647C58.682 45.2074 58.2984 45.5914 58.0853 46.146C57.8296 46.8713 58.2558 47.4259 58.4263 48.0658C59.5344 51.6496 59.8754 55.3613 60.1737 59.073C60.259 60.0115 60.5573 61.0781 59.5771 61.6327C58.0853 62.486 56.4658 63.2966 54.7183 63.2113C53.0135 63.126 52.9709 61.3341 52.5873 60.1822C49.8596 52.4175 46.6631 44.8234 43.2108 37.3574C42.9977 36.8454 42.8699 36.3335 42.6142 35.8642C42.3158 35.2242 41.8044 34.7976 41.0372 35.0109C40.405 35.1797 40.3563 35.7656 40.3141 36.2737L40.3127 36.2908C40.0996 37.9547 40.5258 39.5332 41.4634 40.8558C44.4042 45.0368 46.2369 49.7297 47.9417 54.4653C49.2629 58.0917 50.4989 61.7607 51.8628 65.3444C52.4595 66.923 53.3971 67.5629 55.2724 66.7097C57.6591 65.6004 60.3868 65.1311 62.731 63.9792C69.9764 60.3955 76.7104 62.6567 83.274 65.8564C85.0214 66.667 86.8967 67.6056 88.0901 69.3121C90.9883 73.4078 94.5684 76.9488 96.8273 81.5991C100.237 88.5532 102.325 95.678 102.197 103.4C102.112 109.16 101.558 114.876 97.637 119.527C93.9717 123.921 88.9851 126.438 83.8707 128.699C79.6513 130.577 75.1761 131.131 70.6157 130.704C68.2716 130.491 65.9701 129.723 63.626 129.297C56.892 128.102 52.4168 124.134 50.0301 117.863C48.4958 113.767 48.1548 109.33 47.5155 104.979C46.3221 97.2565 48.8793 90.7291 53.8659 85.2255C57.2756 81.5138 61.495 78.6554 66.8225 78.0581C70.1469 77.6741 73.4713 77.6314 76.7531 78.1007C82.1232 78.8687 85.9591 82.1964 88.3884 86.8467C92.0112 93.8435 91.1161 101.566 91.2014 109.074C91.244 110.61 90.4342 112.103 89.5818 113.511C85.1493 120.892 78.2022 122.598 69.9338 121.831C65.6718 121.447 62.0064 119.783 60.7704 114.962C60.4295 113.725 59.6623 112.573 59.0656 111.378C57.5313 108.306 57.2756 104.979 57.787 101.651C58.5542 96.7019 62.731 92.4356 67.6323 91.4117C68.6978 91.1984 69.806 91.113 70.7436 90.6864C73.2582 89.5772 74.9204 90.8571 76.199 92.6489C77.1366 93.9288 77.8612 95.422 78.33 96.9152C80.1201 102.589 77.0088 108.392 71.7665 109.245C69.4224 109.672 67.7602 108.52 67.4192 106.344C67.0782 103.955 67.8454 102.888 70.4026 102.376C71.2124 102.205 71.9796 102.077 72.5763 101.48C73.1303 100.968 73.2582 100.371 72.7894 99.731C71.6812 98.2378 69.2519 97.7685 67.8454 98.9631C66.8225 99.8163 65.8849 100.84 65.2029 101.949C62.9014 105.704 65.5865 111.719 69.7633 112.445C74.9204 113.383 81.5265 108.05 81.8675 102.803C82.1232 98.6644 80.6741 95.038 78.8841 91.4117C77.435 88.4252 75.0483 87.444 72.1074 87.4867C59.7475 87.7 54.0364 98.9204 55.1445 106.856C55.8265 111.677 58.4689 115.516 60.1737 119.783C60.9409 121.703 62.39 122.556 64.1801 123.366C69.8059 125.969 75.4318 125.414 81.2708 124.092C87.1951 122.769 90.349 118.46 93.4603 113.938C94.1422 112.957 94.3979 111.762 94.3979 110.525C94.4831 104.253 94.4405 97.9818 93.2898 91.8383C92.6078 88.3399 91.585 84.9695 89.1982 82.0258C82.5068 73.8771 69.2519 72.8958 60.5999 76.9915L60.5999 76.9915C59.2787 77.6315 57.9575 78.2714 56.8494 79.21C55.1445 80.6605 54.079 80.1912 53.0135 78.5274C52.6726 77.9728 52.1185 77.5461 51.6923 77.0342C45.7681 69.7388 39.034 63.4246 30.9788 58.561C28.4216 57.0251 25.6512 55.4466 24.4579 52.3322C24.33 51.9909 23.9891 51.6495 23.6481 51.4789C22.6678 50.9669 21.6023 49.7297 20.5368 51.0949C19.6844 52.1615 20.4942 53.0148 21.3466 53.7827C23.6055 55.8305 25.6512 58.0917 28.2511 59.7556C36.8178 65.2591 44.1485 72.1279 50.5415 79.9779C51.9054 81.6418 52.2037 82.751 50.6694 84.6709C46.109 90.2598 44.4468 96.7872 44.8304 104.04C45.214 111.293 45.0009 111.335 37.6702 112.274C37.1587 112.317 36.6047 112.274 36.0932 112.359C30.0838 113.298 24.0317 114.236 18.0222 115.218C17.255 115.346 16.4452 115.516 15.7207 115.772C15.2093 115.943 14.8257 116.37 15.0814 117.01C15.2519 117.394 15.5928 117.607 16.019 117.564L19.2156 117.308C24.8841 116.754 30.5952 116.37 36.2211 115.516C39.375 115.047 42.6994 115.303 45.6402 113.981C46.7057 116.54 47.686 119.143 48.8367 121.66C49.476 123.11 49.2629 124.177 48.0696 125.201C46.9614 126.14 46.0664 127.291 45.0435 128.358C44.4894 128.913 43.8928 129.467 43.8928 130.363C43.8928 131.003 43.8928 131.728 44.4894 132.155C45.1714 132.624 45.8107 132.24 46.2795 131.771C47.345 130.619 48.3253 129.297 49.4334 128.187C51.4366 126.182 51.8202 126.14 54.0364 127.931C56.4232 129.851 58.7673 131.899 61.9638 132.24C63.967 132.454 64.1374 133.435 63.9243 135.227C63.1572 142.138 63.4555 149.05 63.6686 155.961C63.7112 157.454 63.6686 159.033 64.7767 160.27C66.0554 159.587 65.6718 158.734 65.6292 158.009C65.1177 151.098 65.5865 144.186 66.6947 137.36C67.2426 133.774 67.2903 133.776 71.0838 133.941L71.2124 133.947C71.596 133.947 72.0222 133.904 72.4058 133.904C77.7333 134.075 82.7199 132.667 87.4934 130.662C89.4966 129.851 90.4768 130.406 91.4571 131.899C92.48 133.435 93.4603 135.013 94.5258 136.549C100.28 144.698 104.968 153.487 109.528 162.318C109.912 163.001 109.997 164.067 111.02 163.726C111.915 163.427 111.872 162.446 111.617 161.678C111.446 161.081 111.062 160.483 110.807 159.886C107.184 151.737 102.411 144.186 97.7649 136.635C96.0601 133.819 94.1848 131.131 92.3521 128.358C95.6765 125.969 98.873 123.836 101.047 120.551C101.856 119.356 102.709 119.569 103.774 120.124C106.374 121.489 108.974 122.812 110.849 125.201C111.446 125.969 112.128 127.249 113.321 126.14C114.387 125.116 113.364 124.134 112.682 123.409C111.574 122.3 110.167 121.447 109.102 120.252C107.568 118.545 104.499 118.503 103.86 116.284C103.178 113.981 105.053 111.719 105.181 109.33C105.309 107.282 106.502 106.258 108.463 105.96C116.177 104.808 123.891 103.357 131.691 102.76C133.753 102.722 137.74 102.13 137.189 100.072C135.1 99.4324 132.969 99.6883 130.881 100.072C123.55 101.395 116.177 102.12 108.804 103.144C107.482 103.357 105.991 103.869 105.863 101.736Z" fill="#F4BA25"/>
<path d="M117.37 54.0387C117.328 54.8919 116.901 55.3186 116.347 55.7452C109.997 60.4808 105.309 66.795 100.578 72.9812C100.066 73.6211 99.6828 74.3464 98.8304 74.4744C97.8928 74.645 97.1256 74.2184 97.5518 73.1945C97.978 72.1279 98.7026 71.104 99.4271 70.1654C101.388 67.6482 103.306 65.1311 105.437 62.742C108.164 59.7129 111.105 56.8545 113.961 53.9107C114.429 53.4414 114.984 53.0148 115.58 52.8014C116.731 52.3748 117.242 53.0574 117.37 54.0387Z" fill="#F4BA25"/>
<path d="M83.9986 152.719C83.9986 153.103 83.9133 153.828 83.1462 154.041C82.1233 154.34 81.6545 153.529 81.484 152.804C81.143 151.268 81.0152 149.69 80.8021 148.111C80.3759 144.698 79.907 141.328 79.4808 137.915C79.3956 137.189 79.1399 136.208 80.2054 135.952C81.3561 135.696 81.825 136.549 82.0807 137.531C82.1659 137.787 82.2085 138.043 82.2512 138.299C82.8478 143.034 83.4445 147.727 83.9986 152.719Z" fill="#F4BA25"/>
<path d="M31.2772 90.4304C35.113 92.2649 39.5029 92.3503 43.2961 94.3554C43.7649 94.6114 44.1485 95.038 43.978 95.6353C43.7649 96.4033 43.083 96.7446 42.4437 96.5739C38.48 95.55 34.5589 94.4408 30.5952 93.3315C29.8707 93.1182 29.4445 92.6489 29.5723 91.881C29.7428 90.9424 30.4248 90.6011 31.2772 90.4304Z" fill="#F4BA25"/>
<path d="M102.794 86.3348C102.538 85.0122 102.751 83.903 104.286 83.5617C107.013 83.007 109.741 82.4951 112.469 82.0684C113.407 81.9404 114.472 82.1538 114.6 83.3483C114.77 84.6709 113.662 84.6282 112.725 84.7989C109.4 85.4388 106.204 86.9747 102.666 86.2068C102.709 86.1641 102.794 86.3348 102.794 86.3348Z" fill="#F4BA25"/>
</svg>
