<svg width="766" height="675" viewBox="0 0 766 675" fill="none" xmlns="http://www.w3.org/2000/svg">
<g id="Sama playlist">
<rect width="1080" height="1080" transform="translate(-197 -202)" fill="#FEE011"/>
<g id="ilus_sama" clip-path="url(#clip0)">
<g id="Sky">
<path id="Star 01" d="M758.553 448.031C755.834 446.849 752.051 446.731 751.224 442.714C750.514 439.169 755.243 435.034 760.208 434.916C763.399 434.798 766 435.743 766.118 439.76C766.118 443.423 762.335 447.795 758.553 448.031Z" fill="#111111"/>
<path id="Star 02" d="M734.911 98.4203C735.265 101.729 730.892 105.864 726.991 106.1C723.799 106.336 722.381 104.564 722.026 101.61C721.317 96.648 723.681 93.1034 727.818 92.9853C731.601 92.8671 733.729 95.112 734.911 98.4203Z" fill="#111111"/>
<path id="Star 03" d="M553.932 440.469C553.695 444.25 552.513 447.086 550.503 449.094C548.494 451.221 545.657 452.639 542.583 450.866C540.692 449.685 538.801 448.031 539.51 445.55C540.219 442.714 541.638 439.878 544.948 439.288C547.903 438.933 550.858 438.579 553.932 440.469Z" fill="#111111"/>
<g id="Moon">
<path id="Vector" d="M666.704 358.472C645.071 359.772 629.231 349.965 613.982 338.859C605.353 332.597 597.433 325.626 594.123 314.638C592.941 310.621 591.64 306.84 592.35 302.822C598.26 270.213 608.072 247.409 646.372 235.122C649.209 234.176 652.164 233.349 655.001 234.295C661.739 236.539 668.595 236.658 675.688 236.067C677.461 235.949 680.061 236.067 680.889 237.248C685.972 243.629 693.656 244.101 700.275 246.701C719.189 254.144 731.955 268.086 734.792 287.699C737.748 307.549 732.546 326.098 715.288 339.804C700.393 351.501 684.908 360.244 666.704 358.472ZM614.1 320.782L613.746 320.427C615.873 323.854 618.829 326.453 622.139 328.343C624.503 328.225 624.385 326.453 624.976 325.271C626.749 322.199 629.704 321.018 632.186 323.263C635.378 326.098 632.777 328.343 630.059 330.116C629.113 330.824 627.222 331.297 628.167 333.187C650.864 350.083 681.48 354.218 707.722 330.824C722.617 317.591 727.345 294.316 717.888 277.065C715.524 272.812 712.451 268.44 708.55 266.432C689.518 256.862 670.605 246.464 647.79 250.245C633.841 252.608 624.03 260.642 615.755 271.158C614.455 272.694 613.273 274.348 615.755 276.711C619.774 280.492 619.065 283.918 613.155 284.745C610.672 285.1 609.254 286.045 608.072 288.172C602.161 299.514 604.289 311.684 614.1 320.782Z" fill="#111111"/>
<path id="Vector_2" d="M636.206 271.394C635.26 274.23 634.196 277.302 635.142 280.728C637.979 291.362 632.778 293.134 624.621 294.434C621.193 294.906 618.474 294.552 617.292 298.687C616.583 300.932 614.1 301.405 611.736 300.696C610.081 300.223 609.372 298.805 609.136 297.388C608.663 294.788 610.672 292.898 612.682 292.543C618.474 291.716 620.365 285.572 625.803 283.564C628.64 282.5 629.349 275.53 629.586 270.685C629.704 268.677 631.004 267.259 633.25 267.377C635.142 267.613 636.206 268.913 636.206 271.394Z" fill="#111111"/>
<path id="Vector_3" d="M625.33 312.038C624.857 310.621 624.385 309.321 623.912 307.903C622.73 304.595 622.257 301.523 626.039 299.514C628.049 298.451 629.94 299.514 630.65 301.05C632.186 304.477 635.378 307.903 631.832 311.92C629.468 314.638 627.34 312.629 625.094 311.684L625.33 312.038Z" fill="#111111"/>
<path id="Vector_4" d="M651.809 329.643C654.646 330.116 657.483 331.179 657.72 334.605C657.956 338.504 655.237 340.395 651.573 340.513C648.145 340.513 645.899 338.268 646.017 335.196C646.017 332.124 648.381 330.116 651.809 329.643Z" fill="#111111"/>
<path id="Vector_5" d="M625.094 311.802C624.03 318.3 619.893 320.782 613.746 320.427L614.1 320.782C613.627 310.03 615.401 308.612 625.33 312.038C625.33 312.038 625.094 311.802 625.094 311.802Z" fill="#111111"/>
<path id="Vector_6" d="M648.736 297.86C647.79 300.223 646.608 302.704 643.416 301.995C640.816 301.405 638.452 299.632 638.924 296.679C639.397 293.607 642.353 293.252 644.953 293.607C647.436 293.843 649.209 294.906 648.736 297.86Z" fill="#111111"/>
<path id="Vector_7" d="M660.557 257.216C660.202 260.642 657.72 262.178 654.883 263.005C651.809 263.832 651.336 261.469 651.218 259.106C651.1 256.271 652.046 253.671 654.883 253.199C657.483 252.726 659.729 254.026 660.557 257.216Z" fill="#111111"/>
<path id="Vector_8" d="M677.934 317.71C675.215 316.764 672.26 315.701 671.905 312.393C671.669 310.03 673.205 307.785 675.806 308.257C678.998 308.848 680.653 311.448 680.534 314.756C680.416 315.937 679.825 317.473 677.934 317.71Z" fill="#111111"/>
<path id="Vector_9" d="M687.272 283.918C684.672 283.091 681.598 282.028 681.48 278.956C681.48 276.711 684.199 275.529 686.208 275.293C689.164 274.939 691.055 276.593 691.055 279.547C691.173 281.91 689.873 283.446 687.272 283.918Z" fill="#111111"/>
<path id="Vector_10" d="M652.046 279.31C651.928 282.028 651.573 284.391 648.736 284.627C644.835 284.982 643.771 281.792 643.416 278.838C643.18 276.357 644.835 274.702 647.436 274.584C650.864 274.466 651.573 277.065 652.046 279.31Z" fill="#111111"/>
<path id="Vector_11" d="M640.107 265.723C637.388 265.368 635.024 264.305 635.378 261.115C635.733 258.398 637.388 256.271 640.461 256.625C643.535 256.98 644.48 259.461 644.48 262.178C644.599 264.896 642.589 265.605 640.107 265.723Z" fill="#111111"/>
<path id="Vector_12" d="M705.595 294.552C708.077 295.497 710.796 296.797 710.441 299.632C710.087 303.059 706.422 303.413 703.703 304.004C702.285 304.24 701.221 302.586 701.221 301.05C701.221 297.978 702.167 295.379 705.595 294.552Z" fill="#111111"/>
<path id="Vector_13" d="M643.062 312.275C645.19 312.275 646.845 313.338 647.081 315.228C647.436 318.064 645.781 319.954 642.825 320.309C640.343 320.545 638.57 319.482 638.333 316.883C638.215 313.692 640.698 312.984 643.062 312.275Z" fill="#111111"/>
</g>
</g>
<path id="Fungi" d="M121.756 609.426C125.657 608.953 127.785 606.708 130.385 605.409C133.695 603.755 136.769 603.991 139.606 606.354C142.088 608.481 142.561 611.316 141.97 614.388C141.497 617.578 138.66 620.296 140.079 624.313C144.689 622.304 145.516 618.051 146.817 614.152C149.417 606.354 147.762 598.083 149.417 590.049C150.127 586.859 146.935 584.85 145.753 582.251C140.906 571.263 147.29 554.958 158.165 550.586C167.74 546.806 177.906 552.831 179.443 563.583C180.034 567.955 179.206 572.563 180.152 576.698C181.452 582.842 178.97 585.441 173.532 587.213C160.411 591.231 159.702 592.412 160.411 607.772C162.184 609.78 163.602 607.417 165.139 607.299C170.931 606.827 172.586 608.363 171.404 614.152C169.513 622.777 168.685 631.52 165.139 639.673C163.957 642.272 162.302 644.871 164.903 647.589C167.74 647.589 169.04 645.462 169.631 643.572C171.404 636.955 177.551 636.364 182.28 634.474C186.181 632.82 188.427 635.892 189.018 639.555C190.436 648.18 190.554 656.805 185.944 664.603C180.861 664.012 181.689 658.341 178.024 657.041C161.829 666.966 154.737 666.611 150.008 655.387C147.053 656.096 145.162 658.577 142.916 660.231C140.552 662.003 138.542 663.894 135.114 661.767C130.385 658.813 126.248 661.531 123.766 665.075C119.747 670.865 115.609 669.683 110.408 667.202C100.006 662.24 88.7756 660.467 77.3092 660.231C67.3796 659.995 57.5682 659.522 47.6386 660.822C43.2648 661.413 39.0092 660.94 35.3447 657.514C32.9805 655.269 28.725 652.197 26.5972 654.205C18.2043 662.24 11.3481 651.724 3.66449 653.26C1.4185 653.615 -1.42543e-05 651.133 -0.236434 648.77C-0.472854 645.935 0.236406 643.572 3.19165 642.627C8.5111 640.854 13.8305 640.382 19.5046 641.327C29.7889 642.981 29.7889 642.863 32.8623 633.293C33.5716 631.048 34.5173 629.157 37.1179 629.039C39.4821 628.921 41.4917 629.748 42.5555 631.993C43.0284 632.938 43.7376 634.001 43.8558 635.065C44.2105 640.027 47.5204 641.799 51.4213 640.263C55.204 638.846 56.5043 634.356 55.204 630.929C51.7759 622.068 45.8654 614.388 40.3096 606.708C38.5364 604.227 34.7537 605.409 31.9167 605.172C22.3417 604.7 19.741 601.864 20.0957 592.294C20.3321 587.213 21.2778 582.015 21.396 576.934C21.7506 567.246 27.7793 561.456 35.1083 556.967C47.9932 549.05 65.0154 557.676 66.6704 572.681C67.2614 577.761 67.025 582.96 67.4978 587.922C68.2071 594.775 65.4883 600.092 60.4052 604.227C56.8589 607.063 56.2679 609.662 59.3413 613.443C63.5969 618.524 67.1432 624.077 71.2805 629.275C73.0537 631.402 74.8268 634.001 78.846 634.828C77.7821 629.63 76.9546 624.786 74.1176 620.532C72.108 617.46 70.6895 614.152 70.4531 610.253C70.0984 603.518 74.1176 598.201 80.0281 597.965C86.2932 597.611 92.9129 604.582 92.3219 610.844C92.2037 612.262 91.7308 613.798 91.0216 614.979C86.5296 623.131 90.3123 629.157 96.341 634.12C99.4145 636.719 102.488 639.2 104.97 642.508C106.271 644.162 107.807 646.289 110.29 645.226C112.418 644.281 111.827 642.036 111.708 640.382C111.117 627.858 107.926 615.806 104.498 603.873C103.197 599.501 100.124 597.138 95.6318 597.02C77.3092 596.547 65.2518 567.246 78.0185 550.114C83.3379 543.025 93.0312 541.371 101.897 540.78C112.772 539.953 121.756 545.151 130.031 551.532C134.877 555.194 136.178 560.629 134.405 566.419C131.922 574.571 128.021 582.251 120.692 586.859C116.673 589.34 116.082 591.585 116.91 595.602C118.446 599.856 119.037 604.582 121.756 609.426ZM34.1626 593.475C41.7281 591.467 48.1114 589.34 56.2679 589.104C46.6929 584.378 40.7824 585.559 34.1626 593.475ZM97.6413 581.66C100.597 573.153 111.59 581.542 115.018 573.39C103.552 572.917 101.424 573.862 97.6413 581.66Z" fill="#111111"/>
<path id="grass" d="M454.399 652.906C456.645 651.488 458.891 652.197 460.191 654.087C464.092 659.877 469.648 659.404 474.849 657.277C482.533 654.323 488.325 658.813 494.59 661.176C497.545 662.24 497.427 665.075 494.59 667.084C492.344 668.62 489.744 669.447 487.261 668.62C477.804 665.784 469.648 668.147 461.846 673.582C458.891 675.709 456.408 674.527 454.044 672.401C447.543 666.611 445.415 666.493 438.795 671.574C433.121 675.945 431.466 676.182 429.22 670.51C427.21 665.43 424.728 667.32 421.655 667.675C418.227 668.147 415.035 673.11 411.725 669.92C408.06 666.375 412.434 662.594 413.38 658.931C416.217 648.652 418.936 638.491 421.3 628.094C422.364 623.368 424.255 618.996 426.501 614.861C427.92 612.38 430.166 611.198 433.003 612.38C435.722 613.561 436.904 615.452 435.722 618.524C433.594 624.786 431.821 631.048 429.693 637.31C428.274 641.563 428.984 644.162 433.948 642.863C440.214 641.209 443.405 644.99 446.597 649.243C449.789 653.378 449.789 653.378 454.399 652.906Z" fill="#111111"/>
<path id="Power" d="M95.0407 109.408C94.6861 120.987 89.2485 127.249 80.0281 127.013C70.8077 126.658 63.7151 120.987 63.9515 113.898C64.3062 103.973 69.9803 95.4665 76.009 95.8209C88.8938 96.5298 95.2772 101.138 95.0407 109.408Z" fill="#111111"/>
<path id="Sama" fill-rule="evenodd" clip-rule="evenodd" d="M293.46 568.547C292.57 571.771 291.425 574.852 288.377 576.913C286.485 578.213 284.358 579.04 282.348 577.267C280.339 575.495 280.811 573.014 282.23 571.36C282.726 570.757 283.198 570.114 283.671 569.47C284.956 567.722 286.251 565.96 288.057 564.924C285.961 561.188 283.601 558.046 277.439 560.984C274.838 562.283 273.538 559.92 273.892 557.203C273.999 556.24 274.227 555.254 274.456 554.265C274.732 553.069 275.01 551.869 275.074 550.705C275.193 545.388 272.71 543.852 267.745 545.86C267.312 546.057 266.878 546.294 266.445 546.53C265.578 547.002 264.711 547.475 263.844 547.633C262.426 547.987 260.889 547.396 259.943 546.097C258.998 544.797 258.998 543.379 260.062 542.08C260.771 541.252 261.51 540.425 262.249 539.598C262.987 538.771 263.726 537.944 264.435 537.117C265.854 535.581 266.209 533.927 265.145 532.155C263.844 529.91 261.953 529.319 259.589 530.028C259.057 530.205 258.555 530.412 258.052 530.619C257.55 530.826 257.047 531.032 256.515 531.21C256.062 531.377 255.594 531.606 255.121 531.838C253.253 532.755 251.311 533.708 249.896 530.973C248.631 528.331 250.608 526.359 252.457 524.514L252.615 524.357C260.062 516.441 260.062 516.322 253.442 507.697C251.551 505.334 251.432 503.089 252.851 500.726C253.56 499.427 254.387 498.246 255.215 497.064L255.215 497.064C256.724 495.023 256.433 492.849 256.145 490.692C256.049 489.977 255.954 489.263 255.924 488.557C255.735 485.064 253.585 484.814 251.341 484.554C250.776 484.488 250.206 484.422 249.659 484.303C245.522 483.476 245.049 480.995 248.004 478.16C249.331 476.907 250.842 475.838 252.336 474.781C253.238 474.143 254.133 473.51 254.979 472.843C256.988 471.307 257.461 469.18 256.988 466.935C256.397 463.981 254.033 464.218 251.787 464.454C249.541 464.69 247.059 464.808 246.349 462.209C245.713 459.984 247.359 458.614 248.9 457.332C249.077 457.184 249.252 457.038 249.423 456.892C250.392 456.04 251.539 455.403 252.71 454.754C255.109 453.423 257.609 452.036 258.88 448.622C256.66 448.178 254.79 446.787 252.952 445.421C250.386 443.513 247.882 441.652 244.576 442.478C236.42 444.486 228.618 447.913 221.289 452.048C219.043 453.348 218.925 455.711 219.752 457.956C220.522 460.054 220.629 462.235 220.735 464.4C220.808 465.893 220.881 467.379 221.171 468.826C224.863 486.222 227.102 503.851 229.344 521.497C231.623 539.444 233.905 557.408 237.72 575.162C241.385 592.294 242.33 610.017 239.966 627.739C239.493 631.365 239.441 635.043 239.388 638.738C239.362 640.583 239.335 642.432 239.257 644.281C239.212 645.123 239.218 645.966 239.224 646.802C239.233 648.194 239.242 649.569 239.02 650.897C238.311 654.678 235.71 656.687 231.928 656.214C228.027 655.741 227.79 652.551 228.027 649.479C228.322 644.93 228.618 640.352 228.913 635.774C229.209 631.195 229.504 626.617 229.8 622.068C230.746 603.991 228.5 586.268 225.663 568.545C222.116 546.451 218.688 524.357 215.497 502.144C214.669 495.882 213.251 491.511 205.685 492.338C203.999 492.536 202.146 491.736 200.407 490.985C200.073 490.841 199.743 490.699 199.42 490.565C190.318 486.548 187.008 480.168 188.781 470.361C189.609 465.517 191.264 460.673 195.283 457.956C206.985 450.512 205.567 440.115 202.612 429.127C200.503 421.195 198.531 413.213 196.559 405.23C192.451 388.598 188.34 371.961 182.989 355.754C173.414 326.925 163.484 298.096 152.845 269.622C143.034 243.51 132.395 217.753 121.283 192.233C117.028 182.426 111.59 173.447 105.443 164.703C103.392 161.741 100.791 161.745 97.958 161.749C97.8528 161.749 97.7472 161.75 97.6413 161.75C93.2085 161.69 88.8052 161.661 84.4018 161.631C79.9985 161.602 75.5952 161.572 71.1623 161.513C61.1145 161.395 51.8941 158.087 42.6738 154.188C30.0253 148.753 25.7697 138.119 24.7059 126.068C23.0509 107.045 26.8336 88.7318 36.7633 72.0725C42.0827 63.0929 49.4117 57.5398 60.0506 55.2949C73.2901 52.223 86.2932 51.7504 99.1781 56.122C102.37 57.1854 105.325 59.3121 104.025 63.4474C102.724 67.5827 99.8873 69.355 95.5136 68.0553L94.4497 67.7009C87.8299 66.1649 81.2102 66.1649 74.5904 66.283C54.9676 66.7556 46.4565 72.5451 40.1914 90.9767C36.7633 101.138 34.6355 111.535 35.1083 122.405C35.5812 132.921 40.0731 140.364 50.121 144.499C55.6769 146.744 61.3509 148.28 67.1432 148.517C70.9935 148.652 74.8437 148.979 78.694 149.307C88.3197 150.127 97.9453 150.947 107.571 148.753C118.092 146.39 126.721 141.427 132.631 132.33C132.986 131.739 133.459 131.148 133.932 130.558L133.932 130.558C137.478 126.068 142.561 124.414 145.044 127.367C148.235 130.912 147.526 134.575 144.216 138.119C142.891 139.519 141.597 140.961 140.302 142.404C135.474 147.787 130.62 153.197 124.002 156.551C118.919 159.15 118.446 162.458 121.165 167.303C127.788 179.561 133.166 192.384 138.552 205.225C140.953 210.95 143.356 216.678 145.871 222.361C155.21 243.51 163.602 265.014 170.813 286.872C173.854 296.073 176.985 305.244 180.115 314.412C185.746 330.908 191.374 347.393 196.465 364.025C202.73 384.347 207.813 405.024 212.187 425.818C215.615 442.241 215.851 442.241 231.1 435.625C233.317 434.665 235.465 433.566 237.609 432.469C242.322 430.058 247.015 427.657 252.378 426.764C253.442 426.645 255.333 425.7 255.333 425.582C253.271 419.399 256.849 417.703 260.446 415.998C262.003 415.26 263.564 414.519 264.672 413.412C266.563 411.522 265.854 409.395 263.49 407.977C257.934 404.669 258.643 401.834 264.435 400.061C269.599 398.573 270.925 394.583 272.269 390.543C272.525 389.774 272.781 389.002 273.065 388.246C274.102 385.331 272.367 383.978 270.588 382.592C269.122 381.45 267.627 380.285 267.627 378.203C267.982 376.077 269.873 375.84 271.764 375.722C274.838 375.486 277.911 374.777 279.212 371.941C280.428 369.163 278.645 368.044 276.816 366.896C276.156 366.481 275.489 366.063 274.956 365.561C272.356 362.962 273.774 360.953 277.202 360.481C277.802 360.395 278.415 360.358 279.029 360.32C280.957 360.203 282.889 360.085 284.413 358.472C289.26 353.51 288.077 347.366 281.576 343.939C281.486 343.895 281.397 343.85 281.307 343.806C279.744 343.031 278.221 342.275 277.439 340.04C280.14 336.955 283.628 337.332 287.068 337.703C287.843 337.787 288.617 337.87 289.378 337.914C289.859 337.94 290.364 338.015 290.872 338.091C292.615 338.349 294.4 338.615 295.406 336.968C297.061 334.369 295.288 332.124 293.633 330.116C293.293 329.639 293.07 329.085 292.852 328.542C292.692 328.142 292.534 327.749 292.333 327.398C292.581 327.101 292.787 326.742 292.969 326.425C293.221 325.985 293.427 325.626 293.633 325.626C300.237 324.966 303.487 324.641 304.281 323.073C305.051 321.553 303.515 318.866 300.49 313.574C300.622 313.442 300.754 313.291 300.889 313.137C301.237 312.742 301.601 312.327 302.026 312.157C303.506 311.681 304.961 312.315 306.372 312.93C308.118 313.69 309.796 314.421 311.365 312.984C313.306 311.342 312.701 309.323 312.081 307.255C311.719 306.048 311.352 304.825 311.483 303.65C311.838 298.687 313.729 297.506 318.339 300.223C321.176 301.877 323.422 303.059 326.377 301.168C329.806 298.924 329.687 295.615 328.742 292.307C327.394 287.537 325.99 282.778 324.585 278.016C321.431 267.328 318.274 256.626 315.739 245.755C313.844 237.696 309.499 227.015 305.445 217.051C299.633 202.765 294.42 189.953 297.889 188.452C303.17 189.463 304.926 193.889 306.508 197.876C306.591 198.083 306.673 198.29 306.755 198.495C315.148 219.644 322.595 241.147 329.215 262.887C330.238 266.318 331.538 269.627 332.833 272.922C334.08 276.095 335.321 279.255 336.307 282.5C336.78 284.273 337.844 286.281 340.09 285.691C341.981 285.218 342.454 283.091 342.454 281.201C342.454 279.532 342.518 277.863 342.582 276.197C342.731 272.32 342.879 268.461 342.218 264.66C340.939 257.168 340.432 249.619 339.924 242.054C339.398 234.23 338.872 226.39 337.489 218.58C333.297 195.025 329.399 171.322 325.505 147.646C324.458 141.278 323.411 134.911 322.358 128.549C317.394 98.8929 311.365 69.4731 303.09 40.526C300.49 31.4283 295 14 295 14C295 14 293.988 10.2792 293.515 8.50691C292.569 4.3716 293.279 0.35445 297.652 -0.236308C301.841 -0.834403 302.496 2.60433 303.095 5.75168C303.206 6.33481 303.315 6.90794 303.445 7.44355C305.375 15.2803 307.332 23.117 309.289 30.9537C313.203 46.6291 317.118 62.3046 320.822 77.98C327.087 104.328 332.052 131.03 336.071 157.851C337.171 165.271 338.603 172.641 340.035 180.008C341.681 188.474 343.326 196.936 344.464 205.466C345.283 211.594 346.243 217.712 347.203 223.832C349.427 238.006 351.652 252.191 352.147 266.55C352.225 268.496 352.508 270.391 352.794 272.301C352.942 273.291 353.09 274.285 353.211 275.293C353.261 275.642 353.304 275.994 353.348 276.345C353.713 279.313 354.065 282.171 358.294 282.382C363.259 282.619 367.869 279.192 368.342 274.584C368.46 273.285 368.46 271.985 368.46 270.7C368.46 269.415 368.46 268.145 368.578 266.904C368.697 265.014 369.169 263.005 371.534 262.887C373.78 262.769 374.844 264.66 374.844 266.55C374.844 267.109 374.824 267.668 374.805 268.225C374.698 271.32 374.593 274.362 377.799 277.065C378.694 275.043 379.051 272.79 379.41 270.525C380.141 265.911 380.879 261.251 386.192 258.398C388.412 261.788 387.639 265.437 386.88 269.024C386.183 272.31 385.498 275.545 387.137 278.483C389.738 278.838 390.447 277.538 391.038 276.12C395.932 262.225 400.699 248.33 405.465 234.435C408.642 225.172 411.82 215.91 415.035 206.647C421.639 187.62 426.728 168.035 431.808 148.481C432.91 144.236 434.013 139.992 435.131 135.756C441.869 110.235 449.789 85.0691 460.782 61.0844C464.274 53.4393 468.533 47.8845 473.097 41.9319C475.022 39.421 477.001 36.8393 479 34C480.773 31.4007 487 27 490.216 32.2554C465.629 58.1306 454.753 90.2678 446.124 123.232L446.124 123.234C437.022 157.97 427.92 192.706 416.572 226.851C413.294 236.751 410.242 246.695 407.192 256.629C405.291 262.82 403.392 269.006 401.441 275.175C401.297 275.669 401.124 276.167 400.951 276.664C400.132 279.022 399.314 281.376 401.559 283.328C404.869 286.163 408.415 288.881 412.198 291.007C413.817 291.932 415.096 289.691 416.036 288.045L416.099 287.935C419.491 282.146 422.845 276.331 426.203 270.512C433.26 258.281 440.33 246.029 447.779 233.94C455.108 222.016 462.866 210.398 470.657 198.733C473.673 194.217 476.693 189.694 479.696 185.144C480.287 184.198 480.996 183.372 481.705 182.545L481.705 182.544C483.124 181.008 484.897 180.536 486.67 181.599C488.561 182.781 488.325 184.671 487.261 186.325C486.377 187.602 485.472 188.838 484.572 190.067C483.307 191.795 482.052 193.51 480.878 195.305C477.909 199.648 474.862 203.957 471.812 208.271C464.906 218.04 457.984 227.831 451.916 238.075C444.669 250.262 438.159 262.879 431.634 275.528C429.112 280.415 426.589 285.307 424.019 290.18C426.232 291.17 427.699 290.038 429.042 289.001C430.425 287.934 431.676 286.968 433.476 288.526C435.588 290.307 434.678 291.831 433.689 293.487C432.906 294.797 432.074 296.19 432.648 297.86C437.377 295.615 441.632 296.679 442.696 301.995C443.996 308.848 441.041 314.165 434.067 316.883C434.257 319.488 435.645 321.445 437.016 323.377C438.194 325.036 439.358 326.678 439.741 328.698C440.095 330.47 441.277 331.179 442.932 330.943C444.824 330.706 446.597 329.525 447.07 327.753C447.462 326.283 446.309 325.869 445.095 325.434C444.845 325.344 444.593 325.254 444.351 325.153C440.805 323.735 441.041 321.49 443.523 319.482C443.667 319.359 443.811 319.234 443.957 319.109C446.323 317.067 448.93 314.817 452.271 315.819C454.831 316.642 455.199 319.018 455.562 321.365C455.669 322.053 455.775 322.738 455.935 323.381C456.763 327.044 457.236 330.824 454.99 334.015C452.862 337.087 449.552 337.323 446.006 336.614C444.942 336.378 443.76 336.968 443.642 338.15C443.405 339.804 444.587 340.986 445.888 341.576C448.803 342.76 450.876 341.277 452.972 339.778C453.595 339.331 454.221 338.884 454.872 338.504C456.999 337.323 459.009 336.732 460.782 338.741C461.97 340.126 461.417 341.594 460.858 343.076C460.75 343.363 460.642 343.651 460.546 343.939C459.364 347.366 456.999 349.729 453.571 350.319C449.552 350.91 447.424 352.328 448.488 356.7C449.182 359.645 450.765 359.288 452.538 358.887C453.184 358.742 453.855 358.59 454.517 358.59C459.127 358.472 460.546 361.78 457.945 365.916C457.219 367.004 456.148 367.859 455.076 368.715C453.008 370.366 450.936 372.021 451.325 375.368C451.371 375.714 451.409 376.078 451.446 376.449C451.602 377.976 451.77 379.616 452.626 380.566C453.869 381.809 455.475 380.964 456.967 380.18C457.178 380.069 457.386 379.96 457.59 379.857C458.355 379.433 458.997 378.78 459.644 378.122C460.797 376.95 461.962 375.765 463.856 375.84C467.52 383.875 467.756 386.592 462.201 388.364C454.162 390.845 453.453 395.69 454.99 402.424C455.212 403.311 455.202 404.244 455.193 405.165C455.187 405.717 455.182 406.265 455.226 406.796C455.235 406.907 455.244 407.019 455.253 407.132C455.354 408.466 455.464 409.923 456.881 410.577C458.891 411.522 460.427 410.577 461.491 408.923C461.724 408.587 461.933 408.241 462.14 407.899C462.881 406.675 463.585 405.511 465.156 405.142C470.121 412.349 470.002 415.421 464.092 418.02C462.755 418.653 461.292 418.993 459.803 419.339C458.791 419.574 457.768 419.812 456.763 420.147C456.29 420.265 455.935 421.329 455.817 422.038C455.738 424.261 455.765 426.485 455.792 428.637C455.805 429.686 455.817 430.719 455.817 431.726C457.827 432.435 459.127 432.08 460.191 430.899C462.082 428.89 464.565 427.472 467.047 429.127C468.808 430.327 468.401 432.014 467.991 433.713C467.796 434.523 467.6 435.335 467.638 436.098C467.674 437.347 467.702 438.601 467.729 439.859C467.885 446.924 468.042 454.071 469.648 460.791C472.721 474.26 473.312 487.73 473.194 501.317C473.17 503.355 473.141 505.392 473.111 507.429C472.856 525.239 472.6 543.029 475.677 560.629C476.217 563.783 475.864 566.8 475.509 569.836C475.399 570.781 475.288 571.728 475.204 572.681C475.085 574.689 474.022 576.225 472.012 576.462C469.884 576.698 468.584 575.398 467.638 573.744C465.865 570.436 464.801 567.01 464.919 563.229C464.969 556.333 464.402 549.459 463.835 542.587C463.042 532.975 462.25 523.369 463.146 513.723C463.619 509.352 463.146 504.862 461.846 500.136C460.489 500.432 459.178 500.927 457.863 501.422C455.513 502.308 453.151 503.199 450.498 502.971C448.015 502.735 446.479 504.507 446.479 507.107C446.479 509.352 448.134 510.179 449.789 510.887L450.852 511.242C451.415 511.395 452.043 511.482 452.676 511.57C454.97 511.887 457.319 512.213 456.763 515.732C456.172 519.631 452.98 520.93 449.316 520.576C448.663 520.489 447.993 520.354 447.32 520.218C446.165 519.985 444.998 519.749 443.878 519.749C440.686 519.867 439.741 522.584 439.031 525.066C438.204 528.138 440.45 528.728 442.696 529.083L442.899 529.117C444.26 529.342 445.713 529.583 446.952 530.146C448.37 530.737 449.198 532.037 449.198 533.573C449.079 535.699 447.779 536.881 446.006 537.59C443.878 538.535 441.632 537.944 439.504 537.353C434.582 536.07 432.953 539.143 431.198 542.454C431.014 542.801 430.829 543.15 430.639 543.497C428.668 547.079 430.703 547.811 432.679 548.521C433.31 548.747 433.935 548.972 434.421 549.287C436.549 550.586 436.313 552.241 434.894 553.777C434.378 554.329 433.701 554.767 433.024 555.205C431.531 556.17 430.04 557.134 430.284 559.33C430.875 565.592 427.092 565.946 422.6 565.119C422.197 565.052 421.78 564.955 421.36 564.857C419.569 564.44 417.721 564.009 416.572 565.828C414.798 568.309 416.099 570.672 417.99 572.681C419.054 573.744 419.881 574.926 419.172 576.58C416.572 578.825 413.971 577.761 411.134 576.58C407.233 575.044 405.46 576.462 406.642 580.715C407.351 583.196 408.179 585.559 409.124 587.922C410.306 590.64 410.306 593.003 407.469 594.539C404.987 595.839 403.332 594.066 401.914 592.294C401.397 591.691 401.068 590.963 400.745 590.246C400.625 589.979 400.505 589.715 400.377 589.458C400.258 589.254 400.141 589.046 400.023 588.837C398.846 586.76 397.625 584.603 394.939 584.496C392.136 584.496 391.93 586.377 391.722 588.265C391.649 588.925 391.577 589.586 391.393 590.167C390.447 593.239 388.319 594.066 385.482 592.885C385.112 592.726 384.747 592.537 384.378 592.347C383.103 591.688 381.787 591.009 380.045 591.467C374.134 606 375.553 621.123 377.326 636.246C377.799 640.086 378.301 643.897 378.804 647.707C379.306 651.517 379.808 655.328 380.281 659.168C380.518 661.294 380.518 663.658 380.163 665.784C379.69 668.502 378.153 670.747 375.198 670.747C372.361 670.747 370.706 668.502 369.879 665.902C369.524 664.839 369.288 663.657 369.406 662.594C370.604 651.53 369.196 640.677 367.788 629.833C366.836 622.495 365.884 615.162 365.741 607.772C365.729 607.415 365.724 607.049 365.72 606.68C365.68 603.501 365.636 600.043 360.658 599.619C360.067 599.619 359.358 598.91 358.885 598.438C357.965 597.602 357.356 596.353 356.754 595.118C355.654 592.861 354.578 590.654 351.674 591.112C348.709 591.58 348.422 594.057 348.128 596.604C347.976 597.915 347.823 599.244 347.301 600.328C347.212 600.506 347.125 600.686 347.04 600.866C346.326 602.361 345.628 603.822 343.518 603.4C341.985 603.196 341.601 601.932 341.219 600.677C341.159 600.48 341.1 600.284 341.035 600.092C340.479 598.654 340.232 597.108 339.979 595.53C339.589 593.089 339.187 590.574 337.607 588.277C334.416 593.475 334.061 598.91 334.061 604.464C334.177 618.171 334.408 631.879 334.64 645.7L334.652 646.407C334.652 646.939 334.682 647.5 334.711 648.061C334.741 648.623 334.77 649.184 334.77 649.716C334.652 656.096 332.524 659.168 328.151 659.286C324.013 659.404 322.122 656.45 322.949 649.125C324.636 635.01 323.973 620.989 323.307 606.894C323.226 605.179 323.145 603.463 323.068 601.746C323.059 601.507 323.053 601.265 323.047 601.025C322.969 597.939 322.893 594.938 317.63 597.02C313.847 598.556 312.429 595.484 313.138 591.939C313.256 591.231 313.493 590.522 313.729 589.813C313.965 589.104 314.202 588.395 314.32 587.686C314.456 587.04 314.807 586.375 315.16 585.708C316.033 584.053 316.915 582.382 314.556 580.951C311.247 579.061 307.582 578.47 304.863 582.369C304.39 582.96 304.036 583.551 303.681 584.26C302.972 585.677 301.79 586.623 300.135 586.032C298.48 585.441 298.362 583.787 298.362 582.369C298.362 581.273 298.476 580.161 298.589 579.057C298.78 577.185 298.97 575.335 298.598 573.626C297.987 571.081 295.972 569.413 293.46 568.547ZM428.197 504.142C429.89 504.325 431.667 504.517 432.766 507.107C430.833 508.241 428.54 508.27 426.288 508.298C422.206 508.349 418.255 508.399 416.808 515.023C415.035 522.585 417.754 527.547 422.009 534.518C412.178 530.898 406.515 535.879 400.894 540.823C400.094 541.527 399.295 542.229 398.486 542.907C395.294 545.624 395.885 548.696 399.786 550.468C401.149 551.052 402.673 551.235 404.159 551.414C404.477 551.452 404.793 551.49 405.105 551.532C405.888 551.662 406.67 551.72 407.551 551.786C408.268 551.84 409.051 551.898 409.952 552.004C409.361 555.431 408.652 558.03 404.632 556.612C402.462 555.831 400.355 555.751 398.218 555.67C397.446 555.641 396.669 555.612 395.885 555.549L395.697 555.533C394.257 555.412 391.974 555.22 391.748 555.785C389.37 560.958 384.799 562.408 380.239 563.856C377.091 564.855 373.948 565.853 371.534 568.073C369.642 569.845 369.288 571.617 369.642 573.862C369.752 574.484 370.1 575.06 370.454 575.647C371.243 576.957 372.066 578.321 370.352 580.361C360.406 582.448 350.712 579.601 340.987 576.746C339.153 576.207 337.318 575.668 335.48 575.162C332.455 574.343 329.532 573.29 326.602 572.234C324.035 571.309 321.462 570.381 318.812 569.609C302.026 564.647 291.151 552.595 281.458 538.889C267.391 518.804 264.435 496.473 267.154 472.843C267.475 470.133 267.785 467.421 268.095 464.709C270.069 447.434 272.046 430.144 276.848 413.294C285.95 381.748 296.234 350.792 317.512 324.917C323.659 317.355 330.869 310.502 338.08 303.768C342.454 299.751 347.892 297.624 353.802 296.324C363.968 294.197 374.134 292.661 384.419 293.607C394.939 294.67 404.632 297.269 409.715 308.257C411.285 311.668 413.918 314.369 416.591 317.112C418.549 319.121 420.528 321.152 422.127 323.499C429.575 334.369 434.185 345.948 436.667 358.826C439.741 375.131 441.987 391.436 443.523 407.859C443.954 412.658 443.552 417.36 443.151 422.05C442.781 426.367 442.413 430.673 442.696 435.034C442.814 437.515 442.223 440.115 439.859 441.887C437.968 443.305 436.549 446.377 438.086 447.558C441.884 450.495 440.903 453.649 439.937 456.756C439.309 458.775 438.688 460.774 439.386 462.682C439.623 463.391 439.741 464.69 439.504 464.808C433.798 466.841 432.786 471.565 431.765 476.336C430.945 480.165 430.118 484.024 426.856 486.548C424.996 487.973 424.794 490.406 424.58 492.994C424.385 495.34 424.18 497.815 422.719 499.781C421.655 501.081 424.137 502.617 425.792 503.562C426.507 503.959 427.341 504.049 428.197 504.142ZM198.593 473.906C198.474 470.125 203.321 463.509 206.631 462.918C208.404 462.563 209.468 463.745 209.704 465.045C210.65 469.771 211.477 474.379 212.068 479.105C212.423 481.94 210.65 483.122 208.049 483.004C203.203 482.886 198.711 478.514 198.593 473.906ZM460.191 478.041C453.098 480.523 450.143 485.13 450.852 492.574C461.846 490.093 462.555 489.148 460.191 478.041ZM454.753 464.099C454.872 463.154 455.108 461.973 456.645 462.091C458.418 462.918 459.127 464.454 459.127 466.462C459.009 467.88 457.827 468.235 456.763 468.117C454.044 467.88 454.399 465.872 454.753 464.099ZM438.204 483.122C439.859 483.594 439.977 485.012 439.622 486.548C439.031 487.73 438.204 488.321 437.258 487.375C436.549 486.785 435.84 485.721 435.84 484.776C435.84 483.476 437.14 482.886 438.204 483.122Z" fill="#111111"/>
<g id="Eyes">
<path id="Eye 01" d="M296.234 485.13C296.234 476.742 299.189 472.843 305.336 473.079C310.774 473.315 315.62 478.159 315.739 483.831C316.093 492.456 311.719 497.891 304.39 498.245C299.307 498.363 296.234 493.519 296.234 485.13Z" fill="#111111"/>
<path id="Eye 02" d="M331.697 494.228C331.697 487.139 335.834 481.822 341.272 481.94C346.591 482.058 351.202 487.966 351.083 494.464C350.965 499.899 345.646 505.571 340.799 505.452C335.007 505.452 331.697 501.317 331.697 494.228Z" fill="#111111"/>
</g>
</g>
</g>
</svg>
