<svg width="255" height="233" viewBox="0 0 255 233" fill="none" xmlns="http://www.w3.org/2000/svg">
<path d="M161.339 158.497C160.359 156.748 159.72 155.297 158.825 154.06C155.543 149.666 155.5 144.461 156.012 139.554C156.566 133.624 157.163 127.651 157.333 121.721C157.418 119.161 157.844 116.73 158.825 114.341C159.592 112.506 160.487 106.618 160.7 105.381C161.211 102.011 161.51 98.7685 158.143 96.5073C156.992 95.7394 156.438 94.5448 156.054 93.2222C154.818 88.9986 153.625 84.7749 153.923 80.338C154.009 79.1434 154.009 77.6502 154.691 76.8822C156.992 74.1945 157.546 67.7523 157.504 64.0833C157.504 62.4194 159.123 62.2061 160.487 63.23C164.11 65.8751 168.329 69.8428 172.591 69.0749C176.427 68.3923 179.368 65.5765 181.882 63.0594C182.564 62.3767 183.161 61.6088 184.184 62.0781C185.079 62.4621 185.079 63.4007 184.994 64.1686C184.738 66.6431 184.61 66.8137 184.482 68.2643C184.354 69.7148 184.695 73.6825 185.249 74.6211C187.466 78.1195 187.807 82.1725 188.148 86.0975C188.574 90.6625 185.505 94.0328 183.161 97.5312C182.735 98.1712 181.669 98.1285 180.945 97.7445C180.263 97.4032 180.305 96.678 180.305 95.9954C180.348 94.8008 181.158 94.0329 181.882 93.3076C185.761 89.5532 185.59 85.0309 184.397 80.338C184.269 79.826 183.971 79.3567 183.8 78.8874C182.223 74.8344 181.669 71.8906 181.797 67.9656C178.387 68.9895 176.47 71.9333 171.952 71.9333C168.755 71.9333 164.152 70.0561 160.615 67.027C160.871 69.9281 160.53 75.261 158.526 76.6689C157.12 77.6502 156.864 79.314 156.864 80.9779C156.907 84.9029 158.058 88.572 159.08 92.2837C159.549 93.9902 160.998 95.2274 162.405 96.166C164.11 97.3179 164.408 98.7685 164.28 100.603C163.897 105.637 162.746 110.544 161.467 115.407C160.871 117.583 160.231 119.801 160.316 122.063C160.444 126.884 159.464 131.576 158.867 136.312C158.143 142.285 158.1 148.3 161.766 153.591C164.451 157.43 167.775 159.905 172.804 159.052C173.699 158.881 174.637 158.924 175.575 158.881C177.066 158.838 178.942 158.582 179.623 157.558C181.073 155.34 182.82 154.444 185.292 154.444C185.846 154.444 186.059 153.719 185.889 153.164C185.761 152.823 185.462 152.481 184.994 152.609C182.777 153.292 180.519 152.481 178.302 152.78C177.62 152.865 176.938 152.865 176.427 152.439C176.129 152.183 175.83 151.842 175.745 151.5C175.617 150.903 176.043 150.604 176.597 150.391C178.643 149.623 180.817 150.092 182.905 149.623C184.184 149.324 186.4 150.007 185.931 147.661C185.59 145.826 183.715 146.722 182.522 146.893C180.945 147.149 179.623 147.063 178.601 145.741C178.26 145.314 178.047 144.802 178.217 144.29C178.387 143.693 178.899 143.608 179.453 143.608C180.519 143.608 181.584 143.693 182.65 143.565C185.164 143.309 185.505 142.712 185.207 140.237C185.036 138.787 184.397 138.061 182.948 138.061C181.882 138.061 180.817 138.061 179.751 138.019C178.814 137.976 178.217 137.507 178.302 136.525C178.345 135.672 178.771 134.947 179.709 134.862C180.646 134.734 181.584 134.776 182.479 134.691C183.971 134.563 184.525 133.752 184.397 132.302C184.269 130.979 183.886 129.955 182.309 129.955C181.243 129.955 180.178 129.955 179.112 129.955C178.132 129.955 177.279 129.657 176.683 128.846C175.916 127.822 176.342 126.67 177.62 126.585C179.453 126.414 181.328 126.969 183.246 126.201C183.545 124.025 182.309 122.148 182.564 119.887C180.817 120.057 179.538 120.228 178.217 120.356C177.194 120.441 176.384 120.057 175.958 119.076C175.617 118.266 175.575 117.455 176.64 117.242C177.407 117.071 178.217 117.071 179.027 116.943C181.797 116.474 182.095 116.132 181.84 113.274C181.584 110.629 181.328 110.416 178.643 111.183C178.387 111.269 178.174 111.439 177.919 111.482C176.811 111.695 175.361 112.421 174.893 110.799C174.424 109.178 175.788 108.88 177.024 108.666C177.407 108.581 177.833 108.496 178.132 108.282C178.942 107.728 180.305 107.557 180.22 106.192C180.135 104.955 179.24 104.443 178.089 104.187C177.45 104.059 176.811 103.845 176.214 103.504C175.745 103.248 175.319 102.523 175.702 102.182C177.024 100.987 176.299 99.5791 176.299 98.2138C176.299 97.4886 176.768 96.8913 177.45 96.7633C177.961 96.678 178.388 97.0619 178.686 97.5739C181.584 102.054 183.928 106.746 184.567 112.207C185.633 121.551 186.954 130.894 188.105 140.237C188.659 144.717 189 149.196 189.426 153.505C190.321 154.017 190.961 153.847 191.6 153.719C197.311 152.225 202.298 154.145 207.156 156.961C208.307 157.644 209.543 158.369 210.14 159.521C211.418 161.953 213.464 161.825 215.638 161.483C219.814 160.801 223.991 159.948 228.211 159.436C232.26 158.966 236.394 159.18 240.443 158.198C241.039 158.028 241.764 158.156 242.403 158.284C245.642 158.966 248.839 159.82 252.163 160.033C252.931 160.076 253.74 160.203 254.166 160.971C253.996 162.123 253.101 162.081 252.334 162.081C251.524 162.081 250.714 162.038 249.947 161.867C239.207 159.777 228.594 161.185 218.067 163.489C216.447 163.83 214.189 162.977 213.294 164.598C212.654 165.835 213.251 167.712 213.251 169.291C213.251 175.562 212.91 181.791 211.802 187.935C210.097 197.235 212.015 205.469 217.769 213.063C223.267 220.401 229.745 226.502 237.204 231.622C234.774 232.731 233.964 232.816 232.132 231.366C222.67 223.857 214.018 215.666 209.671 203.976C208.818 201.757 208.477 199.411 208.392 196.979C208.264 190.708 209.713 184.607 210.31 178.378C210.651 174.922 210.608 171.467 210.566 168.011C210.523 165.152 209.5 164.171 206.602 164.47C198.931 165.195 191.557 163.531 184.226 161.867C181.541 161.227 178.942 161.185 176.427 162.209C174.211 163.105 171.952 163.233 169.778 162.678C165.047 161.398 160.316 161.739 155.543 161.782C147.317 161.867 139.134 162.422 130.908 161.91C122.64 161.398 114.457 162.422 106.274 163.019C104.271 163.147 102.31 163.19 100.35 162.763C99.6677 162.593 99.0284 162.209 99.1136 161.441C99.1989 160.502 100.051 159.99 100.861 160.246C105.08 161.569 109.385 160.801 113.519 160.246C124.26 158.838 135 159.948 145.74 159.35C150.642 158.881 155.713 158.412 161.339 158.497ZM207.838 161.398C204.471 158.454 201.147 157.217 197.78 156.193C195.947 155.639 192.921 155.34 192.111 156.577C190.577 158.881 188.531 158.113 186.656 158.838C193.305 160.929 199.953 162.635 207.838 161.398Z" fill="black"/>
<path d="M87.7089 53.1641C88.6039 58.4117 90.6071 63.4033 90.8628 68.7362C90.9906 70.8693 92.4823 70.3574 93.8036 70.1441C101.177 69.1201 108.55 68.3949 115.881 67.0723C117.969 66.6883 120.1 66.4324 122.189 67.0723C123.595 67.4989 124.618 68.2242 124.064 69.9307C123.68 71.0826 121.464 72.3625 120.527 72.0212C120.313 71.9359 119.972 71.7226 119.972 71.5519C120.1 68.6935 118.012 69.6748 116.691 69.7601C108.891 70.3574 101.177 71.8079 93.4626 72.9598C91.5021 73.2585 90.3087 74.2824 90.1808 76.3302C90.053 78.7194 88.1777 80.9805 88.8596 83.2843C89.4989 85.5028 92.5676 85.5455 94.1019 87.252C95.1674 88.4466 96.5739 89.2998 97.682 90.4091C98.364 91.1344 99.3869 92.1156 98.3213 93.1395C97.128 94.2488 96.446 92.9689 95.8494 92.2009C93.9741 89.8118 91.3742 88.4892 88.7744 87.124C87.7089 86.5694 86.8565 86.3561 86.0467 87.5506C83.873 90.8357 80.6765 92.9689 77.3521 95.358C79.1848 98.1311 81.0601 100.819 82.7649 103.635C87.4105 111.186 92.184 118.737 95.8067 126.886C96.0625 127.483 96.446 128.081 96.6165 128.678C96.8722 129.446 96.9149 130.427 96.0198 130.726C94.997 131.067 94.9117 130.001 94.5281 129.318C89.9678 120.487 85.2795 111.698 79.5258 103.549C78.4602 102.013 77.48 100.435 76.4571 98.8991C75.4768 97.4059 74.4966 96.8512 72.4934 97.6618C67.7199 99.667 62.7333 101.075 57.4058 100.904C57.0222 100.904 56.596 100.947 56.2124 100.947C52.2913 100.776 52.2487 100.734 51.6947 104.36C50.5865 111.186 50.1177 118.097 50.6292 125.009C50.6718 125.734 51.0554 126.587 49.7767 127.27C48.6686 126.033 48.7112 124.454 48.6686 122.961C48.4555 116.05 48.1572 109.138 48.9243 102.227C49.1374 100.435 48.967 99.4537 46.9638 99.2404C43.7673 98.8991 41.4232 96.8512 39.0364 94.9314C36.8202 93.1395 36.4366 93.1822 34.4334 95.1874C33.3253 96.2966 32.345 97.6192 31.2795 98.7711C30.8107 99.2404 30.1714 99.6243 29.4894 99.155C28.8928 98.7284 28.8928 98.0031 28.8928 97.3632C28.8928 96.4673 29.4895 95.9126 30.0435 95.358C31.0664 94.2914 31.9614 93.1395 33.0696 92.2009C34.2629 91.177 34.476 90.1104 33.8367 88.6599C32.686 86.1428 31.7057 83.5403 30.6402 80.9805C27.6994 82.3031 24.375 82.0471 21.2211 82.5164C15.5952 83.3697 9.88408 83.7536 4.21557 84.3082C3.15006 84.3936 2.08455 84.4789 1.01904 84.5642C0.592841 84.6069 0.251878 84.3936 0.0813963 84.0096C-0.174326 83.3697 0.209257 82.943 0.720702 82.7724C1.44525 82.5164 2.25504 82.3457 3.0222 82.2177C9.03167 81.2365 15.0838 80.2979 21.0932 79.3593C21.6047 79.274 22.1587 79.3166 22.6702 79.274C30.0009 78.3354 30.214 78.2927 29.8304 71.04C29.4468 63.7872 31.109 57.2598 35.6694 51.6709C37.2037 49.751 36.9054 48.6418 35.5415 46.9779C29.1485 39.1279 21.8178 32.2591 13.2511 26.7556C10.6512 25.0917 8.60547 22.8305 6.34659 20.7827C5.49418 20.0148 4.6844 19.1615 5.5368 18.0949C6.60231 16.7297 7.66782 17.9669 8.64809 18.4789C8.98905 18.6496 9.33002 18.9909 9.45788 19.3322C10.6512 22.4466 13.4216 24.0251 15.9788 25.561C24.034 30.4246 30.7681 36.7388 36.6923 44.0342C37.1185 44.5461 37.6726 44.9728 38.0135 45.5274C39.079 47.1912 40.1445 47.6605 41.8494 46.21C42.9575 45.2714 44.2787 44.6314 45.5999 43.9915C54.2519 39.8958 67.5068 40.8771 74.1982 49.0258C76.585 51.9695 77.6078 55.3399 78.2898 58.8383C79.4405 64.9818 79.4831 71.2533 79.3979 77.5248C79.3979 78.762 79.1422 79.9566 78.4602 80.9378C75.349 85.4602 72.1951 89.7691 66.2708 91.0917C60.4318 92.4143 54.8059 92.9689 49.1801 90.3664C47.39 89.5558 45.9409 88.7026 45.1737 86.7827C43.4689 82.5164 40.8265 78.6767 40.1445 73.8558C39.0364 65.9204 44.7475 54.7 57.1074 54.4867C60.0483 54.444 62.435 55.4252 63.8841 58.4117C65.6741 62.038 67.1232 65.6644 66.8675 69.8027C66.5265 75.0503 59.9204 80.3832 54.7633 79.4446C50.5865 78.7194 47.9014 72.7038 50.2029 68.9495C50.8849 67.8402 51.8225 66.8163 52.8454 65.9631C54.2519 64.7685 56.6812 65.2378 57.7894 66.731C58.2582 67.3709 58.1303 67.9682 57.5763 68.4802C56.9796 69.0775 56.2124 69.2055 55.4026 69.3761C52.8454 69.8881 52.0782 70.9547 52.4192 73.3438C52.7602 75.5196 54.4224 76.6715 56.7665 76.2449C62.0088 75.3916 65.1201 69.5894 63.33 63.9152C62.8612 62.422 62.1366 60.9288 61.199 59.6489C59.9204 57.8571 58.2582 56.5772 55.7436 57.6864C54.8059 58.113 53.6978 58.1984 52.6323 58.4117C47.731 59.4356 43.5542 63.7019 42.787 68.6508C42.2756 71.9786 42.5313 75.3063 44.0656 78.3781C44.6623 79.5726 45.4295 80.7245 45.7704 81.9618C47.0064 86.7827 50.6718 88.4466 54.9338 88.8305C63.2022 89.5985 70.1493 87.892 74.5818 80.5112C75.4342 79.1033 76.244 77.6101 76.2014 76.0742C76.1161 68.5655 77.0112 60.8435 73.3884 53.8467C70.9591 49.1964 67.1232 45.8687 61.7531 45.1007C58.4713 44.6314 55.1469 44.6741 51.8225 45.0581C46.495 45.6554 42.2756 48.5138 38.8659 52.2255C33.8793 57.7291 31.3221 64.2565 32.5155 71.9786C33.1548 76.3302 33.4958 80.7672 35.0301 84.8629C37.4168 91.1344 41.892 95.102 48.626 96.2966C50.9701 96.7232 53.2716 97.4912 55.6157 97.7045C60.1761 98.1311 64.6512 97.5765 68.8707 95.6993C73.9851 93.4382 78.9717 90.921 82.637 86.5267C86.5581 81.8764 87.1122 76.1596 87.1974 70.4C87.3253 62.678 85.2369 55.5532 81.8273 48.5991C79.5684 43.9488 75.9883 40.4078 73.0901 36.3121C71.8967 34.6056 70.0214 33.667 68.274 32.8564C61.7104 29.6567 54.9764 27.3955 47.731 30.9792C45.3868 32.1311 42.6591 32.6004 40.2724 33.7097C38.3971 34.5629 37.4595 33.923 36.8628 32.3444C35.4989 28.7607 34.2629 25.0917 32.9417 21.4653C31.2369 16.7297 29.4042 12.0368 26.4634 7.85576C25.5258 6.5332 25.0996 4.95466 25.3127 3.29079C25.3553 2.77883 25.3979 2.18155 26.0372 2.0109C26.8044 1.79758 27.3158 2.22421 27.6142 2.86416C27.8699 3.33346 27.9977 3.84541 28.2108 4.35737C31.6631 11.8234 34.8596 19.4175 37.5873 27.1822C37.9709 28.3341 38.0135 30.126 39.7183 30.2113C41.4658 30.2966 43.0853 29.486 44.5771 28.6327C45.5573 28.0781 45.259 27.0115 45.1737 26.073C44.8754 22.3613 44.5344 18.6496 43.4263 15.0658C43.2558 14.4259 42.8296 13.8713 43.0853 13.146C43.2984 12.5914 43.682 12.2074 44.1935 12.1647C44.5344 12.1221 45.0033 12.3354 45.2164 12.634C45.9409 13.4446 46.1114 14.5539 46.2819 15.5778C46.7933 18.6069 47.3048 21.5933 47.8162 24.6224C48.1145 26.5422 48.8391 27.3955 51.0127 26.5422C53.4421 25.561 57.0222 26.9689 58.4713 25.2197C59.7499 23.6411 58.8549 20.3987 59.1532 17.8816C59.6221 13.7859 60.0909 9.69028 60.1335 5.55194C60.1335 4.74134 60.1335 3.93074 60.2614 3.1628C60.4318 1.92557 60.0483 -0.122265 61.7531 0.00572498C63.7988 0.176378 62.6055 2.05356 62.5202 3.24813C62.0514 10.0316 61.54 16.7724 61.1564 23.5558C60.9859 26.6276 61.1138 26.6276 64.1824 27.5662C64.4381 27.6515 64.6939 27.7368 64.9496 27.8221C66.697 28.4194 68.5723 29.6993 70.1919 29.4007C72.1524 29.0594 71.4705 26.1583 72.7491 24.7931C72.9196 24.6224 73.0048 24.2811 73.1753 24.1104C73.9851 23.3425 74.5392 21.7213 75.9456 22.7026C77.2669 23.5985 76.6276 24.7504 75.7325 25.7743C75.3916 26.1583 75.2211 26.7129 74.9228 27.1395C73.0901 29.9126 73.3032 32.0885 75.7752 34.7762C80.6765 40.1945 84.7254 46.2953 87.7089 53.0361V53.1641Z" fill="#F4BA25"/>
<path d="M102.37 21.0387C102.328 21.892 101.901 22.3186 101.347 22.7452C94.9968 27.4809 90.3086 33.795 85.5777 39.9812C85.0663 40.6211 84.6827 41.3464 83.8303 41.4744C82.8927 41.645 82.1255 41.2184 82.5517 40.1945C82.9779 39.1279 83.7024 38.104 84.427 37.1654C86.3875 34.6483 88.3054 32.1311 90.4365 29.742C93.1642 26.7129 96.105 23.8545 98.9605 20.9107C99.4294 20.4414 99.9834 20.0148 100.58 19.8015C101.731 19.3748 102.242 20.0575 102.37 21.0387Z" fill="#F4BA25"/>
<path d="M68.9985 119.719C68.9985 120.103 68.9133 120.828 68.1461 121.041C67.1232 121.34 66.6544 120.529 66.4839 119.804C66.143 118.268 66.0151 116.69 65.802 115.111C65.3758 111.698 64.907 108.328 64.4808 104.915C64.3955 104.189 64.1398 103.208 65.2053 102.952C66.3561 102.696 66.8249 103.549 67.0806 104.531C67.1659 104.787 67.2085 105.043 67.2511 105.299C67.8478 110.034 68.4445 114.727 68.9985 119.719Z" fill="#F4BA25"/>
<path d="M16.2772 57.4304C20.113 59.2649 24.5029 59.3503 28.2961 61.3554C28.7649 61.6114 29.1485 62.038 28.978 62.6353C28.7649 63.4033 28.083 63.7446 27.4437 63.5739C23.48 62.55 19.5589 61.4408 15.5952 60.3315C14.8707 60.1182 14.4445 59.6489 14.5723 58.881C14.7428 57.9424 15.4248 57.6011 16.2772 57.4304Z" fill="#F4BA25"/>
<path d="M87.7941 53.3348C87.5384 52.0123 87.7515 50.903 89.2858 50.5617C92.0135 50.0071 94.7412 49.4951 97.4689 49.0685C98.4066 48.9405 99.4721 49.1538 99.6 50.3484C99.7704 51.671 98.6623 51.6283 97.7247 51.7989C94.4003 52.4389 91.2037 53.9748 87.6663 53.2068C87.7089 53.1642 87.7941 53.3348 87.7941 53.3348Z" fill="#F4BA25"/>
</svg>
