<svg width="285" height="70" viewBox="0 0 285 70" fill="none" xmlns="http://www.w3.org/2000/svg">
<g clip-path="url(#clip0)">
<path d="M1 25.6072C1 18.8491 6.4273 14.5266 12.5669 14.5266C16.4 14.5266 19.4868 16.3448 21.4542 19.0892L17.0445 22.2453C16.0947 20.9074 14.3308 20.0841 12.6348 20.0841C9.31056 20.0841 7.03788 22.5197 7.03788 25.6072C7.03788 28.7633 9.31056 31.1647 12.6348 31.1647C14.3647 31.1647 16.0947 30.3414 17.0445 29.0035L21.4542 32.1596C19.4528 34.9383 16.4 36.7222 12.5669 36.7222C6.4273 36.7565 1 32.3654 1 25.6072Z" fill="white"/>
<path d="M23.0145 25.6416C23.0145 18.8834 28.34 14.4923 34.344 14.4923C40.3479 14.4923 45.6735 18.8834 45.6735 25.6416C45.6735 32.3654 40.3479 36.7222 34.344 36.7222C28.34 36.7222 23.0145 32.3654 23.0145 25.6416ZM39.7035 25.6416C39.7035 22.3139 37.2951 20.0841 34.3779 20.0841C31.4607 20.0841 29.0184 22.3139 29.0184 25.6416C29.0184 28.9349 31.4268 31.1647 34.344 31.1647C37.2612 31.1647 39.7035 28.9349 39.7035 25.6416Z" fill="white"/>
<path d="M71.3175 3.68611V36.3448H65.4153V33.7033C63.9228 35.7959 61.0056 36.7565 58.6312 36.7565C53.2039 36.7565 48.2854 32.5026 48.2854 25.6759C48.2854 18.8491 53.2039 14.5952 58.6312 14.5952C61.0735 14.5952 63.9228 15.5215 65.4153 17.6484V3.68611H71.3175ZM65.2118 25.6415C65.2118 22.3482 62.4981 20.1527 59.7506 20.1527C56.7655 20.1527 54.2893 22.4855 54.2893 25.6415C54.2893 28.7633 56.7655 31.1647 59.7506 31.1647C62.6338 31.1647 65.2118 28.9006 65.2118 25.6415Z" fill="white"/>
<path d="M97.199 27.597H81.3241C81.9686 30.0669 83.936 31.4392 86.7853 31.4392C88.9223 31.4392 91.0254 30.5815 92.2805 29.0721L95.7404 32.5712C93.7391 35.2814 90.0417 36.7222 86.3444 36.7222C79.8994 36.7222 75.1506 32.2625 75.1506 25.6759C75.1506 18.7805 80.3065 14.4923 86.3444 14.4923C92.3483 14.4923 97.2668 18.7805 97.2668 25.2985C97.3007 25.916 97.2668 26.6364 97.199 27.597ZM91.3985 23.7205C91.2289 21.2162 89.1259 19.7067 86.48 19.7067C84.0717 19.7067 81.9686 20.8388 81.3241 23.7205H91.3985V23.7205Z" fill="white"/>
<path d="M99.7091 29.4837H105.272C105.272 30.7187 106.324 32.0566 108.393 32.0566C110.123 32.0566 111.412 31.3362 111.412 30.1012C111.412 29.175 110.699 28.729 109.105 28.3174L106.29 27.6312C100.862 26.1561 100.15 23.1029 100.15 20.8731C100.15 17.5798 103.542 14.5266 108.427 14.5266C112.26 14.5266 116.771 16.4477 116.737 21.4563H111.106C111.106 20.0498 109.919 19.2607 108.528 19.2607C107.172 19.2607 106.086 19.9468 106.086 21.0446C106.086 22.0395 107.002 22.5541 108.155 22.8628L111.615 23.789C116.669 25.1613 117.314 28.3517 117.314 30.1012C117.314 34.5609 112.802 36.7565 108.461 36.7565C104.051 36.7565 99.7769 34.1836 99.7091 29.4837Z" fill="white"/>
<path d="M133.562 19.6724H129.084V36.3448H123.182V19.6724H119.349V15.0412H123.182V7.25388H129.084V15.0755H133.562V19.6724Z" fill="white"/>
<path d="M157.137 27.597H141.262C141.906 30.0669 143.874 31.4392 146.723 31.4392C148.86 31.4392 150.963 30.5815 152.218 29.0721L155.678 32.5712C153.677 35.2814 149.98 36.7222 146.282 36.7222C139.837 36.7222 135.088 32.2625 135.088 25.6759C135.088 18.7805 140.244 14.4923 146.282 14.4923C152.286 14.4923 157.205 18.7805 157.205 25.2985C157.239 25.916 157.171 26.6364 157.137 27.597ZM151.302 23.7205C151.133 21.2162 149.03 19.7067 146.384 19.7067C143.976 19.7067 141.872 20.8388 141.228 23.7205H151.302V23.7205Z" fill="white"/>
<path d="M176.336 15.1784L174.979 20.8731C173.724 20.187 172.672 20.0841 171.96 20.0841C168.941 20.0841 166.872 22.9314 166.872 29.0035V36.3105H160.97V15.0412H166.838V19.5695C168.025 16.0017 170.4 14.4923 173.012 14.4923C174.131 14.4923 175.386 14.6981 176.336 15.1784Z" fill="white"/>
<path d="M177.455 29.4837H183.018C183.018 30.7187 184.07 32.0566 186.139 32.0566C187.869 32.0566 189.158 31.3362 189.158 30.1012C189.158 29.175 188.446 28.729 186.851 28.3174L184.036 27.6312C178.609 26.1561 177.896 23.1029 177.896 20.8731C177.896 17.5798 181.288 14.5266 186.173 14.5266C190.006 14.5266 194.517 16.4477 194.483 21.4563H188.853C188.853 20.0498 187.665 19.2607 186.275 19.2607C184.918 19.2607 183.832 19.9468 183.832 21.0446C183.832 22.0395 184.748 22.5541 185.901 22.8628L189.361 23.789C194.416 25.1613 195.06 28.3517 195.06 30.1012C195.06 34.5609 190.549 36.7565 186.207 36.7565C181.797 36.7565 177.489 34.1836 177.455 29.4837Z" fill="white"/>
<path d="M197.943 34.6295C197.943 33.3602 198.995 32.434 200.216 32.434C201.539 32.434 202.556 33.3602 202.556 34.6295C202.556 35.8645 201.505 36.7908 200.216 36.7908C198.995 36.7908 197.943 35.8645 197.943 34.6295Z" fill="white"/>
<path d="M205.881 25.6415C205.881 18.8834 211.037 14.5609 217.041 14.5609C220.06 14.5609 222.739 15.693 224.639 17.4769L222.841 19.5009C221.382 18.163 219.415 17.3396 217.142 17.3396C212.529 17.3396 208.798 20.633 208.798 25.6415C208.798 30.6158 212.529 33.9434 217.142 33.9434C219.415 33.9434 221.382 33.1544 222.841 31.8508L224.639 33.8062C222.739 35.6244 220.094 36.7222 217.041 36.7222C211.037 36.7565 205.881 32.3997 205.881 25.6415Z" fill="white"/>
<path d="M228.506 3H231.389V36.3448H228.506V3Z" fill="white"/>
<path d="M255.948 15.0069V36.3448H253.064V32.5712C251.809 35.5901 248.383 36.7565 245.738 36.7565C240.649 36.7565 237.156 33.2916 237.189 27.3911V15.0069H240.073V27.2882C240.073 31.4048 242.617 33.9091 246.043 33.9091C249.367 33.9091 252.997 31.988 253.03 26.8422V15.0069H255.948Z" fill="white"/>
<path d="M284 25.6415C284 32.1253 279.217 36.7908 273.315 36.7908C269.787 36.7908 266.463 35.0412 264.903 32.1253V36.3105H262.019V3H264.903V19.1578C266.497 16.2419 269.719 14.5609 273.315 14.5609C279.217 14.5609 284 19.1578 284 25.6415ZM281.151 25.6072C281.151 20.9074 277.555 17.3396 273.078 17.3396C268.871 17.3396 264.903 20.5643 264.903 25.7445C264.903 30.6844 268.702 34.0121 273.078 34.0121C277.555 34.0121 281.151 30.3414 281.151 25.6072Z" fill="white"/>
<mask id="mask0" mask-type="alpha" maskUnits="userSpaceOnUse" x="160" y="46" width="124" height="20">
<path fill-rule="evenodd" clip-rule="evenodd" d="M170.13 65.9198C175.309 65.9198 179.508 61.6737 179.508 56.436C179.508 51.1982 175.309 46.9521 170.13 46.9521C164.951 46.9521 160.753 51.1982 160.753 56.436C160.753 61.6737 164.951 65.9198 170.13 65.9198ZM204.961 65.9198C210.14 65.9198 214.338 61.6737 214.338 56.436C214.338 51.1982 210.14 46.9521 204.961 46.9521C199.782 46.9521 195.583 51.1982 195.583 56.436C195.583 61.6737 199.782 65.9198 204.961 65.9198ZM238.452 56.436C238.452 61.6737 234.254 65.9198 229.075 65.9198C223.896 65.9198 219.697 61.6737 219.697 56.436C219.697 51.1982 223.896 46.9521 229.075 46.9521C234.254 46.9521 238.452 51.1982 238.452 56.436ZM253.188 65.9198C258.367 65.9198 262.566 61.6737 262.566 56.436C262.566 51.1982 258.367 46.9521 253.188 46.9521C248.009 46.9521 243.811 51.1982 243.811 56.436C243.811 61.6737 248.009 65.9198 253.188 65.9198ZM184.866 46.9521H190.225V65.9198H184.866V46.9521ZM273.283 46.9521H267.924V65.9198H273.283V46.9521ZM278.641 46.9521H284V65.9198H278.641V46.9521Z" fill="#008549"/>
</mask>
<g mask="url(#mask0)">
<path d="M284 46.9521H160.753V65.9198H284V46.9521Z" fill="url(#paint0_linear)"/>
</g>
</g>
<defs>
<linearGradient id="paint0_linear" x1="161" y1="56" x2="284" y2="56" gradientUnits="userSpaceOnUse">
<stop stop-color="white"/>
<stop offset="1" stop-color="white" stop-opacity="0.27"/>
</linearGradient>
<clipPath id="clip0">
<rect width="283" height="63" fill="white" transform="translate(1 3)"/>
</clipPath>
</defs>
</svg>
