<svg width="285" height="70" viewBox="0 0 285 70" fill="none" xmlns="http://www.w3.org/2000/svg">
<path d="M30 47.2773V44.5088L33.5815 43.8936V18.6909L30 18.0757V15.2852H41.4917V18.0757L37.9102 18.6909V32.4458L50.4785 18.4932L50.5664 18.3833L48.1714 18.0757V15.2852H58.4326V18.0757L55.4224 18.625L45.6445 29.2598L56.6309 43.9595L59.5752 44.5088V47.2773H48.8965V44.5088L51.5332 44.2012L51.5112 44.1792L42.9199 32.248L37.9102 37.6973V43.8936L41.4917 44.5088V47.2773H30Z" fill="white"/>
<path d="M71.8359 47.7388C69.6387 47.7388 67.7417 47.2261 66.145 46.2007C64.563 45.1606 63.3398 43.7324 62.4756 41.916C61.6113 40.085 61.1792 37.9976 61.1792 35.6538V35.1704C61.1792 32.8267 61.6113 30.7466 62.4756 28.9302C63.3398 27.0991 64.563 25.6636 66.145 24.6235C67.7417 23.5835 69.624 23.0635 71.792 23.0635C73.9893 23.0635 75.8789 23.5835 77.4609 24.6235C79.0576 25.6636 80.2881 27.0918 81.1523 28.9082C82.0166 30.7246 82.4487 32.812 82.4487 35.1704V35.6538C82.4487 38.0122 82.0166 40.1069 81.1523 41.938C80.2881 43.7544 79.0649 45.1753 77.4829 46.2007C75.9009 47.2261 74.0186 47.7388 71.8359 47.7388ZM71.8359 44.355C73.8867 44.355 75.4468 43.5347 76.5161 41.894C77.5854 40.2534 78.1201 38.1733 78.1201 35.6538V35.1704C78.1201 33.5005 77.8784 32.0137 77.395 30.71C76.9263 29.3916 76.2231 28.3589 75.2856 27.6118C74.3481 26.8501 73.1836 26.4692 71.792 26.4692C70.415 26.4692 69.2578 26.8501 68.3203 27.6118C67.3828 28.3589 66.6797 29.3916 66.2109 30.71C65.7422 32.0137 65.5078 33.5005 65.5078 35.1704V35.6538C65.5078 38.1733 66.0352 40.2534 67.0898 41.894C68.1592 43.5347 69.7412 44.355 71.8359 44.355Z" fill="white"/>
<path d="M85.6348 47.2773V44.5088L89.2163 43.8936V26.9087L85.6348 26.2935V23.5029H93.5449V43.8936L97.1265 44.5088V47.2773H85.6348ZM88.9966 17.6362V13H93.5449V17.6362H88.9966Z" fill="white"/>
<path d="M109.453 47.7388C107.52 47.7388 105.857 47.2627 104.465 46.3105C103.088 45.3438 102.034 44.0034 101.301 42.2896C100.569 40.5757 100.203 38.5762 100.203 36.291V35.8296C100.203 33.2808 100.569 31.0469 101.301 29.1279C102.034 27.209 103.096 25.7222 104.487 24.6675C105.879 23.5981 107.549 23.0635 109.497 23.0635C110.903 23.0635 112.141 23.3271 113.21 23.8545C114.294 24.3672 115.217 25.1143 115.979 26.0957V16.4058L112.397 15.7905V13H120.308V43.8936L123.889 44.5088V47.2773H116.55L116.199 44.4429C114.617 46.6401 112.368 47.7388 109.453 47.7388ZM110.552 44.2231C111.841 44.2231 112.925 43.9302 113.804 43.3442C114.683 42.7583 115.408 41.9307 115.979 40.8613V29.8311C115.422 28.835 114.697 28.0439 113.804 27.458C112.91 26.8721 111.841 26.5791 110.596 26.5791C108.53 26.5791 107 27.436 106.003 29.1499C105.022 30.8638 104.531 33.0903 104.531 35.8296V36.291C104.531 38.6787 105.022 40.5977 106.003 42.0479C106.985 43.498 108.501 44.2231 110.552 44.2231Z" fill="white"/>
<path d="M137.336 47.7388C134.758 47.7388 132.744 46.9111 131.294 45.2559C129.844 43.6006 129.119 41.0225 129.119 37.5215V26.9087L126.394 26.2935V23.5029H133.447V37.5654C133.447 40.0996 133.821 41.8428 134.568 42.7949C135.315 43.7471 136.479 44.2231 138.062 44.2231C139.6 44.2231 140.867 43.9155 141.863 43.3003C142.874 42.6704 143.635 41.7842 144.148 40.6416V26.9087L140.962 26.2935V23.5029H148.477V43.8936L151.201 44.5088V47.2773H144.587L144.302 43.7617C143.555 45.0361 142.588 46.0176 141.401 46.7061C140.229 47.3945 138.875 47.7388 137.336 47.7388Z" fill="white"/>
<path d="M154.255 47.2773V44.5088L157.837 43.8936V26.9087L154.255 26.2935V23.5029H161.726L162.012 26.6011C162.773 25.4731 163.755 24.6016 164.956 23.9863C166.157 23.3711 167.549 23.0635 169.131 23.0635C170.713 23.0635 172.068 23.4297 173.196 24.1621C174.338 24.8945 175.195 25.9932 175.767 27.458C176.514 26.1104 177.502 25.041 178.733 24.25C179.963 23.459 181.399 23.0635 183.04 23.0635C185.471 23.0635 187.39 23.8984 188.796 25.5684C190.203 27.2236 190.906 29.7212 190.906 33.061V43.8936L194.487 44.5088V47.2773H182.974V44.5088L186.555 43.8936V33.0171C186.555 30.6733 186.152 29.0181 185.347 28.0513C184.541 27.0698 183.347 26.5791 181.765 26.5791C180.256 26.5791 179.041 27.1138 178.118 28.1831C177.209 29.2378 176.682 30.5708 176.536 32.1821V43.8936L180.117 44.5088V47.2773H168.625V44.5088L172.207 43.8936V33.0171C172.207 30.7905 171.79 29.1646 170.955 28.1392C170.134 27.0991 168.94 26.5791 167.373 26.5791C166.055 26.5791 164.971 26.8501 164.121 27.3921C163.271 27.9341 162.62 28.6958 162.166 29.6772V43.8936L165.747 44.5088V47.2773H154.255Z" fill="white"/>
<path d="M205.408 47.7388C202.932 47.7388 201.05 47.1382 199.761 45.937C198.472 44.7212 197.827 43.0146 197.827 40.8174C197.827 38.5615 198.75 36.7524 200.596 35.3901C202.441 34.0132 205.005 33.3247 208.286 33.3247H212.527V30.9956C212.527 29.5601 212.087 28.4468 211.208 27.6558C210.344 26.8647 209.121 26.4692 207.539 26.4692C206.543 26.4692 205.679 26.5938 204.946 26.8428C204.214 27.0771 203.547 27.4067 202.947 27.8315L202.485 31.1494H199.146V25.7002C201.299 23.9424 204.119 23.0635 207.605 23.0635C210.491 23.0635 212.754 23.752 214.395 25.1289C216.035 26.5059 216.855 28.4761 216.855 31.0396V42.4873C216.855 42.7949 216.855 43.0952 216.855 43.3882C216.87 43.6812 216.892 43.9741 216.921 44.2671L219.229 44.5088V47.2773H213.01C212.761 46.0762 212.607 44.9849 212.549 44.0034C211.714 45.0728 210.667 45.9663 209.407 46.6841C208.162 47.3872 206.829 47.7388 205.408 47.7388ZM206.045 44.1133C207.48 44.1133 208.792 43.769 209.978 43.0806C211.165 42.3921 212.014 41.5645 212.527 40.5977V36.291H208.132C206.14 36.291 204.646 36.7671 203.65 37.7192C202.654 38.6714 202.156 39.7334 202.156 40.9053C202.156 43.0439 203.452 44.1133 206.045 44.1133Z" fill="white"/>
<path d="M222.195 56.8794C221.726 56.8794 221.301 56.8428 220.92 56.7695C220.54 56.7109 220.144 56.6157 219.734 56.4839L220.02 53.188C220.225 53.2612 220.569 53.3271 221.052 53.3857C221.55 53.4443 221.931 53.4736 222.195 53.4736C223.059 53.4736 223.74 53.0928 224.238 52.3311C224.751 51.584 225.007 50.5513 225.007 49.2329V26.9087L221.426 26.2935V23.5029H229.336V49.2329C229.336 51.6792 228.706 53.5615 227.446 54.8799C226.187 56.2129 224.436 56.8794 222.195 56.8794ZM224.788 17.6362V13H229.336V17.6362H224.788Z" fill="white"/>
<path d="M241.838 47.7388C239.363 47.7388 237.48 47.1382 236.191 45.937C234.902 44.7212 234.258 43.0146 234.258 40.8174C234.258 38.5615 235.181 36.7524 237.026 35.3901C238.872 34.0132 241.436 33.3247 244.717 33.3247H248.958V30.9956C248.958 29.5601 248.518 28.4468 247.639 27.6558C246.775 26.8647 245.552 26.4692 243.97 26.4692C242.974 26.4692 242.109 26.5938 241.377 26.8428C240.645 27.0771 239.978 27.4067 239.377 27.8315L238.916 31.1494H235.576V25.7002C237.729 23.9424 240.549 23.0635 244.036 23.0635C246.921 23.0635 249.185 23.752 250.825 25.1289C252.466 26.5059 253.286 28.4761 253.286 31.0396V42.4873C253.286 42.7949 253.286 43.0952 253.286 43.3882C253.301 43.6812 253.323 43.9741 253.352 44.2671L255.659 44.5088V47.2773H249.441C249.192 46.0762 249.038 44.9849 248.979 44.0034C248.145 45.0728 247.097 45.9663 245.837 46.6841C244.592 47.3872 243.259 47.7388 241.838 47.7388ZM242.476 44.1133C243.911 44.1133 245.222 43.769 246.409 43.0806C247.595 42.3921 248.445 41.5645 248.958 40.5977V36.291H244.563C242.571 36.291 241.077 36.7671 240.081 37.7192C239.084 38.6714 238.586 39.7334 238.586 40.9053C238.586 43.0439 239.883 44.1133 242.476 44.1133Z" fill="white"/>
</svg>
