<svg width="285" height="70" viewBox="0 0 285 70" fill="none" xmlns="http://www.w3.org/2000/svg">
<path d="M97.8 65.6C97.2667 65.6 96.8667 65.4133 96.6 65.04C96.3333 64.6133 96.2 64.1067 96.2 63.52V56.4V49.28L96.04 36.48C95.88 30.7733 95.8 26.5067 95.8 23.68L95.88 21.36V16.16C95.88 10.4 95.8267 7.52 95.72 7.52H86.68C86.2533 7.52 85.8533 7.41334 85.48 7.2C85.16 6.98667 85 6.69333 85 6.32C85 5.89333 85.08 5.6 85.24 5.44C85.4 5.28 85.8267 5.14667 86.52 5.04C87.2667 4.88 88.3333 4.8 89.72 4.8H97.72L106.52 4.72C107.16 4.72 107.587 4.82667 107.8 5.04C108.067 5.25333 108.2 5.6 108.2 6.08C108.2 6.88 107.693 7.28 106.68 7.28H103.08H99.56L98.84 7.36L98.92 12V18.24V50.72V57.36L99 63.28V63.44C99 63.8667 98.9733 64.24 98.92 64.56C98.8667 64.8267 98.76 65.04 98.6 65.2C98.44 65.4667 98.1733 65.6 97.8 65.6Z" fill="white"/>
<path d="M121.587 64.8C120.307 64.7467 118.68 64.72 116.707 64.72C116.334 64.72 115.987 64.5867 115.667 64.32C115.4 64.0533 115.267 63.76 115.267 63.44C115.267 62.7467 115.72 62.4 116.627 62.4H119.747C119.747 56.2667 119.56 48.5333 119.187 39.2C118.974 31.7333 118.76 25.8667 118.547 21.6L118.627 17.52V12.24C118.627 9.57334 118.574 7.86667 118.467 7.12H115.667C115.134 7.12 114.867 6.74667 114.867 6C114.867 5.52 115.08 5.14667 115.507 4.88C115.88 4.72 116.867 4.64 118.467 4.64H120.707C121.507 4.69333 122.52 4.72 123.747 4.72C124.174 4.72 124.52 4.82667 124.787 5.04C125.054 5.2 125.187 5.46667 125.187 5.84C125.187 6.16 125.107 6.45334 124.947 6.72C124.787 6.98667 124.547 7.12 124.227 7.12C123.854 7.12 123.534 7.09334 123.267 7.04H122.307H121.507C120.974 7.04 120.654 7.09334 120.547 7.2L120.387 7.52C120.387 11.68 120.734 20.08 121.427 32.72C122.067 44.4 122.387 52.8 122.387 57.92V60.16C122.334 60.8533 122.307 61.5733 122.307 62.32H125.187C126.414 62.32 127.027 62.6933 127.027 63.44C127.027 63.76 126.894 64.08 126.627 64.4C126.414 64.6667 126.174 64.8 125.907 64.8H121.587Z" fill="white"/>
<path d="M138.749 65.6C138.109 65.6 137.789 64.6667 137.789 62.8C137.789 60.1333 137.763 57.76 137.709 55.68L137.549 48.48V42C137.496 40.08 137.469 37.92 137.469 35.52C137.469 28.3733 137.336 21.76 137.069 15.68L136.989 12.8C136.829 9.65333 136.749 7.09333 136.749 5.12L136.989 4.8C137.043 4.69334 137.149 4.56 137.309 4.4C137.363 4.24 137.496 4.13334 137.709 4.08C137.816 4.02667 138.003 4 138.269 4C140.136 4 141.816 4.42667 143.309 5.28C144.856 6.13333 146.109 7.30667 147.069 8.8C148.936 11.7333 149.869 15.0667 149.869 18.8C149.869 21.2 149.469 23.6533 148.669 26.16C147.923 28.6667 146.776 30.9333 145.229 32.96C143.629 35.1467 141.843 36.4267 139.869 36.8L140.029 45.68L140.189 50C140.403 55.12 140.509 59.4933 140.509 63.12C140.509 63.9733 140.376 64.6133 140.109 65.04C139.896 65.4133 139.443 65.6 138.749 65.6ZM139.869 33.84C140.349 33.7867 140.829 33.5733 141.309 33.2C141.416 33.1467 141.603 32.9333 141.869 32.56C141.869 32.56 142.056 32.3733 142.429 32C145.896 28.5333 147.629 24.1867 147.629 18.96C147.629 15.9733 147.043 13.2 145.869 10.64C145.229 9.30667 144.296 8.26667 143.069 7.52C141.843 6.72 140.403 6.32 138.749 6.32C138.749 9.36 138.909 13.92 139.229 20C139.549 26.08 139.709 30.64 139.709 33.68L139.869 33.84Z" fill="white"/>
<path d="M165.259 64.8C163.979 64.7467 162.352 64.72 160.379 64.72C160.005 64.72 159.659 64.5867 159.339 64.32C159.072 64.0533 158.939 63.76 158.939 63.44C158.939 62.7467 159.392 62.4 160.299 62.4H163.419C163.419 56.2667 163.232 48.5333 162.859 39.2C162.645 31.7333 162.432 25.8667 162.219 21.6L162.299 17.52V12.24C162.299 9.57334 162.245 7.86667 162.139 7.12H159.339C158.805 7.12 158.539 6.74667 158.539 6C158.539 5.52 158.752 5.14667 159.179 4.88C159.552 4.72 160.539 4.64 162.139 4.64H164.379C165.179 4.69333 166.192 4.72 167.419 4.72C167.845 4.72 168.192 4.82667 168.459 5.04C168.725 5.2 168.859 5.46667 168.859 5.84C168.859 6.16 168.779 6.45334 168.619 6.72C168.459 6.98667 168.219 7.12 167.899 7.12C167.525 7.12 167.205 7.09334 166.939 7.04H165.979H165.179C164.645 7.04 164.325 7.09334 164.219 7.2L164.059 7.52C164.059 11.68 164.405 20.08 165.099 32.72C165.739 44.4 166.059 52.8 166.059 57.92V60.16C166.005 60.8533 165.979 61.5733 165.979 62.32H168.859C170.085 62.32 170.699 62.6933 170.699 63.44C170.699 63.76 170.565 64.08 170.299 64.4C170.085 64.6667 169.845 64.8 169.579 64.8H165.259Z" fill="white"/>
<path d="M184.661 65.28C184.021 65.28 183.381 65.12 182.741 64.8C182.101 64.48 181.781 64.1067 181.781 63.68C181.781 63.36 181.995 62.8267 182.421 62.08C182.848 61.3867 183.035 60.8533 182.981 60.48L182.741 53.44L182.181 31.6L182.021 21.92C181.968 16 181.835 12.2933 181.621 10.8C181.515 10.2133 181.301 9.54667 180.981 8.8C180.608 7.78667 180.421 7.06667 180.421 6.64001C180.421 5.36 182.448 4.72 186.501 4.72H186.901C189.621 4.72 191.968 5.65333 193.941 7.52C195.488 8.96 196.875 11.2267 198.101 14.32C198.955 16.7733 199.595 19.52 200.021 22.56C200.235 24.16 200.421 26.6133 200.581 29.92V32.4C200.581 35.7067 200.128 39.3067 199.221 43.2C198.368 47.04 197.141 50.64 195.541 54C194.581 56.1333 193.328 58.0533 191.781 59.76C190.288 61.4667 188.848 62.8267 187.461 63.84C186.075 64.8 185.141 65.28 184.661 65.28ZM185.861 61.2C187.835 60.1867 189.595 58.72 191.141 56.8C192.688 54.8267 193.915 52.6667 194.821 50.32C195.621 48.3467 196.288 46.1067 196.821 43.6C197.355 41.04 197.728 38.6667 197.941 36.48C198.101 34.56 198.181 32.72 198.181 30.96C198.181 15.3867 193.888 7.6 185.301 7.6C184.181 7.6 183.621 7.89334 183.621 8.48001C183.621 10.3467 183.728 12.56 183.941 15.12C184.155 17.7333 184.261 19.9467 184.261 21.76C184.261 24.6933 184.475 29.7867 184.901 37.04C185.275 43.3333 185.461 48.4 185.461 52.24V61.2H185.861Z" fill="white"/>
</svg>
