<svg width="285" height="70" viewBox="0 0 285 70" fill="none" xmlns="http://www.w3.org/2000/svg">
<g clip-path="url(#clip0)">
<path d="M54.4489 39.6218C54.1937 39.6863 54.0661 39.6863 54.0661 39.7507C51.7053 43.4874 47.9408 44.0028 44.0487 44.2605C42.8364 44.3249 41.8155 43.5518 40.9861 42.7787C38.3701 40.4594 36.9664 37.6246 37.6682 34.0168C38.2425 31.2465 38.9443 28.4762 40.0928 25.8347C40.7309 24.4174 41.8155 23.5154 42.9002 22.6134C43.2831 22.2913 45.261 21.4538 46.4733 21.4538C47.6856 21.4538 49.9826 21.7759 51.6415 22.2913C52.2158 22.4846 52.5986 22.9356 52.9814 23.5154C55.4698 27.381 56.3631 31.6975 56.6183 36.2073C56.6821 37.3669 56.8735 38.5266 57.065 39.6863C57.9582 44.9692 58.5963 50.3165 59.2343 55.6639C59.4895 57.5322 59.5534 59.465 58.9791 61.3333C57.8944 64.6835 55.7889 67.3894 52.471 68.6779C51.1311 69.1933 49.6636 69.1288 48.196 68.8067C45.58 68.2269 42.9002 67.7115 40.7947 65.7787C39.8376 64.9412 39.5824 64.0392 40.1566 62.8796C40.4118 62.4286 40.7947 62.3641 41.3051 62.3641C41.8793 62.4286 42.326 62.7507 42.7088 63.1373C44.942 65.0056 47.558 65.972 50.493 65.972C52.152 65.972 53.4281 65.3277 54.5127 64.0392C56.1717 62.042 57.1288 59.8515 56.8097 57.1457C56.4269 53.4734 56.1079 49.8011 55.4698 46.1933C55.2146 44.7115 55.087 43.2297 54.8956 41.7479C54.8956 40.9748 54.8318 40.2661 54.4489 39.6218ZM53.5557 34.2101C53.5557 32.2773 52.4072 28.4118 51.6415 26.7367C51.1311 25.5126 50.2378 24.8683 49.0893 24.6106C45.7715 23.8375 43.3469 24.2885 41.8793 27.9608C41.5603 28.7983 41.2413 29.6359 40.9861 30.4734C40.667 31.8908 40.2842 33.3081 40.0928 34.7255C39.8376 36.5938 40.6032 38.2045 41.8155 39.6218C42.2622 40.0728 42.4536 40.7171 43.1554 40.9748C45.7076 41.8767 48.196 41.2969 50.2378 39.944C52.4072 38.5266 53.3643 36.2073 53.5557 34.2101Z" fill="white"/>
<path d="M199.861 35.0476C199.861 34.2745 199.797 33.5014 199.861 32.7283C200.307 28.4762 202.604 25.5126 206.177 23.5154C207.964 22.4846 209.623 23.451 211.282 24.0952C211.792 24.2885 212.048 24.9328 211.792 25.5126C211.537 26.0924 211.346 26.8011 210.452 26.7367C209.942 26.6723 209.432 26.6723 208.985 26.5434C207.645 26.0924 206.624 26.6723 205.603 27.381C203.179 29.1204 202.541 31.6331 202.413 34.4034C202.349 36.2717 202.413 38.0756 204.391 39.1709C205.922 40.0728 207.39 41.0392 209.304 40.6527C209.942 40.5238 210.644 40.5882 211.282 40.5238C212.558 40.4594 213.77 40.0084 214.791 39.2353C216.003 38.3333 217.152 37.4314 218.364 36.5938C218.683 36.3361 218.747 36.0784 218.747 35.7563C218.811 32.3417 219.64 29.056 220.406 25.7703C220.47 25.3838 220.661 24.9972 220.789 24.6751C221.172 23.7087 222.001 23.2577 222.703 23.5154C223.277 23.7731 223.596 24.7395 223.277 25.577C222.958 26.479 222.703 27.381 222.32 28.2829C221.618 30.1513 221.555 32.084 221.236 34.0168C220.98 35.6275 222.129 37.6891 223.341 38.2689C224.745 38.9132 227.106 38.5266 228.318 37.3025C231.317 34.1457 232.465 30.5378 231.061 26.2857C230.806 25.4482 230.679 24.6751 230.87 23.8375C231.062 23.0644 231.508 22.6134 232.21 22.6134C232.976 22.549 233.295 23.1933 233.422 23.7731C234.188 26.479 234.571 29.1849 233.933 32.0196C233.231 35.1765 231.763 37.8179 229.339 39.944C229.084 40.1373 229 40.5 228 41C226.006 41.9972 224.298 41.8123 222.065 41.1036C221.363 40.8459 220.853 40.395 220.406 39.8151C219.768 38.9132 219.577 38.8487 218.683 39.6218C217.726 40.395 216.705 41.0392 215.748 41.8123C214.345 43.0364 212.686 43.7451 210.708 43.6807C209.304 43.6162 207.964 43.6162 206.56 43.6162C205.922 43.6162 205.412 43.423 204.838 43.1653C203.561 42.5854 202.477 41.7479 201.392 40.8459C200.371 40.0084 199.861 38.9776 199.797 37.6891C199.797 36.7227 199.861 35.8852 199.861 35.0476Z" fill="white"/>
<path d="M120.615 44.9692C120.296 43.3585 120.87 41.2325 120.679 39.042C120.487 36.916 120.742 34.7255 120.87 32.535C121.061 29.507 120.679 26.5434 120.041 23.5798C119.722 22.0336 120.232 20.8739 121.317 19.8431C122.784 18.5546 124.571 18.0392 126.485 17.7815C128.527 17.4594 130.505 17.0728 132.546 17.7171C134.588 18.3613 136.375 19.4566 137.651 21.1961C138.735 22.6779 139.118 24.4174 138.672 26.2857C138.289 27.7675 137.651 29.1204 136.949 30.409C135.864 32.2773 134.014 33.2437 132.291 34.3389C129.739 35.8852 127.059 37.2381 124.252 38.2689C123.486 38.5266 123.231 38.9776 123.231 39.7507C123.103 41.6835 123.167 43.6162 123.103 45.6134C123.039 49.5434 122.593 53.409 122.72 57.3389C122.72 57.9832 122.529 58.563 122.019 58.9496C121.508 59.3361 120.87 59.4006 120.296 59.1429C119.722 58.8852 119.785 58.3697 119.785 57.8543C119.849 56.8235 119.977 55.7283 120.041 54.6975C120.232 51.605 120.423 48.577 120.615 44.9692ZM123.614 31.633C123.614 32.7283 123.614 33.888 123.614 34.9832C123.614 36.0784 123.805 36.2717 124.698 35.8207C127.378 34.4678 130.122 33.2437 132.61 31.5686C134.205 30.4734 135.418 28.9916 135.992 27.1232C136.375 25.7703 136.821 24.2241 135.864 23.1289C134.397 21.4538 132.738 20.0364 130.313 19.8431C128.335 19.6499 126.549 20.1653 124.826 20.7451C123.039 21.3249 122.912 21.6471 123.039 23.5798C123.167 26.2213 124.06 28.8627 123.614 31.633Z" fill="white"/>
<path d="M25.5438 41.1144C25.5438 42.2144 24.4438 42.5144 23.7438 43.1144C21.0438 45.1144 18.2439 46.9144 14.8439 47.7144C12.7439 48.2144 10.7439 48.1144 8.64386 47.2144C5.24386 45.8144 4.34385 42.2144 5.44385 38.9144C6.54385 35.6144 9.04385 34.0144 12.4438 33.6144C15.0438 33.3144 17.6439 33.5144 20.1439 34.0144C21.7439 34.3144 21.8438 34.2144 21.7438 32.5144C21.6438 30.7144 21.2439 28.8144 20.6439 27.1144C19.9439 25.2144 18.9438 24.6144 16.9438 25.1144C15.4438 25.5144 13.9439 26.2144 12.8439 27.4144C12.4439 27.9144 11.9438 28.5144 11.4438 28.8144C10.8438 29.2144 9.94387 29.3144 9.34387 28.6144C8.84387 28.0144 8.64384 27.2144 9.24384 26.5144C11.7438 23.7144 14.7439 21.8144 18.6439 22.0144C21.1439 22.2144 22.2438 24.0144 22.9438 26.0144C24.2438 29.7144 24.5438 33.5144 24.9438 37.4144C25.0438 38.0144 24.9439 38.6144 24.3439 38.9144C23.6439 39.3144 22.8438 39.1144 22.2438 38.6144C19.0438 35.8144 15.2439 35.6144 11.3439 36.5144C9.64387 36.9144 8.44383 37.9144 7.74383 39.4144C6.54383 42.1144 8.34383 45.0144 11.2438 45.2144C13.3438 45.3144 15.2438 44.7144 17.0438 43.8144C18.9438 42.9144 20.8439 42.0144 22.6439 41.0144C24.0439 40.7144 24.0438 40.7144 25.5438 41.1144Z" fill="white"/>
<path d="M80.0348 31.0532C79.7158 35.4986 78.5035 39.5574 75.377 42.8431C73.7181 44.5826 71.6125 44.9048 69.2517 44.5826C64.4664 43.9384 61.7866 41.1036 60.3828 36.7227C59.9362 35.3053 60.0638 33.8235 60.3828 32.4062C60.8295 30.409 61.3399 28.4118 62.0418 26.479C62.4884 25.2549 63.0627 24.1597 64.4026 23.6443C64.7854 23.5154 65.0406 23.0644 65.4234 22.8067C67.5928 21.1961 69.8898 20.7451 72.5696 21.3249C76.7807 22.2913 78.6311 25.2549 79.7796 28.9916C80.0986 29.7003 79.971 30.3445 80.0348 31.0532ZM77.2912 31.9552C77.2912 31.6331 77.355 31.2465 77.2912 30.9244C76.3341 26.93 74.1647 24.6106 69.6346 24.2885C67.4652 24.1597 65.6149 25.3193 64.6578 27.3165C63.7007 29.2493 63.1265 31.3753 62.8712 33.5658C62.7436 34.9188 62.935 36.2073 63.6369 37.2381C65.2958 39.7507 67.3376 41.8123 70.7193 41.7479C72.0592 41.7479 73.08 41.4258 73.9733 40.4594C76.0789 38.0112 76.9722 35.112 77.2912 31.9552Z" fill="white"/>
<path d="M32.819 13.7871C32.6914 17.9104 32.6914 21.5826 32.5638 25.1905C32.3724 30.4734 32.6914 35.7563 32.8828 41.0392C33.0742 46.9664 33.3933 52.958 34.2227 58.8852C34.3503 59.7227 34.0951 60.1737 33.5847 60.7535C33.0742 61.3333 32.5 61.2689 31.9257 61.2045C31.3515 61.0756 31.2877 60.4958 31.2239 59.9804C31.0325 58.7563 30.9049 57.5322 30.8411 56.3081C30.6496 50.1877 30.203 44.0672 30.0116 37.9468C29.884 33.0504 29.7564 28.1541 29.8202 23.2577C29.884 20.3585 30.0116 17.4594 30.0754 14.5602C30.1392 11.3389 30.1392 8.11765 30.0754 4.83193C30.0754 3.9944 29.9478 3.15686 29.884 2.31933C29.8202 1.93277 29.7564 1.54622 29.884 1.15966C30.0754 0.45098 30.522 0 31.2877 0C31.9896 0 32.3724 0.45098 32.5 1.09524C32.819 2.19048 32.819 3.28571 32.819 4.44538C32.8828 7.73109 32.5638 11.0168 32.819 13.7871Z" fill="white"/>
<path d="M153.028 29.8936C152.262 27.3165 151.241 25.0616 149.327 23.451C148.306 22.549 146.903 22.3557 145.563 22.4202C144.797 22.4846 144.031 22.4846 143.266 22.7423C142.819 22.8711 142.245 23 141.99 22.4202C141.671 21.6471 141.926 20.6807 142.5 20.3585C142.755 20.2297 143.01 20.1653 143.266 20.1653C144.861 19.972 146.456 19.9076 148.051 19.9076C150.348 19.972 151.688 21.5182 152.773 23.1289C154.559 25.7703 155.452 28.8627 156.218 31.9552C156.41 32.6639 156.346 33.3725 156.665 34.0812C156.92 34.6611 156.665 35.6275 156.027 36.2073C155.58 36.6583 155.197 37.1092 154.687 37.4958C152.326 39.2997 149.838 40.9104 146.966 42.0056C143.074 43.4874 139.884 41.4258 138.034 38.3978C137.204 37.0448 137.651 35.6275 138.416 34.4034C140.203 31.3754 142.819 29.5714 146.392 29.5714C148.242 29.5714 150.029 29.507 151.816 29.8936C152.198 29.8936 152.517 29.8936 153.028 29.8936ZM147.094 32.2129C146.265 32.2129 145.435 32.2129 144.606 32.4706C142.819 32.986 141.543 34.0812 140.777 35.8207C140.586 36.2073 140.522 36.465 140.713 36.916C141.607 38.9132 143.776 40.2661 145.818 39.7507C149.008 38.9132 151.752 37.1737 153.985 34.5966C154.304 34.2101 154.24 33.888 153.857 33.6303C153.602 33.5014 153.411 33.3725 153.092 33.2437C151.114 32.6639 149.136 32.1485 147.094 32.2129Z" fill="white"/>
<path d="M181.421 29.3782C181.421 25.3838 181.485 21.3249 181.421 17.3305C181.357 14.367 181.294 14.3025 178.486 14.6891C176.253 15.0112 174.02 15.2045 171.85 15.9776C171.276 16.1709 170.638 16.1709 170.064 16.2353C169.107 16.2353 169.234 16.1064 169.234 15.0112C169.234 14.1737 169.426 13.7227 170.128 13.3361C170.319 13.2073 170.574 13.1429 170.766 13.1429C173.382 13.465 175.87 12.4986 178.486 12.1765C179.762 11.9832 181.102 11.9188 182.314 11.2101C183.016 10.7591 183.782 11.3389 184.611 11.2745C187.036 11.0812 189.333 10.3726 191.758 10.1793C193.097 10.1149 194.374 9.986 195.713 9.85715C195.905 9.85715 196.033 9.85715 196.224 9.85715C196.734 9.85715 197.053 10.1793 197.245 10.5658C197.564 11.0812 197.117 11.4034 196.862 11.7255C196.415 12.3698 195.713 12.3698 195.075 12.3698C192.013 12.563 188.886 12.8852 185.824 13.4006C185.505 13.465 185.186 13.5294 184.867 13.5938C184.356 13.6583 184.101 13.916 184.165 14.4958C184.548 17.7171 184.165 20.9384 184.356 24.1597C184.548 26.9944 184.548 29.8291 184.484 32.6639C184.484 35.6919 184.548 38.6555 185.122 41.619C185.249 42.1989 185.313 42.8431 184.867 43.3585C184.484 43.874 183.399 44.1317 182.761 43.874C182.059 43.6162 181.995 42.972 181.995 42.3922C181.804 38.2045 181.421 33.7591 181.421 29.3782Z" fill="white"/>
<path d="M241.143 15.5266C241.143 19.2633 241.27 22.9356 240.887 26.6078C240.505 30.409 240.505 34.2745 240.122 38.14C239.739 42.4566 239.739 46.8375 239.739 51.1541C239.739 51.5406 239.867 51.9272 239.994 52.2493C240.249 52.8935 239.867 53.8599 239.292 54.2465C238.654 54.6975 237.952 54.6975 237.251 54.3109C236.74 53.9888 236.676 53.6022 236.676 53.0224C236.804 50.1232 236.868 47.2241 237.059 44.3249C237.314 40.4594 237.633 36.5294 237.889 32.6639C238.144 28.5406 238.527 24.4174 238.527 20.2941C238.527 14.8823 238.654 9.53501 238.399 4.12324C238.335 3.28571 238.08 2.5126 238.208 1.61064C238.335 0.966381 238.59 0.579826 239.165 0.322123C240.122 -0.0644314 240.887 0.386549 241.015 1.41736C241.334 3.54341 241.206 5.66946 241.206 7.73109C241.206 10.437 241.398 13.014 241.143 15.5266Z" fill="white"/>
<path d="M259.003 30.084C257.918 28.2801 256.578 26.7983 254.728 26.0252C253.261 25.381 251.857 25.5098 250.517 26.605C249.943 27.056 249.432 27.507 248.986 28.0868C248.73 28.409 248.348 28.7311 247.965 28.9244C247.39 29.2465 246.752 29.0532 246.242 28.6667C245.732 28.2157 245.732 27.6359 246.051 26.9916C246.306 26.5406 246.625 26.1541 247.008 25.8319C247.901 25.0588 248.858 24.3501 249.815 23.6415C251.602 22.2885 253.516 22.2885 255.494 22.9972C257.918 23.8992 259.96 25.4454 261.364 27.7003C262.193 29.0532 263.023 30.3417 263.597 31.8235C263.852 32.6611 263.916 33.3053 263.342 34.014C262.704 34.7227 261.938 34.5938 261.172 34.2717C258.748 33.1765 256.259 32.6611 253.58 32.7899C250.772 32.9832 248.539 34.2717 247.135 36.7843C246.178 38.4594 246.625 39.8123 248.411 40.5854C250.772 41.6807 253.261 41.4874 255.685 40.8431C257.982 40.1989 259.705 38.7815 261.045 36.8487C261.364 36.3333 261.747 35.8179 262.257 35.4958C262.576 35.2381 262.959 35.1092 263.342 35.3669C263.788 35.6247 263.916 36.0756 263.788 36.5266C263.406 37.7507 263.023 38.9748 262.193 40.0056C260.407 42.1317 258.046 43.2269 255.43 43.8711C252.495 44.5798 249.751 43.8067 246.944 43.2913C245.157 42.9048 243.881 40.972 244.009 38.9748C244.073 37.493 244.455 36.0756 245.285 34.8515C247.582 31.5658 250.581 29.5042 254.792 29.8263C256.004 29.9552 257.472 29.8263 259.003 30.084Z" fill="white"/>
<path d="M268.111 39.8151C268.111 35.4986 267.218 31.3109 266.516 27.1232C266.452 26.6723 266.261 26.2857 266.006 25.8992C265.368 24.8683 265.623 24.0308 266.325 23.1933C268.43 20.5518 271.046 18.6835 274.364 18.0392C276.342 17.6527 278.193 18.2325 279.979 19.1345C281.064 19.7143 281.319 21.6471 280.49 22.4846C280.171 22.8067 279.724 22.7423 279.405 22.549C278.831 22.2269 278.256 21.8403 277.682 21.5826C275.832 20.6162 274.045 20.9384 272.322 21.8403C271.748 22.1625 271.174 22.4846 270.6 22.8067C269.387 23.5154 268.877 24.6106 269.068 26.028C269.515 28.9272 270.025 31.8263 270.472 34.7255C270.855 37.1737 271.174 39.5574 270.727 42.0056C270.536 43.0364 270.025 43.5518 269.26 43.423C268.622 43.3585 268.111 42.7143 268.048 41.8123C268.048 41.4902 268.111 41.1681 268.111 40.7815C268.175 40.4594 268.111 40.1373 268.111 39.8151Z" fill="white"/>
<path d="M162.407 31.4398C162.343 34.3389 162.79 37.3669 161.833 40.2017C161.514 41.1036 160.11 41.7479 159.408 41.2325C158.834 40.7815 158.898 40.0728 159.025 39.5574C159.345 38.4622 159.408 37.3669 159.6 36.2717C159.855 34.9832 159.983 33.7591 159.855 32.4706C159.536 29.5714 159.919 26.6723 159.153 23.8375C158.898 22.8067 159.472 22.0336 160.557 21.7759C164.513 20.8095 168.532 20.5518 172.552 21.6471C172.616 21.6471 172.68 21.6471 172.744 21.7115C173.573 21.9692 174.403 23.0644 174.275 23.6443C174.084 24.2241 172.999 24.8039 172.106 24.4818C170.957 24.0952 169.809 24.0952 168.724 23.8375C167.065 23.5154 165.406 23.5798 163.747 23.902C162.471 24.1597 162.407 24.2241 162.407 25.5126C162.407 27.4454 162.407 29.4426 162.407 31.4398Z" fill="white"/>
<path d="M194.629 40.5238C194.629 41.5546 193.544 42.521 192.587 42.3922C192.077 42.3277 191.694 42.0056 191.63 41.4258C191.183 37.7535 190.737 34.0812 190.354 30.3445C190.29 29.8291 190.226 29.1849 190.864 28.8627C191.375 28.605 191.885 28.1541 192.587 28.4118C193.289 28.6695 193.289 29.3137 193.353 29.958C193.48 33.3725 193.927 36.7227 194.565 40.0084C194.565 40.2017 194.565 40.395 194.629 40.5238Z" fill="white"/>
<path d="M99.8782 38.0112C99.8782 36.8515 99.8782 35.6919 99.8782 34.4678C99.8144 32.7927 99.6868 32.6639 98.0278 32.7283C95.1566 32.8571 92.2854 33.0504 89.478 33.5014C89.2865 33.5014 89.0313 33.6303 88.8399 33.6303C88.3295 33.5658 87.8828 33.437 87.6276 32.8571C87.3724 32.3417 87.5 31.8908 87.8828 31.4398C88.7123 30.4734 89.797 30.1513 91.0093 30.1513C92.9872 30.1513 94.9652 29.958 96.9432 29.7647C99.4954 29.507 99.4954 29.507 99.4954 26.8655C99.4954 25.5126 99.1763 24.2241 98.9849 22.8711C98.9211 22.1625 98.7297 21.4538 98.8573 20.6807C99.0487 19.7787 99.7506 19.1345 100.516 19.1345C101.282 19.1989 101.729 19.7143 101.856 20.7451C102.048 22.8711 102.175 24.9972 102.239 27.0588C102.239 28.9916 102.303 28.9916 104.153 28.9916C106.322 28.9916 108.492 29.056 110.597 29.056C111.491 29.056 112.256 29.6359 112.256 30.2801C112.32 30.9888 111.299 31.9552 110.406 31.8263C108.109 31.4398 105.812 32.0196 103.451 31.9552C102.622 31.9552 102.367 32.2773 102.43 33.0504C102.558 35.6919 102.622 38.2689 102.813 40.9104C102.877 41.8123 102.558 42.3922 101.856 42.8431C100.835 43.423 99.8144 42.9076 99.7506 41.6835C99.8144 40.5882 99.8144 39.2997 99.8782 38.0112Z" fill="white"/>
<path d="M107.918 41.1681C108.045 40.0728 108.875 39.2353 109.832 39.2997C110.725 39.3641 111.491 40.2017 111.363 41.1036C111.235 42.07 110.215 42.972 109.321 42.9076C108.492 42.8431 107.854 42.0056 107.918 41.1681Z" fill="white"/>
<path d="M92.5406 21.8403C92.5406 22.4846 91.3283 23.6443 90.6264 23.7087C89.797 23.7731 89.0313 22.9356 89.0313 22.098C89.0951 21.1316 89.9884 20.1008 90.6903 20.1008C91.5197 20.1653 92.5406 21.1316 92.5406 21.8403Z" fill="white"/>
<path d="M107.152 20.6162C107.216 19.3277 107.918 18.5546 109.066 18.619C109.832 18.6835 110.47 19.4566 110.406 20.1653C110.342 21.1317 109.385 22.2269 108.556 22.2269C107.726 22.2269 107.152 21.5826 107.152 20.6162Z" fill="white"/>
<path d="M91.3921 44.3249C90.5626 44.2605 90.116 43.7451 90.116 42.9076C90.116 41.8123 91.1369 40.8459 92.1578 40.9104C92.8596 40.9748 93.4977 41.619 93.4977 42.3922C93.4339 43.423 92.413 44.3894 91.3921 44.3249Z" fill="white"/>
<path d="M192.013 18.6835C192.013 19.5854 191.183 20.2941 190.099 20.2941C189.397 20.2941 189.014 19.8431 188.95 19.1345C188.886 18.1036 189.843 17.1373 190.8 17.1373C191.439 17.2017 192.013 17.9104 192.013 18.6835Z" fill="white"/>
</g>
<defs>
<clipPath id="clip0">
<rect width="275" height="69" fill="white" transform="translate(5)"/>
</clipPath>
</defs>
</svg>
