<svg width="285" height="70" viewBox="0 0 285 70" fill="none" xmlns="http://www.w3.org/2000/svg">
<path d="M53.4489 39.6218C53.1937 39.6863 53.0661 39.6863 53.0661 39.7507C50.7053 43.4874 46.9408 44.0028 43.0487 44.2605C41.8364 44.3249 40.8155 43.5518 39.9861 42.7787C37.3701 40.4594 35.9664 37.6246 36.6682 34.0168C37.2425 31.2465 37.9443 28.4762 39.0928 25.8347C39.7309 24.4174 40.8155 23.5154 41.9002 22.6134C42.2831 22.2913 44.261 21.4538 45.4733 21.4538C46.6856 21.4538 48.9826 21.7759 50.6415 22.2913C51.2158 22.4846 51.5986 22.9356 51.9814 23.5154C54.4698 27.381 55.3631 31.6975 55.6183 36.2073C55.6821 37.3669 55.8735 38.5266 56.065 39.6863C56.9582 44.9692 57.5963 50.3165 58.2343 55.6639C58.4895 57.5322 58.5534 59.465 57.9791 61.3333C56.8944 64.6835 54.7889 67.3894 51.471 68.6779C50.1311 69.1933 48.6636 69.1288 47.196 68.8067C44.58 68.2269 41.9002 67.7115 39.7947 65.7787C38.8376 64.9412 38.5824 64.0392 39.1566 62.8796C39.4118 62.4286 39.7947 62.3641 40.3051 62.3641C40.8793 62.4286 41.326 62.7507 41.7088 63.1372C43.942 65.0056 46.558 65.972 49.493 65.972C51.152 65.972 52.4281 65.3277 53.5127 64.0392C55.1717 62.042 56.1288 59.8515 55.8097 57.1457C55.4269 53.4734 55.1079 49.8011 54.4698 46.1933C54.2146 44.7115 54.087 43.2297 53.8956 41.7479C53.8956 40.9748 53.8318 40.2661 53.4489 39.6218ZM52.5557 34.2101C52.5557 32.2773 51.4072 28.4118 50.6415 26.7367C50.1311 25.5126 49.2378 24.8683 48.0893 24.6106C44.7715 23.8375 42.3469 24.2885 40.8793 27.9608C40.5603 28.7983 40.2413 29.6359 39.9861 30.4734C39.667 31.8908 39.2842 33.3081 39.0928 34.7255C38.8376 36.5938 39.6032 38.2045 40.8155 39.6218C41.2622 40.0728 41.4536 40.7171 42.1554 40.9748C44.7076 41.8767 47.196 41.2969 49.2378 39.944C51.4072 38.5266 52.3643 36.2073 52.5557 34.2101Z" fill="white"/>
<path d="M197.067 37.9841C197.067 37.1771 197 36.3701 197.067 35.5631C197.533 31.1245 199.933 28.031 203.666 25.9462C205.533 24.8702 207.266 25.8789 208.999 26.5514C209.532 26.7532 209.799 27.4257 209.532 28.031C209.266 28.6362 209.066 29.376 208.132 29.3087C207.599 29.2415 207.066 29.2415 206.599 29.107C205.199 28.6362 204.133 29.2415 203.066 29.9812C200.533 31.797 199.866 34.4198 199.733 37.3116C199.666 39.2619 199.733 41.1449 201.8 42.2882C203.399 43.2297 204.933 44.2385 206.932 43.835C207.599 43.7005 208.332 43.7677 208.999 43.7005C210.332 43.6332 211.599 43.1625 212.665 42.3554C213.932 41.4139 215.132 40.4724 216.398 39.5982C216.732 39.3291 216.798 39.0601 216.798 38.7239C216.865 35.1596 217.5 30 218.998 26.1479C219.065 25.7444 219.265 25.3409 219.398 25.0047C219.798 23.9959 220.665 23.5251 221.398 23.7941C221.998 24.0631 222.331 25.0719 221.998 25.9462C221.664 26.8877 220.931 29.9812 220.531 30.9228C219.798 32.873 219.731 34.8906 219.398 36.9081C219.131 38.5894 220.331 40.7414 221.598 41.3467C223.064 42.0192 225.531 41.6157 226.797 40.3379C229.93 37.0426 231.167 30.7883 229.7 26.3497C229.433 25.4754 229.3 24.6684 229.5 23.7941C229.7 22.9871 230.167 22.5164 230.9 22.5164C231.7 22.4491 232.033 23.1216 232.166 23.7269C232.966 26.5514 233.33 31.8643 232.663 34.8233C231.93 38.1186 230.397 40.8759 227.864 43.0952C227.597 43.297 227.51 43.6756 226.465 44.1975C224.382 45.2384 222.598 45.0455 220.265 44.3057C219.531 44.0367 218.998 43.566 218.531 42.9607C217.865 42.0192 217.665 41.9519 216.732 42.7589C215.732 43.566 214.665 44.2385 213.665 45.0455C212.199 46.3233 210.465 47.063 208.399 46.9958C206.932 46.9285 205.533 46.9285 204.066 46.9285C203.399 46.9285 202.866 46.7268 202.266 46.4578C200.933 45.8525 199.8 44.9782 198.667 44.0367C197.6 43.1625 197.067 42.0864 197 40.7414C197 39.7327 197.067 38.8584 197.067 37.9841Z" fill="white"/>
<path d="M119.959 52.2553C119.591 50.373 120.254 47.8884 120.033 45.3285C119.812 42.8439 120.106 40.284 120.254 37.7241C120.475 34.1855 120.033 30.7221 119.297 27.2587C118.929 25.4517 119.518 24.0965 120.769 22.8918C122.462 21.386 124.523 20.7837 126.731 20.4825C129.086 20.106 131.368 19.6543 133.723 20.4072C136.078 21.1601 138.139 22.4401 139.611 24.4729C140.863 26.2046 141.304 28.2375 140.789 30.4209C140.347 32.1526 139.611 33.7337 138.802 35.2395C137.55 37.423 135.416 38.5523 133.429 39.8323C130.485 41.6393 127.393 43.2204 124.155 44.425C123.271 44.7262 122.977 45.2532 122.977 46.1567C122.83 48.4154 122.903 50.6742 122.83 53.0082C122.756 57.6009 122.241 62.1184 122.388 66.7112C122.388 67.4641 122.167 68.1417 121.579 68.5934C120.99 69.0452 120.254 69.1205 119.591 68.8193C118.929 68.5181 119.002 67.9158 119.002 67.3135C119.076 66.1088 119.223 64.8289 119.297 63.6242C119.518 60.0103 119.738 56.4716 119.959 52.2553ZM123.419 36.6701C123.419 37.95 123.419 39.3052 123.419 40.5852C123.419 41.8651 123.639 42.091 124.67 41.564C127.761 39.9829 130.926 38.5523 133.797 36.5948C135.637 35.3148 137.035 33.5831 137.698 31.3997C138.139 29.8186 138.654 28.0116 137.55 26.7317C135.858 24.7741 133.944 23.1177 131.147 22.8918C128.865 22.6659 126.804 23.2683 124.817 23.9459C122.756 24.6235 122.609 25 122.756 27.2587C122.903 30.3456 123.934 33.4325 123.419 36.6701Z" fill="white"/>
<path d="M24.5438 41.1144C24.5438 42.2144 23.4438 42.5144 22.7438 43.1144C20.0438 45.1144 17.2439 46.9144 13.8439 47.7144C11.7439 48.2144 9.74386 48.1144 7.64386 47.2144C4.24386 45.8144 3.34385 42.2144 4.44385 38.9144C5.54385 35.6144 8.04385 34.0144 11.4438 33.6144C14.0438 33.3144 16.6439 33.5144 19.1439 34.0144C20.7439 34.3144 20.8438 34.2144 20.7438 32.5144C20.6438 30.7144 20.2439 28.8144 19.6439 27.1144C18.9439 25.2144 17.9438 24.6144 15.9438 25.1144C14.4438 25.5144 12.9439 26.2144 11.8439 27.4144C11.4439 27.9144 10.9438 28.5144 10.4438 28.8144C9.84385 29.2144 8.94387 29.3144 8.34387 28.6144C7.84387 28.0144 7.64383 27.2144 8.24384 26.5144C10.7438 23.7144 13.7439 21.8144 17.6439 22.0144C20.1439 22.2144 21.2438 24.0144 21.9438 26.0144C23.2438 29.7144 23.5438 33.5144 23.9438 37.4144C24.0438 38.0144 23.9439 38.6144 23.3439 38.9144C22.6439 39.3144 21.8438 39.1144 21.2438 38.6144C18.0438 35.8144 14.2439 35.6144 10.3439 36.5144C8.64387 36.9144 7.44384 37.9144 6.74383 39.4144C5.54383 42.1144 7.34383 45.0144 10.2438 45.2144C12.3438 45.3144 14.2438 44.7144 16.0438 43.8144C17.9438 42.9144 19.8439 42.0144 21.6439 41.0144C23.0439 40.7144 23.0438 40.7144 24.5438 41.1144Z" fill="white"/>
<path d="M79.0348 32.0532C78.7158 36.4986 77.5035 40.5574 74.377 43.8431C72.7181 45.5826 70.6125 45.9048 68.2517 45.5826C63.4664 44.9384 60.7866 42.1036 59.3828 37.7227C58.9362 36.3053 59.0638 34.8235 59.3828 33.4062C59.8295 31.409 60.3399 29.4118 61.0418 27.479C61.4884 26.2549 62.0627 25.1597 63.4026 24.6443C63.7854 24.5154 64.0406 24.0644 64.4234 23.8067C66.5928 22.1961 68.8898 21.7451 71.5696 22.3249C75.7807 23.2913 77.6311 26.2549 78.7796 29.9916C79.0986 30.7003 78.971 31.3445 79.0348 32.0532ZM76.2912 32.9552C76.2912 32.633 76.355 32.2465 76.2912 31.9244C75.3341 27.93 73.1647 25.6106 68.6346 25.2885C66.4652 25.1597 64.6149 26.3193 63.6578 28.3165C62.7007 30.2493 62.1265 32.3753 61.8712 34.5658C61.7436 35.9188 61.935 37.2073 62.6369 38.2381C64.2958 40.7507 66.3376 42.8123 69.7193 42.7479C71.0592 42.7479 72.08 42.4258 72.9733 41.4594C75.0789 39.0112 75.9722 36.112 76.2912 32.9552Z" fill="white"/>
<path d="M31.819 13.7871C31.6914 17.9104 31.6914 21.5826 31.5638 25.1905C31.3724 30.4734 31.6914 35.7563 31.8828 41.0392C32.0742 46.9664 32.3933 52.958 33.2227 58.8852C33.3503 59.7227 33.0951 60.1737 32.5847 60.7535C32.0742 61.3333 31.5 61.2689 30.9257 61.2045C30.3515 61.0756 30.2877 60.4958 30.2239 59.9804C30.0325 58.7563 29.9049 57.5322 29.8411 56.3081C29.6496 50.1877 29.203 44.0672 29.0116 37.9468C28.884 33.0504 28.7564 28.1541 28.8202 23.2577C28.884 20.3585 29.0116 17.4594 29.0754 14.5602C29.1392 11.3389 29.1392 8.11765 29.0754 4.83193C29.0754 3.9944 28.9478 3.15686 28.884 2.31933C28.8202 1.93277 28.7564 1.54622 28.884 1.15966C29.0754 0.45098 29.522 0 30.2877 0C30.9896 0 31.3724 0.45098 31.5 1.09524C31.819 2.19048 31.819 3.28571 31.819 4.44538C31.8828 7.73109 31.5638 11.0168 31.819 13.7871Z" fill="white"/>
<path d="M156.44 33.986C155.674 31.409 154.414 27.1106 152.5 25.5C151.479 24.598 150.075 24.4048 148.735 24.4692C147.97 24.5336 145.266 25.7423 144.5 26C144.053 26.1289 143.479 26.2577 143.224 25.6779C142.905 24.9048 143.16 23.9384 143.734 23.6162C144.747 23.0483 146.5 22.4 147.5 22.2C148.5 22 149.629 21.9566 151.224 21.9566C153.521 22.021 154.861 23.5672 155.945 25.1779C157.732 27.8193 158.864 32.9552 159.63 36.0476C159.821 36.7563 159.757 37.465 160.076 38.1737C160.332 38.7535 160.076 39.7199 159.438 40.2997C158.992 40.7507 158.609 41.2017 158.098 41.5882C155.738 43.3922 153.249 45.0028 150.378 46.098C146.486 47.5798 143.296 45.5182 141.445 42.4902C140.616 41.1373 141.062 39.7199 141.828 38.4958C143.615 35.4678 146.231 33.6639 149.804 33.6639C151.654 33.6639 153.441 33.5994 155.227 33.986C155.61 33.986 155.929 33.986 156.44 33.986ZM150.506 36.3053C149.676 36.3053 148.847 36.3053 148.017 36.563C146.231 37.0784 144.955 38.1737 144.189 39.9132C143.998 40.2997 143.934 40.5574 144.125 41.0084C145.018 43.0056 147.188 44.3585 149.23 43.8431C152.42 43.0056 155.163 41.2661 157.397 38.6891C157.716 38.3025 157.652 37.9804 157.269 37.7227C157.014 37.5938 156.822 37.465 156.503 37.3361C154.525 36.7563 152.547 36.2409 150.506 36.3053Z" fill="white"/>
<path d="M180.421 29.3782C180.421 25.3838 180.485 21.3249 180.421 17.3305C180.357 14.367 180.294 14.3025 177.486 14.6891C175.253 15.0112 173.02 15.2045 170.85 15.9776C170.276 16.1709 169.638 16.1709 169.064 16.2353C168.107 16.2353 168.234 16.1064 168.234 15.0112C168.234 14.1737 168.426 13.7227 169.128 13.3361C169.319 13.2073 169.574 13.1429 169.766 13.1429C172.382 13.465 174.87 12.4986 177.486 12.1765C178.762 11.9832 180.102 11.9188 181.314 11.2101C182.016 10.7591 182.782 11.3389 183.611 11.2745C186.036 11.0812 188.333 10.3726 190.758 10.1793C192.097 10.1149 193.374 9.986 194.713 9.85715C194.905 9.85715 195.033 9.85715 195.224 9.85715C195.734 9.85715 196.053 10.1793 196.245 10.5658C196.564 11.0812 196.117 11.4034 195.862 11.7255C195.415 12.3698 194.713 12.3698 194.075 12.3698C191.013 12.563 187.886 12.8852 184.824 13.4006C184.505 13.465 184.186 13.5294 183.867 13.5938C183.356 13.6583 183.101 13.916 183.165 14.4958C183.548 17.7171 183.165 20.9384 183.356 24.1597C183.548 26.9944 183.548 29.8291 183.484 32.6639C183.484 35.6919 183.548 42.2815 184.122 45.2451C184.249 45.8249 184.313 46.4692 183.867 46.9846C183.484 47.5 182.399 47.7577 181.761 47.5C181.059 47.2423 180.995 46.598 180.995 46.0182C180.804 41.8305 180.421 33.7591 180.421 29.3782Z" fill="white"/>
<path d="M240.016 13.7871C239.888 17.9104 239.888 21.5826 239.761 25.1905C239.569 30.4734 239.888 35.7563 240.08 41.0392C240.271 46.9664 240.59 52.958 241.42 58.8852C241.547 59.7227 241.292 60.1737 240.781 60.7535C240.271 61.3333 239.697 61.2689 239.123 61.2045C238.548 61.0756 238.484 60.4958 238.421 59.9804C238.229 58.7563 238.102 57.5322 238.038 56.3081C237.846 50.1877 237.4 44.0672 237.208 37.9468C237.081 33.0504 236.953 28.1541 237.017 23.2577C237.081 20.3585 237.208 17.4594 237.272 14.5602C237.336 11.3389 237.336 8.11765 237.272 4.83193C237.272 3.9944 237.145 3.15686 237.081 2.31933C237.017 1.93277 236.953 1.54622 237.081 1.15966C237.272 0.45098 237.719 0 238.484 0C239.186 0 239.569 0.45098 239.697 1.09524C240.016 2.19048 240.016 3.28571 240.016 4.44538C240.08 7.73109 239.761 11.0168 240.016 13.7871Z" fill="white"/>
<path d="M259.003 31.9814C257.918 30.1775 255.585 26.2713 253.734 25.4982C252.267 24.8539 250.863 24.9828 249.523 26.078C248.949 26.529 248.439 26.98 247.992 27.5598C247.737 27.8819 247.354 28.2041 246.971 28.3973C246.397 28.7195 245.759 28.5262 245.248 28.1396C244.738 27.6887 244.738 27.1088 245.057 26.4646C245.312 26.0136 245.631 25.627 246.014 25.3049C246.907 24.5318 247.864 23.8231 248.821 23.1144C250.608 21.7615 252.522 21.7615 254.5 22.4702C256.925 23.3721 259.96 27.3427 261.364 29.5976C262.193 30.9506 263.023 32.2391 263.597 33.7209C263.852 34.5584 263.916 35.2027 263.342 35.9113C262.704 36.62 261.938 36.4912 261.172 36.169C258.748 35.0738 256.259 34.5584 253.58 34.6873C250.772 34.8805 248.539 36.169 247.135 38.6817C246.178 40.3567 246.625 41.7097 248.411 42.4828C250.772 43.578 253.261 43.3847 255.685 42.7405C257.982 42.0962 259.705 40.6789 261.045 38.7461C261.364 38.2307 261.747 37.7153 262.257 37.3931C262.576 37.1354 262.959 37.0066 263.342 37.2643C263.788 37.522 263.916 37.973 263.788 38.424C263.406 39.648 263.023 40.8721 262.193 41.9029C260.407 44.029 258.046 45.1242 255.43 45.7685C252.495 46.4772 249.751 45.7041 246.944 45.1887C245.157 44.8021 243.881 42.8693 244.009 40.8721C244.073 39.3903 244.455 37.973 245.285 36.7489C247.582 33.4632 250.581 31.4015 254.792 31.7237C256.004 31.8525 257.472 31.7237 259.003 31.9814Z" fill="white"/>
<path d="M268.111 42.8151C268.111 38.4986 267.218 34.3109 266.516 30.1232C266.452 29.6723 266.261 29.2857 266.006 28.8992C265.368 27.8683 265.623 27.0308 266.325 26.1933C268.43 23.5518 271.046 21.6835 274.364 21.0392C276.342 20.6527 278.193 21.2325 279.979 22.1345C281.064 22.7143 281.319 24.6471 280.49 25.4846C280.171 25.8067 279.724 25.7423 279.405 25.549C278.831 25.2269 278.256 24.8403 277.682 24.5826C275.832 23.6162 274.045 23.9384 272.322 24.8403C271.748 25.1625 271.174 25.4846 270.6 25.8067C269.387 26.5154 268.877 27.6106 269.068 29.028C269.515 31.9272 270.025 34.8263 270.472 37.7255C270.855 40.1737 271.174 42.5574 270.727 45.0056C270.536 46.0364 270.025 46.5518 269.26 46.423C268.622 46.3585 268.111 45.7143 268.048 44.8123C268.048 44.4902 268.111 44.1681 268.111 43.7815C268.175 43.4594 268.111 43.1373 268.111 42.8151Z" fill="white"/>
<path d="M164.833 45.5C165.79 42.6653 165.343 36.3389 165.407 33.4398V27.5126C165.407 26.2241 165.471 26.1597 166.747 25.902C168.406 25.5798 170.065 25.5154 171.724 25.8375C172.809 26.0952 173.957 26.0952 175.106 26.4818C175.999 26.8039 177.084 26.2241 177.275 25.6443C177.403 25.0644 176.573 23.9692 175.744 23.7115C175.68 23.6471 175.616 23.6471 175.552 23.6471C171.532 22.5518 167.513 22.8095 163.557 23.7759C162.472 24.0336 161.898 24.8067 162.153 25.8375C162.5 28.5 162.699 40.0434 162.6 38.2717C162.408 39.3669 162.345 43.7605 162.025 44.8557C161.898 45.3711 161.834 46.0798 162.408 46.5308C163.11 47.0462 164.514 46.402 164.833 45.5Z" fill="white"/>
<path d="M193.629 44.1317C193.629 45.1625 192.544 46.1289 191.587 46C191.077 45.9356 190.694 45.6134 190.63 45.0336C190.183 41.3613 189 31 189 27C188.936 26.4846 188.872 25.8403 189.51 25.5182C190.021 25.2605 190.531 24.8095 191.233 25.0672C191.935 25.3249 191.935 25.9692 191.999 26.6134C192.126 30.028 192.927 36.7227 193.565 40.0084C194 42.5 193.629 44.1317 193.629 44.1317Z" fill="white"/>
<path d="M192 18.9592C192 20.102 190.918 21 189.502 21C188.587 21 188.087 20.4286 188.004 19.5306C187.921 18.2245 189.169 17 190.418 17C191.251 17.0816 192 17.9796 192 18.9592Z" fill="white"/>
<path d="M98.8782 41.0112C98.8782 39.8515 98.8782 38.6919 98.8782 37.4678C98.8144 35.7927 98.6868 35.6639 97.0278 35.7283C94.1566 35.8571 91.2854 36.0504 88.478 36.5014C88.2865 36.5014 88.0313 36.6303 87.8399 36.6303C87.3295 36.5658 86.8828 36.437 86.6276 35.8571C86.3724 35.3417 86.5 34.8908 86.8828 34.4398C87.7123 33.4734 88.797 33.1513 90.0093 33.1513C91.9872 33.1513 93.9652 32.958 95.9432 32.7647C98.4954 32.507 98.4954 32.507 98.4954 29.8655C98.4954 28.5126 98.1763 27.2241 97.9849 25.8711C97.9211 25.1625 97.7297 24.4538 97.8573 23.6807C98.0487 22.7787 98.7506 22.1345 99.5162 22.1345C100.282 22.1989 100.729 22.7143 100.856 23.7451C101.048 25.8711 101.175 27.9972 101.239 30.0588C101.239 31.9916 101.303 31.9916 103.153 31.9916C105.322 31.9916 107.492 32.056 109.597 32.056C110.491 32.056 111.256 32.6359 111.256 33.2801C111.32 33.9888 110.299 34.9552 109.406 34.8263C107.109 34.4398 104.812 35.0196 102.451 34.9552C101.622 34.9552 101.367 35.2773 101.43 36.0504C101.558 38.6919 101.622 41.2689 101.813 43.9104C101.877 44.8123 101.558 45.3922 100.856 45.8431C99.8353 46.423 98.8144 45.9076 98.7506 44.6835C98.8144 43.5882 98.8144 42.2997 98.8782 41.0112Z" fill="white"/>
<path d="M106.918 44.1681C107.045 43.0728 107.875 42.2353 108.832 42.2997C109.725 42.3641 110.491 43.2017 110.363 44.1036C110.236 45.07 109.215 45.972 108.321 45.9076C107.492 45.8431 106.854 45.0056 106.918 44.1681Z" fill="white"/>
<path d="M91.5406 24.8403C91.5406 25.4846 90.3283 26.6443 89.6264 26.7087C88.797 26.7731 88.0313 25.9356 88.0313 25.098C88.0951 24.1316 88.9884 23.1008 89.6903 23.1008C90.5197 23.1653 91.5406 24.1316 91.5406 24.8403Z" fill="white"/>
<path d="M106.152 23.6162C106.216 22.3277 106.918 21.5546 108.066 21.619C108.832 21.6835 109.47 22.4566 109.406 23.1653C109.342 24.1317 108.385 25.2269 107.556 25.2269C106.726 25.2269 106.152 24.5826 106.152 23.6162Z" fill="white"/>
<path d="M90.3921 47.3249C89.5626 47.2605 89.116 46.7451 89.116 45.9076C89.116 44.8123 90.1369 43.8459 91.1578 43.9104C91.8596 43.9748 92.4977 44.619 92.4977 45.3922C92.4339 46.423 91.413 47.3894 90.3921 47.3249Z" fill="white"/>
</svg>
