<svg width="138" height="191" viewBox="0 0 138 191" fill="none" xmlns="http://www.w3.org/2000/svg">
<path d="M38.978 153.093C40.1345 155.106 41.034 155.749 42.9186 155.235C44.8889 154.678 47.0734 155.063 49.0866 154.507C49.6006 154.378 50.2431 154.549 50.7999 154.635C51.4852 154.764 52.2134 154.978 52.2562 155.834C52.2562 156.563 51.6137 156.648 51.0569 156.82C49.5577 157.248 48.4013 158.062 47.9301 159.689C49.2151 160.375 50.3287 159.732 51.4424 159.647C52.7274 159.561 53.9695 159.432 55.2545 159.39C55.9827 159.347 56.7965 159.432 56.8393 160.332C56.925 161.274 56.1112 161.274 55.383 161.36C53.9267 161.488 52.3847 161.017 50.5429 162.345C57.7817 164.958 64.4636 166.928 71.6596 164.23C74.7007 163.073 77.442 161.574 80.0548 159.518C85.152 155.492 86.4369 150.437 84.9806 144.484C84.381 142.128 83.3958 139.901 82.6676 137.588C80.0548 129.449 78.8983 120.926 76.8424 112.659C75.8572 108.632 74.6579 104.692 73.33 100.751C72.8589 99.3377 72.0879 97.9242 71.1027 96.8962C69.7749 95.4827 70.2461 94.9259 71.1456 93.3411C74.6579 86.7876 79.1125 80.534 79.3695 72.6099C79.4552 70.4254 80.1833 68.2838 80.269 66.0993C80.783 56.1192 77.2707 47.7239 69.4751 41.4275C64.3351 37.2727 58.467 37.6154 53.2842 41.8986C50.4572 44.2545 48.4869 47.2956 46.9878 50.5509C45.0174 54.877 42.9186 59.1175 41.3766 63.615C40.0917 67.3843 39.9203 71.1964 41.548 74.7944C43.8181 79.8487 45.8313 85.0743 49.3008 89.4861C50.0289 90.3856 51.4852 91.7134 50.0717 92.7414C48.8724 93.6837 47.8444 92.0989 46.9878 91.2422C45.7456 90.0001 45.146 88.3296 44.375 86.7448C42.7045 83.3181 40.8626 79.9343 39.492 76.3792C37.95 72.2244 37.2647 67.9411 39.1493 63.5293C41.9335 56.933 44.1608 50.0798 48.1871 44.0831C50.5429 40.5708 53.6269 38.0437 57.6103 36.7587C62.322 35.2167 66.6909 35.9449 70.6316 39.1145C75.643 43.1408 78.7698 48.2808 80.8687 54.4059C82.7105 59.76 83.3958 64.9 81.9823 70.3397C81.811 71.0251 81.7253 71.7104 81.7253 72.3957C81.8966 78.5637 79.4123 83.9178 76.671 89.1434C75.7287 90.9852 75.386 93.1269 73.8869 94.6689C73.2444 95.3114 73.8012 96.0395 74.101 96.5535C75.6002 99.0807 76.4569 101.822 77.0565 104.649C77.3564 105.934 78.1702 106.791 79.1982 107.69C83.5243 111.374 88.3644 114.372 92.8619 117.799C98.0447 121.739 100.829 127.008 102.499 133.004C103.527 136.688 104.341 140.415 105.198 144.141C105.326 144.698 105.498 145.554 105.198 145.811C103.227 147.525 104.17 149.495 104.384 151.508C104.684 154.335 103.099 156.605 101.9 158.961C100.572 161.574 100.615 162.088 103.356 162.859C105.069 163.373 106.868 163.63 108.624 164.315C107.082 165.343 105.369 165.172 103.87 164.658C100.315 163.459 97.445 163.93 94.4896 166.585C92.1337 168.684 89.4781 170.655 86.5655 172.111C82.6677 174.124 78.4272 174.681 74.2295 175.409C72.6447 175.666 71.4454 176.137 70.5031 177.551C69.3466 179.307 68.1044 180.977 66.7766 182.562C59.495 191.172 51.9992 191.985 42.1905 188.045C40.1773 187.231 39.4063 185.303 38.7638 183.419C38.1213 181.577 37.2218 179.864 36.2367 178.193C33.4525 173.31 31.8677 167.999 31.6964 162.345C31.5679 157.419 31.0539 152.408 32.8957 147.568C33.2812 146.54 33.1527 145.255 32.9385 144.141C31.9534 139.387 32.5102 134.632 33.1099 129.963C33.8809 124.052 35.637 118.27 37.5645 112.53C39.4063 107.005 42.1476 101.951 44.4606 96.6392C45.0603 95.2257 45.7028 94.6261 47.2876 94.9259C48.0586 95.0544 48.8724 94.7117 49.6862 94.6689C50.4144 94.6261 51.0569 94.7546 51.3567 95.5684C51.6566 96.425 51.5709 97.196 50.9284 97.7957C50.6286 98.1384 50.1574 98.3954 49.8147 97.8385C48.4441 95.8254 47.1591 97.5387 46.1739 98.1812C45.2316 98.7809 44.1608 99.9374 45.8741 101.18C46.3881 101.565 47.6303 102.807 48.3156 102.764C49.0437 102.679 49.8147 102.721 49.9861 103.578C50.1146 104.221 49.5149 104.52 48.9152 104.692C47.5874 105.077 46.3024 105.677 44.9318 105.848C42.6616 106.191 41.3766 107.347 40.9483 109.532C40.7342 110.646 39.8347 111.588 40.1345 113.087C41.7621 113.13 43.3898 112.787 44.9318 112.23C45.5743 111.973 46.2596 111.716 46.9021 111.631C47.8444 111.502 48.5726 111.845 48.2728 113.001C47.8016 114.629 47.7159 116.385 46.3024 117.713C45.6171 118.398 44.3321 119.041 45.4029 120.54C45.8741 121.225 44.8461 121.654 44.3321 122.039C41.2481 124.352 40.9911 124.738 40.1773 128.678C40.9911 129.192 41.7193 128.764 42.4903 128.55C43.1328 128.336 43.7753 128.036 44.5035 128.635C44.118 130.606 42.4903 130.906 40.9055 131.248C39.5348 131.505 38.5925 132.062 38.5497 133.69C38.464 135.66 38.5925 135.874 40.6485 135.574C41.6765 135.446 42.7045 135.232 43.7325 135.103C44.5035 135.018 45.1031 135.36 45.1459 136.217C45.1888 136.945 44.6748 137.202 44.0323 137.331C42.6616 137.545 41.291 137.673 39.9203 137.973C37.9928 138.359 36.2367 141.485 36.8363 143.37C37.0077 143.927 37.436 144.055 37.9072 144.055C39.2778 144.098 40.6485 144.141 42.0191 143.541C42.8758 143.199 43.8181 143.027 44.7176 142.899C45.4458 142.77 46.2596 142.942 46.3881 143.755C46.5166 144.655 45.6599 144.698 44.9746 144.869C42.4903 145.383 40.1345 146.368 37.5217 146.497C35.8512 146.582 35.5942 147.268 36.3223 148.81C37.1362 150.566 38.4212 151.251 40.9483 150.994C42.7901 150.823 44.5891 150.395 46.4309 150.095C47.1163 149.966 47.8016 149.881 48.4869 149.838C49.0009 149.838 49.3864 150.138 49.4721 150.652C49.5577 151.166 49.3007 151.508 48.7868 151.722C46.5166 152.622 44.0751 152.922 41.6765 153.179C41.034 153.179 40.263 153.093 38.978 153.093ZM68.1901 176.009C64.8063 175.452 61.8508 175.066 58.981 174.253C57.7817 173.91 56.668 173.225 55.3402 173.182C52.5132 173.053 51.9564 173.439 52.0849 176.18C52.1277 177.422 51.9564 178.664 52.9416 179.778C53.9695 180.977 52.7702 182.091 52.2562 183.162C52.0421 183.59 51.5281 183.847 51.0569 183.547C50.2002 182.991 50.0289 182.005 50.0289 181.106C49.9861 178.108 49.9861 175.066 50.0289 172.068C50.0717 170.74 50.6286 169.841 52.1706 170.012C54.7834 170.269 57.3962 170.269 59.9662 171.383C62.0221 172.282 64.4208 172.625 66.7338 172.882C69.0467 173.139 71.3169 172.925 73.1587 170.997C74.2724 169.841 75.7287 168.984 77.0994 168.17C81.811 165.3 86.6083 162.516 90.5061 158.533C93.0332 155.963 93.6329 155.92 96.7169 157.933C97.1024 158.19 97.445 158.533 97.8305 158.79C98.3874 159.175 98.9442 159.133 99.3297 158.576C101.471 155.706 102.928 152.665 101.985 148.895C101.557 147.268 100.486 146.582 98.9442 146.625C95.7317 146.754 92.9904 148.339 90.1634 149.709C88.3644 150.609 88.2359 152.536 87.6791 154.078C86.7368 156.691 85.2376 159.004 83.2673 160.632C74.9577 167.656 65.6201 170.526 54.9119 166.8C53.07 166.157 51.3567 164.915 49.3008 165.215C47.8873 165.429 46.8593 164.829 45.7456 164.101C43.7325 162.773 42.6616 162.988 41.548 165.215C40.4772 167.399 39.9632 169.798 39.3635 172.154C38.6782 174.767 39.1922 177.208 40.263 179.564C40.9911 181.192 42.7473 182.348 42.5331 184.447C42.4903 184.747 43.09 185.218 43.4755 185.389C47.2448 187.188 51.3139 188.216 55.2974 187.188C61.1655 185.775 64.8491 181.234 68.1901 176.009ZM79.241 112.059C81.04 120.669 81.7253 129.578 85.4946 137.759C86.3085 139.515 87.0366 141.357 87.5078 143.241C88.4929 147.225 88.7928 147.439 92.5192 146.068C93.5044 145.726 94.4467 145.255 95.3462 144.741C97.1024 143.627 98.9442 143.199 100.957 143.97C101.471 144.184 102.071 144.269 102.542 143.755C102.414 139.943 101.257 136.303 100.186 132.705C99.0298 128.721 97.4879 124.866 94.1469 122.039C90.2062 118.698 85.666 116.128 81.7682 112.659C81.2113 112.145 80.4403 111.631 79.241 112.059ZM36.922 173.053C37.1362 171.854 37.2218 171.211 37.3932 170.612C38.1642 167.87 38.3783 164.829 40.1345 162.516C41.4623 160.76 41.4623 159.561 39.9632 158.105C38.978 157.119 38.3355 155.877 37.3503 154.892C36.3652 153.907 36.408 152.108 34.4805 151.465C34.0094 158.79 33.2812 165.814 36.922 173.053ZM77.8703 171.468C85.0235 171.083 90.1206 166.714 95.3462 162.602C95.8602 162.217 96.5455 161.574 95.8174 160.889C95.0892 160.161 94.1469 159.518 93.0332 160.118C92.5192 160.375 92.0909 160.803 91.7054 161.189C89.9064 163.159 87.5934 164.529 85.5803 166.243C83.1388 168.256 80.0977 169.155 77.8703 171.468ZM44.7176 114.929C43.2613 115.186 42.4903 115.357 41.7193 115.443C38.464 115.871 38.207 116.085 37.8215 119.169C37.7358 119.812 37.3932 120.669 38.1213 121.054C39.0208 121.482 40.006 121.183 40.6056 120.412C41.8478 118.827 43.0471 117.156 44.7176 114.929ZM39.1493 123.881C37.4788 123.581 36.8363 124.309 36.3652 125.337C35.8084 126.494 35.2944 127.65 35.4657 128.978C35.5085 129.235 35.8084 129.578 36.0653 129.706C36.5365 129.92 36.9648 129.621 37.2218 129.192C38.1213 127.565 38.6782 125.851 39.1493 123.881ZM34.7375 139.044C36.408 137.159 35.894 135.446 36.408 133.99C36.5365 133.561 36.408 133.09 35.8084 133.047C35.1659 133.004 35.0802 133.561 35.0374 133.947C34.9089 135.36 34.866 136.817 34.7375 139.044Z" fill="black"/>
<path d="M73.4586 59.5031C76.4141 62.1159 76.2856 62.2872 73.7156 64.2575C69.8607 67.213 65.3204 67.0417 60.9086 67.5557C59.7092 67.6842 58.8098 67.213 58.9383 65.8423C59.0668 64.5573 59.7092 63.7435 61.2084 63.9148C63.864 64.1718 66.4769 64.0433 69.0468 63.0582C70.803 62.33 72.4735 61.6019 73.4586 59.5031Z" fill="black"/>
<path d="M0 164.144C0.556829 162.902 1.32782 162.73 2.14165 162.73C5.56829 162.645 8.65226 161.403 11.6934 159.903C15.7197 157.89 19.9602 158.062 24.1578 159.261C24.8431 159.432 25.5713 159.689 25.4 160.589C25.2715 161.317 24.5861 161.317 24.0293 161.317C22.5302 161.317 21.0738 161.403 19.5318 161.06C17.2189 160.546 15.0344 160.76 12.8499 161.874C8.90926 163.93 4.6688 164.701 0 164.144Z" fill="black"/>
<path d="M137.879 150.352C137.922 150.994 137.451 151.166 137.066 151.337C131.883 153.264 126.529 154.678 121.132 155.706C119.804 155.963 118.39 155.792 117.105 156.52C116.677 156.734 116.163 156.648 115.992 156.134C115.82 155.706 115.992 155.192 116.377 154.892C117.32 154.164 118.433 153.95 119.59 153.821C125.072 153.179 130.426 151.937 135.566 149.923C136.466 149.538 137.28 149.367 137.879 150.352Z" fill="black"/>
<path d="M66.243 12.2302C64.2727 14.7573 61.7027 15.4426 58.6187 15.2285C57.6335 15.1428 56.9054 14.843 56.1772 14.2862C54.4639 12.9155 54.3354 12.1016 56.0487 10.6881C58.2332 8.93197 60.589 7.4329 63.93 7.98973C65.5148 8.24673 65.7718 7.56134 65.3863 6.53334C64.9151 5.16269 64.4012 3.79205 62.9877 2.80689C62.4737 2.4214 62.0025 1.99307 61.6598 1.5219C61.3172 1.05074 61.617 0.579578 62.0453 0.236914C62.4308 -0.0629165 62.8163 -0.0628955 63.2875 0.151269C65.7718 1.13643 68.8129 5.93368 68.042 8.24666C67.5708 9.70298 67.8706 10.7738 68.7701 11.9731C71.1688 15.3141 70.8261 18.6122 68.4275 21.9532C66.6713 24.3947 64.4012 26.3222 62.0453 28.2925C61.5313 28.7209 60.9317 29.192 60.2892 28.7209C59.561 28.2069 59.818 27.3502 60.5462 27.0075C63.6302 25.5084 64.7867 22.8099 66.6285 20.5397C68.8558 17.9269 68.6845 15.2713 66.243 12.2302ZM63.93 10.7739C63.8443 10.2599 63.4588 9.96004 62.8163 9.91721C60.846 9.83155 59.2612 10.5597 57.9334 11.7162C57.5479 12.0588 57.6335 12.4444 58.019 12.7014C59.0042 13.3867 60.1607 13.3439 61.2743 12.9155C62.388 12.53 63.4588 11.9304 63.93 10.7739Z" fill="#F26A25"/>
</svg>
