<?xml version="1.0" encoding="utf-8"?>
<!-- Generator: Adobe Illustrator 16.0.0, SVG Export Plug-In . SVG Version: 6.00 Build 0)  -->
<!DOCTYPE svg PUBLIC "-//W3C//DTD SVG 1.1//EN" "http://www.w3.org/Graphics/SVG/1.1/DTD/svg11.dtd">
<svg version="1.1" xmlns="http://www.w3.org/2000/svg" xmlns:xlink="http://www.w3.org/1999/xlink" x="0px" y="0px"
	 width="606.916px" height="251.987px" viewBox="0 0 606.916 251.987" enable-background="new 0 0 606.916 251.987"
	 xml:space="preserve">
<g id="LOGO">
</g>
<g id="Layer_4">
</g>
<g id="Layer_5">
</g>
<g id="Layer_3" display="none">
</g>
<g id="Layer_6">
</g>
<g id="Layer_7">
</g>
<g id="PORTADA_FB">
	<rect x="0.388" fill="none" width="606.528" height="145.493"/>
	<text transform="matrix(1 0 0 1 14.418 44.5547)"><tspan x="0" y="0" fill="#FFFFFF" font-family="'Blanch-Condensed'" font-size="67">somewhere, something </tspan><tspan x="405.21" y="0" fill="#FFFFFF" font-family="'Blanch-CondensedLight'" font-size="67">incredible</tspan><tspan x="578.471" y="0" fill="#FFFFFF" font-family="'Blanch-Condensed'" font-size="67"> </tspan><tspan x="88.573" y="80.4" fill="#FFFFFF" font-family="'Blanch-Condensed'" font-size="67">is waiting to be known.</tspan></text>
	<g id="logo_1_">
		<path fill="#FFFFFF" d="M300.375,172.448c-12.386,0-22.426,10.043-22.426,22.426c0,12.388,10.04,22.427,22.426,22.427
			s22.428-10.039,22.428-22.427C322.803,182.491,312.761,172.448,300.375,172.448z"/>
		<path fill="#FFFFFF" d="M337.181,194.874c0-20.295-16.51-36.805-36.806-36.805c-20.294,0-36.804,16.51-36.804,36.805
			c0,20.296,16.51,36.807,36.804,36.807c7.005,0,13.557-1.966,19.139-5.38c1.537,1.495,3.632,2.414,5.945,2.414
			c4.721,0,8.545-3.824,8.545-8.544c0-2.286-0.899-4.363-2.364-5.896C335.148,208.637,337.181,201.99,337.181,194.874z
			 M325.459,211.625c-4.718,0-8.542,3.826-8.542,8.545c0,1.718,0.507,3.314,1.378,4.653c-5.244,3.147-11.374,4.96-17.92,4.96
			c-19.249,0-34.909-15.66-34.909-34.91c0-19.249,15.66-34.909,34.909-34.909c19.251,0,34.911,15.66,34.911,34.909
			c0,6.652-1.871,12.874-5.113,18.171C328.822,212.148,327.203,211.625,325.459,211.625z"/>
	</g>
</g>
</svg>
