<?xml version="1.0" encoding="utf-8"?>
<!-- Generator: Adobe Illustrator 16.0.0, SVG Export Plug-In . SVG Version: 6.00 Build 0)  -->
<!DOCTYPE svg PUBLIC "-//W3C//DTD SVG 1.1//EN" "http://www.w3.org/Graphics/SVG/1.1/DTD/svg11.dtd">
<svg version="1.1" xmlns="http://www.w3.org/2000/svg" xmlns:xlink="http://www.w3.org/1999/xlink" x="0px" y="0px"
	 width="606.916px" height="251.987px" viewBox="0 0 606.916 251.987" enable-background="new 0 0 606.916 251.987"
	 xml:space="preserve">
<g id="LOGO">
</g>
<g id="Layer_4">
</g>
<g id="Layer_5">
</g>
<g id="Layer_3" display="none">
</g>
<g id="Layer_6">
</g>
<g id="Layer_7">
</g>
<g id="PORTADA_FB">
	<g>
		<path fill="#FFFFFF" d="M27.315,10.983V8.705c0-0.938-0.335-1.742-1.005-2.412c-0.67-0.67-1.474-1.005-2.412-1.005
			c-0.938,0-1.741,0.335-2.411,1.005c-0.67,0.67-1.006,1.474-1.006,2.412v3.417c0,0.402,0.011,0.648,0.034,0.737
			c0.021,0.09,0.077,0.224,0.167,0.402l9.648,17.018c0.312,0.581,0.558,1.028,0.737,1.34c0.178,0.313,0.301,0.603,0.368,0.871
			c0.066,0.268,0.111,0.547,0.134,0.837c0.022,0.291,0.033,0.682,0.033,1.172v3.35c0,1.072-0.2,2.077-0.603,3.015
			s-0.961,1.753-1.675,2.445c-0.715,0.693-1.531,1.24-2.445,1.642c-0.916,0.402-1.91,0.603-2.982,0.603
			c-1.071,0-2.066-0.201-2.981-0.603c-0.916-0.402-1.731-0.948-2.445-1.642c-0.715-0.692-1.272-1.507-1.675-2.445
			s-0.603-1.943-0.603-3.015v-2.278c0-0.268,0.1-0.513,0.301-0.737c0.201-0.223,0.458-0.335,0.771-0.335h2.145
			c0.312,0,0.569,0.112,0.771,0.335c0.201,0.224,0.301,0.469,0.301,0.737v2.278c0,0.983,0.336,1.809,1.006,2.479
			s1.474,1.005,2.411,1.005c0.938,0,1.742-0.335,2.412-1.005s1.005-1.496,1.005-2.479V34.5c0-0.357-0.011-0.58-0.033-0.67
			c-0.022-0.089-0.078-0.223-0.167-0.402L17.467,16.41c-0.312-0.58-0.559-1.027-0.737-1.34c-0.179-0.312-0.301-0.603-0.368-0.871
			s-0.112-0.558-0.134-0.871c-0.023-0.312-0.033-0.714-0.033-1.206V8.705c0-1.072,0.2-2.065,0.603-2.981
			c0.402-0.915,0.96-1.73,1.675-2.445c0.714-0.714,1.529-1.273,2.445-1.675C21.832,1.201,22.827,1,23.898,1
			c1.072,0,2.066,0.201,2.982,0.603c0.914,0.402,1.73,0.961,2.445,1.675c0.714,0.715,1.272,1.53,1.675,2.445
			c0.402,0.916,0.603,1.91,0.603,2.981v2.278c0,0.715-0.357,1.072-1.071,1.072h-2.145C27.673,12.055,27.315,11.698,27.315,10.983z"
			/>
		<path fill="#FFFFFF" d="M44.267,1c1.072,0,2.065,0.201,2.981,0.603c0.915,0.402,1.73,0.961,2.445,1.675
			c0.715,0.715,1.273,1.541,1.676,2.479c0.401,0.938,0.603,1.943,0.603,3.015V37.85c0,1.072-0.201,2.077-0.603,3.015
			c-0.402,0.938-0.961,1.753-1.676,2.445c-0.715,0.693-1.53,1.24-2.445,1.642c-0.916,0.402-1.909,0.603-2.981,0.603
			s-2.077-0.201-3.015-0.603c-0.938-0.402-1.766-0.948-2.479-1.642c-0.715-0.692-1.272-1.507-1.675-2.445s-0.603-1.943-0.603-3.015
			V8.771c0-1.072,0.2-2.077,0.603-3.015s0.96-1.764,1.675-2.479c0.714-0.714,1.541-1.273,2.479-1.675
			C42.189,1.201,43.194,1,44.267,1z M47.684,8.771c0-0.982-0.335-1.809-1.005-2.479c-0.67-0.67-1.474-1.005-2.412-1.005
			c-0.982,0-1.809,0.335-2.479,1.005c-0.67,0.67-1.005,1.497-1.005,2.479V37.85c0,0.938,0.335,1.742,1.005,2.412
			s1.496,1.005,2.479,1.005c0.938,0,1.742-0.335,2.412-1.005s1.005-1.474,1.005-2.412V8.771z"/>
		<path fill="#FFFFFF" d="M76.427,1c1.072,0,2.077,0.201,3.015,0.603c0.938,0.402,1.765,0.961,2.479,1.675
			c0.714,0.715,1.272,1.541,1.675,2.479s0.604,1.943,0.604,3.015v35.711c0,0.313-0.112,0.569-0.335,0.771
			c-0.225,0.201-0.47,0.301-0.737,0.301h-2.145c-0.715,0-1.071-0.357-1.071-1.072V8.771c0-0.982-0.335-1.809-1.005-2.479
			c-0.67-0.67-1.497-1.005-2.479-1.005c-0.938,0-1.742,0.335-2.412,1.005c-0.67,0.67-1.005,1.497-1.005,2.479v35.711
			c0,0.715-0.358,1.072-1.072,1.072h-2.144c-0.715,0-1.072-0.357-1.072-1.072V8.771c0-0.982-0.335-1.809-1.005-2.479
			c-0.67-0.67-1.474-1.005-2.412-1.005c-0.982,0-1.809,0.335-2.479,1.005c-0.67,0.67-1.005,1.497-1.005,2.479v35.711
			c0,0.715-0.358,1.072-1.072,1.072h-2.145c-0.268,0-0.514-0.101-0.736-0.301c-0.225-0.201-0.335-0.458-0.335-0.771V8.771
			c0-1.072,0.2-2.077,0.603-3.015s0.96-1.764,1.675-2.479c0.714-0.714,1.541-1.273,2.479-1.675C63.228,1.201,64.232,1,65.305,1
			s2.088,0.213,3.049,0.637c0.96,0.425,1.797,1.017,2.513,1.775c0.714-0.759,1.551-1.351,2.512-1.775
			C74.338,1.212,75.354,1,76.427,1z"/>
		<path fill="#FFFFFF" d="M94.048,5.288v15.879h5.828c0.715,0,1.072,0.358,1.072,1.072v2.144c0,0.268-0.101,0.514-0.302,0.737
			c-0.2,0.224-0.458,0.335-0.771,0.335h-5.828v15.812h5.828c0.312,0,0.57,0.112,0.771,0.335c0.201,0.224,0.302,0.469,0.302,0.737
			v2.144c0,0.715-0.357,1.072-1.072,1.072h-7.973c-0.626,0-1.139-0.201-1.541-0.603s-0.603-0.915-0.603-1.541V3.144
			c0-0.58,0.2-1.083,0.603-1.507C90.765,1.212,91.277,1,91.903,1h7.973c0.312,0,0.57,0.112,0.771,0.335
			c0.201,0.224,0.302,0.469,0.302,0.737v2.144c0,0.715-0.357,1.072-1.072,1.072H94.048z"/>
		<path fill="#FFFFFF" d="M133.108,2.139v32.227c0,1.519-0.425,2.948-1.273,4.288l-3.617,6.365
			c-0.225,0.358-0.536,0.536-0.938,0.536h-3.752c-0.402,0-0.715-0.178-0.938-0.536l-2.747-4.891l-2.814,4.891
			c-0.224,0.358-0.536,0.536-0.938,0.536h-3.686c-0.492,0-0.804-0.178-0.938-0.536l-3.618-6.365c-0.895-1.295-1.34-2.724-1.34-4.288
			V2.139c0-0.714,0.356-1.072,1.071-1.072h2.145c0.714,0,1.072,0.358,1.072,1.072v32.227c0,0.402,0.066,0.76,0.2,1.072l3.217,5.762
			l3.282-5.762c0.135-0.312,0.201-0.67,0.201-1.072V2.139c0-0.714,0.357-1.072,1.072-1.072h2.144c0.714,0,1.072,0.358,1.072,1.072
			v32.227c0,0.402,0.067,0.76,0.201,1.072l3.216,5.762l3.283-5.762c0.044-0.178,0.077-0.345,0.101-0.502
			c0.021-0.156,0.033-0.345,0.033-0.569V2.139c0-0.312,0.111-0.569,0.335-0.771c0.223-0.201,0.469-0.301,0.737-0.301h2.144
			C132.75,1.067,133.108,1.425,133.108,2.139z"/>
		<path fill="#FFFFFF" d="M153.778,1.334c0.201,0.224,0.301,0.469,0.301,0.737v42.411c0,0.715-0.357,1.072-1.071,1.072h-2.077
			c-0.715,0-1.072-0.357-1.072-1.072V25.455h-6.9v19.028c0,0.715-0.358,1.072-1.072,1.072h-2.145c-0.715,0-1.071-0.357-1.071-1.072
			V2.139V2.072c0-0.268,0.101-0.513,0.301-0.737C139.172,1.112,139.429,1,139.741,1h2.145c0.312,0,0.569,0.112,0.771,0.335
			c0.201,0.224,0.302,0.469,0.302,0.737v19.095h6.9V2.072c0-0.268,0.101-0.513,0.302-0.737C150.361,1.112,150.617,1,150.931,1h2.077
			C153.319,1,153.577,1.112,153.778,1.334z"/>
		<path fill="#FFFFFF" d="M163.929,5.288v15.879h5.828c0.715,0,1.072,0.358,1.072,1.072v2.144c0,0.268-0.101,0.514-0.302,0.737
			c-0.2,0.224-0.458,0.335-0.771,0.335h-5.828v15.812h5.828c0.312,0,0.57,0.112,0.771,0.335c0.201,0.224,0.302,0.469,0.302,0.737
			v2.144c0,0.715-0.357,1.072-1.072,1.072h-7.973c-0.626,0-1.139-0.201-1.541-0.603s-0.603-0.915-0.603-1.541V3.144
			c0-0.58,0.2-1.083,0.603-1.507C160.646,1.212,161.158,1,161.784,1h7.973c0.312,0,0.57,0.112,0.771,0.335
			c0.201,0.224,0.302,0.469,0.302,0.737v2.144c0,0.715-0.357,1.072-1.072,1.072H163.929z"/>
		<path fill="#FFFFFF" d="M191.465,17.683c0,2.234-0.781,4.087-2.345,5.561c1.563,1.474,2.345,3.35,2.345,5.628v15.611
			c0,0.715-0.357,1.072-1.071,1.072h-2.145c-0.715,0-1.071-0.357-1.071-1.072V28.872c0-0.982-0.336-1.809-1.006-2.479
			s-1.474-1.005-2.411-1.005h-3.417v19.095c0,0.313-0.112,0.569-0.336,0.771c-0.224,0.201-0.469,0.301-0.736,0.301h-2.145
			c-0.715,0-1.071-0.357-1.071-1.072V3.144c0-0.58,0.2-1.083,0.603-1.507C177.061,1.212,177.573,1,178.199,1h5.562
			c1.071,0,2.076,0.201,3.015,0.603c0.938,0.402,1.752,0.961,2.445,1.675c0.692,0.715,1.239,1.541,1.642,2.479
			s0.603,1.943,0.603,3.015V17.683z M187.178,8.771c0-0.982-0.336-1.809-1.006-2.479c-0.67-0.67-1.474-1.005-2.411-1.005h-3.417
			V21.1h3.417c0.938,0,1.741-0.335,2.411-1.005s1.006-1.474,1.006-2.412V8.771z"/>
		<path fill="#FFFFFF" d="M201.314,5.288v15.879h5.828c0.715,0,1.072,0.358,1.072,1.072v2.144c0,0.268-0.101,0.514-0.302,0.737
			c-0.2,0.224-0.458,0.335-0.771,0.335h-5.828v15.812h5.828c0.312,0,0.57,0.112,0.771,0.335c0.201,0.224,0.302,0.469,0.302,0.737
			v2.144c0,0.715-0.357,1.072-1.072,1.072h-7.973c-0.626,0-1.139-0.201-1.541-0.603s-0.603-0.915-0.603-1.541V3.144
			c0-0.58,0.2-1.083,0.603-1.507C198.031,1.212,198.544,1,199.17,1h7.973c0.312,0,0.57,0.112,0.771,0.335
			c0.201,0.224,0.302,0.469,0.302,0.737v2.144c0,0.715-0.357,1.072-1.072,1.072H201.314z"/>
		<path fill="#FFFFFF" d="M218.064,40.061v13.4c0,0.714-0.358,1.072-1.072,1.072h-2.145c-0.715,0-1.071-0.358-1.071-1.072v-13.4
			c0-0.714,0.356-1.072,1.071-1.072h2.145C217.706,38.989,218.064,39.347,218.064,40.061z"/>
		<path fill="#FFFFFF" d="M243.724,10.983V8.705c0-0.938-0.335-1.742-1.005-2.412c-0.67-0.67-1.474-1.005-2.412-1.005
			c-0.938,0-1.741,0.335-2.411,1.005c-0.67,0.67-1.006,1.474-1.006,2.412v3.417c0,0.402,0.011,0.648,0.034,0.737
			c0.021,0.09,0.077,0.224,0.167,0.402l9.648,17.018c0.312,0.581,0.558,1.028,0.737,1.34c0.178,0.313,0.301,0.603,0.368,0.871
			c0.066,0.268,0.111,0.547,0.134,0.837c0.022,0.291,0.033,0.682,0.033,1.172v3.35c0,1.072-0.2,2.077-0.603,3.015
			s-0.961,1.753-1.675,2.445c-0.715,0.693-1.531,1.24-2.445,1.642c-0.916,0.402-1.91,0.603-2.982,0.603
			c-1.071,0-2.066-0.201-2.981-0.603c-0.916-0.402-1.731-0.948-2.445-1.642c-0.715-0.692-1.272-1.507-1.675-2.445
			s-0.603-1.943-0.603-3.015v-2.278c0-0.268,0.1-0.513,0.301-0.737c0.201-0.223,0.458-0.335,0.771-0.335h2.145
			c0.312,0,0.569,0.112,0.771,0.335c0.201,0.224,0.301,0.469,0.301,0.737v2.278c0,0.983,0.336,1.809,1.006,2.479
			s1.474,1.005,2.411,1.005c0.938,0,1.742-0.335,2.412-1.005s1.005-1.496,1.005-2.479V34.5c0-0.357-0.011-0.58-0.033-0.67
			c-0.022-0.089-0.078-0.223-0.167-0.402l-9.648-17.018c-0.312-0.58-0.559-1.027-0.737-1.34c-0.179-0.312-0.301-0.603-0.368-0.871
			s-0.112-0.558-0.134-0.871c-0.023-0.312-0.033-0.714-0.033-1.206V8.705c0-1.072,0.2-2.065,0.603-2.981
			c0.402-0.915,0.96-1.73,1.675-2.445c0.714-0.714,1.529-1.273,2.445-1.675C238.24,1.201,239.235,1,240.307,1
			c1.072,0,2.066,0.201,2.982,0.603c0.914,0.402,1.73,0.961,2.445,1.675c0.714,0.715,1.272,1.53,1.675,2.445
			c0.402,0.916,0.603,1.91,0.603,2.981v2.278c0,0.715-0.357,1.072-1.071,1.072h-2.145C244.081,12.055,243.724,11.698,243.724,10.983
			z"/>
		<path fill="#FFFFFF" d="M260.675,1c1.072,0,2.065,0.201,2.981,0.603c0.915,0.402,1.73,0.961,2.445,1.675
			c0.715,0.715,1.273,1.541,1.676,2.479c0.401,0.938,0.603,1.943,0.603,3.015V37.85c0,1.072-0.201,2.077-0.603,3.015
			c-0.402,0.938-0.961,1.753-1.676,2.445c-0.715,0.693-1.53,1.24-2.445,1.642c-0.916,0.402-1.909,0.603-2.981,0.603
			s-2.077-0.201-3.015-0.603c-0.938-0.402-1.766-0.948-2.479-1.642c-0.715-0.692-1.272-1.507-1.675-2.445s-0.603-1.943-0.603-3.015
			V8.771c0-1.072,0.2-2.077,0.603-3.015s0.96-1.764,1.675-2.479c0.714-0.714,1.541-1.273,2.479-1.675
			C258.598,1.201,259.603,1,260.675,1z M264.092,8.771c0-0.982-0.335-1.809-1.005-2.479c-0.67-0.67-1.474-1.005-2.412-1.005
			c-0.982,0-1.809,0.335-2.479,1.005c-0.67,0.67-1.005,1.497-1.005,2.479V37.85c0,0.938,0.335,1.742,1.005,2.412
			s1.496,1.005,2.479,1.005c0.938,0,1.742-0.335,2.412-1.005s1.005-1.474,1.005-2.412V8.771z"/>
		<path fill="#FFFFFF" d="M292.835,1c1.072,0,2.077,0.201,3.015,0.603c0.938,0.402,1.765,0.961,2.479,1.675
			c0.714,0.715,1.272,1.541,1.675,2.479s0.604,1.943,0.604,3.015v35.711c0,0.313-0.112,0.569-0.335,0.771
			c-0.225,0.201-0.47,0.301-0.737,0.301h-2.145c-0.715,0-1.071-0.357-1.071-1.072V8.771c0-0.982-0.335-1.809-1.005-2.479
			c-0.67-0.67-1.497-1.005-2.479-1.005c-0.938,0-1.742,0.335-2.412,1.005c-0.67,0.67-1.005,1.497-1.005,2.479v35.711
			c0,0.715-0.358,1.072-1.072,1.072h-2.144c-0.715,0-1.072-0.357-1.072-1.072V8.771c0-0.982-0.335-1.809-1.005-2.479
			c-0.67-0.67-1.474-1.005-2.412-1.005c-0.982,0-1.809,0.335-2.479,1.005c-0.67,0.67-1.005,1.497-1.005,2.479v35.711
			c0,0.715-0.358,1.072-1.072,1.072h-2.145c-0.268,0-0.514-0.101-0.736-0.301c-0.225-0.201-0.335-0.458-0.335-0.771V8.771
			c0-1.072,0.2-2.077,0.603-3.015s0.96-1.764,1.675-2.479c0.714-0.714,1.541-1.273,2.479-1.675C279.636,1.201,280.641,1,281.713,1
			s2.088,0.213,3.049,0.637c0.96,0.425,1.797,1.017,2.513,1.775c0.714-0.759,1.551-1.351,2.512-1.775
			C290.746,1.212,291.763,1,292.835,1z"/>
		<path fill="#FFFFFF" d="M310.456,5.288v15.879h5.828c0.715,0,1.072,0.358,1.072,1.072v2.144c0,0.268-0.101,0.514-0.302,0.737
			c-0.2,0.224-0.458,0.335-0.771,0.335h-5.828v15.812h5.828c0.312,0,0.57,0.112,0.771,0.335c0.201,0.224,0.302,0.469,0.302,0.737
			v2.144c0,0.715-0.357,1.072-1.072,1.072h-7.973c-0.626,0-1.139-0.201-1.541-0.603s-0.603-0.915-0.603-1.541V3.144
			c0-0.58,0.2-1.083,0.603-1.507C307.173,1.212,307.686,1,308.312,1h7.973c0.312,0,0.57,0.112,0.771,0.335
			c0.201,0.224,0.302,0.469,0.302,0.737v2.144c0,0.715-0.357,1.072-1.072,1.072H310.456z"/>
		<path fill="#FFFFFF" d="M334.408,1.334c0.201,0.224,0.302,0.469,0.302,0.737v2.144c0,0.715-0.358,1.072-1.072,1.072h-3.015v39.195
			c0,0.715-0.358,1.072-1.072,1.072h-2.145c-0.715,0-1.071-0.357-1.071-1.072V5.288h-3.016c-0.715,0-1.071-0.357-1.071-1.072V2.072
			c0-0.268,0.1-0.513,0.301-0.737C322.75,1.112,323.007,1,323.319,1h10.318C333.949,1,334.207,1.112,334.408,1.334z"/>
		<path fill="#FFFFFF" d="M354.709,1.334c0.201,0.224,0.301,0.469,0.301,0.737v42.411c0,0.715-0.357,1.072-1.071,1.072h-2.077
			c-0.715,0-1.072-0.357-1.072-1.072V25.455h-6.9v19.028c0,0.715-0.358,1.072-1.072,1.072h-2.145c-0.715,0-1.071-0.357-1.071-1.072
			V2.139V2.072c0-0.268,0.101-0.513,0.301-0.737C340.103,1.112,340.359,1,340.672,1h2.145c0.312,0,0.569,0.112,0.771,0.335
			c0.201,0.224,0.302,0.469,0.302,0.737v19.095h6.9V2.072c0-0.268,0.101-0.513,0.302-0.737C351.292,1.112,351.548,1,351.861,1h2.077
			C354.25,1,354.508,1.112,354.709,1.334z"/>
		<path fill="#FFFFFF" d="M364.858,44.483c0,0.715-0.358,1.072-1.072,1.072h-2.145c-0.715,0-1.071-0.357-1.071-1.072V2.139V2.072
			c0-0.268,0.101-0.513,0.301-0.737C361.072,1.112,361.329,1,361.642,1h2.145c0.312,0,0.569,0.112,0.771,0.335
			c0.201,0.224,0.302,0.469,0.302,0.737V44.483z"/>
		<path fill="#FFFFFF" d="M378.19,1c1.072,0,2.065,0.201,2.981,0.603c0.915,0.402,1.73,0.961,2.445,1.675
			c0.715,0.715,1.273,1.541,1.676,2.479c0.401,0.938,0.603,1.943,0.603,3.015v35.711c0,0.715-0.358,1.072-1.072,1.072h-2.144
			c-0.715,0-1.072-0.357-1.072-1.072V8.771c0-0.982-0.335-1.809-1.005-2.479c-0.67-0.67-1.474-1.005-2.412-1.005
			c-0.982,0-1.809,0.335-2.479,1.005c-0.67,0.67-1.005,1.497-1.005,2.479v35.711c0,0.715-0.358,1.072-1.072,1.072h-2.145
			c-0.715,0-1.071-0.357-1.071-1.072V8.771c0-1.072,0.2-2.077,0.603-3.015s0.96-1.764,1.675-2.479
			c0.714-0.714,1.541-1.273,2.479-1.675C376.113,1.201,377.118,1,378.19,1z"/>
		<path fill="#FFFFFF" d="M402.579,10.983V8.705c0-0.938-0.335-1.742-1.006-2.412c-0.67-0.67-1.474-1.005-2.411-1.005
			c-0.938,0-1.742,0.335-2.412,1.005c-0.67,0.67-1.005,1.474-1.005,2.412V37.85c0,0.938,0.335,1.742,1.005,2.412
			s1.474,1.005,2.412,1.005c0.938,0,1.741-0.335,2.411-1.005c0.671-0.67,1.006-1.474,1.006-2.412V25.321h-2.346
			c-0.715,0-1.071-0.357-1.071-1.072v-2.144c0-0.714,0.356-1.072,1.071-1.072h5.562c0.714,0,1.071,0.358,1.071,1.072V37.85
			c0,1.072-0.2,2.066-0.603,2.981c-0.402,0.916-0.961,1.731-1.675,2.446c-0.715,0.715-1.53,1.273-2.445,1.675
			c-0.916,0.402-1.91,0.603-2.981,0.603c-1.072,0-2.067-0.201-2.982-0.603c-0.916-0.402-1.731-0.96-2.445-1.675
			c-0.715-0.714-1.272-1.53-1.675-2.446c-0.402-0.915-0.603-1.909-0.603-2.981V8.705c0-1.072,0.2-2.065,0.603-2.981
			c0.402-0.915,0.96-1.73,1.675-2.445c0.714-0.714,1.529-1.273,2.445-1.675C397.095,1.201,398.09,1,399.162,1
			c1.071,0,2.065,0.201,2.981,0.603c0.915,0.402,1.73,0.961,2.445,1.675c0.714,0.715,1.272,1.53,1.675,2.445
			c0.402,0.916,0.603,1.91,0.603,2.981v2.278c0,0.715-0.357,1.072-1.071,1.072h-2.145C402.936,12.055,402.579,11.698,402.579,10.983
			z"/>
		<path fill="#FFFFFF" d="M422.075,45.287V1.334c0-0.223,0.11-0.335,0.335-0.335h0.134c0.178,0,0.268,0.112,0.268,0.335v43.952
			c0,0.179-0.09,0.268-0.268,0.268h-0.134C422.186,45.555,422.075,45.466,422.075,45.287z"/>
		<path fill="#FFFFFF" d="M443.046,45.287V6.963c0-0.714-0.135-1.396-0.402-2.044c-0.269-0.646-0.637-1.206-1.105-1.675
			c-0.469-0.469-1.017-0.837-1.642-1.105c-0.626-0.268-1.296-0.402-2.01-0.402c-1.431,0-2.658,0.514-3.686,1.541
			c-1.027,1.028-1.541,2.256-1.541,3.685v38.324c0,0.179-0.09,0.268-0.268,0.268h-0.201c-0.179,0-0.268-0.089-0.268-0.268V6.963
			c0-1.652,0.58-3.059,1.741-4.221C434.826,1.581,436.233,1,437.887,1c0.804,0,1.562,0.157,2.277,0.469
			c0.715,0.313,1.341,0.737,1.876,1.273c0.536,0.536,0.96,1.172,1.273,1.91c0.312,0.737,0.469,1.507,0.469,2.312v38.324
			c0,0.179-0.09,0.268-0.268,0.268h-0.134C443.156,45.555,443.046,45.466,443.046,45.287z"/>
		<path fill="#FFFFFF" d="M452.962,39.592V6.896c0-1.652,0.58-3.048,1.741-4.188C455.864,1.569,457.271,1,458.925,1
			c1.651,0,3.048,0.57,4.188,1.708c1.139,1.139,1.708,2.536,1.708,4.188v1.273c0,0.224-0.09,0.335-0.268,0.335h-0.134
			c-0.18,0-0.269-0.111-0.269-0.335V6.896c0-1.429-0.514-2.657-1.541-3.685c-1.028-1.027-2.256-1.541-3.685-1.541
			c-1.431,0-2.658,0.514-3.686,1.541c-1.027,1.028-1.541,2.256-1.541,3.685v32.696c0,1.43,0.514,2.658,1.541,3.685
			c1.027,1.028,2.255,1.541,3.686,1.541c1.429,0,2.656-0.513,3.685-1.541c1.027-1.027,1.541-2.255,1.541-3.685v-1.474
			c0-0.223,0.089-0.335,0.269-0.335h0.134c0.178,0,0.268,0.112,0.268,0.335v1.474c0,1.653-0.569,3.06-1.708,4.221
			c-1.14,1.162-2.536,1.742-4.188,1.742c-1.653,0-3.061-0.58-4.222-1.742C453.542,42.652,452.962,41.245,452.962,39.592z"/>
		<path fill="#FFFFFF" d="M483.849,17.683c0,1.296-0.369,2.446-1.105,3.451c-0.737,1.005-1.687,1.708-2.848,2.11
			c1.161,0.447,2.11,1.172,2.848,2.178c0.736,1.005,1.105,2.155,1.105,3.45v16.415c0,0.179-0.112,0.268-0.335,0.268h-0.134
			c-0.18,0-0.269-0.089-0.269-0.268V28.872c0-1.429-0.514-2.657-1.541-3.685c-1.028-1.027-2.256-1.541-3.685-1.541h-5.227v21.641
			c0,0.179-0.09,0.268-0.268,0.268h-0.134c-0.225,0-0.335-0.089-0.335-0.268V1.402c0-0.268,0.134-0.402,0.401-0.402h5.562
			c1.651,0,3.059,0.581,4.221,1.742c1.161,1.162,1.742,2.569,1.742,4.221V17.683z M477.886,22.909c1.429,0,2.656-0.513,3.685-1.541
			c1.027-1.027,1.541-2.255,1.541-3.685V6.963c0-1.429-0.514-2.657-1.541-3.685c-1.028-1.027-2.256-1.541-3.685-1.541h-5.227v21.172
			H477.886z"/>
		<path fill="#FFFFFF" d="M500.196,1.737h-6.566v21.172h6.566c0.178,0,0.268,0.09,0.268,0.268v0.201c0,0.179-0.09,0.268-0.268,0.268
			h-6.566v21.239h6.566c0.178,0,0.268,0.09,0.268,0.268v0.134c0,0.179-0.09,0.268-0.268,0.268h-6.968
			c-0.225,0-0.335-0.111-0.335-0.335V1.402c0-0.268,0.11-0.402,0.335-0.402h6.968c0.178,0,0.268,0.112,0.268,0.335v0.134
			C500.464,1.647,500.374,1.737,500.196,1.737z"/>
		<path fill="#FFFFFF" d="M515.606,1c1.651,0,3.048,0.581,4.188,1.742c1.139,1.162,1.708,2.569,1.708,4.221v32.696
			c0,1.653-0.569,3.048-1.708,4.188c-1.14,1.139-2.536,1.708-4.188,1.708h-5.562c-0.268,0-0.401-0.111-0.401-0.335V1.402
			c0-0.268,0.134-0.402,0.401-0.402H515.606z M520.832,6.963c0-1.429-0.514-2.657-1.541-3.685c-1.028-1.027-2.256-1.541-3.685-1.541
			h-5.227v43.148h5.227c1.429,0,2.656-0.513,3.685-1.541c1.027-1.027,1.541-2.255,1.541-3.685V6.963z"/>
		<path fill="#FFFFFF" d="M530.682,45.287V1.334c0-0.223,0.11-0.335,0.335-0.335h0.134c0.178,0,0.268,0.112,0.268,0.335v43.952
			c0,0.179-0.09,0.268-0.268,0.268h-0.134C530.792,45.555,530.682,45.466,530.682,45.287z"/>
		<path fill="#FFFFFF" d="M552.456,17.683c0,1.296-0.368,2.446-1.105,3.451s-1.687,1.731-2.848,2.177
			c1.161,0.402,2.11,1.105,2.848,2.111c0.737,1.005,1.105,2.155,1.105,3.45v10.72c0,1.653-0.581,3.06-1.742,4.221
			c-1.162,1.162-2.569,1.742-4.221,1.742h-5.628c-0.225,0-0.335-0.111-0.335-0.335V1.402c0-0.268,0.11-0.402,0.335-0.402h5.628
			c1.651,0,3.059,0.581,4.221,1.742c1.161,1.162,1.742,2.569,1.742,4.221V17.683z M546.493,22.909c1.429,0,2.656-0.513,3.685-1.541
			c1.027-1.027,1.541-2.255,1.541-3.685V6.963c0-1.429-0.514-2.657-1.541-3.685c-1.028-1.027-2.256-1.541-3.685-1.541h-5.227v21.172
			H546.493z M551.719,28.872c0-1.429-0.514-2.657-1.541-3.685c-1.028-1.027-2.256-1.541-3.685-1.541h-5.227v21.172h5.227
			c1.429,0,2.656-0.513,3.685-1.541c1.027-1.027,1.541-2.255,1.541-3.685V28.872z"/>
		<path fill="#FFFFFF" d="M561.568,45.22V1.334c0-0.223,0.11-0.335,0.335-0.335h0.134c0.178,0,0.268,0.112,0.268,0.335v43.55h6.566
			c0.223,0,0.335,0.09,0.335,0.268v0.134c0,0.179-0.112,0.268-0.335,0.268h-6.901C561.702,45.555,561.568,45.444,561.568,45.22z"/>
		<path fill="#FFFFFF" d="M584.884,1.737h-6.566v21.172h6.566c0.178,0,0.268,0.09,0.268,0.268v0.201c0,0.179-0.09,0.268-0.268,0.268
			h-6.566v21.239h6.566c0.178,0,0.268,0.09,0.268,0.268v0.134c0,0.179-0.09,0.268-0.268,0.268h-6.968
			c-0.225,0-0.335-0.111-0.335-0.335V1.402c0-0.268,0.11-0.402,0.335-0.402h6.968c0.178,0,0.268,0.112,0.268,0.335v0.134
			C585.151,1.647,585.062,1.737,584.884,1.737z"/>
		<path fill="#FFFFFF" d="M110.73,124.883c0,0.715-0.358,1.072-1.072,1.072h-2.145c-0.715,0-1.071-0.357-1.071-1.072V82.539v-0.067
			c0-0.268,0.101-0.513,0.301-0.737c0.201-0.223,0.458-0.335,0.771-0.335h2.145c0.312,0,0.569,0.112,0.771,0.335
			c0.201,0.224,0.302,0.469,0.302,0.737V124.883z"/>
		<path fill="#FFFFFF" d="M126.742,91.383v-2.278c0-0.938-0.335-1.742-1.005-2.412c-0.67-0.67-1.474-1.005-2.412-1.005
			c-0.938,0-1.741,0.335-2.411,1.005c-0.67,0.67-1.006,1.474-1.006,2.412v3.417c0,0.402,0.011,0.648,0.034,0.737
			c0.021,0.09,0.077,0.224,0.167,0.402l9.648,17.018c0.312,0.581,0.558,1.028,0.737,1.34c0.178,0.313,0.301,0.603,0.368,0.871
			c0.066,0.268,0.111,0.547,0.134,0.837c0.022,0.291,0.033,0.682,0.033,1.172v3.35c0,1.072-0.2,2.077-0.603,3.015
			s-0.961,1.753-1.675,2.445c-0.715,0.693-1.531,1.24-2.445,1.642c-0.916,0.402-1.91,0.603-2.982,0.603
			c-1.071,0-2.066-0.201-2.981-0.603c-0.916-0.402-1.731-0.948-2.445-1.642c-0.715-0.692-1.272-1.507-1.675-2.445
			s-0.603-1.943-0.603-3.015v-2.278c0-0.268,0.1-0.513,0.301-0.737c0.201-0.223,0.458-0.335,0.771-0.335h2.145
			c0.312,0,0.569,0.112,0.771,0.335c0.201,0.224,0.301,0.469,0.301,0.737v2.278c0,0.983,0.336,1.809,1.006,2.479
			s1.474,1.005,2.411,1.005c0.938,0,1.742-0.335,2.412-1.005s1.005-1.496,1.005-2.479v-3.35c0-0.357-0.011-0.58-0.033-0.67
			c-0.022-0.089-0.078-0.223-0.167-0.402l-9.648-17.018c-0.312-0.58-0.559-1.027-0.737-1.34c-0.179-0.312-0.301-0.603-0.368-0.871
			s-0.112-0.558-0.134-0.871c-0.023-0.312-0.033-0.714-0.033-1.206v-3.417c0-1.072,0.2-2.065,0.603-2.981
			c0.402-0.915,0.96-1.73,1.675-2.445c0.714-0.714,1.529-1.273,2.445-1.675c0.915-0.402,1.91-0.603,2.981-0.603
			c1.072,0,2.066,0.201,2.982,0.603c0.914,0.402,1.73,0.961,2.445,1.675c0.714,0.715,1.272,1.53,1.675,2.445
			c0.402,0.916,0.603,1.91,0.603,2.981v2.278c0,0.715-0.357,1.072-1.071,1.072h-2.145C127.1,92.455,126.742,92.098,126.742,91.383z"
			/>
		<path fill="#FFFFFF" d="M172.168,82.539v32.227c0,1.519-0.425,2.948-1.273,4.288l-3.617,6.365
			c-0.225,0.358-0.536,0.536-0.938,0.536h-3.752c-0.402,0-0.715-0.178-0.938-0.536l-2.747-4.891l-2.814,4.891
			c-0.224,0.358-0.536,0.536-0.938,0.536h-3.686c-0.492,0-0.804-0.178-0.938-0.536l-3.618-6.365c-0.895-1.295-1.34-2.724-1.34-4.288
			V82.539c0-0.714,0.356-1.072,1.071-1.072h2.145c0.714,0,1.072,0.358,1.072,1.072v32.227c0,0.402,0.066,0.76,0.2,1.072l3.217,5.762
			l3.282-5.762c0.135-0.312,0.201-0.67,0.201-1.072V82.539c0-0.714,0.357-1.072,1.072-1.072h2.144c0.714,0,1.072,0.358,1.072,1.072
			v32.227c0,0.402,0.067,0.76,0.201,1.072l3.216,5.762l3.283-5.762c0.044-0.178,0.077-0.345,0.101-0.502
			c0.021-0.156,0.033-0.345,0.033-0.569V82.539c0-0.312,0.111-0.569,0.335-0.771c0.223-0.201,0.469-0.301,0.737-0.301h2.144
			C171.81,81.467,172.168,81.825,172.168,82.539z"/>
		<path fill="#FFFFFF" d="M185.501,81.399c1.072,0,2.065,0.201,2.981,0.603c0.915,0.402,1.73,0.961,2.445,1.675
			c0.715,0.715,1.273,1.541,1.676,2.479c0.401,0.938,0.603,1.943,0.603,3.015v35.711c0,0.715-0.358,1.072-1.072,1.072h-2.144
			c-0.715,0-1.072-0.357-1.072-1.072v-19.095h-6.9v19.095c0,0.715-0.358,1.072-1.072,1.072h-2.145c-0.268,0-0.514-0.101-0.736-0.301
			c-0.225-0.201-0.335-0.458-0.335-0.771V89.171c0-1.072,0.2-2.077,0.603-3.015s0.96-1.764,1.675-2.479
			c0.714-0.714,1.541-1.273,2.479-1.675C183.424,81.601,184.429,81.399,185.501,81.399z M188.918,101.5V89.171
			c0-0.982-0.335-1.809-1.005-2.479c-0.67-0.67-1.474-1.005-2.412-1.005c-0.982,0-1.809,0.335-2.479,1.005
			c-0.67,0.67-1.005,1.497-1.005,2.479V101.5H188.918z"/>
		<path fill="#FFFFFF" d="M203.056,124.883c0,0.715-0.358,1.072-1.072,1.072h-2.145c-0.715,0-1.071-0.357-1.071-1.072V82.539v-0.067
			c0-0.268,0.101-0.513,0.301-0.737c0.201-0.223,0.458-0.335,0.771-0.335h2.145c0.312,0,0.569,0.112,0.771,0.335
			c0.201,0.224,0.302,0.469,0.302,0.737V124.883z"/>
		<path fill="#FFFFFF" d="M220.106,81.734c0.201,0.224,0.302,0.469,0.302,0.737v2.144c0,0.715-0.358,1.072-1.072,1.072h-3.015
			v39.195c0,0.715-0.358,1.072-1.072,1.072h-2.145c-0.715,0-1.071-0.357-1.071-1.072V85.688h-3.016
			c-0.715,0-1.071-0.357-1.071-1.072v-2.144c0-0.268,0.1-0.513,0.301-0.737c0.201-0.223,0.458-0.335,0.771-0.335h10.318
			C219.647,81.399,219.905,81.512,220.106,81.734z"/>
		<path fill="#FFFFFF" d="M228.582,124.883c0,0.715-0.358,1.072-1.072,1.072h-2.145c-0.715,0-1.071-0.357-1.071-1.072V82.539v-0.067
			c0-0.268,0.101-0.513,0.301-0.737c0.201-0.223,0.458-0.335,0.771-0.335h2.145c0.312,0,0.569,0.112,0.771,0.335
			c0.201,0.224,0.302,0.469,0.302,0.737V124.883z"/>
		<path fill="#FFFFFF" d="M241.914,81.399c1.072,0,2.065,0.201,2.981,0.603c0.915,0.402,1.73,0.961,2.445,1.675
			c0.715,0.715,1.273,1.541,1.676,2.479c0.401,0.938,0.603,1.943,0.603,3.015v35.711c0,0.715-0.358,1.072-1.072,1.072h-2.144
			c-0.715,0-1.072-0.357-1.072-1.072V89.171c0-0.982-0.335-1.809-1.005-2.479c-0.67-0.67-1.474-1.005-2.412-1.005
			c-0.982,0-1.809,0.335-2.479,1.005c-0.67,0.67-1.005,1.497-1.005,2.479v35.711c0,0.715-0.358,1.072-1.072,1.072h-2.145
			c-0.715,0-1.071-0.357-1.071-1.072V89.171c0-1.072,0.2-2.077,0.603-3.015s0.96-1.764,1.675-2.479
			c0.714-0.714,1.541-1.273,2.479-1.675C239.837,81.601,240.842,81.399,241.914,81.399z"/>
		<path fill="#FFFFFF" d="M266.303,91.383v-2.278c0-0.938-0.335-1.742-1.006-2.412c-0.67-0.67-1.474-1.005-2.411-1.005
			c-0.938,0-1.742,0.335-2.412,1.005c-0.67,0.67-1.005,1.474-1.005,2.412v29.145c0,0.938,0.335,1.742,1.005,2.412
			s1.474,1.005,2.412,1.005c0.938,0,1.741-0.335,2.411-1.005c0.671-0.67,1.006-1.474,1.006-2.412v-12.529h-2.346
			c-0.715,0-1.071-0.357-1.071-1.072v-2.144c0-0.714,0.356-1.072,1.071-1.072h5.562c0.714,0,1.071,0.358,1.071,1.072v15.745
			c0,1.072-0.2,2.066-0.603,2.981c-0.402,0.916-0.961,1.731-1.675,2.446c-0.715,0.715-1.53,1.273-2.445,1.675
			c-0.916,0.402-1.91,0.603-2.981,0.603c-1.072,0-2.067-0.201-2.982-0.603c-0.916-0.402-1.731-0.96-2.445-1.675
			c-0.715-0.714-1.272-1.53-1.675-2.446c-0.402-0.915-0.603-1.909-0.603-2.981V89.104c0-1.072,0.2-2.065,0.603-2.981
			c0.402-0.915,0.96-1.73,1.675-2.445c0.714-0.714,1.529-1.273,2.445-1.675c0.915-0.402,1.91-0.603,2.982-0.603
			c1.071,0,2.065,0.201,2.981,0.603c0.915,0.402,1.73,0.961,2.445,1.675c0.714,0.715,1.272,1.53,1.675,2.445
			c0.402,0.916,0.603,1.91,0.603,2.981v2.278c0,0.715-0.357,1.072-1.071,1.072h-2.145C266.659,92.455,266.303,92.098,266.303,91.383
			z"/>
		<path fill="#FFFFFF" d="M297.289,81.734c0.201,0.224,0.302,0.469,0.302,0.737v2.144c0,0.715-0.358,1.072-1.072,1.072h-3.015
			v39.195c0,0.715-0.358,1.072-1.072,1.072h-2.145c-0.715,0-1.071-0.357-1.071-1.072V85.688H286.2c-0.715,0-1.071-0.357-1.071-1.072
			v-2.144c0-0.268,0.1-0.513,0.301-0.737c0.201-0.223,0.458-0.335,0.771-0.335h10.318C296.83,81.399,297.088,81.512,297.289,81.734z
			"/>
		<path fill="#FFFFFF" d="M308.243,81.399c1.072,0,2.065,0.201,2.981,0.603c0.915,0.402,1.73,0.961,2.445,1.675
			c0.715,0.715,1.273,1.541,1.676,2.479c0.401,0.938,0.603,1.943,0.603,3.015v29.078c0,1.072-0.201,2.077-0.603,3.015
			c-0.402,0.938-0.961,1.753-1.676,2.445c-0.715,0.693-1.53,1.24-2.445,1.642c-0.916,0.402-1.909,0.603-2.981,0.603
			s-2.077-0.201-3.015-0.603c-0.938-0.402-1.766-0.948-2.479-1.642c-0.715-0.692-1.272-1.507-1.675-2.445s-0.603-1.943-0.603-3.015
			V89.171c0-1.072,0.2-2.077,0.603-3.015s0.96-1.764,1.675-2.479c0.714-0.714,1.541-1.273,2.479-1.675
			C306.166,81.601,307.171,81.399,308.243,81.399z M311.66,89.171c0-0.982-0.335-1.809-1.005-2.479
			c-0.67-0.67-1.474-1.005-2.412-1.005c-0.982,0-1.809,0.335-2.479,1.005c-0.67,0.67-1.005,1.497-1.005,2.479v29.078
			c0,0.938,0.335,1.742,1.005,2.412s1.496,1.005,2.479,1.005c0.938,0,1.742-0.335,2.412-1.005s1.005-1.474,1.005-2.412V89.171z"/>
		<path fill="#FFFFFF" d="M346.634,98.083c0,1.117-0.213,2.156-0.637,3.116c-0.425,0.961-1.017,1.798-1.775,2.512
			c0.759,0.715,1.351,1.541,1.775,2.479c0.424,0.938,0.637,1.966,0.637,3.082v8.978c0,1.072-0.201,2.066-0.603,2.981
			c-0.402,0.916-0.961,1.731-1.676,2.446c-0.715,0.715-1.53,1.273-2.445,1.675c-0.916,0.402-1.909,0.603-2.981,0.603h-5.628
			c-0.581,0-1.083-0.201-1.508-0.603s-0.636-0.915-0.636-1.541V83.543c0-0.58,0.211-1.083,0.636-1.507
			c0.425-0.424,0.927-0.637,1.508-0.637h5.628c1.072,0,2.065,0.201,2.981,0.603c0.915,0.402,1.73,0.961,2.445,1.675
			c0.715,0.715,1.273,1.541,1.676,2.479c0.401,0.938,0.603,1.943,0.603,3.015V98.083z M342.346,89.171
			c0-0.982-0.335-1.809-1.005-2.479c-0.67-0.67-1.474-1.005-2.412-1.005h-3.483v15.879h3.483c0.938,0,1.742-0.335,2.412-1.005
			s1.005-1.496,1.005-2.479V89.171z M342.346,109.271c0-0.938-0.335-1.742-1.005-2.412c-0.67-0.67-1.474-1.005-2.412-1.005h-3.483
			v15.812h3.483c0.938,0,1.742-0.335,2.412-1.005s1.005-1.474,1.005-2.412V109.271z"/>
		<path fill="#FFFFFF" d="M356.483,85.688v15.879h5.828c0.715,0,1.072,0.358,1.072,1.072v2.144c0,0.268-0.101,0.514-0.302,0.737
			c-0.2,0.224-0.458,0.335-0.771,0.335h-5.828v15.812h5.828c0.312,0,0.57,0.112,0.771,0.335c0.201,0.224,0.302,0.469,0.302,0.737
			v2.144c0,0.715-0.357,1.072-1.072,1.072h-7.973c-0.626,0-1.139-0.201-1.541-0.603s-0.603-0.915-0.603-1.541V83.543
			c0-0.58,0.2-1.083,0.603-1.507c0.402-0.424,0.915-0.637,1.541-0.637h7.973c0.312,0,0.57,0.112,0.771,0.335
			c0.201,0.224,0.302,0.469,0.302,0.737v2.144c0,0.715-0.357,1.072-1.072,1.072H356.483z"/>
		<path fill="#FFFFFF" d="M394.069,98.083c0,1.117-0.213,2.144-0.637,3.082c-0.425,0.938-1.017,1.765-1.775,2.479
			c0.759,0.715,1.351,1.553,1.775,2.513c0.424,0.961,0.637,2,0.637,3.115v15.611c0,0.313-0.112,0.569-0.335,0.771
			c-0.224,0.201-0.469,0.301-0.737,0.301h-2.144c-0.715,0-1.072-0.357-1.072-1.072v-15.611c0-0.982-0.335-1.809-1.005-2.479
			s-1.497-1.005-2.479-1.005h-3.417v19.095c0,0.715-0.358,1.072-1.072,1.072h-2.145c-0.715,0-1.071-0.357-1.071-1.072v-19.095V101.5
			V82.539v-0.067c0-0.268,0.101-0.513,0.301-0.737c0.201-0.223,0.458-0.335,0.771-0.335h2.145c0.312,0,0.569,0.112,0.771,0.335
			c0.201,0.224,0.302,0.469,0.302,0.737V101.5h3.417c0.981,0,1.809-0.335,2.479-1.005s1.005-1.474,1.005-2.412V82.472
			c0-0.268,0.101-0.513,0.302-0.737c0.201-0.223,0.457-0.335,0.771-0.335h2.144c0.269,0,0.514,0.112,0.737,0.335
			c0.223,0.224,0.335,0.469,0.335,0.737V98.083z"/>
		<path fill="#FFFFFF" d="M407.402,81.399c1.072,0,2.065,0.201,2.981,0.603c0.915,0.402,1.73,0.961,2.445,1.675
			c0.715,0.715,1.273,1.541,1.676,2.479c0.401,0.938,0.603,1.943,0.603,3.015v35.711c0,0.715-0.358,1.072-1.072,1.072h-2.144
			c-0.715,0-1.072-0.357-1.072-1.072V89.171c0-0.982-0.335-1.809-1.005-2.479c-0.67-0.67-1.474-1.005-2.412-1.005
			c-0.982,0-1.809,0.335-2.479,1.005c-0.67,0.67-1.005,1.497-1.005,2.479v35.711c0,0.715-0.358,1.072-1.072,1.072h-2.145
			c-0.715,0-1.071-0.357-1.071-1.072V89.171c0-1.072,0.2-2.077,0.603-3.015s0.96-1.764,1.675-2.479
			c0.714-0.714,1.541-1.273,2.479-1.675C405.325,81.601,406.33,81.399,407.402,81.399z"/>
		<path fill="#FFFFFF" d="M428.44,81.399c1.072,0,2.065,0.201,2.981,0.603c0.915,0.402,1.73,0.961,2.445,1.675
			c0.715,0.715,1.273,1.541,1.676,2.479c0.401,0.938,0.603,1.943,0.603,3.015v29.078c0,1.072-0.201,2.077-0.603,3.015
			c-0.402,0.938-0.961,1.753-1.676,2.445c-0.715,0.693-1.53,1.24-2.445,1.642c-0.916,0.402-1.909,0.603-2.981,0.603
			s-2.077-0.201-3.015-0.603c-0.938-0.402-1.766-0.948-2.479-1.642c-0.715-0.692-1.272-1.507-1.675-2.445s-0.603-1.943-0.603-3.015
			V89.171c0-1.072,0.2-2.077,0.603-3.015s0.96-1.764,1.675-2.479c0.714-0.714,1.541-1.273,2.479-1.675
			C426.363,81.601,427.368,81.399,428.44,81.399z M431.857,89.171c0-0.982-0.335-1.809-1.005-2.479
			c-0.67-0.67-1.474-1.005-2.412-1.005c-0.982,0-1.809,0.335-2.479,1.005c-0.67,0.67-1.005,1.497-1.005,2.479v29.078
			c0,0.938,0.335,1.742,1.005,2.412s1.496,1.005,2.479,1.005c0.938,0,1.742-0.335,2.412-1.005s1.005-1.474,1.005-2.412V89.171z"/>
		<path fill="#FFFFFF" d="M468.306,82.539v32.227c0,1.519-0.425,2.948-1.273,4.288l-3.617,6.365
			c-0.225,0.358-0.536,0.536-0.938,0.536h-3.752c-0.402,0-0.715-0.178-0.938-0.536l-2.747-4.891l-2.814,4.891
			c-0.224,0.358-0.536,0.536-0.938,0.536h-3.686c-0.492,0-0.804-0.178-0.938-0.536l-3.618-6.365c-0.895-1.295-1.34-2.724-1.34-4.288
			V82.539c0-0.714,0.356-1.072,1.071-1.072h2.145c0.714,0,1.072,0.358,1.072,1.072v32.227c0,0.402,0.066,0.76,0.2,1.072l3.217,5.762
			l3.282-5.762c0.135-0.312,0.201-0.67,0.201-1.072V82.539c0-0.714,0.357-1.072,1.072-1.072h2.144c0.714,0,1.072,0.358,1.072,1.072
			v32.227c0,0.402,0.067,0.76,0.201,1.072l3.216,5.762l3.283-5.762c0.044-0.178,0.077-0.345,0.101-0.502
			c0.021-0.156,0.033-0.345,0.033-0.569V82.539c0-0.312,0.111-0.569,0.335-0.771c0.223-0.201,0.469-0.301,0.737-0.301h2.144
			C467.947,81.467,468.306,81.825,468.306,82.539z"/>
		<path fill="#FFFFFF" d="M481.639,81.399c1.072,0,2.065,0.201,2.981,0.603c0.915,0.402,1.73,0.961,2.445,1.675
			c0.715,0.715,1.273,1.541,1.676,2.479c0.401,0.938,0.603,1.943,0.603,3.015v35.711c0,0.715-0.358,1.072-1.072,1.072h-2.144
			c-0.715,0-1.072-0.357-1.072-1.072V89.171c0-0.982-0.335-1.809-1.005-2.479c-0.67-0.67-1.474-1.005-2.412-1.005
			c-0.982,0-1.809,0.335-2.479,1.005c-0.67,0.67-1.005,1.497-1.005,2.479v35.711c0,0.715-0.358,1.072-1.072,1.072h-2.145
			c-0.715,0-1.071-0.357-1.071-1.072V89.171c0-1.072,0.2-2.077,0.603-3.015s0.96-1.764,1.675-2.479
			c0.714-0.714,1.541-1.273,2.479-1.675C479.562,81.601,480.566,81.399,481.639,81.399z"/>
		<path fill="#FFFFFF" d="M499.193,120.46v4.422c0,0.268-0.101,0.514-0.302,0.737c-0.201,0.224-0.459,0.335-0.771,0.335h-2.145
			c-0.312,0-0.569-0.111-0.771-0.335c-0.2-0.223-0.301-0.469-0.301-0.737v-4.422c0-0.714,0.356-1.072,1.071-1.072h2.145
			C498.835,119.389,499.193,119.747,499.193,120.46z"/>
	</g>
	<g id="logo_1_">
		<path fill="#FFFFFF" d="M300.375,172.448c-12.386,0-22.426,10.043-22.426,22.426c0,12.388,10.04,22.427,22.426,22.427
			s22.428-10.039,22.428-22.427C322.803,182.491,312.761,172.448,300.375,172.448z"/>
		<path fill="#FFFFFF" d="M337.181,194.874c0-20.295-16.51-36.805-36.806-36.805c-20.294,0-36.804,16.51-36.804,36.805
			c0,20.296,16.51,36.807,36.804,36.807c7.005,0,13.557-1.966,19.139-5.38c1.537,1.495,3.632,2.414,5.945,2.414
			c4.721,0,8.545-3.824,8.545-8.544c0-2.286-0.899-4.363-2.364-5.896C335.148,208.637,337.181,201.99,337.181,194.874z
			 M325.459,211.625c-4.718,0-8.542,3.826-8.542,8.545c0,1.718,0.507,3.314,1.378,4.653c-5.244,3.147-11.374,4.96-17.92,4.96
			c-19.249,0-34.909-15.66-34.909-34.91c0-19.249,15.66-34.909,34.909-34.909c19.251,0,34.911,15.66,34.911,34.909
			c0,6.652-1.871,12.874-5.113,18.171C328.822,212.148,327.203,211.625,325.459,211.625z"/>
	</g>
</g>
</svg>
