<?xml version="1.0" encoding="utf-8"?>
<!-- Generator: Adobe Illustrator 16.0.0, SVG Export Plug-In . SVG Version: 6.00 Build 0)  -->
<!DOCTYPE svg PUBLIC "-//W3C//DTD SVG 1.1//EN" "http://www.w3.org/Graphics/SVG/1.1/DTD/svg11.dtd">
<svg version="1.1" id="Layer_1" xmlns="http://www.w3.org/2000/svg" xmlns:xlink="http://www.w3.org/1999/xlink" x="0px" y="0px"
	 width="200px" height="104.144px" viewBox="0 0 200 104.144" enable-background="new 0 0 200 104.144" xml:space="preserve">
<g>
	<path fill="#EAECE0" d="M56.382,57.174c-2.258-1.998-4.721-3.774-7.166-5.55c-3.659-2.655-7.457-5.128-10.994-7.934
		c-0.793-0.628-1.248-2.431-0.997-3.488c0.772-3.254,1.799-6.473,3.023-9.588c3.042-7.741,3.763-15.532,0.322-23.25
		c-0.732-1.642-2.701-3.163-4.445-3.813c-2.268-0.845-4.917-0.592-7.34-1.107c-9.787-2.082-13.154,0.46-19.21,8.191
		c-1.053,1.343-2.404,2.453-4.005,4.06c0.508,1.797,1.264,4.529,2.056,7.251c0.514,1.77,1.394,3.497,1.548,5.292
		c0.231,2.677,0.44,5.516-0.207,8.067c-0.796,3.144-2.542,6.039-3.747,9.091c-0.412,1.042-0.973,2.665-0.502,3.264
		c0.689,0.878,2.248,1.074,3.744,1.687c2.191-5.86,4.174-11.163,6.213-16.615c0.636,0.355,1.615,0.901,2.896,1.616
		c-3.844,3.388-4.421,7.853-5.011,12.329c-0.165,1.255-0.463,2.505-0.819,3.722c-2.081,7.093-4.294,14.15-6.174,21.295
		c-0.233,0.884,1.248,2.219,1.935,3.345c0.862-0.573,2.045-0.961,2.506-1.765c0.606-1.058,0.67-2.437,0.923-3.687
		c0.889-4.398,1.759-8.799,2.636-13.199c1.503,2.143,2.18,4.321,2.985,6.449c0.73,1.929,0.484,4.904,4.593,4.176
		c-1.551-5.471-3.354-10.678-4.458-16.029c-1.21-5.862,3.022-10.649,4.203-16.221c1.607-0.417,3.449-0.896,5.047-1.311
		c2.378,17.002,4.726,33.787,7.063,50.501c-10.02-0.364-20.015-4.435-30.61-2.445c0.73,4.37,4.041,2.125,6.68,3.008
		c-0.995,2.307-2.055,4.549-2.92,6.863c-0.41,1.095-0.973,2.635-0.516,3.422c0.546,0.943,2.108,1.299,2.979,1.772
		c1.771-4.476,3.309-8.362,4.944-12.495c2.302,0.325,4.585,0.331,6.619,1.047c1.32,0.465,3.274,2.019,3.223,2.995
		c-0.233,4.506-1.071,8.98-1.691,13.466c-0.345,0.14-0.69,0.278-1.035,0.417c1.488,0.579,2.977,1.158,5.5,2.14
		c0.454-6.319,0.847-11.791,1.271-17.704c3.152,0.364,6.986,0.807,10.111,1.168c-2.365-15.123-4.629-29.598-6.893-44.073
		c0.324-0.079,0.647-0.158,0.971-0.237c1.252,1.574,2.245,4.133,3.803,4.542c5.118,1.343,8.897,4.78,13.19,7.385
		c2.782,1.688,5.309,3.798,7.949,5.718c0.374-0.234,0.748-0.47,1.121-0.704C57.275,59.196,57.134,57.84,56.382,57.174z
		 M21.918,30.479c-3.559,0.691-7.326-0.668-8.592-3.862c-3.267-8.249-0.511-16.667,7.21-20.327c1.667-0.791,3.263-2.191,5.402-0.354
		c0.706,0.607,2.59-0.248,3.94-0.286c6.963-0.195,7.266-0.043,7.726,6.229c-0.728,2.529-0.96,5.361-2.283,7.526
		C32.178,24.546,28.451,29.209,21.918,30.479z M31.755,38.802c-1.747-6.431-1.534-6.964,4.582-11.589
		C34.811,31.076,33.283,34.939,31.755,38.802z"/>
	<path fill="#EAECE0" d="M29.696,21.122c-1.739-0.962-2.424-2.503-3.982-3.366c-0.225,1.05-0.522,2.439-0.822,3.843
		c-3.919,0.506-3.919,0.506-2.31-9.439c1.437,0.696,2.14,3.486,3.32,4.059c0.027-0.203,0.286-3.335,0.656-3.725
		c0.762-0.8,1.135-1.182,1.955-1.068c0.838,0.117,2.086,1.546,2.107,2.426C30.671,16.005,30.118,18.174,29.696,21.122z"/>
	<path fill="#EAECE0" d="M28.513,11.425c-0.819-0.114-1.192,0.269-1.955,1.068c-0.37,0.389-0.629,3.521-0.656,3.725
		c-1.18-0.572-1.883-3.362-3.32-4.059c-1.609,9.945-1.609,9.945,2.31,9.439c0.3-1.404,0.598-2.793,0.822-3.843
		c1.558,0.862,2.243,2.403,3.982,3.366c0.422-2.948,0.975-5.116,0.924-7.271C30.599,12.972,29.351,11.542,28.513,11.425z"/>
</g>
<g>
	<path fill="#EAECE0" d="M189.635,35.072L189.635,35.072c0.502,0.289,1.202,0.489,1.627,0.812
		C190.837,35.561,190.136,35.36,189.635,35.072z"/>
	<path fill="#EAECE0" d="M194.604,86.59c0.113-0.199,0.284-0.385,0.333-0.597c-0.049,0.212-0.22,0.397-0.335,0.596
		C194.602,86.589,194.603,86.589,194.604,86.59z"/>
	<path fill="#EAECE0" d="M190,43.256c-3,1.638-4,3.122-5.776,4.886c1.775-1.764,2.776-3.247,5.776-4.884
		C190,43.257,190,43.257,190,43.256z"/>
	<path fill="#EAECE0" d="M189.634,35.072c-0.248,0.565-0.496,1.131-0.763,1.739C189.138,36.203,189.386,35.637,189.634,35.072
		L189.634,35.072z"/>
	<path fill="#EAECE0" d="M191.364,82.58c-0.122,1.989,0.663,3.091,3.237,4.009l0,0C192.027,85.67,191.242,84.568,191.364,82.58z"/>
	<path fill="#EAECE0" d="M195.322,59.155c-0.099-5.725-1.033-11.447-1.818-17.14c-0.273-1.978-1.113-3.91-1.927-5.76
		c-0.062-0.143-0.174-0.263-0.315-0.371c-0.425-0.323-1.125-0.523-1.627-0.812c-0.249,0.565-0.497,1.131-0.764,1.739
		c-0.088,0.202-0.18,0.41-0.272,0.623c-1.562-2.097-3.201-2.25-5.707-1.256c-2.732,1.085-5.878,1.435-8.86,1.522
		c-7.064,0.208-14.146-0.115-21.207,0.127c-6.075,0.208-12.178,0.59-18.185,1.464c-6.823,0.992-13.526,2.125-20.396-1.51
		c-0.202-2.381-0.597-5.15-0.644-7.926c-0.11-6.605,0.008-13.214-0.097-19.82c-0.057-3.593-2.082-4.898-5.241-3.338
		c-2.436,1.204-4.648,2.846-7.016,4.196c-7.684,4.383-15.627,8.368-22.994,13.228c-3.634,2.397-8.508,5.195-5.99,11.352
		c0.25,0.612,0.075,1.403,0.081,2.11c0.028,3.577,0.067,7.153,0.071,10.729c0.009,6.906,0.08,13.813-0.037,20.716
		c-0.064,3.739-0.58,7.471-0.681,11.21c-0.124,4.579-0.229,9.177,0.062,13.741c0.143,2.246-0.247,5.292,3.589,5.967
		c0-5.133,0.28-10.074-0.077-14.97c-0.369-5.054,0.612-6.216,5.912-6.356c4.536-0.119,9.057-0.736,13.592-1.024
		c4.841-0.308,9.692-0.488,14.538-0.725c0.161,0.304,0.32,0.606,0.481,0.91c-2.895,2.715-5.804,5.414-8.678,8.15
		c-1.802,1.716-3.826,3.84-2.172,6.242c1.57,2.28,3.981,4.166,6.387,5.621c1.687,1.019,3.606,0.407,3.842-2.21
		c-2.738-0.174-5.926,0.047-6.402-3.254c-0.208-1.444,1.71-3.195,2.743-4.946c1.568,2.765,2.45,5.149,4.023,6.921
		c3.178,3.58,7.453,6.399,11.097,4.865c4.268-1.799,7.512-4.715,9.781-8.666c1.813-3.155,1.897-3.228,4.036-0.298
		c-1.758,2.591-3.48,5.128-5.382,7.93c4.15,1.694,5.845-0.884,7.534-2.492c2.598-2.471,2.418-4.772-0.063-7.593
		c-1.337-1.519-3.402-2.54-4.347-4.229c-1.442-2.582-2.2-5.546-3.24-8.326c12.164-0.683,24.913-1.397,38.533-2.16
		c-0.282,7.011-0.496,13.554-0.906,20.082c-0.158,2.526,1.421,4.012,4.421,4.499c0-8.289,0-16.509,0-23.878
		c7-6.5,13.45-12.617,20.333-19.099c0.473,5.449,1.172,10.399,1.274,15.361c0.074,3.581-0.325,7.234-1.037,10.75
		c-0.114,0.562-0.184,1.067-0.212,1.526c-0.122,1.988,0.666,3.09,3.24,4.009c0.115-0.198,0.288-0.384,0.336-0.596
		C196.978,77.081,195.477,68.095,195.322,59.155z M75.826,34.006c-0.432-2.412,0.487-3.497,2.041-4.506
		c4.354-2.828,8.746-5.6,13.184-8.296c5.244-3.185,10.539-6.282,15.837-9.375c0.749-0.437,1.112-0.635,3.112-1.188
		c0,9.257,0,18.007,0,26.653c-3,1.786-6.197,6.204-11.548,5.253c0.698,3.165-0.821,4.39-2.876,5.862
		c-4.623,3.312-9.235,6.421-14.726,8.203c-1.011,0.327-1.438,2.499-2.101,3.836c-0.407,0.82-0.751,1.67-1.123,2.507
		c-0.373-0.095-0.746-0.189-1.118-0.284c0-5.487,0.067-10.976-0.022-16.462C76.42,42.131,76.539,37.987,75.826,34.006z
		 M128.795,82.739c-1.135,6.226-4.527,10.791-10.647,12.775c-1.253,0.406-3.156-0.354-4.463-1.099
		c-5.24-2.981-5.176-10.556,0.73-14.316c-0.331,2.015-0.71,3.366-0.732,4.724c-0.022,1.339,0.067,2.792,0.591,3.982
		c0.294,0.668,1.566,0.905,2.398,1.336c0.333-0.788,0.818-1.551,0.961-2.372c0.187-1.072-0.053-2.221,0.162-3.282
		c0.606-2.999-0.072-5.679-2.211-8.146c5.418-0.409,5.98,0.097,5.603,4.719c-0.156,1.902-0.664,3.812-0.545,5.69
		c0.062,0.976,1.139,1.888,1.758,2.828c0.711-0.782,1.914-1.488,2.048-2.358c0.536-3.486,1.67-7.246-2.485-9.669
		C125.345,76.465,129.37,79.579,128.795,82.739z M131.34,71.122c-7.415,0.362-14.812,1.114-22.217,1.689
		c-8.873,0.689-17.746,1.374-26.618,2.068c-1.305,0.103-2.611,0.364-3.911,0.329c-0.585-0.016-1.411-0.434-1.692-0.921
		c-1.387-2.397,1.101-7.078,3.821-7.361c4.858-0.507,9.651-0.518,14.399,1.017c1.005,0.324,2.359-0.478,3.562-0.711
		c7.839-1.52,15.633-3.396,23.536-4.418c6.373-0.826,12.878-0.691,19.327-0.842c5.072-0.118,10.149-0.021,15.225-0.021
		c0.59,0,1.181-0.017,1.771,0c2.6,0.072,5.834-0.737,7.599,0.517c1.391,0.989,0.973,4.523,1.418,7.302
		C155.073,70.223,143.2,70.544,131.34,71.122z M167.471,48.644c-0.093,2.26-0.207,4.519-0.271,6.78
		c-0.045,1.573,0.234,2.718-2.385,2.576c-5.413-0.295-10.876,0.046-16.305,0.35c-10.623,0.592-21.237,1.344-31.856,1.999
		c-0.408,0.025-0.834-0.265-1.252-0.406c-0.233-0.36-0.467-0.722-0.7-1.082c3.57-2.808,7.188-5.56,10.696-8.443
		c2.539-2.087,4.886-4.406,7.424-6.494c0.707-0.583,1.768-0.928,2.7-1.016c5.988-0.561,11.978-1.236,17.982-1.453
		c6.779-0.245,13.579,0.103,20.362-0.097c4.088-0.119,8.161-0.789,12.747-1.263c-5.042,4.224-10.036,8.406-14.816,12.41
		c-1.1-1.516-2.077-2.863-3.055-4.211C168.319,48.41,167.895,48.527,167.471,48.644z M188.788,50.613
		c-0.445,0.545-1.008,1.233-1.705,1.997c-4.983,5.452-10.186,10.738-15.294,16.077c-0.286-0.182-0.572-0.346-0.858-0.528
		c0.372-2.444-1.229-5.368,1.878-7.141c-0.192-7.012,6.623-8.203,10.155-12.106c0.239-0.265,0.747-0.521,1.001-0.772
		c1.775-1.764,3.035-3.246,6.035-4.884c0,0,0-0.256,0-0.256h-0.438C190.533,48,190.719,48.252,188.788,50.613z"/>
	<path fill="#EAECE0" d="M189.481,43.258c-1.916,1.637-4.001,3.12-5.776,4.884c-0.254,0.252-0.502,0.51-0.741,0.774
		c-3.532,3.903-10.348,5.098-10.155,12.11c-3.107,1.772-1.506,4.704-1.878,7.148c0.286,0.183,0.572,0.363,0.858,0.545
		c5.108-5.339,10.311-10.593,15.294-16.045c0.697-0.764,1.26-1.388,1.705-1.933C190.719,48.38,190.453,47.508,189.481,43.258z"/>
	<path fill="#EAECE0" d="M189.481,43.258c0.972,4.25,1.237,5.123-0.693,7.484C190.719,48.38,190.453,47.507,189.481,43.258
		L189.481,43.258z"/>
</g>
</svg>
