<?xml version="1.0" encoding="utf-8"?>
<!-- Generator: Adobe Illustrator 16.0.0, SVG Export Plug-In . SVG Version: 6.00 Build 0)  -->
<!DOCTYPE svg PUBLIC "-//W3C//DTD SVG 1.1//EN" "http://www.w3.org/Graphics/SVG/1.1/DTD/svg11.dtd">
<svg version="1.1" xmlns="http://www.w3.org/2000/svg" xmlns:xlink="http://www.w3.org/1999/xlink" x="0px" y="0px" width="410px"
	 height="256.924px" viewBox="0 0 410 256.924" enable-background="new 0 0 410 256.924" xml:space="preserve">
<g id="Layer_3">
</g>
<g id="Layer_1">
	<g>
		<path fill="#F75F51" d="M394.751,247.653c-23.653-9.778-41.474-21.132-51.881-32.479c0,1.892,0,3.783,0,5.519
			c0,8.826,0.158,15.449,0.789,18.445c-7.886-1.104-15.296-2.84-15.296-2.84c1.104-7.096,2.839-61.177,2.839-94.45
			c0-12.142-0.157-21.444-0.789-24.758h0.474c3.626,0.158,12.299-1.262,16.715-2.05c-0.789,2.525-2.365,29.803-3.628,58.347
			c8.673-6.623,22.078-12.301,41.159-16.559l5.36,10.251c-25.073,6.308-38.005,13.718-38.005,22.234
			c0,10.093,17.506,21.761,53.775,34.847L394.751,247.653z"/>
		<path fill="#F75F51" d="M202.883,208.235c-7.41,0-16.083-1.261-26.018-4.415c1.262,11.825,11.038,19.393,26.491,19.393
			c5.36,0,11.354-0.946,17.818-2.837l1.579,12.139c-2.839,0.159-5.52,0.315-8.043,0.315c-36.9,0-53.301-16.238-53.301-33.424
			c0-17.189,16.4-35.165,44.785-38.479c1.894-0.315,3.784-0.315,5.521-0.315c17.188,0,26.176,10.565,26.176,21.762
			C237.892,194.991,226.694,208.235,202.883,208.235z M210.769,177.957c-2.052-0.313-3.942-0.472-5.834-0.472
			c-14.981,0-26.335,9.778-28.228,17.819c7.729,2.051,14.351,2.839,19.713,2.839c15.137,0,21.604-6.781,21.604-12.457
			C218.023,182.06,215.342,178.748,210.769,177.957z"/>
		<path fill="#F75F51" d="M284.589,208.235c-7.409,0-16.083-1.261-26.018-4.415c1.261,11.825,11.037,19.393,26.491,19.393
			c5.361,0,11.354-0.946,17.82-2.837l1.576,12.139c-2.836,0.159-5.52,0.315-8.042,0.315c-36.899,0-53.3-16.238-53.3-33.424
			c0-17.189,16.4-35.165,44.783-38.479c1.895-0.315,3.786-0.315,5.522-0.315c17.186,0,26.175,10.565,26.175,21.762
			C319.598,194.991,308.402,208.235,284.589,208.235z M292.476,177.957c-2.052-0.313-3.943-0.472-5.835-0.472
			c-14.981,0-26.335,9.778-28.228,17.819c7.728,2.051,14.351,2.839,19.712,2.839c15.139,0,21.604-6.781,21.604-12.457
			C299.729,182.06,297.047,178.748,292.476,177.957z"/>
		<g>
			<path fill="#F75F51" d="M146.443,209.683c-11.216-22.601-25.151-30.249-34.329-30.249c-5.777,0-9.685,3.229-9.685,7.648
				c0,3.228,2.208,7.307,7.306,11.215c8.498,6.628,19.204,12.235,28.209,18.693c11.896,8.156,16.825,16.312,16.825,23.107
				c0,9.857-10.537,16.826-26.172,16.826c-12.574,0-28.207-4.418-44.012-15.294l6.967-16.823
				c13.764,14.953,28.379,20.73,37.557,20.73c5.776,0,9.517-2.378,9.517-5.946c0-3.91-4.419-9.687-15.125-15.804
				c-13.425-7.646-24.812-13.766-37.896-24.47c-9.178-7.308-13.085-15.466-13.085-22.602c0-10.708,9.007-19.204,22.431-19.204
				c11.558,0,26.51,6.288,42.146,22.432v-0.51c0.17-8.666-6.797-26.68-9.008-30.079l20.731,3.229
				c3.569,22.092,2.549,28.719,6.288,55.908L146.443,209.683z"/>
		</g>
		<g>
			<path fill="#F75F51" d="M154.129,108.14c0.389,6.295,7.988,11.67,21.682,10.825c-0.79-7.693-1.994-16.939-3.216-26.501
				C159.688,95.79,153.77,102.315,154.129,108.14z"/>
			<path fill="#F75F51" d="M230.32,84.948c15.111-0.935,21.144-8.099,20.795-13.765c-0.223-3.621-3.102-6.761-7.717-7.266
				c-2.064-0.189-3.964-0.229-5.853-0.114c-14.953,0.924-25.681,11.382-27.073,19.527C218.309,84.901,224.97,85.279,230.32,84.948z"
				/>
			<path fill="#F75F51" d="M322.132,150.046c-5.103-2.543-9.884-5.841-14.531-10.034c2.097-1.346,5.143-3.239,8.296-5l2.367-1.318
				l-1.368-2.338l-5.837-9.962l-2.005-3.419l-2.397,3.155c-1.378,1.814-2.755,3.489-4.141,5.056l-0.009-0.134l-0.246-3.983
				l-0.854-13.814c3.944-5.162,6.327-10.727,6.788-16.168c0.671-7.952-2.716-14.416-8.871-17.571l-4.596-74.409L3.832,18.072
				l9.149,148.138l62.162-3.838c0.494-0.529,1.017-1.041,1.57-1.529c4.638-4.087,11.115-6.336,18.237-6.336
				c6.589,0,13.562,1.851,20.624,5.368l13.531-0.835c-1.426-3.819-2.792-6.897-3.537-8.045l-3.674-5.647l6.656,1.037l20.732,3.229
				l2.157,0.336l0.349,2.154c0.314,1.944,0.589,3.757,0.839,5.483l106.435-6.574c3.158,2.969,7.44,4.803,12.269,5.212
				c0.707,0.061,1.432,0.09,2.158,0.09c6.745,0,14.179-2.597,21.631-7.527l0.572-0.037c3.324,3.362,6.857,6.428,10.751,9.318
				l1.034,0.768l1.243-0.338l12.926-3.52l6.72-1.83L322.132,150.046z M95.217,88.309c0,0-2.926-0.5-10.781-0.867
				c1.092,14.916,2.577,27.934,4.079,32.949c-18.735,5.414-29.623,8.301-29.623,8.301c0.267-3.934,0.204-21.466-0.173-41.364
				c-6.796,0.25-14.787,0.401-24.126,0.808c1.532,19.316,3.575,38.6,5.342,45.131c-2.397-0.193-4.611-0.225-6.816-0.09
				c-6.615,0.408-11.81,1.752-11.81,1.752c0.566-7.357,0.867-54.88-0.652-79.472c-0.377-6.107-0.832-10.675-1.486-13.019
				l13.189-1.495c-0.394,1.896-0.033,13.281,0.849,27.528l0.312,5.091c7.166,0.236,16.019,0.2,24.859-0.006
				c-0.215-11.734-0.778-23.616-1.343-32.775c-0.515-8.312-1.071-14.576-1.737-17.089l26.013,2.139
				c-0.362,2.405,0.195,19.737,1.401,39.243c0.146,2.374,0.303,4.918,0.45,7.294c5.756-0.525,10.315-1.148,12.648-1.973
				L95.217,88.309z M115.355,142.89c0.124-6.796-0.85-41.169-2.088-65.263c-0.526-10.236-1.121-18.733-1.622-22.338
				c1.773,0.697,3.837,0.907,6.041,0.795c1.891-0.098,3.921-0.52,5.953-0.938c-0.195,2.378,0.449,17.978,1.347,35.459
				c1.043,20.314,2.532,43.133,3.715,50.809C120.992,141.97,115.355,142.89,115.355,142.89z M117.271,44.893
				c-9.606,0.494-17.724-3.825-18.024-9.652c-0.298-5.827,7.333-10.956,16.941-11.448c9.763-0.504,17.879,3.817,18.18,9.643
				C134.665,39.264,127.033,44.393,117.271,44.893z M177.035,138.796c0.051-1.74,0.062-4.111-0.142-7.416
				c-0.048-0.788-0.115-1.889-0.175-2.833c-23.305,1.281-35.197-9.676-35.995-22.583c-0.776-12.59,8.913-27.093,28.903-33.384
				c-3.248-21.917-6.48-40.993-7.403-43.147c4.811-1.403,14.738-4.385,18.023-4.905c-0.09,1.112,0.019,2.843,0.145,4.889
				c1.391,22.508,13.12,97.306,15.376,105.698C195.768,135.114,188.663,137.763,177.035,138.796z M195.456,88.365
				c-1.06-17.154,14.2-36.107,42.329-41.163c1.868-0.433,3.757-0.549,5.488-0.656c17.156-1.06,26.779,8.933,27.469,20.106
				c0.778,12.592-9.581,26.503-33.346,27.971c-7.398,0.456-16.133-0.268-26.242-2.803c1.987,11.727,12.213,18.679,27.635,17.725
				c5.353-0.328,11.275-1.644,17.613-3.931l2.321,12.023c-2.821,0.331-5.489,0.654-8.008,0.81
				C213.886,120.722,196.517,105.521,195.456,88.365z M308.025,155.938c-3.294-2.443-6.177-4.912-8.783-7.413
				c-0.566-0.546-1.12-1.09-1.663-1.637c-0.041-0.043-0.083-0.083-0.125-0.125c-0.554-0.562-1.098-1.124-1.626-1.689
				c-0.551,0.399-1.1,0.783-1.644,1.15c-0.019,0.016-0.038-0.044-0.059-0.03c-1.616,1.091-3.198,1.807-4.744,2.807h0.009
				c-5.944,4-11.314,4.592-15.9,4.592c-0.661,0-1.322,0.01-1.951-0.043c-3.328-0.283-5.539-1.242-8.539-2.769v-0.007
				c0-0.353-1.031-0.741-1.513-1.149c-0.104-0.089-0.202-0.179-0.303-0.27c-0.213-0.189-0.419-0.382-0.618-0.584
				c-0.07-0.069-0.132-0.143-0.2-0.215c-0.349-0.361-0.675-0.738-0.98-1.128c-0.11-0.142-0.222-0.281-0.328-0.427
				c-0.141-0.196-0.282-0.394-0.415-0.596c-0.152-0.23-0.294-0.469-0.432-0.705c-0.145-0.246-0.278-0.497-0.407-0.751
				c-0.117-0.229-0.229-0.46-0.333-0.695c-0.078-0.174-0.154-0.35-0.228-0.527c-0.149-0.376-0.292-0.757-0.413-1.147
				c-0.036-0.114-0.062-0.233-0.097-0.349c-0.096-0.334-0.184-0.672-0.258-1.015c-0.031-0.144-0.061-0.29-0.088-0.437
				c-0.086-0.443-0.156-0.89-0.206-1.344c-0.005-0.05-0.005-0.1-0.011-0.147c-0.039-0.431-0.062-0.865-0.07-1.304
				c-0.003-0.127-0.003-0.256-0.003-0.383c0.002-0.486,0.017-0.976,0.058-1.471c0.438-5.186,3.219-10.778,8.601-15.543
				c4.321-3.762,8.347-6.82,11.865-9.681c-0.701-1.758-1.403-3.518-1.972-5.388c-1.976-5.388-2.658-10.182-2.304-14.401
				c0.057-0.65,0.139-1.282,0.241-1.897c0.035-0.21,0.087-0.405,0.128-0.611c0.08-0.398,0.158-0.798,0.257-1.182
				c0.062-0.237,0.139-0.46,0.208-0.688c0.102-0.338,0.199-0.675,0.316-0.999c0.084-0.233,0.182-0.46,0.277-0.688
				c0.121-0.299,0.242-0.6,0.378-0.887c0.106-0.226,0.224-0.442,0.34-0.661c0.142-0.272,0.287-0.541,0.442-0.802
				c0.128-0.211,0.266-0.416,0.398-0.62c0.165-0.246,0.33-0.491,0.507-0.725c0.146-0.196,0.299-0.386,0.454-0.573
				c0.185-0.224,0.373-0.442,0.568-0.653c0.164-0.178,0.334-0.35,0.506-0.52c0.205-0.2,0.413-0.395,0.629-0.584
				c0.18-0.157,0.365-0.312,0.553-0.461c0.223-0.18,0.457-0.35,0.689-0.514c0.194-0.139,0.391-0.273,0.594-0.403
				c0.244-0.156,0.497-0.302,0.753-0.444c0.208-0.116,0.414-0.233,0.626-0.341c0.269-0.135,0.544-0.254,0.822-0.374
				c0.215-0.092,0.428-0.19,0.65-0.274c0.293-0.111,0.597-0.207,0.898-0.302c0.218-0.071,0.436-0.147,0.662-0.209
				c0.324-0.09,0.66-0.159,0.998-0.232c0.214-0.045,0.422-0.1,0.64-0.139c0.389-0.066,0.792-0.113,1.191-0.159
				c0.177-0.018,0.346-0.049,0.524-0.063c0.586-0.051,1.182-0.076,1.789-0.076c0.63,0,1.269,0.026,1.919,0.081
				c0.844,0.072,1.809,0.154,2.765,0.355c0.516,0.106,1.016,0.233,1.497,0.381c0.067,0.019,0.129,0.046,0.195,0.069
				c0.421,0.133,0.831,0.274,1.225,0.438c0.026,0.01,0.051,0.023,0.076,0.034c0.883,0.37,1.703,0.81,2.457,1.315
				c4.385,2.943,6.543,8.094,6.032,14.153c-0.323,3.83-1.77,8.011-4.419,12.176c-0.627,0.986-1.32,1.971-2.084,2.948
				c-0.007,0.011-0.015,0.019-0.021,0.027c-0.376,0.481-0.768,0.961-1.179,1.44c-0.033,0.039-0.072,0.08-0.107,0.121
				c-0.386,0.446-0.783,0.893-1.198,1.333c-0.08,0.086-0.166,0.17-0.249,0.255c-0.38,0.399-0.762,0.796-1.167,1.19
				c-0.148,0.144-0.311,0.287-0.463,0.433c-0.35,0.332-0.698,0.665-1.063,0.993c-0.269,0.239-0.553,0.473-0.829,0.71
				c-0.272,0.232-0.536,0.47-0.817,0.698c-0.57,0.468-1.158,0.932-1.766,1.39c-0.895,0.529-1.678,1.192-2.332,1.746
				c2.995,6.201,6.414,11.712,10.476,16.791c0.387-0.337,0.772-0.686,1.159-1.044c0.245-0.225,0.489-0.459,0.734-0.692
				c0.125-0.121,0.25-0.237,0.376-0.357c0.316-0.306,0.634-0.622,0.953-0.941c0.042-0.042,0.083-0.085,0.127-0.128
				c0.35-0.354,0.699-0.715,1.052-1.084c0.002-0.005,0.005-0.007,0.008-0.01l0,0c1.985-2.093,3.992-4.445,6.025-7.124l5.84,9.962
				c-5.779,3.223-11.105,6.825-11.261,6.932l0,0c-0.003,0.001-0.017,0.011-0.017,0.011c5.16,5.049,10.862,9.416,17.621,12.78
				L308.025,155.938z"/>
			<path fill="#F75F51" d="M282.777,105.6c2.625-2.326,4.77-4.697,6.569-7.337c0.575-1.044,0.898-1.988,0.97-2.83
				c0.214-2.532-1.825-4.259-3.994-4.44C286.188,90.98,286.051,91,285.914,91c-0.005,0-0.011,0-0.016,0
				c-0.262,0-0.525,0.004-0.785,0.045c-0.03,0.006-0.062-0.002-0.093,0.003c-0.253,0.047-0.502,0.11-0.75,0.2
				c-0.035,0.014-0.07,0.024-0.107,0.037c-0.24,0.095-0.475,0.211-0.7,0.35c-0.038,0.021-0.075,0.041-0.11,0.064
				c-0.225,0.145-0.438,0.308-0.641,0.494c-0.033,0.031-0.065,0.062-0.099,0.093c-0.199,0.196-0.389,0.411-0.562,0.651
				c-0.026,0.035-0.051,0.074-0.075,0.111c-0.173,0.252-0.33,0.521-0.467,0.822c-0.018,0.036-0.032,0.074-0.048,0.114
				c-0.137,0.312-0.257,0.648-0.35,1.015c-0.005,0.028-0.011,0.057-0.018,0.086c-0.092,0.388-0.164,0.801-0.202,1.247
				c-0.152,1.81,0.136,4.142,1.104,7.015C282.298,104.102,282.598,104.856,282.777,105.6z"/>
			<path fill="#F75F51" d="M281.55,122.98c-5.18,5.268-7.628,9.797-7.914,13.172c-0.325,3.857,2.021,6.242,5.761,6.559
				c0.322,0.029,0.655,0.043,0.994,0.043c0.041,0,0.082-0.006,0.123-0.006c0.144-0.002,0.292-0.014,0.44-0.02
				c0.256-0.011,0.515-0.024,0.78-0.05c0.166-0.02,0.338-0.042,0.507-0.065c0.257-0.034,0.516-0.073,0.78-0.121
				c0.183-0.034,0.366-0.072,0.55-0.113c0.265-0.059,0.532-0.122,0.803-0.193c0.193-0.051,0.384-0.104,0.58-0.161
				c0.274-0.083,0.558-0.176,0.841-0.273c0.195-0.067,0.393-0.132,0.593-0.207c0.295-0.11,0.596-0.235,0.899-0.362
				c0.194-0.083,0.388-0.159,0.584-0.247c0.334-0.149,0.676-0.318,1.019-0.488c0.17-0.085,0.339-0.162,0.511-0.251
				c0.52-0.271,1.043-0.559,1.575-0.876C287.152,134.261,284.204,128.912,281.55,122.98z"/>
		</g>
	</g>
</g>
<g id="Layer_2">
</g>
</svg>
