<?xml version="1.0" encoding="utf-8"?>
<!-- Generator: Adobe Illustrator 16.0.0, SVG Export Plug-In . SVG Version: 6.00 Build 0)  -->
<!DOCTYPE svg PUBLIC "-//W3C//DTD SVG 1.1//EN" "http://www.w3.org/Graphics/SVG/1.1/DTD/svg11.dtd">
<svg version="1.1" xmlns="http://www.w3.org/2000/svg" xmlns:xlink="http://www.w3.org/1999/xlink" x="0px" y="0px"
	 width="84.668px" height="85px" viewBox="0 0 84.668 85" enable-background="new 0 0 84.668 85" xml:space="preserve">
<g id="LOGO">
</g>
<g id="Layer_4">
</g>
<g id="Layer_5">
</g>
<g id="Layer_8">
</g>
<g id="Layer_3" display="none">
</g>
<g id="Layer_6">
</g>
<g id="Layer_7">
</g>
<g id="Layer_9">
	<g display="none">
		<text transform="matrix(1.0065 0 0 1 10.8652 41.2495)" display="inline"><tspan x="0" y="0" fill="#FFFFFF" font-family="'Nord-Regular'" font-size="34">coming</tspan><tspan x="10.353" y="25" fill="#FFFFFF" font-family="'Nord-Regular'" font-size="34">soon</tspan></text>
	</g>
	<g display="none">
		<text transform="matrix(1.0065 0 0 1 31.5693 37.2495)" display="inline"><tspan x="0" y="0" fill="#FFFFFF" font-family="'Nord-Regular'" font-size="34">on</tspan><tspan x="-8.5" y="27" fill="#FFFFFF" font-family="'Nord-Regular'" font-size="34">hold</tspan></text>
	</g>
	<path fill="#FA6900" d="M42.387,0C19.03,0,0.095,18.936,0.095,42.291c0,23.357,18.936,42.29,42.292,42.29
		c23.358,0,42.292-18.933,42.292-42.29C84.679,18.936,65.745,0,42.387,0z M42.387,82.102c-21.987,0-39.812-17.822-39.812-39.812
		c0-21.987,17.824-39.81,39.812-39.81s39.811,17.823,39.811,39.81C82.197,64.28,64.374,82.102,42.387,82.102z"/>
	<path fill="#FA6900" d="M42.387,4.86c-20.671,0-37.429,16.759-37.429,37.43c0,20.672,16.758,37.43,37.429,37.43
		c20.673,0,37.43-16.757,37.43-37.43C79.816,21.62,63.06,4.86,42.387,4.86z"/>
	<g>
		<g>
			<path fill="#FFFFFF" d="M20.953,39.837c0,1.01-1.575,1.791-3.542,1.791c-1.966,0-3.573-0.781-3.573-1.791V26.486
				c0-1.01,1.607-1.791,3.573-1.791c1.967,0,3.542,0.781,3.542,1.791v2.116c0,0.229-0.46,0.359-1.083,0.359s-1.082-0.13-1.082-0.359
				V27.17c0-0.359-0.622-0.684-1.377-0.684c-0.786,0-1.377,0.325-1.377,0.684v11.984c0,0.358,0.591,0.684,1.377,0.684
				c0.755,0,1.377-0.325,1.377-0.684v-1.433c0-0.228,0.459-0.358,1.082-0.358s1.083,0.13,1.083,0.358V39.837z"/>
			<path fill="#FFFFFF" d="M30.819,39.837c0,1.01-1.573,1.791-3.541,1.791c-1.966,0-3.572-0.781-3.572-1.791V26.486
				c0-1.01,1.606-1.791,3.572-1.791c1.968,0,3.541,0.781,3.541,1.791V39.837z M28.656,27.17c0-0.359-0.623-0.684-1.378-0.684
				c-0.786,0-1.377,0.325-1.377,0.684v11.984c0,0.358,0.591,0.684,1.377,0.684c0.755,0,1.378-0.325,1.378-0.684V27.17z"/>
			<path fill="#FFFFFF" d="M45.276,41.075c0,0.228-0.458,0.39-1.081,0.39s-1.083-0.163-1.083-0.39V27.332
				c0-0.358-0.394-0.652-1.18-0.652c-0.755,0-1.147,0.294-1.147,0.652v13.743c0,0.228-0.492,0.39-1.083,0.39
				c-0.623,0-1.114-0.163-1.114-0.39V27.332c0-0.358-0.394-0.652-1.147-0.652s-1.148,0.294-1.148,0.652v13.743
				c0,0.228-0.49,0.39-1.113,0.39c-0.59,0-1.082-0.163-1.082-0.39V26.648c0-1.01,1.377-1.792,3.344-1.792
				c0.787,0,1.771,0.326,2.262,0.651c0.46-0.326,1.443-0.651,2.23-0.651c1.966,0,3.344,0.781,3.344,1.792V41.075z"/>
			<path fill="#FFFFFF" d="M50.75,21.243c0,0.228-0.491,0.358-1.114,0.358c-0.591,0-1.083-0.13-1.083-0.358v-1.434
				c0-0.228,0.492-0.358,1.083-0.358c0.623,0,1.114,0.13,1.114,0.358V21.243z M50.75,41.075c0,0.228-0.491,0.39-1.114,0.39
				c-0.591,0-1.083-0.163-1.083-0.39V25.249c0-0.229,0.492-0.392,1.083-0.392c0.623,0,1.114,0.163,1.114,0.392V41.075z"/>
			<path fill="#FFFFFF" d="M61.143,41.075c0,0.228-0.46,0.39-1.083,0.39c-0.622,0-1.082-0.163-1.082-0.39V27.17
				c0-0.359-0.622-0.684-1.377-0.684c-0.786,0-1.377,0.325-1.377,0.684v13.905c0,0.228-0.491,0.39-1.114,0.39
				c-0.59,0-1.082-0.163-1.082-0.39V26.486c0-1.01,1.607-1.791,3.573-1.791c1.967,0,3.542,0.781,3.542,1.791V41.075z"/>
			<path fill="#FFFFFF" d="M71.271,45.276c0,1.01-1.573,1.791-3.541,1.791c-1.967,0-3.573-0.781-3.573-1.791v-6.35
				c0-0.782,1.017-1.466,2.458-1.693v-2.737c-1.441-0.194-2.458-0.878-2.458-1.693v-6.317c0-1.01,1.606-1.791,3.573-1.791
				c1.968,0,3.541,0.781,3.541,1.791v6.317c0,0.814-1.016,1.499-2.458,1.693v2.737c1.442,0.227,2.458,0.911,2.458,1.693V45.276z
				 M69.106,27.17c0-0.359-0.623-0.684-1.377-0.684c-0.786,0-1.376,0.325-1.376,0.684v4.917c0,0.391,0.59,0.717,1.376,0.717
				c0.754,0,1.377-0.326,1.377-0.717V27.17z M69.106,39.643c0-0.392-0.623-0.684-1.377-0.684c-0.786,0-1.376,0.292-1.376,0.684
				v4.949c0,0.358,0.59,0.652,1.376,0.652c0.754,0,1.377-0.294,1.377-0.652V39.643z"/>
			<path fill="#FFFFFF" d="M30.41,63.818c0,0.977-1.606,1.758-3.573,1.758s-3.574-0.781-3.574-1.758v-2.15
				c0-0.228,0.492-0.358,1.115-0.358c0.59,0,1.082,0.13,1.082,0.358v1.434c0,0.358,0.623,0.684,1.377,0.684s1.377-0.326,1.377-0.684
				V58.64c0-0.358-0.623-0.651-1.377-0.651c-1.967,0-3.574-0.781-3.574-1.792v-5.764c0-1.01,1.607-1.791,3.574-1.791
				s3.573,0.781,3.573,1.791v2.116c0,0.228-0.492,0.358-1.115,0.358c-0.59,0-1.081-0.13-1.081-0.358v-1.432
				c0-0.358-0.623-0.684-1.377-0.684s-1.377,0.326-1.377,0.684v4.2c0,0.391,0.623,0.716,1.377,0.716
				c1.967,0,3.573,0.782,3.573,1.759V63.818z"/>
			<path fill="#FFFFFF" d="M40.245,63.786c0,1.009-1.574,1.791-3.542,1.791c-1.966,0-3.573-0.781-3.573-1.791V50.434
				c0-1.01,1.607-1.791,3.573-1.791c1.968,0,3.542,0.781,3.542,1.791V63.786z M38.08,51.118c0-0.358-0.622-0.684-1.377-0.684
				c-0.786,0-1.376,0.326-1.376,0.684v11.984c0,0.358,0.59,0.684,1.376,0.684c0.755,0,1.377-0.326,1.377-0.684V51.118z"/>
			<path fill="#FFFFFF" d="M50.637,63.786c0,1.009-1.575,1.791-3.542,1.791s-3.574-0.781-3.574-1.791V50.434
				c0-1.01,1.607-1.791,3.574-1.791s3.542,0.781,3.542,1.791V63.786z M48.472,51.118c0-0.358-0.622-0.684-1.377-0.684
				c-0.787,0-1.377,0.326-1.377,0.684v11.984c0,0.358,0.59,0.684,1.377,0.684c0.755,0,1.377-0.326,1.377-0.684V51.118z"/>
			<path fill="#FFFFFF" d="M61.028,65.023c0,0.228-0.459,0.39-1.082,0.39s-1.082-0.162-1.082-0.39V51.118
				c0-0.358-0.622-0.684-1.377-0.684c-0.787,0-1.378,0.326-1.378,0.684v13.906c0,0.228-0.491,0.39-1.114,0.39
				c-0.59,0-1.082-0.162-1.082-0.39v-14.59c0-1.01,1.607-1.791,3.574-1.791s3.541,0.781,3.541,1.791V65.023z"/>
		</g>
	</g>
	<g display="none">
		<g display="inline">
			<path fill="#FFFFFF" d="M40.708,35.72c0,1.054-1.644,1.869-3.697,1.869c-2.053,0-3.73-0.815-3.73-1.869V21.782
				c0-1.055,1.678-1.87,3.73-1.87c2.054,0,3.697,0.815,3.697,1.87V35.72z M38.448,22.496c0-0.374-0.649-0.714-1.438-0.714
				c-0.821,0-1.438,0.34-1.438,0.714v12.511c0,0.374,0.616,0.714,1.438,0.714c0.788,0,1.438-0.34,1.438-0.714V22.496z"/>
			<path fill="#FFFFFF" d="M51.556,37.012c0,0.237-0.479,0.407-1.13,0.407s-1.13-0.17-1.13-0.407V22.496
				c0-0.374-0.649-0.714-1.438-0.714c-0.821,0-1.438,0.34-1.438,0.714v14.517c0,0.237-0.513,0.407-1.163,0.407
				c-0.616,0-1.13-0.17-1.13-0.407v-15.23c0-1.055,1.678-1.87,3.73-1.87c2.054,0,3.697,0.815,3.697,1.87V37.012z"/>
			<path fill="#FFFFFF" d="M32.152,64.012c0,0.237-0.479,0.407-1.13,0.407s-1.13-0.17-1.13-0.407V49.496
				c0-0.374-0.649-0.714-1.438-0.714c-0.821,0-1.438,0.34-1.438,0.714v14.517c0,0.237-0.513,0.407-1.163,0.407
				c-0.616,0-1.13-0.17-1.13-0.407v-22.2c0-0.238,0.514-0.374,1.13-0.374c0.65,0,1.163,0.136,1.163,0.374v5.508
				c0.514-0.238,1.096-0.408,1.78-0.408c2.225,0,3.354,1.02,3.354,1.87V64.012z"/>
			<path fill="#FFFFFF" d="M43,62.72c0,1.054-1.644,1.869-3.697,1.869c-2.053,0-3.73-0.815-3.73-1.869V48.782
				c0-1.055,1.678-1.87,3.73-1.87c2.054,0,3.697,0.815,3.697,1.87V62.72z M40.74,49.496c0-0.374-0.649-0.714-1.438-0.714
				c-0.821,0-1.438,0.34-1.438,0.714v12.511c0,0.374,0.616,0.714,1.438,0.714c0.788,0,1.438-0.34,1.438-0.714V49.496z"/>
			<path fill="#FFFFFF" d="M50.151,64.589c-2.635,0-3.73-0.884-3.73-1.869V41.812c0-0.238,0.514-0.374,1.13-0.374
				c0.65,0,1.163,0.136,1.163,0.374v20.024c0,0.374,0.343,0.714,1.438,0.714c0.206,0,0.377,0.441,0.377,1.02
				S50.357,64.589,50.151,64.589z"/>
			<path fill="#FFFFFF" d="M60.11,62.72c0,1.054-1.644,1.869-3.697,1.869c-2.053,0-3.73-0.815-3.73-1.869V48.782
				c0-0.851,1.13-1.87,3.389-1.87c0.65,0,1.232,0.17,1.779,0.408v-5.508c0-0.238,0.479-0.374,1.13-0.374s1.13,0.136,1.13,0.374
				V62.72z M57.851,49.496c0-0.374-0.649-0.714-1.438-0.714c-0.821,0-1.438,0.34-1.438,0.714v12.511
				c0,0.374,0.616,0.714,1.438,0.714c0.788,0,1.438-0.34,1.438-0.714V49.496z"/>
		</g>
	</g>
</g>
<g id="PORTADA_FB">
</g>
</svg>
