<?xml version="1.0" encoding="utf-8"?>
<!-- Generator: Adobe Illustrator 16.0.0, SVG Export Plug-In . SVG Version: 6.00 Build 0)  -->
<!DOCTYPE svg PUBLIC "-//W3C//DTD SVG 1.1//EN" "http://www.w3.org/Graphics/SVG/1.1/DTD/svg11.dtd">
<svg version="1.1" xmlns="http://www.w3.org/2000/svg" xmlns:xlink="http://www.w3.org/1999/xlink" x="0px" y="0px"
	 width="84.668px" height="85px" viewBox="0 0 84.668 85" enable-background="new 0 0 84.668 85" xml:space="preserve">
<g id="LOGO">
</g>
<g id="Layer_4">
</g>
<g id="Layer_5">
</g>
<g id="Layer_8">
</g>
<g id="Layer_3" display="none">
</g>
<g id="Layer_6">
</g>
<g id="Layer_7">
</g>
<g id="Layer_9">
	<g display="none">
		<text transform="matrix(1.0065 0 0 1 10.8652 41.2495)" display="inline"><tspan x="0" y="0" fill="#FFFFFF" font-family="'Nord-Regular'" font-size="34">coming</tspan><tspan x="10.353" y="25" fill="#FFFFFF" font-family="'Nord-Regular'" font-size="34">soon</tspan></text>
	</g>
	<g display="none">
		<text transform="matrix(1.0065 0 0 1 31.5693 37.2495)" display="inline"><tspan x="0" y="0" fill="#FFFFFF" font-family="'Nord-Regular'" font-size="34">on</tspan><tspan x="-8.5" y="27" fill="#FFFFFF" font-family="'Nord-Regular'" font-size="34">hold</tspan></text>
	</g>
	<path fill="#FA6900" d="M42.387,0C19.03,0,0.095,18.936,0.095,42.291c0,23.357,18.936,42.29,42.292,42.29
		c23.358,0,42.292-18.933,42.292-42.29C84.679,18.936,65.745,0,42.387,0z M42.387,82.102c-21.987,0-39.812-17.822-39.812-39.812
		c0-21.987,17.824-39.81,39.812-39.81s39.811,17.823,39.811,39.81C82.197,64.28,64.374,82.102,42.387,82.102z"/>
	<path fill="#FA6900" d="M42.387,4.86c-20.671,0-37.429,16.759-37.429,37.43c0,20.672,16.758,37.43,37.429,37.43
		c20.673,0,37.43-16.757,37.43-37.43C79.816,21.62,63.06,4.86,42.387,4.86z"/>
	<g display="none">
		<g display="inline">
			<path fill="#FFFFFF" d="M20.004,39.72c0,1.054-1.644,1.869-3.697,1.869c-2.053,0-3.73-0.815-3.73-1.869V25.782
				c0-1.055,1.678-1.87,3.73-1.87c2.054,0,3.697,0.815,3.697,1.87v2.209c0,0.238-0.479,0.374-1.13,0.374s-1.13-0.136-1.13-0.374
				v-1.495c0-0.374-0.649-0.714-1.438-0.714c-0.821,0-1.438,0.34-1.438,0.714v12.511c0,0.374,0.616,0.714,1.438,0.714
				c0.788,0,1.438-0.34,1.438-0.714V37.51c0-0.238,0.479-0.374,1.13-0.374s1.13,0.136,1.13,0.374V39.72z"/>
			<path fill="#FFFFFF" d="M30.305,39.72c0,1.054-1.644,1.869-3.697,1.869c-2.053,0-3.73-0.815-3.73-1.869V25.782
				c0-1.055,1.678-1.87,3.73-1.87c2.054,0,3.697,0.815,3.697,1.87V39.72z M28.045,26.496c0-0.374-0.649-0.714-1.438-0.714
				c-0.821,0-1.438,0.34-1.438,0.714v12.511c0,0.374,0.616,0.714,1.438,0.714c0.788,0,1.438-0.34,1.438-0.714V26.496z"/>
			<path fill="#FFFFFF" d="M45.396,41.012c0,0.237-0.479,0.407-1.129,0.407s-1.13-0.17-1.13-0.407V26.666
				c0-0.374-0.41-0.681-1.231-0.681c-0.788,0-1.198,0.307-1.198,0.681v14.347c0,0.237-0.514,0.407-1.13,0.407
				c-0.65,0-1.163-0.17-1.163-0.407V26.666c0-0.374-0.411-0.681-1.198-0.681s-1.198,0.307-1.198,0.681v14.347
				c0,0.237-0.513,0.407-1.163,0.407c-0.616,0-1.13-0.17-1.13-0.407V25.952c0-1.055,1.438-1.87,3.491-1.87
				c0.821,0,1.849,0.34,2.361,0.68c0.479-0.34,1.506-0.68,2.328-0.68c2.053,0,3.49,0.815,3.49,1.87V41.012z"/>
			<path fill="#FFFFFF" d="M51.109,20.308c0,0.237-0.513,0.374-1.163,0.374c-0.616,0-1.13-0.137-1.13-0.374v-1.496
				c0-0.238,0.514-0.374,1.13-0.374c0.65,0,1.163,0.136,1.163,0.374V20.308z M51.109,41.012c0,0.237-0.513,0.407-1.163,0.407
				c-0.616,0-1.13-0.17-1.13-0.407V24.49c0-0.238,0.514-0.408,1.13-0.408c0.65,0,1.163,0.17,1.163,0.408V41.012z"/>
			<path fill="#FFFFFF" d="M61.959,41.012c0,0.237-0.479,0.407-1.13,0.407s-1.13-0.17-1.13-0.407V26.496
				c0-0.374-0.649-0.714-1.438-0.714c-0.821,0-1.438,0.34-1.438,0.714v14.517c0,0.237-0.513,0.407-1.163,0.407
				c-0.616,0-1.13-0.17-1.13-0.407v-15.23c0-1.055,1.678-1.87,3.73-1.87c2.054,0,3.697,0.815,3.697,1.87V41.012z"/>
			<path fill="#FFFFFF" d="M72.532,45.397c0,1.055-1.643,1.87-3.696,1.87s-3.73-0.815-3.73-1.87v-6.629
				c0-0.816,1.061-1.53,2.566-1.768v-2.856c-1.506-0.203-2.566-0.917-2.566-1.768v-6.595c0-1.055,1.677-1.87,3.73-1.87
				s3.696,0.815,3.696,1.87v6.595c0,0.851-1.061,1.564-2.566,1.768V37c1.506,0.237,2.566,0.951,2.566,1.768V45.397z M70.273,26.496
				c0-0.374-0.65-0.714-1.438-0.714c-0.821,0-1.438,0.34-1.438,0.714v5.133c0,0.408,0.616,0.748,1.438,0.748
				c0.787,0,1.438-0.34,1.438-0.748V26.496z M70.273,39.516c0-0.408-0.65-0.714-1.438-0.714c-0.821,0-1.438,0.306-1.438,0.714v5.167
				c0,0.374,0.616,0.681,1.438,0.681c0.787,0,1.438-0.307,1.438-0.681V39.516z"/>
			<path fill="#FFFFFF" d="M29.877,64.754c0,1.02-1.678,1.835-3.73,1.835c-2.054,0-3.73-0.815-3.73-1.835V62.51
				c0-0.238,0.513-0.374,1.163-0.374c0.616,0,1.13,0.136,1.13,0.374v1.496c0,0.374,0.65,0.714,1.438,0.714s1.438-0.34,1.438-0.714
				v-4.658c0-0.374-0.65-0.68-1.438-0.68c-2.054,0-3.73-0.815-3.73-1.87v-6.017c0-1.055,1.677-1.87,3.73-1.87
				c2.053,0,3.73,0.815,3.73,1.87v2.209c0,0.238-0.514,0.374-1.164,0.374c-0.616,0-1.129-0.136-1.129-0.374v-1.495
				c0-0.374-0.65-0.714-1.438-0.714s-1.438,0.34-1.438,0.714v4.385c0,0.408,0.65,0.748,1.438,0.748c2.053,0,3.73,0.816,3.73,1.836
				V64.754z"/>
			<path fill="#FFFFFF" d="M40.144,64.72c0,1.054-1.644,1.869-3.697,1.869c-2.053,0-3.73-0.815-3.73-1.869V50.782
				c0-1.055,1.678-1.87,3.73-1.87c2.054,0,3.697,0.815,3.697,1.87V64.72z M37.884,51.496c0-0.374-0.649-0.714-1.438-0.714
				c-0.821,0-1.438,0.34-1.438,0.714v12.511c0,0.374,0.616,0.714,1.438,0.714c0.788,0,1.438-0.34,1.438-0.714V51.496z"/>
			<path fill="#FFFFFF" d="M50.991,64.72c0,1.054-1.644,1.869-3.697,1.869c-2.053,0-3.73-0.815-3.73-1.869V50.782
				c0-1.055,1.678-1.87,3.73-1.87c2.054,0,3.697,0.815,3.697,1.87V64.72z M48.731,51.496c0-0.374-0.649-0.714-1.438-0.714
				c-0.821,0-1.438,0.34-1.438,0.714v12.511c0,0.374,0.616,0.714,1.438,0.714c0.788,0,1.438-0.34,1.438-0.714V51.496z"/>
			<path fill="#FFFFFF" d="M61.84,66.012c0,0.237-0.479,0.407-1.13,0.407s-1.13-0.17-1.13-0.407V51.496
				c0-0.374-0.649-0.714-1.438-0.714c-0.821,0-1.438,0.34-1.438,0.714v14.517c0,0.237-0.513,0.407-1.163,0.407
				c-0.616,0-1.13-0.17-1.13-0.407v-15.23c0-1.055,1.678-1.87,3.73-1.87c2.054,0,3.697,0.815,3.697,1.87V66.012z"/>
		</g>
	</g>
	<g>
		<g>
			<path fill="#FFFFFF" d="M40.708,35.72c0,1.054-1.644,1.869-3.697,1.869c-2.053,0-3.73-0.815-3.73-1.869V21.782
				c0-1.055,1.678-1.87,3.73-1.87c2.054,0,3.697,0.815,3.697,1.87V35.72z M38.448,22.496c0-0.374-0.649-0.714-1.438-0.714
				c-0.821,0-1.438,0.34-1.438,0.714v12.511c0,0.374,0.616,0.714,1.438,0.714c0.788,0,1.438-0.34,1.438-0.714V22.496z"/>
			<path fill="#FFFFFF" d="M51.556,37.012c0,0.237-0.479,0.407-1.13,0.407s-1.13-0.17-1.13-0.407V22.496
				c0-0.374-0.649-0.714-1.438-0.714c-0.821,0-1.438,0.34-1.438,0.714v14.517c0,0.237-0.513,0.407-1.163,0.407
				c-0.616,0-1.13-0.17-1.13-0.407v-15.23c0-1.055,1.678-1.87,3.73-1.87c2.054,0,3.697,0.815,3.697,1.87V37.012z"/>
			<path fill="#FFFFFF" d="M32.152,64.012c0,0.237-0.479,0.407-1.13,0.407s-1.13-0.17-1.13-0.407V49.496
				c0-0.374-0.649-0.714-1.438-0.714c-0.821,0-1.438,0.34-1.438,0.714v14.517c0,0.237-0.513,0.407-1.163,0.407
				c-0.616,0-1.13-0.17-1.13-0.407v-22.2c0-0.238,0.514-0.374,1.13-0.374c0.65,0,1.163,0.136,1.163,0.374v5.508
				c0.514-0.238,1.096-0.408,1.78-0.408c2.225,0,3.354,1.02,3.354,1.87V64.012z"/>
			<path fill="#FFFFFF" d="M43,62.72c0,1.054-1.644,1.869-3.697,1.869c-2.053,0-3.73-0.815-3.73-1.869V48.782
				c0-1.055,1.678-1.87,3.73-1.87c2.054,0,3.697,0.815,3.697,1.87V62.72z M40.74,49.496c0-0.374-0.649-0.714-1.438-0.714
				c-0.821,0-1.438,0.34-1.438,0.714v12.511c0,0.374,0.616,0.714,1.438,0.714c0.788,0,1.438-0.34,1.438-0.714V49.496z"/>
			<path fill="#FFFFFF" d="M50.151,64.589c-2.635,0-3.73-0.884-3.73-1.869V41.812c0-0.238,0.514-0.374,1.13-0.374
				c0.65,0,1.163,0.136,1.163,0.374v20.024c0,0.374,0.343,0.714,1.438,0.714c0.206,0,0.377,0.441,0.377,1.02
				S50.357,64.589,50.151,64.589z"/>
			<path fill="#FFFFFF" d="M60.11,62.72c0,1.054-1.644,1.869-3.697,1.869c-2.053,0-3.73-0.815-3.73-1.869V48.782
				c0-0.851,1.13-1.87,3.389-1.87c0.65,0,1.232,0.17,1.779,0.408v-5.508c0-0.238,0.479-0.374,1.13-0.374s1.13,0.136,1.13,0.374
				V62.72z M57.851,49.496c0-0.374-0.649-0.714-1.438-0.714c-0.821,0-1.438,0.34-1.438,0.714v12.511
				c0,0.374,0.616,0.714,1.438,0.714c0.788,0,1.438-0.34,1.438-0.714V49.496z"/>
		</g>
	</g>
</g>
<g id="PORTADA_FB">
</g>
</svg>
