<?xml version="1.0" encoding="utf-8"?>
<!-- Generator: Adobe Illustrator 16.0.0, SVG Export Plug-In . SVG Version: 6.00 Build 0)  -->
<!DOCTYPE svg PUBLIC "-//W3C//DTD SVG 1.1//EN" "http://www.w3.org/Graphics/SVG/1.1/DTD/svg11.dtd">
<svg version="1.1" id="Layer_1" xmlns="http://www.w3.org/2000/svg" xmlns:xlink="http://www.w3.org/1999/xlink" x="0px" y="0px"
	 width="375px" height="75.5px" viewBox="0 0 375 75.5" enable-background="new 0 0 375 75.5" xml:space="preserve">
<g id="LOGO">
</g>
<g id="Layer_4">
</g>
<g id="Layer_5">
	<g display="none">
		<path display="inline" fill="#FA6900" d="M38.578,12.332c-13.829,0-25.041,11.211-25.041,25.038
			c0,13.83,11.212,25.039,25.041,25.039S63.619,51.2,63.619,37.37C63.619,23.543,52.407,12.332,38.578,12.332z M38.578,60.943
			c-13.018,0-23.572-10.555-23.572-23.573c0-13.017,10.555-23.571,23.572-23.571S62.15,24.354,62.15,37.37
			C62.15,50.389,51.596,60.943,38.578,60.943z"/>
		<path display="inline" fill="#FA6900" d="M74.949,37.37C74.949,17.315,58.633,1,38.578,1C18.523,1,2.208,17.315,2.208,37.37
			c0,20.056,16.316,36.371,36.371,36.371c6.921,0,13.397-1.942,18.912-5.314c1.519,1.476,3.59,2.388,5.875,2.388
			c4.664,0,8.444-3.782,8.444-8.446c0-2.259-0.891-4.312-2.337-5.826C72.94,50.971,74.949,44.4,74.949,37.37z M63.365,53.924
			c-4.662,0-8.443,3.781-8.443,8.443c0,1.697,0.503,3.275,1.363,4.598c-5.181,3.111-11.237,4.902-17.707,4.902
			C19.557,71.867,4.08,56.393,4.08,37.37c0-19.021,15.476-34.499,34.498-34.499S73.076,18.349,73.076,37.37
			c0,6.573-1.849,12.722-5.053,17.955C66.689,54.441,65.088,53.924,63.365,53.924z"/>
		<path display="inline" fill="#FA6900" d="M38.578,15.208c-12.239,0-22.161,9.924-22.161,22.162
			c0,12.239,9.922,22.162,22.161,22.162c12.24,0,22.161-9.923,22.161-22.162C60.739,25.132,50.818,15.208,38.578,15.208z"/>
	</g>
	
		<text transform="matrix(1.0065 0 0 1 82.75 57.9873)" display="none" fill="#FA6900" enable-background="new    " font-family="'Nord-Regular'" font-size="57.9287">SAMA SAMA studios</text>
	<g>
		<path fill="#FA6900" d="M97.384,54.438c0,1.738-2.856,3.129-6.354,3.129c-3.498,0-6.355-1.391-6.355-3.129v-3.821
			c0-0.406,0.875-0.638,1.982-0.638c1.05,0,1.924,0.23,1.924,0.638v2.548c0,0.638,1.108,1.217,2.449,1.217
			c1.341,0,2.448-0.579,2.448-1.217V40.422c0-0.638-1.107-1.217-2.448-1.217c-3.498,0-6.355-1.39-6.355-3.128V20.96
			c0-1.796,2.857-3.187,6.355-3.187c3.498,0,6.354,1.391,6.354,3.187v3.765c0,0.405-0.874,0.695-1.981,0.695
			c-1.05,0-1.925-0.29-1.925-0.695v-2.549c0-0.637-1.107-1.158-2.448-1.158c-1.341,0-2.449,0.521-2.449,1.158v12.338
			c0,0.694,1.108,1.216,2.449,1.216c3.498,0,6.354,1.391,6.354,3.127V54.438z"/>
		<path fill="#FA6900" d="M114.876,56.582c0,0.404-0.816,0.695-1.924,0.695c-1.108,0-1.925-0.291-1.925-0.695V38.915h-4.897v17.667
			c0,0.404-0.874,0.695-1.982,0.695c-1.049,0-1.924-0.291-1.924-0.695V20.96c0-1.796,2.857-3.187,6.355-3.187
			s6.297,1.391,6.297,3.187V56.582L114.876,56.582z M111.027,35.44V22.176c0-0.637-1.107-1.158-2.448-1.158
			c-1.399,0-2.449,0.521-2.449,1.158V35.44H111.027z"/>
		<path fill="#FA6900" d="M140.588,56.582c0,0.404-0.816,0.695-1.924,0.695s-1.924-0.291-1.924-0.695V22.176
			c0-0.637-0.7-1.158-2.1-1.158c-1.341,0-2.04,0.521-2.04,1.158v34.406c0,0.404-0.875,0.695-1.925,0.695
			c-1.107,0-1.982-0.291-1.982-0.695V22.176c0-0.637-0.699-1.158-2.04-1.158c-1.341,0-2.041,0.521-2.041,1.158v34.406
			c0,0.404-0.874,0.695-1.982,0.695c-1.049,0-1.924-0.291-1.924-0.695V20.96c0-1.796,2.449-3.187,5.947-3.187
			c1.399,0,3.148,0.58,4.022,1.159c0.816-0.579,2.565-1.159,3.965-1.159c3.498,0,5.947,1.391,5.947,3.187L140.588,56.582
			L140.588,56.582z"/>
		<path fill="#FA6900" d="M159.072,56.582c0,0.404-0.816,0.695-1.924,0.695s-1.925-0.291-1.925-0.695V38.915h-4.897v17.667
			c0,0.404-0.874,0.695-1.982,0.695c-1.049,0-1.924-0.291-1.924-0.695V20.96c0-1.796,2.857-3.187,6.355-3.187
			s6.297,1.391,6.297,3.187V56.582z M155.224,35.44V22.176c0-0.637-1.107-1.158-2.448-1.158c-1.399,0-2.449,0.521-2.449,1.158V35.44
			H155.224z"/>
		<path fill="#FA6900" d="M186.357,54.438c0,1.738-2.856,3.129-6.354,3.129s-6.355-1.391-6.355-3.129v-3.821
			c0-0.406,0.875-0.638,1.982-0.638c1.05,0,1.924,0.23,1.924,0.638v2.548c0,0.638,1.108,1.217,2.449,1.217s2.448-0.579,2.448-1.217
			V40.422c0-0.638-1.107-1.217-2.448-1.217c-3.498,0-6.355-1.39-6.355-3.128V20.96c0-1.796,2.857-3.187,6.355-3.187
			s6.354,1.391,6.354,3.187v3.765c0,0.405-0.874,0.695-1.981,0.695c-1.05,0-1.925-0.29-1.925-0.695v-2.549
			c0-0.637-1.107-1.158-2.448-1.158s-2.449,0.521-2.449,1.158v12.338c0,0.694,1.108,1.216,2.449,1.216
			c3.498,0,6.354,1.391,6.354,3.127V54.438z"/>
		<path fill="#FA6900" d="M203.852,56.582c0,0.404-0.816,0.695-1.925,0.695s-1.925-0.291-1.925-0.695V38.915h-4.896v17.667
			c0,0.404-0.875,0.695-1.982,0.695c-1.049,0-1.924-0.291-1.924-0.695V20.96c0-1.796,2.857-3.187,6.355-3.187
			c3.497,0,6.297,1.391,6.297,3.187V56.582z M200.002,35.44V22.176c0-0.637-1.107-1.158-2.447-1.158c-1.4,0-2.449,0.521-2.449,1.158
			V35.44H200.002z"/>
		<path fill="#FA6900" d="M229.562,56.582c0,0.404-0.816,0.695-1.924,0.695c-1.109,0-1.925-0.291-1.925-0.695V22.176
			c0-0.637-0.7-1.158-2.101-1.158c-1.34,0-2.039,0.521-2.039,1.158v34.406c0,0.404-0.875,0.695-1.926,0.695
			c-1.106,0-1.981-0.291-1.981-0.695V22.176c0-0.637-0.699-1.158-2.04-1.158s-2.041,0.521-2.041,1.158v34.406
			c0,0.404-0.874,0.695-1.982,0.695c-1.049,0-1.924-0.291-1.924-0.695V20.96c0-1.796,2.449-3.187,5.947-3.187
			c1.398,0,3.148,0.58,4.021,1.159c0.816-0.579,2.565-1.159,3.966-1.159c3.497,0,5.946,1.391,5.946,3.187v35.622H229.562z"/>
		<path fill="#FA6900" d="M248.046,56.582c0,0.404-0.815,0.695-1.924,0.695s-1.925-0.291-1.925-0.695V38.915H239.3v17.667
			c0,0.404-0.874,0.695-1.981,0.695c-1.049,0-1.924-0.291-1.924-0.695V20.96c0-1.796,2.856-3.187,6.354-3.187
			s6.297,1.391,6.297,3.187V56.582z M244.197,35.44V22.176c0-0.637-1.107-1.158-2.448-1.158c-1.399,0-2.449,0.521-2.449,1.158V35.44
			H244.197z"/>
		<path fill="#FA6900" d="M275.331,54.438c0,1.738-2.856,3.129-6.354,3.129s-6.354-1.391-6.354-3.129v-3.821
			c0-0.406,0.875-0.638,1.981-0.638c1.051,0,1.924,0.23,1.924,0.638v2.548c0,0.638,1.108,1.217,2.449,1.217
			c1.342,0,2.448-0.579,2.448-1.217v-7.936c0-0.638-1.106-1.158-2.448-1.158c-3.498,0-6.354-1.391-6.354-3.187V30.633
			c0-1.796,2.856-3.186,6.354-3.186s6.354,1.39,6.354,3.186v3.765c0,0.405-0.874,0.638-1.981,0.638c-1.05,0-1.925-0.232-1.925-0.638
			v-2.549c0-0.637-1.106-1.216-2.448-1.216c-1.34,0-2.449,0.579-2.449,1.216v7.473c0,0.693,1.109,1.273,2.449,1.273
			c3.498,0,6.354,1.391,6.354,3.127V54.438L275.331,54.438z"/>
		<path fill="#FA6900" d="M290.9,31.501h-4.373v25.081c0,0.404-0.875,0.695-1.982,0.695c-1.05,0-1.924-0.291-1.924-0.695V31.501
			h-3.906c-0.352,0-0.642-0.753-0.642-1.737s0.29-1.737,0.642-1.737h3.906v-9.268c0-0.405,0.874-0.638,1.924-0.638
			c1.107,0,1.982,0.232,1.982,0.638v9.268h4.373c0.406,0,0.641,0.753,0.641,1.737S291.309,31.501,290.9,31.501z"/>
		<path fill="#FA6900" d="M307.691,54.381c0,1.796-2.799,3.186-6.297,3.186s-6.355-1.39-6.355-3.186V28.432
			c0-0.405,0.875-0.695,1.924-0.695c1.107,0,1.982,0.29,1.982,0.695v24.675c0,0.694,1.05,1.273,2.449,1.273
			c1.34,0,2.447-0.579,2.447-1.273V28.432c0-0.405,0.816-0.695,1.926-0.695c1.106,0,1.924,0.29,1.924,0.695V54.381z"/>
		<path fill="#FA6900" d="M326.174,54.381c0,1.796-2.799,3.186-6.297,3.186s-6.354-1.39-6.354-3.186V30.633
			c0-1.448,1.924-3.186,5.771-3.186c1.107,0,2.099,0.289,3.031,0.694v-9.383c0-0.405,0.815-0.638,1.925-0.638
			c1.107,0,1.924,0.232,1.924,0.638V54.381z M322.325,31.849c0-0.637-1.107-1.216-2.448-1.216c-1.398,0-2.449,0.579-2.449,1.216
			v21.315c0,0.638,1.05,1.217,2.449,1.217c1.341,0,2.448-0.579,2.448-1.217V31.849z"/>
		<path fill="#FA6900" d="M335.91,21.308c0,0.405-0.874,0.637-1.982,0.637c-1.049,0-1.924-0.231-1.924-0.637v-2.549
			c0-0.405,0.875-0.638,1.924-0.638c1.108,0,1.982,0.232,1.982,0.638V21.308z M335.91,56.582c0,0.404-0.874,0.695-1.982,0.695
			c-1.049,0-1.924-0.291-1.924-0.695v-28.15c0-0.405,0.875-0.695,1.924-0.695c1.108,0,1.982,0.29,1.982,0.695V56.582z"/>
		<path fill="#FA6900" d="M354.394,54.381c0,1.796-2.799,3.186-6.297,3.186s-6.354-1.39-6.354-3.186V30.633
			c0-1.796,2.856-3.186,6.354-3.186s6.297,1.39,6.297,3.186V54.381z M350.545,31.849c0-0.637-1.106-1.216-2.448-1.216
			c-1.398,0-2.448,0.579-2.448,1.216v21.315c0,0.638,1.05,1.217,2.448,1.217c1.342,0,2.448-0.579,2.448-1.217V31.849z"/>
		<path fill="#FA6900" d="M371.942,54.438c0,1.738-2.856,3.129-6.354,3.129s-6.354-1.391-6.354-3.129v-3.821
			c0-0.406,0.875-0.638,1.981-0.638c1.05,0,1.924,0.23,1.924,0.638v2.548c0,0.638,1.108,1.217,2.449,1.217s2.448-0.579,2.448-1.217
			v-7.936c0-0.638-1.107-1.158-2.448-1.158c-3.498,0-6.354-1.391-6.354-3.187V30.633c0-1.796,2.856-3.186,6.354-3.186
			s6.354,1.39,6.354,3.186v3.765c0,0.405-0.874,0.638-1.981,0.638c-1.05,0-1.925-0.232-1.925-0.638v-2.549
			c0-0.637-1.107-1.216-2.448-1.216s-2.449,0.579-2.449,1.216v7.473c0,0.693,1.108,1.273,2.449,1.273
			c3.498,0,6.354,1.391,6.354,3.127V54.438L371.942,54.438z"/>
	</g>
	<g>
		<path fill="#FA6900" d="M38.578,16.976c-11.429,0-20.693,9.267-20.693,20.693c0,11.431,9.264,20.694,20.693,20.694
			c11.43,0,20.695-9.264,20.695-20.694C59.272,26.242,50.008,16.976,38.578,16.976z"/>
		<path fill="#FA6900" d="M72.541,37.669c0-18.727-15.235-33.962-33.963-33.962c-18.727,0-33.961,15.235-33.961,33.962
			c0,18.728,15.235,33.964,33.961,33.964c6.464,0,12.51-1.814,17.66-4.964c1.418,1.379,3.353,2.228,5.487,2.228
			c4.355,0,7.885-3.528,7.885-7.885c0-2.109-0.831-4.025-2.183-5.441C70.666,50.369,72.541,44.234,72.541,37.669z M61.725,53.127
			c-4.354,0-7.884,3.531-7.884,7.885c0,1.586,0.469,3.059,1.272,4.295c-4.837,2.903-10.494,4.576-16.535,4.576
			c-17.762,0-32.212-14.451-32.212-32.214c0-17.762,14.451-32.213,32.212-32.213c17.763,0,32.215,14.451,32.215,32.213
			c0,6.14-1.727,11.88-4.719,16.769C64.828,53.609,63.333,53.127,61.725,53.127z"/>
	</g>
</g>
<g id="Layer_3" display="none">
</g>
<g id="Layer_6">
</g>
<g id="PORTADA_FB" display="none">
</g>
</svg>
