<?xml version="1.0" encoding="utf-8"?>
<!-- Generator: Adobe Illustrator 16.0.0, SVG Export Plug-In . SVG Version: 6.00 Build 0)  -->
<!DOCTYPE svg PUBLIC "-//W3C//DTD SVG 1.1//EN" "http://www.w3.org/Graphics/SVG/1.1/DTD/svg11.dtd">
<svg version="1.1" xmlns="http://www.w3.org/2000/svg" xmlns:xlink="http://www.w3.org/1999/xlink" x="0px" y="0px" width="375px"
	 height="75.5px" viewBox="0 0 375 75.5" enable-background="new 0 0 375 75.5" xml:space="preserve">
<g id="Layer_5">
	<g display="none">
		<path fill="#FFFFFF" d="M38.578,12.332c-13.829,0-25.041,11.211-25.041,25.038c0,13.83,11.212,25.039,25.041,25.039
			S63.619,51.2,63.619,37.37C63.619,23.543,52.407,12.332,38.578,12.332z M38.578,60.943c-13.018,0-23.572-10.555-23.572-23.573
			c0-13.017,10.555-23.571,23.572-23.571S62.15,24.354,62.15,37.37C62.15,50.389,51.596,60.943,38.578,60.943z"/>
		<path display="inline" fill="#FFFFFF" d="M74.949,37.37C74.949,17.315,58.633,1,38.578,1C18.523,1,2.208,17.315,2.208,37.37
			c0,20.056,16.316,36.371,36.371,36.371c6.921,0,13.397-1.942,18.912-5.314c1.519,1.475,3.59,2.387,5.875,2.387
			c4.664,0,8.444-3.782,8.444-8.446c0-2.259-0.891-4.312-2.337-5.826C72.94,50.971,74.949,44.4,74.949,37.37z M63.365,53.924
			c-4.662,0-8.443,3.781-8.443,8.443c0,1.697,0.503,3.275,1.363,4.598c-5.181,3.111-11.237,4.902-17.707,4.902
			c-19.021,0-34.498-15.475-34.498-34.497c0-19.021,15.476-34.499,34.498-34.499S73.076,18.349,73.076,37.37
			c0,6.574-1.849,12.722-5.053,17.955C66.689,54.441,65.088,53.924,63.365,53.924z"/>
		<path display="inline" fill="#FFFFFF" d="M38.578,15.208c-12.239,0-22.161,9.924-22.161,22.162
			c0,12.239,9.922,22.162,22.161,22.162c12.24,0,22.161-9.923,22.161-22.162C60.739,25.132,50.818,15.208,38.578,15.208z"/>
	</g>
	<g>
		<path fill="#FFFFFF" d="M97.384,54.438c0,1.738-2.856,3.128-6.354,3.128s-6.355-1.39-6.355-3.128v-3.822
			c0-0.406,0.875-0.638,1.982-0.638c1.05,0,1.924,0.231,1.924,0.638v2.548c0,0.638,1.108,1.217,2.449,1.217s2.448-0.579,2.448-1.217
			V40.422c0-0.638-1.107-1.217-2.448-1.217c-3.498,0-6.355-1.39-6.355-3.128V20.96c0-1.796,2.857-3.187,6.355-3.187
			s6.354,1.391,6.354,3.187v3.765c0,0.405-0.874,0.695-1.981,0.695c-1.05,0-1.925-0.29-1.925-0.695v-2.549
			c0-0.637-1.107-1.158-2.448-1.158s-2.449,0.521-2.449,1.158v12.338c0,0.694,1.108,1.216,2.449,1.216
			c3.498,0,6.354,1.391,6.354,3.128V54.438z"/>
		<path fill="#FFFFFF" d="M114.876,56.582c0,0.405-0.816,0.695-1.924,0.695c-1.108,0-1.925-0.29-1.925-0.695V38.915h-4.897v17.667
			c0,0.405-0.874,0.695-1.982,0.695c-1.049,0-1.924-0.29-1.924-0.695V20.96c0-1.796,2.857-3.187,6.355-3.187
			s6.297,1.391,6.297,3.187V56.582z M111.027,35.44V22.176c0-0.637-1.107-1.158-2.448-1.158c-1.399,0-2.449,0.521-2.449,1.158V35.44
			H111.027z"/>
		<path fill="#FFFFFF" d="M140.588,56.582c0,0.405-0.816,0.695-1.924,0.695c-1.108,0-1.924-0.29-1.924-0.695V22.176
			c0-0.637-0.7-1.158-2.1-1.158c-1.341,0-2.04,0.521-2.04,1.158v34.406c0,0.405-0.875,0.695-1.925,0.695
			c-1.107,0-1.982-0.29-1.982-0.695V22.176c0-0.637-0.699-1.158-2.04-1.158s-2.041,0.521-2.041,1.158v34.406
			c0,0.405-0.874,0.695-1.982,0.695c-1.049,0-1.924-0.29-1.924-0.695V20.96c0-1.796,2.449-3.187,5.947-3.187
			c1.399,0,3.148,0.58,4.022,1.159c0.816-0.579,2.565-1.159,3.965-1.159c3.498,0,5.947,1.391,5.947,3.187V56.582z"/>
		<path fill="#FFFFFF" d="M159.072,56.582c0,0.405-0.816,0.695-1.924,0.695c-1.108,0-1.925-0.29-1.925-0.695V38.915h-4.897v17.667
			c0,0.405-0.874,0.695-1.982,0.695c-1.049,0-1.924-0.29-1.924-0.695V20.96c0-1.796,2.857-3.187,6.355-3.187
			s6.297,1.391,6.297,3.187V56.582z M155.224,35.44V22.176c0-0.637-1.107-1.158-2.448-1.158c-1.399,0-2.449,0.521-2.449,1.158V35.44
			H155.224z"/>
		<path fill="#FFFFFF" d="M186.357,54.438c0,1.738-2.856,3.128-6.354,3.128s-6.355-1.39-6.355-3.128v-3.822
			c0-0.406,0.875-0.638,1.982-0.638c1.05,0,1.924,0.231,1.924,0.638v2.548c0,0.638,1.108,1.217,2.449,1.217s2.448-0.579,2.448-1.217
			V40.422c0-0.638-1.107-1.217-2.448-1.217c-3.498,0-6.355-1.39-6.355-3.128V20.96c0-1.796,2.857-3.187,6.355-3.187
			s6.354,1.391,6.354,3.187v3.765c0,0.405-0.874,0.695-1.981,0.695c-1.05,0-1.925-0.29-1.925-0.695v-2.549
			c0-0.637-1.107-1.158-2.448-1.158s-2.449,0.521-2.449,1.158v12.338c0,0.694,1.108,1.216,2.449,1.216
			c3.498,0,6.354,1.391,6.354,3.128V54.438z"/>
		<path fill="#FFFFFF" d="M203.851,56.582c0,0.405-0.816,0.695-1.924,0.695c-1.108,0-1.925-0.29-1.925-0.695V38.915h-4.897v17.667
			c0,0.405-0.874,0.695-1.982,0.695c-1.049,0-1.924-0.29-1.924-0.695V20.96c0-1.796,2.857-3.187,6.355-3.187
			s6.297,1.391,6.297,3.187V56.582z M200.002,35.44V22.176c0-0.637-1.107-1.158-2.448-1.158c-1.399,0-2.449,0.521-2.449,1.158V35.44
			H200.002z"/>
		<path fill="#FFFFFF" d="M229.562,56.582c0,0.405-0.816,0.695-1.924,0.695c-1.108,0-1.924-0.29-1.924-0.695V22.176
			c0-0.637-0.7-1.158-2.1-1.158c-1.341,0-2.04,0.521-2.04,1.158v34.406c0,0.405-0.875,0.695-1.925,0.695
			c-1.107,0-1.982-0.29-1.982-0.695V22.176c0-0.637-0.699-1.158-2.04-1.158s-2.041,0.521-2.041,1.158v34.406
			c0,0.405-0.874,0.695-1.982,0.695c-1.049,0-1.924-0.29-1.924-0.695V20.96c0-1.796,2.449-3.187,5.947-3.187
			c1.399,0,3.148,0.58,4.022,1.159c0.816-0.579,2.565-1.159,3.965-1.159c3.498,0,5.947,1.391,5.947,3.187V56.582z"/>
		<path fill="#FFFFFF" d="M248.046,56.582c0,0.405-0.816,0.695-1.924,0.695c-1.108,0-1.925-0.29-1.925-0.695V38.915H239.3v17.667
			c0,0.405-0.874,0.695-1.982,0.695c-1.049,0-1.924-0.29-1.924-0.695V20.96c0-1.796,2.857-3.187,6.355-3.187
			s6.297,1.391,6.297,3.187V56.582z M244.197,35.44V22.176c0-0.637-1.107-1.158-2.448-1.158c-1.399,0-2.449,0.521-2.449,1.158V35.44
			H244.197z"/>
		<path fill="#FFFFFF" d="M275.331,54.438c0,1.738-2.856,3.128-6.354,3.128s-6.355-1.39-6.355-3.128v-3.822
			c0-0.406,0.875-0.638,1.982-0.638c1.05,0,1.924,0.231,1.924,0.638v2.548c0,0.638,1.108,1.217,2.449,1.217s2.448-0.579,2.448-1.217
			v-7.935c0-0.638-1.107-1.159-2.448-1.159c-3.498,0-6.355-1.39-6.355-3.186V30.633c0-1.796,2.857-3.186,6.355-3.186
			s6.354,1.39,6.354,3.186v3.765c0,0.405-0.874,0.638-1.981,0.638c-1.05,0-1.925-0.232-1.925-0.638v-2.549
			c0-0.637-1.107-1.216-2.448-1.216s-2.449,0.579-2.449,1.216v7.473c0,0.694,1.108,1.274,2.449,1.274
			c3.498,0,6.354,1.39,6.354,3.127V54.438z"/>
		<path fill="#FFFFFF" d="M290.9,31.501h-4.373v25.081c0,0.405-0.875,0.695-1.982,0.695c-1.05,0-1.924-0.29-1.924-0.695V31.501
			h-3.906c-0.351,0-0.642-0.753-0.642-1.737s0.291-1.737,0.642-1.737h3.906v-9.268c0-0.405,0.874-0.638,1.924-0.638
			c1.107,0,1.982,0.232,1.982,0.638v9.268h4.373c0.407,0,0.641,0.753,0.641,1.737S291.308,31.501,290.9,31.501z"/>
		<path fill="#FFFFFF" d="M307.691,54.381c0,1.796-2.799,3.186-6.297,3.186s-6.355-1.39-6.355-3.186V28.432
			c0-0.405,0.875-0.695,1.924-0.695c1.108,0,1.982,0.29,1.982,0.695v24.675c0,0.695,1.05,1.274,2.449,1.274
			c1.341,0,2.448-0.579,2.448-1.274V28.432c0-0.405,0.816-0.695,1.925-0.695c1.107,0,1.924,0.29,1.924,0.695V54.381z"/>
		<path fill="#FFFFFF" d="M326.174,54.381c0,1.796-2.799,3.186-6.297,3.186s-6.355-1.39-6.355-3.186V30.633
			c0-1.448,1.924-3.186,5.772-3.186c1.107,0,2.099,0.289,3.031,0.694v-9.383c0-0.405,0.816-0.638,1.925-0.638
			c1.107,0,1.924,0.232,1.924,0.638V54.381z M322.325,31.849c0-0.637-1.107-1.216-2.448-1.216c-1.399,0-2.449,0.579-2.449,1.216
			v21.315c0,0.638,1.05,1.217,2.449,1.217c1.341,0,2.448-0.579,2.448-1.217V31.849z"/>
		<path fill="#FFFFFF" d="M335.91,21.308c0,0.405-0.874,0.637-1.982,0.637c-1.049,0-1.924-0.231-1.924-0.637v-2.549
			c0-0.405,0.875-0.638,1.924-0.638c1.108,0,1.982,0.232,1.982,0.638V21.308z M335.91,56.582c0,0.405-0.874,0.695-1.982,0.695
			c-1.049,0-1.924-0.29-1.924-0.695v-28.15c0-0.405,0.875-0.695,1.924-0.695c1.108,0,1.982,0.29,1.982,0.695V56.582z"/>
		<path fill="#FFFFFF" d="M354.394,54.381c0,1.796-2.799,3.186-6.297,3.186s-6.355-1.39-6.355-3.186V30.633
			c0-1.796,2.857-3.186,6.355-3.186s6.297,1.39,6.297,3.186V54.381z M350.545,31.849c0-0.637-1.107-1.216-2.448-1.216
			c-1.399,0-2.449,0.579-2.449,1.216v21.315c0,0.638,1.05,1.217,2.449,1.217c1.341,0,2.448-0.579,2.448-1.217V31.849z"/>
		<path fill="#FFFFFF" d="M371.942,54.438c0,1.738-2.856,3.128-6.354,3.128s-6.355-1.39-6.355-3.128v-3.822
			c0-0.406,0.875-0.638,1.982-0.638c1.05,0,1.924,0.231,1.924,0.638v2.548c0,0.638,1.108,1.217,2.449,1.217s2.448-0.579,2.448-1.217
			v-7.935c0-0.638-1.107-1.159-2.448-1.159c-3.498,0-6.355-1.39-6.355-3.186V30.633c0-1.796,2.857-3.186,6.355-3.186
			s6.354,1.39,6.354,3.186v3.765c0,0.405-0.874,0.638-1.981,0.638c-1.05,0-1.925-0.232-1.925-0.638v-2.549
			c0-0.637-1.107-1.216-2.448-1.216s-2.449,0.579-2.449,1.216v7.473c0,0.694,1.108,1.274,2.449,1.274
			c3.498,0,6.354,1.39,6.354,3.127V54.438z"/>
	</g>
	<g>
		<path fill="#FFFFFF" d="M38.578,16.976c-11.429,0-20.693,9.267-20.693,20.693c0,11.431,9.264,20.694,20.693,20.694
			c11.43,0,20.695-9.264,20.695-20.694C59.272,26.242,50.008,16.976,38.578,16.976z"/>
		<path fill="#FFFFFF" d="M72.541,37.669c0-18.727-15.235-33.962-33.963-33.962c-18.727,0-33.961,15.235-33.961,33.962
			c0,18.728,15.235,33.964,33.961,33.964c6.464,0,12.51-1.814,17.66-4.964c1.418,1.379,3.353,2.228,5.487,2.228
			c4.355,0,7.885-3.529,7.885-7.885c0-2.109-0.831-4.026-2.183-5.441C70.666,50.369,72.541,44.235,72.541,37.669z M61.725,53.127
			c-4.354,0-7.884,3.531-7.884,7.885c0,1.585,0.469,3.059,1.272,4.294c-4.837,2.904-10.494,4.577-16.535,4.577
			c-17.762,0-32.212-14.451-32.212-32.214c0-17.762,14.451-32.213,32.212-32.213c17.763,0,32.215,14.451,32.215,32.213
			c0,6.139-1.727,11.88-4.719,16.768C64.828,53.609,63.333,53.127,61.725,53.127z"/>
		<path fill="#333333" d="M40.843,25.629c0,0.14-0.304,0.24-0.687,0.24c-0.363,0-0.667-0.101-0.667-0.24v-0.884
			c0-0.22-0.383-0.4-0.847-0.4s-0.847,0.181-0.847,0.4v4.272c0,0.24,0.383,0.421,0.847,0.421c1.21,0,2.2,0.48,2.2,1.081v5.396
			c0,0.602-0.99,1.081-2.2,1.081c-1.21,0-2.2-0.479-2.2-1.081v-1.324c0-0.14,0.303-0.22,0.687-0.22c0.362,0,0.666,0.08,0.666,0.22
			v0.883c0,0.22,0.383,0.421,0.847,0.421s0.847-0.201,0.847-0.421v-4.41c0-0.221-0.383-0.422-0.847-0.422
			c-1.21,0-2.2-0.482-2.2-1.083v-5.234c0-0.62,0.989-1.103,2.2-1.103c1.21,0,2.2,0.482,2.2,1.103V25.629z"/>
		<path fill="#333333" d="M40.843,40.749c0,0.14-0.303,0.221-0.687,0.221c-0.363,0-0.666-0.081-0.666-0.221v-0.882
			c0-0.221-0.383-0.421-0.848-0.421c-0.464,0-0.847,0.2-0.847,0.421v4.41c0,0.221,0.383,0.421,0.847,0.421
			c1.211,0,2.2,0.482,2.2,1.083v5.233c0,0.622-0.989,1.104-2.2,1.104c-1.211,0-2.2-0.481-2.2-1.104v-1.303
			c0-0.141,0.303-0.24,0.686-0.24c0.363,0,0.667,0.1,0.667,0.24v0.882c0,0.221,0.383,0.4,0.847,0.4c0.464,0,0.848-0.18,0.848-0.4
			v-4.272c0-0.24-0.383-0.421-0.848-0.421c-1.211,0-2.2-0.48-2.2-1.081v-5.395c0-0.6,0.989-1.081,2.2-1.081
			c1.211,0,2.2,0.481,2.2,1.081V40.749z"/>
	</g>
</g>

</svg>
