<?xml version="1.0" encoding="utf-8"?>
<!-- Generator: Adobe Illustrator 16.0.0, SVG Export Plug-In . SVG Version: 6.00 Build 0)  -->
<!DOCTYPE svg PUBLIC "-//W3C//DTD SVG 1.1//EN" "http://www.w3.org/Graphics/SVG/1.1/DTD/svg11.dtd">
<svg version="1.1" xmlns="http://www.w3.org/2000/svg" xmlns:xlink="http://www.w3.org/1999/xlink" x="0px" y="0px" width="375px"
	 height="75.5px" viewBox="0 0 375 75.5" enable-background="new 0 0 375 75.5" xml:space="preserve">
<g id="LOGO">
</g>
<g id="Layer_4">
</g>
<g id="Layer_5">
	<g display="none">
		<path fill="#FA6900" d="M38.578,12.332c-13.829,0-25.041,11.211-25.041,25.038c0,13.83,11.212,25.039,25.041,25.039
			S63.619,51.2,63.619,37.37C63.619,23.543,52.407,12.332,38.578,12.332z M38.578,60.943c-13.018,0-23.572-10.555-23.572-23.573
			c0-13.017,10.555-23.571,23.572-23.571S62.15,24.354,62.15,37.37C62.15,50.389,51.596,60.943,38.578,60.943z"/>
		<path display="inline" fill="#FA6900" d="M74.949,37.37C74.949,17.315,58.633,1,38.578,1C18.523,1,2.208,17.315,2.208,37.37
			c0,20.056,16.316,36.371,36.371,36.371c6.921,0,13.397-1.942,18.912-5.314c1.519,1.475,3.59,2.387,5.875,2.387
			c4.664,0,8.444-3.782,8.444-8.446c0-2.259-0.891-4.312-2.337-5.826C72.94,50.971,74.949,44.4,74.949,37.37z M63.365,53.924
			c-4.662,0-8.443,3.781-8.443,8.443c0,1.697,0.503,3.275,1.363,4.598c-5.181,3.111-11.237,4.902-17.707,4.902
			c-19.021,0-34.498-15.475-34.498-34.497c0-19.021,15.476-34.499,34.498-34.499S73.076,18.349,73.076,37.37
			c0,6.574-1.849,12.722-5.053,17.955C66.689,54.441,65.088,53.924,63.365,53.924z"/>
		<path display="inline" fill="#FA6900" d="M38.578,15.208c-12.239,0-22.161,9.924-22.161,22.162
			c0,12.239,9.922,22.162,22.161,22.162c12.24,0,22.161-9.923,22.161-22.162C60.739,25.132,50.818,15.208,38.578,15.208z"/>
	</g>
	
		<text transform="matrix(1.0065 0 0 1 82.7495 57.9873)" display="none" fill="#FA6900" font-family="'Nord-Regular'" font-size="57.9287">SAMA SAMA studios</text>
	<g>
		<path fill="#FFFFFF" d="M97.384,54.405c0,1.738-2.856,3.128-6.354,3.128s-6.355-1.39-6.355-3.128v-3.822
			c0-0.406,0.875-0.638,1.982-0.638c1.05,0,1.924,0.231,1.924,0.638v2.548c0,0.638,1.108,1.217,2.449,1.217s2.448-0.579,2.448-1.217
			V40.389c0-0.638-1.107-1.217-2.448-1.217c-3.498,0-6.355-1.39-6.355-3.128V20.927c0-1.796,2.857-3.187,6.355-3.187
			s6.354,1.391,6.354,3.187v3.765c0,0.405-0.874,0.695-1.981,0.695c-1.05,0-1.925-0.29-1.925-0.695v-2.549
			c0-0.637-1.107-1.158-2.448-1.158s-2.449,0.521-2.449,1.158V34.48c0,0.694,1.108,1.216,2.449,1.216
			c3.498,0,6.354,1.391,6.354,3.128V54.405z"/>
		<path fill="#FFFFFF" d="M114.876,56.549c0,0.405-0.816,0.695-1.924,0.695c-1.108,0-1.925-0.29-1.925-0.695V38.882h-4.897v17.667
			c0,0.405-0.874,0.695-1.982,0.695c-1.049,0-1.924-0.29-1.924-0.695V20.927c0-1.796,2.857-3.187,6.355-3.187
			s6.297,1.391,6.297,3.187V56.549z M111.027,35.407V22.143c0-0.637-1.107-1.158-2.448-1.158c-1.399,0-2.449,0.521-2.449,1.158
			v13.265H111.027z"/>
		<path fill="#FFFFFF" d="M140.588,56.549c0,0.405-0.816,0.695-1.924,0.695c-1.108,0-1.924-0.29-1.924-0.695V22.143
			c0-0.637-0.7-1.158-2.1-1.158c-1.341,0-2.04,0.521-2.04,1.158v34.406c0,0.405-0.875,0.695-1.925,0.695
			c-1.107,0-1.982-0.29-1.982-0.695V22.143c0-0.637-0.699-1.158-2.04-1.158s-2.041,0.521-2.041,1.158v34.406
			c0,0.405-0.874,0.695-1.982,0.695c-1.049,0-1.924-0.29-1.924-0.695V20.927c0-1.796,2.449-3.187,5.947-3.187
			c1.399,0,3.148,0.58,4.022,1.159c0.816-0.579,2.565-1.159,3.965-1.159c3.498,0,5.947,1.391,5.947,3.187V56.549z"/>
		<path fill="#FFFFFF" d="M159.072,56.549c0,0.405-0.816,0.695-1.924,0.695c-1.108,0-1.925-0.29-1.925-0.695V38.882h-4.897v17.667
			c0,0.405-0.874,0.695-1.982,0.695c-1.049,0-1.924-0.29-1.924-0.695V20.927c0-1.796,2.857-3.187,6.355-3.187
			s6.297,1.391,6.297,3.187V56.549z M155.224,35.407V22.143c0-0.637-1.107-1.158-2.448-1.158c-1.399,0-2.449,0.521-2.449,1.158
			v13.265H155.224z"/>
		<path fill="#FFFFFF" d="M186.357,54.405c0,1.738-2.856,3.128-6.354,3.128s-6.355-1.39-6.355-3.128v-3.822
			c0-0.406,0.875-0.638,1.982-0.638c1.05,0,1.924,0.231,1.924,0.638v2.548c0,0.638,1.108,1.217,2.449,1.217s2.448-0.579,2.448-1.217
			V40.389c0-0.638-1.107-1.217-2.448-1.217c-3.498,0-6.355-1.39-6.355-3.128V20.927c0-1.796,2.857-3.187,6.355-3.187
			s6.354,1.391,6.354,3.187v3.765c0,0.405-0.874,0.695-1.981,0.695c-1.05,0-1.925-0.29-1.925-0.695v-2.549
			c0-0.637-1.107-1.158-2.448-1.158s-2.449,0.521-2.449,1.158V34.48c0,0.694,1.108,1.216,2.449,1.216
			c3.498,0,6.354,1.391,6.354,3.128V54.405z"/>
		<path fill="#FFFFFF" d="M203.851,56.549c0,0.405-0.816,0.695-1.924,0.695c-1.108,0-1.925-0.29-1.925-0.695V38.882h-4.897v17.667
			c0,0.405-0.874,0.695-1.982,0.695c-1.049,0-1.924-0.29-1.924-0.695V20.927c0-1.796,2.857-3.187,6.355-3.187
			s6.297,1.391,6.297,3.187V56.549z M200.002,35.407V22.143c0-0.637-1.107-1.158-2.448-1.158c-1.399,0-2.449,0.521-2.449,1.158
			v13.265H200.002z"/>
		<path fill="#FFFFFF" d="M229.562,56.549c0,0.405-0.816,0.695-1.924,0.695c-1.108,0-1.924-0.29-1.924-0.695V22.143
			c0-0.637-0.7-1.158-2.1-1.158c-1.341,0-2.04,0.521-2.04,1.158v34.406c0,0.405-0.875,0.695-1.925,0.695
			c-1.107,0-1.982-0.29-1.982-0.695V22.143c0-0.637-0.699-1.158-2.04-1.158s-2.041,0.521-2.041,1.158v34.406
			c0,0.405-0.874,0.695-1.982,0.695c-1.049,0-1.924-0.29-1.924-0.695V20.927c0-1.796,2.449-3.187,5.947-3.187
			c1.399,0,3.148,0.58,4.022,1.159c0.816-0.579,2.565-1.159,3.965-1.159c3.498,0,5.947,1.391,5.947,3.187V56.549z"/>
		<path fill="#FFFFFF" d="M248.046,56.549c0,0.405-0.816,0.695-1.924,0.695c-1.108,0-1.925-0.29-1.925-0.695V38.882H239.3v17.667
			c0,0.405-0.874,0.695-1.982,0.695c-1.049,0-1.924-0.29-1.924-0.695V20.927c0-1.796,2.857-3.187,6.355-3.187
			s6.297,1.391,6.297,3.187V56.549z M244.197,35.407V22.143c0-0.637-1.107-1.158-2.448-1.158c-1.399,0-2.449,0.521-2.449,1.158
			v13.265H244.197z"/>
		<path fill="#FFFFFF" d="M275.331,54.405c0,1.738-2.856,3.128-6.354,3.128s-6.355-1.39-6.355-3.128v-3.822
			c0-0.406,0.875-0.638,1.982-0.638c1.05,0,1.924,0.231,1.924,0.638v2.548c0,0.638,1.108,1.217,2.449,1.217s2.448-0.579,2.448-1.217
			v-7.935c0-0.638-1.107-1.159-2.448-1.159c-3.498,0-6.355-1.39-6.355-3.186V30.6c0-1.796,2.857-3.186,6.355-3.186
			s6.354,1.39,6.354,3.186v3.765c0,0.405-0.874,0.638-1.981,0.638c-1.05,0-1.925-0.232-1.925-0.638v-2.549
			c0-0.637-1.107-1.216-2.448-1.216s-2.449,0.579-2.449,1.216v7.473c0,0.694,1.108,1.274,2.449,1.274
			c3.498,0,6.354,1.39,6.354,3.127V54.405z"/>
		<path fill="#FFFFFF" d="M290.9,31.468h-4.373v25.081c0,0.405-0.875,0.695-1.982,0.695c-1.05,0-1.924-0.29-1.924-0.695V31.468
			h-3.906c-0.351,0-0.642-0.753-0.642-1.737s0.291-1.737,0.642-1.737h3.906v-9.268c0-0.405,0.874-0.638,1.924-0.638
			c1.107,0,1.982,0.232,1.982,0.638v9.268h4.373c0.407,0,0.641,0.753,0.641,1.737S291.308,31.468,290.9,31.468z"/>
		<path fill="#FFFFFF" d="M307.691,54.348c0,1.796-2.799,3.186-6.297,3.186s-6.355-1.39-6.355-3.186V28.398
			c0-0.405,0.875-0.695,1.924-0.695c1.108,0,1.982,0.29,1.982,0.695v24.675c0,0.695,1.05,1.274,2.449,1.274
			c1.341,0,2.448-0.579,2.448-1.274V28.398c0-0.405,0.816-0.695,1.925-0.695c1.107,0,1.924,0.29,1.924,0.695V54.348z"/>
		<path fill="#FFFFFF" d="M326.174,54.348c0,1.796-2.799,3.186-6.297,3.186s-6.355-1.39-6.355-3.186V30.6
			c0-1.448,1.924-3.186,5.772-3.186c1.107,0,2.099,0.289,3.031,0.694v-9.383c0-0.405,0.816-0.638,1.925-0.638
			c1.107,0,1.924,0.232,1.924,0.638V54.348z M322.325,31.815c0-0.637-1.107-1.216-2.448-1.216c-1.399,0-2.449,0.579-2.449,1.216
			v21.315c0,0.638,1.05,1.217,2.449,1.217c1.341,0,2.448-0.579,2.448-1.217V31.815z"/>
		<path fill="#FFFFFF" d="M335.91,21.274c0,0.405-0.874,0.637-1.982,0.637c-1.049,0-1.924-0.231-1.924-0.637v-2.549
			c0-0.405,0.875-0.638,1.924-0.638c1.108,0,1.982,0.232,1.982,0.638V21.274z M335.91,56.549c0,0.405-0.874,0.695-1.982,0.695
			c-1.049,0-1.924-0.29-1.924-0.695v-28.15c0-0.405,0.875-0.695,1.924-0.695c1.108,0,1.982,0.29,1.982,0.695V56.549z"/>
		<path fill="#FFFFFF" d="M354.394,54.348c0,1.796-2.799,3.186-6.297,3.186s-6.355-1.39-6.355-3.186V30.6
			c0-1.796,2.857-3.186,6.355-3.186s6.297,1.39,6.297,3.186V54.348z M350.545,31.815c0-0.637-1.107-1.216-2.448-1.216
			c-1.399,0-2.449,0.579-2.449,1.216v21.315c0,0.638,1.05,1.217,2.449,1.217c1.341,0,2.448-0.579,2.448-1.217V31.815z"/>
		<path fill="#FFFFFF" d="M371.942,54.405c0,1.738-2.856,3.128-6.354,3.128s-6.355-1.39-6.355-3.128v-3.822
			c0-0.406,0.875-0.638,1.982-0.638c1.05,0,1.924,0.231,1.924,0.638v2.548c0,0.638,1.108,1.217,2.449,1.217s2.448-0.579,2.448-1.217
			v-7.935c0-0.638-1.107-1.159-2.448-1.159c-3.498,0-6.355-1.39-6.355-3.186V30.6c0-1.796,2.857-3.186,6.355-3.186
			s6.354,1.39,6.354,3.186v3.765c0,0.405-0.874,0.638-1.981,0.638c-1.05,0-1.925-0.232-1.925-0.638v-2.549
			c0-0.637-1.107-1.216-2.448-1.216s-2.449,0.579-2.449,1.216v7.473c0,0.694,1.108,1.274,2.449,1.274
			c3.498,0,6.354,1.39,6.354,3.127V54.405z"/>
	</g>
	<g display="none">
		<path display="inline" fill="#FA6900" d="M41.578,16.976c-11.429,0-20.693,9.267-20.693,20.693
			c0,11.431,9.264,20.694,20.693,20.694c11.43,0,20.695-9.264,20.695-20.694C62.272,26.242,53.008,16.976,41.578,16.976z"/>
		<path display="inline" fill="#FA6900" d="M75.541,37.669c0-18.727-15.235-33.962-33.963-33.962
			c-18.727,0-33.961,15.235-33.961,33.962c0,18.728,15.235,33.964,33.961,33.964c6.464,0,12.51-1.814,17.66-4.964
			c1.418,1.379,3.353,2.228,5.487,2.228c4.355,0,7.885-3.529,7.885-7.885c0-2.109-0.831-4.026-2.183-5.441
			C73.666,50.369,75.541,44.235,75.541,37.669z M64.725,53.127c-4.354,0-7.884,3.531-7.884,7.885c0,1.585,0.469,3.059,1.272,4.294
			c-4.837,2.904-10.494,4.577-16.535,4.577c-17.762,0-32.212-14.451-32.212-32.214c0-17.762,14.451-32.213,32.212-32.213
			c17.763,0,32.215,14.451,32.215,32.213c0,6.139-1.727,11.88-4.719,16.768C67.828,53.609,66.333,53.127,64.725,53.127z"/>
	</g>
	<g>
		<path fill="#FFFFFF" d="M77.065,37.637c0-19.904-16.191-36.096-36.096-36.096S4.874,17.732,4.874,37.637
			s16.191,36.096,36.095,36.096c6.87,0,13.296-1.928,18.769-5.275c1.508,1.467,3.563,2.369,5.833,2.369
			c4.628,0,8.381-3.752,8.381-8.381c0-2.244-0.883-4.281-2.319-5.783C75.073,51.135,77.065,44.615,77.065,37.637z M65.57,54.066
			c-4.627,0-8.379,3.75-8.379,8.379c0,1.684,0.499,3.25,1.352,4.562c-5.141,3.088-11.152,4.865-17.573,4.865
			c-18.877,0-34.235-15.357-34.235-34.236S22.092,3.398,40.969,3.398c18.878,0,34.239,15.359,34.239,34.238
			c0,6.523-1.834,12.625-5.015,17.818C68.868,54.578,67.28,54.066,65.57,54.066z"/>
		<path fill="#FFFFFF" d="M41.011,18.896c-10.349,0-18.738,8.393-18.738,18.742s8.389,18.74,18.738,18.74
			c10.351,0,18.741-8.391,18.741-18.74S51.362,18.896,41.011,18.896z"/>
		<path fill="#FFFFFF" d="M41.011,61.33c-13.064,0-23.693-10.627-23.693-23.691c0-13.066,10.629-23.695,23.693-23.695
			c13.065,0,23.695,10.629,23.695,23.695C64.707,50.703,54.077,61.33,41.011,61.33z M41.011,15.771
			c-12.056,0-21.863,9.809-21.863,21.867c0,12.055,9.808,21.863,21.863,21.863c12.057,0,21.866-9.809,21.866-21.863
			C62.877,25.58,53.068,15.771,41.011,15.771z"/>
	</g>
</g>
<g id="Layer_8">
</g>
<g id="Layer_3" display="none">
</g>
<g id="Layer_6">
</g>
<g id="Layer_7">
</g>
<g id="PORTADA_FB">
</g>
</svg>
