<?xml version="1.0" encoding="utf-8"?>
<!-- Generator: Adobe Illustrator 16.0.0, SVG Export Plug-In . SVG Version: 6.00 Build 0)  -->
<!DOCTYPE svg PUBLIC "-//W3C//DTD SVG 1.1//EN" "http://www.w3.org/Graphics/SVG/1.1/DTD/svg11.dtd">
<svg version="1.1" id="Layer_1" xmlns="http://www.w3.org/2000/svg" xmlns:xlink="http://www.w3.org/1999/xlink" x="0px" y="0px"
	 width="200px" height="188.031px" viewBox="0 0 200 188.031" enable-background="new 0 0 200 188.031" xml:space="preserve">
<g>
	<path fill-rule="evenodd" clip-rule="evenodd" fill="#EAECE0" d="M197.558,101.88c-3.581-1.251-4.88-2.258-4.138-6.011
		c0.965-4.88,0.212-10.087,0.334-15.15c0.181-7.463,0.816-14.931,0.646-22.383c-0.23-10.109-1.058-20.203-1.592-30.305
		c-0.285-5.395-0.494-10.793-0.738-16.201c-23.611,14.835-46.99,29.525-69.933,43.939c0.502,29.349,0.521,58.4-2.64,87.314
		c5.133,1.17,7.874-2.231,11.094-3.96c10.122-5.432,20.046-11.235,30.016-16.948c1.309-0.75,2.438-1.814,4.182-3.136
		c-3.615-8.393-7.3-16.947-11.093-25.753c2.689-0.592,4.153-0.853,5.319,2.198c2.758,7.213,6.212,14.159,9.42,21.291
		c5.512-3.15,11.075-6.403,16.71-9.527c3.739-2.072,3.784-1.99,7.915,0.909c-1.17,0.877-2.184,1.762-3.312,2.462
		c-5.632,3.496-11.263,6.994-16.96,10.38c-2.001,1.189-2.356,2.326-1.63,4.699c2.059,6.731,3.976,13.545,5.296,20.451
		c1.327,6.941-2.028,10.456-8.691,13.145c-8.616,3.476-17.423,2.732-26.234,2.871c-4.451,0.07-5.99-1.302-7.362-5.549
		c0.428-0.195,0.926-0.647,1.309-0.564c9.726,2.077,19.264,1.537,28.691-1.688c5.481-1.874,9.474-4.48,7.142-11.488
		c-1.312-3.943-1.594-8.218-2.601-12.279c-0.479-1.927-1.57-3.701-2.463-5.724c-8.587,5.02-16.854,10.027-25.295,14.726
		c-5.227,2.909-10.652,5.491-16.135,7.886c-1.237,0.541-3.174-0.05-4.625-0.571c-2.82-1.016-5.525-2.351-8.105-3.479
		c-0.515,0.366-0.767,0.48-0.927,0.671c-0.884,1.051-1.744,2.12-2.613,3.183c-0.434-1.585-1.083-3.147-1.248-4.76
		c-0.209-2.052-0.098-4.146,0-6.217c0.492-10.485,1.159-20.965,1.5-31.455c0.246-7.578-0.324-15.198,0.197-22.748
		c0.657-9.523,1.986-19.004,3.176-28.484c0.363-2.887,0.591-2.858-2.107-4.373c0.481-1.021,0.962-2.039,1.754-3.713
		c0.998,0.045,2.925,0.264,4.841,0.196c5.928-0.21,10.387-3.979,15.186-6.712c5.821-3.314,11.422-7.064,16.864-10.979
		c4.327-3.114,8.158-6.908,12.415-10.129c4.715-3.569,9.684-6.799,14.498-10.239c2.44-1.743,4.716-3.723,7.188-5.417
		c5.299-3.631,7.64-2.429,11.312,3.049c2.815,4.2,2.655,8.4,2.844,12.879c0.422,10.033,1.127,20.054,1.49,30.087
		c0.229,6.347-0.041,12.71,0.08,19.062c0.081,4.276,0.785,8.56,0.622,12.816C198.885,87.234,198.141,94.299,197.558,101.88z
		 M129.323,45.536c1.174-0.563,2.348-1.127,3.521-1.69c-0.193-0.298-0.386-0.597-0.577-0.896c-0.943,0.896-1.887,1.792-2.829,2.688
		c-0.698,0.21-1.396,0.421-2.095,0.633c0.123,0.249,0.246,0.498,0.369,0.747C128.25,46.524,128.787,46.03,129.323,45.536z
		 M117.442,51.431c-3.849,5.427-3.979,10.874-1.829,16.505c0.404,1.058,1.358,3.139-1.357,3.463
		c-0.277,0.033-0.602,1.302-0.57,1.982c0.082,1.765,0.441,3.517,0.529,5.282c0.608,12.361,1.165,24.724,1.782,37.084
		c0.052,1.035,0.427,2.053,0.652,3.08c0.523-0.046,1.046-0.091,1.569-0.136c0-6.344,0.086-12.688-0.033-19.03
		c-0.069-3.763-0.734-7.524-0.657-11.276c0.187-9.159,0.669-18.311,0.981-27.468c0.044-1.264-0.159-2.542-0.309-3.807
		C117.977,55.213,117.698,53.323,117.442,51.431z M135.958,40.539c0.274,0.331,0.548,0.66,0.821,0.991
		c16.717-12.403,35.919-21.344,51.325-36.607c-1.552-0.241-2.63-0.762-3.086-0.43C168.629,16.458,152.298,28.504,135.958,40.539z
		 M110.462,137.95c0.387,0.255,0.773,0.512,1.16,0.767c0.625-0.973,1.8-1.951,1.79-2.918c-0.117-11.504-0.36-23.008-0.684-34.51
		c-0.14-4.975-0.541-9.942-0.824-14.913c-0.114,0.009-0.228,0.018-0.342,0.026C111.196,103.585,110.829,120.768,110.462,137.95z
		 M119.436,50.051c0.334,0.199,0.668,0.399,1.002,0.599c1.441-0.559,2.882-1.117,4.259-1.65c-1.066-0.596-2.205-1.748-3.153-1.607
		C120.727,47.514,120.13,49.107,119.436,50.051z"/>
	<g>
		<path fill="#EAECE0" d="M65.197,167.315c-1.43,2.819-2.242,2.884-5.469,1.524c-0.594,0.94-1.188,1.883-1.783,2.823
			c0.594-0.94,1.189-1.883,1.787-2.821C62.956,170.199,63.767,170.135,65.197,167.315z"/>
		<path fill="#EAECE0" d="M117.184,141.339c-1.23-0.723-2.548-1.572-3.344-2.704c-2.201-3.129-4.037-6.516-6.233-9.648
			c-1.804-2.575-3.918-4.935-6.075-7.612c-5.294,3.996-10.18,7.673-15.054,11.366c-7.938,6.016-15.773,12.174-23.834,18.021
			c-6.18,4.48-12.616,8.613-19.014,12.785c-0.72,0.47-2.222,0.619-2.865,0.185c-3.979-2.696-8-5.386-11.666-8.48
			c-10.644-8.989-14.973-21.3-15.352-34.521c-0.262-9.127,2.175-18.331,3.449-27.83c4.881,2.531,9.125,4.56,13.178,6.919
			c1.548,0.902,2.62,2.07,1.94,4.713c-2.315,8.993-3.972,18.155-5.978,27.231c-0.567,2.563,0.399,3.762,3.266,4.29
			c3.176-10.223,6.33-20.374,9.573-30.812c0.531,1.082,1.171,1.925,1.366,2.862c0.876,4.229,1.492,8.516,2.455,12.723
			c1.194,5.208,2.521,10.395,4.061,15.508c0.356,1.186,1.809,2.041,2.756,3.048c0.395-0.269,0.79-0.538,1.184-0.807
			c-2.76-12.186-5.521-24.371-8.142-35.937c5.37-1.978,10.85-3.994,16.701-6.148c0.218,2.534,0.297,5.208,0.704,7.831
			c1.168,7.552,2.396,15.097,3.766,22.614c0.37,2.033,1.328,3.958,2.016,5.933c0.619-0.134,1.239-0.27,1.858-0.404
			c-1.26-16.195-6.3-32.032-5.585-48.648c2.872,1.847,5.716,3.631,7.741,6.089c7.649,9.284,11.797,20.061,13.563,31.975
			c0.4,2.704-1.308,7.15,3.963,8.315c-1.069-8.486-1.818-16.722-5.432-24.644c-4.592-10.067-9.657-19.43-19.785-24.994
			c-2.137-1.175-2.5-2.679-0.41-4.441c1.639-1.383,3.268-2.826,4.648-4.458c5.885-6.955,8.797-15.204,10.929-23.971
			c2.632-10.819,1.372-21.174-3.49-30.799c-3.981-7.88-10.7-12.62-20.268-11.846c-3.033,0.245-6.236,0.556-9.127-0.139
			c-4.579-1.101-8.671-0.056-12.725,1.583c-2.806,1.134-5.437,2.703-8.132,4.104C10.465,17.515,3.681,28.739,2.514,43.47
			c-0.701,8.859,3.16,16.365,7.739,23.559c3.135,4.925,6.825,9.343,12.094,12.105c3.453,1.81,7.023,3.395,10.212,4.921
			c-0.611,3.965-1.17,7.912-1.909,12.706C27.03,93.446,24,90.769,22,88.795c0-3.484,0-5.994,0-8.54
			c-1-0.697-2.136-1.379-3.586-2.338c-0.887,2.484-1.533,4.743-2.502,6.84c-2.868,6.2-4.144,12.762-4.896,19.491
			c-0.692,6.195-1.678,12.36-2.329,18.561c-0.12,1.143,0.658,2.417,1.157,3.572c0.253,0.586,1.042,0.986,1.182,1.567
			c3.765,15.595,11.823,28.12,25.724,36.62c1.382,0.845,2.169,2.614,3.37,3.818c0.7,0.701,1.656,1.157,2.526,1.677
			c2.354,1.407,5.147,2.374,6.998,4.267c4.172,4.265,7.879,8.982,11.933,13.7c0.258-0.095,0.714-0.264,1.171-0.431
			c5.445-1.982,9.871-5.526,14.374-9.049c5.553-4.345,11.591-8.079,17.047-12.533c7.986-6.518,15.632-13.45,23.443-20.183
			C119.664,144.066,119.505,142.701,117.184,141.339z M58.491,91.626c-3.802,1.726-7.806,3.598-11.857,5.357
			c-1.965,0.854-2.623-0.062-2.849-2.077c-0.374-3.33-1.105-6.62-1.676-9.868c3.387-1.02,7.529-2.146,11.584-3.53
			c3.215-1.098,4.651-0.327,4.78,3.083C58.562,86.896,58.491,89.207,58.491,91.626z M24.57,77.229
			C13.955,71.813,8.464,62.387,5.926,51.535C3.492,41.128,8.871,27.193,18.302,20.303c3.514-2.568,7.297-4.776,11.011-7.06
			c4.652-2.862,9.579-4.046,15.174-3.462c3.934,0.41,8.038-0.927,11.998-0.619c10.926,0.85,16.279,6.254,17.541,17.054
			c0.417,3.562,0.707,7.14,1.146,11.644c-2.017,15.001-6.804,29.47-21.292,38.31C44.588,81.837,34.585,82.34,24.57,77.229z
			 M61.855,182.779c-4.63-4.789-9.136-9.316-13.405-14.056c-0.461-0.512,0.049-2.83,0.782-3.338
			c5.426-3.755,11.146-7.092,16.526-10.906c4.133-2.93,7.908-6.298,11.842-9.51c0.008-0.011,0.016,0.03,0.024,0.03
			c0.006,0,0.012,0,0.018,0c5.108-4,10.216-7.494,15.361-11.238c0.677,4.457-3.354,10.015-8.713,12.179
			c-1.379,1.341-2.228,1.114-2.471-0.862c-1.392-0.063-2.784-0.135-4.177-0.198c-0.005,0.005-0.011,0.005-0.018,0.009
			c-0.008,0.007-0.016,0.012-0.024,0.019c-1.007,1.385-1.828,2.974-3.071,4.097c-2.607,2.358-5.326,4.629-8.209,6.633
			c-3.801,2.642-7.887,4.875-11.675,7.533c-1.24,0.87-1.936,2.518-2.813,3.718c1.675,0.876,2.723,1.223,3.506,1.883
			c0.983,0.83,1.748,1.917,2.608,2.893c0.594-0.94,1.189-1.883,1.783-2.823c3.228,1.359,4.039,1.295,5.469-1.524
			c0.204-0.402,0.421-0.861,0.66-1.38c0.356-0.776,1.215-1.321,1.883-1.955c-1.088,0.072-2.176,0.145-3.264,0.217
			c-0.004,0.01-0.011,0.018-0.016,0.027c-0.027-0.005-0.053-0.008-0.08-0.012c-1.371,0.612-2.742,1.225-4.113,1.836
			c-0.023,0.074-0.049,0.144-0.07,0.223c-0.062,0.021-0.123,0.043-0.185,0.063c-0.095,0.355-0.19,0.711-0.286,1.067
			c-0.25-0.238-0.499-0.477-0.748-0.715c0.345-0.117,0.688-0.235,1.034-0.353c0.018-0.065,0.035-0.131,0.052-0.195
			c0.067-0.03,0.135-0.061,0.202-0.091c0.665-2.082,2.317-2.107,4.113-1.836c0.008-0.004,0.016-0.007,0.024-0.011
			c0.023-0.002,0.048-0.003,0.072-0.005c2.779-4.923,7.927-6.793,12.389-9.512c4.193-2.554,9.178-4.227,12.571-7.555
			c3.295-3.23,5.115-8.018,7.325-12.256c0.419-0.805-0.372-2.241-0.638-3.549c1.917-1.546,3.971-3.202,6.334-5.108
			c3.867,5.958,7.488,11.535,11.119,17.128C97.586,158.332,80.701,171.771,61.855,182.779z"/>
		<path fill="#EAECE0" d="M67.851,163.875c-0.036,0.036-0.075,0.07-0.111,0.105c0.067-0.005,0.134-0.009,0.201-0.014L67.851,163.875
			z"/>
		<path fill="#EAECE0" d="M64.459,164.225c0.005-0.01,0.012-0.018,0.016-0.027c-0.024,0.002-0.049,0.003-0.072,0.005L64.459,164.225
			z"/>
		<path fill="#EAECE0" d="M77.624,144.871c-0.008,0.012-0.016,0.023-0.024,0.034c0.008-0.007,0.017-0.014,0.024-0.021
			L77.624,144.871z"/>
		<path fill="#EAECE0" d="M77.642,144.872c-0.006,0-0.012,0-0.018-0.001l0,0.014C77.631,144.881,77.637,144.877,77.642,144.872z"/>
		<path fill="#EAECE0" d="M86.977,138.672c0.44,0.279,0.881,0.561,1.323,0.84c-0.5,1.004-0.919,2.058-1.518,2.997
			c-0.753,1.182-1.654,2.271-2.491,3.399c5.36-2.164,9.391-7.753,8.713-12.211c-5.146,3.744-10.253,7.46-15.361,11.175
			c1.393,0.063,2.785,0.127,4.177,0.19C83.538,142.932,85.257,140.801,86.977,138.672z"/>
		<path fill="#EAECE0" d="M60.266,166.049c1.371-0.611,2.742-1.224,4.113-1.836C62.583,163.941,60.931,163.967,60.266,166.049z"/>
		<path fill="#EAECE0" d="M60.196,166.271c0.021-0.079,0.046-0.148,0.07-0.223c-0.067,0.03-0.135,0.061-0.202,0.091L60.196,166.271z
			"/>
		<path fill="#EAECE0" d="M64.379,164.213c0.027,0.004,0.053,0.007,0.08,0.012l-0.056-0.022
			C64.395,164.206,64.387,164.209,64.379,164.213z"/>
		<path fill="#EAECE0" d="M59.726,167.402c0.095-0.356,0.19-0.712,0.286-1.067c-0.345,0.117-0.689,0.235-1.034,0.353
			C59.227,166.926,59.476,167.164,59.726,167.402z"/>
		<path fill="#EAECE0" d="M60.012,166.335c0.062-0.021,0.123-0.042,0.185-0.063l-0.132-0.132
			C60.046,166.204,60.029,166.27,60.012,166.335z"/>
		<path fill="#EAECE0" d="M34.875,20.307c-0.341,0.176-0.682,0.353-1.022,0.528c-0.062,0.739-0.303,1.515-0.158,2.21
			c1.508,7.214,2.005,14.415,0.85,21.775c-0.71,4.522-0.757,9.161-0.871,13.753c-0.021,0.84,1.065,1.707,1.64,2.562
			c0.491-0.797,1.294-1.549,1.416-2.399c0.434-3.039,0.496-6.132,0.955-9.166c1.262-8.347,1.125-16.684-0.215-24.978
			C37.222,23.064,35.77,21.731,34.875,20.307z"/>
		<path fill="#EAECE0" d="M48.628,52.752c0.039,1.373,1.009,2.718,1.55,4.076c0.474-0.08,0.948-0.16,1.422-0.24
			c0.132-1.068,0.333-2.134,0.376-3.205c0.036-0.867-0.245-1.752-0.167-2.609c0.757-8.472,1.089-16.937-0.991-25.274
			c-0.354-1.417-1.539-2.626-2.339-3.932c-0.32,0.145-0.64,0.289-0.96,0.434c0.293,3.012,0.771,6.021,0.841,9.04
			C48.527,38.276,48.421,45.519,48.628,52.752z"/>
		<path fill="#EAECE0" d="M67.938,163.864c-0.029,0.003-0.058,0.007-0.087,0.011l0.09,0.092
			C67.938,163.931,67.939,163.898,67.938,163.864z"/>
		<path fill="#EAECE0" d="M69.37,168.901c1.897-0.327,3.794-0.653,5.795-0.997c-0.574-2.349-0.932-3.817-1.217-4.988
			c-1.139-0.423-2.109-0.848-3.117-1.142c-1.87-0.546-2.99-0.008-2.894,2.09c0.801-0.108,1.584-0.214,1.868-0.252
			C69.666,165.308,69.518,167.104,69.37,168.901z"/>
		<path fill="#EAECE0" d="M93.387,151.995c1.379-1.509,2.756-3.017,3.88-4.247c-0.803-0.692-1.449-1.25-2.272-1.961
			C90.14,148.99,90.025,149.374,93.387,151.995z"/>
		<path fill="#EAECE0" d="M75.739,158.813c0.789,4.472,1.441,4.659,5.177,1.702C80.032,157.204,77.942,157.946,75.739,158.813z"/>
		<path fill="#EAECE0" d="M66.037,170.256c-0.99,0.378-1.692,1.515-2.512,2.341c0.841,0.744,1.594,1.867,2.557,2.09
			c0.564,0.131,1.46-1.171,2.684-2.247C67.516,171.396,66.493,170.082,66.037,170.256z"/>
		<path fill="#EAECE0" d="M84.211,154.301c0.185,1.443,0.147,2.979,0.676,4.284c0.187,0.463,1.751,0.369,2.687,0.53
			c0.185-0.354,0.371-0.708,0.556-1.062c-0.938-1.347-1.875-2.692-2.812-4.04C84.949,154.108,84.581,154.204,84.211,154.301z"/>
		<path fill="#EAECE0" d="M97.117,140.995c0.505,1.132,1.01,2.264,1.516,3.396c0.539-0.268,1.57-0.706,1.545-0.777
			c-0.388-1.117-0.913-2.187-1.406-3.268C98.22,140.562,97.668,140.778,97.117,140.995z"/>
	</g>
</g>
<g>
	<path fill-rule="evenodd" clip-rule="evenodd" fill="#EAECE0" d="M197.558,101.88c-3.581-1.251-4.88-2.258-4.138-6.011
		c0.965-4.88,0.212-10.087,0.334-15.15c0.181-7.463,0.816-14.931,0.646-22.383c-0.23-10.109-1.058-20.203-1.592-30.305
		c-0.285-5.395-0.494-10.793-0.738-16.201c-23.611,14.835-46.99,29.525-69.933,43.939c0.502,29.349,0.521,58.4-2.64,87.314
		c5.133,1.17,7.874-2.231,11.094-3.96c10.122-5.432,20.046-11.235,30.016-16.948c1.309-0.75,2.438-1.814,4.182-3.136
		c-3.615-8.393-7.3-16.947-11.093-25.753c2.689-0.592,4.153-0.853,5.319,2.198c2.758,7.213,6.212,14.159,9.42,21.291
		c5.512-3.15,11.075-6.403,16.71-9.527c3.739-2.072,3.784-1.99,7.915,0.909c-1.17,0.877-2.184,1.762-3.312,2.462
		c-5.632,3.496-11.263,6.994-16.96,10.38c-2.001,1.189-2.356,2.326-1.63,4.699c2.059,6.731,3.976,13.545,5.296,20.451
		c1.327,6.941-2.028,10.456-8.691,13.145c-8.616,3.476-17.423,2.732-26.234,2.871c-4.451,0.07-5.99-1.302-7.362-5.549
		c0.428-0.195,0.926-0.647,1.309-0.564c9.726,2.077,19.264,1.537,28.691-1.688c5.481-1.874,9.474-4.48,7.142-11.488
		c-1.312-3.943-1.594-8.218-2.601-12.279c-0.479-1.927-1.57-3.701-2.463-5.724c-8.587,5.02-16.854,10.027-25.295,14.726
		c-5.227,2.909-10.652,5.491-16.135,7.886c-1.237,0.541-3.174-0.05-4.625-0.571c-2.82-1.016-5.525-2.351-8.105-3.479
		c-0.515,0.366-0.767,0.48-0.927,0.671c-0.884,1.051-1.744,2.12-2.613,3.183c-0.434-1.585-1.083-3.147-1.248-4.76
		c-0.209-2.052-0.098-4.146,0-6.217c0.492-10.485,1.159-20.965,1.5-31.455c0.246-7.578-0.324-15.198,0.197-22.748
		c0.657-9.523,1.986-19.004,3.176-28.484c0.363-2.887,0.591-2.858-2.107-4.373c0.481-1.021,0.962-2.039,1.754-3.713
		c0.998,0.045,2.925,0.264,4.841,0.196c5.928-0.21,10.387-3.979,15.186-6.712c5.821-3.314,11.422-7.064,16.864-10.979
		c4.327-3.114,8.158-6.908,12.415-10.129c4.715-3.569,9.684-6.799,14.498-10.239c2.44-1.743,4.716-3.723,7.188-5.417
		c5.299-3.631,7.64-2.429,11.312,3.049c2.815,4.2,2.655,8.4,2.844,12.879c0.422,10.033,1.127,20.054,1.49,30.087
		c0.229,6.347-0.041,12.71,0.08,19.062c0.081,4.276,0.785,8.56,0.622,12.816C198.885,87.234,198.141,94.299,197.558,101.88z
		 M129.323,45.536c1.174-0.563,2.348-1.127,3.521-1.69c-0.193-0.298-0.386-0.597-0.577-0.896c-0.943,0.896-1.887,1.792-2.829,2.688
		c-0.698,0.21-1.396,0.421-2.095,0.633c0.123,0.249,0.246,0.498,0.369,0.747C128.25,46.524,128.787,46.03,129.323,45.536z
		 M117.442,51.431c-3.849,5.427-3.979,10.874-1.829,16.505c0.404,1.058,1.358,3.139-1.357,3.463
		c-0.277,0.033-0.602,1.302-0.57,1.982c0.082,1.765,0.441,3.517,0.529,5.282c0.608,12.361,1.165,24.724,1.782,37.084
		c0.052,1.035,0.427,2.053,0.652,3.08c0.523-0.046,1.046-0.091,1.569-0.136c0-6.344,0.086-12.688-0.033-19.03
		c-0.069-3.763-0.734-7.524-0.657-11.276c0.187-9.159,0.669-18.311,0.981-27.468c0.044-1.264-0.159-2.542-0.309-3.807
		C117.977,55.213,117.698,53.323,117.442,51.431z M135.958,40.539c0.274,0.331,0.548,0.66,0.821,0.991
		c16.717-12.403,35.919-21.344,51.325-36.607c-1.552-0.241-2.63-0.762-3.086-0.43C168.629,16.458,152.298,28.504,135.958,40.539z
		 M110.462,137.95c0.387,0.255,0.773,0.512,1.16,0.767c0.625-0.973,1.8-1.951,1.79-2.918c-0.117-11.504-0.36-23.008-0.684-34.51
		c-0.14-4.975-0.541-9.942-0.824-14.913c-0.114,0.009-0.228,0.018-0.342,0.026C111.196,103.585,110.829,120.768,110.462,137.95z
		 M119.436,50.051c0.334,0.199,0.668,0.399,1.002,0.599c1.441-0.559,2.882-1.117,4.259-1.65c-1.066-0.596-2.205-1.748-3.153-1.607
		C120.727,47.514,120.13,49.107,119.436,50.051z"/>
	<g>
		<path fill="#EAECE0" d="M65.197,167.315c-1.43,2.819-2.242,2.884-5.469,1.524c-0.594,0.94-1.188,1.883-1.783,2.823
			c0.594-0.94,1.189-1.883,1.787-2.821C62.956,170.199,63.767,170.135,65.197,167.315z"/>
		<path fill="#EAECE0" d="M117.184,141.339c-1.23-0.723-2.548-1.572-3.344-2.704c-2.201-3.129-4.037-6.516-6.233-9.648
			c-1.804-2.575-3.918-4.935-6.075-7.612c-5.294,3.996-10.18,7.673-15.054,11.366c-7.938,6.016-15.773,12.174-23.834,18.021
			c-6.18,4.48-12.616,8.613-19.014,12.785c-0.72,0.47-2.222,0.619-2.865,0.185c-3.979-2.696-8-5.386-11.666-8.48
			c-10.644-8.989-14.973-21.3-15.352-34.521c-0.262-9.127,2.175-18.331,3.449-27.83c4.881,2.531,9.125,4.56,13.178,6.919
			c1.548,0.902,2.62,2.07,1.94,4.713c-2.315,8.993-3.972,18.155-5.978,27.231c-0.567,2.563,0.399,3.762,3.266,4.29
			c3.176-10.223,6.33-20.374,9.573-30.812c0.531,1.082,1.171,1.925,1.366,2.862c0.876,4.229,1.492,8.516,2.455,12.723
			c1.194,5.208,2.521,10.395,4.061,15.508c0.356,1.186,1.809,2.041,2.756,3.048c0.395-0.269,0.79-0.538,1.184-0.807
			c-2.76-12.186-5.521-24.371-8.142-35.937c5.37-1.978,10.85-3.994,16.701-6.148c0.218,2.534,0.297,5.208,0.704,7.831
			c1.168,7.552,2.396,15.097,3.766,22.614c0.37,2.033,1.328,3.958,2.016,5.933c0.619-0.134,1.239-0.27,1.858-0.404
			c-1.26-16.195-6.3-32.032-5.585-48.648c2.872,1.847,5.716,3.631,7.741,6.089c7.649,9.284,11.797,20.061,13.563,31.975
			c0.4,2.704-1.308,7.15,3.963,8.315c-1.069-8.486-1.818-16.722-5.432-24.644c-4.592-10.067-9.657-19.43-19.785-24.994
			c-2.137-1.175-2.5-2.679-0.41-4.441c1.639-1.383,3.268-2.826,4.648-4.458c5.885-6.955,8.797-15.204,10.929-23.971
			c2.632-10.819,1.372-21.174-3.49-30.799c-3.981-7.88-10.7-12.62-20.268-11.846c-3.033,0.245-6.236,0.556-9.127-0.139
			c-4.579-1.101-8.671-0.056-12.725,1.583c-2.806,1.134-5.437,2.703-8.132,4.104C10.465,17.515,3.681,28.739,2.514,43.47
			c-0.701,8.859,3.16,16.365,7.739,23.559c3.135,4.925,6.825,9.343,12.094,12.105c3.453,1.81,7.023,3.395,10.212,4.921
			c-0.611,3.965-1.17,7.912-1.909,12.706C27.03,93.446,24,90.769,22,88.795c0-3.484,0-5.994,0-8.54
			c-1-0.697-2.136-1.379-3.586-2.338c-0.887,2.484-1.533,4.743-2.502,6.84c-2.868,6.2-4.144,12.762-4.896,19.491
			c-0.692,6.195-1.678,12.36-2.329,18.561c-0.12,1.143,0.658,2.417,1.157,3.572c0.253,0.586,1.042,0.986,1.182,1.567
			c3.765,15.595,11.823,28.12,25.724,36.62c1.382,0.845,2.169,2.614,3.37,3.818c0.7,0.701,1.656,1.157,2.526,1.677
			c2.354,1.407,5.147,2.374,6.998,4.267c4.172,4.265,7.879,8.982,11.933,13.7c0.258-0.095,0.714-0.264,1.171-0.431
			c5.445-1.982,9.871-5.526,14.374-9.049c5.553-4.345,11.591-8.079,17.047-12.533c7.986-6.518,15.632-13.45,23.443-20.183
			C119.664,144.066,119.505,142.701,117.184,141.339z M58.491,91.626c-3.802,1.726-7.806,3.598-11.857,5.357
			c-1.965,0.854-2.623-0.062-2.849-2.077c-0.374-3.33-1.105-6.62-1.676-9.868c3.387-1.02,7.529-2.146,11.584-3.53
			c3.215-1.098,4.651-0.327,4.78,3.083C58.562,86.896,58.491,89.207,58.491,91.626z M24.57,77.229
			C13.955,71.813,8.464,62.387,5.926,51.535C3.492,41.128,8.871,27.193,18.302,20.303c3.514-2.568,7.297-4.776,11.011-7.06
			c4.652-2.862,9.579-4.046,15.174-3.462c3.934,0.41,8.038-0.927,11.998-0.619c10.926,0.85,16.279,6.254,17.541,17.054
			c0.417,3.562,0.707,7.14,1.146,11.644c-2.017,15.001-6.804,29.47-21.292,38.31C44.588,81.837,34.585,82.34,24.57,77.229z
			 M61.855,182.779c-4.63-4.789-9.136-9.316-13.405-14.056c-0.461-0.512,0.049-2.83,0.782-3.338
			c5.426-3.755,11.146-7.092,16.526-10.906c4.133-2.93,7.908-6.298,11.842-9.51c0.008-0.011,0.016,0.03,0.024,0.03
			c0.006,0,0.012,0,0.018,0c5.108-4,10.216-7.494,15.361-11.238c0.677,4.457-3.354,10.015-8.713,12.179
			c-1.379,1.341-2.228,1.114-2.471-0.862c-1.392-0.063-2.784-0.135-4.177-0.198c-0.005,0.005-0.011,0.005-0.018,0.009
			c-0.008,0.007-0.016,0.012-0.024,0.019c-1.007,1.385-1.828,2.974-3.071,4.097c-2.607,2.358-5.326,4.629-8.209,6.633
			c-3.801,2.642-7.887,4.875-11.675,7.533c-1.24,0.87-1.936,2.518-2.813,3.718c1.675,0.876,2.723,1.223,3.506,1.883
			c0.983,0.83,1.748,1.917,2.608,2.893c0.594-0.94,1.189-1.883,1.783-2.823c3.228,1.359,4.039,1.295,5.469-1.524
			c0.204-0.402,0.421-0.861,0.66-1.38c0.356-0.776,1.215-1.321,1.883-1.955c-1.088,0.072-2.176,0.145-3.264,0.217
			c-0.004,0.01-0.011,0.018-0.016,0.027c-0.027-0.005-0.053-0.008-0.08-0.012c-1.371,0.612-2.742,1.225-4.113,1.836
			c-0.023,0.074-0.049,0.144-0.07,0.223c-0.062,0.021-0.123,0.043-0.185,0.063c-0.095,0.355-0.19,0.711-0.286,1.067
			c-0.25-0.238-0.499-0.477-0.748-0.715c0.345-0.117,0.688-0.235,1.034-0.353c0.018-0.065,0.035-0.131,0.052-0.195
			c0.067-0.03,0.135-0.061,0.202-0.091c0.665-2.082,2.317-2.107,4.113-1.836c0.008-0.004,0.016-0.007,0.024-0.011
			c0.023-0.002,0.048-0.003,0.072-0.005c2.779-4.923,7.927-6.793,12.389-9.512c4.193-2.554,9.178-4.227,12.571-7.555
			c3.295-3.23,5.115-8.018,7.325-12.256c0.419-0.805-0.372-2.241-0.638-3.549c1.917-1.546,3.971-3.202,6.334-5.108
			c3.867,5.958,7.488,11.535,11.119,17.128C97.586,158.332,80.701,171.771,61.855,182.779z"/>
		<path fill="#EAECE0" d="M67.851,163.875c-0.036,0.036-0.075,0.07-0.111,0.105c0.067-0.005,0.134-0.009,0.201-0.014L67.851,163.875
			z"/>
		<path fill="#EAECE0" d="M64.459,164.225c0.005-0.01,0.012-0.018,0.016-0.027c-0.024,0.002-0.049,0.003-0.072,0.005L64.459,164.225
			z"/>
		<path fill="#EAECE0" d="M77.624,144.871c-0.008,0.012-0.016,0.023-0.024,0.034c0.008-0.007,0.017-0.014,0.024-0.021
			L77.624,144.871z"/>
		<path fill="#EAECE0" d="M77.642,144.872c-0.006,0-0.012,0-0.018-0.001l0,0.014C77.631,144.881,77.637,144.877,77.642,144.872z"/>
		<path fill="#EAECE0" d="M86.977,138.672c0.44,0.279,0.881,0.561,1.323,0.84c-0.5,1.004-0.919,2.058-1.518,2.997
			c-0.753,1.182-1.654,2.271-2.491,3.399c5.36-2.164,9.391-7.753,8.713-12.211c-5.146,3.744-10.253,7.46-15.361,11.175
			c1.393,0.063,2.785,0.127,4.177,0.19C83.538,142.932,85.257,140.801,86.977,138.672z"/>
		<path fill="#EAECE0" d="M60.266,166.049c1.371-0.611,2.742-1.224,4.113-1.836C62.583,163.941,60.931,163.967,60.266,166.049z"/>
		<path fill="#EAECE0" d="M60.196,166.271c0.021-0.079,0.046-0.148,0.07-0.223c-0.067,0.03-0.135,0.061-0.202,0.091L60.196,166.271z
			"/>
		<path fill="#EAECE0" d="M64.379,164.213c0.027,0.004,0.053,0.007,0.08,0.012l-0.056-0.022
			C64.395,164.206,64.387,164.209,64.379,164.213z"/>
		<path fill="#EAECE0" d="M59.726,167.402c0.095-0.356,0.19-0.712,0.286-1.067c-0.345,0.117-0.689,0.235-1.034,0.353
			C59.227,166.926,59.476,167.164,59.726,167.402z"/>
		<path fill="#EAECE0" d="M60.012,166.335c0.062-0.021,0.123-0.042,0.185-0.063l-0.132-0.132
			C60.046,166.204,60.029,166.27,60.012,166.335z"/>
		<path fill="#EAECE0" d="M34.875,20.307c-0.341,0.176-0.682,0.353-1.022,0.528c-0.062,0.739-0.303,1.515-0.158,2.21
			c1.508,7.214,2.005,14.415,0.85,21.775c-0.71,4.522-0.757,9.161-0.871,13.753c-0.021,0.84,1.065,1.707,1.64,2.562
			c0.491-0.797,1.294-1.549,1.416-2.399c0.434-3.039,0.496-6.132,0.955-9.166c1.262-8.347,1.125-16.684-0.215-24.978
			C37.222,23.064,35.77,21.731,34.875,20.307z"/>
		<path fill="#EAECE0" d="M48.628,52.752c0.039,1.373,1.009,2.718,1.55,4.076c0.474-0.08,0.948-0.16,1.422-0.24
			c0.132-1.068,0.333-2.134,0.376-3.205c0.036-0.867-0.245-1.752-0.167-2.609c0.757-8.472,1.089-16.937-0.991-25.274
			c-0.354-1.417-1.539-2.626-2.339-3.932c-0.32,0.145-0.64,0.289-0.96,0.434c0.293,3.012,0.771,6.021,0.841,9.04
			C48.527,38.276,48.421,45.519,48.628,52.752z"/>
		<path fill="#EAECE0" d="M67.938,163.864c-0.029,0.003-0.058,0.007-0.087,0.011l0.09,0.092
			C67.938,163.931,67.939,163.898,67.938,163.864z"/>
		<path fill="#EAECE0" d="M69.37,168.901c1.897-0.327,3.794-0.653,5.795-0.997c-0.574-2.349-0.932-3.817-1.217-4.988
			c-1.139-0.423-2.109-0.848-3.117-1.142c-1.87-0.546-2.99-0.008-2.894,2.09c0.801-0.108,1.584-0.214,1.868-0.252
			C69.666,165.308,69.518,167.104,69.37,168.901z"/>
		<path fill="#EAECE0" d="M93.387,151.995c1.379-1.509,2.756-3.017,3.88-4.247c-0.803-0.692-1.449-1.25-2.272-1.961
			C90.14,148.99,90.025,149.374,93.387,151.995z"/>
		<path fill="#EAECE0" d="M75.739,158.813c0.789,4.472,1.441,4.659,5.177,1.702C80.032,157.204,77.942,157.946,75.739,158.813z"/>
		<path fill="#EAECE0" d="M66.037,170.256c-0.99,0.378-1.692,1.515-2.512,2.341c0.841,0.744,1.594,1.867,2.557,2.09
			c0.564,0.131,1.46-1.171,2.684-2.247C67.516,171.396,66.493,170.082,66.037,170.256z"/>
		<path fill="#EAECE0" d="M84.211,154.301c0.185,1.443,0.147,2.979,0.676,4.284c0.187,0.463,1.751,0.369,2.687,0.53
			c0.185-0.354,0.371-0.708,0.556-1.062c-0.938-1.347-1.875-2.692-2.812-4.04C84.949,154.108,84.581,154.204,84.211,154.301z"/>
		<path fill="#EAECE0" d="M97.117,140.995c0.505,1.132,1.01,2.264,1.516,3.396c0.539-0.268,1.57-0.706,1.545-0.777
			c-0.388-1.117-0.913-2.187-1.406-3.268C98.22,140.562,97.668,140.778,97.117,140.995z"/>
	</g>
</g>
</svg>
