<?xml version="1.0" encoding="utf-8"?>
<!-- Generator: Adobe Illustrator 16.0.0, SVG Export Plug-In . SVG Version: 6.00 Build 0)  -->
<!DOCTYPE svg PUBLIC "-//W3C//DTD SVG 1.1//EN" "http://www.w3.org/Graphics/SVG/1.1/DTD/svg11.dtd">
<svg version="1.1" xmlns="http://www.w3.org/2000/svg" xmlns:xlink="http://www.w3.org/1999/xlink" x="0px" y="0px"
	 width="606.916px" height="251.987px" viewBox="0 0 606.916 251.987" enable-background="new 0 0 606.916 251.987"
	 xml:space="preserve">
<g id="LOGO">
</g>
<g id="Layer_4">
</g>
<g id="Layer_5">
</g>
<g id="Layer_8">
</g>
<g id="Layer_3" display="none">
</g>
<g id="Layer_6">
</g>
<g id="Layer_7">
</g>
<g id="Layer_9">
</g>
<g id="PORTADA_FB">
	<g display="none">
		<path display="inline" fill="#FFFFFF" d="M27.464,10.983V8.705c0-0.938-0.335-1.742-1.005-2.412
			c-0.67-0.67-1.474-1.005-2.412-1.005c-0.938,0-1.741,0.335-2.411,1.005c-0.67,0.67-1.006,1.474-1.006,2.412v3.417
			c0,0.402,0.011,0.648,0.034,0.737c0.021,0.09,0.077,0.224,0.167,0.402l9.648,17.018c0.312,0.581,0.558,1.028,0.737,1.34
			c0.178,0.313,0.301,0.603,0.368,0.871c0.066,0.268,0.111,0.547,0.134,0.837c0.022,0.291,0.033,0.682,0.033,1.172v3.35
			c0,1.072-0.2,2.077-0.603,3.015s-0.961,1.753-1.675,2.445c-0.715,0.693-1.531,1.24-2.445,1.642
			c-0.916,0.402-1.91,0.603-2.982,0.603c-1.071,0-2.066-0.201-2.981-0.603c-0.916-0.402-1.731-0.948-2.445-1.642
			c-0.715-0.692-1.272-1.507-1.675-2.445s-0.603-1.943-0.603-3.015v-2.278c0-0.268,0.1-0.513,0.301-0.737
			c0.201-0.223,0.458-0.335,0.771-0.335h2.145c0.312,0,0.569,0.112,0.771,0.335c0.201,0.224,0.301,0.469,0.301,0.737v2.278
			c0,0.983,0.336,1.809,1.006,2.479s1.474,1.005,2.411,1.005c0.938,0,1.742-0.335,2.412-1.005s1.005-1.496,1.005-2.479V34.5
			c0-0.357-0.011-0.58-0.033-0.67c-0.022-0.089-0.078-0.223-0.167-0.402L17.615,16.41c-0.312-0.58-0.559-1.027-0.737-1.34
			c-0.179-0.312-0.301-0.603-0.368-0.871s-0.112-0.558-0.134-0.871c-0.023-0.312-0.033-0.714-0.033-1.206V8.705
			c0-1.072,0.2-2.065,0.603-2.981c0.402-0.915,0.96-1.73,1.675-2.445c0.714-0.714,1.529-1.273,2.445-1.675
			C21.98,1.201,22.976,1,24.047,1c1.072,0,2.066,0.201,2.982,0.603c0.914,0.402,1.73,0.961,2.445,1.675
			c0.714,0.715,1.272,1.53,1.675,2.445c0.402,0.916,0.603,1.91,0.603,2.981v2.278c0,0.715-0.357,1.072-1.071,1.072h-2.145
			C27.821,12.055,27.464,11.698,27.464,10.983z"/>
		<path display="inline" fill="#FFFFFF" d="M44.415,1c1.072,0,2.065,0.201,2.981,0.603c0.915,0.402,1.73,0.961,2.445,1.675
			c0.715,0.715,1.273,1.541,1.676,2.479C51.919,6.695,52.12,7.7,52.12,8.771V37.85c0,1.072-0.201,2.077-0.603,3.015
			c-0.402,0.938-0.961,1.753-1.676,2.445c-0.715,0.693-1.53,1.24-2.445,1.642c-0.916,0.402-1.909,0.603-2.981,0.603
			s-2.077-0.201-3.015-0.603c-0.938-0.402-1.766-0.948-2.479-1.642c-0.715-0.692-1.272-1.507-1.675-2.445s-0.603-1.943-0.603-3.015
			V8.771c0-1.072,0.2-2.077,0.603-3.015s0.96-1.764,1.675-2.479c0.714-0.714,1.541-1.273,2.479-1.675
			C42.338,1.201,43.343,1,44.415,1z M47.832,8.771c0-0.982-0.335-1.809-1.005-2.479c-0.67-0.67-1.474-1.005-2.412-1.005
			c-0.982,0-1.809,0.335-2.479,1.005c-0.67,0.67-1.005,1.497-1.005,2.479V37.85c0,0.938,0.335,1.742,1.005,2.412
			s1.496,1.005,2.479,1.005c0.938,0,1.742-0.335,2.412-1.005s1.005-1.474,1.005-2.412V8.771z"/>
		<path display="inline" fill="#FFFFFF" d="M76.575,1c1.072,0,2.077,0.201,3.015,0.603c0.938,0.402,1.765,0.961,2.479,1.675
			c0.714,0.715,1.272,1.541,1.675,2.479s0.604,1.943,0.604,3.015v35.711c0,0.313-0.112,0.569-0.335,0.771
			c-0.225,0.201-0.47,0.301-0.737,0.301h-2.145c-0.715,0-1.071-0.357-1.071-1.072V8.771c0-0.982-0.335-1.809-1.005-2.479
			c-0.67-0.67-1.497-1.005-2.479-1.005c-0.938,0-1.742,0.335-2.412,1.005c-0.67,0.67-1.005,1.497-1.005,2.479v35.711
			c0,0.715-0.358,1.072-1.072,1.072h-2.144c-0.715,0-1.072-0.357-1.072-1.072V8.771c0-0.982-0.335-1.809-1.005-2.479
			c-0.67-0.67-1.474-1.005-2.412-1.005c-0.982,0-1.809,0.335-2.479,1.005c-0.67,0.67-1.005,1.497-1.005,2.479v35.711
			c0,0.715-0.358,1.072-1.072,1.072h-2.145c-0.268,0-0.514-0.101-0.736-0.301c-0.225-0.201-0.335-0.458-0.335-0.771V8.771
			c0-1.072,0.2-2.077,0.603-3.015s0.96-1.764,1.675-2.479c0.714-0.714,1.541-1.273,2.479-1.675C63.376,1.201,64.381,1,65.453,1
			s2.088,0.213,3.049,0.637c0.96,0.425,1.797,1.017,2.513,1.775c0.714-0.759,1.551-1.351,2.512-1.775
			C74.486,1.212,75.503,1,76.575,1z"/>
		<path display="inline" fill="#FFFFFF" d="M94.196,5.288v15.879h5.828c0.715,0,1.072,0.358,1.072,1.072v2.144
			c0,0.268-0.101,0.514-0.302,0.737c-0.2,0.224-0.458,0.335-0.771,0.335h-5.828v15.812h5.828c0.312,0,0.57,0.112,0.771,0.335
			c0.201,0.224,0.302,0.469,0.302,0.737v2.144c0,0.715-0.357,1.072-1.072,1.072h-7.973c-0.626,0-1.139-0.201-1.541-0.603
			s-0.603-0.915-0.603-1.541V3.144c0-0.58,0.2-1.083,0.603-1.507C90.913,1.212,91.426,1,92.052,1h7.973
			c0.312,0,0.57,0.112,0.771,0.335c0.201,0.224,0.302,0.469,0.302,0.737v2.144c0,0.715-0.357,1.072-1.072,1.072H94.196z"/>
		<path display="inline" fill="#FFFFFF" d="M133.257,2.139v32.227c0,1.519-0.425,2.948-1.273,4.288l-3.617,6.365
			c-0.225,0.358-0.536,0.536-0.938,0.536h-3.752c-0.402,0-0.715-0.178-0.938-0.536l-2.747-4.891l-2.814,4.891
			c-0.224,0.358-0.536,0.536-0.938,0.536h-3.686c-0.492,0-0.804-0.178-0.938-0.536l-3.618-6.365c-0.895-1.295-1.34-2.724-1.34-4.288
			V2.139c0-0.714,0.356-1.072,1.071-1.072h2.145c0.714,0,1.072,0.358,1.072,1.072v32.227c0,0.402,0.066,0.76,0.2,1.072l3.217,5.762
			l3.282-5.762c0.135-0.312,0.201-0.67,0.201-1.072V2.139c0-0.714,0.357-1.072,1.072-1.072h2.144c0.714,0,1.072,0.358,1.072,1.072
			v32.227c0,0.402,0.067,0.76,0.201,1.072l3.216,5.762l3.283-5.762c0.044-0.178,0.077-0.345,0.101-0.502
			c0.021-0.156,0.033-0.345,0.033-0.569V2.139c0-0.312,0.111-0.569,0.335-0.771c0.223-0.201,0.469-0.301,0.737-0.301h2.144
			C132.898,1.067,133.257,1.425,133.257,2.139z"/>
		<path display="inline" fill="#FFFFFF" d="M153.927,1.334c0.201,0.224,0.301,0.469,0.301,0.737v42.411
			c0,0.715-0.357,1.072-1.071,1.072h-2.077c-0.715,0-1.072-0.357-1.072-1.072V25.455h-6.9v19.028c0,0.715-0.358,1.072-1.072,1.072
			h-2.145c-0.715,0-1.071-0.357-1.071-1.072V2.139V2.072c0-0.268,0.101-0.513,0.301-0.737C139.32,1.112,139.577,1,139.89,1h2.145
			c0.312,0,0.569,0.112,0.771,0.335c0.201,0.224,0.302,0.469,0.302,0.737v19.095h6.9V2.072c0-0.268,0.101-0.513,0.302-0.737
			C150.51,1.112,150.766,1,151.079,1h2.077C153.468,1,153.726,1.112,153.927,1.334z"/>
		<path display="inline" fill="#FFFFFF" d="M164.077,5.288v15.879h5.828c0.715,0,1.072,0.358,1.072,1.072v2.144
			c0,0.268-0.101,0.514-0.302,0.737c-0.2,0.224-0.458,0.335-0.771,0.335h-5.828v15.812h5.828c0.312,0,0.57,0.112,0.771,0.335
			c0.201,0.224,0.302,0.469,0.302,0.737v2.144c0,0.715-0.357,1.072-1.072,1.072h-7.973c-0.626,0-1.139-0.201-1.541-0.603
			s-0.603-0.915-0.603-1.541V3.144c0-0.58,0.2-1.083,0.603-1.507C160.794,1.212,161.307,1,161.933,1h7.973
			c0.312,0,0.57,0.112,0.771,0.335c0.201,0.224,0.302,0.469,0.302,0.737v2.144c0,0.715-0.357,1.072-1.072,1.072H164.077z"/>
		<path display="inline" fill="#FFFFFF" d="M191.613,17.683c0,2.234-0.781,4.087-2.345,5.561c1.563,1.474,2.345,3.35,2.345,5.628
			v15.611c0,0.715-0.357,1.072-1.071,1.072h-2.145c-0.715,0-1.071-0.357-1.071-1.072V28.872c0-0.982-0.336-1.809-1.006-2.479
			s-1.474-1.005-2.411-1.005h-3.417v19.095c0,0.313-0.112,0.569-0.336,0.771c-0.224,0.201-0.469,0.301-0.736,0.301h-2.145
			c-0.715,0-1.071-0.357-1.071-1.072V3.144c0-0.58,0.2-1.083,0.603-1.507C177.209,1.212,177.722,1,178.348,1h5.562
			c1.071,0,2.076,0.201,3.015,0.603c0.938,0.402,1.752,0.961,2.445,1.675c0.692,0.715,1.239,1.541,1.642,2.479
			s0.603,1.943,0.603,3.015V17.683z M187.326,8.771c0-0.982-0.336-1.809-1.006-2.479c-0.67-0.67-1.474-1.005-2.411-1.005h-3.417
			V21.1h3.417c0.938,0,1.741-0.335,2.411-1.005s1.006-1.474,1.006-2.412V8.771z"/>
		<path display="inline" fill="#FFFFFF" d="M201.463,5.288v15.879h5.828c0.715,0,1.072,0.358,1.072,1.072v2.144
			c0,0.268-0.101,0.514-0.302,0.737c-0.2,0.224-0.458,0.335-0.771,0.335h-5.828v15.812h5.828c0.312,0,0.57,0.112,0.771,0.335
			c0.201,0.224,0.302,0.469,0.302,0.737v2.144c0,0.715-0.357,1.072-1.072,1.072h-7.973c-0.626,0-1.139-0.201-1.541-0.603
			s-0.603-0.915-0.603-1.541V3.144c0-0.58,0.2-1.083,0.603-1.507C198.18,1.212,198.692,1,199.318,1h7.973
			c0.312,0,0.57,0.112,0.771,0.335c0.201,0.224,0.302,0.469,0.302,0.737v2.144c0,0.715-0.357,1.072-1.072,1.072H201.463z"/>
		<path display="inline" fill="#FFFFFF" d="M218.213,40.061v13.4c0,0.714-0.358,1.072-1.072,1.072h-2.145
			c-0.715,0-1.071-0.358-1.071-1.072v-13.4c0-0.714,0.356-1.072,1.071-1.072h2.145C217.854,38.989,218.213,39.347,218.213,40.061z"
			/>
		<path display="inline" fill="#FFFFFF" d="M243.872,10.983V8.705c0-0.938-0.335-1.742-1.005-2.412
			c-0.67-0.67-1.474-1.005-2.412-1.005c-0.938,0-1.741,0.335-2.411,1.005c-0.67,0.67-1.006,1.474-1.006,2.412v3.417
			c0,0.402,0.011,0.648,0.034,0.737c0.021,0.09,0.077,0.224,0.167,0.402l9.648,17.018c0.312,0.581,0.558,1.028,0.737,1.34
			c0.178,0.313,0.301,0.603,0.368,0.871c0.066,0.268,0.111,0.547,0.134,0.837c0.022,0.291,0.033,0.682,0.033,1.172v3.35
			c0,1.072-0.2,2.077-0.603,3.015s-0.961,1.753-1.675,2.445c-0.715,0.693-1.531,1.24-2.445,1.642
			c-0.916,0.402-1.91,0.603-2.982,0.603c-1.071,0-2.066-0.201-2.981-0.603c-0.916-0.402-1.731-0.948-2.445-1.642
			c-0.715-0.692-1.272-1.507-1.675-2.445s-0.603-1.943-0.603-3.015v-2.278c0-0.268,0.1-0.513,0.301-0.737
			c0.201-0.223,0.458-0.335,0.771-0.335h2.145c0.312,0,0.569,0.112,0.771,0.335c0.201,0.224,0.301,0.469,0.301,0.737v2.278
			c0,0.983,0.336,1.809,1.006,2.479s1.474,1.005,2.411,1.005c0.938,0,1.742-0.335,2.412-1.005s1.005-1.496,1.005-2.479V34.5
			c0-0.357-0.011-0.58-0.033-0.67c-0.022-0.089-0.078-0.223-0.167-0.402l-9.648-17.018c-0.312-0.58-0.559-1.027-0.737-1.34
			c-0.179-0.312-0.301-0.603-0.368-0.871s-0.112-0.558-0.134-0.871c-0.023-0.312-0.033-0.714-0.033-1.206V8.705
			c0-1.072,0.2-2.065,0.603-2.981c0.402-0.915,0.96-1.73,1.675-2.445c0.714-0.714,1.529-1.273,2.445-1.675
			C238.389,1.201,239.384,1,240.455,1c1.072,0,2.066,0.201,2.982,0.603c0.914,0.402,1.73,0.961,2.445,1.675
			c0.714,0.715,1.272,1.53,1.675,2.445c0.402,0.916,0.603,1.91,0.603,2.981v2.278c0,0.715-0.357,1.072-1.071,1.072h-2.145
			C244.229,12.055,243.872,11.698,243.872,10.983z"/>
		<path display="inline" fill="#FFFFFF" d="M260.823,1c1.072,0,2.065,0.201,2.981,0.603c0.915,0.402,1.73,0.961,2.445,1.675
			c0.715,0.715,1.273,1.541,1.676,2.479c0.401,0.938,0.603,1.943,0.603,3.015V37.85c0,1.072-0.201,2.077-0.603,3.015
			c-0.402,0.938-0.961,1.753-1.676,2.445c-0.715,0.693-1.53,1.24-2.445,1.642c-0.916,0.402-1.909,0.603-2.981,0.603
			s-2.077-0.201-3.015-0.603c-0.938-0.402-1.766-0.948-2.479-1.642c-0.715-0.692-1.272-1.507-1.675-2.445s-0.603-1.943-0.603-3.015
			V8.771c0-1.072,0.2-2.077,0.603-3.015s0.96-1.764,1.675-2.479c0.714-0.714,1.541-1.273,2.479-1.675
			C258.746,1.201,259.751,1,260.823,1z M264.24,8.771c0-0.982-0.335-1.809-1.005-2.479c-0.67-0.67-1.474-1.005-2.412-1.005
			c-0.982,0-1.809,0.335-2.479,1.005c-0.67,0.67-1.005,1.497-1.005,2.479V37.85c0,0.938,0.335,1.742,1.005,2.412
			s1.496,1.005,2.479,1.005c0.938,0,1.742-0.335,2.412-1.005s1.005-1.474,1.005-2.412V8.771z"/>
		<path display="inline" fill="#FFFFFF" d="M292.983,1c1.072,0,2.077,0.201,3.015,0.603c0.938,0.402,1.765,0.961,2.479,1.675
			c0.714,0.715,1.272,1.541,1.675,2.479s0.604,1.943,0.604,3.015v35.711c0,0.313-0.112,0.569-0.335,0.771
			c-0.225,0.201-0.47,0.301-0.737,0.301h-2.145c-0.715,0-1.071-0.357-1.071-1.072V8.771c0-0.982-0.335-1.809-1.005-2.479
			c-0.67-0.67-1.497-1.005-2.479-1.005c-0.938,0-1.742,0.335-2.412,1.005c-0.67,0.67-1.005,1.497-1.005,2.479v35.711
			c0,0.715-0.358,1.072-1.072,1.072h-2.144c-0.715,0-1.072-0.357-1.072-1.072V8.771c0-0.982-0.335-1.809-1.005-2.479
			c-0.67-0.67-1.474-1.005-2.412-1.005c-0.982,0-1.809,0.335-2.479,1.005c-0.67,0.67-1.005,1.497-1.005,2.479v35.711
			c0,0.715-0.358,1.072-1.072,1.072h-2.145c-0.268,0-0.514-0.101-0.736-0.301c-0.225-0.201-0.335-0.458-0.335-0.771V8.771
			c0-1.072,0.2-2.077,0.603-3.015s0.96-1.764,1.675-2.479c0.714-0.714,1.541-1.273,2.479-1.675C279.784,1.201,280.789,1,281.861,1
			s2.088,0.213,3.049,0.637c0.96,0.425,1.797,1.017,2.513,1.775c0.714-0.759,1.551-1.351,2.512-1.775
			C290.895,1.212,291.911,1,292.983,1z"/>
		<path display="inline" fill="#FFFFFF" d="M310.604,5.288v15.879h5.828c0.715,0,1.072,0.358,1.072,1.072v2.144
			c0,0.268-0.101,0.514-0.302,0.737c-0.2,0.224-0.458,0.335-0.771,0.335h-5.828v15.812h5.828c0.312,0,0.57,0.112,0.771,0.335
			c0.201,0.224,0.302,0.469,0.302,0.737v2.144c0,0.715-0.357,1.072-1.072,1.072h-7.973c-0.626,0-1.139-0.201-1.541-0.603
			s-0.603-0.915-0.603-1.541V3.144c0-0.58,0.2-1.083,0.603-1.507C307.321,1.212,307.834,1,308.46,1h7.973
			c0.312,0,0.57,0.112,0.771,0.335c0.201,0.224,0.302,0.469,0.302,0.737v2.144c0,0.715-0.357,1.072-1.072,1.072H310.604z"/>
		<path display="inline" fill="#FFFFFF" d="M334.557,1.334c0.201,0.224,0.302,0.469,0.302,0.737v2.144
			c0,0.715-0.358,1.072-1.072,1.072h-3.015v39.195c0,0.715-0.358,1.072-1.072,1.072h-2.145c-0.715,0-1.071-0.357-1.071-1.072V5.288
			h-3.016c-0.715,0-1.071-0.357-1.071-1.072V2.072c0-0.268,0.1-0.513,0.301-0.737C322.898,1.112,323.155,1,323.468,1h10.318
			C334.098,1,334.355,1.112,334.557,1.334z"/>
		<path display="inline" fill="#FFFFFF" d="M354.857,1.334c0.201,0.224,0.301,0.469,0.301,0.737v42.411
			c0,0.715-0.357,1.072-1.071,1.072h-2.077c-0.715,0-1.072-0.357-1.072-1.072V25.455h-6.9v19.028c0,0.715-0.358,1.072-1.072,1.072
			h-2.145c-0.715,0-1.071-0.357-1.071-1.072V2.139V2.072c0-0.268,0.101-0.513,0.301-0.737C340.251,1.112,340.508,1,340.82,1h2.145
			c0.312,0,0.569,0.112,0.771,0.335c0.201,0.224,0.302,0.469,0.302,0.737v19.095h6.9V2.072c0-0.268,0.101-0.513,0.302-0.737
			C351.44,1.112,351.696,1,352.01,1h2.077C354.398,1,354.656,1.112,354.857,1.334z"/>
		<path display="inline" fill="#FFFFFF" d="M365.007,44.483c0,0.715-0.358,1.072-1.072,1.072h-2.145
			c-0.715,0-1.071-0.357-1.071-1.072V2.139V2.072c0-0.268,0.101-0.513,0.301-0.737C361.221,1.112,361.478,1,361.79,1h2.145
			c0.312,0,0.569,0.112,0.771,0.335c0.201,0.224,0.302,0.469,0.302,0.737V44.483z"/>
		<path display="inline" fill="#FFFFFF" d="M378.339,1c1.072,0,2.065,0.201,2.981,0.603c0.915,0.402,1.73,0.961,2.445,1.675
			c0.715,0.715,1.273,1.541,1.676,2.479c0.401,0.938,0.603,1.943,0.603,3.015v35.711c0,0.715-0.358,1.072-1.072,1.072h-2.144
			c-0.715,0-1.072-0.357-1.072-1.072V8.771c0-0.982-0.335-1.809-1.005-2.479c-0.67-0.67-1.474-1.005-2.412-1.005
			c-0.982,0-1.809,0.335-2.479,1.005c-0.67,0.67-1.005,1.497-1.005,2.479v35.711c0,0.715-0.358,1.072-1.072,1.072h-2.145
			c-0.715,0-1.071-0.357-1.071-1.072V8.771c0-1.072,0.2-2.077,0.603-3.015s0.96-1.764,1.675-2.479
			c0.714-0.714,1.541-1.273,2.479-1.675C376.262,1.201,377.267,1,378.339,1z"/>
		<path display="inline" fill="#FFFFFF" d="M402.728,10.983V8.705c0-0.938-0.335-1.742-1.006-2.412
			c-0.67-0.67-1.474-1.005-2.411-1.005c-0.938,0-1.742,0.335-2.412,1.005c-0.67,0.67-1.005,1.474-1.005,2.412V37.85
			c0,0.938,0.335,1.742,1.005,2.412s1.474,1.005,2.412,1.005c0.938,0,1.741-0.335,2.411-1.005c0.671-0.67,1.006-1.474,1.006-2.412
			V25.321h-2.346c-0.715,0-1.071-0.357-1.071-1.072v-2.144c0-0.714,0.356-1.072,1.071-1.072h5.562c0.714,0,1.071,0.358,1.071,1.072
			V37.85c0,1.072-0.2,2.066-0.603,2.981c-0.402,0.916-0.961,1.731-1.675,2.446c-0.715,0.715-1.53,1.273-2.445,1.675
			c-0.916,0.402-1.91,0.603-2.981,0.603c-1.072,0-2.067-0.201-2.982-0.603c-0.916-0.402-1.731-0.96-2.445-1.675
			c-0.715-0.714-1.272-1.53-1.675-2.446c-0.402-0.915-0.603-1.909-0.603-2.981V8.705c0-1.072,0.2-2.065,0.603-2.981
			c0.402-0.915,0.96-1.73,1.675-2.445c0.714-0.714,1.529-1.273,2.445-1.675C397.243,1.201,398.238,1,399.311,1
			c1.071,0,2.065,0.201,2.981,0.603c0.915,0.402,1.73,0.961,2.445,1.675c0.714,0.715,1.272,1.53,1.675,2.445
			c0.402,0.916,0.603,1.91,0.603,2.981v2.278c0,0.715-0.357,1.072-1.071,1.072h-2.145C403.084,12.055,402.728,11.698,402.728,10.983
			z"/>
		<path display="inline" fill="#FFFFFF" d="M422.224,45.287V1.334c0-0.223,0.11-0.335,0.335-0.335h0.134
			c0.178,0,0.268,0.112,0.268,0.335v43.952c0,0.179-0.09,0.268-0.268,0.268h-0.134C422.334,45.555,422.224,45.466,422.224,45.287z"
			/>
		<path display="inline" fill="#FFFFFF" d="M443.194,45.287V6.963c0-0.714-0.135-1.396-0.402-2.044
			c-0.269-0.646-0.637-1.206-1.105-1.675c-0.469-0.469-1.017-0.837-1.642-1.105c-0.626-0.268-1.296-0.402-2.01-0.402
			c-1.431,0-2.658,0.514-3.686,1.541c-1.027,1.028-1.541,2.256-1.541,3.685v38.324c0,0.179-0.09,0.268-0.268,0.268h-0.201
			c-0.179,0-0.268-0.089-0.268-0.268V6.963c0-1.652,0.58-3.059,1.741-4.221C434.975,1.581,436.382,1,438.035,1
			c0.804,0,1.562,0.157,2.277,0.469c0.715,0.313,1.341,0.737,1.876,1.273c0.536,0.536,0.96,1.172,1.273,1.91
			c0.312,0.737,0.469,1.507,0.469,2.312v38.324c0,0.179-0.09,0.268-0.268,0.268h-0.134
			C443.305,45.555,443.194,45.466,443.194,45.287z"/>
		<path display="inline" fill="#FFFFFF" d="M453.11,39.592V6.896c0-1.652,0.58-3.048,1.741-4.188C456.013,1.569,457.42,1,459.073,1
			c1.651,0,3.048,0.57,4.188,1.708c1.139,1.139,1.708,2.536,1.708,4.188v1.273c0,0.224-0.09,0.335-0.268,0.335h-0.134
			c-0.18,0-0.269-0.111-0.269-0.335V6.896c0-1.429-0.514-2.657-1.541-3.685c-1.028-1.027-2.256-1.541-3.685-1.541
			c-1.431,0-2.658,0.514-3.686,1.541c-1.027,1.028-1.541,2.256-1.541,3.685v32.696c0,1.43,0.514,2.658,1.541,3.685
			c1.027,1.028,2.255,1.541,3.686,1.541c1.429,0,2.656-0.513,3.685-1.541c1.027-1.027,1.541-2.255,1.541-3.685v-1.474
			c0-0.223,0.089-0.335,0.269-0.335h0.134c0.178,0,0.268,0.112,0.268,0.335v1.474c0,1.653-0.569,3.06-1.708,4.221
			c-1.14,1.162-2.536,1.742-4.188,1.742c-1.653,0-3.061-0.58-4.222-1.742C453.69,42.652,453.11,41.245,453.11,39.592z"/>
		<path display="inline" fill="#FFFFFF" d="M483.997,17.683c0,1.296-0.369,2.446-1.105,3.451c-0.737,1.005-1.687,1.708-2.848,2.11
			c1.161,0.447,2.11,1.172,2.848,2.178c0.736,1.005,1.105,2.155,1.105,3.45v16.415c0,0.179-0.112,0.268-0.335,0.268h-0.134
			c-0.18,0-0.269-0.089-0.269-0.268V28.872c0-1.429-0.514-2.657-1.541-3.685c-1.028-1.027-2.256-1.541-3.685-1.541h-5.227v21.641
			c0,0.179-0.09,0.268-0.268,0.268h-0.134c-0.225,0-0.335-0.089-0.335-0.268V1.402c0-0.268,0.134-0.402,0.401-0.402h5.562
			c1.651,0,3.059,0.581,4.221,1.742c1.161,1.162,1.742,2.569,1.742,4.221V17.683z M478.034,22.909c1.429,0,2.656-0.513,3.685-1.541
			c1.027-1.027,1.541-2.255,1.541-3.685V6.963c0-1.429-0.514-2.657-1.541-3.685c-1.028-1.027-2.256-1.541-3.685-1.541h-5.227v21.172
			H478.034z"/>
		<path display="inline" fill="#FFFFFF" d="M500.345,1.737h-6.566v21.172h6.566c0.178,0,0.268,0.09,0.268,0.268v0.201
			c0,0.179-0.09,0.268-0.268,0.268h-6.566v21.239h6.566c0.178,0,0.268,0.09,0.268,0.268v0.134c0,0.179-0.09,0.268-0.268,0.268
			h-6.968c-0.225,0-0.335-0.111-0.335-0.335V1.402c0-0.268,0.11-0.402,0.335-0.402h6.968c0.178,0,0.268,0.112,0.268,0.335v0.134
			C500.612,1.647,500.522,1.737,500.345,1.737z"/>
		<path display="inline" fill="#FFFFFF" d="M515.755,1c1.651,0,3.048,0.581,4.188,1.742c1.139,1.162,1.708,2.569,1.708,4.221v32.696
			c0,1.653-0.569,3.048-1.708,4.188c-1.14,1.139-2.536,1.708-4.188,1.708h-5.562c-0.268,0-0.401-0.111-0.401-0.335V1.402
			c0-0.268,0.134-0.402,0.401-0.402H515.755z M520.98,6.963c0-1.429-0.514-2.657-1.541-3.685c-1.028-1.027-2.256-1.541-3.685-1.541
			h-5.227v43.148h5.227c1.429,0,2.656-0.513,3.685-1.541c1.027-1.027,1.541-2.255,1.541-3.685V6.963z"/>
		<path display="inline" fill="#FFFFFF" d="M530.83,45.287V1.334c0-0.223,0.11-0.335,0.335-0.335h0.134
			c0.178,0,0.268,0.112,0.268,0.335v43.952c0,0.179-0.09,0.268-0.268,0.268h-0.134C530.94,45.555,530.83,45.466,530.83,45.287z"/>
		<path display="inline" fill="#FFFFFF" d="M552.604,17.683c0,1.296-0.368,2.446-1.105,3.451s-1.687,1.731-2.848,2.177
			c1.161,0.402,2.11,1.105,2.848,2.111c0.737,1.005,1.105,2.155,1.105,3.45v10.72c0,1.653-0.581,3.06-1.742,4.221
			c-1.162,1.162-2.569,1.742-4.221,1.742h-5.628c-0.225,0-0.335-0.111-0.335-0.335V1.402c0-0.268,0.11-0.402,0.335-0.402h5.628
			c1.651,0,3.059,0.581,4.221,1.742c1.161,1.162,1.742,2.569,1.742,4.221V17.683z M546.642,22.909c1.429,0,2.656-0.513,3.685-1.541
			c1.027-1.027,1.541-2.255,1.541-3.685V6.963c0-1.429-0.514-2.657-1.541-3.685c-1.028-1.027-2.256-1.541-3.685-1.541h-5.227v21.172
			H546.642z M551.867,28.872c0-1.429-0.514-2.657-1.541-3.685c-1.028-1.027-2.256-1.541-3.685-1.541h-5.227v21.172h5.227
			c1.429,0,2.656-0.513,3.685-1.541c1.027-1.027,1.541-2.255,1.541-3.685V28.872z"/>
		<path display="inline" fill="#FFFFFF" d="M561.717,45.22V1.334c0-0.223,0.11-0.335,0.335-0.335h0.134
			c0.178,0,0.268,0.112,0.268,0.335v43.55h6.566c0.223,0,0.335,0.09,0.335,0.268v0.134c0,0.179-0.112,0.268-0.335,0.268h-6.901
			C561.851,45.555,561.717,45.444,561.717,45.22z"/>
		<path display="inline" fill="#FFFFFF" d="M585.032,1.737h-6.566v21.172h6.566c0.178,0,0.268,0.09,0.268,0.268v0.201
			c0,0.179-0.09,0.268-0.268,0.268h-6.566v21.239h6.566c0.178,0,0.268,0.09,0.268,0.268v0.134c0,0.179-0.09,0.268-0.268,0.268
			h-6.968c-0.225,0-0.335-0.111-0.335-0.335V1.402c0-0.268,0.11-0.402,0.335-0.402h6.968c0.178,0,0.268,0.112,0.268,0.335v0.134
			C585.3,1.647,585.21,1.737,585.032,1.737z"/>
		<path display="inline" fill="#FFFFFF" d="M110.879,124.883c0,0.715-0.358,1.072-1.072,1.072h-2.145
			c-0.715,0-1.071-0.357-1.071-1.072V82.539v-0.067c0-0.268,0.101-0.513,0.301-0.737c0.201-0.223,0.458-0.335,0.771-0.335h2.145
			c0.312,0,0.569,0.112,0.771,0.335c0.201,0.224,0.302,0.469,0.302,0.737V124.883z"/>
		<path display="inline" fill="#FFFFFF" d="M126.891,91.383v-2.278c0-0.938-0.335-1.742-1.005-2.412
			c-0.67-0.67-1.474-1.005-2.412-1.005c-0.938,0-1.741,0.335-2.411,1.005c-0.67,0.67-1.006,1.474-1.006,2.412v3.417
			c0,0.402,0.011,0.648,0.034,0.737c0.021,0.09,0.077,0.224,0.167,0.402l9.648,17.018c0.312,0.581,0.558,1.028,0.737,1.34
			c0.178,0.313,0.301,0.603,0.368,0.871c0.066,0.268,0.111,0.547,0.134,0.837c0.022,0.291,0.033,0.682,0.033,1.172v3.35
			c0,1.072-0.2,2.077-0.603,3.015s-0.961,1.753-1.675,2.445c-0.715,0.693-1.531,1.24-2.445,1.642
			c-0.916,0.402-1.91,0.603-2.982,0.603c-1.071,0-2.066-0.201-2.981-0.603c-0.916-0.402-1.731-0.948-2.445-1.642
			c-0.715-0.692-1.272-1.507-1.675-2.445s-0.603-1.943-0.603-3.015v-2.278c0-0.268,0.1-0.513,0.301-0.737
			c0.201-0.223,0.458-0.335,0.771-0.335h2.145c0.312,0,0.569,0.112,0.771,0.335c0.201,0.224,0.301,0.469,0.301,0.737v2.278
			c0,0.983,0.336,1.809,1.006,2.479s1.474,1.005,2.411,1.005c0.938,0,1.742-0.335,2.412-1.005s1.005-1.496,1.005-2.479v-3.35
			c0-0.357-0.011-0.58-0.033-0.67c-0.022-0.089-0.078-0.223-0.167-0.402l-9.648-17.018c-0.312-0.58-0.559-1.027-0.737-1.34
			c-0.179-0.312-0.301-0.603-0.368-0.871s-0.112-0.558-0.134-0.871c-0.023-0.312-0.033-0.714-0.033-1.206v-3.417
			c0-1.072,0.2-2.065,0.603-2.981c0.402-0.915,0.96-1.73,1.675-2.445c0.714-0.714,1.529-1.273,2.445-1.675
			c0.915-0.402,1.91-0.603,2.981-0.603c1.072,0,2.066,0.201,2.982,0.603c0.914,0.402,1.73,0.961,2.445,1.675
			c0.714,0.715,1.272,1.53,1.675,2.445c0.402,0.916,0.603,1.91,0.603,2.981v2.278c0,0.715-0.357,1.072-1.071,1.072h-2.145
			C127.248,92.455,126.891,92.098,126.891,91.383z"/>
		<path display="inline" fill="#FFFFFF" d="M172.316,82.539v32.227c0,1.519-0.425,2.948-1.273,4.288l-3.617,6.365
			c-0.225,0.358-0.536,0.536-0.938,0.536h-3.752c-0.402,0-0.715-0.178-0.938-0.536l-2.747-4.891l-2.814,4.891
			c-0.224,0.358-0.536,0.536-0.938,0.536h-3.686c-0.492,0-0.804-0.178-0.938-0.536l-3.618-6.365c-0.895-1.295-1.34-2.724-1.34-4.288
			V82.539c0-0.714,0.356-1.072,1.071-1.072h2.145c0.714,0,1.072,0.358,1.072,1.072v32.227c0,0.402,0.066,0.76,0.2,1.072l3.217,5.762
			l3.282-5.762c0.135-0.312,0.201-0.67,0.201-1.072V82.539c0-0.714,0.357-1.072,1.072-1.072h2.144c0.714,0,1.072,0.358,1.072,1.072
			v32.227c0,0.402,0.067,0.76,0.201,1.072l3.216,5.762l3.283-5.762c0.044-0.178,0.077-0.345,0.101-0.502
			c0.021-0.156,0.033-0.345,0.033-0.569V82.539c0-0.312,0.111-0.569,0.335-0.771c0.223-0.201,0.469-0.301,0.737-0.301h2.144
			C171.958,81.467,172.316,81.825,172.316,82.539z"/>
		<path display="inline" fill="#FFFFFF" d="M185.649,81.399c1.072,0,2.065,0.201,2.981,0.603c0.915,0.402,1.73,0.961,2.445,1.675
			c0.715,0.715,1.273,1.541,1.676,2.479c0.401,0.938,0.603,1.943,0.603,3.015v35.711c0,0.715-0.358,1.072-1.072,1.072h-2.144
			c-0.715,0-1.072-0.357-1.072-1.072v-19.095h-6.9v19.095c0,0.715-0.358,1.072-1.072,1.072h-2.145c-0.268,0-0.514-0.101-0.736-0.301
			c-0.225-0.201-0.335-0.458-0.335-0.771V89.171c0-1.072,0.2-2.077,0.603-3.015s0.96-1.764,1.675-2.479
			c0.714-0.714,1.541-1.273,2.479-1.675C183.572,81.601,184.577,81.399,185.649,81.399z M189.066,101.5V89.171
			c0-0.982-0.335-1.809-1.005-2.479c-0.67-0.67-1.474-1.005-2.412-1.005c-0.982,0-1.809,0.335-2.479,1.005
			c-0.67,0.67-1.005,1.497-1.005,2.479V101.5H189.066z"/>
		<path display="inline" fill="#FFFFFF" d="M203.204,124.883c0,0.715-0.358,1.072-1.072,1.072h-2.145
			c-0.715,0-1.071-0.357-1.071-1.072V82.539v-0.067c0-0.268,0.101-0.513,0.301-0.737c0.201-0.223,0.458-0.335,0.771-0.335h2.145
			c0.312,0,0.569,0.112,0.771,0.335c0.201,0.224,0.302,0.469,0.302,0.737V124.883z"/>
		<path display="inline" fill="#FFFFFF" d="M220.255,81.734c0.201,0.224,0.302,0.469,0.302,0.737v2.144
			c0,0.715-0.358,1.072-1.072,1.072h-3.015v39.195c0,0.715-0.358,1.072-1.072,1.072h-2.145c-0.715,0-1.071-0.357-1.071-1.072V85.688
			h-3.016c-0.715,0-1.071-0.357-1.071-1.072v-2.144c0-0.268,0.1-0.513,0.301-0.737c0.201-0.223,0.458-0.335,0.771-0.335h10.318
			C219.796,81.399,220.054,81.512,220.255,81.734z"/>
		<path display="inline" fill="#FFFFFF" d="M228.73,124.883c0,0.715-0.358,1.072-1.072,1.072h-2.145
			c-0.715,0-1.071-0.357-1.071-1.072V82.539v-0.067c0-0.268,0.101-0.513,0.301-0.737c0.201-0.223,0.458-0.335,0.771-0.335h2.145
			c0.312,0,0.569,0.112,0.771,0.335c0.201,0.224,0.302,0.469,0.302,0.737V124.883z"/>
		<path display="inline" fill="#FFFFFF" d="M242.062,81.399c1.072,0,2.065,0.201,2.981,0.603c0.915,0.402,1.73,0.961,2.445,1.675
			c0.715,0.715,1.273,1.541,1.676,2.479c0.401,0.938,0.603,1.943,0.603,3.015v35.711c0,0.715-0.358,1.072-1.072,1.072h-2.144
			c-0.715,0-1.072-0.357-1.072-1.072V89.171c0-0.982-0.335-1.809-1.005-2.479c-0.67-0.67-1.474-1.005-2.412-1.005
			c-0.982,0-1.809,0.335-2.479,1.005c-0.67,0.67-1.005,1.497-1.005,2.479v35.711c0,0.715-0.358,1.072-1.072,1.072h-2.145
			c-0.715,0-1.071-0.357-1.071-1.072V89.171c0-1.072,0.2-2.077,0.603-3.015s0.96-1.764,1.675-2.479
			c0.714-0.714,1.541-1.273,2.479-1.675C239.985,81.601,240.99,81.399,242.062,81.399z"/>
		<path display="inline" fill="#FFFFFF" d="M266.451,91.383v-2.278c0-0.938-0.335-1.742-1.006-2.412
			c-0.67-0.67-1.474-1.005-2.411-1.005c-0.938,0-1.742,0.335-2.412,1.005c-0.67,0.67-1.005,1.474-1.005,2.412v29.145
			c0,0.938,0.335,1.742,1.005,2.412s1.474,1.005,2.412,1.005c0.938,0,1.741-0.335,2.411-1.005c0.671-0.67,1.006-1.474,1.006-2.412
			v-12.529h-2.346c-0.715,0-1.071-0.357-1.071-1.072v-2.144c0-0.714,0.356-1.072,1.071-1.072h5.562c0.714,0,1.071,0.358,1.071,1.072
			v15.745c0,1.072-0.2,2.066-0.603,2.981c-0.402,0.916-0.961,1.731-1.675,2.446c-0.715,0.715-1.53,1.273-2.445,1.675
			c-0.916,0.402-1.91,0.603-2.981,0.603c-1.072,0-2.067-0.201-2.982-0.603c-0.916-0.402-1.731-0.96-2.445-1.675
			c-0.715-0.714-1.272-1.53-1.675-2.446c-0.402-0.915-0.603-1.909-0.603-2.981V89.104c0-1.072,0.2-2.065,0.603-2.981
			c0.402-0.915,0.96-1.73,1.675-2.445c0.714-0.714,1.529-1.273,2.445-1.675c0.915-0.402,1.91-0.603,2.982-0.603
			c1.071,0,2.065,0.201,2.981,0.603c0.915,0.402,1.73,0.961,2.445,1.675c0.714,0.715,1.272,1.53,1.675,2.445
			c0.402,0.916,0.603,1.91,0.603,2.981v2.278c0,0.715-0.357,1.072-1.071,1.072h-2.145C266.808,92.455,266.451,92.098,266.451,91.383
			z"/>
		<path display="inline" fill="#FFFFFF" d="M297.438,81.734c0.201,0.224,0.302,0.469,0.302,0.737v2.144
			c0,0.715-0.358,1.072-1.072,1.072h-3.015v39.195c0,0.715-0.358,1.072-1.072,1.072h-2.145c-0.715,0-1.071-0.357-1.071-1.072V85.688
			h-3.016c-0.715,0-1.071-0.357-1.071-1.072v-2.144c0-0.268,0.1-0.513,0.301-0.737c0.201-0.223,0.458-0.335,0.771-0.335h10.318
			C296.979,81.399,297.236,81.512,297.438,81.734z"/>
		<path display="inline" fill="#FFFFFF" d="M308.392,81.399c1.072,0,2.065,0.201,2.981,0.603c0.915,0.402,1.73,0.961,2.445,1.675
			c0.715,0.715,1.273,1.541,1.676,2.479c0.401,0.938,0.603,1.943,0.603,3.015v29.078c0,1.072-0.201,2.077-0.603,3.015
			c-0.402,0.938-0.961,1.753-1.676,2.445c-0.715,0.693-1.53,1.24-2.445,1.642c-0.916,0.402-1.909,0.603-2.981,0.603
			s-2.077-0.201-3.015-0.603c-0.938-0.402-1.766-0.948-2.479-1.642c-0.715-0.692-1.272-1.507-1.675-2.445s-0.603-1.943-0.603-3.015
			V89.171c0-1.072,0.2-2.077,0.603-3.015s0.96-1.764,1.675-2.479c0.714-0.714,1.541-1.273,2.479-1.675
			C306.314,81.601,307.319,81.399,308.392,81.399z M311.809,89.171c0-0.982-0.335-1.809-1.005-2.479
			c-0.67-0.67-1.474-1.005-2.412-1.005c-0.982,0-1.809,0.335-2.479,1.005c-0.67,0.67-1.005,1.497-1.005,2.479v29.078
			c0,0.938,0.335,1.742,1.005,2.412s1.496,1.005,2.479,1.005c0.938,0,1.742-0.335,2.412-1.005s1.005-1.474,1.005-2.412V89.171z"/>
		<path display="inline" fill="#FFFFFF" d="M346.782,98.083c0,1.117-0.213,2.156-0.637,3.116c-0.425,0.961-1.017,1.798-1.775,2.512
			c0.759,0.715,1.351,1.541,1.775,2.479c0.424,0.938,0.637,1.966,0.637,3.082v8.978c0,1.072-0.201,2.066-0.603,2.981
			c-0.402,0.916-0.961,1.731-1.676,2.446c-0.715,0.715-1.53,1.273-2.445,1.675c-0.916,0.402-1.909,0.603-2.981,0.603h-5.628
			c-0.581,0-1.083-0.201-1.508-0.603s-0.636-0.915-0.636-1.541V83.543c0-0.58,0.211-1.083,0.636-1.507
			c0.425-0.424,0.927-0.637,1.508-0.637h5.628c1.072,0,2.065,0.201,2.981,0.603c0.915,0.402,1.73,0.961,2.445,1.675
			c0.715,0.715,1.273,1.541,1.676,2.479c0.401,0.938,0.603,1.943,0.603,3.015V98.083z M342.494,89.171
			c0-0.982-0.335-1.809-1.005-2.479c-0.67-0.67-1.474-1.005-2.412-1.005h-3.483v15.879h3.483c0.938,0,1.742-0.335,2.412-1.005
			s1.005-1.496,1.005-2.479V89.171z M342.494,109.271c0-0.938-0.335-1.742-1.005-2.412c-0.67-0.67-1.474-1.005-2.412-1.005h-3.483
			v15.812h3.483c0.938,0,1.742-0.335,2.412-1.005s1.005-1.474,1.005-2.412V109.271z"/>
		<path display="inline" fill="#FFFFFF" d="M356.632,85.688v15.879h5.828c0.715,0,1.072,0.358,1.072,1.072v2.144
			c0,0.268-0.101,0.514-0.302,0.737c-0.2,0.224-0.458,0.335-0.771,0.335h-5.828v15.812h5.828c0.312,0,0.57,0.112,0.771,0.335
			c0.201,0.224,0.302,0.469,0.302,0.737v2.144c0,0.715-0.357,1.072-1.072,1.072h-7.973c-0.626,0-1.139-0.201-1.541-0.603
			s-0.603-0.915-0.603-1.541V83.543c0-0.58,0.2-1.083,0.603-1.507c0.402-0.424,0.915-0.637,1.541-0.637h7.973
			c0.312,0,0.57,0.112,0.771,0.335c0.201,0.224,0.302,0.469,0.302,0.737v2.144c0,0.715-0.357,1.072-1.072,1.072H356.632z"/>
		<path display="inline" fill="#FFFFFF" d="M394.218,98.083c0,1.117-0.213,2.144-0.637,3.082c-0.425,0.938-1.017,1.765-1.775,2.479
			c0.759,0.715,1.351,1.553,1.775,2.513c0.424,0.961,0.637,2,0.637,3.115v15.611c0,0.313-0.112,0.569-0.335,0.771
			c-0.224,0.201-0.469,0.301-0.737,0.301h-2.144c-0.715,0-1.072-0.357-1.072-1.072v-15.611c0-0.982-0.335-1.809-1.005-2.479
			s-1.497-1.005-2.479-1.005h-3.417v19.095c0,0.715-0.358,1.072-1.072,1.072h-2.145c-0.715,0-1.071-0.357-1.071-1.072v-19.095V101.5
			V82.539v-0.067c0-0.268,0.101-0.513,0.301-0.737c0.201-0.223,0.458-0.335,0.771-0.335h2.145c0.312,0,0.569,0.112,0.771,0.335
			c0.201,0.224,0.302,0.469,0.302,0.737V101.5h3.417c0.981,0,1.809-0.335,2.479-1.005s1.005-1.474,1.005-2.412V82.472
			c0-0.268,0.101-0.513,0.302-0.737c0.201-0.223,0.457-0.335,0.771-0.335h2.144c0.269,0,0.514,0.112,0.737,0.335
			c0.223,0.224,0.335,0.469,0.335,0.737V98.083z"/>
		<path display="inline" fill="#FFFFFF" d="M407.551,81.399c1.072,0,2.065,0.201,2.981,0.603c0.915,0.402,1.73,0.961,2.445,1.675
			c0.715,0.715,1.273,1.541,1.676,2.479c0.401,0.938,0.603,1.943,0.603,3.015v35.711c0,0.715-0.358,1.072-1.072,1.072h-2.144
			c-0.715,0-1.072-0.357-1.072-1.072V89.171c0-0.982-0.335-1.809-1.005-2.479c-0.67-0.67-1.474-1.005-2.412-1.005
			c-0.982,0-1.809,0.335-2.479,1.005c-0.67,0.67-1.005,1.497-1.005,2.479v35.711c0,0.715-0.358,1.072-1.072,1.072h-2.145
			c-0.715,0-1.071-0.357-1.071-1.072V89.171c0-1.072,0.2-2.077,0.603-3.015s0.96-1.764,1.675-2.479
			c0.714-0.714,1.541-1.273,2.479-1.675C405.474,81.601,406.479,81.399,407.551,81.399z"/>
		<path display="inline" fill="#FFFFFF" d="M428.589,81.399c1.072,0,2.065,0.201,2.981,0.603c0.915,0.402,1.73,0.961,2.445,1.675
			c0.715,0.715,1.273,1.541,1.676,2.479c0.401,0.938,0.603,1.943,0.603,3.015v29.078c0,1.072-0.201,2.077-0.603,3.015
			c-0.402,0.938-0.961,1.753-1.676,2.445c-0.715,0.693-1.53,1.24-2.445,1.642c-0.916,0.402-1.909,0.603-2.981,0.603
			s-2.077-0.201-3.015-0.603c-0.938-0.402-1.766-0.948-2.479-1.642c-0.715-0.692-1.272-1.507-1.675-2.445s-0.603-1.943-0.603-3.015
			V89.171c0-1.072,0.2-2.077,0.603-3.015s0.96-1.764,1.675-2.479c0.714-0.714,1.541-1.273,2.479-1.675
			C426.512,81.601,427.517,81.399,428.589,81.399z M432.006,89.171c0-0.982-0.335-1.809-1.005-2.479
			c-0.67-0.67-1.474-1.005-2.412-1.005c-0.982,0-1.809,0.335-2.479,1.005c-0.67,0.67-1.005,1.497-1.005,2.479v29.078
			c0,0.938,0.335,1.742,1.005,2.412s1.496,1.005,2.479,1.005c0.938,0,1.742-0.335,2.412-1.005s1.005-1.474,1.005-2.412V89.171z"/>
		<path display="inline" fill="#FFFFFF" d="M468.454,82.539v32.227c0,1.519-0.425,2.948-1.273,4.288l-3.617,6.365
			c-0.225,0.358-0.536,0.536-0.938,0.536h-3.752c-0.402,0-0.715-0.178-0.938-0.536l-2.747-4.891l-2.814,4.891
			c-0.224,0.358-0.536,0.536-0.938,0.536h-3.686c-0.492,0-0.804-0.178-0.938-0.536l-3.618-6.365c-0.895-1.295-1.34-2.724-1.34-4.288
			V82.539c0-0.714,0.356-1.072,1.071-1.072h2.145c0.714,0,1.072,0.358,1.072,1.072v32.227c0,0.402,0.066,0.76,0.2,1.072l3.217,5.762
			l3.282-5.762c0.135-0.312,0.201-0.67,0.201-1.072V82.539c0-0.714,0.357-1.072,1.072-1.072h2.144c0.714,0,1.072,0.358,1.072,1.072
			v32.227c0,0.402,0.067,0.76,0.201,1.072l3.216,5.762l3.283-5.762c0.044-0.178,0.077-0.345,0.101-0.502
			c0.021-0.156,0.033-0.345,0.033-0.569V82.539c0-0.312,0.111-0.569,0.335-0.771c0.223-0.201,0.469-0.301,0.737-0.301h2.144
			C468.096,81.467,468.454,81.825,468.454,82.539z"/>
		<path display="inline" fill="#FFFFFF" d="M481.787,81.399c1.072,0,2.065,0.201,2.981,0.603c0.915,0.402,1.73,0.961,2.445,1.675
			c0.715,0.715,1.273,1.541,1.676,2.479c0.401,0.938,0.603,1.943,0.603,3.015v35.711c0,0.715-0.358,1.072-1.072,1.072h-2.144
			c-0.715,0-1.072-0.357-1.072-1.072V89.171c0-0.982-0.335-1.809-1.005-2.479c-0.67-0.67-1.474-1.005-2.412-1.005
			c-0.982,0-1.809,0.335-2.479,1.005c-0.67,0.67-1.005,1.497-1.005,2.479v35.711c0,0.715-0.358,1.072-1.072,1.072h-2.145
			c-0.715,0-1.071-0.357-1.071-1.072V89.171c0-1.072,0.2-2.077,0.603-3.015s0.96-1.764,1.675-2.479
			c0.714-0.714,1.541-1.273,2.479-1.675C479.71,81.601,480.715,81.399,481.787,81.399z"/>
		<path display="inline" fill="#FFFFFF" d="M499.342,120.46v4.422c0,0.268-0.101,0.514-0.302,0.737
			c-0.201,0.224-0.459,0.335-0.771,0.335h-2.145c-0.312,0-0.569-0.111-0.771-0.335c-0.2-0.223-0.301-0.469-0.301-0.737v-4.422
			c0-0.714,0.356-1.072,1.071-1.072h2.145C498.983,119.389,499.342,119.747,499.342,120.46z"/>
	</g>
	<rect x="0.558" y="1.256" fill="none" width="606.528" height="145.493"/>
	<text transform="matrix(1 0 0 1 14.5879 45.811)" display="none"><tspan x="0" y="0" display="inline" fill="#FA6900" font-family="'Blanch-Condensed'" font-size="67">somewhere, something </tspan><tspan x="405.21" y="0" display="inline" fill="#FA6900" font-family="'Blanch-CondensedLight'" font-size="67">incredible</tspan><tspan x="578.471" y="0" display="inline" fill="#FA6900" font-family="'Blanch-Condensed'" font-size="67"> </tspan><tspan x="88.573" y="80.4" display="inline" fill="#FA6900" font-family="'Blanch-Condensed'" font-size="67">is waiting to be known.</tspan></text>
	<g>
		<path fill="#FFFFFF" d="M336.917,195.137c0-19.904-16.191-36.096-36.096-36.096s-36.096,16.191-36.096,36.096
			s16.191,36.096,36.096,36.096c6.869,0,13.295-1.928,18.768-5.275c1.508,1.467,3.564,2.369,5.833,2.369
			c4.628,0,8.381-3.752,8.381-8.381c0-2.244-0.884-4.281-2.319-5.783C334.925,208.635,336.917,202.115,336.917,195.137z
			 M325.422,211.566c-4.628,0-8.38,3.75-8.38,8.379c0,1.684,0.5,3.25,1.352,4.562c-5.141,3.088-11.152,4.865-17.572,4.865
			c-18.878,0-34.236-15.357-34.236-34.236s15.358-34.238,34.236-34.238s34.238,15.359,34.238,34.238
			c0,6.523-1.834,12.625-5.015,17.818C328.72,212.078,327.132,211.566,325.422,211.566z"/>
		<path fill="#FFFFFF" d="M300.862,218.83c-13.063,0-23.692-10.627-23.692-23.691c0-13.066,10.629-23.695,23.692-23.695
			c13.066,0,23.695,10.629,23.695,23.695C324.558,208.203,313.929,218.83,300.862,218.83z M300.862,173.271
			c-12.055,0-21.863,9.809-21.863,21.867c0,12.055,9.809,21.863,21.863,21.863c12.057,0,21.866-9.809,21.866-21.863
			C322.729,183.08,312.919,173.271,300.862,173.271z"/>
		<path fill="#FFFFFF" d="M300.862,176.396c-10.349,0-18.738,8.393-18.738,18.742s8.39,18.74,18.738,18.74
			c10.352,0,18.741-8.391,18.741-18.74S311.214,176.396,300.862,176.396z M304.595,188.005c0,0.224-0.406,0.352-1.017,0.352
			c-0.578,0-0.983-0.128-0.983-0.352v-1.403c0-0.352-0.762-0.67-1.5-0.67c-0.736,0-1.5,0.318-1.5,0.67v7.019
			c0,0.352,0.688,0.671,1.424,0.671c1.928,0,3.576,0.766,3.576,1.722v8.329c0,0.991-1.572,1.755-3.5,1.755s-3.5-0.765-3.5-1.755
			v-2.074c0-0.224,0.406-0.382,1.016-0.382c0.58,0,0.984,0.159,0.984,0.382v1.404c0,0.35,0.764,0.636,1.5,0.636
			c0.738,0,1.5-0.286,1.5-0.636v-6.799c0-0.382-0.686-0.67-1.424-0.67c-1.928,0-3.576-0.764-3.576-1.722v-8.585
			c0-0.955,1.572-1.722,3.5-1.722s3.5,0.767,3.5,1.722V188.005z"/>
	</g>
	<rect x="0.558" y="1.256" fill="none" width="606.528" height="145.493"/>
	<text transform="matrix(1 0 0 1 14.5879 45.811)" display="none"><tspan x="0" y="0" display="inline" fill="#FA6900" font-family="'Blanch-Condensed'" font-size="67">somewhere, something </tspan><tspan x="405.21" y="0" display="inline" fill="#FA6900" font-family="'Blanch-CondensedLight'" font-size="67">incredible</tspan><tspan x="578.471" y="0" display="inline" fill="#FA6900" font-family="'Blanch-Condensed'" font-size="67"> </tspan><tspan x="89.646" y="80.4" display="inline" fill="#FA6900" font-family="'Blanch-Condensed'" font-size="67">is waiting to be Played.</tspan></text>
	<rect x="0.558" y="1.256" fill="none" width="606.528" height="145.493"/>
	<text transform="matrix(1 0 0 1 56.6289 45.811)" display="none"><tspan x="0" y="0" display="inline" fill="#FA6900" font-family="'Blanch-Condensed'" font-size="67">somewhere, some </tspan><tspan x="315.7" y="0" display="inline" fill="#FA6900" font-family="'Blanch-CondensedLight'" font-size="67">games </tspan><tspan x="435.963" y="0" display="inline" fill="#FA6900" font-family="'Blanch-Condensed'" font-size="67">are </tspan><tspan x="2.748" y="80.4" display="inline" fill="#FA6900" font-family="'Blanch-Condensed'" font-size="67">waiting to be out of the box.</tspan></text>
	<g>
		<path fill="#FFFFFF" d="M70.028,11.239V8.961c0-0.938-0.335-1.742-1.005-2.412c-0.67-0.67-1.474-1.005-2.412-1.005
			c-0.938,0-1.741,0.335-2.411,1.005c-0.67,0.67-1.006,1.474-1.006,2.412v3.417c0,0.402,0.011,0.648,0.034,0.737
			c0.021,0.09,0.077,0.224,0.167,0.402l9.648,17.018c0.312,0.581,0.558,1.028,0.737,1.34c0.178,0.313,0.301,0.603,0.368,0.871
			c0.066,0.268,0.111,0.547,0.134,0.837c0.022,0.291,0.033,0.682,0.033,1.172v3.35c0,1.072-0.2,2.077-0.603,3.015
			s-0.961,1.753-1.675,2.445c-0.715,0.693-1.531,1.24-2.445,1.642c-0.916,0.402-1.91,0.603-2.982,0.603
			c-1.071,0-2.066-0.201-2.981-0.603c-0.916-0.402-1.731-0.948-2.445-1.642c-0.715-0.692-1.272-1.507-1.675-2.445
			s-0.603-1.943-0.603-3.015v-2.278c0-0.268,0.1-0.513,0.301-0.737c0.201-0.223,0.458-0.335,0.771-0.335h2.145
			c0.312,0,0.569,0.112,0.771,0.335c0.201,0.224,0.301,0.469,0.301,0.737v2.278c0,0.983,0.336,1.809,1.006,2.479
			s1.474,1.005,2.411,1.005c0.938,0,1.742-0.335,2.412-1.005s1.005-1.496,1.005-2.479v-3.35c0-0.357-0.011-0.58-0.033-0.67
			c-0.022-0.089-0.078-0.223-0.167-0.402L60.18,16.666c-0.312-0.58-0.559-1.027-0.737-1.34c-0.179-0.312-0.301-0.603-0.368-0.871
			s-0.112-0.558-0.134-0.871c-0.023-0.312-0.033-0.714-0.033-1.206V8.961c0-1.072,0.2-2.065,0.603-2.981
			c0.402-0.915,0.96-1.73,1.675-2.445c0.714-0.714,1.529-1.273,2.445-1.675c0.915-0.402,1.91-0.603,2.981-0.603
			c1.072,0,2.066,0.201,2.982,0.603c0.914,0.402,1.73,0.961,2.445,1.675c0.714,0.715,1.272,1.53,1.675,2.445
			c0.402,0.916,0.603,1.91,0.603,2.981v2.278c0,0.715-0.357,1.072-1.071,1.072h-2.145C70.386,12.311,70.028,11.954,70.028,11.239z"
			/>
		<path fill="#FFFFFF" d="M86.979,1.256c1.072,0,2.065,0.201,2.981,0.603c0.915,0.402,1.73,0.961,2.445,1.675
			c0.715,0.715,1.273,1.541,1.676,2.479c0.401,0.938,0.603,1.943,0.603,3.015v29.078c0,1.072-0.201,2.077-0.603,3.015
			c-0.402,0.938-0.961,1.753-1.676,2.445c-0.715,0.693-1.53,1.24-2.445,1.642c-0.916,0.402-1.909,0.603-2.981,0.603
			s-2.077-0.201-3.015-0.603c-0.938-0.402-1.766-0.948-2.479-1.642c-0.715-0.692-1.272-1.507-1.675-2.445s-0.603-1.943-0.603-3.015
			V9.028c0-1.072,0.2-2.077,0.603-3.015s0.96-1.764,1.675-2.479c0.714-0.714,1.541-1.273,2.479-1.675
			C84.902,1.457,85.907,1.256,86.979,1.256z M90.396,9.028c0-0.982-0.335-1.809-1.005-2.479c-0.67-0.67-1.474-1.005-2.412-1.005
			c-0.982,0-1.809,0.335-2.479,1.005c-0.67,0.67-1.005,1.497-1.005,2.479v29.078c0,0.938,0.335,1.742,1.005,2.412
			s1.496,1.005,2.479,1.005c0.938,0,1.742-0.335,2.412-1.005s1.005-1.474,1.005-2.412V9.028z"/>
		<path fill="#FFFFFF" d="M119.14,1.256c1.072,0,2.077,0.201,3.015,0.603c0.938,0.402,1.765,0.961,2.479,1.675
			c0.714,0.715,1.272,1.541,1.675,2.479s0.604,1.943,0.604,3.015v35.711c0,0.313-0.112,0.569-0.335,0.771
			c-0.225,0.201-0.47,0.301-0.737,0.301h-2.145c-0.715,0-1.071-0.357-1.071-1.072V9.028c0-0.982-0.335-1.809-1.005-2.479
			c-0.67-0.67-1.497-1.005-2.479-1.005c-0.938,0-1.742,0.335-2.412,1.005c-0.67,0.67-1.005,1.497-1.005,2.479v35.711
			c0,0.715-0.358,1.072-1.072,1.072h-2.144c-0.715,0-1.072-0.357-1.072-1.072V9.028c0-0.982-0.335-1.809-1.005-2.479
			c-0.67-0.67-1.474-1.005-2.412-1.005c-0.982,0-1.809,0.335-2.479,1.005c-0.67,0.67-1.005,1.497-1.005,2.479v35.711
			c0,0.715-0.358,1.072-1.072,1.072h-2.145c-0.268,0-0.514-0.101-0.736-0.301c-0.225-0.201-0.335-0.458-0.335-0.771V9.028
			c0-1.072,0.2-2.077,0.603-3.015s0.96-1.764,1.675-2.479c0.714-0.714,1.541-1.273,2.479-1.675c0.938-0.402,1.942-0.603,3.015-0.603
			s2.088,0.213,3.049,0.637c0.96,0.425,1.797,1.017,2.513,1.775c0.714-0.759,1.551-1.351,2.512-1.775
			C117.051,1.469,118.067,1.256,119.14,1.256z"/>
		<path fill="#FFFFFF" d="M136.761,5.544v15.879h5.828c0.715,0,1.072,0.358,1.072,1.072v2.144c0,0.268-0.101,0.514-0.302,0.737
			c-0.2,0.224-0.458,0.335-0.771,0.335h-5.828v15.812h5.828c0.312,0,0.57,0.112,0.771,0.335c0.201,0.224,0.302,0.469,0.302,0.737
			v2.144c0,0.715-0.357,1.072-1.072,1.072h-7.973c-0.626,0-1.139-0.201-1.541-0.603s-0.603-0.915-0.603-1.541V3.4
			c0-0.58,0.2-1.083,0.603-1.507c0.402-0.424,0.915-0.637,1.541-0.637h7.973c0.312,0,0.57,0.112,0.771,0.335
			c0.201,0.224,0.302,0.469,0.302,0.737v2.144c0,0.715-0.357,1.072-1.072,1.072H136.761z"/>
		<path fill="#FFFFFF" d="M175.821,2.395v32.227c0,1.519-0.425,2.948-1.273,4.288l-3.617,6.365
			c-0.225,0.358-0.536,0.536-0.938,0.536h-3.752c-0.402,0-0.715-0.178-0.938-0.536l-2.747-4.891l-2.814,4.891
			c-0.224,0.358-0.536,0.536-0.938,0.536h-3.686c-0.492,0-0.804-0.178-0.938-0.536l-3.618-6.365c-0.895-1.295-1.34-2.724-1.34-4.288
			V2.395c0-0.714,0.356-1.072,1.071-1.072h2.145c0.714,0,1.072,0.358,1.072,1.072v32.227c0,0.402,0.066,0.76,0.2,1.072l3.217,5.762
			l3.282-5.762c0.135-0.312,0.201-0.67,0.201-1.072V2.395c0-0.714,0.357-1.072,1.072-1.072h2.144c0.714,0,1.072,0.358,1.072,1.072
			v32.227c0,0.402,0.067,0.76,0.201,1.072l3.216,5.762l3.283-5.762c0.044-0.178,0.077-0.345,0.101-0.502
			c0.021-0.156,0.033-0.345,0.033-0.569V2.395c0-0.312,0.111-0.569,0.335-0.771c0.223-0.201,0.469-0.301,0.737-0.301h2.144
			C175.463,1.323,175.821,1.681,175.821,2.395z"/>
		<path fill="#FFFFFF" d="M196.491,1.591c0.201,0.224,0.301,0.469,0.301,0.737v42.411c0,0.715-0.357,1.072-1.071,1.072h-2.077
			c-0.715,0-1.072-0.357-1.072-1.072V25.711h-6.9v19.028c0,0.715-0.358,1.072-1.072,1.072h-2.145c-0.715,0-1.071-0.357-1.071-1.072
			V2.395V2.328c0-0.268,0.101-0.513,0.301-0.737c0.201-0.223,0.458-0.335,0.771-0.335h2.145c0.312,0,0.569,0.112,0.771,0.335
			c0.201,0.224,0.302,0.469,0.302,0.737v19.095h6.9V2.328c0-0.268,0.101-0.513,0.302-0.737c0.201-0.223,0.457-0.335,0.771-0.335
			h2.077C196.032,1.256,196.29,1.368,196.491,1.591z"/>
		<path fill="#FFFFFF" d="M206.642,5.544v15.879h5.828c0.715,0,1.072,0.358,1.072,1.072v2.144c0,0.268-0.101,0.514-0.302,0.737
			c-0.2,0.224-0.458,0.335-0.771,0.335h-5.828v15.812h5.828c0.312,0,0.57,0.112,0.771,0.335c0.201,0.224,0.302,0.469,0.302,0.737
			v2.144c0,0.715-0.357,1.072-1.072,1.072h-7.973c-0.626,0-1.139-0.201-1.541-0.603s-0.603-0.915-0.603-1.541V3.4
			c0-0.58,0.2-1.083,0.603-1.507c0.402-0.424,0.915-0.637,1.541-0.637h7.973c0.312,0,0.57,0.112,0.771,0.335
			c0.201,0.224,0.302,0.469,0.302,0.737v2.144c0,0.715-0.357,1.072-1.072,1.072H206.642z"/>
		<path fill="#FFFFFF" d="M234.178,17.939c0,2.234-0.781,4.087-2.345,5.561c1.563,1.474,2.345,3.35,2.345,5.628v15.611
			c0,0.715-0.357,1.072-1.071,1.072h-2.145c-0.715,0-1.071-0.357-1.071-1.072V29.128c0-0.982-0.336-1.809-1.006-2.479
			s-1.474-1.005-2.411-1.005h-3.417v19.095c0,0.313-0.112,0.569-0.336,0.771c-0.224,0.201-0.469,0.301-0.736,0.301h-2.145
			c-0.715,0-1.071-0.357-1.071-1.072V3.4c0-0.58,0.2-1.083,0.603-1.507c0.402-0.424,0.915-0.637,1.541-0.637h5.562
			c1.071,0,2.076,0.201,3.015,0.603c0.938,0.402,1.752,0.961,2.445,1.675c0.692,0.715,1.239,1.541,1.642,2.479
			s0.603,1.943,0.603,3.015V17.939z M229.891,9.028c0-0.982-0.336-1.809-1.006-2.479c-0.67-0.67-1.474-1.005-2.411-1.005h-3.417
			v15.812h3.417c0.938,0,1.741-0.335,2.411-1.005s1.006-1.474,1.006-2.412V9.028z"/>
		<path fill="#FFFFFF" d="M244.027,5.544v15.879h5.828c0.715,0,1.072,0.358,1.072,1.072v2.144c0,0.268-0.101,0.514-0.302,0.737
			c-0.2,0.224-0.458,0.335-0.771,0.335h-5.828v15.812h5.828c0.312,0,0.57,0.112,0.771,0.335c0.201,0.224,0.302,0.469,0.302,0.737
			v2.144c0,0.715-0.357,1.072-1.072,1.072h-7.973c-0.626,0-1.139-0.201-1.541-0.603s-0.603-0.915-0.603-1.541V3.4
			c0-0.58,0.2-1.083,0.603-1.507c0.402-0.424,0.915-0.637,1.541-0.637h7.973c0.312,0,0.57,0.112,0.771,0.335
			c0.201,0.224,0.302,0.469,0.302,0.737v2.144c0,0.715-0.357,1.072-1.072,1.072H244.027z"/>
		<path fill="#FFFFFF" d="M260.777,40.317v13.4c0,0.714-0.358,1.072-1.072,1.072h-2.145c-0.715,0-1.071-0.358-1.071-1.072v-13.4
			c0-0.714,0.356-1.072,1.071-1.072h2.145C260.419,39.245,260.777,39.603,260.777,40.317z"/>
		<path fill="#FFFFFF" d="M286.437,11.239V8.961c0-0.938-0.335-1.742-1.005-2.412c-0.67-0.67-1.474-1.005-2.412-1.005
			c-0.938,0-1.741,0.335-2.411,1.005c-0.67,0.67-1.006,1.474-1.006,2.412v3.417c0,0.402,0.011,0.648,0.034,0.737
			c0.021,0.09,0.077,0.224,0.167,0.402l9.648,17.018c0.312,0.581,0.558,1.028,0.737,1.34c0.178,0.313,0.301,0.603,0.368,0.871
			c0.066,0.268,0.111,0.547,0.134,0.837c0.022,0.291,0.033,0.682,0.033,1.172v3.35c0,1.072-0.2,2.077-0.603,3.015
			s-0.961,1.753-1.675,2.445c-0.715,0.693-1.531,1.24-2.445,1.642c-0.916,0.402-1.91,0.603-2.982,0.603
			c-1.071,0-2.066-0.201-2.981-0.603c-0.916-0.402-1.731-0.948-2.445-1.642c-0.715-0.692-1.272-1.507-1.675-2.445
			s-0.603-1.943-0.603-3.015v-2.278c0-0.268,0.1-0.513,0.301-0.737c0.201-0.223,0.458-0.335,0.771-0.335h2.145
			c0.312,0,0.569,0.112,0.771,0.335c0.201,0.224,0.301,0.469,0.301,0.737v2.278c0,0.983,0.336,1.809,1.006,2.479
			s1.474,1.005,2.411,1.005c0.938,0,1.742-0.335,2.412-1.005s1.005-1.496,1.005-2.479v-3.35c0-0.357-0.011-0.58-0.033-0.67
			c-0.022-0.089-0.078-0.223-0.167-0.402l-9.648-17.018c-0.312-0.58-0.559-1.027-0.737-1.34c-0.179-0.312-0.301-0.603-0.368-0.871
			s-0.112-0.558-0.134-0.871c-0.023-0.312-0.033-0.714-0.033-1.206V8.961c0-1.072,0.2-2.065,0.603-2.981
			c0.402-0.915,0.96-1.73,1.675-2.445c0.714-0.714,1.529-1.273,2.445-1.675c0.915-0.402,1.91-0.603,2.981-0.603
			c1.072,0,2.066,0.201,2.982,0.603c0.914,0.402,1.73,0.961,2.445,1.675c0.714,0.715,1.272,1.53,1.675,2.445
			c0.402,0.916,0.603,1.91,0.603,2.981v2.278c0,0.715-0.357,1.072-1.071,1.072h-2.145C286.794,12.311,286.437,11.954,286.437,11.239
			z"/>
		<path fill="#FFFFFF" d="M303.388,1.256c1.072,0,2.065,0.201,2.981,0.603c0.915,0.402,1.73,0.961,2.445,1.675
			c0.715,0.715,1.273,1.541,1.676,2.479c0.401,0.938,0.603,1.943,0.603,3.015v29.078c0,1.072-0.201,2.077-0.603,3.015
			c-0.402,0.938-0.961,1.753-1.676,2.445c-0.715,0.693-1.53,1.24-2.445,1.642c-0.916,0.402-1.909,0.603-2.981,0.603
			s-2.077-0.201-3.015-0.603c-0.938-0.402-1.766-0.948-2.479-1.642c-0.715-0.692-1.272-1.507-1.675-2.445s-0.603-1.943-0.603-3.015
			V9.028c0-1.072,0.2-2.077,0.603-3.015s0.96-1.764,1.675-2.479c0.714-0.714,1.541-1.273,2.479-1.675
			C301.311,1.457,302.315,1.256,303.388,1.256z M306.805,9.028c0-0.982-0.335-1.809-1.005-2.479c-0.67-0.67-1.474-1.005-2.412-1.005
			c-0.982,0-1.809,0.335-2.479,1.005c-0.67,0.67-1.005,1.497-1.005,2.479v29.078c0,0.938,0.335,1.742,1.005,2.412
			s1.496,1.005,2.479,1.005c0.938,0,1.742-0.335,2.412-1.005s1.005-1.474,1.005-2.412V9.028z"/>
		<path fill="#FFFFFF" d="M335.548,1.256c1.072,0,2.077,0.201,3.015,0.603c0.938,0.402,1.765,0.961,2.479,1.675
			c0.714,0.715,1.272,1.541,1.675,2.479s0.604,1.943,0.604,3.015v35.711c0,0.313-0.112,0.569-0.335,0.771
			c-0.225,0.201-0.47,0.301-0.737,0.301h-2.145c-0.715,0-1.071-0.357-1.071-1.072V9.028c0-0.982-0.335-1.809-1.005-2.479
			c-0.67-0.67-1.497-1.005-2.479-1.005c-0.938,0-1.742,0.335-2.412,1.005c-0.67,0.67-1.005,1.497-1.005,2.479v35.711
			c0,0.715-0.358,1.072-1.072,1.072h-2.144c-0.715,0-1.072-0.357-1.072-1.072V9.028c0-0.982-0.335-1.809-1.005-2.479
			c-0.67-0.67-1.474-1.005-2.412-1.005c-0.982,0-1.809,0.335-2.479,1.005c-0.67,0.67-1.005,1.497-1.005,2.479v35.711
			c0,0.715-0.358,1.072-1.072,1.072h-2.145c-0.268,0-0.514-0.101-0.736-0.301c-0.225-0.201-0.335-0.458-0.335-0.771V9.028
			c0-1.072,0.2-2.077,0.603-3.015s0.96-1.764,1.675-2.479c0.714-0.714,1.541-1.273,2.479-1.675c0.938-0.402,1.942-0.603,3.015-0.603
			s2.088,0.213,3.049,0.637c0.96,0.425,1.797,1.017,2.513,1.775c0.714-0.759,1.551-1.351,2.512-1.775
			C333.459,1.469,334.476,1.256,335.548,1.256z"/>
		<path fill="#FFFFFF" d="M353.169,5.544v15.879h5.828c0.715,0,1.072,0.358,1.072,1.072v2.144c0,0.268-0.101,0.514-0.302,0.737
			c-0.2,0.224-0.458,0.335-0.771,0.335h-5.828v15.812h5.828c0.312,0,0.57,0.112,0.771,0.335c0.201,0.224,0.302,0.469,0.302,0.737
			v2.144c0,0.715-0.357,1.072-1.072,1.072h-7.973c-0.626,0-1.139-0.201-1.541-0.603s-0.603-0.915-0.603-1.541V3.4
			c0-0.58,0.2-1.083,0.603-1.507c0.402-0.424,0.915-0.637,1.541-0.637h7.973c0.312,0,0.57,0.112,0.771,0.335
			c0.201,0.224,0.302,0.469,0.302,0.737v2.144c0,0.715-0.357,1.072-1.072,1.072H353.169z"/>
		<path fill="#FFFFFF" d="M381.174,1.256c1.652,0,3.06,0.581,4.221,1.742c1.161,1.162,1.742,2.569,1.742,4.221v1.273
			c0,0.224-0.111,0.335-0.335,0.335h-0.134c-0.179,0-0.268-0.111-0.268-0.335V7.219c0-1.429-0.515-2.657-1.541-3.685
			c-1.028-1.027-2.257-1.541-3.686-1.541c-1.43,0-2.658,0.514-3.685,1.541c-1.028,1.028-1.541,2.256-1.541,3.685v32.696
			c0,1.43,0.513,2.658,1.541,3.685c1.026,1.028,2.255,1.541,3.685,1.541c1.429,0,2.657-0.513,3.686-1.541
			c1.026-1.027,1.541-2.255,1.541-3.685v-16.08h-3.149c-0.179,0-0.268-0.089-0.268-0.268v-0.201c0-0.178,0.089-0.268,0.268-0.268
			h3.551c0.224,0,0.335,0.09,0.335,0.268v16.549c0,1.653-0.581,3.048-1.742,4.188s-2.568,1.708-4.221,1.708
			c-1.653,0-3.049-0.569-4.188-1.708s-1.708-2.535-1.708-4.188V7.219c0-1.652,0.569-3.059,1.708-4.221
			C378.125,1.837,379.521,1.256,381.174,1.256z"/>
		<path fill="#FFFFFF" d="M396.248,7.219c0-1.652,0.58-3.059,1.741-4.221c1.161-1.161,2.568-1.742,4.222-1.742
			c0.804,0,1.562,0.157,2.277,0.469c0.715,0.313,1.341,0.737,1.876,1.273c0.536,0.536,0.96,1.172,1.273,1.91
			c0.312,0.737,0.469,1.507,0.469,2.312v38.324c0,0.179-0.09,0.268-0.268,0.268h-0.134c-0.225,0-0.335-0.089-0.335-0.268V23.835
			h-10.386v21.708c0,0.179-0.111,0.268-0.335,0.268h-0.134c-0.179,0-0.268-0.089-0.268-0.268V7.219z M407.37,23.098V7.219
			c0-0.714-0.135-1.396-0.402-2.044c-0.269-0.646-0.637-1.206-1.105-1.675c-0.469-0.469-1.017-0.837-1.642-1.105
			c-0.626-0.268-1.296-0.402-2.01-0.402c-1.431,0-2.658,0.514-3.686,1.541c-1.027,1.028-1.541,2.256-1.541,3.685v15.879H407.37z"/>
		<path fill="#FFFFFF" d="M428.81,5.209c0.402-1.161,1.105-2.11,2.11-2.848c1.005-0.737,2.155-1.105,3.451-1.105
			c1.651,0,3.059,0.581,4.221,1.742c1.161,1.162,1.742,2.569,1.742,4.221v38.324c0,0.179-0.112,0.268-0.335,0.268h-0.134
			c-0.18,0-0.269-0.089-0.269-0.268V7.219c0-1.429-0.514-2.657-1.541-3.685c-1.028-1.027-2.256-1.541-3.685-1.541
			c-1.431,0-2.658,0.514-3.686,1.541c-1.027,1.028-1.541,2.256-1.541,3.685v38.324c0,0.179-0.09,0.268-0.268,0.268h-0.134
			c-0.18,0-0.269-0.089-0.269-0.268V7.219c0-1.429-0.514-2.657-1.541-3.685c-1.028-1.027-2.256-1.541-3.685-1.541
			c-1.431,0-2.658,0.514-3.686,1.541c-1.027,1.028-1.541,2.256-1.541,3.685v38.324c0,0.179-0.09,0.268-0.268,0.268h-0.134
			c-0.225,0-0.335-0.089-0.335-0.268V7.219c0-1.652,0.58-3.059,1.741-4.221c1.161-1.161,2.568-1.742,4.222-1.742
			c1.295,0,2.445,0.369,3.45,1.105C427.704,3.099,428.408,4.048,428.81,5.209z"/>
		<path fill="#FFFFFF" d="M456.815,1.993h-6.566v21.172h6.566c0.178,0,0.268,0.09,0.268,0.268v0.201c0,0.179-0.09,0.268-0.268,0.268
			h-6.566v21.239h6.566c0.178,0,0.268,0.09,0.268,0.268v0.134c0,0.179-0.09,0.268-0.268,0.268h-6.968
			c-0.225,0-0.335-0.111-0.335-0.335V1.658c0-0.268,0.11-0.402,0.335-0.402h6.968c0.178,0,0.268,0.112,0.268,0.335v0.134
			C457.083,1.904,456.993,1.993,456.815,1.993z"/>
		<path fill="#FFFFFF" d="M463.583,39.915v-1.273c0-0.223,0.11-0.335,0.335-0.335h0.134c0.178,0,0.268,0.112,0.268,0.335v1.273
			c0,1.43,0.514,2.658,1.541,3.685c1.027,1.028,2.255,1.541,3.686,1.541c1.429,0,2.656-0.513,3.685-1.541
			c1.027-1.027,1.541-2.255,1.541-3.685v-5.092c0-0.446-0.012-0.804-0.033-1.072c-0.023-0.268-0.146-0.58-0.369-0.938l-9.715-17.018
			c-0.268-0.491-0.48-0.881-0.636-1.172c-0.157-0.29-0.258-0.546-0.302-0.771c-0.045-0.134-0.079-0.302-0.101-0.502
			c-0.023-0.201-0.033-0.524-0.033-0.972V7.219c0-1.652,0.579-3.059,1.741-4.221c1.161-1.161,2.568-1.742,4.222-1.742
			c1.651,0,3.059,0.581,4.221,1.742c1.161,1.162,1.742,2.569,1.742,4.221v1.273c0,0.224-0.112,0.335-0.335,0.335h-0.134
			c-0.18,0-0.269-0.111-0.269-0.335V7.219c0-1.429-0.514-2.657-1.541-3.685c-1.028-1.027-2.256-1.541-3.685-1.541
			c-1.431,0-2.658,0.514-3.686,1.541c-1.027,1.028-1.541,2.256-1.541,3.685v5.159c0,0.447,0.011,0.793,0.034,1.039
			c0.021,0.246,0.144,0.569,0.368,0.972l9.715,17.018c0.268,0.492,0.479,0.882,0.637,1.172c0.156,0.291,0.256,0.525,0.302,0.704
			c0.089,0.179,0.134,0.693,0.134,1.541v5.092c0,1.653-0.581,3.048-1.742,4.188c-1.162,1.139-2.569,1.708-4.221,1.708
			c-1.653,0-3.061-0.569-4.222-1.708C464.162,42.963,463.583,41.568,463.583,39.915z"/>
		<path fill="#FFFFFF" d="M501.303,1.256c1.072,0,2.065,0.201,2.981,0.603c0.915,0.402,1.73,0.961,2.445,1.675
			c0.715,0.715,1.273,1.541,1.676,2.479c0.401,0.938,0.603,1.943,0.603,3.015v35.711c0,0.715-0.358,1.072-1.072,1.072h-2.144
			c-0.715,0-1.072-0.357-1.072-1.072V25.644h-6.9v19.095c0,0.715-0.358,1.072-1.072,1.072h-2.145c-0.268,0-0.514-0.101-0.736-0.301
			c-0.225-0.201-0.335-0.458-0.335-0.771V9.028c0-1.072,0.2-2.077,0.603-3.015s0.96-1.764,1.675-2.479
			c0.714-0.714,1.541-1.273,2.479-1.675C499.226,1.457,500.23,1.256,501.303,1.256z M504.72,21.356V9.028
			c0-0.982-0.335-1.809-1.005-2.479c-0.67-0.67-1.474-1.005-2.412-1.005c-0.982,0-1.809,0.335-2.479,1.005
			c-0.67,0.67-1.005,1.497-1.005,2.479v12.328H504.72z"/>
		<path fill="#FFFFFF" d="M529.644,17.939c0,2.234-0.781,4.087-2.345,5.561c1.563,1.474,2.345,3.35,2.345,5.628v15.611
			c0,0.715-0.357,1.072-1.071,1.072h-2.145c-0.715,0-1.071-0.357-1.071-1.072V29.128c0-0.982-0.336-1.809-1.006-2.479
			s-1.474-1.005-2.411-1.005h-3.417v19.095c0,0.313-0.112,0.569-0.336,0.771c-0.224,0.201-0.469,0.301-0.736,0.301h-2.145
			c-0.715,0-1.071-0.357-1.071-1.072V3.4c0-0.58,0.2-1.083,0.603-1.507c0.402-0.424,0.915-0.637,1.541-0.637h5.562
			c1.071,0,2.076,0.201,3.015,0.603c0.938,0.402,1.752,0.961,2.445,1.675c0.692,0.715,1.239,1.541,1.642,2.479
			s0.603,1.943,0.603,3.015V17.939z M525.356,9.028c0-0.982-0.336-1.809-1.006-2.479c-0.67-0.67-1.474-1.005-2.411-1.005h-3.417
			v15.812h3.417c0.938,0,1.741-0.335,2.411-1.005s1.006-1.474,1.006-2.412V9.028z"/>
		<path fill="#FFFFFF" d="M539.493,5.544v15.879h5.828c0.715,0,1.072,0.358,1.072,1.072v2.144c0,0.268-0.101,0.514-0.302,0.737
			c-0.2,0.224-0.458,0.335-0.771,0.335h-5.828v15.812h5.828c0.312,0,0.57,0.112,0.771,0.335c0.201,0.224,0.302,0.469,0.302,0.737
			v2.144c0,0.715-0.357,1.072-1.072,1.072h-7.973c-0.626,0-1.139-0.201-1.541-0.603s-0.603-0.915-0.603-1.541V3.4
			c0-0.58,0.2-1.083,0.603-1.507c0.402-0.424,0.915-0.637,1.541-0.637h7.973c0.312,0,0.57,0.112,0.771,0.335
			c0.201,0.224,0.302,0.469,0.302,0.737v2.144c0,0.715-0.357,1.072-1.072,1.072H539.493z"/>
		<path fill="#FFFFFF" d="M89.427,82.795v32.227c0,1.519-0.425,2.948-1.273,4.288l-3.617,6.365
			c-0.225,0.358-0.536,0.536-0.938,0.536h-3.752c-0.402,0-0.715-0.178-0.938-0.536l-2.747-4.891l-2.814,4.891
			c-0.224,0.358-0.536,0.536-0.938,0.536h-3.686c-0.492,0-0.804-0.178-0.938-0.536l-3.618-6.365c-0.895-1.295-1.34-2.724-1.34-4.288
			V82.795c0-0.714,0.356-1.072,1.071-1.072h2.145c0.714,0,1.072,0.358,1.072,1.072v32.227c0,0.402,0.066,0.76,0.2,1.072l3.217,5.762
			l3.282-5.762c0.135-0.312,0.201-0.67,0.201-1.072V82.795c0-0.714,0.357-1.072,1.072-1.072h2.144c0.714,0,1.072,0.358,1.072,1.072
			v32.227c0,0.402,0.067,0.76,0.201,1.072l3.216,5.762l3.283-5.762c0.044-0.178,0.077-0.345,0.101-0.502
			c0.021-0.156,0.033-0.345,0.033-0.569V82.795c0-0.312,0.111-0.569,0.335-0.771c0.223-0.201,0.469-0.301,0.737-0.301h2.144
			C89.068,81.723,89.427,82.081,89.427,82.795z"/>
		<path fill="#FFFFFF" d="M102.76,81.656c1.072,0,2.065,0.201,2.981,0.603c0.915,0.402,1.73,0.961,2.445,1.675
			c0.715,0.715,1.273,1.541,1.676,2.479c0.401,0.938,0.603,1.943,0.603,3.015v35.711c0,0.715-0.358,1.072-1.072,1.072h-2.144
			c-0.715,0-1.072-0.357-1.072-1.072v-19.095h-6.9v19.095c0,0.715-0.358,1.072-1.072,1.072H96.06c-0.268,0-0.514-0.101-0.736-0.301
			c-0.225-0.201-0.335-0.458-0.335-0.771V89.428c0-1.072,0.2-2.077,0.603-3.015s0.96-1.764,1.675-2.479
			c0.714-0.714,1.541-1.273,2.479-1.675C100.683,81.857,101.688,81.656,102.76,81.656z M106.177,101.756V89.428
			c0-0.982-0.335-1.809-1.005-2.479c-0.67-0.67-1.474-1.005-2.412-1.005c-0.982,0-1.809,0.335-2.479,1.005
			c-0.67,0.67-1.005,1.497-1.005,2.479v12.328H106.177z"/>
		<path fill="#FFFFFF" d="M120.314,125.139c0,0.715-0.358,1.072-1.072,1.072h-2.145c-0.715,0-1.071-0.357-1.071-1.072V82.795v-0.067
			c0-0.268,0.101-0.513,0.301-0.737c0.201-0.223,0.458-0.335,0.771-0.335h2.145c0.312,0,0.569,0.112,0.771,0.335
			c0.201,0.224,0.302,0.469,0.302,0.737V125.139z"/>
		<path fill="#FFFFFF" d="M137.365,81.991c0.201,0.224,0.302,0.469,0.302,0.737v2.144c0,0.715-0.358,1.072-1.072,1.072h-3.015
			v39.195c0,0.715-0.358,1.072-1.072,1.072h-2.145c-0.715,0-1.071-0.357-1.071-1.072V85.944h-3.016
			c-0.715,0-1.071-0.357-1.071-1.072v-2.144c0-0.268,0.1-0.513,0.301-0.737c0.201-0.223,0.458-0.335,0.771-0.335h10.318
			C136.906,81.656,137.164,81.768,137.365,81.991z"/>
		<path fill="#FFFFFF" d="M145.841,125.139c0,0.715-0.358,1.072-1.072,1.072h-2.145c-0.715,0-1.071-0.357-1.071-1.072V82.795v-0.067
			c0-0.268,0.101-0.513,0.301-0.737c0.201-0.223,0.458-0.335,0.771-0.335h2.145c0.312,0,0.569,0.112,0.771,0.335
			c0.201,0.224,0.302,0.469,0.302,0.737V125.139z"/>
		<path fill="#FFFFFF" d="M159.173,81.656c1.072,0,2.065,0.201,2.981,0.603c0.915,0.402,1.73,0.961,2.445,1.675
			c0.715,0.715,1.273,1.541,1.676,2.479c0.401,0.938,0.603,1.943,0.603,3.015v35.711c0,0.715-0.358,1.072-1.072,1.072h-2.144
			c-0.715,0-1.072-0.357-1.072-1.072V89.428c0-0.982-0.335-1.809-1.005-2.479c-0.67-0.67-1.474-1.005-2.412-1.005
			c-0.982,0-1.809,0.335-2.479,1.005c-0.67,0.67-1.005,1.497-1.005,2.479v35.711c0,0.715-0.358,1.072-1.072,1.072h-2.145
			c-0.715,0-1.071-0.357-1.071-1.072V89.428c0-1.072,0.2-2.077,0.603-3.015s0.96-1.764,1.675-2.479
			c0.714-0.714,1.541-1.273,2.479-1.675C157.096,81.857,158.101,81.656,159.173,81.656z"/>
		<path fill="#FFFFFF" d="M183.562,91.639v-2.278c0-0.938-0.335-1.742-1.006-2.412c-0.67-0.67-1.474-1.005-2.411-1.005
			c-0.938,0-1.742,0.335-2.412,1.005c-0.67,0.67-1.005,1.474-1.005,2.412v29.145c0,0.938,0.335,1.742,1.005,2.412
			s1.474,1.005,2.412,1.005c0.938,0,1.741-0.335,2.411-1.005c0.671-0.67,1.006-1.474,1.006-2.412v-12.529h-2.346
			c-0.715,0-1.071-0.357-1.071-1.072v-2.144c0-0.714,0.356-1.072,1.071-1.072h5.562c0.714,0,1.071,0.358,1.071,1.072v15.745
			c0,1.072-0.2,2.066-0.603,2.981c-0.402,0.916-0.961,1.731-1.675,2.446c-0.715,0.715-1.53,1.273-2.445,1.675
			c-0.916,0.402-1.91,0.603-2.981,0.603c-1.072,0-2.067-0.201-2.982-0.603c-0.916-0.402-1.731-0.96-2.445-1.675
			c-0.715-0.714-1.272-1.53-1.675-2.446c-0.402-0.915-0.603-1.909-0.603-2.981V89.361c0-1.072,0.2-2.065,0.603-2.981
			c0.402-0.915,0.96-1.73,1.675-2.445c0.714-0.714,1.529-1.273,2.445-1.675c0.915-0.402,1.91-0.603,2.982-0.603
			c1.071,0,2.065,0.201,2.981,0.603c0.915,0.402,1.73,0.961,2.445,1.675c0.714,0.715,1.272,1.53,1.675,2.445
			c0.402,0.916,0.603,1.91,0.603,2.981v2.278c0,0.715-0.357,1.072-1.071,1.072h-2.145C183.918,92.711,183.562,92.354,183.562,91.639
			z"/>
		<path fill="#FFFFFF" d="M214.547,81.991c0.201,0.224,0.302,0.469,0.302,0.737v2.144c0,0.715-0.358,1.072-1.072,1.072h-3.015
			v39.195c0,0.715-0.358,1.072-1.072,1.072h-2.145c-0.715,0-1.071-0.357-1.071-1.072V85.944h-3.016
			c-0.715,0-1.071-0.357-1.071-1.072v-2.144c0-0.268,0.1-0.513,0.301-0.737c0.201-0.223,0.458-0.335,0.771-0.335h10.318
			C214.088,81.656,214.346,81.768,214.547,81.991z"/>
		<path fill="#FFFFFF" d="M225.501,81.656c1.072,0,2.065,0.201,2.981,0.603c0.915,0.402,1.73,0.961,2.445,1.675
			c0.715,0.715,1.273,1.541,1.676,2.479c0.401,0.938,0.603,1.943,0.603,3.015v29.078c0,1.072-0.201,2.077-0.603,3.015
			c-0.402,0.938-0.961,1.753-1.676,2.445c-0.715,0.693-1.53,1.24-2.445,1.642c-0.916,0.402-1.909,0.603-2.981,0.603
			s-2.077-0.201-3.015-0.603c-0.938-0.402-1.766-0.948-2.479-1.642c-0.715-0.692-1.272-1.507-1.675-2.445s-0.603-1.943-0.603-3.015
			V89.428c0-1.072,0.2-2.077,0.603-3.015s0.96-1.764,1.675-2.479c0.714-0.714,1.541-1.273,2.479-1.675
			C223.424,81.857,224.429,81.656,225.501,81.656z M228.918,89.428c0-0.982-0.335-1.809-1.005-2.479
			c-0.67-0.67-1.474-1.005-2.412-1.005c-0.982,0-1.809,0.335-2.479,1.005c-0.67,0.67-1.005,1.497-1.005,2.479v29.078
			c0,0.938,0.335,1.742,1.005,2.412s1.496,1.005,2.479,1.005c0.938,0,1.742-0.335,2.412-1.005s1.005-1.474,1.005-2.412V89.428z"/>
		<path fill="#FFFFFF" d="M263.892,98.339c0,1.117-0.213,2.156-0.637,3.116c-0.425,0.961-1.017,1.798-1.775,2.512
			c0.759,0.715,1.351,1.541,1.775,2.479c0.424,0.938,0.637,1.966,0.637,3.082v8.978c0,1.072-0.201,2.066-0.603,2.981
			c-0.402,0.916-0.961,1.731-1.676,2.446c-0.715,0.715-1.53,1.273-2.445,1.675c-0.916,0.402-1.909,0.603-2.981,0.603h-5.628
			c-0.581,0-1.083-0.201-1.508-0.603s-0.636-0.915-0.636-1.541V83.8c0-0.58,0.211-1.083,0.636-1.507
			c0.425-0.424,0.927-0.637,1.508-0.637h5.628c1.072,0,2.065,0.201,2.981,0.603c0.915,0.402,1.73,0.961,2.445,1.675
			c0.715,0.715,1.273,1.541,1.676,2.479c0.401,0.938,0.603,1.943,0.603,3.015V98.339z M259.604,89.428
			c0-0.982-0.335-1.809-1.005-2.479c-0.67-0.67-1.474-1.005-2.412-1.005h-3.483v15.879h3.483c0.938,0,1.742-0.335,2.412-1.005
			s1.005-1.496,1.005-2.479V89.428z M259.604,109.528c0-0.938-0.335-1.742-1.005-2.412c-0.67-0.67-1.474-1.005-2.412-1.005h-3.483
			v15.812h3.483c0.938,0,1.742-0.335,2.412-1.005s1.005-1.474,1.005-2.412V109.528z"/>
		<path fill="#FFFFFF" d="M273.741,85.944v15.879h5.828c0.715,0,1.072,0.358,1.072,1.072v2.144c0,0.268-0.101,0.514-0.302,0.737
			c-0.2,0.224-0.458,0.335-0.771,0.335h-5.828v15.812h5.828c0.312,0,0.57,0.112,0.771,0.335c0.201,0.224,0.302,0.469,0.302,0.737
			v2.144c0,0.715-0.357,1.072-1.072,1.072h-7.973c-0.626,0-1.139-0.201-1.541-0.603s-0.603-0.915-0.603-1.541V83.8
			c0-0.58,0.2-1.083,0.603-1.507c0.402-0.424,0.915-0.637,1.541-0.637h7.973c0.312,0,0.57,0.112,0.771,0.335
			c0.201,0.224,0.302,0.469,0.302,0.737v2.144c0,0.715-0.357,1.072-1.072,1.072H273.741z"/>
		<path fill="#FFFFFF" d="M303.622,81.656c1.072,0,2.065,0.201,2.981,0.603c0.915,0.402,1.73,0.961,2.445,1.675
			c0.715,0.715,1.273,1.541,1.676,2.479c0.401,0.938,0.603,1.943,0.603,3.015v29.078c0,1.072-0.201,2.077-0.603,3.015
			c-0.402,0.938-0.961,1.753-1.676,2.445c-0.715,0.693-1.53,1.24-2.445,1.642c-0.916,0.402-1.909,0.603-2.981,0.603
			s-2.077-0.201-3.015-0.603c-0.938-0.402-1.766-0.948-2.479-1.642c-0.715-0.692-1.272-1.507-1.675-2.445s-0.603-1.943-0.603-3.015
			V89.428c0-1.072,0.2-2.077,0.603-3.015s0.96-1.764,1.675-2.479c0.714-0.714,1.541-1.273,2.479-1.675
			C301.545,81.857,302.55,81.656,303.622,81.656z M307.039,89.428c0-0.982-0.335-1.809-1.005-2.479
			c-0.67-0.67-1.474-1.005-2.412-1.005c-0.982,0-1.809,0.335-2.479,1.005c-0.67,0.67-1.005,1.497-1.005,2.479v29.078
			c0,0.938,0.335,1.742,1.005,2.412s1.496,1.005,2.479,1.005c0.938,0,1.742-0.335,2.412-1.005s1.005-1.474,1.005-2.412V89.428z"/>
		<path fill="#FFFFFF" d="M332.063,81.991c0.201,0.224,0.302,0.469,0.302,0.737v35.778c0,1.072-0.201,2.077-0.603,3.015
			c-0.402,0.938-0.961,1.753-1.676,2.445c-0.715,0.693-1.53,1.24-2.445,1.642c-0.916,0.402-1.909,0.603-2.981,0.603
			s-2.077-0.201-3.015-0.603c-0.938-0.402-1.766-0.948-2.479-1.642c-0.715-0.692-1.272-1.507-1.675-2.445s-0.603-1.943-0.603-3.015
			V82.728c0-0.268,0.11-0.513,0.335-0.737c0.223-0.223,0.469-0.335,0.736-0.335h2.145c0.312,0,0.569,0.112,0.771,0.335
			c0.201,0.224,0.302,0.469,0.302,0.737v35.778c0,0.938,0.335,1.742,1.005,2.412s1.496,1.005,2.479,1.005
			c0.938,0,1.742-0.335,2.412-1.005s1.005-1.474,1.005-2.412V82.728c0-0.268,0.101-0.513,0.302-0.737
			c0.201-0.223,0.457-0.335,0.771-0.335h2.144C331.605,81.656,331.863,81.768,332.063,81.991z"/>
		<path fill="#FFFFFF" d="M349.417,81.991c0.201,0.224,0.302,0.469,0.302,0.737v2.144c0,0.715-0.358,1.072-1.072,1.072h-3.015
			v39.195c0,0.715-0.358,1.072-1.072,1.072h-2.145c-0.715,0-1.071-0.357-1.071-1.072V85.944h-3.016
			c-0.715,0-1.071-0.357-1.071-1.072v-2.144c0-0.268,0.1-0.513,0.301-0.737c0.201-0.223,0.458-0.335,0.771-0.335h10.318
			C348.958,81.656,349.216,81.768,349.417,81.991z"/>
		<path fill="#FFFFFF" d="M372.028,81.656c1.072,0,2.065,0.201,2.981,0.603c0.915,0.402,1.73,0.961,2.445,1.675
			c0.715,0.715,1.273,1.541,1.676,2.479c0.401,0.938,0.603,1.943,0.603,3.015v29.078c0,1.072-0.201,2.077-0.603,3.015
			c-0.402,0.938-0.961,1.753-1.676,2.445c-0.715,0.693-1.53,1.24-2.445,1.642c-0.916,0.402-1.909,0.603-2.981,0.603
			s-2.077-0.201-3.015-0.603c-0.938-0.402-1.766-0.948-2.479-1.642c-0.715-0.692-1.272-1.507-1.675-2.445s-0.603-1.943-0.603-3.015
			V89.428c0-1.072,0.2-2.077,0.603-3.015s0.96-1.764,1.675-2.479c0.714-0.714,1.541-1.273,2.479-1.675
			C369.951,81.857,370.956,81.656,372.028,81.656z M375.445,89.428c0-0.982-0.335-1.809-1.005-2.479
			c-0.67-0.67-1.474-1.005-2.412-1.005c-0.982,0-1.809,0.335-2.479,1.005c-0.67,0.67-1.005,1.497-1.005,2.479v29.078
			c0,0.938,0.335,1.742,1.005,2.412s1.496,1.005,2.479,1.005c0.938,0,1.742-0.335,2.412-1.005s1.005-1.474,1.005-2.412V89.428z"/>
		<path fill="#FFFFFF" d="M389.583,85.944v15.879h5.828c0.715,0,1.072,0.358,1.072,1.072v2.144c0,0.268-0.101,0.514-0.302,0.737
			c-0.2,0.224-0.458,0.335-0.771,0.335h-5.828v19.028c0,0.715-0.358,1.072-1.072,1.072h-2.145c-0.715,0-1.071-0.357-1.071-1.072
			V83.8c0-0.58,0.211-1.083,0.636-1.507c0.425-0.424,0.927-0.637,1.508-0.637h7.973c0.312,0,0.57,0.112,0.771,0.335
			c0.201,0.224,0.302,0.469,0.302,0.737v2.144c0,0.715-0.357,1.072-1.072,1.072H389.583z"/>
		<path fill="#FFFFFF" d="M423.183,81.991c0.201,0.224,0.302,0.469,0.302,0.737v2.144c0,0.715-0.358,1.072-1.072,1.072h-3.015
			v39.195c0,0.715-0.358,1.072-1.072,1.072h-2.145c-0.715,0-1.071-0.357-1.071-1.072V85.944h-3.016
			c-0.715,0-1.071-0.357-1.071-1.072v-2.144c0-0.268,0.1-0.513,0.301-0.737c0.201-0.223,0.458-0.335,0.771-0.335h10.318
			C422.724,81.656,422.981,81.768,423.183,81.991z"/>
		<path fill="#FFFFFF" d="M443.483,81.991c0.201,0.224,0.301,0.469,0.301,0.737v42.411c0,0.715-0.357,1.072-1.071,1.072h-2.077
			c-0.715,0-1.072-0.357-1.072-1.072v-19.028h-6.9v19.028c0,0.715-0.358,1.072-1.072,1.072h-2.145c-0.715,0-1.071-0.357-1.071-1.072
			V82.795v-0.067c0-0.268,0.101-0.513,0.301-0.737c0.201-0.223,0.458-0.335,0.771-0.335h2.145c0.312,0,0.569,0.112,0.771,0.335
			c0.201,0.224,0.302,0.469,0.302,0.737v19.095h6.9V82.728c0-0.268,0.101-0.513,0.302-0.737c0.201-0.223,0.457-0.335,0.771-0.335
			h2.077C443.024,81.656,443.282,81.768,443.483,81.991z"/>
		<path fill="#FFFFFF" d="M453.633,85.944v15.879h5.828c0.715,0,1.072,0.358,1.072,1.072v2.144c0,0.268-0.101,0.514-0.302,0.737
			c-0.2,0.224-0.458,0.335-0.771,0.335h-5.828v15.812h5.828c0.312,0,0.57,0.112,0.771,0.335c0.201,0.224,0.302,0.469,0.302,0.737
			v2.144c0,0.715-0.357,1.072-1.072,1.072h-7.973c-0.626,0-1.139-0.201-1.541-0.603s-0.603-0.915-0.603-1.541V83.8
			c0-0.58,0.2-1.083,0.603-1.507c0.402-0.424,0.915-0.637,1.541-0.637h7.973c0.312,0,0.57,0.112,0.771,0.335
			c0.201,0.224,0.302,0.469,0.302,0.737v2.144c0,0.715-0.357,1.072-1.072,1.072H453.633z"/>
		<path fill="#FFFFFF" d="M491.219,98.339c0,1.117-0.213,2.156-0.637,3.116c-0.425,0.961-1.017,1.798-1.775,2.512
			c0.759,0.715,1.351,1.541,1.775,2.479c0.424,0.938,0.637,1.966,0.637,3.082v8.978c0,1.072-0.201,2.066-0.603,2.981
			c-0.402,0.916-0.961,1.731-1.676,2.446c-0.715,0.715-1.53,1.273-2.445,1.675c-0.916,0.402-1.909,0.603-2.981,0.603h-5.628
			c-0.581,0-1.083-0.201-1.508-0.603s-0.636-0.915-0.636-1.541V83.8c0-0.58,0.211-1.083,0.636-1.507
			c0.425-0.424,0.927-0.637,1.508-0.637h5.628c1.072,0,2.065,0.201,2.981,0.603c0.915,0.402,1.73,0.961,2.445,1.675
			c0.715,0.715,1.273,1.541,1.676,2.479c0.401,0.938,0.603,1.943,0.603,3.015V98.339z M486.931,89.428
			c0-0.982-0.335-1.809-1.005-2.479c-0.67-0.67-1.474-1.005-2.412-1.005h-3.483v15.879h3.483c0.938,0,1.742-0.335,2.412-1.005
			s1.005-1.496,1.005-2.479V89.428z M486.931,109.528c0-0.938-0.335-1.742-1.005-2.412c-0.67-0.67-1.474-1.005-2.412-1.005h-3.483
			v15.812h3.483c0.938,0,1.742-0.335,2.412-1.005s1.005-1.474,1.005-2.412V109.528z"/>
		<path fill="#FFFFFF" d="M504.552,81.656c1.072,0,2.065,0.201,2.981,0.603c0.915,0.402,1.73,0.961,2.445,1.675
			c0.715,0.715,1.273,1.541,1.676,2.479c0.401,0.938,0.603,1.943,0.603,3.015v29.078c0,1.072-0.201,2.077-0.603,3.015
			c-0.402,0.938-0.961,1.753-1.676,2.445c-0.715,0.693-1.53,1.24-2.445,1.642c-0.916,0.402-1.909,0.603-2.981,0.603
			s-2.077-0.201-3.015-0.603c-0.938-0.402-1.766-0.948-2.479-1.642c-0.715-0.692-1.272-1.507-1.675-2.445s-0.603-1.943-0.603-3.015
			V89.428c0-1.072,0.2-2.077,0.603-3.015s0.96-1.764,1.675-2.479c0.714-0.714,1.541-1.273,2.479-1.675
			C502.475,81.857,503.479,81.656,504.552,81.656z M507.969,89.428c0-0.982-0.335-1.809-1.005-2.479
			c-0.67-0.67-1.474-1.005-2.412-1.005c-0.982,0-1.809,0.335-2.479,1.005c-0.67,0.67-1.005,1.497-1.005,2.479v29.078
			c0,0.938,0.335,1.742,1.005,2.412s1.496,1.005,2.479,1.005c0.938,0,1.742-0.335,2.412-1.005s1.005-1.474,1.005-2.412V89.428z"/>
		<path fill="#FFFFFF" d="M531.955,97.133l-3.886,6.901l3.886,6.968c0.893,1.296,1.34,2.725,1.34,4.288v9.849
			c0,0.715-0.358,1.072-1.072,1.072h-2.144c-0.715,0-1.072-0.357-1.072-1.072v-9.849c0-0.357-0.066-0.714-0.201-1.072l-3.282-5.762
			l-3.217,5.762c-0.134,0.358-0.2,0.715-0.2,1.072v9.849c0,0.715-0.358,1.072-1.072,1.072h-2.145c-0.715,0-1.071-0.357-1.071-1.072
			v-9.849c0-1.563,0.445-2.992,1.34-4.288l3.886-6.968l-3.886-6.901c-0.895-1.295-1.34-2.724-1.34-4.288V82.728
			c0-0.268,0.101-0.513,0.301-0.737c0.201-0.223,0.458-0.335,0.771-0.335h2.145c0.312,0,0.569,0.112,0.771,0.335
			c0.201,0.224,0.302,0.469,0.302,0.737v10.117c0,0.402,0.066,0.76,0.2,1.072l3.217,5.762l3.282-5.762
			c0.135-0.312,0.201-0.67,0.201-1.072V82.728c0-0.268,0.101-0.513,0.302-0.737c0.201-0.223,0.457-0.335,0.771-0.335h2.144
			c0.312,0,0.57,0.112,0.771,0.335c0.201,0.224,0.302,0.469,0.302,0.737v10.117C533.295,94.409,532.848,95.838,531.955,97.133z"/>
		<path fill="#FFFFFF" d="M543.145,120.717v4.422c0,0.268-0.101,0.514-0.302,0.737c-0.201,0.224-0.459,0.335-0.771,0.335h-2.145
			c-0.312,0-0.569-0.111-0.771-0.335c-0.2-0.223-0.301-0.469-0.301-0.737v-4.422c0-0.714,0.356-1.072,1.071-1.072h2.145
			C542.786,119.645,543.145,120.003,543.145,120.717z"/>
	</g>
</g>
</svg>
