<?xml version="1.0" encoding="utf-8"?>
<!-- Generator: Adobe Illustrator 16.0.0, SVG Export Plug-In . SVG Version: 6.00 Build 0)  -->
<!DOCTYPE svg PUBLIC "-//W3C//DTD SVG 1.1//EN" "http://www.w3.org/Graphics/SVG/1.1/DTD/svg11.dtd">
<svg version="1.1" id="Layer_1" xmlns="http://www.w3.org/2000/svg" xmlns:xlink="http://www.w3.org/1999/xlink" x="0px" y="0px"
	 width="597px" height="700px" viewBox="0 0 597 700" enable-background="new 0 0 597 700" xml:space="preserve">
<g id="sombra">
	<path d="M523.562,206.754l-185.039-2.071c0,0-0.289-9.629-7.371-18.817l148.3-103.642c1.53,1.359,3.541,2.191,5.75,2.191
		c4.789,0,8.673-3.884,8.673-8.674c0-4.789-3.884-8.674-8.673-8.674c-4.792,0-8.675,3.885-8.675,8.674
		c0,1.007,0.18,1.969,0.496,2.868l-158.562,96.823c-6.898-3.554-16.161-5.962-28.614-5.962c-8.007,0-14.751,1.057-20.438,2.809
		L174.981,21.771c2.064-1.587,3.4-4.073,3.4-6.876c0-4.79-3.884-8.674-8.674-8.674s-8.673,3.884-8.673,8.674
		c0,4.789,3.883,8.675,8.673,8.675c0.555,0,1.095-0.058,1.621-0.157l84.859,155.245c-15.663,11.04-17.09,28.096-17.09,28.096
		L86.855,217.112C31.618,225.396,4,206.063,4,420.102C4,597.55,21.068,615.501,114.817,620.999l-4.488,73.9
		c1.381,6.562,14.845,4.492,15.191-0.904l8.975-70.923c8.113,2.438,291.37,0,323.131-4.145l9.32,73.558
		c2.763,6.517,13.12,3.105,14.5-2.07l-3.107-73.534c98.045-5.522,91.831-2.761,107.711-235.102
		C598.268,203.016,602.62,210.896,523.562,206.754z M559,370.657c0,2.334-2.111,4.564-4.439,4.564h-85.463
		c-2.332,0-4.098-2.23-4.098-4.564V253.899c0-2.331,1.766-4.678,4.098-4.678h85.463c2.328,0,4.439,2.347,4.439,4.678V370.657z"/>
	<g id="rendija_1_">
		<rect x="474.197" y="259.92" width="75.257" height="4.832"/>
		<rect x="474.197" y="274.419" width="75.257" height="4.832"/>
		<rect x="474.197" y="288.918" width="75.257" height="4.833"/>
		<rect x="474.197" y="303.418" width="75.257" height="4.833"/>
		<rect x="474.197" y="317.918" width="75.257" height="4.833"/>
		<rect x="474.197" y="332.417" width="75.257" height="4.832"/>
		<rect x="474.197" y="346.917" width="75.257" height="4.832"/>
		<rect x="474.197" y="361.415" width="75.257" height="4.833"/>
	</g>
</g>
<g id="tele">
	<path fill="#EEF0E4" d="M519.562,203.532l-185.039-2.071c0,0-0.289-9.629-7.371-18.817l148.3-103.642
		c1.53,1.359,3.541,2.191,5.75,2.191c4.789,0,8.673-3.884,8.673-8.674c0-4.789-3.884-8.674-8.673-8.674
		c-4.792,0-8.675,3.885-8.675,8.674c0,1.007,0.18,1.969,0.496,2.868L314.461,172.21c-6.898-3.554-16.161-5.962-28.614-5.962
		c-8.007,0-14.751,1.057-20.438,2.809L170.981,18.55c2.064-1.587,3.4-4.073,3.4-6.876c0-4.79-3.884-8.674-8.674-8.674
		s-8.673,3.884-8.673,8.674c0,4.789,3.883,8.675,8.673,8.675c0.555,0,1.095-0.058,1.621-0.157l84.859,155.245
		c-15.663,11.04-17.09,28.096-17.09,28.096L82.855,213.89C27.618,222.175,0,202.842,0,416.88
		c0,177.448,17.068,195.399,110.817,200.897l-4.488,73.9c1.381,6.562,14.845,4.492,15.191-0.904l8.975-70.923
		c8.113,2.438,291.37,0,323.131-4.145l9.32,73.558c2.763,6.517,13.12,3.105,14.5-2.07l-3.107-73.534
		c98.045-5.522,91.831-2.761,107.711-235.102C594.268,199.794,598.62,207.675,519.562,203.532z M555,367.436
		c0,2.334-2.111,4.564-4.439,4.564h-85.463c-2.332,0-4.098-2.23-4.098-4.564V250.678c0-2.331,1.766-4.678,4.098-4.678h85.463
		c2.328,0,4.439,2.347,4.439,4.678V367.436z"/>
	<g id="rendija">
		<rect x="470.197" y="256.698" fill="#EEF0E4" width="75.257" height="4.832"/>
		<rect x="470.197" y="271.197" fill="#EEF0E4" width="75.257" height="4.832"/>
		<rect x="470.197" y="285.696" fill="#EEF0E4" width="75.257" height="4.833"/>
		<rect x="470.197" y="300.196" fill="#EEF0E4" width="75.257" height="4.833"/>
		<rect x="470.197" y="314.696" fill="#EEF0E4" width="75.257" height="4.833"/>
		<rect x="470.197" y="329.195" fill="#EEF0E4" width="75.257" height="4.832"/>
		<rect x="470.197" y="343.695" fill="#EEF0E4" width="75.257" height="4.832"/>
		<rect x="470.197" y="358.193" fill="#EEF0E4" width="75.257" height="4.833"/>
	</g>
</g>
<g id="first">
	<path fill="#F35F51" d="M479.323,433.799c0-12.491,7.677-23.034,19.677-26.443v52.89C487,456.832,479.323,446.288,479.323,433.799z
		"/>
	<path fill="#F35F51" d="M514,460.243v-52.89c12,3.409,19.676,13.952,19.676,26.443S526,456.832,514,460.243z"/>
	<rect x="499" y="407.354" fill="#EEF0E4" width="15" height="52.89"/>
</g>
<g id="second">
	<path fill="#C04D58" d="M463.388,518.021c0-12.491,7.677-23.034,19.677-26.443v52.89
		C471.064,541.055,463.388,530.511,463.388,518.021z"/>
	<path fill="#C04D58" d="M498.064,544.466v-52.89c12,3.409,19.676,13.952,19.676,26.443S510.064,541.055,498.064,544.466z"/>
	<rect x="483.064" y="491.577" fill="#EEF0E4" width="15" height="52.89"/>
</g>
</svg>
