<?xml version="1.0" encoding="utf-8"?>
<!-- Generator: Adobe Illustrator 16.0.0, SVG Export Plug-In . SVG Version: 6.00 Build 0)  -->
<!DOCTYPE svg PUBLIC "-//W3C//DTD SVG 1.1//EN" "http://www.w3.org/Graphics/SVG/1.1/DTD/svg11.dtd">
<svg version="1.1" id="Layer_1" xmlns="http://www.w3.org/2000/svg" xmlns:xlink="http://www.w3.org/1999/xlink" x="0px" y="0px"
	 width="597px" height="700px" viewBox="0 0 597 700" enable-background="new 0 0 597 700" xml:space="preserve">
<g id="tele">
	<g id="TELE_2_">
		<path display="none" fill="#F75F51" d="M50.405,409.98c0.188-168.539,95.311-155.387,207.827-158.113
			c132.614-3.215,170.813,25.507,173.302,158.113c2.761,147.057-51.783,153.279-201.611,158.803
			C94.624,573.771,50.272,529.429,50.405,409.98z"/>
		<path fill="#EEF0E4" d="M519.562,203.532l-185.039-2.071c0,0-0.289-9.629-7.371-18.817l148.3-103.642
			c1.53,1.359,3.541,2.191,5.75,2.191c4.789,0,8.673-3.884,8.673-8.674c0-4.789-3.884-8.674-8.673-8.674
			c-4.792,0-8.675,3.885-8.675,8.674c0,1.007,0.18,1.969,0.496,2.868L314.461,172.21c-6.898-3.554-16.161-5.962-28.614-5.962
			c-8.007,0-14.751,1.057-20.438,2.809L170.981,18.55c2.064-1.587,3.4-4.073,3.4-6.876c0-4.79-3.884-8.674-8.674-8.674
			s-8.673,3.884-8.673,8.674c0,4.789,3.883,8.675,8.673,8.675c0.555,0,1.095-0.058,1.621-0.157l84.859,155.245
			c-15.663,11.04-17.09,28.096-17.09,28.096L82.855,213.89C27.618,222.175,0,202.842,0,416.88
			c0,177.448,17.068,195.399,110.817,200.897l-4.488,73.901c1.381,6.562,14.845,4.492,15.191-0.905l8.975-70.922
			c8.113,2.438,291.37,0,323.131-4.145l9.32,73.558c2.763,6.516,13.12,3.105,14.5-2.071l-3.107-73.534
			c98.045-5.522,91.831-2.761,107.711-235.101C594.268,199.794,598.62,207.675,519.562,203.532z M469.381,535.746
			c-7.624-9.109-8.75-22.481-1.876-32.907c6.874-10.432,19.604-14.667,30.979-11.257L469.381,535.746z M479.323,433.799
			c0-12.491,7.677-23.034,19.677-26.443v52.889C487,456.832,479.323,446.288,479.323,433.799z M513.625,533.232
			c-6.874,10.429-19.604,14.664-30.98,11.252l29.104-44.161C519.371,509.433,520.498,522.802,513.625,533.232z M514,460.243v-52.89
			c12,3.41,19.676,13.953,19.676,26.444C533.676,446.288,526,456.832,514,460.243z M555,367.436c0,2.334-2.111,4.564-4.439,4.564
			h-85.463c-2.332,0-4.098-2.23-4.098-4.564V250.678c0-2.331,1.766-4.678,4.098-4.678h85.463c2.328,0,4.439,2.347,4.439,4.678
			V367.436z"/>
		<g>
			<rect x="470.197" y="256.698" fill="#EEF0E4" width="75.257" height="4.832"/>
			<rect x="470.197" y="271.197" fill="#EEF0E4" width="75.257" height="4.832"/>
			<rect x="470.197" y="285.696" fill="#EEF0E4" width="75.257" height="4.833"/>
			<rect x="470.197" y="300.196" fill="#EEF0E4" width="75.257" height="4.833"/>
			<rect x="470.197" y="314.696" fill="#EEF0E4" width="75.257" height="4.833"/>
			<rect x="470.197" y="329.195" fill="#EEF0E4" width="75.257" height="4.832"/>
			<rect x="470.197" y="343.695" fill="#EEF0E4" width="75.257" height="4.832"/>
			<rect x="470.197" y="358.193" fill="#EEF0E4" width="75.257" height="4.833"/>
		</g>
	</g>
</g>
<g id="first">
	<path fill="#F35F51" d="M479.323,433.799c0-12.491,7.677-23.034,19.677-26.443v52.889C487,456.832,479.323,446.288,479.323,433.799
		z"/>
	<path fill="#F35F51" d="M514,460.243v-52.89c12,3.41,19.676,13.953,19.676,26.444C533.676,446.288,526,456.832,514,460.243z"/>
</g>
<g id="second">
	<path fill="#C04D58" d="M469.381,535.746c-7.624-9.109-8.75-22.481-1.876-32.907c6.874-10.432,19.604-14.667,30.979-11.257
		L469.381,535.746z"/>
	<path fill="#C04D58" d="M513.625,533.232c-6.874,10.429-19.604,14.664-30.98,11.252l29.104-44.161
		C519.371,509.433,520.498,522.802,513.625,533.232z"/>
</g>
</svg>
