<?xml version="1.0" encoding="utf-8"?>
<!-- Generator: Adobe Illustrator 16.0.0, SVG Export Plug-In . SVG Version: 6.00 Build 0)  -->
<!DOCTYPE svg PUBLIC "-//W3C//DTD SVG 1.1//EN" "http://www.w3.org/Graphics/SVG/1.1/DTD/svg11.dtd">
<svg version="1.1" xmlns="http://www.w3.org/2000/svg" xmlns:xlink="http://www.w3.org/1999/xlink" x="0px" y="0px" width="597px"
	 height="700px" viewBox="0 0 597 700" enable-background="new 0 0 597 700" xml:space="preserve">
<g id="Layer_3">
</g>
<g id="Layer_1">
</g>
<g id="Layer_2">
	<g id="TELE_2_">
		<path display="none" fill="#F75F51" d="M50.405,409.98c0.188-168.538,95.311-155.386,207.827-158.113
			c132.614-3.215,170.813,25.507,173.302,158.113c2.761,147.057-51.783,153.28-201.611,158.803
			C94.624,573.771,50.272,529.429,50.405,409.98z"/>
		<path fill="#EEF0E4" d="M519.563,203.532l-185.04-2.071c0,0-0.288-9.629-7.371-18.817L475.452,79.002
			c1.531,1.359,3.541,2.191,5.75,2.191c4.789,0,8.673-3.884,8.673-8.674c0-4.789-3.884-8.674-8.673-8.674
			c-4.792,0-8.675,3.885-8.675,8.674c0,1.007,0.18,1.969,0.496,2.868L314.461,172.21c-6.898-3.554-16.161-5.962-28.614-5.962
			c-8.007,0-14.751,1.057-20.439,2.809L170.981,18.55c2.064-1.587,3.4-4.073,3.4-6.876c0-4.79-3.884-8.674-8.674-8.674
			c-4.79,0-8.673,3.884-8.673,8.674c0,4.789,3.883,8.675,8.673,8.675c0.555,0,1.095-0.058,1.621-0.157l84.859,155.245
			c-15.663,11.04-17.09,28.096-17.09,28.096L82.855,213.89C27.618,222.175,0,202.842,0,416.88
			c0,177.448,17.068,195.399,110.817,200.897l-4.488,73.902c1.381,6.562,14.845,4.492,15.191-0.905l8.975-70.922
			c8.113,2.438,291.37,0,323.131-4.145l9.32,73.558c2.763,6.515,13.12,3.105,14.5-2.072l-3.107-73.534
			c98.045-5.522,91.831-2.76,107.711-235.1C594.268,199.794,598.62,207.675,519.563,203.532z M469.381,535.746
			c-7.624-9.109-8.75-22.481-1.876-32.907c6.874-10.432,19.604-14.667,30.979-11.257L469.381,535.746z M479.323,433.799
			c0-12.491,7.677-23.034,19.677-26.444v52.889C487,456.832,479.323,446.288,479.323,433.799z M513.625,533.232
			c-6.874,10.429-19.604,14.665-30.981,11.252l29.104-44.161C519.371,509.433,520.498,522.802,513.625,533.232z M514,460.243
			v-52.889c12,3.41,19.676,13.953,19.676,26.444C533.676,446.288,526,456.832,514,460.243z M555,367.436
			c0,2.333-2.111,4.564-4.44,4.564h-85.462c-2.332,0-4.098-2.231-4.098-4.564V250.678c0-2.331,1.766-4.678,4.098-4.678h85.462
			c2.329,0,4.44,2.347,4.44,4.678V367.436z"/>
		<g>
			<rect x="470.197" y="256.698" fill="#EEF0E4" width="75.257" height="4.832"/>
			<rect x="470.197" y="271.197" fill="#EEF0E4" width="75.257" height="4.832"/>
			<rect x="470.197" y="285.696" fill="#EEF0E4" width="75.257" height="4.833"/>
			<rect x="470.197" y="300.196" fill="#EEF0E4" width="75.257" height="4.833"/>
			<rect x="470.197" y="314.696" fill="#EEF0E4" width="75.257" height="4.833"/>
			<rect x="470.197" y="329.195" fill="#EEF0E4" width="75.257" height="4.832"/>
			<rect x="470.197" y="343.695" fill="#EEF0E4" width="75.257" height="4.832"/>
			<rect x="470.197" y="358.193" fill="#EEF0E4" width="75.257" height="4.833"/>
		</g>
	</g>
</g>
</svg>
