<?xml version="1.0" encoding="utf-8"?>
<!-- Generator: Adobe Illustrator 16.0.0, SVG Export Plug-In . SVG Version: 6.00 Build 0)  -->
<!DOCTYPE svg PUBLIC "-//W3C//DTD SVG 1.1//EN" "http://www.w3.org/Graphics/SVG/1.1/DTD/svg11.dtd">
<svg version="1.1" id="Layer_1" xmlns="http://www.w3.org/2000/svg" xmlns:xlink="http://www.w3.org/1999/xlink" x="0px" y="0px"
	 width="200px" height="124.447px" viewBox="0 0 200 124.447" enable-background="new 0 0 200 124.447" xml:space="preserve">
<g>
	<path fill="#EAECE0" d="M52.857,34.235c2.602-1.355,5.308-2.487,7.718-4.071c7.174-4.717,10.435-12.678,4.538-19.855
		c-2.667-3.246-6.586-5.597-10.241-7.863c-4.638-2.876-9.761-0.7-14.61-0.386c-4.935,0.319-9.526,2.501-12.157,6.852
		c-3.036,5.021-7.208,9.837-4.826,16.658c1.575,4.509,4.345,7.756,8.301,10.209c0.984,0.61,1.816,1.465,2.718,2.208
		c-0.287,0.414-0.573,0.826-0.86,1.239c-1.826-1.032-3.769-1.904-5.455-3.128c-3.982-2.893-3.926-2.959-4.717,1.615
		c-0.062,0.358-0.335,0.675-0.463,1.028c-1.316,3.658-2.887,7.249-3.882,10.993c-2.569,9.671-4.914,19.402-7.276,29.126
		c-0.572,2.355-0.237,4.408,2.892,5.005c2.983-11.396,5.917-22.603,9.009-34.413c1.541,3.763,2.864,6.744,3.963,9.807
		c0.412,1.149,0.784,2.699,0.342,3.699c-1.795,4.067-1.475,7.314,1.432,11.056c2.641,3.4,2.052,3.855,4.987,0.816
		c0.265-0.272,0.572-0.734,0.851-0.728c2.874,0.065,2.346-2.468,2.479-3.812c0.851-8.677,1.419-17.383,2.082-26.108
		c2.928-0.13,5.774-0.256,9.587-0.424c-4.828,16.012-9.455,31.358-14.078,46.689c-3.678-0.295-7.45,0.191-10.536-1.04
		c-3.893-1.553-7.614-2.187-11.625-1.609c-0.918,0.133-1.762,0.797-2.64,1.216c0.798,1.039,1.417,2.346,2.448,3.036
		c0.887,0.593,2.246,0.483,3.679,0.733c-2.333,5.484-4.668,10.353-6.464,15.412c-1.219,3.432-2.68,6.276-7.275,7.443
		c1.034,1.799,1.592,3.807,2.896,4.628c0.712,0.447,2.765-0.997,4.068-1.819c0.829-0.522,1.671-1.355,2.029-2.244
		c3.076-7.628,7.94-14.611,8.326-23.417c4.761,1.859,8.901,4.772,9.133,9.613c0.246,5.126-1.11,10.438-2.442,15.491
		c-0.881,3.342-0.965,4.37,3.222,6.556c1.161-5.166,2.524-10.091,3.324-15.105c0.861-5.394-0.973-10.27-4.964-15.287
		c3.717,1.127,6.417,1.946,9.288,2.817c5.691-18.876,11.326-37.562,16.867-55.938c4.61,3.865,9.343,7.588,13.788,11.628
		c4.375,3.977,8.471,8.26,13.915,10.939C74.219,51.915,62.036,44.572,52.857,34.235z M29.668,55.683
		c-2.597-4.982-4.169-9.499-1.821-15.289c1.914,0.967,3.625,1.832,5.589,2.825C32.183,47.364,30.999,51.282,29.668,55.683z
		 M32.231,32.212c-3.179-0.089-7.061-6.235-6.203-9.498c1.784-6.777,4.825-12.715,12.823-15.858
		c-1.421,6.357-2.716,12.006-3.936,17.671c-0.622,2.887,0.642,4.808,3.708,5.503c0.205-7.896,5.664-15.155,2.813-24.417
		c2.956,0,7.287-1.294,9.452,0.319c2.874,2.142,5.75,1.285,8.428,2.318c4.463,1.721,7.239,7.54,3.772,12.348
		C55.35,31.326,44.035,32.546,32.231,32.212z M46.458,38.434c-1.644-0.35-3.364-0.337-5.051-0.487
		c-0.046-0.41-0.092-0.82-0.138-1.229c2.938-0.533,5.875-1.067,8.885-1.613C50.812,38.533,49.221,39.021,46.458,38.434z"/>
	<path fill="#EAECE0" d="M41.269,36.717c0.046,0.41,0.092,0.819,0.138,1.229c1.687,0.15,3.407,0.137,5.051,0.487
		c2.763,0.586,4.354,0.099,3.696-3.33C47.144,35.65,44.206,36.184,41.269,36.717z"/>
	<path fill="#EAECE0" d="M45.714,10.188c-1.081,3.64-1.852,7.36-3.304,10.794c-1.365,3.229,0.235,4.603,2.927,6.477
		c1.456-4.882,2.995-9.331,4.052-13.892C49.91,11.322,48.358,10.128,45.714,10.188z"/>
</g>
<g>
	<g>
		<path fill="#EAECE0" d="M116.768,102.588c-1.61-2.26-4.099-3.877-6.094-5.888c-2.014-2.028-3.688-4.434-5.864-6.252
			c-2.652-2.217-5.835-2.229-9.023-0.222c0-0.011,0-0.021,0-0.031c-1.155,0.928-2.598,1.014-4.118,0.992
			c-0.666,0.541-1.584,1.001-2.293,1.151c-4.173,0.885-7.072,5.651-11.965,3.767c-1.471,3.766,0.653,5.395,3.44,6.947
			c2.488,1.388,5.565,2.24,6.518,5.49c0.032,0.016,0.064,0.031,0.096,0.047l-0.065,0.048c-0.009-0.033-0.022-0.062-0.031-0.095
			c-5.916-2.906-11.871-5.733-17.731-8.744c-5.741-2.95-10.721-7.537-17.484-8.543c-0.981,3.115-0.087,4.828,2.436,5.921
			c2.17,0.94,4.285,2.025,6.367,3.153c5.709,3.09,11.379,6.252,17.083,9.352c3.187,1.732,6.414,3.391,9.617,5.091
			c2.397,1.271,4.788,2.557,7.608,4.063c0-2.051,0-3.488,0-5.129c0.531,0.034,1.341-0.165,1.714,0.151
			c2.357,2.003,4.157,0.398,6.334-0.516c3.433-1.442,7.105-2.313,10.677-3.427c1.467-0.457,4.184-0.915,4.184-1.374
			C118.172,106.529,117.887,104.16,116.768,102.588z M91.582,102.084c-0.809,2.428,2.428,2.023,4.047,2.023
			C94.01,104.107,90.773,104.512,91.582,102.084z"/>
		<path fill="#EAECE0" d="M92.587,79.715c0.052,0.215,0.097,0.432,0.139,0.65c0.767,1.039,2.036,1.734,3.061,2.535
			c0-0.647,0-1.287,0-1.928c-1.266-0.249-2.289-1.146-3.304-1.518C92.53,79.542,92.566,79.629,92.587,79.715z"/>
		<path fill="#EAECE0" d="M91.974,72.955c-2.824-1.383-5.497-2.691-7.612-3.727c-1.34,1.291-2.044,2.519-3.042,2.841
			c-6.534,2.11-13.121,4.065-19.714,5.986c-2.977,0.868-6.089,1.319-8.997,2.362c-3.486,1.25-3.657,2.572-1.298,5.47
			c7.238-2.026,14.385-4.152,21.603-6.004c4.598-1.182,9.268-2.316,13.971-2.738c1.776-0.159,4.932,1.088,5.596,2.31
			c1.015,0.371,2.038,1.269,3.304,1.518c0-0.185,0-0.371,0-0.556c19.07,10.089,38.429,19.612,52.939,36.402
			c-0.267-8.752-7.271-12.394-12.499-17.017c-5.508-4.871-11.872-8.774-17.863-13.101c0.065-0.305,0.13-0.61,0.195-0.916
			l-10.046-4.076c-3.443-1.877-6.889-3.883-10.451-5.655c-0.827-0.412-1.512-0.877-2.048-1.413
			c-1.378-0.622-2.649-1.563-3.977-2.337C92.016,72.521,91.994,72.737,91.974,72.955z"/>
		<path fill="#EAECE0" d="M87.464,108.59c-0.032-0.016-0.064-0.031-0.096-0.047c0.009,0.033,0.022,0.062,0.031,0.095L87.464,108.59z
			"/>
		<path fill="#EAECE0" d="M85.418,88.425c1.594-0.467,3.98-1.028,4.361-2.12c0.462-1.323-0.817-3.255-1.329-4.882
			c-5.863,1.649-11.085,3.16-16.332,4.582c-4.227,1.146-4.483,1.545-3.144,6.442c1.345-0.208,2.471-0.289,3.547-0.565
			C76.833,90.774,81.148,89.677,85.418,88.425z"/>
		<path fill-rule="evenodd" clip-rule="evenodd" fill="#EAECE0" d="M87.59,108.638c-0.042-0.016-0.084-0.032-0.126-0.048
			c-0.032-0.016-0.064-0.031-0.096-0.047c0.009,0.033,0.022,0.062,0.031,0.095C87.462,108.638,87.526,108.638,87.59,108.638z"/>
		<path fill-rule="evenodd" clip-rule="evenodd" fill="#EAECE0" d="M91.974,72.955c-2.824-1.383-5.497-2.691-7.612-3.727
			c-1.34,1.291-2.044,2.519-3.042,2.841c-6.534,2.11-13.121,4.065-19.714,5.986c-2.977,0.868-6.089,1.319-8.997,2.362
			c-3.486,1.25-3.657,2.572-1.298,5.47c7.238-2.026,14.385-4.152,21.603-6.004c4.598-1.182,9.268-2.316,13.971-2.738
			c1.776-0.159,4.932,1.088,5.596,2.31c1.015,0.371,2.038,1.269,3.304,1.518c0-0.185,0-0.371,0-0.556
			c19.07,10.089,38.429,19.612,52.939,36.402c-0.267-8.752-7.271-12.394-12.499-17.017c-5.508-4.871-11.872-8.774-17.863-13.101
			c0.065-0.305-3.913-3.496-3.848-3.802l-6.003-1.19c-3.443-1.877-6.889-3.883-10.451-5.655c-0.827-0.412-1.512-0.877-2.048-1.413
			c-1.378-0.622-2.649-1.563-3.977-2.337C92.016,72.521,91.994,72.737,91.974,72.955z"/>
		<g>
			<path fill="#EAECE0" d="M87.59,108.638c-0.042-0.016-0.084-0.032-0.126-0.048c-0.032-0.016-0.064-0.031-0.096-0.047
				c0.009,0.033,0.022,0.062,0.031,0.095C87.462,108.638,87.526,108.638,87.59,108.638z"/>
			<path fill="#EAECE0" d="M90.264,109c-0.892,0-1.783,0-2.674,0c0.861,0,1.723,0.661,2.584,0.991
				C90.205,109.662,90.234,109,90.264,109z"/>
			<path fill="#EAECE0" d="M99.676,95.339c0,0.229-3.22,2.362-3.22,2.587C95.385,98.193,94.422,98,93.38,99h-1.166
				c-1.412,0-2.675,0.877-4.558,1.559c1.468,0.951,2.609,1.645,3.809,2.423c0.173,1.463,3.573,3.984,4.973,3.981
				c0,0.09,2.833-0.641,2.833-0.551c1.352-0.557,3.854-1.297,4.801-1.147c4.271,0.675,3.107-0.95,5.721-1.841
				C105.922,102.747,104.747,93.96,99.676,95.339z"/>
			<path fill="#EAECE0" d="M116.768,102.588c-1.61-2.26-4.099-3.877-6.094-5.888c-2.014-2.028-3.581-4.434-5.757-6.252
				C102.264,88.231,99,88.219,96,90.227c0-0.011,0-0.021,0-0.031c-1,0.928-2.705,1.014-4.225,0.992
				c-0.665,0.541-1.637,1.001-2.346,1.151c-4.173,0.885-7.099,5.651-11.992,3.767c-1.471,3.766,0.64,5.395,3.427,6.947
				c2.488,1.388,5.559,2.24,6.511,5.49c0.032,0.016,0.061,0.212,0.094,0.229c0.042,0.016,0.08,0.229,0.122,0.229
				c0.891,0,1.782,0,2.674,0c-0.03,0-0.059,0.662-0.089,0.991c-0.861-0.33-1.723-0.991-2.584-0.991c-0.064,0-0.127,0-0.191,0
				c-0.009,0-0.022-0.243-0.031-0.276c-5.916-2.905-11.871-5.823-17.731-8.835c-5.741-2.95-10.721-7.582-17.484-8.588
				c-0.981,3.115-0.087,4.806,2.436,5.898c2.17,0.94,4.285,2.015,6.367,3.143c5.709,3.089,11.379,6.246,17.083,9.346
				c3.187,1.731,6.282,3.388,9.486,5.088c2.397,1.272,4.478,2.554,7.478,4.061c0-2.051,0-3.488,0-5.129
				c1,0.034,1.473-0.165,1.845,0.151c2.357,2.003,4.222,0.398,6.399-0.516c3.434-1.442,7.139-2.313,10.71-3.427
				c1.467-0.457,4.201-0.915,4.201-1.374C118.156,106.529,117.887,104.16,116.768,102.588z M104.072,105.259
				c-0.946-0.149-3.449,0.585-4.801,1.142c0-0.09-2.833,0.63-2.833,0.539c-1.4,0.004-4.799-2.54-4.973-4.004
				c-1.2-0.778-2.341-1.426-3.809-2.377C89.54,99.877,90.803,99,92.215,99h1.166c1.042-1,2.005-0.807,3.076-1.074
				c0-0.225,3.22-2.312,3.22-2.541c5.071-1.379,6.246,7.384,10.117,8.061C107.18,104.336,108.343,105.935,104.072,105.259z"/>
		</g>
		<path fill-rule="evenodd" clip-rule="evenodd" fill="#EAECE0" d="M68.976,92.447c-1.339-4.897-1.083-5.296,3.144-6.442
			c5.247-1.422,10.469-2.933,16.332-4.582c0.512,1.627,1.791,3.559,1.329,4.882c-0.381,1.092-2.768,1.653-4.361,2.12
			c-4.27,1.252-8.585,2.35-12.896,3.457C71.447,92.158,70.321,92.239,68.976,92.447z"/>
		<path fill-rule="evenodd" clip-rule="evenodd" fill="#EAECE0" d="M87.657,100.466c1.883-0.681,3.146-1.139,4.558-1.649
			c0,1.515,0,2.88,0,4.604C90.719,102.451,89.426,101.613,87.657,100.466z"/>
		<path fill-rule="evenodd" clip-rule="evenodd" fill="#EAECE0" d="M87.399,108.638c0.955,0,1.91,0,2.865,0
			c-0.03,0.331-0.059,0.661-0.089,0.991c-0.903-0.346-1.807-0.692-2.71-1.039L87.399,108.638z"/>
		<g>
			<path fill="#EAECE0" d="M138.082,59.434c-0.291-2.469-1.452-2.999-3.263-3.178c-4.843-0.48-9.224,0.854-13.587,2.75
				c-4.668,2.028-8.747,4.792-12.057,8.64c-3.391,3.942-3.239,8.087,0.763,11.054c2.444,1.813,5.251,3.428,8.146,4.278
				c5.007,1.471,10.235,1.563,15.06-0.823c2.675-1.325,5.107-3.185,7.529-4.966c3.17-2.331,5.253-7.921,4.604-10.85
				c-1.165-5.273-11.207-8.667-17.744-3.721c0.949,0.186,1.551,0.416,2.147,0.4c2.744-0.072,5.496-0.411,8.228-0.277
				c3.375,0.167,5.094,3.01,3.627,6.009c-0.883,1.803-2.402,3.281-3.487,4.999c-4.624,7.326-18.614,9.748-25.908,4.784
				c-3.013-2.05-3.956-4.407-1.864-7.24c3.094-4.19,6.887-7.597,11.979-9.306C127.316,60.289,132.294,58.188,138.082,59.434z"/>
			<path fill="#EAECE0" d="M120.476,66.408c-0.887,7.754-0.593,9.678,2.213,11.528c0.329-3.973,0.63-7.595,0.945-11.389
				C122.256,66.486,121.44,66.45,120.476,66.408z"/>
			<path fill="#EAECE0" d="M129.104,76.48c0.289-3.383,0.563-6.586,0.862-10.072c-1.444,0.072-2.33,0.117-3.171,0.16
				C125.447,75.134,125.447,75.134,129.104,76.48z"/>
			<path fill-rule="evenodd" clip-rule="evenodd" fill="#EAECE0" d="M138.082,59.434c-5.788-1.246-10.766,0.854-15.828,2.554
				c-5.092,1.709-8.885,5.116-11.979,9.306c-2.092,2.833-1.148,5.19,1.864,7.24c7.294,4.964,21.284,2.542,25.908-4.784
				c1.085-1.718,2.604-3.196,3.487-4.999c1.467-2.999-0.252-5.842-3.627-6.009c-2.731-0.134-5.483,0.205-8.228,0.277
				c-0.597,0.016-1.198-0.215-2.147-0.4c6.537-4.946,16.579-1.552,17.744,3.721c0.648,2.929-1.435,8.519-4.604,10.85
				c-2.422,1.781-4.854,3.641-7.529,4.966c-4.824,2.387-10.053,2.294-15.06,0.823c-2.895-0.851-5.701-2.465-8.146-4.278
				c-4.002-2.967-4.153-7.111-0.763-11.054c3.31-3.848,7.389-6.612,12.057-8.64c4.363-1.896,8.744-3.23,13.587-2.75
				C136.63,56.435,137.791,56.965,138.082,59.434z"/>
			<path fill-rule="evenodd" clip-rule="evenodd" fill="#EAECE0" d="M120.476,66.408c0.965,0.042,1.78,0.078,3.158,0.14
				c-0.315,3.794-0.616,7.416-0.945,11.389C119.883,76.086,119.589,74.162,120.476,66.408z"/>
			<path fill-rule="evenodd" clip-rule="evenodd" fill="#EAECE0" d="M129.104,76.48c-3.657-1.347-3.657-1.347-2.309-9.912
				c0.841-0.043,1.727-0.088,3.171-0.16C129.668,69.895,129.394,73.098,129.104,76.48z"/>
		</g>
	</g>
	<path fill-rule="evenodd" clip-rule="evenodd" fill="#EAECE0" d="M197.002,77.488c-1.472-0.642-3.183-0.732-5.4-1.147
		c0.28-3.513,0.572-7.173,0.864-10.832c-0.154-0.737-1.752-1.685-1.844-2.762c-0.951-11.083-1.62-22.189-2.452-33.283
		c-0.401-5.357-0.829-10.721-1.545-16.042c-0.36-2.682-1.39-5.274-2.062-7.713c2.107-0.547,3.56-0.924,5.763-1.497
		c-1.356-0.787-1.894-1.374-2.403-1.354c-6.182,0.25-12.533-0.202-18.492,1.108c-7.33,1.612-14.558,3.026-22.061,2.646
		c-2.509-0.128-4.306,0.193-5.017,3.18c-1.191,5.003-0.926,7.044,2.349,9.195c-1.984,0.537-3.627,1.241-5.316,1.382
		c-3.053,0.255-2.744,1.517-1.309,3.355c-12.584,8.57-27.062,14.344-37.862,25.974c1.407,0.375,2.887,0.545,3.917-0.056
		c1.721-1.005,3.062-2.641,4.727-3.768c5.445-3.685,10.964-7.26,16.455-10.877c0.091,0.135,0.182,0.27,0.272,0.405
		c-1.174,1.697-2.349,3.394-3.855,5.569c1.817,0.919,3.46,2.506,4.796,2.28c3.786-0.641,7.448-2.023,11.338-3.166
		c1.955,3.39,5.619,3.575,12.025,1.576c2.443-0.762,4.717-5.236,4.456-8.155c3.859-1.257,7.631-2.527,11.432-3.708
		c2.224-0.691,3.057-2.02,2.082-4.847c-2.181-0.215-4.909-1.257-7.043-0.537c-4.774,1.61-7.744-3.75-12.326-1.71
		c0.022-0.43,0.044-0.86,0.065-1.29c9.894-1.381,19.787-2.761,29.681-4.142c-0.05-0.467-0.098-0.934-0.146-1.401
		c-9.155-1.148-18.044,1.973-27.254,2.615c-0.329-3.03-0.658-6.065-0.957-8.816c6.22-0.993,12.178-1.928,18.129-2.901
		c2.972-0.485,5.913-1.287,8.9-1.508c4.249-0.314,4.244,0.212,3.904,4.628c-0.272,3.541,0.371,7.153,0.617,10.868
		c-1.838,1.429-4.161,3.266-6.518,5.057c-7.991,6.076-16.002,12.125-23.985,18.211c-1.364,1.04-2.395,2.067-4.535,2.071
		c-4.364,0.008-8.733,0.781-13.087,1.353c-6.902,0.907-13.788,1.938-20.689,2.857c-4.435,0.59-8.883,1.074-13.698,1.649
		c0.104,1.213,0.208,26.316,0.312,27.429c1.105-0.011,2.233,0.053,3.363,0.138c0.299-0.776,1.663-25.839,2.521-25.937
		c12.373-1.421,24.768-2.649,37.153-3.957c0.978-0.104,1.931-0.434,3.604-0.825c0.309,1.76,0.664,3.185,0.795,4.63
		c0.759,8.312,1.604,16.62,2.135,24.947c0.326,5.119,0.266,10.272,0.147,15.405c-0.035,1.506-0.648,2.609-1.664,3.294
		c-0.146,1.128-0.378,2.245-0.662,3.357c0.143,0.006,0.286,0.011,0.43,0.018c0.416,4.062-1.62,7.828,1.359,10.892
		c0.08,0.023,0.16,0.045,0.24,0.07c-0.01,0.039-0.021,0.078-0.03,0.118c1.16,0.7,2.255,1.59,3.508,2.021
		c1.296,0.445,2.971,0.947,4.096,0.487c2.183-0.891,4.245-2.254,6.095-3.747c7.498-6.058,14.854-12.293,22.354-18.348
		c2.86-2.309,5.971-4.309,9.112-6.555c1.054-1.474,2.481-3.153,3.5-5.052C197.684,79.604,197.458,77.688,197.002,77.488z
		 M163.129,26.808c0.091,0.385,0.182,0.771,0.272,1.156c-2.728,0.724-5.455,1.449-8.182,2.174c-0.116-0.471-0.231-0.942-0.347-1.413
		C157.625,28.085,160.377,27.447,163.129,26.808z M146.43,9.177c0.16,0.184,0.321,0.368,0.481,0.552
		c-0.194,0.156-0.389,0.312-0.783,0.631C146.264,9.829,146.348,9.503,146.43,9.177z M126.021,39.915
		c3.253-1.736,5.024-6.27,10.198-5.272C133.59,38.424,130.639,40.696,126.021,39.915z M132.619,30.981
		c2.694-1.562,5.748-3.333,8.804-5.105c0.53-0.28,1.062-0.561,1.594-0.841c0.109,0.146,0.218,0.293,0.326,0.441
		c-0.426,0.364-0.853,0.729-1.279,1.094c-0.415,1.229-0.83,2.457-1.245,3.685c1.393,0.291,2.776,0.735,4.182,0.826
		c1.281,0.083,2.587-0.217,3.972,0.289c-2.588,1.042-5.177,2.084-7.01,2.821C138.584,33.03,135.732,32.05,132.619,30.981z
		 M143.004,40.836c-0.357-0.383-0.715-0.766-1.072-1.149c0.659-1.037,1.083-2.467,2.024-3.03c2.19-1.311,4.613-2.575,7.435,0.547
		C148.596,38.415,145.8,39.625,143.004,40.836z M152.3,25.257c0.067,0.378,0.135,0.757,0.201,1.136
		c-1.943,1.829-3.898,2.545-5.885-0.022c0,0-0.002,0-0.003,0c-0.048,0.059-0.096,0.118-0.143,0.177
		c-0.236,0.982-0.472,1.965-0.708,2.948c-0.428-0.163-0.856-0.324-1.284-0.486c0.664-0.821,1.328-1.642,1.992-2.462
		c0.021-0.092,0.044-0.184,0.066-0.276c0.025,0.036,0.053,0.064,0.079,0.099C148.511,26,150.405,25.628,152.3,25.257z
		 M153.164,46.545c9.492-6.977,18.674-14.376,27.996-21.586c0.557-0.43,1.322-0.593,2.342-1.032c0,3.904-0.198,7.457,0.042,10.978
		c0.454,6.644,1.205,13.267,1.739,19.906c0.266,3.297,0.417,6.611,0.416,9.917c0,0.863-0.615,1.847-1.2,2.573
		c-2.385,2.968-4.583,6.176-7.396,8.683c-2.636,2.35-6.031,3.825-8.964,5.869c-2.854,1.989-5.669,4.071-8.266,6.376
		c-2.033,1.806-3.707,4.014-5.541,6.044c-0.359-0.131-0.719-0.264-1.078-0.395c-0.345-2.245-0.841-4.48-1.007-6.739
		c-0.828-11.221-1.516-22.452-2.375-33.671C149.638,50.41,150.514,48.492,153.164,46.545z M181.345,87.341
		c-8.944,7.142-17.863,14.314-26.824,21.437c-0.744,0.591-1.719,0.894-2.766,1.422c0.613-4.039,1.181-7.775,1.644-10.825
		c11.15-8.716,22.093-17.27,32.729-25.582C189.808,79.782,185.937,83.674,181.345,87.341z"/>
	<path fill-rule="evenodd" clip-rule="evenodd" fill="#EAECE0" d="M148.412,111.348c0.048,0.049,0.093,0.098,0.144,0.146
		c0.022,0.014,0.044,0.028,0.066,0.042c0.01-0.04,0.021-0.079,0.03-0.118C148.572,111.393,148.492,111.371,148.412,111.348z"/>
	<path fill-rule="evenodd" clip-rule="evenodd" fill="#EAECE0" d="M146.471,26.548c0.047-0.059,0.095-0.118,0.143-0.177
		c0.001,0,0.002,0,0.002,0c-0.025-0.035-0.053-0.063-0.078-0.099C146.515,26.365,146.492,26.456,146.471,26.548z"/>
	<path fill-rule="evenodd" clip-rule="evenodd" fill="#EAECE0" d="M146.537,26.272l0.076,0.099c1.896-0.371,3.791-0.743,5.687-1.114
		c0.067,0.378,0.135,0.757,0.201,1.136"/>
	<path fill-rule="evenodd" clip-rule="evenodd" fill="#EAECE0" d="M142.063,26.569c-0.214-0.231-0.428-0.462-0.641-0.694
		c0.53-0.28,1.062-0.561,1.594-0.841c0.109,0.146,0.218,0.293,0.326,0.441C142.917,25.839,142.49,26.205,142.063,26.569z"/>
	<path fill-rule="evenodd" clip-rule="evenodd" fill="#EAECE0" d="M146.128,10.36c0.136-0.532,0.22-0.857,0.302-1.183
		c0.16,0.184,0.321,0.368,0.481,0.552C146.717,9.886,146.522,10.042,146.128,10.36z"/>
</g>
<g>
	<path fill="#EAECE0" d="M52.857,34.235c2.602-1.355,5.308-2.487,7.718-4.071c7.174-4.717,10.435-12.678,4.538-19.855
		c-2.667-3.246-6.586-5.597-10.241-7.863c-4.638-2.876-9.761-0.7-14.61-0.386c-4.935,0.319-9.526,2.501-12.157,6.852
		c-3.036,5.021-7.208,9.837-4.826,16.658c1.575,4.509,4.345,7.756,8.301,10.209c0.984,0.61,1.816,1.465,2.718,2.208
		c-0.287,0.414-0.573,0.826-0.86,1.239c-1.826-1.032-3.769-1.904-5.455-3.128c-3.982-2.893-3.926-2.959-4.717,1.615
		c-0.062,0.358-0.335,0.675-0.463,1.028c-1.316,3.658-2.887,7.249-3.882,10.993c-2.569,9.671-4.914,19.402-7.276,29.126
		c-0.572,2.355-0.237,4.408,2.892,5.005c2.983-11.396,5.917-22.603,9.009-34.413c1.541,3.763,2.864,6.744,3.963,9.807
		c0.412,1.149,0.784,2.699,0.342,3.699c-1.795,4.067-1.475,7.314,1.432,11.056c2.641,3.4,2.052,3.855,4.987,0.816
		c0.265-0.272,0.572-0.734,0.851-0.728c2.874,0.065,2.346-2.468,2.479-3.812c0.851-8.677,1.419-17.383,2.082-26.108
		c2.928-0.13,5.774-0.256,9.587-0.424c-4.828,16.012-9.455,31.358-14.078,46.689c-3.678-0.295-7.45,0.191-10.536-1.04
		c-3.893-1.553-7.614-2.187-11.625-1.609c-0.918,0.133-1.762,0.797-2.64,1.216c0.798,1.039,1.417,2.346,2.448,3.036
		c0.887,0.593,2.246,0.483,3.679,0.733c-2.333,5.484-4.668,10.353-6.464,15.412c-1.219,3.432-2.68,6.276-7.275,7.443
		c1.034,1.799,1.592,3.807,2.896,4.628c0.712,0.447,2.765-0.997,4.068-1.819c0.829-0.522,1.671-1.355,2.029-2.244
		c3.076-7.628,7.94-14.611,8.326-23.417c4.761,1.859,8.901,4.772,9.133,9.613c0.246,5.126-1.11,10.438-2.442,15.491
		c-0.881,3.342-0.965,4.37,3.222,6.556c1.161-5.166,2.524-10.091,3.324-15.105c0.861-5.394-0.973-10.27-4.964-15.287
		c3.717,1.127,6.417,1.946,9.288,2.817c5.691-18.876,11.326-37.562,16.867-55.938c4.61,3.865,9.343,7.588,13.788,11.628
		c4.375,3.977,8.471,8.26,13.915,10.939C74.219,51.915,62.036,44.572,52.857,34.235z M29.668,55.683
		c-2.597-4.982-4.169-9.499-1.821-15.289c1.914,0.967,3.625,1.832,5.589,2.825C32.183,47.364,30.999,51.282,29.668,55.683z
		 M32.231,32.212c-3.179-0.089-7.061-6.235-6.203-9.498c1.784-6.777,4.825-12.715,12.823-15.858
		c-1.421,6.357-2.716,12.006-3.936,17.671c-0.622,2.887,0.642,4.808,3.708,5.503c0.205-7.896,5.664-15.155,2.813-24.417
		c2.956,0,7.287-1.294,9.452,0.319c2.874,2.142,5.75,1.285,8.428,2.318c4.463,1.721,7.239,7.54,3.772,12.348
		C55.35,31.326,44.035,32.546,32.231,32.212z M46.458,38.434c-1.644-0.35-3.364-0.337-5.051-0.487
		c-0.046-0.41-0.092-0.82-0.138-1.229c2.938-0.533,5.875-1.067,8.885-1.613C50.812,38.533,49.221,39.021,46.458,38.434z"/>
	<path fill="#EAECE0" d="M41.269,36.717c0.046,0.41,0.092,0.819,0.138,1.229c1.687,0.15,3.407,0.137,5.051,0.487
		c2.763,0.586,4.354,0.099,3.696-3.33C47.144,35.65,44.206,36.184,41.269,36.717z"/>
	<path fill="#EAECE0" d="M45.714,10.188c-1.081,3.64-1.852,7.36-3.304,10.794c-1.365,3.229,0.235,4.603,2.927,6.477
		c1.456-4.882,2.995-9.331,4.052-13.892C49.91,11.322,48.358,10.128,45.714,10.188z"/>
</g>
<g>
	<g>
		<path fill="#EAECE0" d="M116.768,102.588c-1.61-2.26-4.099-3.877-6.094-5.888c-2.014-2.028-3.688-4.434-5.864-6.252
			c-2.652-2.217-5.835-2.229-9.023-0.222c0-0.011,0-0.021,0-0.031c-1.155,0.928-2.598,1.014-4.118,0.992
			c-0.666,0.541-1.584,1.001-2.293,1.151c-4.173,0.885-7.072,5.651-11.965,3.767c-1.471,3.766,0.653,5.395,3.44,6.947
			c2.488,1.388,5.565,2.24,6.518,5.49c0.032,0.016,0.064,0.031,0.096,0.047l-0.065,0.048c-0.009-0.033-0.022-0.062-0.031-0.095
			c-5.916-2.906-11.871-5.733-17.731-8.744c-5.741-2.95-10.721-7.537-17.484-8.543c-0.981,3.115-0.087,4.828,2.436,5.921
			c2.17,0.94,4.285,2.025,6.367,3.153c5.709,3.09,11.379,6.252,17.083,9.352c3.187,1.732,6.414,3.391,9.617,5.091
			c2.397,1.271,4.788,2.557,7.608,4.063c0-2.051,0-3.488,0-5.129c0.531,0.034,1.341-0.165,1.714,0.151
			c2.357,2.003,4.157,0.398,6.334-0.516c3.433-1.442,7.105-2.313,10.677-3.427c1.467-0.457,4.184-0.915,4.184-1.374
			C118.172,106.529,117.887,104.16,116.768,102.588z M91.582,102.084c-0.809,2.428,2.428,2.023,4.047,2.023
			C94.01,104.107,90.773,104.512,91.582,102.084z"/>
		<path fill="#EAECE0" d="M92.587,79.715c0.052,0.215,0.097,0.432,0.139,0.65c0.767,1.039,2.036,1.734,3.061,2.535
			c0-0.647,0-1.287,0-1.928c-1.266-0.249-2.289-1.146-3.304-1.518C92.53,79.542,92.566,79.629,92.587,79.715z"/>
		<path fill="#EAECE0" d="M91.974,72.955c-2.824-1.383-5.497-2.691-7.612-3.727c-1.34,1.291-2.044,2.519-3.042,2.841
			c-6.534,2.11-13.121,4.065-19.714,5.986c-2.977,0.868-6.089,1.319-8.997,2.362c-3.486,1.25-3.657,2.572-1.298,5.47
			c7.238-2.026,14.385-4.152,21.603-6.004c4.598-1.182,9.268-2.316,13.971-2.738c1.776-0.159,4.932,1.088,5.596,2.31
			c1.015,0.371,2.038,1.269,3.304,1.518c0-0.185,0-0.371,0-0.556c19.07,10.089,38.429,19.612,52.939,36.402
			c-0.267-8.752-7.271-12.394-12.499-17.017c-5.508-4.871-11.872-8.774-17.863-13.101c0.065-0.305,0.13-0.61,0.195-0.916
			l-10.046-4.076c-3.443-1.877-6.889-3.883-10.451-5.655c-0.827-0.412-1.512-0.877-2.048-1.413
			c-1.378-0.622-2.649-1.563-3.977-2.337C92.016,72.521,91.994,72.737,91.974,72.955z"/>
		<path fill="#EAECE0" d="M87.464,108.59c-0.032-0.016-0.064-0.031-0.096-0.047c0.009,0.033,0.022,0.062,0.031,0.095L87.464,108.59z
			"/>
		<path fill="#EAECE0" d="M85.418,88.425c1.594-0.467,3.98-1.028,4.361-2.12c0.462-1.323-0.817-3.255-1.329-4.882
			c-5.863,1.649-11.085,3.16-16.332,4.582c-4.227,1.146-4.483,1.545-3.144,6.442c1.345-0.208,2.471-0.289,3.547-0.565
			C76.833,90.774,81.148,89.677,85.418,88.425z"/>
		<path fill-rule="evenodd" clip-rule="evenodd" fill="#EAECE0" d="M87.59,108.638c-0.042-0.016-0.084-0.032-0.126-0.048
			c-0.032-0.016-0.064-0.031-0.096-0.047c0.009,0.033,0.022,0.062,0.031,0.095C87.462,108.638,87.526,108.638,87.59,108.638z"/>
		<path fill-rule="evenodd" clip-rule="evenodd" fill="#EAECE0" d="M91.974,72.955c-2.824-1.383-5.497-2.691-7.612-3.727
			c-1.34,1.291-2.044,2.519-3.042,2.841c-6.534,2.11-13.121,4.065-19.714,5.986c-2.977,0.868-6.089,1.319-8.997,2.362
			c-3.486,1.25-3.657,2.572-1.298,5.47c7.238-2.026,14.385-4.152,21.603-6.004c4.598-1.182,9.268-2.316,13.971-2.738
			c1.776-0.159,4.932,1.088,5.596,2.31c1.015,0.371,2.038,1.269,3.304,1.518c0-0.185,0-0.371,0-0.556
			c19.07,10.089,38.429,19.612,52.939,36.402c-0.267-8.752-7.271-12.394-12.499-17.017c-5.508-4.871-11.872-8.774-17.863-13.101
			c0.065-0.305-3.913-3.496-3.848-3.802l-6.003-1.19c-3.443-1.877-6.889-3.883-10.451-5.655c-0.827-0.412-1.512-0.877-2.048-1.413
			c-1.378-0.622-2.649-1.563-3.977-2.337C92.016,72.521,91.994,72.737,91.974,72.955z"/>
		<g>
			<path fill="#EAECE0" d="M87.59,108.638c-0.042-0.016-0.084-0.032-0.126-0.048c-0.032-0.016-0.064-0.031-0.096-0.047
				c0.009,0.033,0.022,0.062,0.031,0.095C87.462,108.638,87.526,108.638,87.59,108.638z"/>
			<path fill="#EAECE0" d="M90.264,109c-0.892,0-1.783,0-2.674,0c0.861,0,1.723,0.661,2.584,0.991
				C90.205,109.662,90.234,109,90.264,109z"/>
			<path fill="#EAECE0" d="M99.676,95.339c0,0.229-3.22,2.362-3.22,2.587C95.385,98.193,94.422,98,93.38,99h-1.166
				c-1.412,0-2.675,0.877-4.558,1.559c1.468,0.951,2.609,1.645,3.809,2.423c0.173,1.463,3.573,3.984,4.973,3.981
				c0,0.09,2.833-0.641,2.833-0.551c1.352-0.557,3.854-1.297,4.801-1.147c4.271,0.675,3.107-0.95,5.721-1.841
				C105.922,102.747,104.747,93.96,99.676,95.339z"/>
			<path fill="#EAECE0" d="M116.768,102.588c-1.61-2.26-4.099-3.877-6.094-5.888c-2.014-2.028-3.581-4.434-5.757-6.252
				C102.264,88.231,99,88.219,96,90.227c0-0.011,0-0.021,0-0.031c-1,0.928-2.705,1.014-4.225,0.992
				c-0.665,0.541-1.637,1.001-2.346,1.151c-4.173,0.885-7.099,5.651-11.992,3.767c-1.471,3.766,0.64,5.395,3.427,6.947
				c2.488,1.388,5.559,2.24,6.511,5.49c0.032,0.016,0.061,0.212,0.094,0.229c0.042,0.016,0.08,0.229,0.122,0.229
				c0.891,0,1.782,0,2.674,0c-0.03,0-0.059,0.662-0.089,0.991c-0.861-0.33-1.723-0.991-2.584-0.991c-0.064,0-0.127,0-0.191,0
				c-0.009,0-0.022-0.243-0.031-0.276c-5.916-2.905-11.871-5.823-17.731-8.835c-5.741-2.95-10.721-7.582-17.484-8.588
				c-0.981,3.115-0.087,4.806,2.436,5.898c2.17,0.94,4.285,2.015,6.367,3.143c5.709,3.089,11.379,6.246,17.083,9.346
				c3.187,1.731,6.282,3.388,9.486,5.088c2.397,1.272,4.478,2.554,7.478,4.061c0-2.051,0-3.488,0-5.129
				c1,0.034,1.473-0.165,1.845,0.151c2.357,2.003,4.222,0.398,6.399-0.516c3.434-1.442,7.139-2.313,10.71-3.427
				c1.467-0.457,4.201-0.915,4.201-1.374C118.156,106.529,117.887,104.16,116.768,102.588z M104.072,105.259
				c-0.946-0.149-3.449,0.585-4.801,1.142c0-0.09-2.833,0.63-2.833,0.539c-1.4,0.004-4.799-2.54-4.973-4.004
				c-1.2-0.778-2.341-1.426-3.809-2.377C89.54,99.877,90.803,99,92.215,99h1.166c1.042-1,2.005-0.807,3.076-1.074
				c0-0.225,3.22-2.312,3.22-2.541c5.071-1.379,6.246,7.384,10.117,8.061C107.18,104.336,108.343,105.935,104.072,105.259z"/>
		</g>
		<path fill-rule="evenodd" clip-rule="evenodd" fill="#EAECE0" d="M68.976,92.447c-1.339-4.897-1.083-5.296,3.144-6.442
			c5.247-1.422,10.469-2.933,16.332-4.582c0.512,1.627,1.791,3.559,1.329,4.882c-0.381,1.092-2.768,1.653-4.361,2.12
			c-4.27,1.252-8.585,2.35-12.896,3.457C71.447,92.158,70.321,92.239,68.976,92.447z"/>
		<path fill-rule="evenodd" clip-rule="evenodd" fill="#EAECE0" d="M87.657,100.466c1.883-0.681,3.146-1.139,4.558-1.649
			c0,1.515,0,2.88,0,4.604C90.719,102.451,89.426,101.613,87.657,100.466z"/>
		<path fill-rule="evenodd" clip-rule="evenodd" fill="#EAECE0" d="M87.399,108.638c0.955,0,1.91,0,2.865,0
			c-0.03,0.331-0.059,0.661-0.089,0.991c-0.903-0.346-1.807-0.692-2.71-1.039L87.399,108.638z"/>
		<g>
			<path fill="#EAECE0" d="M138.082,59.434c-0.291-2.469-1.452-2.999-3.263-3.178c-4.843-0.48-9.224,0.854-13.587,2.75
				c-4.668,2.028-8.747,4.792-12.057,8.64c-3.391,3.942-3.239,8.087,0.763,11.054c2.444,1.813,5.251,3.428,8.146,4.278
				c5.007,1.471,10.235,1.563,15.06-0.823c2.675-1.325,5.107-3.185,7.529-4.966c3.17-2.331,5.253-7.921,4.604-10.85
				c-1.165-5.273-11.207-8.667-17.744-3.721c0.949,0.186,1.551,0.416,2.147,0.4c2.744-0.072,5.496-0.411,8.228-0.277
				c3.375,0.167,5.094,3.01,3.627,6.009c-0.883,1.803-2.402,3.281-3.487,4.999c-4.624,7.326-18.614,9.748-25.908,4.784
				c-3.013-2.05-3.956-4.407-1.864-7.24c3.094-4.19,6.887-7.597,11.979-9.306C127.316,60.289,132.294,58.188,138.082,59.434z"/>
			<path fill="#EAECE0" d="M120.476,66.408c-0.887,7.754-0.593,9.678,2.213,11.528c0.329-3.973,0.63-7.595,0.945-11.389
				C122.256,66.486,121.44,66.45,120.476,66.408z"/>
			<path fill="#EAECE0" d="M129.104,76.48c0.289-3.383,0.563-6.586,0.862-10.072c-1.444,0.072-2.33,0.117-3.171,0.16
				C125.447,75.134,125.447,75.134,129.104,76.48z"/>
			<path fill-rule="evenodd" clip-rule="evenodd" fill="#EAECE0" d="M138.082,59.434c-5.788-1.246-10.766,0.854-15.828,2.554
				c-5.092,1.709-8.885,5.116-11.979,9.306c-2.092,2.833-1.148,5.19,1.864,7.24c7.294,4.964,21.284,2.542,25.908-4.784
				c1.085-1.718,2.604-3.196,3.487-4.999c1.467-2.999-0.252-5.842-3.627-6.009c-2.731-0.134-5.483,0.205-8.228,0.277
				c-0.597,0.016-1.198-0.215-2.147-0.4c6.537-4.946,16.579-1.552,17.744,3.721c0.648,2.929-1.435,8.519-4.604,10.85
				c-2.422,1.781-4.854,3.641-7.529,4.966c-4.824,2.387-10.053,2.294-15.06,0.823c-2.895-0.851-5.701-2.465-8.146-4.278
				c-4.002-2.967-4.153-7.111-0.763-11.054c3.31-3.848,7.389-6.612,12.057-8.64c4.363-1.896,8.744-3.23,13.587-2.75
				C136.63,56.435,137.791,56.965,138.082,59.434z"/>
			<path fill-rule="evenodd" clip-rule="evenodd" fill="#EAECE0" d="M120.476,66.408c0.965,0.042,1.78,0.078,3.158,0.14
				c-0.315,3.794-0.616,7.416-0.945,11.389C119.883,76.086,119.589,74.162,120.476,66.408z"/>
			<path fill-rule="evenodd" clip-rule="evenodd" fill="#EAECE0" d="M129.104,76.48c-3.657-1.347-3.657-1.347-2.309-9.912
				c0.841-0.043,1.727-0.088,3.171-0.16C129.668,69.895,129.394,73.098,129.104,76.48z"/>
		</g>
	</g>
	<path fill-rule="evenodd" clip-rule="evenodd" fill="#EAECE0" d="M197.002,77.488c-1.472-0.642-3.183-0.732-5.4-1.147
		c0.28-3.513,0.572-7.173,0.864-10.832c-0.154-0.737-1.752-1.685-1.844-2.762c-0.951-11.083-1.62-22.189-2.452-33.283
		c-0.401-5.357-0.829-10.721-1.545-16.042c-0.36-2.682-1.39-5.274-2.062-7.713c2.107-0.547,3.56-0.924,5.763-1.497
		c-1.356-0.787-1.894-1.374-2.403-1.354c-6.182,0.25-12.533-0.202-18.492,1.108c-7.33,1.612-14.558,3.026-22.061,2.646
		c-2.509-0.128-4.306,0.193-5.017,3.18c-1.191,5.003-0.926,7.044,2.349,9.195c-1.984,0.537-3.627,1.241-5.316,1.382
		c-3.053,0.255-2.744,1.517-1.309,3.355c-12.584,8.57-27.062,14.344-37.862,25.974c1.407,0.375,2.887,0.545,3.917-0.056
		c1.721-1.005,3.062-2.641,4.727-3.768c5.445-3.685,10.964-7.26,16.455-10.877c0.091,0.135,0.182,0.27,0.272,0.405
		c-1.174,1.697-2.349,3.394-3.855,5.569c1.817,0.919,3.46,2.506,4.796,2.28c3.786-0.641,7.448-2.023,11.338-3.166
		c1.955,3.39,5.619,3.575,12.025,1.576c2.443-0.762,4.717-5.236,4.456-8.155c3.859-1.257,7.631-2.527,11.432-3.708
		c2.224-0.691,3.057-2.02,2.082-4.847c-2.181-0.215-4.909-1.257-7.043-0.537c-4.774,1.61-7.744-3.75-12.326-1.71
		c0.022-0.43,0.044-0.86,0.065-1.29c9.894-1.381,19.787-2.761,29.681-4.142c-0.05-0.467-0.098-0.934-0.146-1.401
		c-9.155-1.148-18.044,1.973-27.254,2.615c-0.329-3.03-0.658-6.065-0.957-8.816c6.22-0.993,12.178-1.928,18.129-2.901
		c2.972-0.485,5.913-1.287,8.9-1.508c4.249-0.314,4.244,0.212,3.904,4.628c-0.272,3.541,0.371,7.153,0.617,10.868
		c-1.838,1.429-4.161,3.266-6.518,5.057c-7.991,6.076-16.002,12.125-23.985,18.211c-1.364,1.04-2.395,2.067-4.535,2.071
		c-4.364,0.008-8.733,0.781-13.087,1.353c-6.902,0.907-13.788,1.938-20.689,2.857c-4.435,0.59-8.883,1.074-13.698,1.649
		c0.104,1.213,0.208,26.316,0.312,27.429c1.105-0.011,2.233,0.053,3.363,0.138c0.299-0.776,1.663-25.839,2.521-25.937
		c12.373-1.421,24.768-2.649,37.153-3.957c0.978-0.104,1.931-0.434,3.604-0.825c0.309,1.76,0.664,3.185,0.795,4.63
		c0.759,8.312,1.604,16.62,2.135,24.947c0.326,5.119,0.266,10.272,0.147,15.405c-0.035,1.506-0.648,2.609-1.664,3.294
		c-0.146,1.128-0.378,2.245-0.662,3.357c0.143,0.006,0.286,0.011,0.43,0.018c0.416,4.062-1.62,7.828,1.359,10.892
		c0.08,0.023,0.16,0.045,0.24,0.07c-0.01,0.039-0.021,0.078-0.03,0.118c1.16,0.7,2.255,1.59,3.508,2.021
		c1.296,0.445,2.971,0.947,4.096,0.487c2.183-0.891,4.245-2.254,6.095-3.747c7.498-6.058,14.854-12.293,22.354-18.348
		c2.86-2.309,5.971-4.309,9.112-6.555c1.054-1.474,2.481-3.153,3.5-5.052C197.684,79.604,197.458,77.688,197.002,77.488z
		 M163.129,26.808c0.091,0.385,0.182,0.771,0.272,1.156c-2.728,0.724-5.455,1.449-8.182,2.174c-0.116-0.471-0.231-0.942-0.347-1.413
		C157.625,28.085,160.377,27.447,163.129,26.808z M146.43,9.177c0.16,0.184,0.321,0.368,0.481,0.552
		c-0.194,0.156-0.389,0.312-0.783,0.631C146.264,9.829,146.348,9.503,146.43,9.177z M126.021,39.915
		c3.253-1.736,5.024-6.27,10.198-5.272C133.59,38.424,130.639,40.696,126.021,39.915z M132.619,30.981
		c2.694-1.562,5.748-3.333,8.804-5.105c0.53-0.28,1.062-0.561,1.594-0.841c0.109,0.146,0.218,0.293,0.326,0.441
		c-0.426,0.364-0.853,0.729-1.279,1.094c-0.415,1.229-0.83,2.457-1.245,3.685c1.393,0.291,2.776,0.735,4.182,0.826
		c1.281,0.083,2.587-0.217,3.972,0.289c-2.588,1.042-5.177,2.084-7.01,2.821C138.584,33.03,135.732,32.05,132.619,30.981z
		 M143.004,40.836c-0.357-0.383-0.715-0.766-1.072-1.149c0.659-1.037,1.083-2.467,2.024-3.03c2.19-1.311,4.613-2.575,7.435,0.547
		C148.596,38.415,145.8,39.625,143.004,40.836z M152.3,25.257c0.067,0.378,0.135,0.757,0.201,1.136
		c-1.943,1.829-3.898,2.545-5.885-0.022c0,0-0.002,0-0.003,0c-0.048,0.059-0.096,0.118-0.143,0.177
		c-0.236,0.982-0.472,1.965-0.708,2.948c-0.428-0.163-0.856-0.324-1.284-0.486c0.664-0.821,1.328-1.642,1.992-2.462
		c0.021-0.092,0.044-0.184,0.066-0.276c0.025,0.036,0.053,0.064,0.079,0.099C148.511,26,150.405,25.628,152.3,25.257z
		 M153.164,46.545c9.492-6.977,18.674-14.376,27.996-21.586c0.557-0.43,1.322-0.593,2.342-1.032c0,3.904-0.198,7.457,0.042,10.978
		c0.454,6.644,1.205,13.267,1.739,19.906c0.266,3.297,0.417,6.611,0.416,9.917c0,0.863-0.615,1.847-1.2,2.573
		c-2.385,2.968-4.583,6.176-7.396,8.683c-2.636,2.35-6.031,3.825-8.964,5.869c-2.854,1.989-5.669,4.071-8.266,6.376
		c-2.033,1.806-3.707,4.014-5.541,6.044c-0.359-0.131-0.719-0.264-1.078-0.395c-0.345-2.245-0.841-4.48-1.007-6.739
		c-0.828-11.221-1.516-22.452-2.375-33.671C149.638,50.41,150.514,48.492,153.164,46.545z M181.345,87.341
		c-8.944,7.142-17.863,14.314-26.824,21.437c-0.744,0.591-1.719,0.894-2.766,1.422c0.613-4.039,1.181-7.775,1.644-10.825
		c11.15-8.716,22.093-17.27,32.729-25.582C189.808,79.782,185.937,83.674,181.345,87.341z"/>
	<path fill-rule="evenodd" clip-rule="evenodd" fill="#EAECE0" d="M148.412,111.348c0.048,0.049,0.093,0.098,0.144,0.146
		c0.022,0.014,0.044,0.028,0.066,0.042c0.01-0.04,0.021-0.079,0.03-0.118C148.572,111.393,148.492,111.371,148.412,111.348z"/>
	<path fill-rule="evenodd" clip-rule="evenodd" fill="#EAECE0" d="M146.471,26.548c0.047-0.059,0.095-0.118,0.143-0.177
		c0.001,0,0.002,0,0.002,0c-0.025-0.035-0.053-0.063-0.078-0.099C146.515,26.365,146.492,26.456,146.471,26.548z"/>
	<path fill-rule="evenodd" clip-rule="evenodd" fill="#EAECE0" d="M146.537,26.272l0.076,0.099c1.896-0.371,3.791-0.743,5.687-1.114
		c0.067,0.378,0.135,0.757,0.201,1.136"/>
	<path fill-rule="evenodd" clip-rule="evenodd" fill="#EAECE0" d="M142.063,26.569c-0.214-0.231-0.428-0.462-0.641-0.694
		c0.53-0.28,1.062-0.561,1.594-0.841c0.109,0.146,0.218,0.293,0.326,0.441C142.917,25.839,142.49,26.205,142.063,26.569z"/>
	<path fill-rule="evenodd" clip-rule="evenodd" fill="#EAECE0" d="M146.128,10.36c0.136-0.532,0.22-0.857,0.302-1.183
		c0.16,0.184,0.321,0.368,0.481,0.552C146.717,9.886,146.522,10.042,146.128,10.36z"/>
</g>
</svg>
