<?xml version="1.0" encoding="utf-8"?>
<!-- Generator: Adobe Illustrator 16.0.0, SVG Export Plug-In . SVG Version: 6.00 Build 0)  -->
<!DOCTYPE svg PUBLIC "-//W3C//DTD SVG 1.1//EN" "http://www.w3.org/Graphics/SVG/1.1/DTD/svg11.dtd">
<svg version="1.1" id="Layer_1" xmlns="http://www.w3.org/2000/svg" xmlns:xlink="http://www.w3.org/1999/xlink" x="0px" y="0px"
	 width="200px" height="180.498px" viewBox="0 0 200 180.498" enable-background="new 0 0 200 180.498" xml:space="preserve">
<path fill="#EAECE0" d="M193.542,11.637c-2.345-0.164-4.683-0.683-7.018-0.651c-2.861,0.038-4.646-1.031-6.371-3.402
	c-3.612-4.958-9.819-5.341-15.036-7.316c-1.246-0.472-3.419,1.279-5.069,2.185c-0.833,0.456-1.446,1.309-2.104,1.93
	c-1.779-0.628-3.385-1.194-5.046-1.779c-1.599,1.754-3.015,3.311-3.75,4.119c-3.227-1.112-5.917-2.776-8.564-2.71
	c-1.97,0.049-3.883,2.34-5.839,3.645c-6.294-5.324-7.873-8.173-13.278,0.368c-4.707,1.234-8.218,2.155-11.436,2.998
	c-2.781-2.972-5.604-5.988-9.063-9.682c-2.528,4.356-4.372,7.532-5.836,10.056c-2.491-1.331-4.933-3.714-7.099-3.485
	c-2.144,0.226-4.01,3.086-6.135,4.909c-1.984-2.429-3.771-4.617-6.116-7.489c-2.045,3.196-3.579,5.595-5.439,8.503
	c-13.683-0.503-27.658,0.312-41.114-1.957c-9.712-1.638-18.841-0.499-28.587-0.529c-1.145,4.647,0.707,7.421,4.4,8.609
	c2.942,0.947,6.208,0.868,9.32,1.315c2.999,0.432,5.982,0.954,9.061,1.449c0.019,11.326,0.351,21.779-0.032,32.206
	c-0.411,11.215-1.2,22.439-2.414,33.595c-0.556,5.105-2.355,10.049-1.019,15.298c0.282,1.106-0.1,2.37-0.089,3.56
	c0.042,4.832-0.279,9.716,0.351,14.474c0.306,2.305,2.541,4.371,3.833,6.547c0.354-0.189,0.67-0.377,1.191-0.565
	c-0.011-6.572-0.022-13.144-0.034-20.32c2.086,1.457,3.792,2.312,5.229,3.158c4.639-7.298,3.426-12.334-3.953-17.78
	c0.951-17.765,1.877-35.656,2.839-53.624c1.953-0.905,4.014-1.865,6.201-2.878c2.99,11.642,4.736,13.199,14.376,13.3
	c0.026-0.036,0.047-0.072,0.072-0.106c-0.09-0.458-0.183-0.915-0.273-1.373c0.476-0.055,0.95-0.109,1.427-0.164
	c0.974-0.123,1.948-0.246,2.921-0.369c0.003-0.002,0.005-0.004,0.008-0.006c0.785-2.694,1.632-5.371,2.338-8.085
	c1.232-4.727-1.054-8.658-5.673-9.269c-4.012-0.53-8.059,0.342-11.981-2.159c-1.458-0.929-4.718,1.018-7.174,1.572
	c-0.697,0.158-1.458,0.059-2.639,0.061c0.493-2.542,0.924-4.589,1.403-7.194c12.629-0.021,25.099-0.042,37.809-0.063
	c3.374,8.85,1.681,18.255,1.816,27.774c-5.44-1.558-10.03-6.737-15.899-2.621c-0.001,0.004-0.002-0.001-0.003,0.002
	c-1.01,0.145-2.02,0.285-3.03,0.431c-0.351,0.488-0.703,0.975-1.054,1.464c0.002,0.011,0.004,0.021,0.007,0.032
	c-1.707,2.113-3.595,4.104-5.086,6.358c-4.632,7-5.44,14.725-4.723,22.971c0.591,6.79,3.372,11.917,8.9,15.618
	c4.219,2.825,5.465,6.51,3.481,11.252c-3.656,8.736-1.134,12.807,3.375,17.097c1.565,1.487,3.953,2.111,7.159,3.734
	c-2.301,1.152-3.51,2.223-4.794,2.324c-8.689,0.693-17.403,1.082-26.092,1.772c-6.024,0.477-12.406-0.48-17.715,3.37
	c5.08,23.949,14.357,30.289,26.698,34.561c1.173,4.873,4.769,8.195,9.522,8.509c4.072,0.27,6.442-2.003,7.379-5.13
	c23.259-0.039,46-0.077,68.464-0.115c0.876,2.604,1.16,4.759,2.174,6.313c0.722,1.108,2.903,2.545,3.613,2.188
	c4.166-2.091,9.557-2.938,10.492-8.812c5.203-1.295,10.361-2.418,15.406-3.926c1.451-0.435,3.262-1.724,3.72-3.036
	c1.391-3.983,2.2-8.168,3.299-12.513c3.49-0.026,7.949,0.323,7.767-5.238c-0.339-10.249-1.203-20.48-1.604-30.729
	c-0.238-6.057-0.657-12.224,0.178-18.178c0.999-7.125,3.84-13.993,4.842-21.119c2.441-17.36,6.029-34.645,4.884-52.353
	c-0.24-3.726,1.35-5.364,5.299-5.062c4.063,0.311,8.17,0.057,12.163,0.05C199.626,14.522,198.145,11.957,193.542,11.637z
	 M167.829,5.807c1.202,6.025,1.062,6.176-4.163,5.602c-0.219-0.411-0.438-0.821-0.656-1.231
	C164.497,8.829,165.983,7.481,167.829,5.807z M143.815,11.471c0,0.521,0,0.521,0,0.521c-0.521,0.001-0.521,0.001-1.041,0.002
	c0,0,0,0-0.001-0.521C143.294,11.472,143.294,11.472,143.815,11.471z M130.91,12.013c0.013,0.521,0.023,0.61,0.035,0.924
	c-0.873,0.059-1.747,0.125-2.619,0.184c-0.042-0.371-0.083-0.582-0.125-1.103C129.104,12.016,130.007,12.015,130.91,12.013z
	 M103.704,11.645c0.139,0.439,0.279,0.88,0.419,1.319c-0.622,0.101-1.245,0.202-1.868,0.303c-0.078-0.247-0.157-0.493-0.233-0.739
	C102.581,12.233,103.142,11.939,103.704,11.645z M52.883,89.028c-6.663-0.792-11.089-8.592-9.62-15.982
	c1.189-5.983,3.884-11.526,8.375-15.841c4.674-4.492,9.94-5.725,15.679-0.31c0.004,2.615,0.009,5.519,0.014,8.286
	c-0.524-1.395-1.877-2.803-2.872-4.211c-0.524,0.151-0.998,0.304-1.522,0.456c0.005,2.844-0.105,5.698,0.08,8.53
	c0.179,2.732,0.547,5.474,1.106,8.153c0.567,2.713,1.484,5.353,2.483,8.864C62.567,87.653,57.58,89.586,52.883,89.028z
	 M60.308,117.344c-1.639-0.519-3.278-1.037-5.349-1.69c0.849-1.816,1.534-3.281,2.817-6.026c1.439,2.979,2.329,4.821,3.219,6.666
	C60.767,116.643,60.537,116.993,60.308,117.344z M57.271,98.058c3.055-1.593,5.957-3.107,9.898-5.162
	c-1.319,6.063-2.452,11.271-3.817,17.545C60.93,105.508,59.144,101.872,57.271,98.058z M149.022,163.518
	c-11.779,1.033-23.584,1.934-35.396,2.389c-11.031,0.426-22.102,0.571-33.127,0.146c-8.611-0.334-17.188-1.68-25.769-2.68
	c-4.886-0.57-9.778-1.177-14.613-2.066c-10.939-2.011-16.861-9.241-19.732-19.492c-0.309-1.104-0.625-2.204-1.11-3.914
	c13.814-0.685,27.296-1.354,41.038-2.038c-0.694,4.871-1.457,9.449-1.972,14.057c-0.532,4.738,1.46,7.025,6.257,7.058
	c11.013,0.075,22.028-0.115,33.039,0.025c5.305,0.07,10.604,0.655,15.907,0.989c8.128,0.514,16.093,0.352,23.684-3.42
	c6.841-3.399,14.119-4.905,21.781-3.136C159.201,159.078,156.306,162.879,149.022,163.518z M175.22,49.835
	c-0.787,7.042-1.466,14.104-2.545,21.104c-1.462,9.487-3.746,18.873-4.746,28.399c-0.664,6.318,0.165,12.817,0.577,19.219
	c0.456,7.056,1.317,14.085,1.742,21.142c0.112,1.852-0.735,3.759-1.207,5.937c-4.268,0.007-8.214,0.112-12.155,0
	c-8.171-0.231-15.821,1.296-23.725,3.837c-7.283,2.344-15.574,1.979-23.426,2.021c-11.264,0.062-22.531-0.536-33.793-0.96
	c-4.054-0.151-8.096-0.609-12.735-0.976c1.334-8.404,2.525-15.91,3.945-24.851c3.487-1.512,8.451-3.662,14.086-6.104
	c-1.159-2.089-2.223-4.005-3.333-6.008c-3.95,1.306-7.438,2.459-10.774,3.562c1.273-8.607,2.689-17.102,3.728-25.641
	c0.57-4.682,0.57-9.44,0.706-14.168c0.237-8.275-0.262-16.509,2.213-24.703c2.667-8.832,1.25-17.969-0.029-26.965
	c-0.079-0.547-0.012-1.116-0.014-2.124c3.651-0.261,3.651-0.261,11.303,4.375c0.54-1.446,1.055-2.823,1.966-5.265
	c3.577,1.066,7.153,2.131,10.996,3.277c3.274-4.107,5.024-4.079,13.426,0.816c5.08-4.456,5.356-4.417,11.464-0.661
	c0.803,0.494,2.668,0.561,3.189,0.014c4.765-5.003,9.233-2.597,14.008,0.383c3.898-4.38,8.264-4.346,12.539-0.632
	c8.328-4.002,16.304-3.654,25.166,0.854C176.965,33.497,176.131,41.67,175.22,49.835z"/>
<path fill="#EAECE0" d="M150.624,47.824c-0.617,1.117-1.423,2.17-1.818,3.361c-1.479,4.468-3.322,8.894-4.107,13.495
	c-1.35,7.91-3.547,16.121-2.618,23.874c1.68,14.028,0.277,27.016-6.375,39.453c-0.579,1.082-0.705,2.404-1.352,4.733
	c1.962-1.184,3.109-1.55,3.769-2.328c5.018-5.921,7.321-12.946,7.405-20.575c0.219-19.675-1.684-39.593,7.753-58.067
	c0.457-0.896-0.829-2.683-1.303-4.055C151.526,47.75,151.075,47.787,150.624,47.824z"/>
<path fill="#EAECE0" d="M107.93,83.585c0.185-7.447,1.373-14.864,1.694-22.313c0.104-2.414-1.17-4.886-1.813-7.331
	c-0.546,0.091-1.09,0.183-1.636,0.275c-0.069,1.642-0.183,3.284-0.199,4.926c-0.039,3.747-0.009,7.495-0.043,11.242
	c-0.074,8.233-1.158,16.608-0.011,24.667c1.453,10.198,0.545,19.488-4.326,28.542c-1.143,2.124-1.267,4.796-1.861,7.214
	c0.469,0.171,0.937,0.341,1.406,0.512c6.424-9.442,10.263-19.496,8.108-31.384C108.277,94.573,107.794,89.026,107.93,83.585z"/>
<path fill="#EAECE0" d="M52.286,80.959c0.082,1.221,1.331,2.364,2.226,3.849c3.986-5.875,3.312-17.772-1.691-23.1
	C51.844,68.699,51.878,74.836,52.286,80.959z"/>
</svg>
