<?xml version="1.0" encoding="utf-8"?>
<!-- Generator: Adobe Illustrator 16.0.0, SVG Export Plug-In . SVG Version: 6.00 Build 0)  -->
<!DOCTYPE svg PUBLIC "-//W3C//DTD SVG 1.1//EN" "http://www.w3.org/Graphics/SVG/1.1/DTD/svg11.dtd">
<svg version="1.1" xmlns="http://www.w3.org/2000/svg" xmlns:xlink="http://www.w3.org/1999/xlink" x="0px" y="0px"
	 width="472.899px" height="363.225px" viewBox="0 0 472.899 363.225" enable-background="new 0 0 472.899 363.225"
	 xml:space="preserve">
<g id="Layer_3">
</g>
<g id="Layer_1">
</g>
<g id="Layer_2">
</g>
<g id="Layer_4">
	<text transform="matrix(1 0 0 1 104.7549 172.7246)" display="none" fill="#C7F464" font-family="'OArbust'" font-size="82.9591">HiDE</text>
	<text transform="matrix(1 0 0 1 133.3369 251.2764)" display="none" fill="#C7F464" font-family="'OArbust'" font-size="82.9591">SEeK</text>
	<text transform="matrix(1 0 0 -1 268.7861 126.6133)" display="none" fill="#C7F464" font-family="'OArbust'" font-size="60.8648">8</text>
	<g>
		<g>
			<g>
				<path fill="#C7F464" d="M381.576,180.226c0,1.55,0.654,3.246,1.967,5.083c1.024,1.435,2.166,2.153,3.421,2.153
					c1.138,0,2.164-0.514,3.077-1.542l-5.899-10.346C382.432,176.723,381.576,178.271,381.576,180.226z"/>
				<path fill="#C7F464" d="M401.649,145.38c0-0.7-0.073-1.401-0.212-2.104c-0.701-5.196-2.613-9.865-5.982-12.53
					c-2.878-2.322-6.174-3.779-10.386-3.845c-4.7-0.073-7.819,1.559-10.137,2.89c-3.229,1.755-4.876,5.051-4.945,9.895
					c-0.071,6.593,3.173,14.102,11.243,22.522c-7.929,3.999-11.786,9.435-11.577,16.313c0.211,6.242,2.806,11.399,7.78,15.469
					c3.576,2.948,7.223,4.422,10.938,4.422c3.925,0,8.081-2.386,11.097-5.251l5.896,9.392l5.93-5.144l-19.751-34.857
					C398.279,157.356,401.649,151.632,401.649,145.38z M375.652,141.367c0-3.931,1.227-6.56,3.683-7.894
					c1.334-0.63,3.737-1.943,6.474-1.943c5.82,0,9.032,4.363,10.367,11.101c0.21,0.981,0.316,1.926,0.316,2.841
					c0,5.822-3.23,10.14-9.685,12.944C379.371,152.875,375.652,147.189,375.652,141.367z M396.484,186.391
					c-1.747,4.604-5.605,7.147-8.685,7.147c-0.628,0-1.293-0.106-1.991-0.315c-4.545-1.545-7.289-4.146-9.317-9.129
					c-0.561-1.333-0.839-2.631-0.839-3.894c0-4.702,3.053-8.702,9.164-12.001L396.484,186.391z"/>
				<path fill="#C7F464" d="M387.209,152.523c3.171-3.088,4.615-6.035,4.335-8.842c-0.144-2.387-0.903-4.193-2.275-5.418
					c-1.373-1.23-2.855-1.74-4.443-1.528c-3.379,0.489-4.788,2.913-4.226,7.265c0.217,1.752,1.409,3.717,3.577,5.892
					C385.041,150.733,386.053,151.607,387.209,152.523z"/>
			</g>
		</g>
		<g>
			<path fill="#C7F464" d="M122,173.703H68.927l2.507-60.594H50.25l-5.694,69.474l-43.281-1.138L0.592,4.229l52.166-3.872
				l0.68,66.058h21.867l2.278-57.174l42.369-4.557L122,173.703z M108.334,162.771l-0.913-145.056l-17.989,2.162l-2.738,55.188
				l-46.467,5.244l-0.684-67.426l-26.424,1.139l0.911,155.121l21.411,0.684l2.961-66.509l46.016-4.331L81,161.629L108.334,162.771z"
				/>
			<path fill="#C7F464" d="M156.094,159.694l-23.137-0.578l-1.928-129.957l25.259-0.771L156.094,159.694z"/>
			<path fill="#C7F464" d="M256.924,89.316c-0.771,17.227-5.592,33.165-14.462,47.818c-7.841,13.109-16.389,21.788-25.644,26.028
				c-12.984,5.916-28.279,8.486-45.889,7.714l-1.542-152.709c4.752-1.027,10.024-1.543,15.81-1.543
				c11.184,0,21.336,2.061,30.466,6.172c10.41,4.756,19.536,12.469,27.378,23.137C252.938,59.304,257.566,73.765,256.924,89.316z
				 M245.162,92.207c0.641-16.582-2.506-29.69-9.447-39.332c-3.47-4.754-10.286-10.476-20.439-17.159
				c-8.098-5.399-20.117-7.778-36.055-7.135l1.928,130.92c5.014-0.897,9.574-1.86,13.69-2.892
				c9.896-2.314,16.837-4.755,20.824-7.326c4.883-3.214,10.088-8.741,15.617-16.583C240.021,120.233,244.648,106.736,245.162,92.207
				z M232.629,88.931c0,11.569-4.757,23.592-14.268,36.058c-7.328,9.642-16.07,14.782-26.222,15.425l-3.664-93.709
				c0.898-0.126,1.991-0.192,3.278-0.192c10.411,0,19.473,4.179,27.187,12.534C228.065,68.942,232.629,78.905,232.629,88.931z
				 M222.796,89.895c0-6.171-2.697-12.533-8.099-19.088c-4.626-5.654-9.448-9.062-14.462-10.22l3.086,63.436
				c2.441-2.313,6.234-6.361,11.376-12.145C220.099,104.935,222.796,97.608,222.796,89.895z"/>
			<path fill="#C7F464" d="M362.581,127.687l-1.155,41.261l-89.082,1.93l1.158-154.252l72.689,3.473l-0.964,30.079l-30.27,3.662
				v15.617l33.356,2.119l-1.156,31.731l-29.502,4.451l1.543,19.929H362.581z M349.855,159.887l-0.578-21.207l-41.264-1.931
				l-0.77-40.878l29.116-0.961l-0.774-14.653l-31.043-0.968l-1.927-36.056l32.392-2.119V29.159l-50.134-0.964l-0.575,131.691
				H349.855z"/>
		</g>
		<g>
			<path fill="#C7F464" d="M171.932,298.43c-3.131,20.898-12.723,35.969-28.788,45.207c-11.515,6.54-25.802,9.809-42.862,9.809
				c-8.244,0-15.991-0.71-23.241-2.132v-41.369c7.818,1.424,15.423,2.134,22.817,2.134c19.19,0,29.498-5.331,30.918-15.995
				c0.141-1.276,0.215-2.485,0.215-3.623c0-8.104-4.356-14.854-13.064-20.258c-8.14-4.832-16.207-9.668-24.202-14.502
				c-8.563-6.963-12.704-16.276-12.42-27.935c0.429-17.768,7.534-30.562,21.324-38.382c10.091-5.686,23.171-8.529,39.237-8.529
				c8.245,0,16.062,0.641,23.455,1.918l-4.264,31.561c-4.266-0.71-8.604-1.067-13.008-1.067c-14.499,0-22.321,4.129-23.457,12.368
				c-0.712,5.403,3.058,10.592,11.301,15.567c13.508,8.246,21.395,13.365,23.672,15.354c8.667,7.964,13.008,18.197,13.008,30.706
				C172.572,292.106,172.359,295.162,171.932,298.43z M158.926,296.23c0.852-12.952-2.848-23.13-11.093-30.531
				c-7.817-5.124-15.707-10.252-23.667-15.378c-8.527-5.69-12.58-12.81-12.154-21.354c0.853-15.517,14-23.416,39.447-23.702
				l1.495-13.238c-4.409-0.852-9.101-1.283-14.074-1.283c-27.722,0-42.936,12.085-45.634,36.251
				c-0.996,9.381,2.984,17.485,11.941,24.309c8.387,5.546,16.845,11.088,25.375,16.633c9.097,7.676,13.36,17.346,12.794,29
				c-0.858,16.207-14.469,24.312-40.827,24.312c-5.301,0-10.243-0.285-14.827-0.853v21.745c2.56,0.285,5.544,0.431,8.955,0.431
				c14.357,0,26.656-2.562,36.893-7.686C149.041,327.197,157.5,314.312,158.926,296.23z"/>
			<path fill="#C7F464" d="M274.115,310.255l-1.157,41.263l-89.079,1.928l1.157-154.249l72.689,3.47l-0.965,30.078l-30.271,3.663
				v15.619l33.356,2.121l-1.155,31.73l-29.502,4.45l1.543,19.927H274.115z M261.389,342.457l-0.579-21.211l-41.26-1.927
				l-0.772-40.879l29.114-0.962l-0.771-14.655l-31.042-0.962l-1.931-36.058l32.394-2.12v-11.954l-50.135-0.964l-0.574,131.691
				H261.389z"/>
			<path fill="#C7F464" d="M286.045,342.65l0.58-131.885l50.517,0.964l-0.388,11.954l-32.391,2.12l1.927,36.058l31.042,0.962
				l0.771,14.655l-29.113,0.962l0.772,40.879l41.26,1.927l0.58,21.211L286.045,342.65z"/>
			<path fill="#C7F464" d="M472.899,213.041l-53.079,79.786l41.054,35.791l-24.415,33.349l-32.962-37.642l-1.628,28.28
				l-37.028-2.234l-1.63-147.311l42.726,4.275l0.816,42.32l33.57-50.46L472.899,213.041z M456.639,218.337l-13.012-6.097
				l-43.182,63.058l-5.496-57.612l-23.599-2.153l1.832,124.459h21.158l1.841-38.844l39.92,45.278l10.527-16.671l-38.484-36.383
				L456.639,218.337z"/>
		</g>
		<g>
			<polygon fill="#C7F464" points="407.408,179.287 402.709,183.629 405.5,188.747 411.201,183.477 			"/>
			<path fill="#C7F464" d="M348.937,115.686l4.793,92.68l69.11,2.663l5.461-91.082L348.937,115.686z M416.208,198.084l-11.47,9.682
				l-6.563-8.408c-2.455,2.522-5.825,3.788-10.104,3.788c-1.404,0-2.879-0.142-4.42-0.42c-4.07-0.846-7.859-2.912-11.367-6.211
				c-4.63-4.279-7.26-9.508-7.893-15.681c-0.07-0.704-0.104-1.439-0.104-2.211c0-7.579,3.541-13.329,10.629-17.261
				c-7.439-4.771-10.718-11.996-11.348-21.678c-0.351-5.616,1.683-10.072,6.101-13.366c3.72-2.809,7.93-5.278,13.403-5.42
				c13.19-0.35,21.136,6.682,24.575,19.102c0.488,1.611,0.737,3.261,0.737,4.945c0,7.017-3.474,13.576-10.419,19.68l7.079,12.986
				l4.362-2.818l7.602,8.393l-6.128,5.128L416.208,198.084z"/>
		</g>
	</g>
</g>
<g id="Layer_5">
</g>
</svg>
